<svg xmlns="http://www.w3.org/2000/svg" viewBox="0 0 17.84 11.71"><defs><style>.cls-1{fill:#548cc5;}</style></defs><title>Risorsa 34</title><g id="Livello_2" data-name="Livello 2"><g id="Grafica"><g id="_Gruppo_" data-name="&lt;Gruppo&gt;"><path id="_Tracciato_composto_" data-name="&lt;Tracciato composto&gt;" class="cls-1" d="M2.64,5.67a3.13,3.13,0,0,0-.39.9A6.77,6.77,0,0,0,2,7.71a2.89,2.89,0,0,0,.09,1.11,1.62,1.62,0,0,0,.51.81,3.94,3.94,0,0,0,2.94.06Q7,9.15,8.22,8.61a19.41,19.41,0,0,0,3.3-1.92q1.2-.72,2.34-1.56l2.28-1.68.75-.6a1,1,0,0,1,.87-.18.76.76,0,0,1-.21,1,9.19,9.19,0,0,0-.75.66,9.05,9.05,0,0,1-.87.66,4.92,4.92,0,0,0-.75.6q-1.08.84-2.34,1.71T10.2,9q-1.32.84-2.73,1.65a7.8,7.8,0,0,1-3.09,1A4,4,0,0,1,1.56,11,3.2,3.2,0,0,1,.24,8.67,5,5,0,0,1,.36,6.75Q.6,5.91.9,5.13a1.27,1.27,0,0,0-.54-.48A.67.67,0,0,1,0,4a.56.56,0,0,1,.66-.15l.66.27A25.26,25.26,0,0,1,3.24,1.68,5.07,5.07,0,0,1,5.94,0,1.86,1.86,0,0,1,7.17.21a1.47,1.47,0,0,1,.75,1,2.89,2.89,0,0,1-.39,1.71,4.55,4.55,0,0,1-1,1.23A6.2,6.2,0,0,1,4.83,5.19,6,6,0,0,1,2.64,5.67Zm.84-1.56a7.81,7.81,0,0,0,1.8-1A7.65,7.65,0,0,0,6,2.4a1,1,0,0,0,.3-.87A4.39,4.39,0,0,0,4.65,2.61,9,9,0,0,0,3.48,4.11Z"/></g></g></g></svg>