<svg xmlns="http://www.w3.org/2000/svg" viewBox="0 0 104.29 78.75"><defs><style>.cls-1{fill:#548cc5;}.cls-2{fill:#0f4881;stroke:#0f4881;stroke-miterlimit:10;stroke-width:0.25px;}</style></defs><title>Risorsa 33</title><g id="Livello_2" data-name="Livello 2"><g id="Grafica"><g id="_Gruppo_" data-name="&lt;Gruppo&gt;"><path id="_Tracciato_composto_" data-name="&lt;Tracciato composto&gt;" class="cls-1" d="M25.3,16.31a3.39,3.39,0,0,0,.95.19c.39,0,.55.27.5.72a.57.57,0,0,1-.46.54,2.31,2.31,0,0,1-.83,0l-.69.26a.93.93,0,0,1-.69,0,1.56,1.56,0,0,1-1.29-1.26c-.16-.69-.28-1.39-.38-2.1s-.19-1.47-.27-2.28S22,10.77,22,10.06s-.12-1.6-.19-2.36a19.73,19.73,0,0,0-.34-2.17,8.39,8.39,0,0,0-.65-1.87,3.17,3.17,0,0,0-1.18-1.3A5.06,5.06,0,0,0,16.42,3.7,26.94,26.94,0,0,0,14.1,6.17a33.58,33.58,0,0,0-5.3,8.61A68.56,68.56,0,0,0,5.33,25.15q-.68,2.52-1.25,5.52c-.38,2-.69,4.1-.92,6.25s-.35,4.35-.38,6.56A37,37,0,0,0,3.28,50a18.13,18.13,0,0,0,.38,1.87,12.22,12.22,0,0,0,.61,1.79,5.47,5.47,0,0,0,1.1,1.87,2,2,0,0,0,2.1.42,5.32,5.32,0,0,0,2.7-1.68c.79-.86,1.52-1.67,2.18-2.44s1.37-1.72,2-2.59,1.19-1.72,1.75-2.59l3.66-5.33q1.83-2.67,3.58-5.34-3,.39-6.17.69c-2.09.2-4.19.43-6.33.68l-.91.19a5.1,5.1,0,0,1-1.11.12,3.33,3.33,0,0,1-1-.15,1,1,0,0,1-.61-.61.83.83,0,0,1,.77-.61c.4-.05.76-.1,1.06-.16q3.66-.3,7.62-.72t7.78-.8a6.41,6.41,0,0,0,.91-1,1.58,1.58,0,0,1,1.3-.57,1.47,1.47,0,0,1,.91.38,4,4,0,0,1,.61.83c1.32-.15,2.81-.25,4.46-.3a46.6,46.6,0,0,1,4.76.08,11.85,11.85,0,0,0,1.41.07,1,1,0,0,1,1,.61.87.87,0,0,1-1,.54c-.53,0-1-.08-1.41-.08-1.52,0-3.07,0-4.65.08s-3,.12-4.34.22q-.45,10-.38,20.28t.53,20a1.68,1.68,0,0,0,.5-.61c.13-.26.39-.28.8-.08s.52.46.34.92l-.42,1.07a11,11,0,0,1-.84,1.29c-.3.41-.76.43-1.37.08a2.55,2.55,0,0,1-1-1.87,23.86,23.86,0,0,1-.34-2.55q-.54-4.35-.76-9.22c-.16-3.26-.23-6.53-.23-9.84s.06-6.56.19-9.79.26-6.29.42-9.18a1.28,1.28,0,0,0-.5.42l-.42.57c-1,1.27-1.92,2.59-2.86,4s-1.84,2.72-2.7,4c-1.12,1.52-2.19,3.08-3.2,4.65a36.72,36.72,0,0,1-3.36,4.42,23.19,23.19,0,0,1-1.9,2,8.74,8.74,0,0,1-2.44,1.6,5,5,0,0,1-3.16.19,4,4,0,0,1-2.4-1.64A13,13,0,0,1,1,52.17a28,28,0,0,1-.88-5A42.07,42.07,0,0,1,0,41.8Q.15,39,.46,36.43A76.21,76.21,0,0,1,2.13,26.37a69.3,69.3,0,0,1,2.75-8.92,70,70,0,0,1,3.62-8,25.19,25.19,0,0,1,5.14-6.71,20,20,0,0,1,1.6-1.25,9.26,9.26,0,0,1,2-1.07A6.31,6.31,0,0,1,19.51,0a3.74,3.74,0,0,1,2.21.76,5.16,5.16,0,0,1,2,2.75,18.49,18.49,0,0,1,.84,4c.15,1.44.25,2.94.3,4.49A29.36,29.36,0,0,0,25.3,16.31Z"/><path id="_Tracciato_composto_2" data-name="&lt;Tracciato composto&gt;" class="cls-1" d="M53,56.24a1.06,1.06,0,0,1-1-.83c-.12-.51-.24-1-.34-1.38a24.52,24.52,0,0,1-.34-4.68c0-1.71.06-3.37.11-5q.08-3.42.31-6.93t.53-6.94q-2,3.14-3.66,6.18a31.12,31.12,0,0,1-4,5.71c-.56.56-1.17,1.16-1.83,1.79a3.9,3.9,0,0,1-2.36,1.11,2.61,2.61,0,0,1-1.29-.19A4.18,4.18,0,0,1,38,44.51a6.82,6.82,0,0,1-1.75-4.8V37.8a15.87,15.87,0,0,1,.15-2.21,6.94,6.94,0,0,1,.53-1.9,1.61,1.61,0,0,1,1.07-1,2.2,2.2,0,0,1,2,.61,2.25,2.25,0,0,1,.34,2.06c0,.21-.19.29-.42.27a4,4,0,0,0-.49,0c0,.41-.1.91-.15,1.52s-.11,1.17-.16,1.68a18.28,18.28,0,0,0,.19,2.4c.13.89.42,1.39.88,1.49.25.1.61,0,1.07-.35a8.53,8.53,0,0,0,1.06-.87,17.81,17.81,0,0,0,2.48-2.9L47,35.44a35.12,35.12,0,0,0,2-3.32c.59-1.09,1.23-2.22,2-3.39a5.09,5.09,0,0,0,.45-.76,3.13,3.13,0,0,1,.57-.8,1.44,1.44,0,0,1,.77-.42,1.07,1.07,0,0,1,.87.3,1.7,1.7,0,0,1,.5,1.11A10.52,10.52,0,0,1,54.22,30c0,.68-.07,1.36-.15,2S54,33.2,54,33.61c-.1,1.47-.21,2.76-.31,3.85s-.18,2.22-.23,3.39c-.1,2.39-.17,4.72-.22,7s0,4.5.15,6.63l.3,1.07C53.75,55.91,53.55,56.14,53,56.24Z"/><path id="_Tracciato_composto_3" data-name="&lt;Tracciato composto&gt;" class="cls-1" d="M61.5,50a4.27,4.27,0,0,0,2.25-1.22,22.79,22.79,0,0,0,1.64-1.9q.84-1,1.56-2c.48-.66,1-1.35,1.41-2.06s1-1.41,1.41-2.1l1.33-2.09.73-1.14a11.14,11.14,0,0,1,.72-1,4,4,0,0,0,.65-1.1.88.88,0,0,1,1.1-.5.78.78,0,0,1-.19,1,3.64,3.64,0,0,0-.72,1A35.17,35.17,0,0,1,71.56,40c-.66,1-1.29,2-1.9,3.09q-1.3,2-2.56,4a21.39,21.39,0,0,1-2.93,3.66,12.55,12.55,0,0,1-1.37,1,2.83,2.83,0,0,1-2.06.27,7,7,0,0,0-.76-.46,4.33,4.33,0,0,1-1.3-2.4,16,16,0,0,1-.38-3.58,29.06,29.06,0,0,1,.27-3.93c.18-1.32.37-2.44.57-3.35.1-.46.23-1,.38-1.64a8.08,8.08,0,0,1,.61-1.72,2.32,2.32,0,0,1,.95-1.06,1.38,1.38,0,0,1,1.41.23,2.85,2.85,0,0,1,.31,1.29c0,.26-.08.4-.23.42a.39.39,0,0,0-.31.27,21.11,21.11,0,0,0-.83,3.2q-.32,1.68-.54,3.66c-.1,1.17-.16,2.42-.19,3.77A5.71,5.71,0,0,0,61.5,50Zm2.29-24.31a2.66,2.66,0,0,1-1.22.31,1.27,1.27,0,0,1-.46-.84.67.67,0,0,1,.38-.65,1.21,1.21,0,0,1,.76-.11.91.91,0,0,1,.61.42A.78.78,0,0,1,63.79,25.68Z"/><path id="_Tracciato_composto_4" data-name="&lt;Tracciato composto&gt;" class="cls-1" d="M87.87,18.67c-1.12,2.75-2.2,5.5-3.24,8.27s-2.15,5.53-3.31,8.27a6.41,6.41,0,0,1-.08.95A4.18,4.18,0,0,1,81,37a1.65,1.65,0,0,1-.46.65,3.55,3.55,0,0,0-.53.57,4.39,4.39,0,0,0-.46,1.14,6,6,0,0,1-.45,1.22q-1.15,2.75-2.4,5.45a47.17,47.17,0,0,1-2.86,5.22c-.26.36-.52.74-.8,1.14a6.38,6.38,0,0,1-1,1.11,4.61,4.61,0,0,1-1.14.8,2.1,2.1,0,0,1-1.37.15,1.91,1.91,0,0,1-1.52-1,5.58,5.58,0,0,1-.61-2,10.44,10.44,0,0,1,0-2.44,18.69,18.69,0,0,1,.34-2.32A29,29,0,0,1,70.65,38a24.86,24.86,0,0,1,4.87-6.55,7.15,7.15,0,0,1,1.38-.81,3.33,3.33,0,0,1,1.82-.19c.41.21.78.41,1.11.61a2.2,2.2,0,0,1,.8.92q2.2-5,4.46-10.9T89.39,9.6c.16-.5.35-1.1.58-1.79s.54-1.08,1-1.18a.69.69,0,0,1,.72.08,2.24,2.24,0,0,1,.5.61,21.35,21.35,0,0,1-.35,3.81c-.22,1.27-.44,2.56-.64,3.88q-.91,5.64-1.41,11.74t-.42,12.5q.08,6.48.46,12.69t.83,12.46c0,.61.08,1.28.08,2v2.25c0,.3,0,.63,0,1a5,5,0,0,1,0,1,1.83,1.83,0,0,1-.34.83,1,1,0,0,1-.8.35.84.84,0,0,1-.76-.35,1.92,1.92,0,0,1-.31-.83c0-.34-.09-.67-.11-1a2,2,0,0,0-.27-.87A21.85,21.85,0,0,0,88,65.43c-.12-1.2-.24-2.4-.34-3.62-.25-3.46-.48-7-.68-10.67s-.33-7.33-.39-11,0-7.33.2-10.94A91.32,91.32,0,0,1,87.87,18.67ZM74.46,36.81A16.27,16.27,0,0,0,73.12,39c-.38.76-.72,1.5-1,2.21a36.77,36.77,0,0,0-1.75,5.22,14.58,14.58,0,0,0-.3,5.6,3.44,3.44,0,0,0,1.45-1.33c.4-.64.78-1.23,1.14-1.79a13.64,13.64,0,0,0,1.1-1.83c.33-.66.68-1.32,1-2,.51-.92,1-1.9,1.49-2.94s.92-2.07,1.33-3.08A9,9,0,0,1,78.12,38a3.17,3.17,0,0,0,.38-1,6.16,6.16,0,0,0-.38-3.74s0-.07-.08-.07a4.87,4.87,0,0,0-2,1.48A15.71,15.71,0,0,0,74.46,36.81Z"/><path id="_Tracciato_composto_5" data-name="&lt;Tracciato composto&gt;" class="cls-1" d="M101.89,34a9.23,9.23,0,0,1,1.49,2.67,13.77,13.77,0,0,1,.84,3.5,13.11,13.11,0,0,1-.12,3.55,4.78,4.78,0,0,1-1.45,2.78,10.49,10.49,0,0,1-1.67,1.1,4.1,4.1,0,0,1-2,.5,3.7,3.7,0,0,1-2.9-1.18A4.89,4.89,0,0,1,94.88,44a9.85,9.85,0,0,1,.69-4.45c.56-1.35,1.11-2.56,1.67-3.62a4.65,4.65,0,0,1,0-2.56A1.76,1.76,0,0,1,98.84,32a1.23,1.23,0,0,1,.69.19,1,1,0,0,0,.53.19,1.26,1.26,0,0,0,.69-.19,1,1,0,0,1,.53-.19,1.72,1.72,0,0,1,1.37.61,1.24,1.24,0,0,1,.23,1.37A.66.66,0,0,1,101.89,34Zm-1.6,1.14c-.51.87-1.05,1.91-1.64,3.13a11,11,0,0,0-1,3.88,6.44,6.44,0,0,0,0,2.06,1.85,1.85,0,0,0,.88,1.37,1.6,1.6,0,0,0,1.41.12,5.33,5.33,0,0,0,1.26-.65,4.07,4.07,0,0,0,1.14-2.29,10,10,0,0,0,0-2.85,11.46,11.46,0,0,0-.73-2.82,6.88,6.88,0,0,0-1.22-2.1s0,0-.07,0A.22.22,0,0,0,100.29,35.13Zm-1.6-1.44c0,.15.08.16.08,0S98.74,33.58,98.69,33.69Z"/></g><g id="_Gruppo_2" data-name="&lt;Gruppo&gt;"><path id="_Tracciato_composto_6" data-name="&lt;Tracciato composto&gt;" class="cls-2" d="M39.55,71.55a1.31,1.31,0,0,1-.19.27l-.23.2a.52.52,0,0,1-.15.14,3.23,3.23,0,0,1-1.25.6A6.57,6.57,0,0,1,35.9,73H30.31v-.1a5.88,5.88,0,0,0,.8,0,1.07,1.07,0,0,0,.52-.2.79.79,0,0,0,.28-.42,2.27,2.27,0,0,0,.09-.71v-8a.74.74,0,0,1,0-.18,2.78,2.78,0,0,0-.06-.64,1,1,0,0,0-.2-.41.83.83,0,0,0-.38-.22,2.77,2.77,0,0,0-.58-.1h-.45v-.11h5.3a5.67,5.67,0,0,1,.85.06,4.44,4.44,0,0,1,.76.16,3,3,0,0,1,1.12.62,2.74,2.74,0,0,1,0,4,3.54,3.54,0,0,1-.51.35,3.1,3.1,0,0,1-.61.25,1.68,1.68,0,0,1-.32.09l-.33.08a5.54,5.54,0,0,1,.6.06,4.61,4.61,0,0,1,.56.12,3.39,3.39,0,0,1,1.25.6,2.4,2.4,0,0,1,1,2A2.52,2.52,0,0,1,39.55,71.55Zm-6.06-4.2h2A2.07,2.07,0,0,0,36.68,67a2.53,2.53,0,0,0,.31-.28,2.17,2.17,0,0,0,.29-.4,3.61,3.61,0,0,0,.36-1.69,3.33,3.33,0,0,0-.51-1.94,1.87,1.87,0,0,0-1.63-.78h-.9a1.28,1.28,0,0,0-.87.34,1.61,1.61,0,0,0-.24,1v4.07Zm4.14,4.74a2.91,2.91,0,0,0,.58-1.92,3,3,0,0,0-.58-1.92,2.21,2.21,0,0,0-1.84-.8h-2.3v4.07a2.9,2.9,0,0,0,.06.64.84.84,0,0,0,.21.41.94.94,0,0,0,.39.23,2.36,2.36,0,0,0,.59.09h1A2.18,2.18,0,0,0,37.63,72.09Z"/><path id="_Tracciato_composto_7" data-name="&lt;Tracciato composto&gt;" class="cls-2" d="M48.28,72.78a4,4,0,0,0,.81-.36,2.86,2.86,0,0,0,.62-.51,3.68,3.68,0,0,0,.46-.6,4.67,4.67,0,0,0,.63-1.61h.1L50.49,73H41.28v-.09a5.88,5.88,0,0,0,.8,0,1.07,1.07,0,0,0,.52-.2.87.87,0,0,0,.28-.42,2.32,2.32,0,0,0,.09-.71V63.49s0-.05,0-.08,0-.06,0-.08a1.57,1.57,0,0,0-.27-1.06,1.39,1.39,0,0,0-1-.32h-.44v-.09H50.1v2.93H50c-.08-.31-.16-.63-.26-1a3.09,3.09,0,0,0-.45-.91,2.49,2.49,0,0,0-.84-.68A3.07,3.07,0,0,0,47.07,62H44.44V67.4h2a1.61,1.61,0,0,0,.94-.27,1.82,1.82,0,0,0,.51-.58,1.86,1.86,0,0,0,.22-.62,2.75,2.75,0,0,0,0-.39v0h.1v3.89h-.1v0a3.25,3.25,0,0,0,0-.41,1.9,1.9,0,0,0-.22-.63,1.74,1.74,0,0,0-.54-.58,1.65,1.65,0,0,0-1-.25H44.44V71.3a1.29,1.29,0,0,1,0,.25,2.84,2.84,0,0,0,.06.64.89.89,0,0,0,.21.41,1,1,0,0,0,.38.23,2.36,2.36,0,0,0,.59.09h1.55A3.66,3.66,0,0,0,48.28,72.78Z"/><path id="_Tracciato_composto_8" data-name="&lt;Tracciato composto&gt;" class="cls-2" d="M61.62,64.75v0c-.08-.29-.16-.59-.25-.9A3.15,3.15,0,0,0,61,63a2.21,2.21,0,0,0-.74-.68A2.75,2.75,0,0,0,59,61.93h-.13a1.22,1.22,0,0,0-.85.34,1.54,1.54,0,0,0-.25,1v8.24a2.9,2.9,0,0,0,.06.64,1.06,1.06,0,0,0,.21.41.94.94,0,0,0,.39.23,2.21,2.21,0,0,0,.58.09h.43V73H54.59v-.1a5.77,5.77,0,0,0,.8,0,1,1,0,0,0,.52-.2.77.77,0,0,0,.27-.42,2.27,2.27,0,0,0,.09-.71V63.3a2.27,2.27,0,0,0-.07-.64.89.89,0,0,0-.21-.41.83.83,0,0,0-.38-.22,2.77,2.77,0,0,0-.58-.1h-.09a2.71,2.71,0,0,0-1.21.34A2.31,2.31,0,0,0,53,63a3.18,3.18,0,0,0-.42.87q-.14.46-.24.9v0h-.09V61.82h9.48v2.93Z"/><path id="_Tracciato_composto_9" data-name="&lt;Tracciato composto&gt;" class="cls-2" d="M72.7,64.75v0c-.07-.29-.16-.59-.25-.9A3.15,3.15,0,0,0,72,63a2.21,2.21,0,0,0-.74-.68,2.75,2.75,0,0,0-1.22-.34H70a1.25,1.25,0,0,0-.86.34,1.54,1.54,0,0,0-.25,1v8.24a2.84,2.84,0,0,0,.07.64.83.83,0,0,0,.59.64,2.28,2.28,0,0,0,.58.09h.44V73H65.68v-.1a6,6,0,0,0,.8,0,1,1,0,0,0,.51-.2.77.77,0,0,0,.27-.42,2.27,2.27,0,0,0,.09-.71V63.3a2.78,2.78,0,0,0-.06-.64,1.13,1.13,0,0,0-.21-.41.93.93,0,0,0-.39-.22,2.66,2.66,0,0,0-.58-.1H66a2.71,2.71,0,0,0-1.21.34,2.31,2.31,0,0,0-.74.68,3.5,3.5,0,0,0-.42.87c-.09.31-.17.61-.23.9v0h-.1V61.82H72.8v2.93Z"/><path id="_Tracciato_composto_10" data-name="&lt;Tracciato composto&gt;" class="cls-2" d="M74.19,67.34a6,6,0,0,1,.39-2.19,5.26,5.26,0,0,1,1-1.8,4.54,4.54,0,0,1,1.53-1.19,4.29,4.29,0,0,1,1.91-.45h.81a4.23,4.23,0,0,1,1.89.45,4.52,4.52,0,0,1,1.57,1.19,6.18,6.18,0,0,1,0,8,4.67,4.67,0,0,1-1.57,1.2,4.36,4.36,0,0,1-1.89.44h-.81a4.41,4.41,0,0,1-1.91-.44,4.57,4.57,0,0,1-1.53-1.2,5.26,5.26,0,0,1-1-1.8A6,6,0,0,1,74.19,67.34Zm1.52,0A8.63,8.63,0,0,0,76,69.47a5.91,5.91,0,0,0,.77,1.79,3.62,3.62,0,0,0,.22.32l.24.28a3.63,3.63,0,0,0,.85.65c.27.14.49.24.66.31l.26.06.3,0h.41l.28,0,.28-.06c.16-.07.38-.17.65-.31a4.13,4.13,0,0,0,.86-.65l.23-.28c.08-.1.15-.21.23-.32A6.19,6.19,0,0,0,83,69.47a8.85,8.85,0,0,0,0-4.26,6.19,6.19,0,0,0-.78-1.79L82,63.1l-.23-.28a4.05,4.05,0,0,0-.86-.64c-.27-.15-.49-.25-.65-.32l-.28,0-.28,0h-.41a2.6,2.6,0,0,0-.56.07,6.23,6.23,0,0,0-.66.32,3.57,3.57,0,0,0-.85.64L77,63.1l-.22.32A5.91,5.91,0,0,0,76,65.21,8.63,8.63,0,0,0,75.71,67.34Z"/></g></g></g></svg>