<svg xmlns="http://www.w3.org/2000/svg" viewBox="0 0 118.63 80.54"><defs><style>.cls-1{fill:#548cc5;}.cls-2{fill:#0f4881;stroke:#0f4881;stroke-miterlimit:10;stroke-width:0.25px;}</style></defs><title>Risorsa 32</title><g id="Livello_2" data-name="Livello 2"><g id="Grafica"><g id="_Gruppo_" data-name="&lt;Gruppo&gt;"><path id="_Tracciato_composto_" data-name="&lt;Tracciato composto&gt;" class="cls-1" d="M3.28,60.36A4.16,4.16,0,0,1,1.45,59a6.78,6.78,0,0,1-1-2.29A12.47,12.47,0,0,1,0,53.77c0-1,0-2.1,0-3.17.05-1.27.14-2.55.27-3.85s.29-2.52.49-3.69q1.53-9.91,3.62-19T9.15,6.1c.1-.31.29-.85.57-1.64A3.16,3.16,0,0,0,10,2.74c-.05-.2-.11-.3-.19-.3a.75.75,0,0,1-.34-.15,1.74,1.74,0,0,1-.3-.69,1.25,1.25,0,0,1,.53-1A1.9,1.9,0,0,1,10.75.3a2.32,2.32,0,0,1,1.14.31,1.47,1.47,0,0,1,.69.76,5.61,5.61,0,0,1,0,3.62c-.41,1.2-.74,2.33-1,3.39Q9,17.31,6.9,26.33A191.24,191.24,0,0,0,3.51,45.5c-.16,1-.28,2.11-.38,3.27S3,51.16,2.9,52.43V54.3a10.94,10.94,0,0,0,.15,1.83,5.66,5.66,0,0,0,.46,1.52,1.6,1.6,0,0,0,.91.88,7.86,7.86,0,0,0,3.09.19c1.24-.13,2.3-.27,3.16-.42a72.41,72.41,0,0,0,7.7-1.52c2.33-.61,4.85-1.17,7.54-1.68a2,2,0,0,1,.61-.08.53.53,0,0,1,.53.38.42.42,0,0,1-.19.5,2.94,2.94,0,0,1-.61.34,6.74,6.74,0,0,1-.72.27l-.61.19c-1.37.41-2.74.77-4.11,1.11s-2.72.67-4,1c-.92.26-1.83.47-2.75.65l-2.82.57c-1.27.21-2.61.4-4,.58A9.49,9.49,0,0,1,3.28,60.36Z"/><path id="_Tracciato_composto_2" data-name="&lt;Tracciato composto&gt;" class="cls-1" d="M17.22,32.92a3.94,3.94,0,0,0-.49,1.15,8.16,8.16,0,0,0-.27,1.44,3.62,3.62,0,0,0,.12,1.41,2,2,0,0,0,.64,1A5,5,0,0,0,21,38c1.22-.46,2.33-.92,3.35-1.37a24.64,24.64,0,0,0,4.19-2.44c1-.61,2-1.27,3-2l2.89-2.14,1-.76a1.26,1.26,0,0,1,1.11-.23,1,1,0,0,1-.27,1.22c-.38.31-.7.59-.95.84A12.93,12.93,0,0,1,34.1,32a6.57,6.57,0,0,0-1,.76c-.91.71-1.9,1.44-3,2.17S28,36.43,26.83,37.19s-2.28,1.41-3.47,2.1a10,10,0,0,1-3.93,1.25,5,5,0,0,1-3.58-.8,4,4,0,0,1-1.67-3,6.25,6.25,0,0,1,.15-2.44c.2-.71.43-1.39.68-2a1.56,1.56,0,0,0-.68-.61.85.85,0,0,1-.46-.84.72.72,0,0,1,.84-.19l.84.34A32.93,32.93,0,0,1,18,27.85a6.36,6.36,0,0,1,3.43-2.09A2.34,2.34,0,0,1,23,26a1.85,1.85,0,0,1,.95,1.22,3.63,3.63,0,0,1-.5,2.17,5.54,5.54,0,0,1-1.33,1.56A7.79,7.79,0,0,1,20,32.31,7.54,7.54,0,0,1,17.22,32.92Zm1.07-2a10.1,10.1,0,0,0,2.29-1.29,10.62,10.62,0,0,0,.91-.88,1.32,1.32,0,0,0,.38-1.11A5.62,5.62,0,0,0,19.78,29,11.29,11.29,0,0,0,18.29,30.94Z"/><path id="_Tracciato_composto_3" data-name="&lt;Tracciato composto&gt;" class="cls-1" d="M38.87,12.42q7.85-.75,16.08-1.79a148.3,148.3,0,0,1,17-1.1,33.11,33.11,0,0,1,4.23.11,36.35,36.35,0,0,1,3.93.57,11,11,0,0,0,1.14.31.69.69,0,0,1,.61.83.8.8,0,0,1-1,.39c-.43-.16-.82-.28-1.18-.39A27.68,27.68,0,0,0,75,10.82c-1.65-.05-3.32,0-5,0s-3.39.19-5.06.34-3.26.31-4.73.46q-5.49.45-10.82,1.11c-3.56.43-7.06.87-10.52,1.33-.15,2-.27,4.09-.34,6.17s-.17,4.19-.27,6.33-.09,4.25-.11,6.36-.09,4.26-.19,6.44c-.16,3.76-.23,7.47-.23,11.13s0,7.34-.15,11a5.83,5.83,0,0,1-.16,1.33c-.1.43-.43.67-1,.73a.88.88,0,0,1-1-.69,13.05,13.05,0,0,1-.23-1.37c-.1-1.53-.16-3.09-.19-4.69s-.06-3.14-.11-4.61l-.15-6.4c0-2.14-.08-4.24-.08-6.33,0-4.26.1-8.51.3-12.72s.41-8.31.61-12.27q-4.34.53-8.91,1.37t-9.15,1.45L16,17.53l-1.64.15a6,6,0,0,1-1.76-.11c-.55-.13-.83-.4-.83-.8a.64.64,0,0,1,.64-.65,3.78,3.78,0,0,1,1.19.11c3.81-.45,7.48-1,11-1.71s7.2-1.23,11-1.64c.1-1.07.19-2.18.27-3.35S36,7.19,36.12,6s.21-2.22.31-3.31A4.1,4.1,0,0,1,37.57.08a1.4,1.4,0,0,1,1,0,1,1,0,0,1,.58.53q.15,2.82,0,5.87T38.87,12.42Z"/><path id="_Tracciato_composto_4" data-name="&lt;Tracciato composto&gt;" class="cls-1" d="M44.58,44.66a4.27,4.27,0,0,0,2.25-1.22,22.93,22.93,0,0,0,1.64-1.91c.56-.65,1.08-1.32,1.56-2s.95-1.34,1.41-2,1-1.41,1.41-2.1.88-1.38,1.33-2.1l.73-1.14a11,11,0,0,1,.72-1,4,4,0,0,0,.65-1.11.88.88,0,0,1,1.1-.49.78.78,0,0,1-.19,1,3.78,3.78,0,0,0-.72.95,33.92,33.92,0,0,1-1.83,3.09c-.66,1-1.29,2-1.9,3.08q-1.31,2-2.56,4a21.39,21.39,0,0,1-2.93,3.66,13.94,13.94,0,0,1-1.37,1,2.78,2.78,0,0,1-2.06.27c-.31-.2-.56-.35-.76-.46a4.26,4.26,0,0,1-1.3-2.4,16,16,0,0,1-.38-3.58,29,29,0,0,1,.27-3.92q.27-2,.57-3.36c.1-.45.23-1,.38-1.64a8.19,8.19,0,0,1,.61-1.71,2.35,2.35,0,0,1,.95-1.07,1.4,1.4,0,0,1,1.41.23,2.93,2.93,0,0,1,.31,1.3c0,.25-.08.39-.23.42a.36.36,0,0,0-.31.26,21.74,21.74,0,0,0-.83,3.2q-.32,1.68-.54,3.66c-.1,1.17-.16,2.43-.19,3.77A5.75,5.75,0,0,0,44.58,44.66Zm2.29-24.31a2.78,2.78,0,0,1-1.22.3,1.23,1.23,0,0,1-.46-.84.66.66,0,0,1,.38-.64,1.15,1.15,0,0,1,.76-.12.91.91,0,0,1,.61.42A.8.8,0,0,1,46.87,20.35Z"/><path id="_Tracciato_composto_5" data-name="&lt;Tracciato composto&gt;" class="cls-1" d="M54.79,43.52q5-.92,9.95-2.1a64.76,64.76,0,0,1,10.71-1.56,25.78,25.78,0,0,1,2.78,0,22.74,22.74,0,0,1,2.7.3,3.71,3.71,0,0,0,.84.23c.31,0,.43.26.38.61s-.24.59-.57.53l-.87-.15a26.56,26.56,0,0,0-6.9,0q-3.54.46-6.44,1l-3.51.77c-1.17.25-2.31.5-3.43.76s-2.33.54-3.5.87a11.37,11.37,0,0,1-3.58.42,1.16,1.16,0,0,1-.84-.72,1.59,1.59,0,0,1,0-1,5.85,5.85,0,0,1,.53-1.11,8.58,8.58,0,0,1,.65-.95,63.65,63.65,0,0,1,7.05-7.28,70.09,70.09,0,0,0,7-7q-2.28.84-4.31,1.8t-4.07,2c-.41.25-.85.5-1.34.76a3.33,3.33,0,0,1-1.56.38c-.61-.31-.93-.64-.95-1A1.44,1.44,0,0,1,55.94,30a6.45,6.45,0,0,1,1.14-1l1.14-.8c.61-.4,1.2-.77,1.76-1.1s1.09-.62,1.6-.88C62.8,25.53,64,25,65.31,24.39a20.55,20.55,0,0,1,4.19-1.3,2.48,2.48,0,0,1,2.67,1.07,2.35,2.35,0,0,1,.19,1.37,3.74,3.74,0,0,1-.42,1.22,9.68,9.68,0,0,1-1.87,2.32l-2.24,2.1-6.67,6.17C58.84,39.48,56.72,41.53,54.79,43.52Z"/><path id="_Tracciato_composto_6" data-name="&lt;Tracciato composto&gt;" class="cls-1" d="M79.1,44.66a4.27,4.27,0,0,0,2.25-1.22A21.19,21.19,0,0,0,83,41.53c.56-.65,1.08-1.32,1.56-2s1-1.34,1.41-2,1-1.41,1.41-2.1.88-1.38,1.34-2.1l.72-1.14a11,11,0,0,1,.72-1,4,4,0,0,0,.65-1.11.88.88,0,0,1,1.11-.49.79.79,0,0,1-.19,1,4.1,4.1,0,0,0-.73.95,33.92,33.92,0,0,1-1.83,3.09c-.66,1-1.29,2-1.9,3.08q-1.31,2-2.55,4a21.45,21.45,0,0,1-2.94,3.66,12.84,12.84,0,0,1-1.37,1,2.77,2.77,0,0,1-2.06.27c-.3-.2-.56-.35-.76-.46a4.26,4.26,0,0,1-1.3-2.4,16,16,0,0,1-.38-3.58,29,29,0,0,1,.27-3.92q.27-2,.57-3.36c.1-.45.23-1,.38-1.64a8.8,8.8,0,0,1,.61-1.71,2.4,2.4,0,0,1,1-1.07,1.39,1.39,0,0,1,1.41.23A2.8,2.8,0,0,1,80.4,30c0,.25-.08.39-.23.42a.35.35,0,0,0-.3.26,20.57,20.57,0,0,0-.84,3.2c-.21,1.12-.38,2.34-.54,3.66s-.16,2.43-.19,3.77A5.82,5.82,0,0,0,79.1,44.66Zm2.29-24.31a2.74,2.74,0,0,1-1.22.3,1.28,1.28,0,0,1-.46-.84.66.66,0,0,1,.38-.64,1.17,1.17,0,0,1,.77-.12,1,1,0,0,1,.61.42A.82.82,0,0,1,81.39,20.35Z"/><path id="_Tracciato_composto_7" data-name="&lt;Tracciato composto&gt;" class="cls-1" d="M118.58,28.43a.52.52,0,0,1-.15.64,4.78,4.78,0,0,1-.53.42c-.46.51-.91,1-1.34,1.57s-.87,1.08-1.33,1.63c-.56.77-1.11,1.53-1.64,2.29s-1.08,1.52-1.64,2.29l-1.6,2.21-1.68,2.28a21.72,21.72,0,0,1-2.36,2.71,6.43,6.43,0,0,1-3.43,1.64,2.49,2.49,0,0,1-1.37-.35,3.14,3.14,0,0,1-.91-.87,8.09,8.09,0,0,1-.88-3.28,26.46,26.46,0,0,1,0-3.77c.1-1.3.24-2.59.42-3.89s.29-2.53.34-3.69a27.24,27.24,0,0,0-3.43,3.62,21.46,21.46,0,0,1-3.81,3.69c-.61.41-1.26.8-1.94,1.18a3.8,3.8,0,0,1-2.33.42c-.25-.1-.48-.2-.68-.3a1.94,1.94,0,0,1-.54-.38A3.29,3.29,0,0,1,87.18,37a10.84,10.84,0,0,1,1.18-4.49,10.33,10.33,0,0,1,2.48-3.36,4.17,4.17,0,0,1,2.33-1,2.19,2.19,0,0,1,2.24,1.11,5.67,5.67,0,0,1,.35.61,3.12,3.12,0,0,1,.26.8,2.51,2.51,0,0,1,0,.76.43.43,0,0,1-.34.42c-.31.1-.52,0-.65-.15a4,4,0,0,1-.34-.69,6,6,0,0,0-.35-.72.67.67,0,0,0-.64-.35,1.28,1.28,0,0,0-.92.23,5.24,5.24,0,0,0-.84.73,4.4,4.4,0,0,0-.64.91,6.77,6.77,0,0,1-.5.8c-.35.66-.66,1.3-.91,1.91a5.83,5.83,0,0,0-.39,2.28A3.84,3.84,0,0,0,91.37,36c.51-.38,1-.77,1.45-1.18a33.83,33.83,0,0,0,2.67-2.48c.81-.84,1.68-1.74,2.59-2.7l1.3-1.45a3.69,3.69,0,0,1,1.52-1.07s.08,0,.08,0,0,0,.07,0a2.61,2.61,0,0,1,1.07.16,2.66,2.66,0,0,1,.84,2.44c-.1,1.06-.21,2.13-.31,3.2s-.3,2.47-.45,3.77a32.59,32.59,0,0,0-.23,4c0,.56,0,1.16.07,1.79a2.22,2.22,0,0,0,.77,1.56,5.14,5.14,0,0,0,2.63-1.37c.63-.66,1.3-1.32,2-2,1.26-1.47,2.46-3,3.58-4.5s2.26-3,3.43-4.49a13.54,13.54,0,0,1,.91-1.11,13,13,0,0,0,.91-1.1,6.14,6.14,0,0,0,1.07-1A.75.75,0,0,1,118.58,28.43Z"/></g><g id="_Gruppo_2" data-name="&lt;Gruppo&gt;"><path id="_Tracciato_composto_8" data-name="&lt;Tracciato composto&gt;" class="cls-2" d="M49.23,66.22a1.06,1.06,0,0,1-.2.26,1.45,1.45,0,0,1-.22.21,1.08,1.08,0,0,1-.15.14,3.28,3.28,0,0,1-1.26.6,6.52,6.52,0,0,1-1.82.22H40v-.1a6.17,6.17,0,0,0,.8,0,1.08,1.08,0,0,0,.52-.21.8.8,0,0,0,.28-.41,2.38,2.38,0,0,0,.08-.72v-8s0-.1,0-.19a2.84,2.84,0,0,0-.06-.64.94.94,0,0,0-.2-.4A.8.8,0,0,0,41,56.7a2.76,2.76,0,0,0-.59-.1H40v-.11h5.29a7.52,7.52,0,0,1,.86,0,5.65,5.65,0,0,1,.76.17,3,3,0,0,1,1.12.61,2.75,2.75,0,0,1,0,4,3.48,3.48,0,0,1-.51.34,2.61,2.61,0,0,1-.61.26l-.32.09-.33.07a3.79,3.79,0,0,1,.6.07l.55.11a3.52,3.52,0,0,1,1.26.6,2.41,2.41,0,0,1,1,2A2.52,2.52,0,0,1,49.23,66.22ZM43.17,62h2a2.08,2.08,0,0,0,1.19-.33,3.73,3.73,0,0,0,.31-.28A2.91,2.91,0,0,0,47,61a3.54,3.54,0,0,0,.36-1.68,3.23,3.23,0,0,0-.52-1.94,1.85,1.85,0,0,0-1.63-.78h-.89a1.26,1.26,0,0,0-.87.34,1.61,1.61,0,0,0-.24,1V62Zm4.14,4.74a2.91,2.91,0,0,0,.58-1.92,3,3,0,0,0-.58-1.93,2.21,2.21,0,0,0-1.84-.79h-2.3v4.07a2.8,2.8,0,0,0,.06.63.82.82,0,0,0,.6.64,1.7,1.7,0,0,0,.59.09h1A2.19,2.19,0,0,0,47.31,66.76Z"/><path id="_Tracciato_composto_9" data-name="&lt;Tracciato composto&gt;" class="cls-2" d="M50.86,62a6,6,0,0,1,.39-2.19,5.26,5.26,0,0,1,1-1.8,4.57,4.57,0,0,1,1.53-1.2,4.28,4.28,0,0,1,1.91-.44h.81a4.22,4.22,0,0,1,1.89.44A4.54,4.54,0,0,1,60,58a5.89,5.89,0,0,1,1.06,1.8A6.15,6.15,0,0,1,61.44,62a6,6,0,0,1-.38,2.18A5.77,5.77,0,0,1,60,66a4.54,4.54,0,0,1-1.56,1.2,4.23,4.23,0,0,1-1.89.45h-.81a4.29,4.29,0,0,1-1.91-.45A4.57,4.57,0,0,1,52.3,66a5.26,5.26,0,0,1-1-1.8A5.91,5.91,0,0,1,50.86,62Zm1.52,0a8.63,8.63,0,0,0,.26,2.13,5.85,5.85,0,0,0,.77,1.78,2.57,2.57,0,0,0,.22.32,2.32,2.32,0,0,0,.24.28,3.53,3.53,0,0,0,.84.65,5,5,0,0,0,.67.31l.26.06a1.36,1.36,0,0,0,.29,0h.42a1.14,1.14,0,0,0,.28,0l.28-.06a5.71,5.71,0,0,0,.65-.31,3.81,3.81,0,0,0,.86-.65c.07-.08.15-.17.23-.28l.23-.32a6.12,6.12,0,0,0,.78-1.78,8.9,8.9,0,0,0,0-4.27,6.12,6.12,0,0,0-.78-1.78l-.23-.32-.23-.28a4.13,4.13,0,0,0-.86-.65c-.28-.14-.49-.25-.65-.31l-.28-.05-.28,0h-.42a2.08,2.08,0,0,0-.55.07,6.76,6.76,0,0,0-.67.31,3.82,3.82,0,0,0-.84.65,3.48,3.48,0,0,0-.24.28,3.62,3.62,0,0,0-.22.32,5.85,5.85,0,0,0-.77,1.78A8.65,8.65,0,0,0,52.38,62Z"/><path id="_Tracciato_composto_10" data-name="&lt;Tracciato composto&gt;" class="cls-2" d="M62.81,64.14h.11a3.21,3.21,0,0,0,.07.65,6.82,6.82,0,0,0,.19.71,4.57,4.57,0,0,0,.31.67,2,2,0,0,0,.4.52,3.41,3.41,0,0,0,2.19.84h.13a3.81,3.81,0,0,0,1.18-.24,2.31,2.31,0,0,0,1-.79,2.1,2.1,0,0,0,.37-1.11,2.15,2.15,0,0,0-.33-1.19,2.79,2.79,0,0,0-1.14-1l-1.76-.9a5.17,5.17,0,0,1-1.39-1,3.29,3.29,0,0,1-.73-1.1,2.3,2.3,0,0,1-.16-1.12,2.63,2.63,0,0,1,.33-1,3.21,3.21,0,0,1,.75-.86,3.79,3.79,0,0,1,1.06-.6,2.46,2.46,0,0,1,.56-.15,3.64,3.64,0,0,1,.57,0,3.35,3.35,0,0,1,1.26.23l.47.17a2.33,2.33,0,0,0,.5.1,1,1,0,0,0,.48-.09.86.86,0,0,0,.39-.37h.1v3h-.12a2.25,2.25,0,0,0-.09-.61,3.32,3.32,0,0,0-.24-.62,3.52,3.52,0,0,0-.35-.56,3.47,3.47,0,0,0-.39-.44,3,3,0,0,0-.92-.55,3.29,3.29,0,0,0-1.09-.19,2.74,2.74,0,0,0-.48,0,3.11,3.11,0,0,0-.46.1,2,2,0,0,0-1,.67,1.38,1.38,0,0,0-.29,1.06,2.4,2.4,0,0,0,.62,1.28A6.06,6.06,0,0,0,66.6,61l1.6.82a4.13,4.13,0,0,1,1.22,1A3,3,0,0,1,70,63.89a2.56,2.56,0,0,1,0,1.2,2.48,2.48,0,0,1-.58,1.11,3.79,3.79,0,0,1-1.16.87,5.24,5.24,0,0,1-1.74.51h0l-.2,0h-.33a3.18,3.18,0,0,1-1.21-.24v0l-.14-.05a2.61,2.61,0,0,0-.92-.22,1.2,1.2,0,0,0-.53.11.63.63,0,0,0-.26.25.68.68,0,0,0-.08.19v0h-.1Z"/><path id="_Tracciato_composto_11" data-name="&lt;Tracciato composto&gt;" class="cls-2" d="M71.58,62.09h-.06a6.37,6.37,0,0,1,.39-2.19A5.7,5.7,0,0,1,73,58.1a5.79,5.79,0,0,1,.72-.68,4.15,4.15,0,0,1,.83-.52,4.29,4.29,0,0,1,1.91-.44,3.58,3.58,0,0,1,1.36.26h0a.05.05,0,0,0,0,0l0,0,.18.08.19.1a2.93,2.93,0,0,0,1.14.34,1.18,1.18,0,0,0,.63-.13.71.71,0,0,0,.32-.49h.1v4h-.1a6,6,0,0,0-.2-1,6.83,6.83,0,0,0-.31-.87,5.35,5.35,0,0,0-.41-.7,4.2,4.2,0,0,0-.5-.59,3.34,3.34,0,0,0-1.17-.78,3.39,3.39,0,0,0-1.12-.25,2.47,2.47,0,0,0-1.39.43,3.9,3.9,0,0,0-1.14,1.18,6.24,6.24,0,0,0-.78,1.77A7.87,7.87,0,0,0,73,62.09a7.5,7.5,0,0,0,.46,2.7,5.52,5.52,0,0,0,1.22,2,3.71,3.71,0,0,0,.69.49,3,3,0,0,0,.56.26,1.16,1.16,0,0,0,.32.08l.34,0,.57-.08a4.3,4.3,0,0,0,.55-.17,3.59,3.59,0,0,0,1.16-.78A3.07,3.07,0,0,0,79.4,66a5.3,5.3,0,0,0,.4-.7,4.73,4.73,0,0,0,.32-.87c.08-.3.15-.63.21-1h.1a6.62,6.62,0,0,1-.55,1.87,4.53,4.53,0,0,1-.9,1.32,3.87,3.87,0,0,1-1.2.78,3.32,3.32,0,0,1-1.35.27,4.16,4.16,0,0,1-1.91-.45A4.8,4.8,0,0,1,73,66.06a5.54,5.54,0,0,1-1.06-1.78,5.85,5.85,0,0,1-.29-1.07,6,6,0,0,1-.1-1.12Z"/><path id="_Tracciato_composto_12" data-name="&lt;Tracciato composto&gt;" class="cls-2" d="M82.52,62a6,6,0,0,1,.39-2.19A5.4,5.4,0,0,1,84,58a4.71,4.71,0,0,1,1.54-1.2,4.28,4.28,0,0,1,1.91-.44h.8a4.26,4.26,0,0,1,1.9.44A4.74,4.74,0,0,1,91.66,58a5.89,5.89,0,0,1,1.06,1.8A6.38,6.38,0,0,1,93.1,62a6.2,6.2,0,0,1-.38,2.18A5.77,5.77,0,0,1,91.66,66a4.74,4.74,0,0,1-1.56,1.2,4.28,4.28,0,0,1-1.9.45h-.8a4.29,4.29,0,0,1-1.91-.45A4.71,4.71,0,0,1,84,66a5.4,5.4,0,0,1-1-1.8A5.91,5.91,0,0,1,82.52,62ZM84,62a8.63,8.63,0,0,0,.25,2.13,5.87,5.87,0,0,0,.78,1.78,2.53,2.53,0,0,0,.21.32,1.72,1.72,0,0,0,.25.28,3.53,3.53,0,0,0,.84.65,5.69,5.69,0,0,0,.66.31l.27.06a1.36,1.36,0,0,0,.29,0H88a1.27,1.27,0,0,0,.28,0l.28-.06a5.74,5.74,0,0,0,.64-.31,3.6,3.6,0,0,0,.86-.65,2.3,2.3,0,0,0,.23-.28,2.62,2.62,0,0,0,.23-.32,5.63,5.63,0,0,0,.78-1.78,8.58,8.58,0,0,0,0-4.27,5.63,5.63,0,0,0-.78-1.78,3.71,3.71,0,0,0-.23-.32,3.45,3.45,0,0,0-.23-.28,3.89,3.89,0,0,0-.86-.65c-.27-.14-.49-.25-.64-.31l-.28-.05-.28,0h-.42a2.2,2.2,0,0,0-.56.07c-.16.06-.38.17-.66.31a3.82,3.82,0,0,0-.84.65,2.26,2.26,0,0,0-.25.28,3.53,3.53,0,0,0-.21.32,5.87,5.87,0,0,0-.78,1.78A8.66,8.66,0,0,0,84,62Z"/><path id="_Tracciato_composto_13" data-name="&lt;Tracciato composto&gt;" class="cls-2" d="M102.69,67.68h-9v-.1a4.49,4.49,0,0,0,.79,0,1.11,1.11,0,0,0,.52-.2.85.85,0,0,0,.28-.42,2.62,2.62,0,0,0,.08-.71V58a1.12,1.12,0,0,0-1.26-1.38h-.43v-.08h4.85v.07H98a2.16,2.16,0,0,0-.51.11,1,1,0,0,0-.35.24.92.92,0,0,0-.18.4,2.77,2.77,0,0,0-.06.62v8.24a2.84,2.84,0,0,0,.06.64,1,1,0,0,0,.21.4.94.94,0,0,0,.39.23,2.24,2.24,0,0,0,.6.09h1.39a3.33,3.33,0,0,0,1-.14,3.23,3.23,0,0,0,.82-.36,3.44,3.44,0,0,0,.62-.51,5,5,0,0,0,.46-.59,5.08,5.08,0,0,0,.64-1.62h.09l-.4,3.32Z"/><path id="_Tracciato_composto_14" data-name="&lt;Tracciato composto&gt;" class="cls-2" d="M104.28,62a6,6,0,0,1,.39-2.19,5.4,5.4,0,0,1,1-1.8,4.71,4.71,0,0,1,1.54-1.2,4.28,4.28,0,0,1,1.91-.44h.8a4.26,4.26,0,0,1,1.9.44,4.74,4.74,0,0,1,1.56,1.2,5.89,5.89,0,0,1,1.06,1.8,6.38,6.38,0,0,1,.38,2.19,6.2,6.2,0,0,1-.38,2.18,5.77,5.77,0,0,1-1.06,1.8,4.74,4.74,0,0,1-1.56,1.2,4.28,4.28,0,0,1-1.9.45h-.8a4.29,4.29,0,0,1-1.91-.45,4.71,4.71,0,0,1-1.54-1.2,5.4,5.4,0,0,1-1-1.8A5.91,5.91,0,0,1,104.28,62Zm1.52,0a8.63,8.63,0,0,0,.25,2.13,5.87,5.87,0,0,0,.78,1.78,1.77,1.77,0,0,0,.21.32,1.72,1.72,0,0,0,.25.28,3.53,3.53,0,0,0,.84.65,5.69,5.69,0,0,0,.66.31l.27.06a1.36,1.36,0,0,0,.29,0h.42a1.27,1.27,0,0,0,.28,0l.28-.06a5.74,5.74,0,0,0,.64-.31,3.6,3.6,0,0,0,.86-.65,2.3,2.3,0,0,0,.23-.28,2.62,2.62,0,0,0,.23-.32,5.63,5.63,0,0,0,.78-1.78,8.58,8.58,0,0,0,0-4.27,5.63,5.63,0,0,0-.78-1.78,3.71,3.71,0,0,0-.23-.32,3.45,3.45,0,0,0-.23-.28,3.89,3.89,0,0,0-.86-.65c-.27-.14-.49-.25-.64-.31l-.28-.05-.28,0h-.42a2.2,2.2,0,0,0-.56.07c-.16.06-.38.17-.66.31a3.82,3.82,0,0,0-.84.65,2.26,2.26,0,0,0-.25.28,2.2,2.2,0,0,0-.21.32,5.87,5.87,0,0,0-.78,1.78A8.66,8.66,0,0,0,105.8,62Z"/></g><g id="_Gruppo_3" data-name="&lt;Gruppo&gt;"><path id="_Tracciato_composto_15" data-name="&lt;Tracciato composto&gt;" class="cls-2" d="M22.44,80.24A1.33,1.33,0,0,0,23,80a.85.85,0,0,0,.28-.42,2.38,2.38,0,0,0,.08-.72V71.6c0-.45,0-.83,0-1.15s0-.54,0-.64L19.05,78h-.11l-4.06-7.7v8.26a1.44,1.44,0,0,0,.26.9,1.79,1.79,0,0,0,.61.52,2.26,2.26,0,0,0,.73.25,3.54,3.54,0,0,0,.57.05h.23v.09H12.41v-.09h.21a3.58,3.58,0,0,0,.59-.05,2.13,2.13,0,0,0,.72-.25,1.88,1.88,0,0,0,.61-.52,1.44,1.44,0,0,0,.26-.9V70.93c0-.23,0-.44,0-.63a1.13,1.13,0,0,0-.13-.51.8.8,0,0,0-.38-.34,1.73,1.73,0,0,0-.73-.13H13.1v-.09H16l3.76,7.17,3.75-7.17h3v.09h-.56a1.06,1.06,0,0,0-.87.31,1.72,1.72,0,0,0-.24,1.05v8.23a1.52,1.52,0,0,0,.3,1.08,1.32,1.32,0,0,0,.95.3h.43v.09H21.64v-.09A4.61,4.61,0,0,0,22.44,80.24Z"/><path id="_Tracciato_composto_16" data-name="&lt;Tracciato composto&gt;" class="cls-2" d="M27.54,80.27l.24,0a1.72,1.72,0,0,0,.55-.19,3.48,3.48,0,0,0,.66-.49,2.88,2.88,0,0,0,.6-1l3.75-9.36h.11l3.73,9.34a6.9,6.9,0,0,0,.46.94,1.87,1.87,0,0,0,.42.48.89.89,0,0,0,.43.2l.49.08v.09H34.41v-.09c.33,0,.62,0,.86-.07A1,1,0,0,0,35.8,80a.57.57,0,0,0,.16-.5,3.68,3.68,0,0,0-.28-1l-1-2.6H30.76L29.7,78.58a1.37,1.37,0,0,0-.12.7.89.89,0,0,0,.22.48,1.13,1.13,0,0,0,.41.29,2.32,2.32,0,0,0,.47.15,2.29,2.29,0,0,0,.4.06h.18v.09H27.54Zm5.17-9.18L30.8,75.85h3.8Z"/><path id="_Tracciato_composto_17" data-name="&lt;Tracciato composto&gt;" class="cls-2" d="M40,80.39v-.1h0a6.07,6.07,0,0,0,.8,0,1.08,1.08,0,0,0,.52-.21.9.9,0,0,0,.27-.42,2.27,2.27,0,0,0,.08-.71V70.7a1.54,1.54,0,0,0-.27-1,1.44,1.44,0,0,0-1-.33H40v-.08h5.31a5.78,5.78,0,0,1,1.62.21,3.6,3.6,0,0,1,1.11.6,2.27,2.27,0,0,1,.63.87A2.73,2.73,0,0,1,48.85,72,2.52,2.52,0,0,1,48,74a3.26,3.26,0,0,1-1.11.59,2.94,2.94,0,0,1-.65.16l-.72.07a1.89,1.89,0,0,1,.62.29,3.06,3.06,0,0,1,.75.77l2.62,3.64A1.5,1.5,0,0,0,50,80a3.32,3.32,0,0,0,.53.22,2.31,2.31,0,0,0,.46.09h.25v.1H48.42L45,75.68a3,3,0,0,0-.39-.44A1.15,1.15,0,0,0,44.3,75a.83.83,0,0,0-.31-.11,1.73,1.73,0,0,0-.32,0h-.52v4.07a2.84,2.84,0,0,0,.06.64.81.81,0,0,0,.21.4.87.87,0,0,0,.38.23,2.36,2.36,0,0,0,.59.09h.43v.1H40Zm3.19-5.62h2a2,2,0,0,0,1.17-.34,2.06,2.06,0,0,0,.31-.29,2.17,2.17,0,0,0,.3-.41,3.76,3.76,0,0,0,.27-.76A4.45,4.45,0,0,0,47.3,72a3.26,3.26,0,0,0-.51-1.92,1.9,1.9,0,0,0-1.63-.8h-.91a1.74,1.74,0,0,0-.51.12.86.86,0,0,0-.35.23.91.91,0,0,0-.18.41,2.62,2.62,0,0,0-.06.61v4.08Z"/><path id="_Tracciato_composto_18" data-name="&lt;Tracciato composto&gt;" class="cls-2" d="M51.42,74.8h-.06a6,6,0,0,1,.1-1.12,5.85,5.85,0,0,1,.29-1.07,5.7,5.7,0,0,1,1.06-1.79,5.79,5.79,0,0,1,.72-.68,4.11,4.11,0,0,1,.83-.51,4.16,4.16,0,0,1,1.91-.45,3.4,3.4,0,0,1,1.36.27h0l.05,0,0,0,.18.08.19.1a3,3,0,0,0,1.15.35,1.16,1.16,0,0,0,.62-.14.71.71,0,0,0,.32-.49h.1v4.06h-.1a5.86,5.86,0,0,0-.2-1,6.67,6.67,0,0,0-.31-.86,4.45,4.45,0,0,0-.91-1.3,3.34,3.34,0,0,0-1.17-.78,3.6,3.6,0,0,0-1.11-.25,2.48,2.48,0,0,0-1.4.43,3.9,3.9,0,0,0-1.14,1.18,6.36,6.36,0,0,0-.77,1.77,7.5,7.5,0,0,0-.29,2.15,7.59,7.59,0,0,0,.47,2.71,5.29,5.29,0,0,0,1.22,2,3.77,3.77,0,0,0,.68.5,3.62,3.62,0,0,0,.56.25,1.16,1.16,0,0,0,.32.08l.35,0a5,5,0,0,0,.56-.08,3.14,3.14,0,0,0,.55-.17,3.59,3.59,0,0,0,1.16-.78,3.07,3.07,0,0,0,.49-.58,5.3,5.3,0,0,0,.4-.7,4.73,4.73,0,0,0,.32-.87c.08-.3.15-.63.21-1h.1a6.31,6.31,0,0,1-.55,1.87,4.53,4.53,0,0,1-.9,1.32,3.87,3.87,0,0,1-1.2.78,3.32,3.32,0,0,1-1.35.27A4.16,4.16,0,0,1,54.36,80a4.8,4.8,0,0,1-1.55-1.2A5.54,5.54,0,0,1,51.75,77a5.85,5.85,0,0,1-.29-1.07,6,6,0,0,1-.1-1.12Z"/><path id="_Tracciato_composto_19" data-name="&lt;Tracciato composto&gt;" class="cls-2" d="M68.74,69.21h4.85v.07l0,0H73a1.36,1.36,0,0,0-.88.35,1.58,1.58,0,0,0-.24,1V78.9a2.93,2.93,0,0,0,.06.65.84.84,0,0,0,.21.41.94.94,0,0,0,.39.23,2.36,2.36,0,0,0,.59.09h.44v.1H68.74v-.1a5.77,5.77,0,0,0,.8,0,1.11,1.11,0,0,0,.53-.2.77.77,0,0,0,.27-.42,2.27,2.27,0,0,0,.09-.71V74.84H64.8V78.9a2.93,2.93,0,0,0,.06.65.84.84,0,0,0,.21.41.94.94,0,0,0,.39.23,2.36,2.36,0,0,0,.59.09h.43v.1H61.62v-.1a6,6,0,0,0,.8,0,1.07,1.07,0,0,0,.52-.2.79.79,0,0,0,.28-.42,2.27,2.27,0,0,0,.09-.71V70.69a2.77,2.77,0,0,0-.07-.64.84.84,0,0,0-.21-.41.69.69,0,0,0-.39-.23,2.88,2.88,0,0,0-.59-.1H61.6v-.1h4.87v.09H65.9a2.14,2.14,0,0,0-.52.11,1,1,0,0,0-.34.24.93.93,0,0,0-.19.4,3.53,3.53,0,0,0,0,.62v4.07h5.63V70.69a1.54,1.54,0,0,0-.27-1,1.46,1.46,0,0,0-1-.33h-.45Z"/><path id="_Tracciato_composto_20" data-name="&lt;Tracciato composto&gt;" class="cls-2" d="M75.59,80.25a1.12,1.12,0,0,0,.53-.21.77.77,0,0,0,.27-.42,2.23,2.23,0,0,0,.09-.71V70.7a1.54,1.54,0,0,0-.27-1,1.46,1.46,0,0,0-1-.33h-.45v-.08h4.85v.07h-.56a1.41,1.41,0,0,0-.87.35,1.62,1.62,0,0,0-.24,1v8.24a2.84,2.84,0,0,0,.06.64.81.81,0,0,0,.21.4.85.85,0,0,0,.39.23,2.36,2.36,0,0,0,.59.09h.44v.1H74.79v-.1A6.07,6.07,0,0,0,75.59,80.25Z"/></g></g></g></svg>