<svg xmlns="http://www.w3.org/2000/svg" viewBox="0 0 55.68 56.04"><defs><style>.cls-1{fill:#0f4881;}</style></defs><title>logo</title><g id="Livello_2" data-name="Livello 2"><g id="Grafica"><g id="_Gruppo_" data-name="&lt;Gruppo&gt;"><g id="_Gruppo_2" data-name="&lt;Gruppo&gt;"><path id="_Tracciato_" data-name="&lt;Tracciato&gt;" class="cls-1" d="M38.91,51.81a25.88,25.88,0,0,1-12.06,2.6C12.57,53.94-.77,40.19,2.05,25,3.74,15.84,11.76,7.36,20.88,3.62v0a2.49,2.49,0,0,0,.21-1.35C21.06,2.08,21,2,21,2a.38.38,0,0,1-.17-.06C11.16,5.78,2.87,14.87.6,24.53-3.2,40.75,11.65,54.45,26,55.92a24.4,24.4,0,0,0,13.08-2.36C39,53,39,52.4,38.91,51.81Z"/><path id="_Tracciato_2" data-name="&lt;Tracciato&gt;" class="cls-1" d="M53.2,16.16a32.62,32.62,0,0,0-6.42-9.29C44.12,4,40.5.49,36.43.91a22.6,22.6,0,0,0-13.3.19.17.17,0,0,1,0,0,4.55,4.55,0,0,1,.24,1.57A21.57,21.57,0,0,1,35.9,2.38a.55.55,0,0,0,.39.11.78.78,0,0,0,.27,0c4.18-.33,8,4.14,10.62,7.11a30,30,0,0,1,5.35,8.9,26.23,26.23,0,0,1,.35,17.25A26.68,26.68,0,0,1,40.7,50.86l.06,1.82A30.44,30.44,0,0,0,54.57,35.35,27.84,27.84,0,0,0,53.2,16.16Z"/></g><g id="_Gruppo_3" data-name="&lt;Gruppo&gt;"><path id="_Tracciato_3" data-name="&lt;Tracciato&gt;" class="cls-1" d="M38.74,48.94q-.16-3.51-.17-7.08t.14-7q.13-3.48.3-6.61a1,1,0,0,0-.35.31c-.1.12-.2.26-.31.41-.69.91-1.38,1.86-2.05,2.85s-1.33,1.95-1.95,2.9c-.8,1.1-1.57,2.21-2.3,3.35a26,26,0,0,1-2.41,3.18,16.39,16.39,0,0,1-1.37,1.42,6.16,6.16,0,0,1-1.76,1.15,3.55,3.55,0,0,1-2.27.14,2.91,2.91,0,0,1-1.73-1.18,9.73,9.73,0,0,1-1.34-2.93,19.72,19.72,0,0,1-.63-3.56,29.62,29.62,0,0,1-.08-3.9c.05-1.33.15-2.62.3-3.86A55.78,55.78,0,0,1,22,21.25a48.79,48.79,0,0,1,2-6.41,50.19,50.19,0,0,1,2.6-5.76,18.13,18.13,0,0,1,3.58-4.7,17.62,17.62,0,0,0-7.33.76c-.16.54-.3,1.05-.42,1.55q-2.06,7.05-3.71,14.19T16,36c-.12.8-.22,1.67-.3,2.59s-.14,1.89-.18,2.89V43a8.39,8.39,0,0,0,.12,1.44A4.8,4.8,0,0,0,16,45.64a1.27,1.27,0,0,0,.73.69,6.2,6.2,0,0,0,2.44.15c1-.1,1.81-.21,2.5-.33a54.47,54.47,0,0,0,6.08-1.21c1.85-.48,3.83-.92,6-1.32a1.56,1.56,0,0,1,.48-.06.43.43,0,0,1,.43.3.34.34,0,0,1-.15.39,3.27,3.27,0,0,1-.49.27,4.79,4.79,0,0,1-.57.21l-.48.15c-1.08.32-2.17.62-3.25.88s-2.15.53-3.2.81q-1.08.3-2.16.51l-2.23.45c-1,.16-2.07.31-3.2.46a7.4,7.4,0,0,1-3-.21A10,10,0,0,0,22,49.44a24.22,24.22,0,0,0,4.24.62,21.28,21.28,0,0,0,9.63.41,15.2,15.2,0,0,0,2.91-.89Z"/><path id="_Tracciato_4" data-name="&lt;Tracciato&gt;" class="cls-1" d="M13.54,44.85a10.15,10.15,0,0,1-.3-2.29c0-.82,0-1.65,0-2.5,0-1,.11-2,.21-3s.23-2,.39-2.92Q15,26.27,16.68,19,18.17,12.53,20,6.26a25,25,0,0,0-7.87,6.18,9.74,9.74,0,0,0-1.29,2C6.15,19.05,3.38,26.1,5.31,32.34a14,14,0,0,0,3.25,7.42,19.94,19.94,0,0,0,3.66,4.56c.51.47,1,.91,1.58,1.32A6.09,6.09,0,0,1,13.54,44.85Z"/><path id="_Tracciato_5" data-name="&lt;Tracciato&gt;" class="cls-1" d="M50.3,25.62A27.48,27.48,0,0,0,38,7.26l.06.42c.11,1.05.18,2.12.22,3.24a20.75,20.75,0,0,0,.33,3.1,2.11,2.11,0,0,0,.68.13c.28,0,.4.2.36.52a.43.43,0,0,1-.33.39,2,2,0,0,1-.6,0l-.5.19a.65.65,0,0,1-.49,0,1.12,1.12,0,0,1-.93-.9c-.11-.5-.2-1-.27-1.51s-.14-1.06-.2-1.64-.1-1.14-.13-1.65-.09-1.15-.14-1.7a14.14,14.14,0,0,0-.25-1.56L35.77,6a17.87,17.87,0,0,0-3.35-1.23l-.18.15a18.74,18.74,0,0,0-1.67,1.79,24.21,24.21,0,0,0-3.81,6.19,47.31,47.31,0,0,0-2.49,7.46c-.33,1.2-.63,2.53-.91,4s-.49,2.94-.66,4.49-.25,3.13-.27,4.72a26.11,26.11,0,0,0,.36,4.69,12.69,12.69,0,0,0,.27,1.34,10.36,10.36,0,0,0,.44,1.29,4,4,0,0,0,.79,1.34,1.4,1.4,0,0,0,1.51.3,3.89,3.89,0,0,0,1.95-1.2l1.56-1.76c.51-.62,1-1.24,1.42-1.86s.86-1.24,1.27-1.87L34.63,32q1.3-1.92,2.57-3.84c-1.46.18-2.94.35-4.44.49s-3,.31-4.55.5l-.65.13a3.57,3.57,0,0,1-.8.09,2.45,2.45,0,0,1-.74-.11.67.67,0,0,1-.44-.44.59.59,0,0,1,.55-.44l.77-.11c1.75-.15,3.58-.32,5.48-.52L38,27.17a4.77,4.77,0,0,0,.66-.68,1.11,1.11,0,0,1,.93-.41,1.06,1.06,0,0,1,.66.27,3.6,3.6,0,0,1,.44.6c1-.11,2-.18,3.2-.22s2.33,0,3.43.06a7.65,7.65,0,0,0,1,.05.7.7,0,0,1,.74.44c-.11.3-.35.42-.74.39a9.82,9.82,0,0,0-1-.06c-1.1,0-2.21,0-3.34.06s-2.18.09-3.13.16q-.33,7.19-.27,14.58c0,2.1.05,4.17.09,6.22a14.06,14.06,0,0,0,5.23-5.78,14.69,14.69,0,0,0,.74-1.28A20.53,20.53,0,0,0,50.3,25.62Z"/></g></g></g></g></svg>