<svg xmlns="http://www.w3.org/2000/svg" viewBox="0 0 35.45 167.99"><defs><style>.cls-1{fill:#f6bc6d;}.cls-2{fill:#face94;}.cls-3{fill:#f5b966;}.cls-4{fill:#f8ca8b;}.cls-5{fill:#f7bf74;}.cls-6{fill:#f9d099;}.cls-7{fill:#f8c481;}.cls-8{fill:#f7bd6e;}.cls-9{fill:#f7c786;}.cls-10{fill:#f9cc92;}.cls-11{fill:#f6be70;}.cls-12{fill:#f7c078;}.cls-13{fill:#f6b863;}.cls-14{fill:#f7c584;}.cls-15{fill:#f5b965;}.cls-16{fill:#f9d09b;}.cls-17{fill:#f6c177;}.cls-18{fill:#f6b763;}.cls-19{fill:#f7c27c;}.cls-20{fill:#f5b660;}.cls-21{fill:#f7c27d;}.cls-22{fill:#f6c27a;}.cls-23{fill:#f6b762;}.cls-24{fill:#f7bc6d;}.cls-25{fill:#f6b761;}.cls-26{fill:#f6bc6c;}.cls-27{fill:#f6b864;}.cls-28{fill:#f7ba67;}.cls-29{fill:#f6bf72;}.cls-30{fill:#f5b661;}.cls-31{fill:#f7c37b;}.cls-32{fill:#f7ba68;}.cls-33{fill:#fad5a5;}.cls-34{fill:#f6bf74;}.cls-35{fill:#f7c076;}.cls-36{fill:#f6c178;}.cls-37{fill:#f7c785;}.cls-38{fill:#f6b967;}.cls-39{fill:#f6c279;}.cls-40{fill:#fad9ae;}.cls-41{fill:#fce8cf;}.cls-42{fill:#fbddb6;}.cls-43{fill:#f9cb8f;}.cls-44{fill:#facd95;}.cls-45{fill:#f8c98c;}.cls-46{fill:#f9cc90;}.cls-47{fill:#f9cc91;}</style></defs><title>Risorsa 30</title><g id="Livello_2" data-name="Livello 2"><g id="Colori"><g id="_Gruppo_clip_" data-name="&lt;Gruppo clip&gt;"><g id="_Gruppo_" data-name="&lt;Gruppo&gt;"><path id="_Tracciato_" data-name="&lt;Tracciato&gt;" class="cls-1" d="M32.38,129.82c0,1.72-1.66,3.09-3,2.45s-2.84-1.07-3.83-2.53c-.46-.67-1.11-1.13-.6-2.2s1.18-1.91,2.32-1.71a9,9,0,0,1,4.33,2A2,2,0,0,1,32.38,129.82Z"/><path id="_Tracciato_2" data-name="&lt;Tracciato&gt;" class="cls-2" d="M33.37,167.08c-.52.94-1.19,1.17-2,.61.08-.39-.16-.68-.22-1-.09-.94-.2-1.76-1.17-2.19a4.76,4.76,0,0,1-1.62-1.73,2.25,2.25,0,0,0-.81-.84c-1.36-.65-1.63-1.7-.9-3.23a.83.83,0,0,1,1.28,0c.05.83.77.63,1.13,1a24.56,24.56,0,0,0,3.45,3.86A3.52,3.52,0,0,1,33.37,167.08Z"/><path id="_Tracciato_3" data-name="&lt;Tracciato&gt;" class="cls-3" d="M33.17,104.05a10,10,0,0,1-5.68-2.57c-1-.84-.61-3.13.54-3.76,1.86-1,5.66.44,6.71,2.57-.42.61-.81.34-1.3,0-1.34-.88-2.72-1.62-4.37-1.12-.83.25-.7.58-.27,1.13.32.39.64.88,1.1.91,1.23.07,2.1,1.12,3.24,1.42a.8.8,0,0,1,.63.79C33.79,103.92,33.38,103.86,33.17,104.05Z"/><path id="_Tracciato_4" data-name="&lt;Tracciato&gt;" class="cls-4" d="M16.69,66.73l.45,1.78c-1.35,1.08-2,1.14-3.38.06a5.54,5.54,0,0,0-2.41-1c-1.16-.24-2.23-1-3.45-1a6.34,6.34,0,0,1-.75-.07c-.6-.2-1.45.15-1.73-.79s.39-1.33.83-1.77a1.65,1.65,0,0,1,2.11-.18c.4.21.69.68,1.13.87l.33.14a7.86,7.86,0,0,1,1.95.6c1.06.37,2.22.19,2.78,1.69.11.27.62.11.94,0A2.07,2.07,0,0,1,16.69,66.73Z"/><path id="_Tracciato_5" data-name="&lt;Tracciato&gt;" class="cls-5" d="M12.36,135a5.24,5.24,0,0,1-1.26-.91,1.6,1.6,0,0,1-.75-1.77c.21-.89.55-1.63,1.4-1.83a3.29,3.29,0,0,1,2.88.42,10.81,10.81,0,0,0,4.22,2.71,1.54,1.54,0,0,1,.8,1.36c-.53.74-1.21.38-1.65.06a38.83,38.83,0,0,1-3.89-2.78,1.38,1.38,0,0,0-1.49-.42c-.27.09-.63.09-.68.5a.74.74,0,0,0,.54.85,19.17,19.17,0,0,1,4.21,2.08,7.24,7.24,0,0,0,2.93.9,1.52,1.52,0,0,1-1,1.66,11.37,11.37,0,0,1-4.84-2.72A1,1,0,0,0,12.36,135Z"/><path id="_Tracciato_6" data-name="&lt;Tracciato&gt;" class="cls-6" d="M1.4,4.85a3,3,0,0,1,2.31-.78c.36.56.61,1.29,1.43.64A.92.92,0,0,1,6.38,5c.18.16.35.51.6.34,1-.66,1.65.14,2.32.8,0,.4-.32.94.38,1.07.18,0,.16.4,0,.63A2.28,2.28,0,0,1,8.47,9c-.44-.81-1-1.32-1.83-.75a.42.42,0,0,1-.48,0c-.86-.74-1.92-.38-2.86-.72L3,7.41C1.79,7.09,1.33,6.18,1.4,4.85Z"/><path id="_Tracciato_7" data-name="&lt;Tracciato&gt;" class="cls-7" d="M25.22,82.39c.47-2,1-2.38,2.74-1.78a2,2,0,0,0,1.65,1.7,10.5,10.5,0,0,1,2.63,1.23,2.65,2.65,0,0,1,.62.43,4.63,4.63,0,0,0,1,.66,1,1,0,0,1,.49,1.15c-.13.69-.57.54-1,.49s-.57,0-.85-.1a1.45,1.45,0,0,1-.36-.08A3,3,0,0,1,30,85a2,2,0,0,0-1.85-.56C26.65,84.66,25.86,83.72,25.22,82.39Z"/><path id="_Tracciato_8" data-name="&lt;Tracciato&gt;" class="cls-8" d="M8.46,38.65c-.78-.45-.86-1.1-.62-2C8.11,35.5,8.69,35,9.62,35a12,12,0,0,1,6.6,1.69c0,1.3-.81,1.87-1.79,1.18-1.26-.88-2.69-.9-4-1.23-.39-.09-1-.11-1,.53s.53.58.88.57A5.43,5.43,0,0,1,14,39.1c-.58.93-1.14,1.31-2.25.73A7.6,7.6,0,0,0,8.46,38.65Z"/><path id="_Tracciato_9" data-name="&lt;Tracciato&gt;" class="cls-9" d="M13.94,39.3c-1.25-.47-2.36-1.42-3.81-1.22-.44.06-1.43.06-1.31-1a1.06,1.06,0,0,1,1.56-.9c1.43.51,3,.21,4.33,1.45.62.59,1.31,0,1.51-1,1.37,1.74,1.41,2.61.2,3.78a5.58,5.58,0,0,0-2.37-1Z"/><path id="_Tracciato_10" data-name="&lt;Tracciato&gt;" class="cls-10" d="M19.62,136.14c-1.47.86-2.55-.4-3.75-.93s-2.11-1.46-3.42-1.51c-.67,0-.9-.83-1-1.43s.4-.66.83-.78a2.64,2.64,0,0,1,2.29.62c1.65,1,2.94,3,5.1,2.84A.9.9,0,0,1,19.62,136.14Z"/><path id="_Tracciato_11" data-name="&lt;Tracciato&gt;" class="cls-11" d="M24.57,144.6c-.16-.49-.31-1-.48-1.46s-.31-1.26.22-1.7,1.11-1.18,2-.75a7.12,7.12,0,0,1,2,1.6c.89.94,1.85,1.78,2.77,2.67a2.41,2.41,0,0,1,.77,1.6c-.25.14-.46,0-.68-.12-.89-.7-1.54-1.79-2.83-1.81-.65,0-1.06-.82-1.29-1.59-.12-.41-.29-.92-.75-.76s-.3.74-.28,1.13c.08,1.31,1,1.77,1.84,2.25s1.65.79,1.47,2.12c-.89.42-1.44-.33-2.1-.78C26.28,146.34,25.75,145,24.57,144.6Z"/><path id="_Tracciato_12" data-name="&lt;Tracciato&gt;" class="cls-4" d="M26,18.74a3,3,0,0,1,.69,1.8,1.51,1.51,0,0,1-.44.36c-1.4,1-2.88.75-4.43.64a5.37,5.37,0,0,1-3-1.17c-.31-.24-.67-.46-.66-1s.48-.57.8-.77c1.35-.83,2.66-.17,4,.14C23.94,19,25,19.47,26,18.74Z"/><path id="_Tracciato_13" data-name="&lt;Tracciato&gt;" class="cls-7" d="M21,.29A3.1,3.1,0,0,1,24,.55a3.37,3.37,0,0,0,2.69,1.52c.23.76,1.19,1.28.57,2.31-.9-1.13-2.53-.43-3.36-1.77-.15-.24-.45-.22-.67,0A.46.46,0,0,0,23.1,3a.5.5,0,0,0,.53.48A4,4,0,0,1,26.27,4.6c.34.3.84.52.72,1.2a1.28,1.28,0,0,1-1.26.56c0-1.07-.69-1.24-1.41-1.34a2.78,2.78,0,0,1-2-.78c-.15-.22-.22-.57-.42-.7A2.35,2.35,0,0,1,21,.29Z"/><path id="_Tracciato_14" data-name="&lt;Tracciato&gt;" class="cls-12" d="M26,18.74a1.19,1.19,0,0,1-1.64.75c-1.23-.35-2.49-.59-3.72-1-.75-.22-1.38.49-2.11.63-.48.1-.16.64.08.69,1,.19,1.51,1.87,2.95,1.13.45-.23,1.46.29,2.29.3a5.28,5.28,0,0,0,2.37-.74c0,1.39-.32,1.75-1.5,1.77a18.92,18.92,0,0,1-4.92-.45.63.63,0,0,0-.59.09,1.9,1.9,0,0,1-1.5-2.43c.23-1.49,1.2-1.74,2.27-1.84a13.54,13.54,0,0,1,3.71.76,3.58,3.58,0,0,0,2,0Z"/><path id="_Tracciato_15" data-name="&lt;Tracciato&gt;" class="cls-9" d="M.35,95.64c.37-1.45,1.35-1.22,2.28-1.12.5,1,1.51.7,2.25,1.19a5.27,5.27,0,0,0,3.47,1.17,2.54,2.54,0,0,1-.23,3.64c-.33-.42-.85-.71-.71-1.44.07-.28.45-.66,0-.81-2-.62-3.72-2.24-5.94-2.74C1.83,96.93,3,97,3.85,97.39a6.07,6.07,0,0,0,2.72.91.74.74,0,0,1,.82.84c-.29,1.4-.26,1.33-1.36.63-.83-.54-1.84-.45-2.75-.79A4.42,4.42,0,0,1,.35,95.64Z"/><path id="_Tracciato_16" data-name="&lt;Tracciato&gt;" class="cls-13" d="M7.15,66.18H7.9c.06.07.12.19.18.2,1.3.09,2.33,1.05,3.53,1.46s2,1.15,3.11,1.24c.38,0,.74.48.43,1.09-2.52.22-4.81-.75-7-1.9-.74-.37-1.66-.37-2.2-1.24C5.91,66,6.73,66.44,7.15,66.18Z"/><path id="_Tracciato_17" data-name="&lt;Tracciato&gt;" class="cls-14" d="M35.41,102c0,.5-.61.67-.46,1.41s-.57.64-1,.63c-.12-.85-.33-1.59-1.29-1.49-.31,0-.54-.23-.76-.45a2.36,2.36,0,0,0-1.8-.77,1.27,1.27,0,0,1-1.34-1.49c.09-1.08.89-1,1.55-.87a5,5,0,0,1,2.54,1.06c.34.28.72.61,1.12.57C34.87,100.55,35.13,101.27,35.41,102Z"/><path id="_Tracciato_18" data-name="&lt;Tracciato&gt;" class="cls-8" d="M3.33,119.42c-.58-1.38.14-3,1.45-3.13,2.12-.23,5.32,2.51,5.38,4.55A1.59,1.59,0,0,0,10,121c-.91.39-1.41-.37-1.91-1a5.87,5.87,0,0,0-2.82-2.23c-.63-.18-.91-.11-.73.71,0,.72.88.78.8,1.54C4.49,120.74,4,119.72,3.33,119.42Z"/><path id="_Tracciato_19" data-name="&lt;Tracciato&gt;" class="cls-15" d="M.35,95.64C1,96,1,96.88,1.53,97.4A5.34,5.34,0,0,0,5.8,99c.78-.07.39,1,1,1.09.43-.1.23-.78.59-1h0a2.16,2.16,0,0,1,.74,1.39,2.82,2.82,0,0,1-3,0,24.73,24.73,0,0,0-2.77-1.13A4.67,4.67,0,0,1,.1,96.59C-.06,96.23-.06,95.84.35,95.64Z"/><path id="_Tracciato_20" data-name="&lt;Tracciato&gt;" class="cls-16" d="M18.14,152.86c.45,1-.18,1.93-.05,2.91a5.51,5.51,0,0,1-2.1-1.1,1.86,1.86,0,0,1-.27-.22,10.42,10.42,0,0,1-.67-.82,3.33,3.33,0,0,0-1.48-1.08,1.06,1.06,0,0,1-.38-.35,1.47,1.47,0,0,0-.65-.79,2.58,2.58,0,0,1-.32-.18c-.35-.21-.66-.5-.49-1s.59-.37.95-.22a.67.67,0,0,0,.48.07c1.13-.36,1.84.11,2.17,1.4,0,.18.21.29.34.41A6.32,6.32,0,0,0,18.14,152.86Z"/><path id="_Tracciato_21" data-name="&lt;Tracciato&gt;" class="cls-17" d="M35.41,102c-.56-.7-1.09-1.42-2.08-1.19-.35.09-.58-.31-.82-.57-.8-.88-1.93-.61-2.85-1.08-.36-.19-.71.22-.72.74,0,.67.37,1.32.85,1.15,1.58-.57,2.29,1.55,3.73,1.46.39,0,.41,1,.39,1.53l-.74,0c.61-.63.42-.78-.28-1.19-1.6-.93-3.63-.88-4.79-2.84-.32-.52-.5-.69.14-1a4.89,4.89,0,0,1,5.47,1.1c.41.38.69.07,1,.12A1.68,1.68,0,0,1,35.41,102Z"/><path id="_Tracciato_22" data-name="&lt;Tracciato&gt;" class="cls-18" d="M32.18,85.85h.25a6.14,6.14,0,0,0,2.52.88c-.7,1.3-1.71,1.76-2.87,1.29a15.19,15.19,0,0,1-5.74-3.58c1.2-.73,2.19.33,3.15.74A7.2,7.2,0,0,0,32.18,85.85Z"/><path id="_Tracciato_23" data-name="&lt;Tracciato&gt;" class="cls-3" d="M31.37,166.78c-.08.3.85.65,0,.91A3.39,3.39,0,0,1,29.1,166a27.11,27.11,0,0,0-2.44-2.78,3.53,3.53,0,0,1-.78-4c.63,0,.45.68.43.94a2,2,0,0,0,1.14,2A10.69,10.69,0,0,1,31.37,166.78Z"/><path id="_Tracciato_24" data-name="&lt;Tracciato&gt;" class="cls-19" d="M21.43,88.12a1.65,1.65,0,0,1,.21,1.19c-1.06,1.18-2.21,2-3.78,1.46a1,1,0,0,0-.95.25c-1.24-.13-1.58-1-1.48-2.28.4-.23.88-.32,1.07-.88.4-1.16,1.19-1.13,2.05-.93S20.42,87.89,21.43,88.12Z"/><path id="_Tracciato_25" data-name="&lt;Tracciato&gt;" class="cls-20" d="M8.46,38.65a1.2,1.2,0,0,1,1.63.07c.67.76,1.73.14,2.36,1.17.26.42.83-.85,1.49-.59h0c.32.35.76.22,1.13.37s.94.33.87,1.08c-1,1.06-2.06.55-3.06.24C11.31,40.49,9.62,40.19,8.46,38.65Z"/><path id="_Tracciato_26" data-name="&lt;Tracciato&gt;" class="cls-21" d="M15.15,70.17c0-.44-.31-1-.51-.89-1.36.5-2.21-.91-3.38-1.13S9.35,66.54,8,66.84c0,0-.08-.43-.13-.66,2.17.58,4.45.75,6.33,2.35,1,.83,1.94.34,2.91,0A2.13,2.13,0,0,1,15.15,70.17Z"/><path id="_Tracciato_27" data-name="&lt;Tracciato&gt;" class="cls-5" d="M28.19,58.41a3,3,0,0,1,1.26,3.76c-.24,0-.52-.21-.72,0-1.1,1-2.19.43-3.27,0a3.55,3.55,0,0,0-1.19-.31c-.49,0-1-.08-1.14-.81a.75.75,0,0,1,.26-.27,5.82,5.82,0,0,1,3.45.23.94.94,0,0,0,1.29-.43c-1.07-.49-2.24-.75-3-1.88a.46.46,0,0,1,0-.38c.51-.37.94,0,1.4.18S27.69,59.07,28.19,58.41Z"/><path id="_Tracciato_28" data-name="&lt;Tracciato&gt;" class="cls-22" d="M15.35,153.48l.51.86c-.85.86-1.57.64-2.23-.31a3.36,3.36,0,0,0-1.89-1.54c-.66-.17-1-.87-1.22-1.54a.82.82,0,0,0-.93-.66c.37-2.08,1.28-2.69,3-2,.07.35.28.72-.16,1-.74-.11-.91.46-.95,1.1-.06,1,.7.63,1.1.85h0a2.45,2.45,0,0,1,.75.87l.25.29C14.28,152.51,14.6,153.44,15.35,153.48Z"/><path id="_Tracciato_29" data-name="&lt;Tracciato&gt;" class="cls-3" d="M9.59,150.29c.28-.18.38-.65.87-.64.32,1.27.56,2.7,2.19,2.7.33,0,.78.61,1,1.05.49,1.26,1.3,1.28,2.25.94h0c.77.76.25,1.26-.27,1.77A23.74,23.74,0,0,1,9.75,151C9.63,150.81,9.64,150.52,9.59,150.29Z"/><path id="_Tracciato_30" data-name="&lt;Tracciato&gt;" class="cls-18" d="M23.18,61c.2.16.43.48.6.45,1.32-.24,2.35.86,3.59,1,.4,0,.77.07,1-.38.5-1.06.79-.39,1.1.16-1.11,1.58-2.37,1.88-3.9,1-.73-.43-1.49-.82-2.25-1.18a1.41,1.41,0,0,1-.87-1.54C22.88,60.26,23.07,60.56,23.18,61Z"/><path id="_Tracciato_31" data-name="&lt;Tracciato&gt;" class="cls-23" d="M19.21,22c-.09-.29-.16-.62.25-.54a31.77,31.77,0,0,0,4.76.51c1.12,0,1.74-.13,2-1.38h.47a2.49,2.49,0,0,1-2.56,2.57A10.3,10.3,0,0,1,19.21,22Z"/><path id="_Tracciato_32" data-name="&lt;Tracciato&gt;" class="cls-24" d="M12.6,149.14c.08-.29-.29-.59,0-.88a10.56,10.56,0,0,1,5.53,4.6c-.17.39-.42.65-.76.32-.52-.51-1.2-.53-1.77-.86-.14-.24-.39-.47-.39-.71,0-1.41-.78-1.59-1.74-1.46-.43-.06-.66-.4-.85-.79Z"/><path id="_Tracciato_33" data-name="&lt;Tracciato&gt;" class="cls-4" d="M27,5.8c-.92-1-1.84-2-3.28-1.94-.36,0-1,.08-1.12-.63A1.18,1.18,0,0,1,23.3,2c.68-.36.87.19,1.16.66.13.21.24.68.49.54,1.18-.65,1.79.14,2.34,1.15C27.16,4.85,27.39,5.41,27,5.8Z"/><path id="_Tracciato_34" data-name="&lt;Tracciato&gt;" class="cls-8" d="M33.37,167.08s-.09-.07-.09-.1c.5-2.31-1-3.36-2.26-4.42a15.62,15.62,0,0,1-2.15-2.71c-.28-.34-.73-.35-1-.67.19-.5.48-.38.77-.2a13,13,0,0,1,4.78,5.4C33.73,165.19,34.18,166.19,33.37,167.08Z"/><path id="_Tracciato_35" data-name="&lt;Tracciato&gt;" class="cls-25" d="M12.36,135c.35-1.21,1-.81,1.49-.27a10.37,10.37,0,0,0,3.82,2.39,4.63,4.63,0,0,1,.92.71c-1.36.68-2.41,0-3.51-.88C14.22,136.2,13.2,135.74,12.36,135Z"/><path id="_Tracciato_36" data-name="&lt;Tracciato&gt;" class="cls-26" d="M15.89,111.89c.81-.26,1.46-1.24,2.41-.85a11.91,11.91,0,0,1,3.84,2.51,1.36,1.36,0,0,1,.25,1.2c-.46.75-.92.22-1.26-.1a11.65,11.65,0,0,0-2.52-1.78,1.4,1.4,0,0,1-.22-.32c-.38-.9-.9-.46-1.47-.29C16.6,112.37,15.89,113.21,15.89,111.89Z"/><path id="_Tracciato_37" data-name="&lt;Tracciato&gt;" class="cls-27" d="M16.91,91c.05-.48.2-.88.7-.71,1.34.46,2.56.49,3.47-1,.14-.24.37-.06.56,0,0,2-1.43,3.27-3.06,2.64A14.43,14.43,0,0,1,16.91,91Z"/><path id="_Tracciato_38" data-name="&lt;Tracciato&gt;" class="cls-28" d="M7.66,63c2.76.65,5.53,1.23,8.05,2.79-.18.94-.81,1.22-1.41.48s-.94-1-1.68-.56a.42.42,0,0,1-.58-.07c-.65-1-1.51-.81-2.38-.62h0C9,64.62,8.59,63.69,7.71,63.6,7.5,63.58,7.5,63.23,7.66,63Z"/><path id="_Tracciato_39" data-name="&lt;Tracciato&gt;" class="cls-15" d="M3.33,119.42c.72-.06,1.25.85,2,.52,2.07.57,2.46,1,2.5,2.66a1.15,1.15,0,0,1-.25.79A9.35,9.35,0,0,1,3.33,119.42Z"/><path id="_Tracciato_40" data-name="&lt;Tracciato&gt;" class="cls-17" d="M15.89,111.89c.42.82.79.09,1.16-.08.71-.33,1.35-.56,1.58.63-.39.24-.81-.16-1.21,0s-.68.22-.71.69a.68.68,0,0,0,.62.74,1.52,1.52,0,0,1,.81.3c.28.33.43.84.92.91a1,1,0,0,1,.27.24c.13.25.21.5-.06.71-.9.61-1.59-.49-2.43-.39C15.21,114.8,14.91,113.6,15.89,111.89Z"/><path id="_Tracciato_41" data-name="&lt;Tracciato&gt;" class="cls-14" d="M31.37,166.78c-.91-.31-.86-1.57-1.59-2.1-.93-.67-1.52-1.78-2.67-2.23s-.85-2.08-1.23-3.17c.16-.34.46-.45.73-.61a4.67,4.67,0,0,0,0,2.23c0,.2.22.54.33.54,1.63-.05,1.8,2.05,3,2.66.11.05.15.23.25.31C31.28,165.22,31.28,165.22,31.37,166.78Z"/><path id="_Tracciato_42" data-name="&lt;Tracciato&gt;" class="cls-18" d="M24.57,144.6c.63-.78.95-.09,1.24.39a10.18,10.18,0,0,0,2.41,2.32,1.46,1.46,0,0,0,1.16.4c.64.15.48.63.35,1.11a.23.23,0,0,1-.37.06A7.67,7.67,0,0,1,24.57,144.6Z"/><path id="_Tracciato_43" data-name="&lt;Tracciato&gt;" class="cls-27" d="M22.47,4.05c.8.86,1.89.41,2.8.82.74.34,1.05.69.46,1.49-1,.51-1.78-.26-2.62-.71A10.24,10.24,0,0,1,20.94,4.1C21.31,3.2,21.31,3.2,22.47,4.05Z"/><path id="_Tracciato_44" data-name="&lt;Tracciato&gt;" class="cls-29" d="M32.18,85.85a4.19,4.19,0,0,1-2.66-.21c-1-.41-1.9-1.7-3.18-1.2a1.66,1.66,0,0,1-1.12-2c.51,0,.63.51.87.88a1.61,1.61,0,0,0,1.58.83c1.08-.06,2.27-.39,2.95,1.15C30.92,85.92,31.76,85.26,32.18,85.85Z"/><path id="_Tracciato_45" data-name="&lt;Tracciato&gt;" class="cls-30" d="M32.68,84.12l-.5-.29C31.12,83,30.1,82,28.71,81.9a.38.38,0,0,1-.38-.44c.05-.43.24-.69.66-.57,2.07.86,4.3,1.32,6,3.2.24.79-.16.89-.63.67A7.44,7.44,0,0,1,32.68,84.12Z"/><path id="_Tracciato_46" data-name="&lt;Tracciato&gt;" class="cls-31" d="M9.66,65c.83-.45,1.65-1,2.36.24.19.32.48.25.79.14a1.21,1.21,0,0,1,1.61.58c.41.64.95.68,1.29-.19.39.23.87.33,1,.93a3,3,0,0,1-2.17.81c-.94-.17-.59-1.54-1.15-1.74s-1.35.8-1.8,0S10.2,65.56,9.66,65Z"/><path id="_Tracciato_47" data-name="&lt;Tracciato&gt;" class="cls-31" d="M7.66,63c.54.84,1.65.92,2,2a1.71,1.71,0,0,1-1-.5c-1.13-1-1.76-1-2.64.23-.19.26-.63.43-.38.92a.65.65,0,0,0,1,.31c.16-.06.38.12.57.19-.3.49-1.06.11-1.24.85-.55-.74-1.5-1.24-1-2.57A2.09,2.09,0,0,1,7.66,63Z"/><path id="_Tracciato_48" data-name="&lt;Tracciato&gt;" class="cls-3" d="M8.35,96.88c-.69.53-1.23.22-2,0-1.15-.37-2-1.45-3.25-1.49-.47,0-.48-.43-.48-.83a27.31,27.31,0,0,1,3.91,1.07A3.92,3.92,0,0,1,8.35,96.88Z"/><path id="_Tracciato_49" data-name="&lt;Tracciato&gt;" class="cls-32" d="M21.43,88.12c-.57.43-1.13.09-1.56-.23a6.9,6.9,0,0,0-1.72-.76c-.67-.25-1.08-.09-1.3.77s-.54,1.48-1.42.84c0-1.44.89-1.83,1.85-2C19,86.27,20.86,86.94,21.43,88.12Z"/><path id="_Tracciato_50" data-name="&lt;Tracciato&gt;" class="cls-33" d="M29.36,148.88a.67.67,0,0,1,.24,0,1,1,0,0,0,.11-1.57c-.34-.46-.8-1-.3-1.59s.91-.08,1.3.25c.21.18.48.15.67.34l.52.29A1.82,1.82,0,0,1,29.36,148.88Z"/><path id="_Tracciato_51" data-name="&lt;Tracciato&gt;" class="cls-13" d="M8.18,9.18a13.47,13.47,0,0,1-5.76-.74c-.37-1-.25-1.2.77-1.23a5.76,5.76,0,0,0,3.72.85C7.73,8,8.21,8.11,8.18,9.18Z"/><path id="_Tracciato_52" data-name="&lt;Tracciato&gt;" class="cls-27" d="M16.84,115.69c.17-.33.46-.47.71-.22.55.55,1.2.41,1.84.43a16.53,16.53,0,0,0,2.12.14c.33-.06.65.2.37.71-1.58,1.21-2.71,1.12-4.15-.3C17.45,116.18,17.13,115.94,16.84,115.69Z"/><path id="_Tracciato_53" data-name="&lt;Tracciato&gt;" class="cls-34" d="M22.47,4.05c-.5.43-1-1.11-1.53,0C19.49,3,19.49,1.68,21,.29c.4.05,1.09.15.42.69-1.2,1-.22,1.6.23,1.81C22.21,3.07,22.22,3.61,22.47,4.05Z"/><path id="_Tracciato_54" data-name="&lt;Tracciato&gt;" class="cls-35" d="M32.68,84.12c.59,0,1.19-.15,1.73.36.36.33.48,0,.54-.39a2.83,2.83,0,0,1,0,2.64c-.16,0-.36,0-.48,0-.64.45-1.23.85-1.46-.47,0-.19-.38-.3-.58-.45.52-.3,1.29.62,1.57-.14.38-1-.85-.67-1.12-1.24A3.12,3.12,0,0,0,32.68,84.12Z"/><path id="_Tracciato_55" data-name="&lt;Tracciato&gt;" class="cls-13" d="M25.74,18.46c-.52.69-1.11.53-1.82.37A20.61,20.61,0,0,1,20,17.68C22,17.05,23.87,17.72,25.74,18.46Z"/><path id="_Tracciato_56" data-name="&lt;Tracciato&gt;" class="cls-7" d="M21.88,116.75c0-.44-.23-.52-.58-.38a1.65,1.65,0,0,1-1.91-.47l-.25-.57c.63-.52,1.11.58,1.88.14a12.81,12.81,0,0,0-1.55-1.5c-.36-.33-.95-.49-.83-1.25a4.27,4.27,0,0,1,2.28,1.3c.39.4.77,1.08,1.47.73C22.61,115.55,22.64,116.29,21.88,116.75Z"/><path id="_Tracciato_57" data-name="&lt;Tracciato&gt;" class="cls-36" d="M3.19,7.21c-.61.12-1,.41-.77,1.23-2.09-1.11-2.35-2-1-3.59C1.8,5.83,2,7,3.19,7.21Z"/><path id="_Tracciato_58" data-name="&lt;Tracciato&gt;" class="cls-26" d="M29,80.89c-.2.14-.46.23-.46.59a4.56,4.56,0,0,1,3.65,2.35,20.66,20.66,0,0,0-3.29-1.39A1.28,1.28,0,0,1,28,80.61C28.31,80.69,28.7,80.53,29,80.89Z"/><path id="_Tracciato_59" data-name="&lt;Tracciato&gt;" class="cls-3" d="M28.19,58.41c.36.76,0,.8-.54.82-.93,0-1.52-1-2.46-.84a1.49,1.49,0,0,1-1.33-.61C25.46,56.54,26.75,58.16,28.19,58.41Z"/><path id="_Tracciato_60" data-name="&lt;Tracciato&gt;" class="cls-37" d="M7.61,123.39c-.16-1.16.13-2.61-1.48-2.79-.27,0-.51-.43-.77-.66-.43-.39-1.17-.5-1-1.45.41-.33.69.07,1,.27a19.67,19.67,0,0,0,2.19,1.59c.59.29.72,1,.83,1.66a12.81,12.81,0,0,1,.32,1.52,1.18,1.18,0,0,1-.07.2A1.51,1.51,0,0,1,7.61,123.39Z"/><path id="_Tracciato_61" data-name="&lt;Tracciato&gt;" class="cls-36" d="M8.18,9.18c-.26-.7-.61-1.08-1.35-.84-1,.34-2-.4-3-.31-.38,0-.45-.5-.62-.82,1,.45,2.21-.39,3.06.8,0,.07.36-.11.55-.2,1-.48,1.53-.15,1.67,1.19Z"/><path id="_Tracciato_62" data-name="&lt;Tracciato&gt;" class="cls-1" d="M6.2,5.19A.78.78,0,0,0,5,5.11c-1,1.07-1.14.47-1.2-.63,0-.14,0-.27-.06-.41a6.29,6.29,0,0,1,3.73.58C7.29,5.65,6.79,5.54,6.2,5.19Z"/><path id="_Tracciato_63" data-name="&lt;Tracciato&gt;" class="cls-35" d="M23.86,57.78a1.54,1.54,0,0,1,1.33.61h0c-1,.52-1.88,1.1-1.76,2.6h-.25l-.75-.58C22.06,59,22.46,58.28,23.86,57.78Z"/><path id="_Tracciato_64" data-name="&lt;Tracciato&gt;" class="cls-38" d="M18.85,133.59c-.38.41-.75.12-1.15,0-1-.27-1.45-1.82-2.74-1.62-.28,0-.37-.66-.33-1.11A15.33,15.33,0,0,1,18.85,133.59Z"/><path id="_Tracciato_65" data-name="&lt;Tracciato&gt;" class="cls-28" d="M26.72,2.07c0,.29.11.84-.4.58a23,23,0,0,1-2.45-1.5c-.36-.25-.28-.53.16-.6A4.47,4.47,0,0,1,26.72,2.07Z"/><path id="_Tracciato_66" data-name="&lt;Tracciato&gt;" class="cls-39" d="M15.59,156.11c0-.62.78-1.06.27-1.77.74.48,1.62.67,2.23,1.43A2.89,2.89,0,0,1,15.59,156.11Z"/><path id="_Tracciato_67" data-name="&lt;Tracciato&gt;" class="cls-37" d="M6.2,5.19c.47,0,1,.11,1.24-.54a1.54,1.54,0,0,1,1.8,1.09.22.22,0,0,1,0,.32c-.78,0-1.48-1.44-2.35-.13C6.78,6,6.35,5.54,6.2,5.19Z"/><path id="_Tracciato_68" data-name="&lt;Tracciato&gt;" class="cls-40" d="M10.12,123.41c-.47.33-.91.77-1.5.32l0-.06a7.32,7.32,0,0,0,.21-1.55c.11-.48.19-1,.8-.82A3.1,3.1,0,0,1,10.12,123.41Z"/><path id="_Tracciato_69" data-name="&lt;Tracciato&gt;" class="cls-8" d="M15.94,40.75c-.36-1.06-1.59-.51-2-1.45,1,0,2-.14,2.48,1.12Z"/><path id="_Tracciato_70" data-name="&lt;Tracciato&gt;" class="cls-41" d="M10.12,123.41c-.24-.65-.69-1.23-.5-2,.07-.28.36-.35.46-.6l.08,0A2.64,2.64,0,0,1,10.12,123.41Z"/><path id="_Tracciato_71" data-name="&lt;Tracciato&gt;" class="cls-42" d="M9.2,6.06c0-.11,0-.21,0-.32a1.84,1.84,0,0,1,.48,2.08C9.67,7.18,8.4,7,9.2,6.06Z"/><path id="_Tracciato_72" data-name="&lt;Tracciato&gt;" class="cls-14" d="M28.61,159l-.49,0c.16.42.68.36.75.84a4.7,4.7,0,0,1-1.12-.42c-.47-.31-.41-.63.14-.76A.67.67,0,0,1,28.61,159Z"/><path id="_Tracciato_73" data-name="&lt;Tracciato&gt;" class="cls-43" d="M27.6,127.22a32,32,0,0,0,3,1.25c.58.29.6,1.29.48,2.07,0,.29-.32.46-.45.3-.94-1.15-2.29-.6-3.37-1.14a1.56,1.56,0,0,1-.93-1.19C26.08,127.39,26.44,127.11,27.6,127.22Z"/><path id="_Tracciato_74" data-name="&lt;Tracciato&gt;" class="cls-43" d="M31.38,146.27l-.84-.21c-.36-.09-.77-.72-1.07-.07s.27.85.56,1.15c1,1,.44,1.38-.43,1.7,0-.4.13-.83-.22-1.13a2.77,2.77,0,0,0-1.67-1.78,2.73,2.73,0,0,1-2-3.09c.05-.48-.14-1,.41-1.12a1,1,0,0,1,1.18.79c.26,1.47.9,2,2.25,2C30.44,144.42,30.61,145.86,31.38,146.27Z"/><path id="_Tracciato_75" data-name="&lt;Tracciato&gt;" class="cls-2" d="M7.38,99.13a1.39,1.39,0,0,0-1.22-.58c-1.56,0-2.82-1.08-4.23-1.61a1.9,1.9,0,0,1-.88-1.18c-.11-.29-.16-.54.08-.77a.53.53,0,0,1,.69,0c1.26.72,2.5,1.48,3.8,2.1.67.31,1.18,1.32,2.11.71.18-.11.36.17.38.45,0,.59-.23.88-.73.93Z"/><path id="_Tracciato_76" data-name="&lt;Tracciato&gt;" class="cls-44" d="M10.08,120.79c.05.41-.14.57-.46.6-.69.12-.46.76-.5,1.23s.12,1-.52,1c-.09-.16-.26-.31-.27-.47-.15-2.9-2.47-3.34-4-4.71a.94.94,0,0,1-.07-1.27c.27-.36.61,0,.92.11a5.86,5.86,0,0,1,3.27,2.6C8.9,120.5,9.36,121,10.08,120.79Z"/><path id="_Tracciato_77" data-name="&lt;Tracciato&gt;" class="cls-45" d="M13.35,150c1.71,0,1.71,0,2.26,2.32-.08,0-.2-.08-.21-.14-.41-2-1.88-1.73-3.11-2-.18,0-.34,0-.38.18-.12.65.56.44.69.83-.51.13-1.08.44-1.36-.35a2.33,2.33,0,0,1,.34-2c.35-.59.67.2,1,.3A2.1,2.1,0,0,0,13.35,150Z"/><path id="_Tracciato_78" data-name="&lt;Tracciato&gt;" class="cls-45" d="M15.35,153.48c-.25,0-.46.92-.69.19s-.88-.74-1.06-1.35C14.42,152.23,14.8,153,15.35,153.48Z"/><path id="_Tracciato_79" data-name="&lt;Tracciato&gt;" class="cls-45" d="M13.35,152a1.7,1.7,0,0,1-.75-.87Q13.32,151.2,13.35,152Z"/><path id="_Tracciato_80" data-name="&lt;Tracciato&gt;" class="cls-46" d="M19.27,89.89c-.87.18-1.34-.69-1.95-1.21a.84.84,0,0,1,0-1.05c.29-.45.6-.24.82.08.36.51.91.4,1.36.62s1,.23.85,1S19.75,89.89,19.27,89.89Z"/><path id="_Tracciato_81" data-name="&lt;Tracciato&gt;" class="cls-37" d="M23.43,61c-.67-1.29.19-2.56,1.76-2.6,1,.76,1.84,1.88,3.23,1.55.26-.07.51.22.29.55-.44.64-1,1.48-1.75,1C25.8,60.73,24.61,61.13,23.43,61Z"/><path id="_Tracciato_82" data-name="&lt;Tracciato&gt;" class="cls-22" d="M13.35,150c-.48,0-.73-.31-.75-.86A1.71,1.71,0,0,1,13.35,150Z"/><path id="_Tracciato_83" data-name="&lt;Tracciato&gt;" class="cls-47" d="M18.64,112.72c.79.74,1.57,1.49,2.37,2.21.23.2.78.2.52.71a.94.94,0,0,1-1.09.42c-.48-.12-.77-.73-1.3-.73-.37-.24-.66-.6-1-.87s-.61-.1-.92-.12a1.12,1.12,0,0,1-.94-1.38,1.52,1.52,0,0,1,1.59-.94c.26,0,.52.27.77.42A2.62,2.62,0,0,0,18.64,112.72Z"/><path id="_Tracciato_84" data-name="&lt;Tracciato&gt;" class="cls-7" d="M18.13,114.46c.51,0,.79.4,1,.87C18.5,115.5,18.23,115.11,18.13,114.46Z"/></g></g></g></g></svg>