<svg xmlns="http://www.w3.org/2000/svg" viewBox="0 0 38.7 168.17"><defs><style>.cls-1{fill:#89cbcb;}.cls-2{fill:#bfe1e2;}.cls-3{fill:#40b3b2;}.cls-4{fill:#72c3c2;}.cls-5{fill:#6bc1bf;}.cls-6{fill:#7cc5c5;}.cls-7{fill:#48b5b3;}.cls-8{fill:#82c8c8;}.cls-9{fill:#20abaa;}.cls-10{fill:#4eb5b6;}.cls-11{fill:#d3eaea;}.cls-12{fill:#30afae;}.cls-13{fill:#34afae;}.cls-14{fill:#aedad9;}.cls-15{fill:#61bcbb;}.cls-16{fill:#36b1b0;}.cls-17{fill:#1cadab;}.cls-18{fill:#bee2e2;}.cls-19{fill:#4fb7b5;}.cls-20{fill:#3db1b0;}.cls-21{fill:#70c2c1;}.cls-22{fill:#8ecdcb;}.cls-23{fill:#cee8e7;}.cls-24{fill:#44b4b3;}.cls-25{fill:#27acab;}.cls-26{fill:#64bdbc;}.cls-27{fill:#def0f0;}.cls-28{fill:#eaf5f5;}.cls-29{fill:#56b9b7;}.cls-30{fill:#35b0af;}.cls-31{fill:#8dcdcd;}.cls-32{fill:#d1e9e9;}.cls-33{fill:#c4e4e4;}.cls-34{fill:#79c5c3;}.cls-35{fill:#acdad9;}.cls-36{fill:#95d0d0;}.cls-37{fill:#5cbaba;}.cls-38{fill:#22acab;}.cls-39{fill:#4ab5b4;}.cls-40{fill:#70c2c2;}.cls-41{fill:#3bb2b1;}.cls-42{fill:#8acbcb;}.cls-43{fill:#84c8c9;}.cls-44{fill:#a2d5d6;}.cls-45{fill:#c7e4e5;}.cls-46{fill:#b5dddc;}.cls-47{fill:#5ebaba;}.cls-48{fill:#73c3c2;}.cls-49{fill:#92cfcf;}.cls-50{fill:#74c4c3;}.cls-51{fill:#50b8b6;}.cls-52{fill:#65bebd;}.cls-53{fill:#a0d4d4;}.cls-54{fill:#46b4b3;}.cls-55{fill:#6ec1c0;}.cls-56{fill:#9dd3d3;}.cls-57{fill:#81c8c7;}.cls-58{fill:#77c5c4;}.cls-59{fill:#76c4c4;}.cls-60{fill:#98d1cf;}</style></defs><title>Risorsa 28</title><g id="Livello_2" data-name="Livello 2"><g id="Colori"><g id="_Gruppo_clip_" data-name="&lt;Gruppo clip&gt;"><g id="_Gruppo_" data-name="&lt;Gruppo&gt;"><path id="_Tracciato_" data-name="&lt;Tracciato&gt;" class="cls-1" d="M9.31,5.46l-.54.29c1.13.51,1.64,1.07,1.64,2A9.79,9.79,0,0,0,11.88,12c.52,1,.52,1.65-1.14,2.24-1.43.5-1.8,1.32-1.07,2.17.58.68.42,1.51.9,2.06,1.55,1.73.1,3.57,1,5.29.32.57.09,1.16-.5,1.68s-.87.85-.59,1.38a17.14,17.14,0,0,0,2.83,3.4c.65.51,1.65,1.37-.59,1.86-1.25.27-1,1.14-.36,1.5,2,1.08,1.84,2.55,2.51,3.87.28.55.27,1.21,1.77,1.15.7-1.33,2.74-2.59,0-4.12,3.15.34,3.22.44,2.11,1.61-.93,1,.59,1.65,1.26,2.34s2.24.41,3.49.2c.76-.13,1.31-.94,2.36-.27,2-.41,2.92-1.75,1.64-2.49-.85-.5-1.37-1-1.2-1.66.09-.41-.18-.82-.85-1-2.37-.62-1.89-1.56-.87-2.51.25-.24.05-1.21,1.5-.45.45.23,1.71,0,1.51-.46-.43-.88.31-1.16,1.49-1.51A1,1,0,0,0,30,27c-.35-1.14.49-2.33-.59-3.44-.24-.25-.1-.59.07-.86,1.31-2.1.75-4.31,1.24-6.46.09-.38,0-.85.49-1.11,1.79-1,1.16-1.9.15-2.88-.89-.27-1.88,0-1.73.4C30.13,14,28.42,14,27,14.2a3.26,3.26,0,0,0-.9.28c.09-.19-.22.08-.17,0,.88-2-.91-3.24-3.75-4.11-1.09-.34-1.83.05-1.72.77.07.44.51.83.84,1.22,1.53,1.81,1.55,3.83,2.47,5.72.16.33-.35.6-.37.82.38-.56.07-1.14-.59-1.69-.47-.4-.79-1-1.83-.89s-.8.71-1,1.16c-.53,1.08-2,1.7-3.87,1.89a5.33,5.33,0,0,0-2.36.51c2.56-1.4,2-3,1.65-4.69-.19-1,1.13-2.28,2.3-3.32.95-.84,1.19-1.63-.71-2.2-.71-.21-.72-.63-.91-1A2.1,2.1,0,0,0,14.1,7.4c-1.54.15-1.44-.53-1.73-1.06C11.89,5.5,11.19,4.81,9.31,5.46Z"/><path id="_Tracciato_2" data-name="&lt;Tracciato&gt;" class="cls-2" d="M.68,158.11c-.21.43.09.8.45,1.17.6.45-.11,1,.51,1.49,1.29,1.64,1.08,3.63,3.63,5a9.08,9.08,0,0,1,1.55,1.16,4.62,4.62,0,0,0,2.6.59,9.28,9.28,0,0,0,2.3.15c1.06-.37.52-.77-.07-1.05a33.85,33.85,0,0,0-3.46-1.75c-2.58-.92-2.35-2.44.32-3.12.79-.2,1.47-.51,2.31-.66,1.21-.22,2.41-.45,2.78.6.09.28.3.59,1,.58s1.3-.19,1.37-.55c.16-.8,1-1,2.24-1.08a1.17,1.17,0,0,0,.68-.2c1.16-1.28,3.59-1.24,5.54-1.65,1.36-.28.57-1.34,2-1.48.73-.62,1.41-1.24.87-2-1.5-.3-1.37.46-2,.73a1.06,1.06,0,0,0-.67-.64c-.57-.22-1.18-.41-1.74-.64a3,3,0,0,0-2.76-.22c-.95.5-1.08,1.09-.39,1.71.37,0-.33.26-.06.13.11-.06,0-.07-.16-.12a3.41,3.41,0,0,0-1.52-.07c-3,.71-6,.11-9-.22-1.6-.17-2.88-.36-2.95,1,0,.73-1.22,1.36-1.31,2.17,0,.33-.64.63-1.31.6s-.62-.51-.88-.79a1.8,1.8,0,0,0-.46-.55,1.82,1.82,0,0,0-.83-.37A1.31,1.31,0,0,0,.68,158.11Z"/><path id="_Tracciato_3" data-name="&lt;Tracciato&gt;" class="cls-3" d="M36.16,48.78c0-.29.07-.58.1-.87-1.54-2.57-1-5.09.52-7.6a49.8,49.8,0,0,0,.32-7.22c0-.6.5-1.21.77-1.81-.56-.57.06-1.23-.42-1.8l.36-5.87c-2.28-1.81-1.36-3.77-.77-5.7.17-.56.83-1.06,1-1.64.07-.29.18-.59-.15-.86a1.92,1.92,0,0,1,.54-1.78,1.59,1.59,0,0,0-.05-1.75l-.57-.28a1.54,1.54,0,0,0-.77-.15c-1.85.38-2.73,1.1-2.51,2.23a7.81,7.81,0,0,1-.51,3.74c-.47,1.58.07,3.17-.15,4.75a1.08,1.08,0,0,0,.07.47,3.69,3.69,0,0,1,.21,4.79c-1.73,2.51-.9,5.14-.35,7.72a5.36,5.36,0,0,1,.1,2.75,4.07,4.07,0,0,0-.1,2.6c.08.24.2.52,0,.73C31.39,44,33,47.17,31.59,50.06a.94.94,0,0,0,.08.86c.72,1.44,1.69,2.86,1.34,4.41-.11.48.37.83,1.09,1.07,1.5.05,1.25-.63,1.33-1.1a4.85,4.85,0,0,0-.88-3.55C33.63,50.35,34.17,49.52,36.16,48.78Z"/><path id="_Tracciato_4" data-name="&lt;Tracciato&gt;" class="cls-4" d="M37.36,11.6h.48l.63-1.49a4.46,4.46,0,0,0-.71-2.31l-.43-.29c-.6-.81,1-2-1.43-2.49-.92.05-1.07.44-1.06.84a21.58,21.58,0,0,0-.24,2.77,2.47,2.47,0,0,1-1.41,2.71c-.78.46-1.28,1.16-.94,1.77.69,1.27-.1,2.39-.68,3.55a2.33,2.33,0,0,0-.35,1.73A3.37,3.37,0,0,1,30,22.45a1.05,1.05,0,0,0-.06,1.69c1.17,1.26.69,2.48-.31,3.64-.59.69-.71,1.3-.16,1.95a6.12,6.12,0,0,1,1.14,3.71,17.85,17.85,0,0,1-.12,5.16c0,.15.13.34,0,.43-2.71,1.75.14,3.48.05,5.22,0,.14.33.2.59.25a2.43,2.43,0,0,0,1.09-.38,16.91,16.91,0,0,0,1.49-9.29c-.3-3.33-1.38-6.75.48-10.08.44-.78.12-1.54.11-2.31h0a10.29,10.29,0,0,1,.32-6.66,4.23,4.23,0,0,0,0-2.44C34.35,12.29,35.41,11.64,37.36,11.6Z"/><path id="_Tracciato_5" data-name="&lt;Tracciato&gt;" class="cls-5" d="M31.19,136.07v-2.59c-1-1.82-1.87-3.65-.75-5.56a1.07,1.07,0,0,0,.15-.86,8.14,8.14,0,0,1,.35-4.94,9.34,9.34,0,0,0-.23-6.08c-.67-1.94.72-3.94-.07-6-.38-1,1.32-2,2.9-2.62,1-.57,0-1.27.38-1.88-.12-.54.19-1.11-.44-1.61a.85.85,0,0,0-.42-.11.79.79,0,0,0-.25,0c-1,.49-.43,1.35-1.37,1.86a4.36,4.36,0,0,0-.72.7c-.47.91-2.38,1.12-3,1.95a1.42,1.42,0,0,0-.25.65,2.16,2.16,0,0,0,.25,1.35c.21.32.71.73.29,1-2.23,1.19-.93,2.53-.65,3.83s1.1,2.25,1.22,3.42c.66,1.4-.17,2.73-.47,4.09A22.06,22.06,0,0,0,26,127.27a3.77,3.77,0,0,0,.42,3.71c1.34,1.67,1.12,3.39,1.13,5.11a20.59,20.59,0,0,0-.06,2.48c.17,1.24.62,1.33,2.7.59.53-.27.65-.68,1.06-1v0C31.8,137.47,30.29,136.78,31.19,136.07Z"/><path id="_Tracciato_6" data-name="&lt;Tracciato&gt;" class="cls-6" d="M10.88,26.85a1,1,0,0,1,.62-1.07c1-.47,1.11-1.1.9-1.73-.37-1.17,0-2.38-.22-3.48a6.92,6.92,0,0,0-1.75-4c-.85-.86-.7-1.58.49-2.06,2.15-.87,1.82-1.16,1.48-2.64S10.49,8.8,11.16,7.14c.44-1.08-.82-1.35-2.39-1.39l-.84,0c-.77.28-.32.7-.4,1.06,1.66.87,1.61,2,1.61,3.17,0,.62,0,1.24,0,1.86a5.72,5.72,0,0,1-.4,2.75,2.72,2.72,0,0,0,.41,2.72c.64,1,.81,2-.86,2.79-1.13.55-1,1.22.18,1.72s1.36,1.33,1,2.1c-.92,2.29,0,4.51.74,6.74,0,.09.24.2.2.26-1.12,1.58-.17,3.17-.27,4.75,0,.93-.12,1.62,1.07,2.26-3.1,1.06-3.31,1.28-2.5,2.7,1.59-.18,2.82-.84,4.45-1a1.26,1.26,0,0,0,1.31-1.29,5.46,5.46,0,0,0-1.8-4.2c-.84-.85-1.13-1.57,0-2.39.61-.42.87-1,.37-1.51C12.05,29.17,11.9,27.92,10.88,26.85Z"/><path id="_Tracciato_7" data-name="&lt;Tracciato&gt;" class="cls-7" d="M33.77,107.14c-3.88,1-5.26,3.34-3,5.18.31.25.7.57.15.75-2.38.78-1.46,2.06-1,2.94,1.33,2.44.73,4.8,0,7.2-.09.34-.32.68-.25,1,.6,2.7-1.15,5.4-.05,8.12.23.58,0,1.22,1.56,1.14l.54-.57c.65-.57-.09-1.26.49-1.83l.12-1.42c.44-.46-.13-1,.41-1.47l0,0c0-.81.48-1.64-.39-2.4-.25-.23-1.58.44-1.09-.49.4-.76-.09-1.63.7-2.46.38.32.25.73.71,1a.53.53,0,0,0,.59-.08c0-1.34,0-2.68,0-4a.88.88,0,0,0-.65.17.57.57,0,0,0-.17.55c-.18-.11-.11-.25-.14-.38a8.85,8.85,0,0,1,0-4.92,3.87,3.87,0,0,0-.05-2.88c-.76-1.63-.38-3.06,1.8-4.28C34.05,107.69,34.2,107.39,33.77,107.14Z"/><path id="_Tracciato_8" data-name="&lt;Tracciato&gt;" class="cls-8" d="M30.22,138.77l-2.11.82a10.05,10.05,0,0,1,0-2.53c.39-1.4,0-2.79-.07-4.18s-2.45-2.89-1.59-4.45c.75-1.36-.15-2.9,1.53-4.11.74-.53.54-1.1.6-1.67a5.5,5.5,0,0,0-4.26.08c-1.16.66-.84,1.49,0,2.28.66.64.25,1.25-.75,1.66-2.1.87-1.75,1.79-.55,2.89A9.51,9.51,0,0,1,26.38,137a5,5,0,0,1-1.5,5c-.37,1-1.42,2.06.91,2.78.64,0,1-.16,1.15-.5-.39-1.61.09-3,3-3.75l.17-.57C30.47,139.55,30.7,139.17,30.22,138.77Z"/><path id="_Tracciato_9" data-name="&lt;Tracciato&gt;" class="cls-9" d="M35.38,82.8l.43-4.92c-.52-.67,0-1.41-.35-2.09l-.12-.62c.35-.8.6-1.59-.3-2.34a1.45,1.45,0,0,0-.8,0c-1,1-1.06,2.23-2,3.28a.6.6,0,0,0,0,.86c2,1.76.35,3.45-.28,5.16-.27.71-.75,1.41.05,2.1-.09.19,1-.13.41.31a4.78,4.78,0,0,0,.44,2.88,1.26,1.26,0,0,1-.32,1.69c-1.06.9-.81,1.74.13,2.59a2.33,2.33,0,0,0,.49.33,2.61,2.61,0,0,0,1.49,0c.49-.19.29-.55.62-.78l0-7A1.85,1.85,0,0,0,35.38,82.8Z"/><path id="_Tracciato_10" data-name="&lt;Tracciato&gt;" class="cls-10" d="M2.17,67.3c-.23,1.17-.94,2.32-.34,3.52,1,.71,1.24,1.94,3.66,1.62.24-.27.37-.62,0-.83-1.8-1.18-.92-2.34,0-3.49A1.88,1.88,0,0,0,6,66.44c-.21-1.26-.28-2.51,1.23-3.59,1.17-1.2,1.55-2.36-.49-3.43-.6-.32-.78-.85-.42-1.24,1.84-2,.88-4,0-5.94s-.11-3.45.33-5.16c.17-.63.44-1.27-.59-1.77a1.6,1.6,0,0,0-.76-.08c-1.06,1.15-1.07,2.53-2.51,3.59V50c1.45,2,2.22,4,1.34,6.2-.64,1.58-1.18,3.19,1.27,4.51.54.3.26.63,0,.94-.86,1.46-2,2.89-1.88,4.47C3.46,66.65,3,67.06,2.17,67.3Z"/><path id="_Tracciato_11" data-name="&lt;Tracciato&gt;" class="cls-7" d="M1.43,77.55l.21,6.15c.77,1.92.66,3.92,1.72,5.82s1.45,3.78-.11,5.68a1.11,1.11,0,0,0,.1,1.56c.86.42,1.18,0,1.6-.31A1.42,1.42,0,0,0,5.24,96a5.11,5.11,0,0,1,1.1-2.32,1.51,1.51,0,0,0,.34-1.79,7.17,7.17,0,0,1-1.24-3.28c.93-1.42-.58-2.72-.71-4.08a22.67,22.67,0,0,1,.48-4.78,1.51,1.51,0,0,0-.14-1.44c-.92-1.22-.68-2.47-.42-3.72a.76.76,0,0,0-.2-.45c-1.15-.47-1.59.19-2.28.45C1.93,75.59,1.68,76.57,1.43,77.55Z"/><path id="_Tracciato_12" data-name="&lt;Tracciato&gt;" class="cls-11" d="M12,167.49H9.42c.56.41,1.37.24,2.09.29a2,2,0,0,0,1.44.06c1.87-.83,4.34-.88,6.32-1.55a2.52,2.52,0,0,0,1.33-.76c.28-.74,1-1.53-.6-2.09a5.62,5.62,0,0,0-4.48-.18,6,6,0,0,1-4.77-.19,2.58,2.58,0,0,0-2.86,0c-.84.63,0,1.35,1,1.93C10.19,165.72,11.8,166.36,12,167.49Z"/><path id="_Tracciato_13" data-name="&lt;Tracciato&gt;" class="cls-12" d="M4,28c-1,1.44-.4,3-1,4.46A1.51,1.51,0,0,0,3,33.88l.06.89c-.54,1.09-.14,2.2-.25,3.3,0,.36.17.7.85.79a1.26,1.26,0,0,0,1.14-.48c.88-.84,1.7-1.67,1.58-2.7a2.08,2.08,0,0,1,.26-1.58,3.24,3.24,0,0,0,.6-1.4c-.56-1.5-1.88-2.92-1.53-4.51-.13-.36-.28-.71.34-1a3.52,3.52,0,0,0,1.49-1.3.63.63,0,0,0-.13-.62c-1-.56-1.75-1.32-3.5-1a1.38,1.38,0,0,0,0,1.09L4,26A3.59,3.59,0,0,0,4,28Z"/><path id="_Tracciato_14" data-name="&lt;Tracciato&gt;" class="cls-13" d="M33.73,108c-2.27.64-3.64,2.46-2.57,3.86.88,1.16.56,2.27.33,3.42-.38,1.92-.82,3.84.91,5.71.66-.41.06-1,.8-1.27.72-.66.4-1.34.33-2,0-.46-.63-1,.24-1.47.63-1.42.14-2.87.28-4.31a5,5,0,0,1,.19-1.58l-.13-2C34.13,108.14,34,108.05,33.73,108Z"/><path id="_Tracciato_15" data-name="&lt;Tracciato&gt;" class="cls-14" d="M14.5,2.53l-2.07.59c-.35.51-1.41.84-1.1,1.5,1.77.54,2.15-.39,3.09-1,.95.81,2.18.8,3.83.73,1.81-.08,3.69.42,5.63,0,.52-.1,1,.34,1.4.57,3.24,1.71,4.81,1.76,8.52.27A2.77,2.77,0,0,1,35,5a2.31,2.31,0,0,0,1-.22c0-1-.67-1.39-2.41-1.07-2.7.74-4.43.73-6.28-.43-1.4-.88-3.27-1-4.95-1.41a1.55,1.55,0,0,0-1,0c-1.35,1.05-3,.28-4.52.26C16,2.23,15.3,2.44,14.5,2.53Z"/><path id="_Tracciato_16" data-name="&lt;Tracciato&gt;" class="cls-15" d="M9.83,11.91c-.13-1.45.3-2.91-.47-4.34-.29-.54-.44-1-1.65-.65-.28,0-.29.22-.47.32,0,.09.08.19.11.28A2,2,0,0,1,8,8.43c-.4-.18-.31-.51-.77-.64C6.29,8.41,7,9.16,6.7,9.84c-.23.25.06.36.39.47,1.84.65,1.84.81,0,2.31a1.55,1.55,0,0,0-.3.4,4,4,0,0,0,0,2.21,2,2,0,0,0,.16.45c.21.43.37.92-.12,1.26-1.61,1.12-1.09,2.5-1.63,3.74-.28.64,0,1.31.93,1.74,2.09,1,1.77,2.3,1.41,3.6-.18.65-.79,1.33.66,1.77a1,1,0,0,0,.57-.31c.44-1,.57-2,.93-3s.18-2-1.38-2.76c-1.16-.57-1-1.19.16-1.72,1.28-.6,1.42-1.22.95-2.16A5.45,5.45,0,0,1,9.83,11.91Z"/><path id="_Tracciato_17" data-name="&lt;Tracciato&gt;" class="cls-16" d="M6.21,33.89c-.47.2-.57.49-.51.78.34,1.46-.35,2.76-2.14,4.1-.9-1.38-.25-2.72-.46-4-.88,1.42-.17,2.89-.49,4.33a10.42,10.42,0,0,1,0,4.81c-.05.76-.09,1.53-.13,2.3a1.34,1.34,0,0,0,0,1.44c.06.39.13.78.19,1.17,2.63-.76,2.45-2.15,2.45-3.51.47-1,.08-2,.2-3,.21-1.61-.15-3.21,1.18-4.81A2.44,2.44,0,0,0,6.21,33.89Z"/><path id="_Tracciato_18" data-name="&lt;Tracciato&gt;" class="cls-17" d="M36.16,48.78a1.47,1.47,0,0,0-2.21.36c-.32.91-1,1.79-.09,2.81a3.32,3.32,0,0,1,.42,4.47l-.3.17c-.27,1.29-1.44,2.56-.3,3.88.93.1,1.67-.68,2.69-.18.2-.11.21-.22,0-.34a2.41,2.41,0,0,1,.05-1.79,6.5,6.5,0,0,0,0-3.19v-.61a1.48,1.48,0,0,0,0-1.44,1.22,1.22,0,0,1,0-1.2c.42-.67-.21-1.4.39-2.06Z"/><path id="_Tracciato_19" data-name="&lt;Tracciato&gt;" class="cls-16" d="M5.71,61.72c.82-.28,1.59-.7.54-1.11C2.69,59.22,4.43,57.36,5,55.72c.23-.68.64-1.2,0-1.86s-.2-1.53-.36-2.29S4,50.3,2.72,50q-.29,4.2-.59,8.4c.38.46.13,1,.23,1.42A12.75,12.75,0,0,1,5.71,61.72Z"/><path id="_Tracciato_20" data-name="&lt;Tracciato&gt;" class="cls-18" d="M16.58,2.52a3.83,3.83,0,0,1,2.12.35c.93.67,1.73,1,1.92-.28.05-.36,1-.63,1.68-.41,1.9.64,4.13.91,5.67,2,1.14.77,4.15.59,5.75-.16a36.71,36.71,0,0,0-5-1.6,1.12,1.12,0,0,0-1.13.71c-.08-.72.33-1.09.12-1.45a3.51,3.51,0,0,0-1.76-1A6.47,6.47,0,0,0,23.7.5,6.18,6.18,0,0,0,23,.66c-1.3.68-3-.11-4.37.4a1.41,1.41,0,0,0-1,.29C17.07,1.68,15.82,1.82,16.58,2.52Z"/><path id="_Tracciato_21" data-name="&lt;Tracciato&gt;" class="cls-19" d="M8.28,27.73c-1.42-1.18.09-2.35.18-3.52.06-.62-.12-1-.81-1.39-2.06-1.22-2.48-3.89-.72-5.28.9-.72,1.2-1.36.31-2.12-2,1.34-3.08,2.84-2.85,4.64a2.87,2.87,0,0,1-.68,2.39L3.62,23c.46.28,0,.69.48,1,.73,0,.86-.19.72-.47,0,.91,1.84,1.14,2.42,1.88V26c-.17.56-1.15.92-1.13,1.52.06.14.3.31.22.41-1.34,1.66-.14,3.18.74,4.73a.74.74,0,0,0,.7.08c.34-.17.58-.4.53-.64a3.66,3.66,0,0,1,.53-3.13C9.12,28.54,9,28.06,8.28,27.73Z"/><path id="_Tracciato_22" data-name="&lt;Tracciato&gt;" class="cls-9" d="M36.32,60.23c-.65-.17-.33-1-1.41-.79s-.5.7-.62,1.09c0,.06,0,.13,0,.19a2.67,2.67,0,0,1-.77,2.05,2,2,0,0,0-.23.39c-.16.61-.1,1.27-.68,1.8-1,.93-.77,1.8,0,2.69a4.92,4.92,0,0,0,.72,1c.35.39.2.84.41,1.23s.41,1.07,1.75.84a14.31,14.31,0,0,0,.37-2.59l.23-.36c.07-.86-.68-1.7-.21-2.57.85-1.15-.79-2.4.44-3.54A.92.92,0,0,0,36.32,60.23Z"/><path id="_Tracciato_23" data-name="&lt;Tracciato&gt;" class="cls-20" d="M3.71,22.45c1.56-.42,1.31-1.29,1.41-2,.19-1.42-.48-2.93,1.9-4,.33-.16.16-.65.22-1a2.93,2.93,0,0,1,0-2.63c1.22-.88,1.52-1.76,0-2.64L6.7,9.84a1.11,1.11,0,0,0-.94.95c-.37,1.85-1.23,3.66-1.2,5.53-.44.47.14,1-.42,1.48L4,18.08c-.46.56.2,1.2-.43,1.75C3.64,20.7,3.67,21.58,3.71,22.45Z"/><path id="_Tracciato_24" data-name="&lt;Tracciato&gt;" class="cls-21" d="M26.56,144c0,.24-.1.46-.52.59,1,2.7-1.2,5.32-.7,8,.12.6-.27,1.57,1,1.61,1.54.06,1.27-1,1.5-1.59.15-.42-.16-.88.22-1.29,1.08-1.41.12-3,1.1-4.4a15.32,15.32,0,0,0,.48-2.66l0,0c.7-.43-.06-1,.55-1.48h0c.41-.34.48-.66-.19-.94-1.5.15-1.4.88-1.49,1.46C28.35,144.17,27.48,144.09,26.56,144Z"/><path id="_Tracciato_25" data-name="&lt;Tracciato&gt;" class="cls-22" d="M28.06,151.37c-.94.81-.11,1.95-1.86,2.83a12,12,0,0,1,.06-4.52,16.33,16.33,0,0,1,.95-3.58c.4-.81-1.33-.86-1.17-1.47-2-.76-.7-1.74-.52-2.64-2.23.38-2.49.75-1.73,2.45.63,1.09.87,2.17-.36,3.2-.4.33-.62.76-.24,1.1,1.75,1.53,1.44,3.22,1.3,4.91,0,.5.21,1,1,1.26a2.07,2.07,0,0,0,2.12-.46c.4-.32,0-.75.47-1.06C28.09,152.72,28.08,152,28.06,151.37Z"/><path id="_Tracciato_26" data-name="&lt;Tracciato&gt;" class="cls-23" d="M25.93.76a3.1,3.1,0,0,0,1.55.88c.28.32.26.75,1.05.88A14,14,0,0,0,33.72,4c1.55-.35,1.83.25,2.08.88-.25.1-.24.19,0,.29,1.57.56.49,1.68,1.53,2.36l.06-.61c.54-.93.19-1.79-.58-2.63-1.18-.55-1-1.66-2.57-2a11.8,11.8,0,0,0-5-1A2.41,2.41,0,0,1,27.45.47L27,.19a11.81,11.81,0,0,0-4.15,0c-.73.38-1.92.12-2.58.59a4.84,4.84,0,0,0,3.1,0h0A4.78,4.78,0,0,1,25.93.76Z"/><path id="_Tracciato_27" data-name="&lt;Tracciato&gt;" class="cls-13" d="M5.71,61.72c-.2-1.06-.93-1.83-3.14-1.75-.31.07-.35.23-.44.38,0,2.32,0,4.63,0,6.95,1.12.37,2.05.16,1.91-.52C3.7,65,5.29,63.42,5.71,61.72Z"/><path id="_Tracciato_28" data-name="&lt;Tracciato&gt;" class="cls-24" d="M32.76,103.9h.52a1.44,1.44,0,0,0,1.15,0c.37-.61-.12-1.26.35-1.87,0-.08,0-.15.11-.21a28.25,28.25,0,0,0,0-2.91l.06-.32c.29-.9-.14-1.82.36-2.7-.06-.38.23-.8-.45-1.1a2.34,2.34,0,0,0-2.5,1.2,4.77,4.77,0,0,0-.61,4.72,5.06,5.06,0,0,1,.32,1.59,1.88,1.88,0,0,0,.4,1.41Z"/><path id="_Tracciato_29" data-name="&lt;Tracciato&gt;" class="cls-25" d="M37.89,16.28c-2.87,1.86-2.06,4.1-2,6.25,0,.47,0,1.42,1.9,1.08.09-2.16-.73-4.34.28-6.49C38.12,16.83,38.27,16.54,37.89,16.28Z"/><path id="_Tracciato_30" data-name="&lt;Tracciato&gt;" class="cls-26" d="M26.56,144c.69.15.36,1,1.48.79.86-.15.82-.71,1-1.09.27-.59,0-1.25.69-1.8.5-.32.93-.65.53-1.11l-.26-.32c-1.68-.14-3.88,1.19-3.91,2.44C26.07,143.31,26.39,143.68,26.56,144Z"/><path id="_Tracciato_31" data-name="&lt;Tracciato&gt;" class="cls-27" d="M25.53,164.85a3.29,3.29,0,0,1-.29-3.47,1,1,0,0,0-.24-1.22c-1.84.34-1.78,1.29-2.05,2.12-.1.28.1.58.17.87.15.67.91,1.5-1.42,1.48a1.55,1.55,0,0,0-1.36.81l-1,.58c1.4.12,2.65.7,4.18.45.76-.09.86-.6,1.53-.75Z"/><path id="_Tracciato_32" data-name="&lt;Tracciato&gt;" class="cls-17" d="M36.78,40.31c-1.6.38-1.17,1.31-1.62,2-1.06,1.58-.24,3.24-.31,4.86,0,.47.85.56,1.41.76.87-.88,1.33-1.75,0-2.63-.3-.69.73-1.32.29-2-.34-.53-.09-1,.3-1.51C36.83,41.27,36.8,40.79,36.78,40.31Z"/><path id="_Tracciato_33" data-name="&lt;Tracciato&gt;" class="cls-28" d="M23.46,166.32a9.05,9.05,0,0,0-4.16-.3,49.24,49.24,0,0,0-7.79,1.77,6.25,6.25,0,0,0,4.07.08,14.43,14.43,0,0,1,7-1c.22,0,.56-.16.84-.25S23.71,166.41,23.46,166.32Z"/><path id="_Tracciato_34" data-name="&lt;Tracciato&gt;" class="cls-29" d="M32.76,102.43c.11-1.51-1.1-3-.56-4.51.41-1.19.58-2.39,2.65-3.12a2.62,2.62,0,0,1,0-.28,2.06,2.06,0,0,0-1.15-.17c-1.91.37-2.68,1.17-2.64,2.26A3.72,3.72,0,0,1,30,99.44c-.79.84,0,1.49.93,2.12a4.64,4.64,0,0,0,.4.36C31.72,102.16,31.94,102.57,32.76,102.43Z"/><path id="_Tracciato_35" data-name="&lt;Tracciato&gt;" class="cls-30" d="M2.17,74.61a2.87,2.87,0,0,0,2-.58,2.42,2.42,0,0,0,1.31-.91c.07-.21,0-.4-.27-.56-1.59-.29-1.74-1.47-3.37-1.74C1,72.11,2.54,73.34,2.17,74.61Z"/><path id="_Tracciato_36" data-name="&lt;Tracciato&gt;" class="cls-24" d="M33.79,94.52h1.05c.67-.3.41-.73.47-1.12-.72-.44-.19-1.05-.62-1.53H33.27c-1.27.41-.53,1.08-.66,1.64C32.82,93.92,32.5,94.52,33.79,94.52Z"/><path id="_Tracciato_37" data-name="&lt;Tracciato&gt;" class="cls-13" d="M35.84,68.16c-.86.83-.39,1.74-.51,2.62-1,.62-.72,1.34-.51,2,.79.74.42,1.56.52,2.34.91-.83.1-1.78.57-2.64a3,3,0,0,0,0-2.32C35.4,69.53,37.05,68.83,35.84,68.16Z"/><path id="_Tracciato_38" data-name="&lt;Tracciato&gt;" class="cls-31" d="M9.31,5.46C11.4,5.32,11.89,6,11.92,7s.66,1.27,2.06.5l-.15-.18C13,6.8,13.55,6,12.77,5.48a3.45,3.45,0,0,0-2.38-.61,2,2,0,0,0-1,.34Z"/><path id="_Tracciato_39" data-name="&lt;Tracciato&gt;" class="cls-32" d="M9.38,5.21l.93-.06c.39-.17,1-.23,1.07-.57.46-.46,1.25-.85,1-1.46C11.5,3.86,8.79,3.77,9.38,5.21Z"/><path id="_Tracciato_40" data-name="&lt;Tracciato&gt;" class="cls-19" d="M7.22,7.79c.17.53-.39,1.15.74,1.61C9.09,8.61,9,8,7.35,7.52A.43.43,0,0,0,7.22,7.79Z"/><path id="_Tracciato_41" data-name="&lt;Tracciato&gt;" class="cls-29" d="M34.27,103.89h-1c.17.58-.42,1.24.52,1.75.31,0,.35-.19.53-.29l.48-.29C35.36,104.57,35.15,104.18,34.27,103.89Z"/><path id="_Tracciato_42" data-name="&lt;Tracciato&gt;" class="cls-33" d="M23.33.76h-3.1c-.57,0-1.19-.05-1.58.29a8.17,8.17,0,0,1,2.2.14A1.82,1.82,0,0,0,23.33.76Z"/><path id="_Tracciato_43" data-name="&lt;Tracciato&gt;" class="cls-34" d="M34.33,105.36l-.53.29c-1.56.49,0,1,0,1.49,0,.29,0,.58,0,.87l.38.29C34.18,107.32,34.25,106.34,34.33,105.36Z"/><path id="_Tracciato_44" data-name="&lt;Tracciato&gt;" class="cls-35" d="M.68,158.11h.44a1.22,1.22,0,0,0,.69-1.21c-.27-.69.68-1.61-1.18-2l0,2.63C.62,157.73.65,157.92.68,158.11Z"/><path id="_Tracciato_45" data-name="&lt;Tracciato&gt;" class="cls-3" d="M36.34,43.33c.87.66-2.1,1.28-.08,2,.83-.58.56-1.27.54-1.93C36.67,43.14,36.52,43.14,36.34,43.33Z"/><path id="_Tracciato_46" data-name="&lt;Tracciato&gt;" class="cls-33" d="M16.58,2.52c-.08-.51.76-.76,1-1.17-1.37.11-2.07.78-3.11,1.18A4.86,4.86,0,0,0,16.58,2.52Z"/><path id="_Tracciato_47" data-name="&lt;Tracciato&gt;" class="cls-36" d="M.63,154.91c.92.62.3,1.36.49,2,.39.06.74,0,.83-.22,1-2.21,3.26-4.22,3-6.6-.19-1.57,1.62-3,1.18-4.57-.5-1.82,1.29-3.39,1.6-5.12-.11-.93,1.64-1.61,1.16-2.58C7.94,136,8.69,134.4,11,133c.52-.32.2-.8.44-1.21.45.57.23,1.09-.26,1.55-1.07,1-.12,1.87.61,2.74a1.46,1.46,0,0,0,1.46.43c.56-.1.83-.44.68-.71-.87-1.58.62-2.26,2.8-3.05,1.29-.47,1.55-1.74,2.67-2.66,1.1,1.07,2.12,2,.78,3.29a1.58,1.58,0,0,0-.37,1.43c.15,1.54,1,1.81,3.19,1a1.21,1.21,0,0,1,1.45.2c1,.85,1.85,1.69.14,2.6-.95.5-1,1.1-.42,1.74.65.82-.15,1-1.4,1.07-.44.51-.39,1.17-1.41,1.51-.58.56-1.27,1.16-.08,1.68a3.18,3.18,0,0,0,3.18-.25c-.86-1-.83-1.78,1-2.35,2.07-1.51,1.77-3.25,1.55-5-.28-.93-.95-1.82-.88-2.8,0-.31,0-.83-.53-.94-3.54-.72-1.73-2.94-3.73-4.15-.71-.42-.48-1.41.84-1.93.67-.27,1.22-.8.91-1.14-1-1.12-.45-2.23-.37-3.36.06-.87-2.1-1.94-3.66-2s-2,.49-1.24,1.08c1.69,1.27,1,2.1-1,2.66,1.85-1.46,1.81-1.58-1.11-2.63-.83-.29-1.08-1.32-2.59-.74s-1,1.33-.45,2.12a12.15,12.15,0,0,0-2.74-.06c-1.55.32-2.17,1-1.11,1.68,1.66,1.08.79,1.46-1.1,1.77a3.28,3.28,0,0,0-1.82.76.85.85,0,0,0-.15.83,2.38,2.38,0,0,1,.1,2.17,3.09,3.09,0,0,0-.26.37c-.69,1.49-.57,3-1,4.54a1.62,1.62,0,0,0,.19.4c.66,1,1.76,2-.51,2.75-.22,2-2.42,3.84-2.06,6,.27,1.67.65,3.4-.94,5-.68.68-.17,1.42,0,2.14a2.42,2.42,0,0,1-.12,1.59A4.05,4.05,0,0,1,.64,154.6Z"/><path id="_Tracciato_48" data-name="&lt;Tracciato&gt;" class="cls-37" d="M6.25,91.9a1.88,1.88,0,0,1-.51,1.76A11.87,11.87,0,0,1,4.7,96v.29a13.92,13.92,0,0,0-1.61,6.53,1.8,1.8,0,0,0,.64,1.23c1.09,1.1,1.15,2.2-.12,3.28a2.93,2.93,0,0,0-.41.36c-1,.89-.17,2-1.08,2.79-.11-.57,1.61-1.41-.52-1.88-.92,2.13-.36,4.28-.4,6.43a2.26,2.26,0,0,0,2-.66A40.61,40.61,0,0,1,6.5,106.5c.85-1.51.46-3.34-.09-5a2.08,2.08,0,0,1,.16-2.22c.87-1.1-.43-2.27.23-3.44.43-.77.6-1.6,1.1-2.38.93-1.63.61-3.11-1.7-4.35a1.14,1.14,0,0,0-.69.24A3.17,3.17,0,0,0,6.25,91.9Z"/><path id="_Tracciato_49" data-name="&lt;Tracciato&gt;" class="cls-38" d="M3.66,96.88a2.92,2.92,0,0,1,.77-2.38c1.58-1.71.29-3.41-.33-5.07S2.29,85.9,2.61,84c.08-.46-.4-.45-1-.33l-.09,16.67c1.11.35,1.87.13,1.86-.72A23.37,23.37,0,0,1,3.66,96.88Z"/><path id="_Tracciato_50" data-name="&lt;Tracciato&gt;" class="cls-39" d="M2.64,114.76c-.73-.31-1,0-1.44.28L1.11,123c.63.43-.22,1.07.71,1.51,1.48-.53.72-1.67,1.93-2.25a1.78,1.78,0,0,0,.55-.49C5.54,119.28,3.69,117.05,2.64,114.76Z"/><path id="_Tracciato_51" data-name="&lt;Tracciato&gt;" class="cls-40" d="M.51,139a2,2,0,0,0-.36,2.13c.59,2.06,0,4.1-.06,6.16.43.34.12.78.45,1.13a1,1,0,0,0,1.06.72,1.15,1.15,0,0,0,1.16-.68c.85-1.22.56-2.52.32-3.75a5.79,5.79,0,0,1,.47-3.42,1.13,1.13,0,0,0,0-1.14.86.86,0,0,0-.57-.29c-1.17.08-1.26.69-1.72,1.17C1.07,140.32,1.63,139.56.51,139Z"/><path id="_Tracciato_52" data-name="&lt;Tracciato&gt;" class="cls-7" d="M3.66,96.88c-1.35.7-1.1,1.58-.9,2.45s.18.77-1.21,1A3.7,3.7,0,0,0,2.06,104c1.69.79,2.39,1.74,1.46,3a.49.49,0,0,0,.15.82c2.18-1,2.2-2.35,1-3.4-1.68-1.46-.8-3-.62-4.32s.57-2.46.66-3.71Z"/><path id="_Tracciato_53" data-name="&lt;Tracciato&gt;" class="cls-15" d="M3.16,122.09c-1.19.51-1,1.28-1.11,2-.86-.28-.08-.93-.94-1.15-.16,1.85-.31,3.7-.47,5.55,1.28-.07.86-.69,1.19-1.12.4.61-1,1.51.92,1.84a1.48,1.48,0,0,0,.67-.23C5.68,126.67,4.71,124.38,3.16,122.09Z"/><path id="_Tracciato_54" data-name="&lt;Tracciato&gt;" class="cls-5" d="M.51,139v2.79c2.11-.21,1.32-1.3,2.14-1.83,2.18-1,.56-1.94.08-2.92a1.62,1.62,0,0,0-.37-.37,1.48,1.48,0,0,0-1.83.07C-.21,137.49.3,138.25.51,139Z"/><path id="_Tracciato_55" data-name="&lt;Tracciato&gt;" class="cls-21" d="M.53,136.74a2.44,2.44,0,0,1,1.6,0,1.11,1.11,0,0,0,.64-1.47c-.37-1.31.37-2.42,1.71-3.45a2.55,2.55,0,0,0-1-2.58l-.34-.12H2.64a1.08,1.08,0,0,0-.62.77,9.61,9.61,0,0,1-.12,1.69c-.15.42-.26.9-1.4.69C-.3,133.76,1.1,135.25.53,136.74Z"/><path id="_Tracciato_56" data-name="&lt;Tracciato&gt;" class="cls-13" d="M3.67,107.73c.86-1.29,1.87-2.58-.57-3.69-.33-.15-.62-.38-1-.08,0,.73,0,1.47,0,2.2a1.57,1.57,0,0,0-.16,1.26C2,108.35,2.65,108.4,3.67,107.73Z"/><path id="_Tracciato_57" data-name="&lt;Tracciato&gt;" class="cls-41" d="M2.64,130v-.87c-1.14-.88.94-1.86-.38-2.77-1.94.38-.52,1.6-1.62,2.17,0,.59,0,1.18,0,1.77C1.74,131.2,2.17,130.55,2.64,130Z"/><path id="_Tracciato_58" data-name="&lt;Tracciato&gt;" class="cls-15" d="M2.64,130a1.91,1.91,0,0,1-2,.3c-.47.66-.7,1.31-.1,2,.12.27-.09.66.47.77s.78-.3,1.07-.51C3.14,131.76,2.46,130.84,2.64,130Z"/><path id="_Tracciato_59" data-name="&lt;Tracciato&gt;" class="cls-7" d="M3.67,107.73c-.69.16-1.45.42-1.54-.33,0-.41-.06-.82-.09-1.24-.79.78-.32,1.63-.44,2.45,1.36.74-.3,1.55.15,2.4C3.6,110.09,2.89,108.76,3.67,107.73Z"/><path id="_Tracciato_60" data-name="&lt;Tracciato&gt;" class="cls-6" d="M.64,154.6c1.21-.1,1.32-.64,1.51-1.16.25-.74.79-1.51-.58-2.11a.82.82,0,0,0-.9.35A6.85,6.85,0,0,0,.64,154.6Z"/><path id="_Tracciato_61" data-name="&lt;Tracciato&gt;" class="cls-36" d="M.67,151.68l.47-.28c1.46-.51.66-1.22.3-1.77s-.51-1-.83-1.47c0-.31.05-.66-.52-.87C-.19,148.77.63,150.21.67,151.68Z"/><path id="_Tracciato_62" data-name="&lt;Tracciato&gt;" class="cls-42" d="M26,38.27c0-.39.09-.86-.72-1-1-.17-.65.41-1,.64a5.17,5.17,0,0,1-3,.63c-1.15,0-.81-.62-1.22-.92-1.09-.79-1.07-1.34.41-2,1.12-.5.83-1-.73-1.11-.51,0-1,.13-1.1-.33-.15-.8-1-.47-1.64-.26-1,.32-1.16,1-.44,1.31,1.68.61,1.09,1.11.29,1.77-.56.46-.2,1-.27,1.57-.45.5.53.91.18,1.53-2-.42-3.49,0-4.39,1.1S9.71,43.55,12,44.93a1.48,1.48,0,0,1,.56,2.35c-.53.7-1.63,1.27-1.06,2.15.16.25-.3.49-.73.52-2.14.19-2,1.11-1.8,1.91.39,1.46.56,3,2.15,4.27,1.33,1.08,1.24,2.49,2.16,3.7.39.51.2,1.16-.46,1.67a2.69,2.69,0,0,0-1.12,3.21,3.19,3.19,0,0,1-.11,1.59c-.41,2.28-.81,4.58,2.6,6.38.26.13-.25.31-.37.48-.2.37,0,.67.5.91,1.38.52.3.94-.36,1.15-3.69,1.12-3.83,1.7-.59,3.32a2.16,2.16,0,0,0,1.21,0,6.2,6.2,0,0,1-.79.32c-.68.35-1.61.56-2,1.09,0,.31.26.52.72.68,1.46.18,2.76.33,3.73-.68.64-.66,2.32-.78,3.49-1.15.39-.12,1.35.64,2.05,1,2.51,1.3,2.69,1.3,5.23-.08.17-.12.44-.3.34-.38-1.94-1.64.15-3.11.67-4.63a6.74,6.74,0,0,0-.27-4.2c-.66-2.37-3-5,1-7.32.29-.16.29-.45.31-.69a23.3,23.3,0,0,1-1-8.66c0-1-.54-1.2-2.11-.69-.46.14-.8.42-1.29.09s-.16-.62.32-.87c1.38-.73,3.28-1.38,3.27-2.53,0-1.44.43-2.93-.45-4.34a1.3,1.3,0,0,1,.33-2c.57-.42.78-1,.27-1.39C26.82,40.91,27.07,39.45,26,38.27Z"/><path id="_Tracciato_63" data-name="&lt;Tracciato&gt;" class="cls-8" d="M26,38.27l-.53.31c1.61.74-.31,2,1.44,2.79,1.2.53,1.81,1.34.41,2.05-1.05.54-1.13,1.22-.55,1.7,1.7,1.42.31,3,1,4.49.3.69-1.24,1.45-2.39,2C23,52.9,23,52.94,25.52,54.21c.73-.21.26-.74.84-1s1.23-.18,1.05.17c-.87,1.73,0,3.38.35,5.07.09.42.29,1-.41,1.38-.86.5-.88.93.31,1.23s.1.94.91,1.23c2.5-.85,3.24-1.94,2.22-3.37-.34-.48-1.08-.93.1-1.36a.9.9,0,0,0,.24-.39c-1.56-1.61-1.77-3.25-.62-5,.37-.56,0-1.27-.19-1.89-.48-1.24-1.54-2.4.49-3.65.68-.42.22-1.47.35-2.23.34-1.07.23-2.07-1.41-2.85-.15-.07-.22-.34-.11-.41,1.86-1.2,1.09-2.8,2.05-4.14.16-.21.42-.51.28-.68-1.8-2.28.62-5-2.25-7.18-.55-.42,0-1,.47-1.52,1.28-1.17,2-2.33.32-3.6-.79-.6-.48-1.31.34-1.75,1.48-.79,1.6-1.76,1.27-2.7a4.43,4.43,0,0,1,.7-3.95,1.69,1.69,0,0,0,.12-2c-.54-.77-.14-1.6.73-2,1.78-.89,1.64-2,1.62-3.07a9.09,9.09,0,0,1,.51-3.37,1.41,1.41,0,0,0,0-.29h-1a1.34,1.34,0,0,0-.91.41,1.69,1.69,0,0,0-.08,1.56c-.12,1.58,1,3.34-2.21,4.45-.5.17-.76.53-.43.9,0,.44-.11.89.44,1.27.34.23.65.47.1.75-2.58,1.33-1.81,3.08-1.81,4.71,0,.76.35,1.52-.62,2.19a1.58,1.58,0,0,0-.52,2.19c.86,1.2.17,2.37.58,3.53s-.11,1.22-1.88,1.1c-1.5-.11-.82.59-.85,1s1.45.69.29,1.06-1.43-.33-2-.66a5.41,5.41,0,0,0-1.38-.54C25.84,30,23,30.93,23,32.05c0,.7,0,1.13,1.36,1.24s1.76.51,1.26,1.23c-.31.44-.38.87.49,1.15C29.1,36.61,26.63,37.42,26,38.27Z"/><path id="_Tracciato_64" data-name="&lt;Tracciato&gt;" class="cls-43" d="M14,73.14a4,4,0,0,1,2.15,0c-4.91-2.19-4.92-4.73-3.46-7.51.25-.48-.28-1.1-.54-1.64A1.53,1.53,0,0,1,13,62c1.36-.71,1.39-1.6.93-2.26-1.19-1.7-1.56-3.53-3.38-5.16-1.17-1.05-.76-2.66-1-4,0-.2.54-.09.84-.13,1.42-.17,3.27-.25,1.53-1.48-.46-.33,0-.51.31-.74,1.8-1.42,1.77-2.43-.07-3.79-1.09-.82.67-3.87,2.43-4.21a1.81,1.81,0,0,1,.68,0c.55.87,1.75.64,2.4.26s-.11-1-.51-1.43a5.4,5.4,0,0,0-.56-.48c-1.68-1-1.38-2.31-1.76-3.49-.19-.57-.18-1-1.29-1.21s-.91-.79-1-1.21c-.14-.67.84-.2,1.29-.27,1.09-.17,1.47-.66,1.08-1.13-1.26-1.49-2.69-2.94-4-4.41.17.42.35.85.5,1.27.51,1.44,2.15,2.81.17,4.36-1,.8.43,1.7,1,2.44a7.21,7.21,0,0,1,1.28,3.48c.16.72-.38,1.08-1.5,1a4.84,4.84,0,0,0-3.55,1.2.8.8,0,0,0-.71,0c-1.41,1.39-.24,2.74.19,4.11,0,.83,1.86,1.4,1.08,2.36a4.5,4.5,0,0,0-.82,1.38,4.87,4.87,0,0,0-.62,5.9c.07.14.19.3.12.43-1.35,2.4,1.26,4.3,2.59,6.35a1.72,1.72,0,0,1,.28,1.57c-.43,0,.77,1.05-.78.38a2.09,2.09,0,0,0-1.68,0c-.46.24-.25.56,0,.8,1.69,1.55,1.43,3.31,1.68,5,.16,1,.8,2.11-.66,3-.27.17-.32.43-.68.6-1.94,1-2.18,1.45-.67,2.47,1,.65.68,1,0,1.6C6.37,78.18,7.18,80,9.8,80.86c1.13.39,2.12.46,2.68-.39L12,79.88c-1.06-1,.23-1.25,1.56-1.46a14.13,14.13,0,0,1-1.4-1c-.43-.4-1-.83-.31-1.33a2.09,2.09,0,0,1,2-.36c.61.16,1.32.06,1.51-.3a4.54,4.54,0,0,0,.27-1.46l-1,.09c-.51,0-1,.17-1.68.12C13,73.69,13.51,73.42,14,73.14Z"/><path id="_Tracciato_65" data-name="&lt;Tracciato&gt;" class="cls-31" d="M31.13,12.18a2.11,2.11,0,0,1,1.51-.92,1.79,1.79,0,0,0,1.46-.76,4.19,4.19,0,0,0,.15-3.59,2.13,2.13,0,0,0-1.94,1.41,6.29,6.29,0,0,1-.63,1.41A1.73,1.73,0,0,1,29,10.1c-2-1.69-4.18-2.4-7.88-1.52C19,9.08,18,7.55,16.46,7s-1.7-.62-2.48.52A2,2,0,0,1,15.49,8.8c.24.58-.46,1.45,1.75,1.3a.64.64,0,0,1,.26,1.22c-2,.91-1.08,2.61-3.24,3.44-.43.17.17.43.25.65.41,1.18,1.69,2.34-.71,3.43-.86.39-1.36,1.28.16,2.05.1-1.64,2.88-.87,4.15-1.61s3.29-1,2.28-2.35c-.14-.19.13-.39.5-.44a.82.82,0,0,1,.79.29c.91.9,2.21,1.79-.11,2.93,2.58-.1,3.11-1.21,2.64-1.73-.87-1-.11-1.9-.58-2.77a39,39,0,0,0-2.35-3.71c-.21-.31-.82-.6-.2-.9s1,.19,1.43.29c2.2.46,2.27,1.7,3.22,2.61.61.59-.5.91-1.05,1.4,1.89-.06,3.39-.78,5.27-.67.28,0,.7-.91.29-1.33C29.52,12.18,30.88,12.43,31.13,12.18Z"/><path id="_Tracciato_66" data-name="&lt;Tracciato&gt;" class="cls-8" d="M21.88,36.67A1.16,1.16,0,0,0,23,37.73c1.06.07,1-.56.78-1s.37-.58.74-.82c.56-.36.41-.71-.11-1a1.63,1.63,0,0,0-1.3-.34.9.9,0,0,0-.79.85A9.78,9.78,0,0,1,21.88,36.67Z"/><path id="_Tracciato_67" data-name="&lt;Tracciato&gt;" class="cls-44" d="M24.48,144.34c-1,.08-2.19.56-3.05,0-.66-.46.13-1,.45-1.43,1.72-.85.52-2,.8-3,.23-.82-2.14-1-3.65-.37,0-.6-.32-1.21-1.51-1.32-1-.09-1.26.56-1.8,1,0-.5.8-1.27-.43-1.29s-2.63-.94-3.41,0c-1,1.19-2.89,1.68-4.55,2.38A9.85,9.85,0,0,0,5,146.09,22.93,22.93,0,0,1,1.12,157v1.17l.51.3c2.31.29,2.76.07,2.22-1.08-.44-1-.38-1.83,1.24-2.44.6-.23,1.25-.48,1-.92-.77-1.53.64-3,.57-4.46,0-.24,0-.59.44-.62,3.34-.2,1.9-1.58,2.15-2.66a19.09,19.09,0,0,0,2.14.62c1.13.42,1.74.95,1,1.72a3,3,0,0,0-.77,1.08c-.15.45-.78,1,.39,1.26a2,2,0,0,0,2-.65,15.57,15.57,0,0,1,4.22-3.11c0,.36-1.06.78-.5,1,1.44.55,1.08,1.7,2.11,2.15,2,.84,2.49,2,3.41,3.16l.29.36a1.74,1.74,0,0,1,.34.94.94.94,0,0,0,.58.71l.75,1,1.87-1.26a.72.72,0,0,0,.49-.88c-.69,0-1.08.8-2,.31a1,1,0,0,1-.55-1.22c.49-1.62.7-3.23-1.29-4.64-.42-.3-.43-.65.07-.93C25.82,146.75,25.09,145.54,24.48,144.34Z"/><path id="_Tracciato_68" data-name="&lt;Tracciato&gt;" class="cls-35" d="M24,153.71c-1.08-1.23-.67-2.94-3.76-3.54-.64-.12-.34-.71-.41-1.09s.91-1.15-1-.59c-.29.08-1-.26-.45-.73s1.26-1,.24-1.55a66,66,0,0,0-6.37,4.62c-.42-.83.08-1.46.59-2,1-1.11.6-2.07-1.48-2.37-1.23-.18-1.91-.46-2.39-1.33-.88,1-.14,1.78-.26,2.53-.08.5.62,1.19-1.29.7-.81-.21-1.94.28-1.54.8,1,1.34-1.28,2.42-.6,3.69.57,1.05-.06,1.79-1.74,2.41-1.33.49,0,1.64-1.28,2.25a.61.61,0,0,0,.26.21c.37.11,1.52-.54,1.1.33-.29.6-1.27.35-2,.41l.51.29c.47.33.73.85,1.75.69a1,1,0,0,0,1-1c.27-1.72,2-3.13,3.05-4.69a2.81,2.81,0,0,1,2.47-.84c1.44.05,1.19.69,1.11,1.21-.11.72.44,1.19,1.44,1.59,1.28.52,2.2.5,2.78-.4s1-1.73,3.25-1.68c.85,0,1.36-.7,2.23-1C22.35,152.8,22.12,154.16,24,153.71Z"/><path id="_Tracciato_69" data-name="&lt;Tracciato&gt;" class="cls-45" d="M20.34,165.44a8,8,0,0,1,2.18-.7c1.9-.08,1.72-.84,1.37-1.38-.79-1.24.08-2.21,1.11-3.2-.06-1,.75-1.95,1.05-2.93-.83.24-3.64-.18-1,1.14-1,.23-2.38-.88-2.69.37-.13.54-.65.26-1.07.12a1.85,1.85,0,0,0-1.63.2,3.67,3.67,0,0,1-3.93,1.24c-.84-.15-.09.59-.12.93s-.25.67-1,.75c-.44.05-.48-.16-.59-.35-.82-1.33-2-1.56-4.28-.78-.57.19-1.07.44-1.71.6-1,.26-2.77.14-2.75,1.05a3,3,0,0,0,2,2.56c1.81.43,2.49,1.41,4.08,1.84a.71.71,0,0,1,.62.59c.2-.08.56-.15.59-.25.27-.87-1.91-.72-2-1.63s-.42-1-2.55-1c.08-.33.28-.67.2-1s0-.54.57-.69a1.43,1.43,0,0,1,1.27.28,7,7,0,0,0,6.21.08c1.4-.64,2.2.19,3.24.37s1.34.57.6,1.12C19.86,165.05,19.88,165.27,20.34,165.44Z"/><path id="_Tracciato_70" data-name="&lt;Tracciato&gt;" class="cls-46" d="M24,153.71a1.78,1.78,0,0,1-.49-.06c-1.26-1.32-2.58-2.2-4.47-.28a.76.76,0,0,1-.4.15c-3-1-2.33.9-3.37,1.42-.41.2-.09,1-.84.84s-2.23-.4-2.36-1.19a.79.79,0,0,1,0-.43c.34-.73.71-1.52-1.15-1.69-2.2-.21-3.51.44-3.75,1.67,0,.15,0,.37-.11.41-2.56.88-2.09,2.46-2.61,3.76s-1.2.87-2.3.4c.14.58-.47,1.51,1.12,1.53,1.39,0,2.53-.63,2.41-1.56,0-.37-.12-.72.49-.88,1.6-.4.69-1,.32-1.93,2.32.83,5,0,6.73,1.24.62.41.88.14,1.4-.09a8.66,8.66,0,0,1,4.92,0c.79.28.95-.17.95-.38s-.38-.51-.54-.77c-.28-.46-.06-.85.57-1.19.79-.41,1.25,0,1.76.22a4,4,0,0,0,2.22.6v-.88C23.89,154.38,24.2,154,24,153.71Z"/><path id="_Tracciato_71" data-name="&lt;Tracciato&gt;" class="cls-47" d="M30.65,57.31a2.81,2.81,0,0,1,0,.29c-.54.42-.15.7.44.95A1.7,1.7,0,0,0,32.59,58a3.18,3.18,0,0,1,1.69-1.61h0a2.42,2.42,0,0,1-.58-1.63A2.87,2.87,0,0,0,33,52.12a2.87,2.87,0,0,1-.36-3A21.74,21.74,0,0,0,33.21,44a2.06,2.06,0,0,1,.87-1.78c.39-.29.8-.77.64-1.07-1.28-2.35.25-4.73-.49-7.18s-1.14-5.12,1.33-7.58c1.34-1.34,0-2.71-1.3-3.94a11.24,11.24,0,0,0-1.16,9.34c.35,1.1-1.12,2.28-.27,3.29a2.77,2.77,0,0,1,.34,3.06c-.71,2,.12,4.08-1.49,6-1,1.2-.1,2.71-2,3.79-.31.18-.14.58.06.85A4.1,4.1,0,0,1,30,53.59a1.77,1.77,0,0,0,.59,2.64C31,56.54,31.12,56.94,30.65,57.31Z"/><path id="_Tracciato_72" data-name="&lt;Tracciato&gt;" class="cls-47" d="M37.36,11.6c-.12-.37.12-1.14-1.12-.61s-2.9,1.24-2.19,2.53c.46.83-.06,1.68-.27,2.54a12.52,12.52,0,0,0-.35,6.1c0,.11.54.19.83.28,1.42-1.36-.08-2.8.36-4.23.49-1.62,1.12-3.31.56-5C34.91,12.35,36.42,12,37.36,11.6Z"/><path id="_Tracciato_73" data-name="&lt;Tracciato&gt;" class="cls-48" d="M30.65,57.31c.73-.34.74-.86.38-1.19-1.23-1.14-.56-2.24,0-3.33a3.26,3.26,0,0,0-.6-4c-.3-.31-.5-.73-.08-1,2-1.07,1.19-2.43,1.35-3.69l-.52.29c-.36.58-2.33,1-.66,1.8.29.14,0,.52-.35.64-2.3.76-1.33,1.67-.77,2.75a3.58,3.58,0,0,1,0,3.61c-.59,1.08-1.35,2.58,1.13,3.54C30.68,56.82,30.6,57.12,30.65,57.31Z"/><path id="_Tracciato_74" data-name="&lt;Tracciato&gt;" class="cls-42" d="M5.77,135.56v-.29c-1.1-1.67.18-3.16,1-4.69.47-.78-.2-1.56,0-2.35v-.87c.25-.8.78-1.4,2.53-1.25.5,0,1.07-.06,1.25-.39s-.17-.56-.68-.69-1-.5-.91-.81c.65-1.86-2-3.73.15-5.57-1.28-1.62,1-3.36-.51-5-.26-.29-.61-.84.39-1a1.52,1.52,0,0,1,1.68.71,1.88,1.88,0,0,1,0,1.3c-.24.9.48,1.29,2,1.25s1.92-.52,1.48-1.29.08-1.73.19-2.6c.09-.72-.14-1.32-1.75-1.2-.84.06-1.07-.13-1.14-.53a3.67,3.67,0,0,0-1.33-1.72c-1.13-.55-1-1.7.21-2.56,1-.65,1.69-.08,2.38.19,1.17.44,2.2.75,3.29-.09a2.89,2.89,0,0,1,2.74,0c1.09.43-.09.82-.5,1.19a13.11,13.11,0,0,1-2,1.14c-.7.45-.81,1.07-1.37,1.56s-1,1-.08,1.44a4,4,0,0,0,3.45.5c1.9-.8,2.75.12,4,.57,1.41.52.79,1.11.44,1.79s-.95,1.63,1.54,1.24c1.1-.18.8.36.91.59A5,5,0,0,0,27,118.26a2,2,0,0,0,2.17.29c-.6-1.83-1.17-3.67-1.8-5.49-.13-.4-.43-.73.52-.94,2.2-.49,1.49-1.13.23-1.78-.63-.19-1.71-.08-1.7-.7s1.26-.41,1.69-.76c0-.2,0-.39,0-.58a11.3,11.3,0,0,1,3.11-1.77l.53-.58c.27-.18.33-.37.21-.59a1.29,1.29,0,0,0-1.9.13c.4-1.15-.07-2.2-1.62-2.91-2.21-1-3.15.77-5.13.87A2.7,2.7,0,0,0,22,101.33c.81.19.78,1.07,1.95.78s1.35-.94,1.09-1.51a16.5,16.5,0,0,0-1.33-2.52c-.23-.35-.23-.84.58-.73,1.39.19,2.24-.67,3.65-.4.85.16,1.18-.37,1.16-.76C29,94.06,29,91.94,29,89.81c0-.5-.5-.81-1.24-1a4.21,4.21,0,0,0-1.48-.2c-3.12.19-3.47,0-3.85-1.79a1.39,1.39,0,0,0-.11-1c-.36-.58-.58-1.37-1.79-1.47a3.38,3.38,0,0,0-2.13,1c-.76.52-.77,1.19.07,1.6,1.82.9,1.19,1.8.38,2.76a5,5,0,0,0-.69,1c-.72,1.48-1.33,1.56-3.75.51-.33-.06.16-.3-.05-.15,0,0,0,0,.16.09a2.46,2.46,0,0,0,2.12,0c.68-.37.36-.81,0-1.21-.16-.18-.32-.35-.49-.52-.59-.62-.83-1.52-2.56-1.38s-1.2,1-1.36,1.64a2.47,2.47,0,0,1-.71,1.09c-.17.17-.58.4-.48.5,1.82,1.88-1.76,4,1.16,5.83a2.61,2.61,0,0,1-1.79-.27c-.92-.28-1.72-.11-1.75.4-.08,1.23-1,2.33-.55,3.69.69,2.24,1,4.66-1.69,6.74.51,1.5-.13,3-.37,4.44a2.34,2.34,0,0,1-1,1.45c-1.8,1.35-1.77,2.83.24,4.09a1.72,1.72,0,0,1,1,1.69c-.15,3.57-1.15,7.09-1.68,10.64,0,.57.15,1.13.07,1.7a1.85,1.85,0,0,1-.32.38c-2.19,1.29-1.07,3-1.48,4.44-.18.66,1,1.08,2.31,1C6.64,136.93,6.44,136.27,5.77,135.56Z"/><path id="_Tracciato_75" data-name="&lt;Tracciato&gt;" class="cls-49" d="M29.14,118.55c-2.22-.26-2.59-1.29-3.26-2.28-.25-.37.38-2-2.2-.85-.74.32-.84-.44-.64-.75.43-.67,2-1.34.63-2a26.33,26.33,0,0,1-3.06-1.5,1.67,1.67,0,0,0-1.93.28c-1.21.87-2.16.34-3.25-.09-1.49-.58,0-.84.32-1.25s.61-1,.91-1.49c-2.42-1.43-2.67-1.38-4.27.81-.89-.61,1.74-1.72-.8-2-1.32-.14-1.47.62-1.69,1.18-.06.91,1.51,1.61,1,2.62-.12.22.76.71,1.48.18a1.06,1.06,0,0,1,1.23-.23c.48.23.17.52.16.8,0,1-1.17,2,0,3.11.5.45-.37.55-1,.54s-1.7.19-1.52-.59c.12-.53.15-1.06.24-1.59s-.21-1.06-1.49-1.06c-.72,0-1.21-.79-2-.27a.92.92,0,0,0-.11,1.53c1,1.07,0,2.18.3,3.18.53,1.76-1.17,3.37-.49,5.14.23.62,2,1,.85,2-.62.54.54,1.29,1.81,1.67-1.22.59-2.69-.51-3.64.4-.51.5-.37.92.08,1.37.9-.25,1.78-.53,2.71-.74,1.71-.37,2.24-1.13,1-1.78-.7-.36-1.57-.62-.74-1.1a3.09,3.09,0,0,1,2.56-.29c.59.24,1.22.57,1.79.25.75-.4,0-.82-.49-1.11-1-.63-.08-1.19.53-1.34,1.28-.3,1.13.33,1.13.82s.45.54,1.05.32,1-.34,1.48.1.52.8-.1,1.2c-.39.25-.84.53-1,.84s-1,.76.06,1c.86.16.65-.52,1-.64,2.92-1,3.14-2.08.93-3.49-.52-.33.2-.48.77-.44,2.51.2,3.82,1.53,2.86,2.92-.29.41-.88.91-.23,1.22,1.86.89,1,1.51-.33,2.24s-1.16,2-.26,2.51c1.34.73,1,1.5,1.28,2.26s-.14,1.37,1.93,1.22a1.06,1.06,0,0,1,1.16,1.27c-.11.92.54,1.66,1.16,2.44-.14-2.74-.67-5.44-3.56-7.77-1.24-1-1.39-1.66.72-2.31,1.67-.52,1.9-1.55.74-2.23s-.69-1.15-.36-1.67,1.42-.32,2.24-.3c.59,0,1.18,0,1.77-.08C29.08,121.3,30.32,120,29.14,118.55Z"/><path id="_Tracciato_76" data-name="&lt;Tracciato&gt;" class="cls-34" d="M31.72,105.36c0,.2,0,.39,0,.59,1.61-.48.84-1.35,1-2-.84-.61-.33-1.43-1-2.06-2.43-1.13-2.38-1.12-1-2.92a3.7,3.7,0,0,0,.42-3c-.19-1.34.56-2.66.19-4-.56-1.44-1.07-2.86.37-4.25.5-.48.16-.89-.4-1.34-1.44-1.13-1.88-2.39-1.06-3.74.51-1,.64-1.92-1.75-2.2-.84.12-1,.52-1.06.91s-.41.54-1.21.37c-1.4-.3-2.08.26-1.25.76,2.45,1.48,1.61,3.42,2.66,5.09,2,3.15,1.39,6.45,1.09,9.71-.06.7-.58,1.11-1.65,1.5-2.12.78-2.3,2-.4,2.88A15.24,15.24,0,0,1,31.72,105.36Z"/><path id="_Tracciato_77" data-name="&lt;Tracciato&gt;" class="cls-34" d="M28.08,108.88c-1.41-.06-3.22-.39-2.38,1.11.48.85,1.28.91,2.39.35C28.09,109.86,28.09,109.37,28.08,108.88Z"/><path id="_Tracciato_78" data-name="&lt;Tracciato&gt;" class="cls-34" d="M31.2,106.53c-2,0-2.8.77-3.11,1.77C29.19,107.74,31,107.59,31.2,106.53Z"/><path id="_Tracciato_79" data-name="&lt;Tracciato&gt;" class="cls-50" d="M8.3,40.62h.51c-.12-1.13.13-2.09,2.77-2.06.4,0,.93,0,1.1-.24s-.29-.56-.7-.7c-1.3-.46-2.67-.81-.71-1.76.55-.27.05-.92-.36-1.37s-1.07-1-.83-1.17c1.8-1.51.73-3.06.24-4.53a10.83,10.83,0,0,1,0-5.92.77.77,0,0,0-.39-.81c-3-.86-1.59-1.63,0-2.47a.71.71,0,0,0,.33-1.11c-1.85-2.16-.43-4.38-.48-6.57-2.52,1.24-1.58,2.92-1.4,4.39.09.67-.5,1.53.79,2.2.51.26-.25.77-.94,1.06-1.67.68-1.72,1.58-.42,2.36,2,1.19,1.72,2.46.84,3.79a2.81,2.81,0,0,0-.41,1.73c.4.27.68.64.48.95-.91,1.4.19,2.85-.45,4.25a1.92,1.92,0,0,0,.07,1.59,2.35,2.35,0,0,1-.26,2.45,4.25,4.25,0,0,0-.5,3.87A.63.63,0,0,0,8.3,40.62Z"/><path id="_Tracciato_80" data-name="&lt;Tracciato&gt;" class="cls-13" d="M32.34,125.89c.16-.68.31-1.36.47-2-.06-.64-.12-1.29-.21-2.17-2.76,1.67-1.66,3.42-1.9,5.14C31.93,126.79,30.93,125.67,32.34,125.89Z"/><path id="_Tracciato_81" data-name="&lt;Tracciato&gt;" class="cls-13" d="M33.77,68.44l-.52-.88c-1-.47-1-1.28-1.86-1.81-1.38.61-.77,1.31-.18,2,1.94,2.1,1.56,4.33.72,6.49-.7,1.78-1.34,3.49-.18,5.28.6.92-.18,1.81-.69,2.68-1.14,1.38-.18,2.67.61,4,.34.53.72,1,0,1.48-1.25.83-1,1.82-1,2.78s.75,1.47,2.58,1.22c-.82-.88-1.27-1.74.16-2.59a.69.69,0,0,0,.33-.68c-.3-1.36-.67-2.71-1-4.06-.9-.56-.65-1.2-.22-1.77.95-1.25.64-2.69,1.87-3.89.1-.1.11-.34,0-.39C31.68,77,33.21,75.7,34,74.42a3.12,3.12,0,0,0,.32-1.59c.61-.4.74-.94.42-1.35C34,70.5,34.23,69.44,33.77,68.44Z"/><path id="_Tracciato_82" data-name="&lt;Tracciato&gt;" class="cls-51" d="M33.27,91.59c-2.21-.57-3.06-2.07-1.52-3.45a1.76,1.76,0,0,0,.35-2.57c-.59-1.09-1.56-2.19-.39-3.36.06-1,1.13-2-.09-2.93a1,1,0,0,0-1.06.66c-.56.83.4,1.83-.93,2.57-1.23,1.56-.34,3,1.37,4.16.53.37.52.51.21.76-1.79,1.43-1.1,2.94-.53,4.45a3.11,3.11,0,0,0,2.6,1.46c.16-.48-.58-1,0-1.46Z"/><path id="_Tracciato_83" data-name="&lt;Tracciato&gt;" class="cls-17" d="M33.77,68.44c-.33,1.48.62,2.92.53,4.39h.52c1-.62.31-1.37.51-2C33.38,70.3,35,69.06,33.77,68.44Z"/><path id="_Tracciato_84" data-name="&lt;Tracciato&gt;" class="cls-13" d="M34,83.88c0-.22-.2-.37-.57-.39s-.65.14-.61.34-.41.4.2.41A1.11,1.11,0,0,0,34,83.88Z"/><path id="_Tracciato_85" data-name="&lt;Tracciato&gt;" class="cls-52" d="M7.77,40.62c-.33-2.31,2.34-4.46,1.12-6.83a1.51,1.51,0,0,1,.29-1.56c.38-.57.92-1.16-.28-1.69-.73-.33,0-.7.14-1.05.35-.75.8-1.52-.75-2v.29q-.51,2.49-1,5a3.17,3.17,0,0,0-.63,2.82c.24.94-.4,1.88-.58,2.79-.44,2.3-1.74,4.64-.34,7,.94,1.31,0,2.56-.56,3.78-.3.64-.49,1.18,0,1.8,1,1.34.48,2.83,1.54,4.2.79,1-.92,2-1.19,3-.12.44-.57,1,.11,1.22,2.61,1,1.87,2.24,1.18,3.53l.41.06c2.34-.9,3.21-2.4,1.95-3.91a3.66,3.66,0,0,1-.9-3.66,1.21,1.21,0,0,0-.15-1.14c-1.14-1.59-.59-3.23-.29-4.86.24-.46.13-1,.61-1.4.92-.75.73-1.3-.47-1.88-.59-.28-.93-.74-.7-1.19C8,43.5,7.06,42,7.77,40.62Z"/><path id="_Tracciato_86" data-name="&lt;Tracciato&gt;" class="cls-52" d="M5.73,89.26c1.92,1.2,2.53,2.56,1.57,4.11,1.68.08,1.94-.61,2.13-1.29a1.74,1.74,0,0,0-.5-1.84c-1.8-1.56-1.5-3.29-1.71-5a5,5,0,0,1-.8-1.54,3.9,3.9,0,0,1,.07-2.48,3.61,3.61,0,0,0-.41-3.45,1.3,1.3,0,0,1-.24-1.15C6.94,73,8,69.33,7,65.62c-.23-.91.46-1.83-.23-2.73h0c-1.58.54-1.63,1.42-1.55,2.3.12,1.27.41,2.55-.81,3.73-1,1-1.28,1.85.52,2.68.34.16.21.63.29,1v.59c-.56.33-.64.8-1,1.17a4.42,4.42,0,0,0,.06,4c.65,1.77-.11,3.6-.34,5.39-.05.34-.33.65.28.91C5.88,86,5,87.73,5.73,89.26Z"/><path id="_Tracciato_87" data-name="&lt;Tracciato&gt;" class="cls-19" d="M5.7,45.31a30.38,30.38,0,0,0,.66-4.53c-.07-2,1.93-3.8.54-5.79-.44-.64.2-1.51.35-2.27h0a.37.37,0,0,0-.35-.09c-.11,0-.17.06-.17.09-.17.39-.35.78-.52,1.18a11.88,11.88,0,0,1-1.18,5,7.08,7.08,0,0,0,.15,6.47Z"/><path id="_Tracciato_88" data-name="&lt;Tracciato&gt;" class="cls-37" d="M5.73,89.26A6.93,6.93,0,0,1,6,86.81c.48-1-1.43-1.43-1.86-2.23C4,86,5.91,87.25,4.69,88.68c.47.13,0,.77,1,.59Z"/><path id="_Tracciato_89" data-name="&lt;Tracciato&gt;" class="cls-7" d="M5.73,89.27l-1-.59c.68,1-.07,2.32,1.56,3.22Z"/><path id="_Tracciato_90" data-name="&lt;Tracciato&gt;" class="cls-7" d="M4.7,96a2.35,2.35,0,0,0,1-2.35A3,3,0,0,0,4.7,96Z"/><path id="_Tracciato_91" data-name="&lt;Tracciato&gt;" class="cls-10" d="M4.17,74.32a1.54,1.54,0,0,0,1-1.17c-.69.16-1,.46-1,.88Z"/><path id="_Tracciato_92" data-name="&lt;Tracciato&gt;" class="cls-16" d="M6.73,32.71h.52a1.9,1.9,0,0,0-.47-1.42c-.75-.87-.94-1.74,0-2.63.54-.48.87-1-.62-1.22l-.29,0a2.28,2.28,0,0,0-.75.25A6.12,6.12,0,0,0,6.73,32.71Z"/><path id="_Tracciato_93" data-name="&lt;Tracciato&gt;" class="cls-16" d="M4.19,23.92l0,.3,3.09,1.17c0-.89-1.62-1.18-2.19-1.9C4.73,23.09,4.76,23.93,4.19,23.92Z"/><path id="_Tracciato_94" data-name="&lt;Tracciato&gt;" class="cls-16" d="M6.21,27.44c.47-.46,1.25-.85,1-1.47L5.69,27.15c-.14.27,0,.38.52.29Z"/><path id="_Tracciato_95" data-name="&lt;Tracciato&gt;" class="cls-19" d="M6.21,27.44l-.52-.29c-.66.06-1.31.12-.52.58C5.73,27.88,6.23,28,6.21,27.44Z"/><path id="_Tracciato_96" data-name="&lt;Tracciato&gt;" class="cls-53" d="M34.25,5.15l.51-.29c-.19-.72-.68-.32-1.1-.09-3.28,1.72-5.68,1.65-8.22-.3a3,3,0,0,0-3-.36,2.26,2.26,0,0,1-2.38,0,1.78,1.78,0,0,0-1.35-.32c-1.38.29-2.81,1-3.48-.5C15.13,3,14,3,13.62,3.63a2.08,2.08,0,0,1-2.24,1l-1.07.57c.89,0,1.72.06,2.11.6,2,.91,5-.13,7,1.19.58.4,1.35-.14,1.81-.5s1-.62,1.35-.13c.77,1,2.37,1,3.84,1.27.41.06.83.12,1.23.22,3.9,1,5.4.48,6.23-2C33.91,5.6,33.91,5.34,34.25,5.15Z"/><path id="_Tracciato_97" data-name="&lt;Tracciato&gt;" class="cls-19" d="M7.23,10.15c.15.88.88,1.76,0,2.64A2.18,2.18,0,0,0,9.16,11C9.28,10.39,9,9.64,7.23,10.15Z"/><path id="_Tracciato_98" data-name="&lt;Tracciato&gt;" class="cls-19" d="M7.23,12.79a1.7,1.7,0,0,0,0,2.63Z"/><path id="_Tracciato_99" data-name="&lt;Tracciato&gt;" class="cls-54" d="M31.18,79.28c1.06.93.29,2,.53,2.93.76-1.12,1.27-2.15.36-3.43s-.13-2.83.41-4.28c.92-2.43,1.64-4.91-.95-7.23-.53-.47-.66-1,.16-1.47,1.75-.74,1.41-1.95,2.08-2.93h0c.56-.75,1.18-1.5.52-2.34-1.34-1.37.66-2.74,0-4.11-1.86,0-2,.71-2.07,1.47.41.36,0,.72,0,1.08a4.55,4.55,0,0,1-.85,2.33,1.14,1.14,0,0,0-.14.43c.26.84.06,1.53-1,2.29-1.91,1.42-1.62,3.15-.24,4.55,2.16,2.19,2.34,4.29.63,6.52A2.64,2.64,0,0,0,30,76.64a3.42,3.42,0,0,0,.89,2.49Z"/><path id="_Tracciato_100" data-name="&lt;Tracciato&gt;" class="cls-33" d="M28.53,2.52l-1.05-.88A2.67,2.67,0,0,0,27,2.3c-.12.47-.23,1.1.88,1.14S27.4,2.64,28.53,2.52Z"/><path id="_Tracciato_101" data-name="&lt;Tracciato&gt;" class="cls-33" d="M25.93.76a2.78,2.78,0,0,0-2.6,0Z"/><path id="_Tracciato_102" data-name="&lt;Tracciato&gt;" class="cls-17" d="M33.77,62.87,31.69,65.8c-.14.78.21,1.41,1.56,1.76-.87-.86-1.08-1.69,0-2.59C34,64.36,33.78,63.59,33.77,62.87Z"/><path id="_Tracciato_103" data-name="&lt;Tracciato&gt;" class="cls-17" d="M34.29,60.53c.25.81-.49,1.55-.52,2.34C34.92,62.16,35.31,61.39,34.29,60.53Z"/><path id="_Tracciato_104" data-name="&lt;Tracciato&gt;" class="cls-55" d="M31.72,101.84c.19.71-.58,1.58,1,2.06v-1.47Z"/><path id="_Tracciato_105" data-name="&lt;Tracciato&gt;" class="cls-55" d="M33.28,93.34l-2.6-1.46q0,3.23,0,6.44c0,.51-.8.7-1.21,1.05-1.18,1-.12,2.13,2.27,2.47-1.4-1.06-1.65-2.16-.39-3.34a1.47,1.47,0,0,0,.36-1.56c-.29-1.1.51-1.86,2.1-2.42C33,94.21,33.36,93.75,33.28,93.34Z"/><path id="_Tracciato_106" data-name="&lt;Tracciato&gt;" class="cls-36" d="M34.25,5.15c-1.42.63-.87,1.85-2.42,2.49-1,.45-1.75.9-2.94.11-.74-.48-2-.44-3.09-.62S23.36,7,23.15,5.9c-.14-.69-1.53-.65-2.28-.06-.37.29-.15.79-1,1-.69-1-3.08-1.38-4.89-.81-.24.08-.39.17-.62.07s-.26-.16-.25-.24a4.44,4.44,0,0,1,.19-.71c-.93,0-1.16.56-1.91.65.25.31.49.58.23,1-.52.73.38.8,1.33.8.65-.47,1.19-1.34,2.14-.09.52.69,3,.54,2.46,1.75,1.17-.59,2.75.45,3.88-.32.87-.61,4-.49,4.37.24s1.06.94,1.82,1.32c1.74.87,3.08.7,3.73-.61.49-1,.49-2.08,1.87-2.89Z"/><path id="_Tracciato_107" data-name="&lt;Tracciato&gt;" class="cls-56" d="M7.33,140.25c1.95-.31,4.28-.32,4.55-1.94,0-.1,1-1.28,1.75,0,.51.88,1.19-1,1.91-.05.46.58-1.37.64-.92,1.16a3,3,0,0,0,1.31.42c.41.08.62-.11.58-.33-.11-.52,0-1.11,1.06-1.09.84,0,.66.71,1,1.08.2.21.19.47.36.92a2,2,0,0,1,2.85-.89,1.58,1.58,0,0,1,.69.57c-1.64.83.85,1.94-.6,2.77,2.16-.08.78-1,1-1.46a3.11,3.11,0,0,0,1.56-1.18c0-.52-.35-1,.64-1.47,1.81-.86,1.07-3.24-1.09-3.83a1.23,1.23,0,0,0-1.5.55c-.26.31-.4.72-1.1.71-1,0-.57-.61-.8-.92-.6-.82-.3-1.66.56-2.35s1-1.38-.21-1.77.88-1.54-1.24-1.59c-1.89,0-1,1.18-1.89,1.44-1.14.33-1.71.53-.89,1.26.25.22-.44.34-.85.4-2.69.4-3.43,1.41-2.84,2.84.13.31.64.75-.35.79-.73,0-.5-.61-.71-.72-2.31-1.27.91-2.51,0-3.76-.21-.29.1-.75-.78-.73-.6,0-.75.36-.69.66.28,1.32-1.34,2.11-2.69,2.94-.64.39-1.09.54-.41,1.14,1,.93.55,2.05.58,3.1,0,.25-.15.34-.57.35C5.08,139.37,7.5,139.93,7.33,140.25Z"/><path id="_Tracciato_108" data-name="&lt;Tracciato&gt;" class="cls-8" d="M4.73,137.32c-1.23-.54-2.3-1.1-.89-2,.51-.33,0-.64-.17-1-.66-1,.7-1.73,1.06-2.6a.45.45,0,0,0-.35-.07c-.12,0-.17,0-.17.07-2.19.85-2.38,2.07-2.1,3.41a7.58,7.58,0,0,1,0,1.58c1.24,1,1.7,2,1,3.22-1.62,2.92.52,6-1.19,9-1.06-.08-.78-.62-1.37-.76-.73,1.13,1.74,2.09.53,3.24,1.59.48.81,1.34,1,2,.11-.07.33-.16.32-.22-.82-3.25,2.55-6.39.84-9.66-.22-.42.35-.73.48-1.1.39-1.14,2.22-2.12,1.06-3.44-.28-.31.35-.49.92-.53C7.24,137.59,5.29,137.65,4.73,137.32Z"/><path id="_Tracciato_109" data-name="&lt;Tracciato&gt;" class="cls-49" d="M6.8,130.58c-1.85,1-2.48,3.83-1,4.69C6.11,133.7,6.46,132.14,6.8,130.58Z"/><path id="_Tracciato_110" data-name="&lt;Tracciato&gt;" class="cls-49" d="M4.73,137.32c-.39.6,1.85.45,1,1.17,1.5-.54,1.5-1.94,0-2.93C5.67,136.19,6.17,136.94,4.73,137.32Z"/><path id="_Tracciato_111" data-name="&lt;Tracciato&gt;" class="cls-44" d="M24.48,140.23c-.84.26-1.52.59-1.56,1.18.65.08,1.06.72,2,.2C26,141,24.76,140.68,24.48,140.23Z"/><path id="_Tracciato_112" data-name="&lt;Tracciato&gt;" class="cls-49" d="M6.8,128.23c-1.12.79,0,1.57,0,2.35A1.44,1.44,0,0,0,6.8,128.23Z"/><path id="_Tracciato_113" data-name="&lt;Tracciato&gt;" class="cls-21" d="M6.77,85.16a8.9,8.9,0,0,1-.11,2.31c-.2.72-.06,1.24.85,1.82,1.91,1.22,1.7,3.13-.21,4.08-1,1.54-.93,3.18-1.37,4.74-.49,1.78.3,3.45-.06,5.15-.06.29-.25.61-.1.86,1.2,2-1,3.68-1.82,5.5a30.28,30.28,0,0,0-1.31,5.14c.29.74.83,1.45.16,2.24-.46.53.08,1,.58,1.48,1.36,1.23,1.2,2.43-.22,3.61.15,1.12-.6,2.35,1.27,3.29.5.25.15.61-.18.93a3.52,3.52,0,0,0-1.09,2.81h0c1.87,0,2.36-.75,2.29-1.56a24.16,24.16,0,0,1,.78-7.82,1.59,1.59,0,0,0-.55-1.69,4.21,4.21,0,0,1-1.16-5.57c.83-1.76,2.18-3.44,2.41-5.28A2.15,2.15,0,0,0,8,104.51a20.41,20.41,0,0,1,.23-9.85A1.26,1.26,0,0,1,8.75,94c2.9-2.08,1.8-4.19.19-6.31C7.42,87.05,8.4,86,7.49,85.21A.9.9,0,0,0,6.77,85.16Z"/><path id="_Tracciato_114" data-name="&lt;Tracciato&gt;" class="cls-21" d="M3.17,140c.74-1.19,1.3-2.36-1-3.22-.07,1.08,2,2.06.52,3.22Z"/><path id="_Tracciato_115" data-name="&lt;Tracciato&gt;" class="cls-57" d="M6.79,107.14c-1,2.27-3,4.36-3.41,6.74a4.27,4.27,0,0,0,1,3.23,4.42,4.42,0,0,1,.28,5.79c-1,1.39.77,2.58.61,3.93-.12,1-.52,1.79-2.15,2.29l1,2.63h.52c.73-.53-.51-1.25.51-1.76.81-2.52.57-5.1,1.72-7.65.53-1.17-.19-2.74.18-4.15.08-.28-.49-.56-1-.79-2.36-1.06-2.58-2.69-.43-3.87.64-.35,1-.71,1-1.11,0-1.66,1.42-3.32.11-5C7,107.33,7,107.23,6.79,107.14Z"/><path id="_Tracciato_116" data-name="&lt;Tracciato&gt;" class="cls-8" d="M6.79,107.14v.29c.8-.23,1.43-.56,1.58-1.09.58-2.07,1.3-4.16.16-6.24-.27-.51-.54-.9.19-1.32,1-.56.28-1.27.36-1.83a1.06,1.06,0,0,1,1,0c.91.27,1.72,1.15,2.85.53s-.84-.88-1-1.31c-.24-.89-.81-1.85.19-2.75.35-.31,1.22-.82.65-1-2.46-.74-.67-1.52-.28-2.29.19-.36.73-.82.51-1.07-.43-.51-.52-.84.54-1a1.3,1.3,0,0,1,1.48.63,4.53,4.53,0,0,1,.34.55c.17.53,1.86.93.85,1.5-1.21.68-1.69-.52-3.47-.64,1.74.49.05,1.52,1.73,1.66,1.21.1,2.48.82,3.78.07.22-.12.89-.15.71-.32-1.17-1.12.76-1.84,1.07-2.76s1.18-1.42-.91-2c-1.08-.27-1.35-1.21.12-1.64.68-.2.53-.57,1.11-.79,1,.75,1.7,1.5,1.44,2.46a2.31,2.31,0,0,0,2.25.67c2.3-.47,3.12.27,3.47,1.38,1.23.53,1,1.27.77,2-.51,1.92.39,3.84.12,5.84-.92,0-2.22-1.57-2.46.17,0,.23-.71.15-1.13,0-.6-.13-1.21-.47-1.81,0s-.25.77-.05,1.22c.55,1.22,2.45,2.39.88,3.77-.58,0-.81-.2-.7-.4.31-.55-.3-.82-1-1a1,1,0,0,0-1.09.2c-.43.48.24.81.62,1.17s1.16.48.89.83-1,.82.25,1.15,1.59-.43,2.45-.56,1.1-1.23,2.43-.65c1.14.5,1.94,1.21,1.79,2.1-.05.32-.66.68.08.91s.63-.4,1.12-.43a6.52,6.52,0,0,1,1,.1c.11-1.94-2.59-2.88-4.58-4.06-.5-.29-1.71-.48-1.18-.92s.05-1.5,1.93-1.47c1.23,0,1.84-.55,1.6-1.06-.33-.71.27-1.34.15-2-.59-3.18,0-6.4-1.86-9.54-.86-1.47.09-3.28-3-4.4,1.56-.08,2,.7,3.09.62.58-.66-.39-1.47.69-2.07.28-.17.32-.35.19-.56-.58-.49-1.57-.06-2.26-.32-4.3,2.12-4.68-1.26-6.84-1.51-2.51.84-4,2.39-7.19,2.4-2.33,1-3.22-.28-4.15-1C7.14,78.6,7.76,77,9.46,76.42c1.19-.41,1-.64.11-1s-1.92-.85-1.77-1.66c.06-.31-.23-.73.78-.71,1.2,0,1.12-.42,1.55-.93,1.68-2,.52-3.76,0-5.69-.29-1.08.5-2.23-1.84-3,1.59-.51,1.93.37,2.84.39.52-.28.21-.63.3-1-3.23-.78-4.8-.13-4.57,1.78A25.91,25.91,0,0,1,6.77,73c-.44,2.2-1,4.51.08,6.64.68,1.38.07,2.91,1.68,4.15.44.34.31.67-.16,1.06-1.18,1-1.25,2,0,3,1.4,2.09,2.79,4.12-.44,6.2-1.42.91-.75,2.34-1,3.52a19.16,19.16,0,0,0,0,6.41C7.07,105,8.41,106.07,6.79,107.14Z"/><path id="_Tracciato_117" data-name="&lt;Tracciato&gt;" class="cls-34" d="M26.51,79.58c.36.86,1.45,0,2.07.29.58-.75.06-1.53.18-2.3a1.89,1.89,0,0,1,.49-1.27c2.89-2.51,1.4-4.87-.59-7.23a1.26,1.26,0,0,1-.24-1.27,21.28,21.28,0,0,1,3-6.68c.59-.85.89-1.8-.26-2.64l-.53-.88c-1.3-.35-2.09-.1-1.19.6,2,1.59,1.19,2.85-.88,4.09-.18,1.16-2,1.85-2.58,3a1.64,1.64,0,0,0,.1,2c.58.76,1.15,1.62.56,2.52-.24.37-.4.86.18,1.11,1.85.81,1.36,1.8.79,2.78-.68,1.16-.1,2.56-2.19,3.47-.91.39.16.75.44,1.12S27.76,78.92,26.51,79.58Z"/><path id="_Tracciato_118" data-name="&lt;Tracciato&gt;" class="cls-8" d="M13.52,78.42c-1-.11-2.31-.49-2.92.27-.49.6.57.91,1.36,1.19a6.17,6.17,0,0,0,2.44-1C15.34,78.11,13.88,78.55,13.52,78.42Z"/><path id="_Tracciato_119" data-name="&lt;Tracciato&gt;" class="cls-8" d="M14,73.14c-1.33-.12-1.58.53-2.1,1-.19.15-.24.41.21.46A2.64,2.64,0,0,0,14.55,74Z"/><path id="_Tracciato_120" data-name="&lt;Tracciato&gt;" class="cls-58" d="M8.33,87.8c-.47-1.08-1.24-2.13,1-3,1.24-.47,0-1.06-.39-1.52-.58-.65-1.43-1.21-.39-2,.21-.15.27-.55.07-.67-2.31-1.39-.76-3.05-1.21-4.52-.89-2.86,1.25-5.6.12-8.44-.49-1.24-.12-2.66-.09-4s2.57-.59,4-.81c.4-.44.89-1,.28-1.37-1.64-1.05-1.19-2.59-2.86-3.62-.31-.2-.55-.55-.49-.8.5-2.17-.52-4.3-.49-6.44,0-.71,1-1.42,1.47-2.13-1.26-.43-1.5.27-2.08.59-.23,1.76-1,3.51.3,5.26.37.51.21,1.14.22,1.72a6.73,6.73,0,0,0,1,3.53c.69,1.12.11,2.46-2,3.26a5.48,5.48,0,0,0-.17,4.33A3.92,3.92,0,0,1,6.66,70c-.72,1.71,0,3.54-1,5.15s-.17,2.77.46,4.16a2.81,2.81,0,0,1-.4,2.28A3.31,3.31,0,0,0,5.73,84c1,.19,1.7.5,1.56,1.17C7.62,86,6.44,87.11,8.33,87.8Z"/><path id="_Tracciato_121" data-name="&lt;Tracciato&gt;" class="cls-59" d="M7.26,49.12c.72-.16,1.17-.63,2.08-.59.17-.48.35-1,.52-1.46.21-.78-1.51-1.24-1-2,0-1.48-1.37-2.89-.52-4.4H7.77c-1.08,2.07-2.25,4.14.39,6.12.3.22.61.42.13.57C6.9,47.75,7.75,48.55,7.26,49.12Z"/><path id="_Tracciato_122" data-name="&lt;Tracciato&gt;" class="cls-58" d="M8.82,45c-1.27.94.43,1.41,1,2,.56-.17,1.06-.33.47-.76S9.32,45.45,8.82,45Z"/><path id="_Tracciato_123" data-name="&lt;Tracciato&gt;" class="cls-35" d="M24,153.71c-.29.38-.84.81.51.88C24.47,154.27,24.57,153.92,24,153.71Z"/><path id="_Tracciato_124" data-name="&lt;Tracciato&gt;" class="cls-55" d="M31.17,58.48c.29,2.09-.81,4-2.68,5.77a.72.72,0,0,0-.11,1.09,1,1,0,0,1,0,1.28c-1.22,1.38,0,2.5.61,3.82.66,1.51,2.85,3.14.23,5-1.69,1.19-1.63,2.92-.6,4.46v.59c1.57.48,1.7,1.2,1.05,2.05,1.64-.55.83-1.61,1.55-2.35-1.43-1.84-1.67-3.57,0-5.55s1.3-4.21-1.41-6.27c-1.21-.92-1-2.67.16-3.82a7.19,7.19,0,0,0,1.78-3.11,23.21,23.21,0,0,0,1-2.64c.41-.4.32-.71-.51-.88A1.68,1.68,0,0,1,31.17,58.48Z"/><path id="_Tracciato_125" data-name="&lt;Tracciato&gt;" class="cls-49" d="M9.9,108.6c.49-.13.88-.31,1-.62s.57-.42,1.09-.21.36.41,0,.61-.67.22-.74.38c-.3.6.33,1.07,1.14,1.31s1-.37,1-.58c-.31-2,1.4-1.49,3.25-.89a4.47,4.47,0,0,0,1.79-.8c.67-.59,2.24-1.1,1.56-1.83s-2.62-.12-3.67-.75a.58.58,0,0,0-.67.31c-.42,1.47-1.47.84-2.7.31-2.46-1-2.48-1-3.66.69a5.11,5.11,0,0,1-1,1c-.35.3-.67.58-.31.93C8.55,109,9.28,108.56,9.9,108.6Z"/><path id="_Tracciato_126" data-name="&lt;Tracciato&gt;" class="cls-60" d="M27.56,89c.69-.46.91-1.17,0-1.32-1.08-.17-1.79-1.46-3.35-.48-1,.66-1.52-.36-2.38-.25.09,1.91,1.38,2.49,4.25,2A6.27,6.27,0,0,1,27.56,89Z"/><path id="_Tracciato_127" data-name="&lt;Tracciato&gt;" class="cls-8" d="M5.24,130c-1.78.44-.2,1.19-.51,1.76C5.67,131.24,5.08,130.58,5.24,130Z"/><path id="_Tracciato_128" data-name="&lt;Tracciato&gt;" class="cls-42" d="M17.39,121.13c-.2-.44-1.78-.91.16-1.13.93-.11,1.53-.62,1.12-1-1.14-1-.12-1.85.07-2.77.07-.32-.12-.78.65-.85,2-.19.93-.7.51-1.2-.29-.34-.28-.82-1.2-.82-.72,0-.78.47-1.2.68-3.67,1.88-2.79,4.15-1.83,6.43C15.85,120.92,16.25,121.19,17.39,121.13Z"/><path id="_Tracciato_129" data-name="&lt;Tracciato&gt;" class="cls-42" d="M9.44,114a.35.35,0,0,0,.5.19.4.4,0,0,0,.27-.33c0-.06-.32-.11-.49-.17Z"/><path id="_Tracciato_130" data-name="&lt;Tracciato&gt;" class="cls-47" d="M31.69,61.41c-1,1.66-3,3.14-2.6,5,.11.51-.36.94-.72,1.38-.23.27-.36.53.09.8,4.08,2.37,4.4,3.83,1.52,6.84-1.52,1.58-1,3.56,1.2,4.7v-.88c-.36-.86-1.68-1.67-.52-2.63a1.9,1.9,0,0,1,.41-1.26c2-2.41,2-4.7-.62-7.06-1.26-1.14-1.49-2.82.1-3.91S32.21,62.52,31.69,61.41Z"/><path id="_Tracciato_131" data-name="&lt;Tracciato&gt;" class="cls-8" d="M7.29,85.16c.6-.3,1.09-.6.43-1.07a2.09,2.09,0,0,0-2-.1,1.56,1.56,0,0,0,1,1.17Z"/><path id="_Tracciato_132" data-name="&lt;Tracciato&gt;" class="cls-51" d="M30.66,76.65c-2,1-.31,1.8.52,2.63C31,78.4,30.84,77.53,30.66,76.65Z"/><path id="_Tracciato_133" data-name="&lt;Tracciato&gt;" class="cls-47" d="M32.72,58.77a3.16,3.16,0,0,0-1,2.64A2.53,2.53,0,0,0,32.72,58.77Z"/><path id="_Tracciato_134" data-name="&lt;Tracciato&gt;" class="cls-36" d="M25.05,137.86a2.73,2.73,0,0,0-2.55.83A4.08,4.08,0,0,0,25.05,137.86Z"/><path id="_Tracciato_135" data-name="&lt;Tracciato&gt;" class="cls-42" d="M16.22,88.94a1,1,0,0,0,1.06.5c.62-.07,1.14-.33,1.19-.68s-.61-.37-1.1-.37C16.72,88.38,16.16,88.47,16.22,88.94Z"/></g></g></g></g></svg>