<svg xmlns="http://www.w3.org/2000/svg" viewBox="0 0 52.61 263.77"><defs><style>.cls-1{fill:#005d81;}.cls-2{fill:#006486;}.cls-3{fill:#246e8e;}.cls-4{fill:#0e3b5f;}.cls-5{fill:#387896;}.cls-6{fill:#044064;}.cls-7{fill:#00486e;}.cls-8{fill:#5c8da6;}.cls-9{fill:#0f3b5f;}.cls-10{fill:#00476e;}.cls-11{fill:#13698a;}.cls-12{fill:#063f63;}.cls-13{fill:#3d7b98;}.cls-14{fill:#256f8f;}.cls-15{fill:#004e75;}.cls-16{fill:#004369;}.cls-17{fill:#00577e;}.cls-18{fill:#004f76;}.cls-19{fill:#073f64;}.cls-20{fill:#005e83;}.cls-21{fill:#0c3c60;}.cls-22{fill:#004267;}.cls-23{fill:#093d62;}.cls-24{fill:#004970;}.cls-25{fill:#083d61;}.cls-26{fill:#006084;}.cls-27{fill:#0c6688;}.cls-28{fill:#337694;}.cls-29{fill:#236e8f;}.cls-30{fill:#00446a;}.cls-31{fill:#014166;}.cls-32{fill:#005178;}.cls-33{fill:#0b3d61;}.cls-34{fill:#073e62;}.cls-35{fill:#005b80;}.cls-36{fill:#4b839f;}.cls-37{fill:#005278;}.cls-38{fill:#004d75;}.cls-39{fill:#00547b;}.cls-40{fill:#0f3a5d;}.cls-41{fill:#004368;}.cls-42{fill:#206c8d;}.cls-43{fill:#006387;}.cls-44{fill:#005179;}.cls-45{fill:#131b31;}.cls-46{fill:#005d82;}.cls-47{fill:#2c7191;}.cls-48{fill:#00587e;}.cls-49{fill:#327493;}.cls-50{fill:#00557c;}.cls-51{fill:#152a45;}.cls-52{fill:#005f82;}.cls-53{fill:#0a3d60;}.cls-54{fill:#7ba2b7;}.cls-55{fill:#00577d;}.cls-56{fill:#6491aa;}.cls-57{fill:#c1d3dc;}.cls-58{fill:#377695;}.cls-59{fill:#00537a;}.cls-60{fill:#c9d8e0;}.cls-61{fill:#6291a9;}.cls-62{fill:#096587;}.cls-63{fill:#00456b;}.cls-64{fill:#00476d;}.cls-65{fill:#00547a;}.cls-66{fill:#004469;}.cls-67{fill:#5288a2;}.cls-68{fill:#8eb0c1;}.cls-69{fill:#7aa0b4;}.cls-70{fill:#00486f;}.cls-71{fill:#dfe9ee;}.cls-72{fill:#056488;}.cls-73{fill:#588ca5;}.cls-74{fill:#00527a;}.cls-75{fill:#78a0b5;}.cls-76{fill:#a2bdcb;}.cls-77{fill:#b3c9d5;}.cls-78{fill:#186a8d;}.cls-79{fill:#4e86a0;}.cls-80{fill:#005a80;}.cls-81{fill:#407c99;}.cls-82{fill:#006487;}.cls-83{fill:#5389a3;}.cls-84{fill:#3a7996;}.cls-85{fill:#0c6689;}.cls-86{fill:#5187a1;}.cls-87{fill:#5085a1;}.cls-88{fill:#2d7392;}.cls-89{fill:#1c6b8c;}.cls-90{fill:#578aa4;}.cls-91{fill:#6895ac;}.cls-92{fill:#267090;}.cls-93{fill:#176a8c;}.cls-94{fill:#0b3959;}.cls-95{fill:#608fa8;}</style></defs><title>Risorsa 1</title><g id="Livello_2" data-name="Livello 2"><g id="Colori"><g id="_Gruppo_clip_" data-name="&lt;Gruppo clip&gt;"><g id="_Gruppo_" data-name="&lt;Gruppo&gt;"><path id="_Tracciato_" data-name="&lt;Tracciato&gt;" class="cls-1" d="M31.6,114.07c.2-.29-.19-.78.25-1,1.18-.43,2.89.33,3.82,1.82a2.57,2.57,0,0,0,1.41,1.21c1.25.43,1.9,1.91,3,2.69.33.24.25.92-.11,1.34-.52.26-.54-.72-1-.55-.06.5.42.54.55.87a.62.62,0,0,1-.1.44c-1.83.54-2.8-1.2-4.07-2.11a13.62,13.62,0,0,1-1.5-1.75,3.55,3.55,0,0,0-2-.91l-.31-.37A2.32,2.32,0,0,1,31.6,114.07Z"/><path id="_Tracciato_2" data-name="&lt;Tracciato&gt;" class="cls-2" d="M39.24,260.39l.31,1.23c-.13.64-.28,1.28-1,1.42l-.45,0c-.45-.05-.87-.63-1.33-.28-1,.75-1.55,0-2.15-.69a4.66,4.66,0,0,0-3.36-.27c-.56-.47,0-1.27-.4-1.79.12-.59-.13-1.33.55-1.67.76-.09,1.45,1.06,2,.69,1.17-.85,2.1.33,3.15.16.17,0,.35.14.53.24C37.72,260,38.62,259.78,39.24,260.39Z"/><path id="_Tracciato_3" data-name="&lt;Tracciato&gt;" class="cls-3" d="M2.34,17.58c.33-.4.58.22.89.1-.21,1.05,0,1.73,1,2.06s1.44,1.38,2.25,1.93a13.94,13.94,0,0,0,.87,1.5,1.67,1.67,0,0,1,.13.45c-.13,1.36-.78,2-2,2a1.66,1.66,0,0,1-.39-.15c-.45-.35-.93-.63-1.36-1a1,1,0,0,1-.22-.38c-.12-.56-.28-1.05-.9-1.09a1.92,1.92,0,0,1-1.27-.73c-.32-.31-.57-.78-1.09-.62C-.12,21.19.09,20.55,0,20c.24-.62.14-1.77.82-1.73.94.05.08,1.24.49,1.76s.89,1.29,1.8,1.46c-.07-1-.9-1.35-1-2.13C2,18.71,1.77,18.08,2.34,17.58Z"/><path id="_Tracciato_4" data-name="&lt;Tracciato&gt;" class="cls-4" d="M38.54,121.78c-.23,0-.5.08-.61-.29-.1-.65.26-.55.58-.47a.83.83,0,0,0,1.1-.36c1.07-1.36,1-1.87-.47-2.59a1.61,1.61,0,0,1-.77-.71,2.68,2.68,0,0,0-1.66-1.4,2.7,2.7,0,0,1-1.36-3.81c2.07,1,3.55,3,5.24,4.57s1.52,2.52-.05,5a1,1,0,0,1-.61.41A1.76,1.76,0,0,1,38.54,121.78Z"/><path id="_Tracciato_5" data-name="&lt;Tracciato&gt;" class="cls-5" d="M19.5,10.63c0,.1,0,.19,0,.28-.67.2-1.34.53-2,0-.13-.43-.72-.12-.79-.65-.29-1.53-1.36-2.45-2.15-3.58-.28-.41-.79-.61-.92-1.19a.4.4,0,0,1,.2-.37c1.28-.06,2,1.12,3.09,1.66C15.6,5.47,15.11,3.56,14,2.12a.88.88,0,0,1-.2-.41A.6.6,0,0,1,14,1.28a1.39,1.39,0,0,1,1.46.35,10.27,10.27,0,0,0,2,2.76c.85.73,1.38,2.25,2.16,3.35C20.21,8.58,19.39,9.65,19.5,10.63Z"/><path id="_Tracciato_6" data-name="&lt;Tracciato&gt;" class="cls-6" d="M26.24,216.54A2.41,2.41,0,0,1,28,215.46a3.34,3.34,0,0,1,1.72,0c1.21.79,2.4,1.62,3.63,2.37a1.8,1.8,0,0,1,.65,2.72c-.4,1-.87,1-1.33.09-.25-.47-.54-.91-.8-1.37a1.17,1.17,0,0,0-1.2-.92,3,3,0,0,1-1.88-.62c-.72-.69-1.24-.67-1.65.43-.47,1.29-.81.81-1-.18A4.41,4.41,0,0,1,26.24,216.54Z"/><path id="_Tracciato_7" data-name="&lt;Tracciato&gt;" class="cls-7" d="M29.73,123.78l-.49,1.67c-.77,1.24-1.8,1.17-2.89.74-1.29-.51-2.88-.47-3.37-2.44a1.61,1.61,0,0,1-.09-1.69c.46-.19.94-.1,1.37-.67.94-1.26,1.81-1.25,3-.35C28.27,121.77,28.81,123,29.73,123.78Z"/><path id="_Tracciato_8" data-name="&lt;Tracciato&gt;" class="cls-8" d="M18.88,28l.6.07a2.72,2.72,0,0,0,2,2.7c.67.22,1.42,1.62,2,2.59-.24,1.85-1,2.38-2.35,1.63-.9-1.1-1.43-2.8-3.13-2.62l-.52-1C17.66,30.13,17.52,28.67,18.88,28Z"/><path id="_Tracciato_9" data-name="&lt;Tracciato&gt;" class="cls-4" d="M14.8,61.55C18.11,60.41,20.23,63,21,66.31c.17.75-.23,1.13-.43,1.66-.2.21-.38.46-.7.26a1.37,1.37,0,0,1-.31-1c0-1.37-.59-2.23-1.86-2.26-.36-.33-.47-.9-.86-1.21s-.95-1.06-1.7-1.12S14.49,62.1,14.8,61.55Z"/><path id="_Tracciato_10" data-name="&lt;Tracciato&gt;" class="cls-9" d="M29.73,123.78a1,1,0,0,1-1.27-.78c-.32-1-1.18-1.48-1.88-2a1.33,1.33,0,0,0-2.16.79c-.37,1.46-.77.84-1.31.3a1.28,1.28,0,0,1,0-1c.93-2.18,3.12-2.66,4.6-1,.33.37.57.88,1,1C29.93,121.61,30,122.61,29.73,123.78Z"/><path id="_Tracciato_11" data-name="&lt;Tracciato&gt;" class="cls-6" d="M19.5,10.63c-.93-.15-.4-.74-.26-1.2.3-.95.51-1.77-.62-2.29a2.09,2.09,0,0,1-.91-1.41c-.18-1-.42-1.66-1.45-1.53-.41.06-.53-.34-.57-.78-.06-.6-.17-1.19-.25-1.79,2.19,1.5,4.17,3.14,5,6.22C20.74,9.23,20.61,10.05,19.5,10.63Z"/><path id="_Tracciato_12" data-name="&lt;Tracciato&gt;" class="cls-10" d="M19.35,196a2.5,2.5,0,0,1,2-1.95c.37,0,.66.19.68.69s-.53.71-.81,1.05A1.44,1.44,0,0,0,21,197.7c.88,1.44,2.33,1.13,3.55,1.43.57.14.76-.56.57-1.18a13.26,13.26,0,0,0-.54-1.36c-.1-.3-.23-.6,0-.9.58-.27.9.16,1.13.64a12.08,12.08,0,0,1,1.11,2.45,4.07,4.07,0,0,1-1.41,2.05c-.58.2-1.17.37-1.7-.18-1.36-.88-2.91-1.35-4.12-2.54C19.11,197.48,19.64,196.7,19.35,196Z"/><path id="_Tracciato_13" data-name="&lt;Tracciato&gt;" class="cls-11" d="M32.73,67.55l.15-1c2.3-.06,4,2,6.11,2.45a1.09,1.09,0,0,1,.41.6,1.6,1.6,0,0,1-.67,1.85,2.56,2.56,0,0,1-1.57.11,2.23,2.23,0,0,1-.4-.16,5.48,5.48,0,0,0-2.51-1.75,1.89,1.89,0,0,1-1.46-.78.39.39,0,0,1-.18,0C32.21,68.36,32.79,68,32.73,67.55Z"/><path id="_Tracciato_14" data-name="&lt;Tracciato&gt;" class="cls-12" d="M36.42,203.46c2.33-1,3.81.79,5.47,2.11,1.24,1,1.54,2.51,1.88,4a1.39,1.39,0,0,1-.65,1.62c-.64.11-.72-.36-.64-.9a1.51,1.51,0,0,0-.25-1.37c-1.52-2.1-3.14-4-5.5-4.86A.44.44,0,0,1,36.42,203.46Z"/><path id="_Tracciato_15" data-name="&lt;Tracciato&gt;" class="cls-13" d="M34.22,34.07l-.86-1c-.12-1.32-.06-2.65-.2-4,.85-.65,1.69,0,2.54,0-.22.8-.62.59-1,.35.52.78,2.45.55,1.58,2.6-.94.82-.94.82.44,1.65.33-.73-.72-1-.42-1.7a.82.82,0,0,1,.79-.17,2.57,2.57,0,0,1,1.32,1.81,5.3,5.3,0,0,1-.92,1.8c-1.18.45-1.73-1.14-2.77-1.14A.7.7,0,0,1,34.22,34.07Z"/><path id="_Tracciato_16" data-name="&lt;Tracciato&gt;" class="cls-14" d="M28.94,185.24a1.56,1.56,0,0,1,.84-1.53c1.51.37,2.73,1.6,4.25,2,.64.15,1.29.43,1.09,1.39s-.83,1.41-1.65,1.16c-1.12-.35-2.43-.08-3.32-1.27-.12-.16-.37,0-.53.14a.41.41,0,0,1-.4,0C28.87,186.54,29.21,185.83,28.94,185.24Z"/><path id="_Tracciato_17" data-name="&lt;Tracciato&gt;" class="cls-10" d="M35,163.31c1.36,2,1.32,2.32-.54,4.72-.7.67-1.36.38-2-.09a15.78,15.78,0,0,1-3.22-2.59c-.16-.71.23-.85.7-.92a1.49,1.49,0,0,1,.4.15c.37.33,1,.39,1.14.95.37,1.23,1.14,1.1,2,.9.32-.08.71,0,.74-.56a.94.94,0,0,0-.5-.93,1.82,1.82,0,0,1-1-2.22C33.53,162.2,34.15,163.29,35,163.31Z"/><path id="_Tracciato_18" data-name="&lt;Tracciato&gt;" class="cls-15" d="M29.59,187.05c-.16-1.46.63-.94.91-.43.87,1.61,2.39.59,3.49,1.29.32.21.85-.49.9-1.08s-.36-.68-.78-.75a5,5,0,0,1-2.73-1.33.94.94,0,0,0-1.06-.2c-.69.21-.44-.49-.54-.84l0,0c.53-.28,1.15-.6,1.66-.19,1.53,1.23,3.59,1.22,4.93,2.86a4.15,4.15,0,0,1-.23,2c-.3.44-.53,1-1.15.83a3.86,3.86,0,0,0-2.19-.59C31.41,188.85,30.51,188,29.59,187.05Z"/><path id="_Tracciato_19" data-name="&lt;Tracciato&gt;" class="cls-16" d="M39.7,120.79c-.31,1.2-1.3.06-1.77.7a11.65,11.65,0,0,1-6.08-5.37c1.36-.92,2,.39,2.72,1.24,1.36,1.65,2.79,3.1,4.83,3.42.07-.08.13-.11.2-.08S39.7,120.76,39.7,120.79Z"/><path id="_Tracciato_20" data-name="&lt;Tracciato&gt;" class="cls-17" d="M24.08,95.65a.26.26,0,0,0-.06.27.35.35,0,0,1-.31.24c-2.54,1.39-4.86.3-7.18-.85l0,0c0-1.43.86-1.36,1.71-1.15.61.15,1.13.62,1.73.81s1.17.46,1.84-.18c-1.47-1.21-3.45-.28-4.69-1.82a.5.5,0,0,1,.26-.59,1.93,1.93,0,0,1,.84-.18A4.79,4.79,0,0,0,19.44,92a1.56,1.56,0,0,1,1.43.29,7,7,0,0,0,1,.79c.69.65,1.67.76,2.27,1.58A1.65,1.65,0,0,1,24.08,95.65Z"/><path id="_Tracciato_21" data-name="&lt;Tracciato&gt;" class="cls-18" d="M39.7,120.79h-.3v-.33c-.07-.31,0-.42.29-.34.42-.41.36-1.25.08-1.27-1.56-.11-1.71-2.81-3.48-2.43-.3.06-.49-.16-.64-.52a4.17,4.17,0,0,0-3.8-2.82c1-1.07,2.11-1.74,3.5-.92-.24,2.17.16,2.82,1.88,3.65,1.2.59,2,1.91,3,2.76S40.41,120.21,39.7,120.79Z"/><path id="_Tracciato_22" data-name="&lt;Tracciato&gt;" class="cls-19" d="M6.41,22c-1.17-.5-1.78-1.93-3.14-2.28-.84-.22-.88-1.31,0-2a14.61,14.61,0,0,1,5.28,5.23,2.41,2.41,0,0,1,.15,1.73c-.88.15-1.11-.61-1.38-1.31h0A11.11,11.11,0,0,0,6.41,22Z"/><path id="_Tracciato_23" data-name="&lt;Tracciato&gt;" class="cls-20" d="M32.69,162.64c.25.79.1,1.82,1.34,1.89.52,0,.71,1.15.6,1.83s-.65.57-1.17.45-1.31.93-1.77,0-1.13-1.41-1.61-2.19c.41-.28.83-.07,1.25-.07s.65.11.73-.29a.67.67,0,0,0-.58-.79,10,10,0,0,1-2.49-.66.79.79,0,0,1-.51-.85c-.11-.26,0-.31.21-.33,1.38-.34,2.59.41,3.85.8Z"/><path id="_Tracciato_24" data-name="&lt;Tracciato&gt;" class="cls-16" d="M17.38,92.64l-.27.35-.11.23c-.22.24-.49.36-.75.12a.51.51,0,0,1,0-.71c1.48-2.07,2.66-2.37,4.77-1.41a12.81,12.81,0,0,1,3.14,2.11.45.45,0,0,1-.15.49c-.86.5-1.51-.23-2.25-.5a.87.87,0,0,1-.86-.68c-.39-.68-.9-.63-1.45-.32-.31.48-.76.28-1.16.32C18,92.37,17.67,92.28,17.38,92.64Z"/><path id="_Tracciato_25" data-name="&lt;Tracciato&gt;" class="cls-21" d="M38,140.63c3.27,1.59,4.75,2.75,5.15,5.92a4.37,4.37,0,0,1-3-2c-.55-.44-1-1.06-1.52-1.49C37.16,141.93,37.15,141.9,38,140.63Z"/><path id="_Tracciato_26" data-name="&lt;Tracciato&gt;" class="cls-22" d="M29.3,83.67c2.35-.58,5.6,2,6,4.79a1.7,1.7,0,0,1-.55,1.89c-.36-.3-.35-.83-.57-1.22-.32-1-.45-2.15-1.82-2.24-.75-.06-1.09-1.33-1.92-1.59C30,84.87,28.92,85,29.3,83.67Z"/><path id="_Tracciato_27" data-name="&lt;Tracciato&gt;" class="cls-23" d="M45.51,229.75c3.26-.47,6,1.51,7.09,5.2a.51.51,0,0,1-.56.2,3.79,3.79,0,0,1-1.29-.77c-.63-1.94-2.32-2.17-3.65-3-.45-.27-1-.31-1.39-.76a1.83,1.83,0,0,1-.36-.58C45.31,229.91,45.36,229.8,45.51,229.75Z"/><path id="_Tracciato_28" data-name="&lt;Tracciato&gt;" class="cls-4" d="M36.4,186.41c-.3.17-.57.41-.86-.08-.48-.83-1.08-1.41-2-1a.54.54,0,0,1-.52-.19,3.31,3.31,0,0,0-3.16-1.4c1.59-1.61,3.32-1.52,5.34.39C35.75,184.7,36.79,185.06,36.4,186.41Z"/><path id="_Tracciato_29" data-name="&lt;Tracciato&gt;" class="cls-15" d="M22.49,149.88c-.35.46,0,1.24-.54,1.6-.53,0-1.21,1-1.57-.3,0-.43.57-.65.46-.81-.46-.62-.34-1.94-1.56-1.74A9.81,9.81,0,0,0,17,149c-.61.27-1.29.47-1.86-.21-.14-.31,0-.66-.12-1,.08-.47-.07-1.07.52-1.26C18.23,146.69,21,146.65,22.49,149.88Z"/><path id="_Tracciato_30" data-name="&lt;Tracciato&gt;" class="cls-4" d="M8.67,109.43c2.55-.63,4.44.7,6,2.77.84,1.09.44,2.2-.22,3.22-1-.09-.48-1.18-.86-1.66a2.65,2.65,0,0,1-.27-.62c0-.93-.45-1.48-1.27-1.59a2.89,2.89,0,0,0-.59,0A2.93,2.93,0,0,1,8.67,109.43Z"/><path id="_Tracciato_31" data-name="&lt;Tracciato&gt;" class="cls-10" d="M17.7,64.84c1.45-.34,2.15.32,2.26,2.19A3,3,0,0,0,20,68.32c0,.54-.36.69-.71.85l-.47.07a.91.91,0,0,1-1.19,0c-.54-.53-1.34-.59-1.75-1.35-.23-1.38-1.43-1.77-2.08-2.73.23-.87.76-.85,1.36-.62a3.28,3.28,0,0,1,1.57,1.57c.31,1.3,1.38.48,2,.89.25.16.2-.56.06-.88-.26-.57-1-.44-1.23-1Z"/><path id="_Tracciato_32" data-name="&lt;Tracciato&gt;" class="cls-24" d="M40.28,148.74a10,10,0,0,1-4.68-3.41A1.73,1.73,0,0,1,35,143.9a.33.33,0,0,1,0-.46.7.7,0,0,1,1,.2c.73,1.61,2.25,2.19,3.35,3.31.6.62,1.3-.49,2-.42s1.3.3.85,1.36l-.59.74C41.23,148.82,40.8,149.46,40.28,148.74Z"/><path id="_Tracciato_33" data-name="&lt;Tracciato&gt;" class="cls-25" d="M39.15,69.55l-.29-.33a19.68,19.68,0,0,1-3.92-2.35c-.54-.42-.91-.74-.14-1.29,1.63-1.12,2.55.45,3.5,1.39.65.64,1.05,1.58,1.87,2.09.37.23.37,1,.09,1.5C39.17,71.29,39.45,70,39.15,69.55Z"/><path id="_Tracciato_34" data-name="&lt;Tracciato&gt;" class="cls-26" d="M32.06,240.64c.06-1-.27-2.14.87-2.66,1.56-.35,3,.49,4.45.71.46.17.95.14,1.41.3,1.16.43,1.33,1.21.53,2.42a.58.58,0,0,1-.43,0c-.75-1.42-2-1.29-3.17-1.23a3.45,3.45,0,0,1-2-.38c0,.73.75.81.76,1.43-.38.62-.87.8-1.41.34-.29-.24-.53-.36-.86-.2A.49.49,0,0,1,32.06,240.64Z"/><path id="_Tracciato_35" data-name="&lt;Tracciato&gt;" class="cls-25" d="M22.49,149.88a17.75,17.75,0,0,0-2-1.94,8.69,8.69,0,0,0-3.73-.94,5,5,0,0,1-1.14-.46c1.3-1.3,3.75-1.36,4.73.09.59.87,1.87.6,2.08,2A3.41,3.41,0,0,1,22.49,149.88Z"/><path id="_Tracciato_36" data-name="&lt;Tracciato&gt;" class="cls-27" d="M36.42,203.46a11.63,11.63,0,0,1,6.1,5.38c.25,1.84-.45,2.85-1.74,2.29a4.19,4.19,0,0,1-2.67-2.75c.64-.9,1.17.12,1.75.13,0,0,.09.06.13.07.47.1.62,1.37,1.18.66.42-.52-.21-1.06-.62-1.44s-1.11-.43-1.27-1.18-.69-.67-1.09-.91c-.6-1-1.74-1-2.53-1.68,0-.07,0-.15,0-.23C35.81,203.46,36.15,203.58,36.42,203.46Z"/><path id="_Tracciato_37" data-name="&lt;Tracciato&gt;" class="cls-28" d="M29.3,83.67c0,1.09.95.85,1.42,1.29.53.83,1.17,1.56,1.67,2.44A1.42,1.42,0,0,1,32,89a.68.68,0,0,1-1-.18A2.53,2.53,0,0,0,28,87.19c0-1.14-.24-2.33.61-3.25A.58.58,0,0,1,29.3,83.67Z"/><path id="_Tracciato_38" data-name="&lt;Tracciato&gt;" class="cls-29" d="M17.11,93a12.75,12.75,0,0,0,4,.79A1.07,1.07,0,0,1,22.27,95c0,1-.72.68-1.2.7a3.82,3.82,0,0,1-2.29-.8c-.82-.53-1.71-.9-2.28.48l-.13,0c-.56-.35-.19-1-.29-1.43.16-.56.88-.28,1-.88Z"/><path id="_Tracciato_39" data-name="&lt;Tracciato&gt;" class="cls-30" d="M20.34,28.69a11.77,11.77,0,0,1,5,5.56c.35.74-.06,1.07-.36,1.51-.3-.2-.43-.6-.71-.84-.68-1.26-1.52-2.39-2.23-3.62-.27-.46-.48-.76-1-.62a1.11,1.11,0,0,1-1.38-.85C19.48,29.26,19.27,28.39,20.34,28.69Z"/><path id="_Tracciato_40" data-name="&lt;Tracciato&gt;" class="cls-31" d="M26.4,46.44c.9-.31,1.45.37,1.9,1.05.69,1,1.28,2.19,1.91,3.29-.71,1.12-1.34.46-1.86-.2s-.84-1.31-1.28-1.95c-.18-.71-.49-1.09-1.22-.87a2.36,2.36,0,0,1-1.65-.08.77.77,0,0,1-.33-.58,1,1,0,0,1,.81-.9C25.24,46.43,25.86,46.07,26.4,46.44Z"/><path id="_Tracciato_41" data-name="&lt;Tracciato&gt;" class="cls-32" d="M19.07,178.59c-1.84-.65-2.91-2.24-3.75-4.11a1.15,1.15,0,0,1,.32-.65c.44-.23,1-.24,1.18.23.8,1.81,2.36,2.32,3.78,3.11.37.64,1.29,1.36-.19,1.75C20,178.65,19.63,178.1,19.07,178.59Z"/><path id="_Tracciato_42" data-name="&lt;Tracciato&gt;" class="cls-33" d="M37.26,239c-1.43.23-2.71-1.11-4.19-.57l-.14-.43a2.71,2.71,0,0,1,2.29-1c.45.36,1,0,1.48.28,1.14-.25,1.83,1.06,2.89,1.1C39,239.52,38.11,239.12,37.26,239Z"/><path id="_Tracciato_43" data-name="&lt;Tracciato&gt;" class="cls-34" d="M26.82,198.78a3.61,3.61,0,0,1-1.18-1.84c-.24-.54-.41-1.17-1.09-1.17-1.06.33-1.78-.54-2.61-1-.19-.22-.39-.44-.58-.67,2.08-1.09,5.52,1.17,5.79,3.81C27.19,198.29,26.94,198.49,26.82,198.78Z"/><path id="_Tracciato_44" data-name="&lt;Tracciato&gt;" class="cls-35" d="M13.58,113.07l.29.33a1.87,1.87,0,0,1-.11,1.82.73.73,0,0,1-1-.19,1.62,1.62,0,0,0-.7-2,7.31,7.31,0,0,0-3.62-.85c.44.76,1.17.81,1.77,1.13.41.22,1,.16.89,1a1.51,1.51,0,0,1-1.74.09,1.83,1.83,0,0,0-1.52,0l-.15,0c-.53-.25-.5-.89-.71-1.36l0-1.61c1.16-.86,2.29-1.38,3.5,0,.36.41.81.25,1.08-.29h.56C12.6,111.75,13.32,112.19,13.58,113.07Z"/><path id="_Tracciato_45" data-name="&lt;Tracciato&gt;" class="cls-36" d="M35.9,143.88c-.2-.36-.5-.32-.81-.25a15.38,15.38,0,0,0,.23-2.44c.07-.35.35-.3.56-.37a6.12,6.12,0,0,1,1.48,1.71c.59,1,1.61,1.34,2.4,2,.45.39.89.81.59,1.5s-.85.41-1.28.21A6.26,6.26,0,0,1,35.9,143.88Z"/><path id="_Tracciato_46" data-name="&lt;Tracciato&gt;" class="cls-26" d="M23.87,47.1l.29.33a2.39,2.39,0,0,0,1.83.13c.74-.16,1.08.17,1.28.9a4.76,4.76,0,0,1,1.17,1.62c.36.83,1,1.22,1.77.7.27.33.66.54.77,1,0,.7-.43.79-.91.78-.32-.08-.52-.4-.78-.58a3.58,3.58,0,0,1-2.09-2.1,1.94,1.94,0,0,0-1.13-1.21c-.76-.26-.44.37-.38.76a1.25,1.25,0,0,1,0,.47,1.09,1.09,0,0,1-1.24.64,6.76,6.76,0,0,0-1-1.84c-.11-.52.19-.88.38-1.28Z"/><path id="_Tracciato_47" data-name="&lt;Tracciato&gt;" class="cls-4" d="M16.53,95.31a4.07,4.07,0,0,1,2.71.72,3.87,3.87,0,0,0,3.89-.24c.39-.24.58-.3.66.27C23.42,97.91,22,97.21,21,97.63c-.72-.59-1.61-.25-2.41-.59A3.34,3.34,0,0,1,16.53,95.31Z"/><path id="_Tracciato_48" data-name="&lt;Tracciato&gt;" class="cls-2" d="M28.16,87.3c1-.64,2-1.22,2.51.68.12.42.52,1.08,1.1.8s.37-1,.4-1.48c.59.38,1.59-.35,1.87.84.1.45.26,1.17-.21,1.34-.81.3-1.61,1-2.55.45a2.36,2.36,0,0,1-.34-.3,2.09,2.09,0,0,0-2-1l-.83-1C28,87.51,28,87.4,28.16,87.3Z"/><path id="_Tracciato_49" data-name="&lt;Tracciato&gt;" class="cls-20" d="M15.27,148.49a1.17,1.17,0,0,0,1.57.14,4.69,4.69,0,0,1,2.54-.4c.51,0,1.2-.15,1.33.62s.73,1.69-.19,2.38c-.26.1-.37-.08-.45-.32-.14-1.63-.31-1.76-2-1.56,0,.71,1.38.29.85,1.42a3.23,3.23,0,0,1-1.89.19c-.73,0-1.19-.66-1.75-1.09l-.28-.31C14.84,149.12,14.69,148.69,15.27,148.49Z"/><path id="_Tracciato_50" data-name="&lt;Tracciato&gt;" class="cls-22" d="M15.31,149.87c.61-.12.93.56,1.44.69a4,4,0,0,0,2.68,0,.83.83,0,0,1,.8.32l.29.33c.39.8,1-.26,1.43.25l-.27.43c-.19.73-.78.43-1.19.63h0c-.45.49-.94.24-1.43.12C17.63,152.07,16.07,151.71,15.31,149.87Z"/><path id="_Tracciato_51" data-name="&lt;Tracciato&gt;" class="cls-37" d="M38.17,208.17c.43,1.28,1.54,1.75,2.38,2.45,1.05.87,1.69.2,2-1.78.59.3.6.77.3,1.33s-.14.82.3,1l-1.19,1.05c-.86.37-1.4-.31-2-.8-.8-1.3-2.21-1.86-2.93-3.25.21-.92.66-.35,1-.21Z"/><path id="_Tracciato_52" data-name="&lt;Tracciato&gt;" class="cls-38" d="M5.82,26.66A8.33,8.33,0,0,1,1.47,23a.32.32,0,0,1,.07-.46c.29,0,.54.31.82.23,1.16-.33,1.28.61,1.45,1.52h0c.43.44,1,.61,1.45,1h0a1.22,1.22,0,0,0,1.55-.2c.78-.61,1.25-.31,1.06.87l-.61.59C6.79,27.07,6.31,26.89,5.82,26.66Z"/><path id="_Tracciato_53" data-name="&lt;Tracciato&gt;" class="cls-39" d="M31,89.3c.9,1.21,1.78-.2,2.69-.06.22,0,.21-.66.18-1s-.25-.58-.46-.37c-.73.69-.8-.48-1.26-.52A3.34,3.34,0,0,1,30.72,85,2.33,2.33,0,0,1,31.93,86c.13.26.44.64.61.6,1.74-.39,1.6,1.24,2,2.35.22.84,0,1.43-.8,1.46-.63,0-1.14.58-1.78.49-.54.17-.89-.16-1.19-.61A1.06,1.06,0,0,1,31,89.3Z"/><path id="_Tracciato_54" data-name="&lt;Tracciato&gt;" class="cls-40" d="M34.65,257c1.22-.24,2,1.34,3.19,1.1.28.51.63,1.06.24,1.61s-.76.1-1.11-.15c-1.36-.07-2.47-1.27-3.93-1-.65.1-.73-.53-.41-1.14l.29-.39A2.92,2.92,0,0,1,34.65,257Z"/><path id="_Tracciato_55" data-name="&lt;Tracciato&gt;" class="cls-41" d="M31.73,222.88a9,9,0,0,1-5.18-2.64.59.59,0,0,1,.34-.94,1.48,1.48,0,0,1,.42,0,2.2,2.2,0,0,1,.75.41c.1.1.2.2.29.31.7,1,1.64.57,2.51.55a1.82,1.82,0,0,1,.4.11,1.76,1.76,0,0,1,.92,1.75C32.12,222.69,31.91,222.77,31.73,222.88Z"/><path id="_Tracciato_56" data-name="&lt;Tracciato&gt;" class="cls-42" d="M28.48,162a4.22,4.22,0,0,0,2.57,1c.42,0,.9-.09,1.19.4a1.62,1.62,0,0,1,.37,1.37c-.21.63-.64.25-1,.25a2.54,2.54,0,0,1-1.54-.35h0c-.39-.66-.88.48-1.27-.11-.13-.54.06-1.19-.42-1.6Z"/><path id="_Tracciato_57" data-name="&lt;Tracciato&gt;" class="cls-43" d="M52.08,235h.52c.12,1.67-1,2-2,2.39-.57.26-1,0-1.43-.44-.11-.33-.4-.22-.6-.32-.62-1.42-1.87-1.28-2.93-1.61-.81.06-.86-1-1.45-1.3a.34.34,0,0,1,0-.46,9,9,0,0,1,4.92,1.8,2,2,0,0,0,1.18.7C51.14,236.13,51.63,235.59,52.08,235Z"/><path id="_Tracciato_58" data-name="&lt;Tracciato&gt;" class="cls-6" d="M32.79,68.88l1.71.34c.5,1.09,1.65,1.19,2.32,2h0a1.36,1.36,0,0,1,.24.35,1.9,1.9,0,0,1,.06,1.31C35.21,72.23,33.38,71.44,32.79,68.88Z"/><path id="_Tracciato_59" data-name="&lt;Tracciato&gt;" class="cls-41" d="M34.94,261.75c.46.75.79,1.6,1.79.56.63-.65,1.05.19,1.4.77-1.34,1.06-2.77.7-4.15.25-.45-.15-.92-.16-1.35-.34-.31-.63.13-.85.48-.92C33.71,262,34.29,261.58,34.94,261.75Z"/><path id="_Tracciato_60" data-name="&lt;Tracciato&gt;" class="cls-4" d="M19.05,171.26A7.9,7.9,0,0,1,22,174a1.75,1.75,0,0,1-3.11-.39c-.22-.42-.26-1-.65-1.28-.22-.32-.57-.6-.29-1.1A1.91,1.91,0,0,1,19.05,171.26Z"/><path id="_Tracciato_61" data-name="&lt;Tracciato&gt;" class="cls-44" d="M34.8,65.58c-.21.42-.38.9.21,1,1.31.31,2,2.06,3.5,2,.25,0,.32.37.35.66-1.46.09-2.52-1-3.66-1.75-.36-.25-.66-.81-1.08-.28-1,1.29-1,0-1.24-.63A1.76,1.76,0,0,1,34.8,65.58Z"/><path id="_Tracciato_62" data-name="&lt;Tracciato&gt;" class="cls-22" d="M13.65,5.26C15.05,6.12,15.57,8,16.86,9a.66.66,0,0,1-.2,1.22C15,9.13,14.14,7.29,13.08,5.6,13.05,5,13.32,5.07,13.65,5.26Z"/><path id="_Tracciato_63" data-name="&lt;Tracciato&gt;" class="cls-4" d="M35,163.31c-.94.56-1.55-.3-2.28-.67h0c-.37-.31-.82-.26-1.23-.41a1.12,1.12,0,0,1-.72-1.73,3.88,3.88,0,0,1,1.66.07C33.4,161.31,34.53,161.87,35,163.31Z"/><path id="_Tracciato_64" data-name="&lt;Tracciato&gt;" class="cls-21" d="M13.59,115.07c.48-.47.23-1.1.28-1.67.64.5,0,1.53.61,2l-.31.66c-.67.89-1.52.42-2.31.41-.84-.48-1.84-.44-2.61-1.15.17-1.06.74-1,1.48-.8C11.67,114.75,12.57,115.38,13.59,115.07Z"/><path id="_Tracciato_65" data-name="&lt;Tracciato&gt;" class="cls-7" d="M38.28,33.7l-1.14-1.63c-.15-.62-.45-1.29.3-1.69,1.07.86,2.34,1.48,2.84,3a1.38,1.38,0,0,1-1,.45C38.94,33.92,38.58,34.07,38.28,33.7Z"/><path id="_Tracciato_66" data-name="&lt;Tracciato&gt;" class="cls-45" d="M39.18,33.4l1.1,0c1,1.59.93,2.2-.51,3.66-1.36.32-1.36.32-1-1.49,0-.16.06-.31.09-.46C39.06,34.57,38.79,33.91,39.18,33.4Z"/><path id="_Tracciato_67" data-name="&lt;Tracciato&gt;" class="cls-16" d="M29.59,187.05c1.56,1.37,3.58,1,5.27,1.86.08,0,.11.17.17.26,0,.26-.07.4-.32.3a6.09,6.09,0,0,1-5.13-1.76c-.29-.15-.25-.38-.12-.63C29.51,187.12,29.55,187.11,29.59,187.05Z"/><path id="_Tracciato_68" data-name="&lt;Tracciato&gt;" class="cls-46" d="M20.34,28.69c-.51.06-.63.43-.55.94s.46.88.8.82c2.05-.31,2.13,2,3.17,3.09.31.31.47.92.91,1.19.27.68.17,1.19-.51,1.42-.75-.73-.64-1.84-.93-2.78-.23-.61-1.13-.63-1.14-.72,0-2-1.8-1.41-2.51-2.36-.56-.74-.1-1.46-.1-2.18C19.77,28.29,20.15,28.3,20.34,28.69Z"/><path id="_Tracciato_69" data-name="&lt;Tracciato&gt;" class="cls-47" d="M24.37,50.46l1.16-.67c.5-.22.72.21,1,.54a2.74,2.74,0,0,1,.15.4A2.14,2.14,0,0,0,27,51.84l.27.27c.22.36.87.47.5,1.17-.58.36-1.12-.12-1.68-.12A8.11,8.11,0,0,1,24,50.48c.07-.09.14-.12.21-.1S24.37,50.43,24.37,50.46Z"/><path id="_Tracciato_70" data-name="&lt;Tracciato&gt;" class="cls-5" d="M39.91,208.84c-.7.2-1.1-.66-1.74-.67h0c-.43-.43-.89-.74-1.46-.3-.46-.5-1.14-.8-1.13-1.71a.6.6,0,0,1,.57-.21,15.6,15.6,0,0,1,2.48.91c-.11-.53-.88-.69-.46-1.36.68,0,1.39-.07,1.46,1,.06.87.92.42,1.16,1A3.34,3.34,0,0,0,39.91,208.84Z"/><path id="_Tracciato_71" data-name="&lt;Tracciato&gt;" class="cls-7" d="M32.63,257.39c0,.62.06,1.2.78.7s1.11-.26,1.42.42c.5,1.07,1.59.09,2.15.89a.2.2,0,0,1,0,.34c-.92-.6-2.16.29-3-.85-1.09,1.41-1.78.13-2.56-.51C31.62,257.7,32.25,257.76,32.63,257.39Z"/><path id="_Tracciato_72" data-name="&lt;Tracciato&gt;" class="cls-48" d="M15.08,64.85c-.47-.29-.85-.15-1.17.33q-.09.12-.18.09c-.06,0-.1-.06-.1-.09-.38-1.35-.36-2.56.86-3.37.15.63.34,1.12,1.07,1.15a2.31,2.31,0,0,1,1.62.84.72.72,0,0,1,0,.64C16.53,64.78,15.72,64.18,15.08,64.85Z"/><path id="_Tracciato_73" data-name="&lt;Tracciato&gt;" class="cls-15" d="M18.47,172c.17.19.41.34.5.56.7,2,1.24,2.24,3,1.43a1,1,0,0,1,.53,1c-.13.66-.62.95-1,1.35a.54.54,0,0,1-.39.08,8.12,8.12,0,0,1-2.9-3A1.59,1.59,0,0,1,18.47,172Z"/><path id="_Tracciato_74" data-name="&lt;Tracciato&gt;" class="cls-30" d="M37.12,72.89a2.35,2.35,0,0,1-.29-1.33c.59,0,1.24.34,1.74-.33.67-.34.56-1,.58-1.68.35.36.37,1.22,1.11,1l-.54,2a1,1,0,0,1-1,.66c-.53-.24-1.12,0-1.64-.29Z"/><path id="_Tracciato_75" data-name="&lt;Tracciato&gt;" class="cls-49" d="M18,32.41c2.06-1.07,2.35,1.15,3.2,2.31a.28.28,0,0,1,0,.38.63.63,0,0,1-.38.09c-.63-.1-1-.88-1.66-.89Z"/><path id="_Tracciato_76" data-name="&lt;Tracciato&gt;" class="cls-37" d="M13.59,115.07a2.52,2.52,0,0,1-2.66-.1c-.78-.44-1.22-.4-1.68.37a1.49,1.49,0,0,1-1.45-1c0-.72.83-.86.94-.73.65.75,1.56.3,2.24.79l.18,0a2.56,2.56,0,0,1,1.44.21l.12.16C12.93,115.13,13.27,115.06,13.59,115.07Z"/><path id="_Tracciato_77" data-name="&lt;Tracciato&gt;" class="cls-50" d="M32.07,222.55a3.79,3.79,0,0,0-.87-1.66c.13-.5.51-.84.63-1.35a.75.75,0,0,1,.25-.33A1.8,1.8,0,0,1,33,220.4c.23,1.15.68.45,1.08.16.15.61-.42.86-.5,1.35C33.15,222.45,32.83,223.18,32.07,222.55Z"/><path id="_Tracciato_78" data-name="&lt;Tracciato&gt;" class="cls-33" d="M37.26,239a3.27,3.27,0,0,0,2.33-.62c.81.28.69,1.13.84,1.81-.26.57.07,1.26-.26,1.82h0c-.15.27-.31.55-.65.5a.82.82,0,0,1-.48-1.14c.81-1.21.64-1.79-.6-2C38,239.25,37.58,239.43,37.26,239Z"/><path id="_Tracciato_79" data-name="&lt;Tracciato&gt;" class="cls-51" d="M39.17,35.4c.38.48-1.24,1.9.6,1.68l-.31.38c-.53.47-1.09.14-1.64.09,0-.77-.92-1.29-.43-2.18.2-.63.31-1.32.89-1.67l.9-.3c-.21.55.51,1.11,0,1.67-.2,0-.53-.26-.57.06S39,35.23,39.17,35.4Z"/><path id="_Tracciato_80" data-name="&lt;Tracciato&gt;" class="cls-50" d="M37.44,30.38c-.41.49,0,1.16-.3,1.69l-.86,0h0c-.05-1.17-.05-1.17-1.82-2.44.32-.51.95.06,1.24-.49C36.33,29.44,37.07,29.57,37.44,30.38Z"/><path id="_Tracciato_81" data-name="&lt;Tracciato&gt;" class="cls-52" d="M37.06,142.54c-.42-.54-1.18-.78-1.18-1.72.66-.51,1.39,0,2.07-.19-.83,1.32.47,1.55.86,2.23.28.28.56.55.34,1A4.13,4.13,0,0,1,37.06,142.54Z"/><path id="_Tracciato_82" data-name="&lt;Tracciato&gt;" class="cls-53" d="M35,243.4a3,3,0,0,1-2-1.06c.51-1,1.39-.53,2.1-.73a2,2,0,0,1,.65.28c.45.57,1.59.11,1.58,1.39l0,.11A5.9,5.9,0,0,1,35,243.4Z"/><path id="_Tracciato_83" data-name="&lt;Tracciato&gt;" class="cls-24" d="M11.57,111.06c-.23,1-.94.82-1.34.47-.94-.79-1.73-1-2.6,0-.07.09-.42-.12-.64-.19a5.45,5.45,0,0,1,1.68-2C9.53,110.22,10.21,111.45,11.57,111.06Z"/><path id="_Tracciato_84" data-name="&lt;Tracciato&gt;" class="cls-54" d="M13.94,1.58a2.91,2.91,0,0,0,0,.31,2.51,2.51,0,0,1,1,1.88c.17,1-.13,1.49-1,1.31-.79.13-1-.79-1.6-1.1l-.08-.38c.46-.47,1.22-.7,1-1.71a.76.76,0,0,1,.15-.42A.39.39,0,0,1,13.94,1.58Z"/><path id="_Tracciato_85" data-name="&lt;Tracciato&gt;" class="cls-55" d="M24.08,36.05c.54-.23.62-.75.59-1.32.35.25.28.66.3,1a4.25,4.25,0,0,1-.91,1.54c-.43.6-.93.28-1.41.14-.31-.2-.74-.2-.9-.67-.07-1,.58-1,1.16-1.14A1.46,1.46,0,0,1,24.08,36.05Z"/><path id="_Tracciato_86" data-name="&lt;Tracciato&gt;" class="cls-56" d="M44.27,233.33l-.06.34c-.52-2.64-.32-3.25,1.3-3.92l.06.11c-.08.66.09,1.31,0,2C45.42,232.74,45.07,233.25,44.27,233.33Z"/><path id="_Tracciato_87" data-name="&lt;Tracciato&gt;" class="cls-57" d="M18.88,28c-.8.94-.87,2.29-1.41,3.37-.16-.57-.34-1.13-.47-1.71a1.9,1.9,0,0,1,.48-1.76A.89.89,0,0,1,18.88,28Z"/><path id="_Tracciato_88" data-name="&lt;Tracciato&gt;" class="cls-58" d="M.92,20.29c-.6-.6.31-1.2,0-1.89C.46,18.85.52,19.66,0,20,0,18,.25,17.74,2.34,17.58c-.28.58.08,1.15,0,1.73A8.06,8.06,0,0,0,.92,20.29Z"/><path id="_Tracciato_89" data-name="&lt;Tracciato&gt;" class="cls-59" d="M34.94,261.75c-.71.56-1.77.25-2.31,1.24-.44,0-.61-.7-1.09-.61a.35.35,0,0,1-.14-.51c.2-.5.51-.88,1-.78C33.26,261.26,34.09,261.52,34.94,261.75Z"/><path id="_Tracciato_90" data-name="&lt;Tracciato&gt;" class="cls-10" d="M30.67,160.64c0,1.53,1.49,1.14,2,2-1.4,0-2.66-.69-4-1l1.4-1.05A.36.36,0,0,1,30.67,160.64Z"/><path id="_Tracciato_91" data-name="&lt;Tracciato&gt;" class="cls-60" d="M33.16,29.09a.82.82,0,0,0,.23.74c.61.6,1,1.19.16,2-.33.31-.17.83-.19,1.26l-.88-1.7a2.52,2.52,0,0,1,0-1.65C32.64,29.4,32.78,29.07,33.16,29.09Z"/><path id="_Tracciato_92" data-name="&lt;Tracciato&gt;" class="cls-61" d="M13.94,1.58l-.62,0a.69.69,0,0,1-.54.17c-.59-.28-.88.66-1.45.47a1.38,1.38,0,0,1,.21-2c.67-.59,1.15-.13,1.65.29.27.22.52.47.79.71A2.43,2.43,0,0,1,13.94,1.58Z"/><path id="_Tracciato_93" data-name="&lt;Tracciato&gt;" class="cls-59" d="M37.25,243.28c-.28-1-1.29-.29-1.7-1a1.13,1.13,0,0,1,1.38-.56,1.82,1.82,0,0,0,1.61-.41l.19,0,.31,0a2,2,0,0,0,.6,1c-.1.9-.84.65-1.28,1Z"/><path id="_Tracciato_94" data-name="&lt;Tracciato&gt;" class="cls-39" d="M42.28,147.89c.08-1.06-.54-1-1.15-1a7.31,7.31,0,0,1-1-2.52l.13-.17c.66,1.24,2,1.35,2.84,2.34C43.16,147.27,42.59,147.48,42.28,147.89Z"/><path id="_Tracciato_95" data-name="&lt;Tracciato&gt;" class="cls-62" d="M37.39,35.37c-.12.72.67,1.22.36,2,0,.13-.11.18-.19.16s-.12-.05-.12-.08l-1.2-1c0-1.17-1.43-1.19-1.42-2.37.32-.47.6-.19.8.11A3.65,3.65,0,0,0,37.39,35.37Z"/><path id="_Tracciato_96" data-name="&lt;Tracciato&gt;" class="cls-63" d="M31.91,90.92c.55-.46,1-1.09,1.84-.89s.63-.58.74-1.06c.43.36.25.9.3,1.38l-.61.87c-.82.73-1.58.43-2.31-.19Z"/><path id="_Tracciato_97" data-name="&lt;Tracciato&gt;" class="cls-4" d="M13.63,65.18h.28c.94.63,2.37.78,2,2.7A4.35,4.35,0,0,1,13.63,65.18Z"/><path id="_Tracciato_98" data-name="&lt;Tracciato&gt;" class="cls-64" d="M37,259.74v-.34c1.84,1,.48-.94.86-1.29.86.44,1.71.89,1.4,2.28C38.44,260.37,37.59,260.6,37,259.74Z"/><path id="_Tracciato_99" data-name="&lt;Tracciato&gt;" class="cls-31" d="M45.66,235c1.14-.91,2,.37,2.94.61.41.1.14.65,0,1C47.65,236,46.44,236,45.66,235Z"/><path id="_Tracciato_100" data-name="&lt;Tracciato&gt;" class="cls-65" d="M7.86,26c-.12-.65-.37-1.34-1-.61s-1.12.34-1.65-.06c1.21.06,2-.51,2-2l1.38,1.31Z"/><path id="_Tracciato_101" data-name="&lt;Tracciato&gt;" class="cls-27" d="M20.18,178.63c1.57.06.26-.82.31-1.26,0,0,.07-.1.11-.1.64-.11.74-.22.78-.88v-.07c.28-.24.52-.11.74.12a2.29,2.29,0,0,1,.4,1.58l-.57.72a1.65,1.65,0,0,1-2,.3l-.31-.34A.37.37,0,0,1,20.18,178.63Z"/><path id="_Tracciato_102" data-name="&lt;Tracciato&gt;" class="cls-66" d="M31,89.3c0,.37,0,.77-.3,1A3.61,3.61,0,0,1,29,88.64C29.91,87.82,30.51,88.4,31,89.3Z"/><path id="_Tracciato_103" data-name="&lt;Tracciato&gt;" class="cls-67" d="M27.85,53.14l-.87-1c1-.51,1.53.3,1.92,1.09s.82.94,1.47.53c.38.32.3.7.1,1.1l-.6.6c-.56.38-1-.08-1.44-.31l-.3-.39C28,54.23,27.93,53.68,27.85,53.14Z"/><path id="_Tracciato_104" data-name="&lt;Tracciato&gt;" class="cls-28" d="M30.47,54.86c0-.39,0-.8-.29-1.06a1,1,0,0,1,0-1.35c.31-.15.64-.26.81-.64A1.92,1.92,0,0,1,30.47,54.86Z"/><path id="_Tracciato_105" data-name="&lt;Tracciato&gt;" class="cls-24" d="M17.11,63.85a3.8,3.8,0,0,0-2.78-.46l.16-1.58c0-.19.11-.32.31-.26,0,.26,0,.78.2.7,1.11-.42,1.44.78,2.11,1.26C17.24,63.62,17.23,63.73,17.11,63.85Z"/><path id="_Tracciato_106" data-name="&lt;Tracciato&gt;" class="cls-50" d="M27.15,219.54c-.39,0-.57.27-.6.7l-.34-.37c0-.55-.65-1.13,0-1.66.26.14.65.83.61-.2,0-.78.52-1.06,1-1.28s.8.36,1.07.79l-.14.16C27.6,217.59,27.63,218.86,27.15,219.54Z"/><path id="_Tracciato_107" data-name="&lt;Tracciato&gt;" class="cls-37" d="M27.85,53.14c.68.41.66,1,.28,1.62a5.68,5.68,0,0,1-2-1.6C26.68,52.34,27.27,53.4,27.85,53.14Z"/><path id="_Tracciato_108" data-name="&lt;Tracciato&gt;" class="cls-33" d="M22,176.68l-.58-.36c.1-.76.74-.89,1.14-1.3a1.33,1.33,0,0,1,.49,2C22.53,177.45,22.3,176.84,22,176.68Z"/><path id="_Tracciato_109" data-name="&lt;Tracciato&gt;" class="cls-59" d="M35.24,242c-.77.13-1.61-.34-2.32.35l-.46-.39c-.29-.12-.27-.34-.13-.59s-.08-1.39.51-.44,1,.49,1.54.39c.38-.33.71-.3,1,.19A.54.54,0,0,1,35.24,242Z"/><path id="_Tracciato_110" data-name="&lt;Tracciato&gt;" class="cls-68" d="M36.14,206.15h-.56a2.3,2.3,0,0,1,0-2.36l.11,0c0,.67.63.52.92.82a1.19,1.19,0,0,1,.29,1.16C36.8,206.34,36.46,206.21,36.14,206.15Z"/><path id="_Tracciato_111" data-name="&lt;Tracciato&gt;" class="cls-48" d="M34.82,34.05c.47.45.93.91,1.41,1.33s.41.69,0,1a6.35,6.35,0,0,1-2-2.35Z"/><path id="_Tracciato_112" data-name="&lt;Tracciato&gt;" class="cls-69" d="M35.32,141.19c0,.16,0,.39.09.47.94.9.56,1.48-.32,2a.6.6,0,0,1-.07.27C34.79,143,34.36,142,35.32,141.19Z"/><path id="_Tracciato_113" data-name="&lt;Tracciato&gt;" class="cls-70" d="M19.2,34.3c.86-.65,1.16.42,1.7.75.48.76.48.78,0,1C20,35.84,19.64,35,19.2,34.3Z"/><path id="_Tracciato_114" data-name="&lt;Tracciato&gt;" class="cls-71" d="M12.81,1.56l.51.06a2.29,2.29,0,0,1,.07.28c0,.93,0,1.85-1.2,1.34L11.94,3C11.64,2,11.75,1.38,12.81,1.56Z"/><path id="_Tracciato_115" data-name="&lt;Tracciato&gt;" class="cls-72" d="M18.47,172v1.67c-.88-.07-.95-1.56-1.93-1.48a.64.64,0,0,1-.34-.52c.18-.43.58-.21.84-.41s.61-.21.87.11Z"/><path id="_Tracciato_116" data-name="&lt;Tracciato&gt;" class="cls-30" d="M1.49,22.65l0,.38c-.7-.1-.84-.83-1.16-1.36.71-1.52.8.08,1.17.31A.52.52,0,0,1,1.49,22.65Z"/><path id="_Tracciato_117" data-name="&lt;Tracciato&gt;" class="cls-46" d="M20.87,36.08c.38-.32-.06-.69,0-1l.29,0c.38.81,1.52-.19,1.76,1a1,1,0,0,0-1.2.72A1.09,1.09,0,0,1,20.87,36.08Z"/><path id="_Tracciato_118" data-name="&lt;Tracciato&gt;" class="cls-73" d="M16.2,171.67l.26.31c.71,1.26.53,1.65-.83,1.8-.2-.64.17-1.18.21-1.78Z"/><path id="_Tracciato_119" data-name="&lt;Tracciato&gt;" class="cls-74" d="M24.37,50.46l-.33,0-.56-.7a.87.87,0,0,1,.06-1C24.45,48.92,24.62,49.55,24.37,50.46Z"/><path id="_Tracciato_120" data-name="&lt;Tracciato&gt;" class="cls-75" d="M28.39,162.94c1.38,0,.5,1.07.56,1.7a.27.27,0,0,1-.05.37A2.65,2.65,0,0,1,28.39,162.94Z"/><path id="_Tracciato_121" data-name="&lt;Tracciato&gt;" class="cls-43" d="M12.36,4c.74-.25.92.55,1.32.93a.24.24,0,0,1,.07.32l-.1,0a.55.55,0,0,0-.57.34A3.79,3.79,0,0,1,12.36,4Z"/><path id="_Tracciato_122" data-name="&lt;Tracciato&gt;" class="cls-11" d="M36.71,207.87c.68-1.15,1.1-.62,1.46.3-.39.17-.79-.37-1.17,0Z"/><path id="_Tracciato_123" data-name="&lt;Tracciato&gt;" class="cls-76" d="M12.19,3.24c.92.17.91-.77,1.2-1.34.74,1.54-.17,1.63-1.11,1.7Z"/><path id="_Tracciato_124" data-name="&lt;Tracciato&gt;" class="cls-76" d="M12.81,1.56c-.76.07-.91.65-.87,1.39a.67.67,0,0,1-.61-.69C11.81,2,11.91.64,12.81,1.56Z"/><path id="_Tracciato_125" data-name="&lt;Tracciato&gt;" class="cls-4" d="M20.18,178.63l-.56.07-.55-.11c.23-.34.43-.81.85-.76S20.18,178.32,20.18,178.63Z"/><path id="_Tracciato_126" data-name="&lt;Tracciato&gt;" class="cls-15" d="M22,176.68,23,177l-.49,1Z"/><path id="_Tracciato_127" data-name="&lt;Tracciato&gt;" class="cls-20" d="M28.9,165c0-.13,0-.25.05-.37.38-.17.76-1,1.13,0a.94.94,0,0,0-.89.71Z"/><path id="_Tracciato_128" data-name="&lt;Tracciato&gt;" class="cls-77" d="M17.67,69.23h1.19C18.46,69.83,18.06,70.39,17.67,69.23Z"/><path id="_Tracciato_129" data-name="&lt;Tracciato&gt;" class="cls-30" d="M17.09,93c0,.68-.47.66-.89.67-.15.1-.23,0-.23-.15s-.05-.66.24-.87C16.28,93.5,16.71,93.17,17.09,93Z"/><path id="_Tracciato_130" data-name="&lt;Tracciato&gt;" class="cls-70" d="M26.4,46.44c-.57-.07-1.19.22-1.72-.24C25.26,46.21,25.87,46,26.4,46.44Z"/><path id="_Tracciato_131" data-name="&lt;Tracciato&gt;" class="cls-2" d="M38.94,73l-.66.3c-.37-.22-.88.23-1.18-.33Z"/><path id="_Tracciato_132" data-name="&lt;Tracciato&gt;" class="cls-16" d="M40.08,121.83c-.35.49-.84.22-1.26.29l-.28-.34Z"/><path id="_Tracciato_133" data-name="&lt;Tracciato&gt;" class="cls-78" d="M39.69,120.11l-.29.34c-.55,0-1.09,0-1.11-.89a.65.65,0,0,1,.63-.73C39.65,118.85,39.69,119.48,39.69,120.11Z"/><path id="_Tracciato_134" data-name="&lt;Tracciato&gt;" class="cls-79" d="M.92,20.29c.31-.64.42-1.68,1.43-1,.31.41.62.82.92,1.24s.76.74.34,1.23a.89.89,0,0,1-1.31-.07C1.82,21.27,1.38,20.77.92,20.29Z"/><path id="_Tracciato_135" data-name="&lt;Tracciato&gt;" class="cls-65" d="M1.49,22.65V22c.38.19.64.72,1.11.65,1.19-.17,1.3.65,1.22,1.69C3.58,22.75,2.3,23.14,1.49,22.65Z"/><path id="_Tracciato_136" data-name="&lt;Tracciato&gt;" class="cls-65" d="M6.41,22c.69.11.78.73.87,1.35A1.6,1.6,0,0,1,6.41,22Z"/><path id="_Tracciato_137" data-name="&lt;Tracciato&gt;" class="cls-65" d="M5.25,25.33a1.73,1.73,0,0,1-1.45-1A1.84,1.84,0,0,1,5.25,25.33Z"/><path id="_Tracciato_138" data-name="&lt;Tracciato&gt;" class="cls-8" d="M13.75,5.23a1.14,1.14,0,0,1-.07-.32c1.27.11,1.4-.61.92-1.73-.18-.44-.41-.86-.62-1.29.38,0,1,0,1,.47,0,1.95,1.5,2.73,2.21,4.11.21.4.44.88.1,1.2s-.52-.21-.75-.47A7.66,7.66,0,0,0,13.75,5.23Z"/><path id="_Tracciato_139" data-name="&lt;Tracciato&gt;" class="cls-80" d="M32.08,219.21l0,.36c-1.21.47-2-.52-2.89-1.15a.79.79,0,0,1-.29-.87v0a4.74,4.74,0,0,0,2.24.41C31.89,217.75,32.1,218.44,32.08,219.21Z"/><path id="_Tracciato_140" data-name="&lt;Tracciato&gt;" class="cls-55" d="M26.76,124.57a1.27,1.27,0,0,0-1.58.14c-.17.17-.62,0-.61-.22A7.47,7.47,0,0,1,25,121.7a1,1,0,0,1,1.8.14,1.18,1.18,0,0,0,.63.63c.66.21.74.82.63,1.45C27.91,124.72,27.26,124.32,26.76,124.57Z"/><path id="_Tracciato_141" data-name="&lt;Tracciato&gt;" class="cls-81" d="M23,36.05c-.46-.64-1.46,0-1.76-1v-.35c1.1.66,1.74.23,2-1.35a4.64,4.64,0,0,1,.85,2.68Z"/><path id="_Tracciato_142" data-name="&lt;Tracciato&gt;" class="cls-10" d="M17.11,63.85v-.34c.52.25.6.76.59,1.33h0a.24.24,0,0,1-.29.12.58.58,0,0,1-.28-.46Z"/><path id="_Tracciato_143" data-name="&lt;Tracciato&gt;" class="cls-82" d="M24.84,196.43c.24.47.49.94.72,1.42a1.5,1.5,0,0,1-.3,1.53c-.31.51-.69.36-1.14.12-.8-.42-1.75-.1-2.57-.67-.4-.28-.74-.47-.78-1.05-.35-1.36.65-1.79,1.3-2.39s1.18-.22,1.67.3A7.57,7.57,0,0,0,24.84,196.43Z"/><path id="_Tracciato_144" data-name="&lt;Tracciato&gt;" class="cls-59" d="M24.84,196.43a1.81,1.81,0,0,1-.7-.11c-1.85-1.08-2.47-.82-3.37,1.46a1.82,1.82,0,0,1,.48-2.53c.29-.12.44-.37.69-.49,1.06-.29,1.7.8,2.61,1Z"/><path id="_Tracciato_145" data-name="&lt;Tracciato&gt;" class="cls-2" d="M36.82,71.24c-.87-.52-2.22-.32-2.32-2A4.42,4.42,0,0,1,36.82,71.24Z"/><path id="_Tracciato_146" data-name="&lt;Tracciato&gt;" class="cls-2" d="M38.57,71.23c-.4,1.41-1,1-1.74.33,0-.11,0-.22,0-.33Z"/><path id="_Tracciato_147" data-name="&lt;Tracciato&gt;" class="cls-83" d="M36.28,32.05s0,.1.08.13a2.06,2.06,0,0,1,1,1.85c0,.25-.29.4-.43.32a15.5,15.5,0,0,1-1.81-1.22c-.25-.2,0-.46.09-.71.23-.7.69-.39,1.08-.37Z"/><path id="_Tracciato_148" data-name="&lt;Tracciato&gt;" class="cls-63" d="M24.05,93.65v1a4,4,0,0,1-2.33-1.34C22.51,93.33,23.24,93.82,24.05,93.65Z"/><path id="_Tracciato_149" data-name="&lt;Tracciato&gt;" class="cls-30" d="M19.41,92.32c.58-.45,1.12-.72,1.45.32A2.08,2.08,0,0,0,19.41,92.32Z"/><path id="_Tracciato_150" data-name="&lt;Tracciato&gt;" class="cls-30" d="M17.38,92.64c.29-1,.58-.52.87,0Z"/><path id="_Tracciato_151" data-name="&lt;Tracciato&gt;" class="cls-39" d="M39.09,143.89c-.1-.34-.19-.68-.28-1,.66.2.91,1,1.45,1.35l0,0C39.74,144.54,39.28,144.76,39.09,143.89Z"/><path id="_Tracciato_152" data-name="&lt;Tracciato&gt;" class="cls-84" d="M44.27,233.33a2.36,2.36,0,0,0,1-1.8c.06-.53-.19-1.24.34-1.67,0,.13.09.27.14.4a1.85,1.85,0,0,0,1.54,1.26c1,.13,1.8,1.18,2.91,1.28.45,0,.27.73.34,1.14a.89.89,0,0,1-.11.43c-.35.29-.78.43-1.06.84l-.17.1Z"/><path id="_Tracciato_153" data-name="&lt;Tracciato&gt;" class="cls-85" d="M50.35,234.28c0-.68,0-1.26-.86-1.37-1.06-.13-1.9-1.13-3.08-1.15-.47,0-.65-.87-.7-1.5a12.57,12.57,0,0,0,3.54,1.83,3,3,0,0,1,1.69,2.19A.38.38,0,0,1,50.35,234.28Z"/><path id="_Tracciato_154" data-name="&lt;Tracciato&gt;" class="cls-84" d="M50.35,234.28h.59a1.79,1.79,0,0,1,1.14.67c-.06,1.54-.77,1.61-1.76,1a1.74,1.74,0,0,0,.11-.18c.85-.58-.37-1-.1-1.51Z"/><path id="_Tracciato_155" data-name="&lt;Tracciato&gt;" class="cls-24" d="M13.58,113.07a3.45,3.45,0,0,1-1.45-2C13,111.39,13.85,111.68,13.58,113.07Z"/><path id="_Tracciato_156" data-name="&lt;Tracciato&gt;" class="cls-20" d="M17.12,64.51l.28.34c.26.72,1,.36,1.36.78s.73.89.43,1.43-.87.15-1-.2c-.41-.81-1.17-.21-1.62-.67-.32-.68-1-.88-1.45-1.34C15.61,63.53,16.34,63.86,17.12,64.51Z"/><path id="_Tracciato_157" data-name="&lt;Tracciato&gt;" class="cls-48" d="M16.53,66.19a1.62,1.62,0,0,1,1.7.48c.2.22.5.73.81.2s-.13-.68-.32-1c-.34-.54-1.26,0-1.32-1h.29c.68.53,1.86.46,1.74,2a2.36,2.36,0,0,1-.13.78.35.35,0,0,1-.61,0C18.35,66.28,16.25,68.68,16.53,66.19Z"/><path id="_Tracciato_158" data-name="&lt;Tracciato&gt;" class="cls-49" d="M39.09,143.89c.29.49.75.27,1.13.37-.14,1.09,1.43,1.38.91,2.64-1,.78-1.91,1-2.75-.31-.66-1.08-2.23-1.09-2.48-2.71a8.94,8.94,0,0,0,3.44,2c.28.06.66.52.84-.11a.68.68,0,0,0-.5-.86c-.86-.25-1.34-1.26-2.24-1.45-.44-.09-.35-.58-.38-1A3.14,3.14,0,0,1,39.09,143.89Z"/><path id="_Tracciato_159" data-name="&lt;Tracciato&gt;" class="cls-28" d="M35.25,241.65c-.21-.4-.55-.33-.87-.34a6,6,0,0,1-.86-.56,1.19,1.19,0,0,1-.35-1.19c.21-.5.66-.18,1,0,1.22.54,2.52.09,3.78.41.76.2,1.23.37.77,1.37h0C37.63,242.31,36.43,241.82,35.25,241.65Z"/><path id="_Tracciato_160" data-name="&lt;Tracciato&gt;" class="cls-86" d="M36.14,206.15c.62-.32.89-.72.24-1.34-.28-.28-.87-.28-.66-1,.77.65,2.23,0,2.45,1.68,0,.91,1.78.62,1,1.81-.61.93-1-.74-1.79-.56A1.33,1.33,0,0,1,36.14,206.15Z"/><path id="_Tracciato_161" data-name="&lt;Tracciato&gt;" class="cls-87" d="M39.91,208.84c-.6-1.22,0-1.4.88-1.34a3.15,3.15,0,0,1,.72.79c.26.58.53,1.29-.21,1.72s-1-.09-1.13-.78A1.4,1.4,0,0,0,39.91,208.84Z"/><path id="_Tracciato_162" data-name="&lt;Tracciato&gt;" class="cls-70" d="M27.27,48.46a1.63,1.63,0,0,0-1.51-.71c-.53,0-1.16.35-1.6-.32A6.37,6.37,0,0,0,26,47.3C27,47,27.28,47.41,27.27,48.46Z"/><path id="_Tracciato_163" data-name="&lt;Tracciato&gt;" class="cls-88" d="M15.57,174l.07-.32c1-.08,1.19-.71.82-1.7,1.41-.6,1.35,1.11,2,1.69l2.91,2.72q.18.57.36,1.17c-.48.28-.83-.29-1.25-.19-1.57-.55-3.21-.94-3.87-3.07C16.47,173.83,15.94,174.05,15.57,174Z"/><path id="_Tracciato_164" data-name="&lt;Tracciato&gt;" class="cls-89" d="M11,114.4c-.58-1-1.6-.92-2.42-1.32-.38-.18-1.05-.08-.88-.73.13-.5.89-1.26,1.14-1,1.22,1.07,3,.33,4,1.85.42.61,1.17,1.21-.15,1.58-.53-.44-1.2.08-1.74-.34Z"/><path id="_Tracciato_165" data-name="&lt;Tracciato&gt;" class="cls-90" d="M30.17,52.45c0,.45,0,.9,0,1.35s.08.86-.39.94-.85-.34-1-.81A2.18,2.18,0,0,0,27,52.14h0c-.54-.25-.31-.94-.58-1.35,0-.1,0-.21,0-.32.1-.45.32-.77.76-.77a2.54,2.54,0,0,0,2.46,2.09Z"/><path id="_Tracciato_166" data-name="&lt;Tracciato&gt;" class="cls-67" d="M29.61,51.79c-1.42.3-2.36-.26-2.63-2-.49-.08-.88-.8-1.46-.31-.38-.28-.77-.64-.39-1.17a.75.75,0,0,1,1.06-.08c.47.36,1.12.78,1.23,1.31C27.71,51,28.74,51.24,29.61,51.79Z"/><path id="_Tracciato_167" data-name="&lt;Tracciato&gt;" class="cls-91" d="M25.52,49.48c0-.3-.07-.82.24-.85.64,0,.9.64,1.22,1.16a1.09,1.09,0,0,1-.59.68l-.86-.68C25.53,49.69,25.52,49.58,25.52,49.48Z"/><path id="_Tracciato_168" data-name="&lt;Tracciato&gt;" class="cls-92" d="M20.23,150.9h-.86c-.09-.13-.28-.13-.29-.34l-1.87-1c.82-1.26,1.82-.86,2.76-.45S20.51,150.23,20.23,150.9Z"/><path id="_Tracciato_169" data-name="&lt;Tracciato&gt;" class="cls-15" d="M19.08,150.56l.29.34c-.88-.06-1.81.46-2.62-.34Z"/><path id="_Tracciato_170" data-name="&lt;Tracciato&gt;" class="cls-28" d="M29.18,218.2c1.07.15,1.8,1.27,2.88,1.37.12.8-.36,1.07-.86,1.32l-.28,0a1.67,1.67,0,0,0-.51-.27c-.82-.18-1.58-.59-2.4-.71a.59.59,0,0,1-.59-.33C27.48,217.74,27.72,217.56,29.18,218.2Z"/><path id="_Tracciato_171" data-name="&lt;Tracciato&gt;" class="cls-93" d="M29.18,218.2c-1.07-.38-1.64.11-1.76,1.36l-.27,0c.11-2.11.32-2.35,1.73-2Z"/><path id="_Tracciato_172" data-name="&lt;Tracciato&gt;" class="cls-50" d="M30.62,220.56l.3.32c-1,.24-2.11.64-2.89-.68C29,219.68,29.76,220.47,30.62,220.56Z"/><path id="_Tracciato_173" data-name="&lt;Tracciato&gt;" class="cls-93" d="M30.62,220.56A8.15,8.15,0,0,1,28,220.2c0-.1,0-.21,0-.31C29.06,219.18,29.79,220.12,30.62,220.56Z"/><path id="_Tracciato_174" data-name="&lt;Tracciato&gt;" class="cls-84" d="M50.32,236c-.45-.07-1,.18-1.16-.68l0,0c.54-.13,1-.16,1.15.67Z"/><path id="_Tracciato_175" data-name="&lt;Tracciato&gt;" class="cls-94" d="M39.17,35.4c-.31.18-.51,1-1,.28a1,1,0,0,1,.08-1.3c.5-.33.67.32.9.69C39.17,35.18,39.17,35.29,39.17,35.4Z"/><path id="_Tracciato_176" data-name="&lt;Tracciato&gt;" class="cls-67" d="M26.4,50.79,27,52.14C26.21,52,26.45,51.33,26.4,50.79Z"/><path id="_Tracciato_177" data-name="&lt;Tracciato&gt;" class="cls-35" d="M11,114.4c.58.11,1.23-.27,1.74.34C12.14,114.62,11.49,115,11,114.4Z"/><path id="_Tracciato_178" data-name="&lt;Tracciato&gt;" class="cls-26" d="M35.25,241.65c1.15-.24,2.35.16,3.48-.33-.4.84-1,1.27-1.79.81-.51-.29-.92.2-1.39.19l-.31-.33Z"/><path id="_Tracciato_179" data-name="&lt;Tracciato&gt;" class="cls-47" d="M24.56,199.07c-.25-.65-1.3-.4-1.33-1.37a.87.87,0,0,1,.91-.87c.78.07.68,1,.91,1.52C25.18,198.68,25.07,199,24.56,199.07Z"/><path id="_Tracciato_180" data-name="&lt;Tracciato&gt;" class="cls-95" d="M50.34,236l-1.15-.67c-.11-1.09.54-1,1.14-1l.42.4c.28.24.8.31.66.86S50.72,235.89,50.34,236Z"/></g></g></g></g></svg>