<svg xmlns="http://www.w3.org/2000/svg" viewBox="0 0 52.61 263.77"><defs><style>.cls-1{fill:#005d81;}.cls-2{fill:#006486;}.cls-3{fill:#246e8e;}.cls-4{fill:#0e3b5f;}.cls-5{fill:#387896;}.cls-6{fill:#044064;}.cls-7{fill:#00486e;}.cls-8{fill:#5c8da6;}.cls-9{fill:#0f3b5f;}.cls-10{fill:#00476e;}.cls-11{fill:#13698a;}.cls-12{fill:#063f63;}.cls-13{fill:#3d7b98;}.cls-14{fill:#256f8f;}.cls-15{fill:#004e75;}.cls-16{fill:#004369;}.cls-17{fill:#00577e;}.cls-18{fill:#004f76;}.cls-19{fill:#073f64;}.cls-20{fill:#005e83;}.cls-21{fill:#0c3c60;}.cls-22{fill:#004267;}.cls-23{fill:#093d62;}.cls-24{fill:#004970;}.cls-25{fill:#083d61;}.cls-26{fill:#006084;}.cls-27{fill:#0c6688;}.cls-28{fill:#337694;}.cls-29{fill:#236e8f;}.cls-30{fill:#00446a;}.cls-31{fill:#014166;}.cls-32{fill:#005178;}.cls-33{fill:#0b3d61;}.cls-34{fill:#073e62;}.cls-35{fill:#005b80;}.cls-36{fill:#4b839f;}.cls-37{fill:#005278;}.cls-38{fill:#004d75;}.cls-39{fill:#00547b;}.cls-40{fill:#0f3a5d;}.cls-41{fill:#004368;}.cls-42{fill:#206c8d;}.cls-43{fill:#006387;}.cls-44{fill:#005179;}.cls-45{fill:#131b31;}.cls-46{fill:#005d82;}.cls-47{fill:#2c7191;}.cls-48{fill:#00587e;}.cls-49{fill:#327493;}.cls-50{fill:#00557c;}.cls-51{fill:#152a45;}.cls-52{fill:#005f82;}.cls-53{fill:#0a3d60;}.cls-54{fill:#7ba2b7;}.cls-55{fill:#00577d;}.cls-56{fill:#6491aa;}.cls-57{fill:#c1d3dc;}.cls-58{fill:#377695;}.cls-59{fill:#00537a;}.cls-60{fill:#c9d8e0;}.cls-61{fill:#6291a9;}.cls-62{fill:#096587;}.cls-63{fill:#00456b;}.cls-64{fill:#00476d;}.cls-65{fill:#00547a;}.cls-66{fill:#004469;}.cls-67{fill:#5288a2;}.cls-68{fill:#8eb0c1;}.cls-69{fill:#7aa0b4;}.cls-70{fill:#00486f;}.cls-71{fill:#dfe9ee;}.cls-72{fill:#056488;}.cls-73{fill:#588ca5;}.cls-74{fill:#00527a;}.cls-75{fill:#78a0b5;}.cls-76{fill:#a2bdcb;}.cls-77{fill:#b3c9d5;}.cls-78{fill:#186a8d;}.cls-79{fill:#4e86a0;}.cls-80{fill:#005a80;}.cls-81{fill:#407c99;}.cls-82{fill:#006487;}.cls-83{fill:#5389a3;}.cls-84{fill:#3a7996;}.cls-85{fill:#0c6689;}.cls-86{fill:#5187a1;}.cls-87{fill:#5085a1;}.cls-88{fill:#2d7392;}.cls-89{fill:#1c6b8c;}.cls-90{fill:#578aa4;}.cls-91{fill:#6895ac;}.cls-92{fill:#267090;}.cls-93{fill:#176a8c;}.cls-94{fill:#0b3959;}.cls-95{fill:#608fa8;}</style></defs><title>Risorsa 29</title><g id="Livello_2" data-name="Livello 2"><g id="Colori"><g id="_Gruppo_clip_" data-name="&lt;Gruppo clip&gt;"><g id="_Gruppo_" data-name="&lt;Gruppo&gt;"><path id="_Tracciato_" data-name="&lt;Tracciato&gt;" class="cls-1" d="M21,149.7c-.19.3.19.78-.24,1-1.19.43-2.89-.33-3.83-1.82a2.48,2.48,0,0,0-1.41-1.2c-1.24-.44-1.89-1.92-3-2.7-.34-.23-.26-.92.11-1.34.51-.26.54.73,1,.56.06-.5-.42-.55-.54-.88a.57.57,0,0,1,.09-.44c1.83-.54,2.8,1.21,4.07,2.11a13.68,13.68,0,0,1,1.51,1.75,3.57,3.57,0,0,0,2,.92l.31.37A2.2,2.2,0,0,1,21,149.7Z"/><path id="_Tracciato_2" data-name="&lt;Tracciato&gt;" class="cls-2" d="M13.37,3.38l-.3-1.22c.13-.65.27-1.29,1-1.42l.45-.05c.46.05.87.63,1.33.28,1-.75,1.55,0,2.15.7a4.66,4.66,0,0,0,3.36.26c.56.47,0,1.27.41,1.79-.13.59.12,1.33-.55,1.67-.77.09-1.46-1.06-2-.69-1.18.85-2.11-.33-3.15-.16-.17,0-.36-.14-.54-.23C14.89,3.74,14,4,13.37,3.38Z"/><path id="_Tracciato_3" data-name="&lt;Tracciato&gt;" class="cls-3" d="M50.27,246.19c-.33.4-.58-.21-.89-.09.22-1.06,0-1.74-1-2.06s-1.43-1.39-2.25-1.93a14.77,14.77,0,0,0-.86-1.51,1.69,1.69,0,0,1-.14-.45c.13-1.36.78-2,2-2a1.32,1.32,0,0,1,.39.15c.45.34.93.62,1.36,1a1.33,1.33,0,0,1,.23.38c.12.56.27,1.05.9,1.09a1.94,1.94,0,0,1,1.26.74c.33.3.58.77,1.1.61.43.48.22,1.12.3,1.69-.25.62-.15,1.77-.83,1.73-.93-.05-.08-1.23-.48-1.76s-.89-1.29-1.81-1.46c.08,1,.9,1.35,1,2.13C50.65,245.06,50.84,245.7,50.27,246.19Z"/><path id="_Tracciato_4" data-name="&lt;Tracciato&gt;" class="cls-4" d="M14.07,142c.23,0,.51-.08.61.3.11.64-.26.54-.58.46s-.82-.13-1.1.36c-1.07,1.36-1,1.87.48,2.59a1.6,1.6,0,0,1,.76.72,2.69,2.69,0,0,0,1.67,1.39,2.71,2.71,0,0,1,1.36,3.81c-2.08-1-3.55-3-5.24-4.57s-1.53-2.52,0-5a1.07,1.07,0,0,1,.62-.41A1.74,1.74,0,0,1,14.07,142Z"/><path id="_Tracciato_5" data-name="&lt;Tracciato&gt;" class="cls-5" d="M33.11,253.14a2.7,2.7,0,0,0,0-.28c.67-.2,1.34-.52,2,0,.13.42.72.11.79.64.29,1.54,1.36,2.45,2.15,3.58.29.42.79.61.92,1.19a.43.43,0,0,1-.2.38c-1.27.05-2-1.12-3.08-1.67,1.27,1.29,1.76,3.2,2.85,4.65a.76.76,0,0,1,.2.41.64.64,0,0,1-.15.42,1.4,1.4,0,0,1-1.47-.35,10.39,10.39,0,0,0-2-2.76c-.86-.73-1.38-2.25-2.17-3.35C32.41,255.2,33.22,254.12,33.11,253.14Z"/><path id="_Tracciato_6" data-name="&lt;Tracciato&gt;" class="cls-6" d="M26.37,47.23a2.42,2.42,0,0,1-1.78,1.09,3.38,3.38,0,0,1-1.73,0c-1.2-.79-2.4-1.62-3.63-2.37a1.8,1.8,0,0,1-.64-2.72c.39-1,.86-1,1.32-.09.25.47.54.91.8,1.38a1.16,1.16,0,0,0,1.21.91,3,3,0,0,1,1.87.62c.72.7,1.24.68,1.65-.43.47-1.28.82-.81,1,.19A4.35,4.35,0,0,1,26.37,47.23Z"/><path id="_Tracciato_7" data-name="&lt;Tracciato&gt;" class="cls-7" d="M22.88,140l.49-1.67c.77-1.23,1.8-1.17,2.89-.74,1.29.51,2.88.47,3.37,2.44a1.59,1.59,0,0,1,.09,1.69c-.46.2-.94.1-1.36.67-.95,1.26-1.82,1.25-3,.36C24.35,142,23.81,140.78,22.88,140Z"/><path id="_Tracciato_8" data-name="&lt;Tracciato&gt;" class="cls-8" d="M33.73,235.73l-.6-.07a2.72,2.72,0,0,0-2-2.7c-.67-.22-1.41-1.62-2-2.59.25-1.85,1-2.38,2.35-1.63.9,1.1,1.43,2.8,3.14,2.63l.51,1C35,233.64,35.09,235.1,33.73,235.73Z"/><path id="_Tracciato_9" data-name="&lt;Tracciato&gt;" class="cls-4" d="M37.82,202.22c-3.32,1.14-5.43-1.4-6.23-4.76-.17-.75.24-1.13.43-1.66.2-.21.39-.46.7-.25a1.36,1.36,0,0,1,.31,1c0,1.38.59,2.23,1.87,2.26.36.33.46.9.85,1.21s1,1.06,1.7,1.12S38.12,201.67,37.82,202.22Z"/><path id="_Tracciato_10" data-name="&lt;Tracciato&gt;" class="cls-9" d="M22.88,140a1,1,0,0,1,1.27.79,4,4,0,0,0,1.88,2,1.33,1.33,0,0,0,2.16-.79c.37-1.45.77-.84,1.31-.3a1.31,1.31,0,0,1,0,1c-.93,2.18-3.12,2.66-4.6,1-.33-.37-.57-.87-1-1.05C22.68,142.17,22.61,141.16,22.88,140Z"/><path id="_Tracciato_11" data-name="&lt;Tracciato&gt;" class="cls-6" d="M33.11,253.14c.93.16.4.74.26,1.2-.3.95-.51,1.77.63,2.29a2.16,2.16,0,0,1,.91,1.41c.17,1,.41,1.66,1.44,1.53.41-.05.53.35.57.78.06.6.17,1.19.25,1.79C35,260.64,33,259,32.23,255.92,31.88,254.54,32,253.73,33.11,253.14Z"/><path id="_Tracciato_12" data-name="&lt;Tracciato&gt;" class="cls-10" d="M33.26,67.73a2.5,2.5,0,0,1-2,2,.65.65,0,0,1-.68-.69c.08-.55.53-.71.81-1a1.45,1.45,0,0,0,.22-1.87c-.89-1.43-2.33-1.13-3.56-1.43-.57-.14-.76.57-.57,1.18s.36.91.54,1.36a1,1,0,0,1,0,.91c-.59.27-.91-.16-1.14-.65A12.08,12.08,0,0,1,25.79,65a4,4,0,0,1,1.41-2c.59-.21,1.17-.38,1.7.17,1.36.88,2.91,1.35,4.12,2.54C33.5,66.29,33,67.07,33.26,67.73Z"/><path id="_Tracciato_13" data-name="&lt;Tracciato&gt;" class="cls-11" d="M19.89,196.22l-.16,1c-2.3.05-4-2-6.11-2.46a1.1,1.1,0,0,1-.41-.59,1.62,1.62,0,0,1,.67-1.86,2.72,2.72,0,0,1,1.57-.11,2,2,0,0,1,.4.17,5.56,5.56,0,0,0,2.52,1.74,1.87,1.87,0,0,1,1.45.79.52.52,0,0,1,.18,0C20.41,195.41,19.82,195.78,19.89,196.22Z"/><path id="_Tracciato_14" data-name="&lt;Tracciato&gt;" class="cls-12" d="M16.19,60.32c-2.33,1-3.81-.79-5.47-2.12-1.24-1-1.54-2.51-1.88-4a1.4,1.4,0,0,1,.65-1.62c.64-.11.72.36.65.9a1.48,1.48,0,0,0,.25,1.37c1.51,2.1,3.13,4,5.49,4.86A.45.45,0,0,1,16.19,60.32Z"/><path id="_Tracciato_15" data-name="&lt;Tracciato&gt;" class="cls-13" d="M18.39,229.71l.86,1c.12,1.32.06,2.66.2,4-.85.65-1.69,0-2.54,0,.23-.8.63-.59,1-.35-.51-.77-2.45-.55-1.57-2.6.93-.82.93-.82-.45-1.65-.32.73.73,1,.43,1.7a.84.84,0,0,1-.8.17,2.57,2.57,0,0,1-1.32-1.8,5.43,5.43,0,0,1,.92-1.81c1.18-.44,1.73,1.14,2.77,1.14A.71.71,0,0,1,18.39,229.71Z"/><path id="_Tracciato_16" data-name="&lt;Tracciato&gt;" class="cls-14" d="M23.67,78.54a1.54,1.54,0,0,1-.83,1.52c-1.52-.37-2.73-1.6-4.25-2-.65-.16-1.3-.43-1.1-1.4s.83-1.41,1.65-1.16c1.12.35,2.43.08,3.33,1.28.11.15.36,0,.53-.15a.42.42,0,0,1,.39,0C23.74,77.23,23.41,77.94,23.67,78.54Z"/><path id="_Tracciato_17" data-name="&lt;Tracciato&gt;" class="cls-10" d="M17.65,100.47c-1.36-2-1.32-2.32.53-4.73.7-.66,1.36-.38,2,.09a15.9,15.9,0,0,1,3.22,2.6c.16.7-.23.84-.7.91a.93.93,0,0,1-.39-.15c-.38-.33-1-.38-1.14-.94-.38-1.24-1.15-1.11-2-.9-.32.07-.71,0-.74.55a1,1,0,0,0,.5.93,1.83,1.83,0,0,1,1,2.23C19.08,101.57,18.47,100.48,17.65,100.47Z"/><path id="_Tracciato_18" data-name="&lt;Tracciato&gt;" class="cls-15" d="M23,76.72c.16,1.46-.63.94-.91.43-.87-1.61-2.39-.58-3.49-1.29-.32-.2-.85.49-.9,1.08s.37.68.78.75A5,5,0,0,1,21.23,79a1,1,0,0,0,1.07.19c.68-.21.43.49.54.84l0,0c-.54.29-1.16.6-1.66.19C19.62,79,17.55,79,16.21,77.37a4.19,4.19,0,0,1,.23-2.05c.3-.44.53-1,1.15-.83a3.8,3.8,0,0,0,2.19.59C21.2,74.92,22.1,75.76,23,76.72Z"/><path id="_Tracciato_19" data-name="&lt;Tracciato&gt;" class="cls-16" d="M12.92,143c.3-1.19,1.29-.06,1.76-.69a11.56,11.56,0,0,1,6.08,5.37c-1.35.91-2-.4-2.72-1.25-1.36-1.64-2.78-3.1-4.83-3.42-.06.08-.13.11-.2.08S12.92,143,12.92,143Z"/><path id="_Tracciato_20" data-name="&lt;Tracciato&gt;" class="cls-17" d="M28.53,168.12a.25.25,0,0,0,.06-.26.35.35,0,0,1,.32-.25c2.54-1.39,4.86-.3,7.17.85l0,0c0,1.44-.86,1.36-1.71,1.16-.61-.15-1.13-.63-1.73-.82s-1.17-.46-1.84.19c1.47,1.2,3.45.28,4.69,1.81a.49.49,0,0,1-.26.59,1.9,1.9,0,0,1-.84.18,4.47,4.47,0,0,0-1.25.2,1.56,1.56,0,0,1-1.42-.29,7,7,0,0,0-1-.8c-.69-.64-1.66-.76-2.26-1.58A1.57,1.57,0,0,1,28.53,168.12Z"/><path id="_Tracciato_21" data-name="&lt;Tracciato&gt;" class="cls-18" d="M12.92,143h.29v.34c.06.3,0,.41-.3.33-.41.41-.35,1.25-.08,1.27,1.56.12,1.71,2.81,3.48,2.44.3-.07.49.16.65.51a4.15,4.15,0,0,0,3.8,2.82c-1,1.07-2.11,1.74-3.5.92.23-2.16-.17-2.82-1.89-3.65-1.19-.58-2-1.91-3-2.75S12.2,143.57,12.92,143Z"/><path id="_Tracciato_22" data-name="&lt;Tracciato&gt;" class="cls-19" d="M46.2,241.79c1.17.5,1.79,1.93,3.15,2.28.83.22.87,1.31,0,2a14.72,14.72,0,0,1-5.28-5.24,2.36,2.36,0,0,1-.14-1.73c.87-.14,1.1.62,1.38,1.31h0A9.37,9.37,0,0,0,46.2,241.79Z"/><path id="_Tracciato_23" data-name="&lt;Tracciato&gt;" class="cls-20" d="M19.92,101.14c-.25-.8-.1-1.83-1.33-1.9-.53,0-.72-1.15-.6-1.83s.64-.57,1.16-.44,1.31-.94,1.77,0,1.13,1.41,1.61,2.19c-.4.28-.83.07-1.25.07s-.65-.11-.73.3a.66.66,0,0,0,.59.78,10,10,0,0,1,2.48.67.76.76,0,0,1,.51.84c.11.26,0,.31-.21.34-1.38.33-2.58-.42-3.85-.8Z"/><path id="_Tracciato_24" data-name="&lt;Tracciato&gt;" class="cls-16" d="M35.23,171.13l.28-.35c0-.07.07-.15.1-.23.23-.24.49-.36.75-.12a.51.51,0,0,1,0,.71c-1.48,2.08-2.65,2.37-4.77,1.41a12.81,12.81,0,0,1-3.14-2.11.47.47,0,0,1,.15-.48c.86-.51,1.52.23,2.25.5a.86.86,0,0,1,.86.67c.39.68.9.63,1.45.32.31-.48.76-.28,1.16-.32C34.65,171.41,34.94,171.5,35.23,171.13Z"/><path id="_Tracciato_25" data-name="&lt;Tracciato&gt;" class="cls-21" d="M14.66,123.14c-3.27-1.58-4.75-2.75-5.14-5.92a4.38,4.38,0,0,1,3,2c.55.44,1,1.06,1.52,1.49C15.46,121.84,15.47,121.88,14.66,123.14Z"/><path id="_Tracciato_26" data-name="&lt;Tracciato&gt;" class="cls-22" d="M23.32,180.1c-2.36.58-5.6-2-6.05-4.78-.11-.7-.14-1.46.55-1.89.36.29.36.82.57,1.21.32,1.05.46,2.15,1.82,2.25.75.05,1.09,1.33,1.92,1.58C22.65,178.9,23.69,178.82,23.32,180.1Z"/><path id="_Tracciato_27" data-name="&lt;Tracciato&gt;" class="cls-23" d="M7.11,34c-3.26.46-6-1.52-7.1-5.21a.52.52,0,0,1,.57-.2,4.17,4.17,0,0,1,1.29.77c.62,1.94,2.31,2.17,3.64,3,.45.27,1,.31,1.4.76a1.8,1.8,0,0,1,.35.58A.24.24,0,0,1,7.11,34Z"/><path id="_Tracciato_28" data-name="&lt;Tracciato&gt;" class="cls-4" d="M16.21,77.37c.3-.17.57-.42.86.08.49.83,1.09,1.41,2.06,1a.53.53,0,0,1,.51.19A3.33,3.33,0,0,0,22.81,80c-1.6,1.61-3.33,1.52-5.35-.39C16.86,79.07,15.82,78.71,16.21,77.37Z"/><path id="_Tracciato_29" data-name="&lt;Tracciato&gt;" class="cls-15" d="M30.13,113.89c.35-.45,0-1.23.53-1.59.54,0,1.22-1,1.57.29,0,.43-.57.65-.45.81.46.63.33,1.94,1.55,1.74a9.15,9.15,0,0,0,2.25-.34c.62-.26,1.29-.47,1.86.22.15.3,0,.65.12,1-.08.48.07,1.08-.52,1.27C34.39,117.08,31.66,117.12,30.13,113.89Z"/><path id="_Tracciato_30" data-name="&lt;Tracciato&gt;" class="cls-4" d="M43.94,154.34c-2.54.64-4.43-.7-6-2.77-.84-1.09-.44-2.2.22-3.22,1,.09.48,1.18.87,1.66a2.89,2.89,0,0,1,.26.63c.06.92.45,1.47,1.27,1.58a3,3,0,0,0,.6,0A2.91,2.91,0,0,1,43.94,154.34Z"/><path id="_Tracciato_31" data-name="&lt;Tracciato&gt;" class="cls-10" d="M34.92,198.93c-1.46.34-2.16-.32-2.26-2.19,0-.43.12-.87-.09-1.29,0-.54.36-.69.71-.85l.48-.07a.9.9,0,0,1,1.18,0c.54.53,1.34.6,1.75,1.35.24,1.38,1.43,1.78,2.08,2.73-.22.87-.76.85-1.36.63a3.34,3.34,0,0,1-1.57-1.58c-.31-1.3-1.38-.48-2-.89-.25-.16-.2.56,0,.88.25.57,1,.44,1.22,1.05A1.74,1.74,0,0,0,34.92,198.93Z"/><path id="_Tracciato_32" data-name="&lt;Tracciato&gt;" class="cls-24" d="M12.33,115c1.91.49,3.33,1.9,4.69,3.41a1.76,1.76,0,0,1,.58,1.43.32.32,0,0,1,0,.45.7.7,0,0,1-1-.19c-.73-1.62-2.25-2.19-3.35-3.32-.6-.62-1.3.49-2,.42s-1.3-.3-.84-1.36l.58-.74C11.38,115,11.82,114.31,12.33,115Z"/><path id="_Tracciato_33" data-name="&lt;Tracciato&gt;" class="cls-25" d="M13.46,194.22l.3.33a19.61,19.61,0,0,1,3.91,2.35c.54.43.92.74.14,1.29-1.62,1.12-2.55-.45-3.5-1.39-.64-.64-1-1.57-1.87-2.09-.37-.23-.36-1-.09-1.5C13.45,192.49,13.17,193.78,13.46,194.22Z"/><path id="_Tracciato_34" data-name="&lt;Tracciato&gt;" class="cls-26" d="M20.55,23.13c-.06,1,.27,2.15-.87,2.66-1.55.35-3-.49-4.45-.71-.46-.17-1-.14-1.4-.3-1.17-.42-1.34-1.2-.53-2.42a.64.64,0,0,1,.43,0c.75,1.42,2,1.29,3.16,1.23a3.5,3.5,0,0,1,2,.39c0-.74-.76-.82-.77-1.44.38-.62.87-.79,1.41-.34.29.24.53.36.86.2A.49.49,0,0,1,20.55,23.13Z"/><path id="_Tracciato_35" data-name="&lt;Tracciato&gt;" class="cls-25" d="M30.13,113.89a15.47,15.47,0,0,0,2,1.94,8.69,8.69,0,0,0,3.73.94,5.05,5.05,0,0,1,1.14.47c-1.29,1.29-3.75,1.36-4.73-.1-.58-.87-1.87-.6-2.07-2A3,3,0,0,1,30.13,113.89Z"/><path id="_Tracciato_36" data-name="&lt;Tracciato&gt;" class="cls-27" d="M16.19,60.32a11.72,11.72,0,0,1-6.1-5.39c-.25-1.83.45-2.85,1.75-2.29a4.18,4.18,0,0,1,2.66,2.75c-.63.9-1.16-.11-1.75-.13a.54.54,0,0,0-.13-.07c-.47-.1-.61-1.37-1.18-.66-.42.52.21,1.06.63,1.44s1.1.44,1.26,1.19.69.66,1.09.91c.61,1,1.75,1,2.53,1.67,0,.08,0,.15.05.23C16.8,60.31,16.46,60.19,16.19,60.32Z"/><path id="_Tracciato_37" data-name="&lt;Tracciato&gt;" class="cls-28" d="M23.32,180.1c0-1.09-.95-.85-1.42-1.28-.53-.84-1.18-1.57-1.67-2.45a1.42,1.42,0,0,1,.42-1.6.68.68,0,0,1,1,.19,2.54,2.54,0,0,0,2.92,1.62c0,1.15.25,2.33-.6,3.25C23.82,180.07,23.6,180.21,23.32,180.1Z"/><path id="_Tracciato_38" data-name="&lt;Tracciato&gt;" class="cls-29" d="M35.51,170.78a12.58,12.58,0,0,0-4-.78,1.08,1.08,0,0,1-1.16-1.18c0-1,.73-.68,1.2-.7a3.86,3.86,0,0,1,2.29.8c.82.53,1.72.9,2.28-.48l.13,0c.56.36.2,1,.29,1.44-.16.56-.87.27-1,.88Z"/><path id="_Tracciato_39" data-name="&lt;Tracciato&gt;" class="cls-30" d="M32.28,235.09a11.76,11.76,0,0,1-5-5.57c-.35-.73.06-1.07.36-1.51.3.21.44.6.71.84.68,1.26,1.53,2.39,2.24,3.63.26.45.47.75,1,.62A1.09,1.09,0,0,1,33,234C33.13,234.52,33.34,235.39,32.28,235.09Z"/><path id="_Tracciato_40" data-name="&lt;Tracciato&gt;" class="cls-31" d="M26.21,217.33c-.9.31-1.45-.37-1.89-1.05-.7-1-1.29-2.19-1.92-3.29.71-1.12,1.35-.45,1.86.2s.84,1.31,1.29,1.95c.17.71.48,1.1,1.21.88a2.3,2.3,0,0,1,1.65.08.75.75,0,0,1,.33.57,1,1,0,0,1-.81.9C27.37,217.34,26.75,217.7,26.21,217.33Z"/><path id="_Tracciato_41" data-name="&lt;Tracciato&gt;" class="cls-32" d="M33.54,85.18c1.84.65,2.91,2.25,3.75,4.12a1.12,1.12,0,0,1-.32.64c-.44.23-1,.25-1.17-.23C35,87.9,33.43,87.39,32,86.6c-.38-.64-1.29-1.36.18-1.74C32.62,85.12,33,85.67,33.54,85.18Z"/><path id="_Tracciato_42" data-name="&lt;Tracciato&gt;" class="cls-33" d="M15.35,24.79c1.44-.23,2.71,1.12,4.19.57,0,0,.09.28.14.43a2.73,2.73,0,0,1-2.29,1c-.45-.37-1,0-1.47-.28-1.14.24-1.84-1.07-2.9-1.11C13.61,24.25,14.5,24.65,15.35,24.79Z"/><path id="_Tracciato_43" data-name="&lt;Tracciato&gt;" class="cls-34" d="M25.79,65A3.69,3.69,0,0,1,27,66.83c.23.54.4,1.17,1.08,1.17,1.06-.33,1.78.54,2.61,1,.19.22.39.44.58.67-2.08,1.1-5.52-1.17-5.79-3.81C25.42,65.48,25.67,65.28,25.79,65Z"/><path id="_Tracciato_44" data-name="&lt;Tracciato&gt;" class="cls-35" d="M39,150.7l-.28-.33a1.85,1.85,0,0,1,.1-1.81.74.74,0,0,1,1,.18,1.62,1.62,0,0,0,.7,2,7.25,7.25,0,0,0,3.61.85c-.44-.76-1.17-.81-1.77-1.13-.4-.22-1-.16-.89-1a1.54,1.54,0,0,1,1.75-.09,1.85,1.85,0,0,0,1.51,0,.4.4,0,0,1,.15,0c.53.25.5.89.71,1.37l0,1.6c-1.16.86-2.3,1.38-3.5,0-.37-.4-.81-.24-1.09.29h-.56C40,152,39.3,151.58,39,150.7Z"/><path id="_Tracciato_45" data-name="&lt;Tracciato&gt;" class="cls-36" d="M16.71,119.89c.21.36.51.32.81.25a14.28,14.28,0,0,0-.22,2.44c-.08.35-.35.3-.57.37a6,6,0,0,1-1.48-1.71c-.58-1-1.61-1.34-2.4-2-.45-.39-.89-.81-.59-1.49s.85-.42,1.28-.21A6.19,6.19,0,0,1,16.71,119.89Z"/><path id="_Tracciato_46" data-name="&lt;Tracciato&gt;" class="cls-26" d="M28.74,216.67l-.29-.32a2.32,2.32,0,0,0-1.82-.14c-.75.17-1.08-.17-1.29-.9a4.89,4.89,0,0,1-1.17-1.62c-.35-.83-1-1.22-1.77-.7-.27-.33-.65-.54-.77-1,0-.71.43-.8.91-.79s.52.4.78.59a3.51,3.51,0,0,1,2.09,2.09,1.94,1.94,0,0,0,1.13,1.21c.77.27.45-.36.38-.75a1.47,1.47,0,0,1,0-.47,1.09,1.09,0,0,1,1.24-.65,6.53,6.53,0,0,0,1,1.84c.11.53-.19.88-.39,1.29Z"/><path id="_Tracciato_47" data-name="&lt;Tracciato&gt;" class="cls-4" d="M36.08,168.46a4,4,0,0,1-2.7-.72,3.89,3.89,0,0,0-3.9.24c-.39.24-.58.3-.65-.27.36-1.85,1.81-1.15,2.77-1.57.73.6,1.62.25,2.42.59A3.32,3.32,0,0,1,36.08,168.46Z"/><path id="_Tracciato_48" data-name="&lt;Tracciato&gt;" class="cls-2" d="M24.46,176.47c-1,.64-2,1.23-2.52-.68-.12-.42-.52-1.07-1.1-.8s-.37.95-.4,1.49c-.59-.39-1.58.34-1.86-.85-.11-.45-.27-1.16.2-1.34.81-.3,1.61-1,2.55-.45a2.36,2.36,0,0,1,.34.3,2.1,2.1,0,0,0,2,1l.83,1C24.6,176.27,24.6,176.37,24.46,176.47Z"/><path id="_Tracciato_49" data-name="&lt;Tracciato&gt;" class="cls-20" d="M37.34,115.28a1.17,1.17,0,0,0-1.57-.14,4.77,4.77,0,0,1-2.53.41c-.52,0-1.2.14-1.34-.62s-.73-1.7.19-2.39c.26-.1.37.08.45.32.15,1.63.31,1.76,2,1.57,0-.71-1.39-.3-.86-1.43a3.31,3.31,0,0,1,1.89-.19c.73,0,1.2.66,1.75,1.09l.29.31C37.77,114.65,37.93,115.08,37.34,115.28Z"/><path id="_Tracciato_50" data-name="&lt;Tracciato&gt;" class="cls-22" d="M37.3,113.9c-.61.12-.93-.56-1.44-.69a4.07,4.07,0,0,0-2.67,0,.84.84,0,0,1-.81-.32l-.29-.33c-.38-.8-1,.26-1.43-.24l.27-.44c.19-.72.79-.43,1.19-.63h0c.45-.48.95-.24,1.43-.11C35,111.7,36.55,112.06,37.3,113.9Z"/><path id="_Tracciato_51" data-name="&lt;Tracciato&gt;" class="cls-37" d="M14.44,55.6c-.43-1.27-1.54-1.75-2.38-2.44-1-.88-1.69-.21-2,1.77-.59-.3-.6-.77-.3-1.33a.65.65,0,0,0-.3-1l1.19-1c.86-.36,1.4.31,2,.8.8,1.3,2.21,1.86,2.94,3.25-.22.92-.67.35-1,.22Z"/><path id="_Tracciato_52" data-name="&lt;Tracciato&gt;" class="cls-38" d="M46.79,237.12a8.33,8.33,0,0,1,4.36,3.62.33.33,0,0,1-.07.46c-.3,0-.55-.31-.82-.23-1.17.33-1.29-.61-1.45-1.52h0c-.43-.45-1-.62-1.45-1h0a1.25,1.25,0,0,0-1.55.2c-.78.61-1.25.31-1.05-.86l.6-.6C45.82,236.71,46.3,236.88,46.79,237.12Z"/><path id="_Tracciato_53" data-name="&lt;Tracciato&gt;" class="cls-39" d="M21.59,174.48c-.89-1.22-1.78.19-2.69.05-.22,0-.2.67-.18,1.05s.25.58.47.37c.72-.69.8.48,1.25.53a3.34,3.34,0,0,1,1.46,2.34,2.36,2.36,0,0,1-1.22-1.06c-.12-.27-.44-.65-.61-.61-1.74.39-1.6-1.24-1.95-2.35-.22-.84,0-1.43.8-1.46.64,0,1.14-.58,1.79-.49.54-.17.88.17,1.18.61A1.05,1.05,0,0,1,21.59,174.48Z"/><path id="_Tracciato_54" data-name="&lt;Tracciato&gt;" class="cls-40" d="M18,6.76c-1.22.24-2-1.34-3.19-1.1-.27-.5-.63-1-.24-1.61s.76-.1,1.11.15c1.36.07,2.47,1.27,3.93,1,.65-.1.73.53.42,1.14l-.3.4A2.84,2.84,0,0,1,18,6.76Z"/><path id="_Tracciato_55" data-name="&lt;Tracciato&gt;" class="cls-41" d="M20.89,40.9a9,9,0,0,1,5.17,2.63.58.58,0,0,1-.34.94,1,1,0,0,1-.42,0,2.16,2.16,0,0,1-.74-.41,2.2,2.2,0,0,1-.3-.31c-.7-1-1.64-.57-2.51-.54a1.85,1.85,0,0,1-.4-.12,1.75,1.75,0,0,1-.92-1.74C20.5,41.08,20.7,41,20.89,40.9Z"/><path id="_Tracciato_56" data-name="&lt;Tracciato&gt;" class="cls-42" d="M24.13,101.79a4.22,4.22,0,0,0-2.56-1c-.43,0-.91.09-1.2-.39A1.6,1.6,0,0,1,20,99c.2-.64.64-.26,1-.26a2.51,2.51,0,0,1,1.53.35h0c.39.66.89-.49,1.28.1.12.54-.07,1.19.41,1.6Z"/><path id="_Tracciato_57" data-name="&lt;Tracciato&gt;" class="cls-43" d="M.53,28.82H0c-.12-1.66,1-2,2-2.39.57-.26,1,0,1.43.44.11.33.4.22.6.33.62,1.41,1.87,1.27,2.93,1.6.82-.06.86,1,1.46,1.3a.36.36,0,0,1,0,.46,9.16,9.16,0,0,1-4.93-1.79,2,2,0,0,0-1.18-.71C1.47,27.64,1,28.18.53,28.82Z"/><path id="_Tracciato_58" data-name="&lt;Tracciato&gt;" class="cls-6" d="M19.82,194.9l-1.71-.35c-.5-1.09-1.65-1.19-2.32-2h0a1.8,1.8,0,0,1-.24-.35,1.9,1.9,0,0,1-.06-1.31C17.41,191.54,19.23,192.33,19.82,194.9Z"/><path id="_Tracciato_59" data-name="&lt;Tracciato&gt;" class="cls-41" d="M17.67,2c-.45-.74-.79-1.6-1.78-.56-.63.65-1.06-.19-1.41-.77C15.82-.37,17.25,0,18.64.44c.44.15.91.16,1.34.35.32.63-.12.84-.47.91C18.9,1.82,18.32,2.19,17.67,2Z"/><path id="_Tracciato_60" data-name="&lt;Tracciato&gt;" class="cls-4" d="M33.56,92.51a8,8,0,0,1-2.94-2.73,1.76,1.76,0,0,1,3.11.39c.22.42.26,1,.65,1.28.22.32.58.6.29,1.1A1.83,1.83,0,0,1,33.56,92.51Z"/><path id="_Tracciato_61" data-name="&lt;Tracciato&gt;" class="cls-44" d="M17.81,198.19c.22-.42.38-.89-.2-1-1.32-.31-2-2.06-3.51-1.95-.25,0-.32-.37-.34-.66,1.45-.08,2.52,1,3.66,1.75.35.25.65.82,1.07.28,1-1.29,1,0,1.24.64A1.76,1.76,0,0,1,17.81,198.19Z"/><path id="_Tracciato_62" data-name="&lt;Tracciato&gt;" class="cls-22" d="M39,258.52c-1.41-.87-1.93-2.74-3.22-3.76a.66.66,0,0,1,.2-1.23c1.62,1.11,2.53,3,3.58,4.64C39.57,258.77,39.3,258.7,39,258.52Z"/><path id="_Tracciato_63" data-name="&lt;Tracciato&gt;" class="cls-4" d="M17.65,100.47c.93-.56,1.55.29,2.27.67h0c.37.3.82.25,1.23.4a1.11,1.11,0,0,1,.72,1.73,3.73,3.73,0,0,1-1.66-.07C19.22,102.46,18.09,101.9,17.65,100.47Z"/><path id="_Tracciato_64" data-name="&lt;Tracciato&gt;" class="cls-21" d="M39,148.7c-.48.47-.23,1.1-.28,1.67-.63-.49,0-1.52-.61-2l.31-.65c.67-.89,1.52-.43,2.31-.41.84.47,1.85.44,2.61,1.14-.17,1.06-.74,1-1.47.81C40.94,149,40,148.39,39,148.7Z"/><path id="_Tracciato_65" data-name="&lt;Tracciato&gt;" class="cls-7" d="M14.34,230.07l1.13,1.63c.15.63.46,1.29-.3,1.7-1.07-.87-2.33-1.49-2.84-3.05a1.37,1.37,0,0,1,1-.44C13.67,229.85,14,229.7,14.34,230.07Z"/><path id="_Tracciato_66" data-name="&lt;Tracciato&gt;" class="cls-45" d="M13.44,230.38l-1.11,0c-1-1.59-.93-2.2.51-3.66,1.37-.32,1.37-.32,1,1.5a3.58,3.58,0,0,1-.09.45C13.56,229.2,13.83,229.86,13.44,230.38Z"/><path id="_Tracciato_67" data-name="&lt;Tracciato&gt;" class="cls-16" d="M23,76.72c-1.56-1.37-3.58-1-5.27-1.86-.07,0-.11-.17-.16-.26,0-.25.07-.39.31-.29A6.05,6.05,0,0,1,23,76.07c.28.14.24.37.12.62A.1.1,0,0,0,23,76.72Z"/><path id="_Tracciato_68" data-name="&lt;Tracciato&gt;" class="cls-46" d="M32.28,235.09c.51-.07.63-.43.54-1s-.46-.87-.8-.82c-2,.31-2.13-2-3.16-3.08-.32-.32-.48-.92-.92-1.2-.27-.68-.17-1.19.51-1.41.76.72.65,1.83.93,2.77.23.61,1.14.63,1.14.72,0,2,1.8,1.42,2.51,2.36.56.75.1,1.46.1,2.18C32.84,235.48,32.46,235.48,32.28,235.09Z"/><path id="_Tracciato_69" data-name="&lt;Tracciato&gt;" class="cls-47" d="M28.24,213.32l-1.16.67c-.49.21-.71-.22-1-.55A1.72,1.72,0,0,1,26,213a2.18,2.18,0,0,0-.36-1.11l-.27-.27c-.22-.36-.87-.47-.5-1.17.58-.36,1.12.12,1.68.12a8,8,0,0,1,2.06,2.68c-.07.09-.14.13-.21.1S28.24,213.34,28.24,213.32Z"/><path id="_Tracciato_70" data-name="&lt;Tracciato&gt;" class="cls-5" d="M12.7,54.93c.7-.2,1.1.66,1.74.67h0c.44.43.89.74,1.46.3.47.5,1.14.8,1.14,1.71a.65.65,0,0,1-.57.22A16.83,16.83,0,0,1,14,56.91c.11.54.89.7.46,1.36-.68,0-1.39.07-1.46-1-.05-.87-.91-.42-1.15-1A3.15,3.15,0,0,0,12.7,54.93Z"/><path id="_Tracciato_71" data-name="&lt;Tracciato&gt;" class="cls-7" d="M20,6.38c0-.62-.07-1.2-.79-.69s-1.11.25-1.42-.43c-.5-1.07-1.59-.09-2.14-.88a.22.22,0,0,1,0-.35c.93.6,2.17-.29,3,.85,1.09-1.41,1.77-.12,2.56.51C21,6.07,20.36,6,20,6.38Z"/><path id="_Tracciato_72" data-name="&lt;Tracciato&gt;" class="cls-48" d="M37.53,198.92a.78.78,0,0,0,1.17-.32q.09-.14.18-.09c.07,0,.1.05.1.08.39,1.35.36,2.56-.86,3.37-.15-.63-.34-1.12-1.07-1.14a2.29,2.29,0,0,1-1.62-.85.72.72,0,0,1,0-.64C36.08,199,36.9,199.59,37.53,198.92Z"/><path id="_Tracciato_73" data-name="&lt;Tracciato&gt;" class="cls-15" d="M34.14,91.77c-.17-.18-.41-.33-.49-.56-.71-2-1.25-2.23-3-1.43a1,1,0,0,1-.52-1c.12-.66.62-.94,1-1.34a.54.54,0,0,1,.39-.09,8.07,8.07,0,0,1,2.9,3A1.57,1.57,0,0,1,34.14,91.77Z"/><path id="_Tracciato_74" data-name="&lt;Tracciato&gt;" class="cls-30" d="M15.49,190.88a2.36,2.36,0,0,1,.29,1.34c-.59,0-1.24-.35-1.74.32-.66.34-.56,1-.58,1.68-.35-.36-.37-1.22-1.11-1l.54-2a1,1,0,0,1,1-.66c.53.24,1.12,0,1.64.3Z"/><path id="_Tracciato_75" data-name="&lt;Tracciato&gt;" class="cls-49" d="M34.63,231.37c-2.07,1.06-2.35-1.15-3.21-2.32a.28.28,0,0,1,0-.38.6.6,0,0,1,.37-.09c.63.11,1,.89,1.67.9Z"/><path id="_Tracciato_76" data-name="&lt;Tracciato&gt;" class="cls-37" d="M39,148.7a2.54,2.54,0,0,1,2.66.1c.78.45,1.22.4,1.68-.37a1.51,1.51,0,0,1,1.45,1c-.05.72-.82.85-.93.72-.66-.75-1.57-.3-2.25-.79l-.18,0a2.65,2.65,0,0,1-1.44-.2l-.12-.16C39.68,148.64,39.34,148.71,39,148.7Z"/><path id="_Tracciato_77" data-name="&lt;Tracciato&gt;" class="cls-50" d="M20.54,41.22a3.73,3.73,0,0,0,.87,1.66c-.13.5-.5.85-.62,1.35a.85.85,0,0,1-.25.33,1.76,1.76,0,0,1-.88-1.19c-.23-1.14-.68-.44-1.07-.16-.16-.61.41-.86.5-1.35C19.47,41.33,19.78,40.59,20.54,41.22Z"/><path id="_Tracciato_78" data-name="&lt;Tracciato&gt;" class="cls-33" d="M15.35,24.79a3.34,3.34,0,0,0-2.33.62c-.8-.28-.68-1.13-.84-1.81.26-.57-.07-1.26.27-1.81h0c.16-.27.31-.54.65-.5a.84.84,0,0,1,.48,1.15c-.81,1.2-.64,1.78.6,2C14.57,24.52,15,24.34,15.35,24.79Z"/><path id="_Tracciato_79" data-name="&lt;Tracciato&gt;" class="cls-51" d="M13.44,228.37c-.37-.47,1.24-1.9-.6-1.68l.31-.38c.53-.47,1.09-.14,1.64-.09,0,.77.92,1.29.43,2.19-.2.62-.3,1.31-.88,1.66l-.9.31c.2-.56-.52-1.12,0-1.68.2,0,.52.26.57-.06S13.62,228.54,13.44,228.37Z"/><path id="_Tracciato_80" data-name="&lt;Tracciato&gt;" class="cls-50" d="M15.17,233.4c.41-.49,0-1.17.3-1.7l.86,0h0c.05,1.17.05,1.17,1.82,2.44-.31.51-.95-.06-1.24.49C16.28,234.33,15.54,234.2,15.17,233.4Z"/><path id="_Tracciato_81" data-name="&lt;Tracciato&gt;" class="cls-52" d="M15.55,121.23c.43.54,1.19.78,1.18,1.72-.66.51-1.38,0-2.07.19.83-1.32-.46-1.54-.86-2.23-.28-.27-.56-.54-.34-1A4.11,4.11,0,0,1,15.55,121.23Z"/><path id="_Tracciato_82" data-name="&lt;Tracciato&gt;" class="cls-53" d="M17.65,20.38a2.92,2.92,0,0,1,2,1.06c-.51,1-1.38.52-2.09.72a2,2,0,0,1-.66-.28c-.45-.57-1.59-.11-1.58-1.39l0-.1A5.55,5.55,0,0,1,17.65,20.38Z"/><path id="_Tracciato_83" data-name="&lt;Tracciato&gt;" class="cls-24" d="M41,152.71c.23-1,.94-.82,1.35-.47.93.8,1.72,1,2.6-.05.07-.09.42.12.64.19a5.48,5.48,0,0,1-1.69,2C43.08,153.56,42.4,152.32,41,152.71Z"/><path id="_Tracciato_84" data-name="&lt;Tracciato&gt;" class="cls-54" d="M38.67,262.19c0-.1,0-.2,0-.3a2.61,2.61,0,0,1-1-1.88c-.17-1,.13-1.49,1.06-1.32.79-.13,1,.79,1.59,1.1l.08.39c-.46.46-1.22.7-.95,1.7a.86.86,0,0,1-.16.42A.38.38,0,0,1,38.67,262.19Z"/><path id="_Tracciato_85" data-name="&lt;Tracciato&gt;" class="cls-55" d="M28.53,227.72c-.54.23-.61.75-.59,1.32-.35-.24-.28-.65-.3-1a4.25,4.25,0,0,1,.91-1.54c.43-.59.93-.28,1.41-.14.32.2.74.2.9.67.07,1-.58,1-1.16,1.14A1.43,1.43,0,0,1,28.53,227.72Z"/><path id="_Tracciato_86" data-name="&lt;Tracciato&gt;" class="cls-56" d="M8.34,30.45l.07-.35c.51,2.65.31,3.25-1.3,3.93L7,33.91c.09-.66-.09-1.31,0-2C7.19,31,7.55,30.52,8.34,30.45Z"/><path id="_Tracciato_87" data-name="&lt;Tracciato&gt;" class="cls-57" d="M33.73,235.73c.81-.94.87-2.29,1.41-3.37.16.57.34,1.13.47,1.71a1.92,1.92,0,0,1-.47,1.76A.9.9,0,0,1,33.73,235.73Z"/><path id="_Tracciato_88" data-name="&lt;Tracciato&gt;" class="cls-58" d="M51.69,243.48c.6.61-.31,1.2,0,1.9.42-.46.36-1.26.88-1.59,0,1.94-.25,2.24-2.34,2.4.29-.58-.08-1.15,0-1.72A8.69,8.69,0,0,0,51.69,243.48Z"/><path id="_Tracciato_89" data-name="&lt;Tracciato&gt;" class="cls-59" d="M17.67,2c.71-.56,1.77-.25,2.31-1.23.44,0,.61.7,1.1.6a.37.37,0,0,1,.14.52c-.21.49-.52.87-1,.77C19.36,2.51,18.52,2.25,17.67,2Z"/><path id="_Tracciato_90" data-name="&lt;Tracciato&gt;" class="cls-10" d="M21.94,103.13c0-1.53-1.49-1.13-2-2,1.4,0,2.66.68,4,1l-1.4,1A.36.36,0,0,1,21.94,103.13Z"/><path id="_Tracciato_91" data-name="&lt;Tracciato&gt;" class="cls-60" d="M19.45,234.68a.85.85,0,0,0-.22-.74c-.62-.59-1-1.18-.16-2,.32-.31.16-.83.18-1.26l.89,1.7a2.59,2.59,0,0,1,0,1.65C20,234.37,19.83,234.7,19.45,234.68Z"/><path id="_Tracciato_92" data-name="&lt;Tracciato&gt;" class="cls-61" d="M38.67,262.19l.62,0a.64.64,0,0,1,.55-.17c.59.27.87-.66,1.44-.48a1.38,1.38,0,0,1-.21,2c-.66.59-1.14.13-1.64-.28-.28-.23-.53-.48-.79-.72C38.64,262.39,38.66,262.29,38.67,262.19Z"/><path id="_Tracciato_93" data-name="&lt;Tracciato&gt;" class="cls-59" d="M15.36,20.49c.29,1,1.29.29,1.71,1a1.13,1.13,0,0,1-1.39.55,1.8,1.8,0,0,0-1.6.41l-.2,0h-.31a2,2,0,0,0-.6-1c.1-.89.85-.65,1.28-1Z"/><path id="_Tracciato_94" data-name="&lt;Tracciato&gt;" class="cls-39" d="M10.34,115.88c-.09,1.06.53,1,1.15,1a7.58,7.58,0,0,1,1,2.52l-.13.17c-.66-1.24-2-1.35-2.83-2.34C9.45,116.5,10,116.29,10.34,115.88Z"/><path id="_Tracciato_95" data-name="&lt;Tracciato&gt;" class="cls-62" d="M15.22,228.41c.12-.73-.67-1.23-.35-2,0-.12.11-.18.18-.16s.12.05.12.09l1.2,1c0,1.17,1.43,1.19,1.42,2.37-.32.47-.6.19-.79-.11A3.63,3.63,0,0,0,15.22,228.41Z"/><path id="_Tracciato_96" data-name="&lt;Tracciato&gt;" class="cls-63" d="M20.71,172.85c-.56.46-1,1.09-1.85.89-.69-.17-.62.58-.74,1.06-.43-.36-.25-.9-.3-1.37l.62-.88c.82-.72,1.57-.42,2.31.2Z"/><path id="_Tracciato_97" data-name="&lt;Tracciato&gt;" class="cls-4" d="M39,198.59H38.7c-.94-.64-2.37-.79-2-2.71A4.35,4.35,0,0,1,39,198.59Z"/><path id="_Tracciato_98" data-name="&lt;Tracciato&gt;" class="cls-64" d="M15.64,4v.35c-1.85-1-.49.93-.87,1.28-.86-.44-1.71-.89-1.4-2.28C14.17,3.4,15,3.17,15.64,4Z"/><path id="_Tracciato_99" data-name="&lt;Tracciato&gt;" class="cls-31" d="M7,28.8c-1.14.91-2-.36-2.93-.61-.42-.1-.15-.65,0-1C5,27.82,6.17,27.79,7,28.8Z"/><path id="_Tracciato_100" data-name="&lt;Tracciato&gt;" class="cls-65" d="M44.76,237.78c.11.65.36,1.34,1,.6s1.11-.33,1.64.06c-1.21-.05-2,.52-2,2L44,239.13Z"/><path id="_Tracciato_101" data-name="&lt;Tracciato&gt;" class="cls-27" d="M32.44,85.14c-1.58-.06-.27.82-.32,1.26,0,0-.06.1-.1.11-.64.1-.75.22-.78.88v.07c-.28.23-.52.11-.74-.13a2.22,2.22,0,0,1-.39-1.57l.56-.73a1.66,1.66,0,0,1,2-.3l.31.34A.38.38,0,0,1,32.44,85.14Z"/><path id="_Tracciato_102" data-name="&lt;Tracciato&gt;" class="cls-66" d="M21.59,174.48c0-.37,0-.77.3-1a3.58,3.58,0,0,1,1.74,1.68C22.7,176,22.11,175.37,21.59,174.48Z"/><path id="_Tracciato_103" data-name="&lt;Tracciato&gt;" class="cls-67" d="M24.76,210.63l.88,1c-1,.51-1.54-.3-1.92-1.09s-.82-.94-1.47-.52c-.39-.33-.31-.71-.11-1.1l.6-.6c.56-.39,1,.08,1.44.31l.31.38C24.6,209.55,24.68,210.09,24.76,210.63Z"/><path id="_Tracciato_104" data-name="&lt;Tracciato&gt;" class="cls-28" d="M22.14,208.92c0,.38,0,.79.3,1.05a1,1,0,0,1,0,1.35c-.3.15-.64.26-.81.65A1.92,1.92,0,0,1,22.14,208.92Z"/><path id="_Tracciato_105" data-name="&lt;Tracciato&gt;" class="cls-24" d="M35.5,199.93a3.81,3.81,0,0,0,2.78.45L38.12,202c0,.19-.11.32-.3.26,0-.26,0-.77-.2-.7-1.12.42-1.45-.78-2.12-1.26A.2.2,0,0,1,35.5,199.93Z"/><path id="_Tracciato_106" data-name="&lt;Tracciato&gt;" class="cls-50" d="M25.46,44.23c.39,0,.57-.27.6-.7l.34.37c0,.56.65,1.13,0,1.66-.26-.14-.65-.83-.6.2,0,.79-.53,1.06-1,1.29s-.8-.37-1.07-.8a1.07,1.07,0,0,0,.14-.16C25,46.18,25,44.91,25.46,44.23Z"/><path id="_Tracciato_107" data-name="&lt;Tracciato&gt;" class="cls-37" d="M24.76,210.63c-.67-.4-.66-1-.27-1.62a5.74,5.74,0,0,1,2,1.6C25.94,211.43,25.35,210.37,24.76,210.63Z"/><path id="_Tracciato_108" data-name="&lt;Tracciato&gt;" class="cls-33" d="M30.65,87.09l.58.37c-.1.75-.73.88-1.13,1.29a1.32,1.32,0,0,1-.5-2C30.08,86.32,30.31,86.93,30.65,87.09Z"/><path id="_Tracciato_109" data-name="&lt;Tracciato&gt;" class="cls-59" d="M17.37,21.78c.77-.13,1.61.34,2.32-.34l.46.39c.3.11.27.33.13.58s.09,1.39-.51.44-1-.49-1.54-.39c-.38.33-.71.3-1-.19A.53.53,0,0,1,17.37,21.78Z"/><path id="_Tracciato_110" data-name="&lt;Tracciato&gt;" class="cls-68" d="M16.47,57.62H17A2.32,2.32,0,0,1,17,60l-.11,0c0-.67-.62-.52-.91-.82A1.15,1.15,0,0,1,15.69,58C15.81,57.43,16.15,57.56,16.47,57.62Z"/><path id="_Tracciato_111" data-name="&lt;Tracciato&gt;" class="cls-48" d="M17.79,229.72c-.47-.45-.93-.9-1.41-1.33s-.41-.69,0-1a6.21,6.21,0,0,1,2,2.36Z"/><path id="_Tracciato_112" data-name="&lt;Tracciato&gt;" class="cls-69" d="M17.3,122.58c0-.16,0-.39-.1-.47-.94-.89-.56-1.48.32-2a.61.61,0,0,1,.08-.26C17.82,120.83,18.26,121.81,17.3,122.58Z"/><path id="_Tracciato_113" data-name="&lt;Tracciato&gt;" class="cls-70" d="M33.42,229.48c-.87.64-1.17-.43-1.71-.76-.48-.76-.48-.78,0-1C32.59,227.93,33,228.74,33.42,229.48Z"/><path id="_Tracciato_114" data-name="&lt;Tracciato&gt;" class="cls-71" d="M39.8,262.21l-.51,0a1.5,1.5,0,0,1-.06-.29c0-.93,0-1.85,1.19-1.33l.25.28C41,261.78,40.86,262.39,39.8,262.21Z"/><path id="_Tracciato_115" data-name="&lt;Tracciato&gt;" class="cls-72" d="M34.14,91.77V90.1c.89.07,1,1.56,1.93,1.48a.64.64,0,0,1,.34.52c-.17.43-.58.21-.84.41s-.6.21-.87-.11Z"/><path id="_Tracciato_116" data-name="&lt;Tracciato&gt;" class="cls-30" d="M51.12,241.13l0-.39c.7.1.83.83,1.16,1.36-.71,1.52-.81-.07-1.18-.31A.5.5,0,0,1,51.12,241.13Z"/><path id="_Tracciato_117" data-name="&lt;Tracciato&gt;" class="cls-46" d="M31.75,227.69c-.39.33.05.69,0,1h-.28c-.39-.82-1.53.18-1.76-1a1,1,0,0,0,1.19-.72A1.1,1.1,0,0,1,31.75,227.69Z"/><path id="_Tracciato_118" data-name="&lt;Tracciato&gt;" class="cls-73" d="M36.41,92.1l-.26-.31c-.7-1.26-.53-1.65.84-1.8.2.64-.18,1.18-.22,1.78Z"/><path id="_Tracciato_119" data-name="&lt;Tracciato&gt;" class="cls-74" d="M28.24,213.32l.33,0,.57.7a.86.86,0,0,1-.07,1C28.16,214.85,28,214.22,28.24,213.32Z"/><path id="_Tracciato_120" data-name="&lt;Tracciato&gt;" class="cls-75" d="M24.22,100.83c-1.38,0-.5-1.07-.56-1.7a.26.26,0,0,1,.06-.36A2.66,2.66,0,0,1,24.22,100.83Z"/><path id="_Tracciato_121" data-name="&lt;Tracciato&gt;" class="cls-43" d="M40.25,259.79c-.74.26-.91-.55-1.32-.92a.25.25,0,0,1-.06-.33l.1,0a.56.56,0,0,0,.56-.35A3.72,3.72,0,0,1,40.25,259.79Z"/><path id="_Tracciato_122" data-name="&lt;Tracciato&gt;" class="cls-11" d="M15.9,55.9c-.68,1.15-1.1.62-1.46-.3.39-.16.79.37,1.18,0Z"/><path id="_Tracciato_123" data-name="&lt;Tracciato&gt;" class="cls-76" d="M40.42,260.54c-.92-.18-.9.76-1.19,1.33-.75-1.53.16-1.63,1.1-1.69Z"/><path id="_Tracciato_124" data-name="&lt;Tracciato&gt;" class="cls-76" d="M39.8,262.21c.76-.07.92-.65.87-1.39a.67.67,0,0,1,.61.69C40.8,261.78,40.71,263.13,39.8,262.21Z"/><path id="_Tracciato_125" data-name="&lt;Tracciato&gt;" class="cls-4" d="M32.44,85.14l.56-.07.54.11c-.23.34-.43.82-.85.77S32.43,85.46,32.44,85.14Z"/><path id="_Tracciato_126" data-name="&lt;Tracciato&gt;" class="cls-15" d="M30.65,87.09l-1-.32.5-1Z"/><path id="_Tracciato_127" data-name="&lt;Tracciato&gt;" class="cls-20" d="M23.72,98.77l-.06.36c-.37.17-.76,1-1.13,0a.93.93,0,0,0,.89-.7Z"/><path id="_Tracciato_128" data-name="&lt;Tracciato&gt;" class="cls-77" d="M34.94,194.54H33.76C34.15,193.94,34.55,193.38,34.94,194.54Z"/><path id="_Tracciato_129" data-name="&lt;Tracciato&gt;" class="cls-30" d="M35.53,170.8c0-.69.46-.67.88-.68q.23-.15.24.15c-.12.28,0,.66-.25.87C36.33,170.27,35.91,170.6,35.53,170.8Z"/><path id="_Tracciato_130" data-name="&lt;Tracciato&gt;" class="cls-70" d="M26.21,217.33c.58.07,1.19-.21,1.72.24C27.35,217.56,26.74,217.82,26.21,217.33Z"/><path id="_Tracciato_131" data-name="&lt;Tracciato&gt;" class="cls-2" d="M13.68,190.82l.66-.29c.37.21.88-.24,1.17.33Z"/><path id="_Tracciato_132" data-name="&lt;Tracciato&gt;" class="cls-16" d="M12.54,141.94c.35-.49.83-.22,1.25-.29l.28.34Z"/><path id="_Tracciato_133" data-name="&lt;Tracciato&gt;" class="cls-78" d="M12.92,143.66l.3-.33c.54,0,1.09,0,1.1.88a.65.65,0,0,1-.63.73C13,144.92,12.92,144.29,12.92,143.66Z"/><path id="_Tracciato_134" data-name="&lt;Tracciato&gt;" class="cls-79" d="M51.69,243.48c-.31.64-.42,1.68-1.43,1-.3-.42-.62-.83-.92-1.24s-.76-.75-.34-1.23a.88.88,0,0,1,1.31.07C50.8,242.5,51.24,243,51.69,243.48Z"/><path id="_Tracciato_135" data-name="&lt;Tracciato&gt;" class="cls-65" d="M51.12,241.13v.66c-.38-.18-.64-.71-1.1-.65-1.2.17-1.31-.65-1.22-1.69C49,241,50.31,240.64,51.12,241.13Z"/><path id="_Tracciato_136" data-name="&lt;Tracciato&gt;" class="cls-65" d="M46.2,241.79c-.69-.11-.78-.72-.86-1.35A1.58,1.58,0,0,1,46.2,241.79Z"/><path id="_Tracciato_137" data-name="&lt;Tracciato&gt;" class="cls-65" d="M47.36,238.44a1.76,1.76,0,0,1,1.45,1A1.85,1.85,0,0,1,47.36,238.44Z"/><path id="_Tracciato_138" data-name="&lt;Tracciato&gt;" class="cls-8" d="M38.87,258.54a1.75,1.75,0,0,1,.06.33c-1.27-.11-1.39.6-.92,1.72.19.44.41.86.62,1.3-.38,0-1,0-1-.48,0-1.94-1.51-2.73-2.22-4.11-.21-.4-.43-.87-.09-1.2s.51.22.74.47A7.49,7.49,0,0,0,38.87,258.54Z"/><path id="_Tracciato_139" data-name="&lt;Tracciato&gt;" class="cls-80" d="M20.54,44.56V44.2c1.22-.47,2,.52,2.89,1.15a.79.79,0,0,1,.29.87v0c-.74-.16-1.41-.6-2.24-.4S20.52,45.33,20.54,44.56Z"/><path id="_Tracciato_140" data-name="&lt;Tracciato&gt;" class="cls-55" d="M25.85,139.2a1.25,1.25,0,0,0,1.58-.14c.18-.16.62,0,.61.22a7.09,7.09,0,0,1-.42,2.79,1,1,0,0,1-1.8-.14,1.15,1.15,0,0,0-.63-.63c-.66-.21-.74-.82-.62-1.45C24.71,139.05,25.36,139.45,25.85,139.2Z"/><path id="_Tracciato_141" data-name="&lt;Tracciato&gt;" class="cls-81" d="M29.67,227.72c.45.64,1.46,0,1.76,1v.34c-1.1-.65-1.74-.23-2,1.35a4.72,4.72,0,0,1-.85-2.68Z"/><path id="_Tracciato_142" data-name="&lt;Tracciato&gt;" class="cls-10" d="M35.5,199.93v.33c-.52-.25-.6-.76-.58-1.33h0a.24.24,0,0,1,.28-.12.62.62,0,0,1,.29.46Z"/><path id="_Tracciato_143" data-name="&lt;Tracciato&gt;" class="cls-82" d="M27.77,67.34c-.24-.47-.49-.94-.72-1.42a1.53,1.53,0,0,1,.3-1.53c.32-.51.69-.35,1.14-.12.8.42,1.75.1,2.57.67.4.28.75.47.78,1,.35,1.36-.65,1.79-1.3,2.39s-1.18.22-1.67-.3A7.3,7.3,0,0,0,27.77,67.34Z"/><path id="_Tracciato_144" data-name="&lt;Tracciato&gt;" class="cls-59" d="M27.77,67.34a1.81,1.81,0,0,1,.7.11c1.85,1.08,2.47.82,3.37-1.46a1.81,1.81,0,0,1-.48,2.53c-.29.12-.44.37-.69.49-1.05.3-1.7-.8-2.61-1Z"/><path id="_Tracciato_145" data-name="&lt;Tracciato&gt;" class="cls-2" d="M15.79,192.54c.87.52,2.22.31,2.32,2A4.52,4.52,0,0,1,15.79,192.54Z"/><path id="_Tracciato_146" data-name="&lt;Tracciato&gt;" class="cls-2" d="M14,192.54c.4-1.4,1.06-1,1.74-.32,0,.1,0,.21,0,.32Z"/><path id="_Tracciato_147" data-name="&lt;Tracciato&gt;" class="cls-83" d="M16.33,231.72a.35.35,0,0,0-.08-.13,2,2,0,0,1-1-1.84c0-.26.28-.41.43-.32a16.3,16.3,0,0,1,1.81,1.21c.25.2,0,.46-.1.71-.23.7-.68.39-1.08.37Z"/><path id="_Tracciato_148" data-name="&lt;Tracciato&gt;" class="cls-63" d="M28.56,170.12v-1a4,4,0,0,1,2.33,1.34C30.1,170.45,29.37,170,28.56,170.12Z"/><path id="_Tracciato_149" data-name="&lt;Tracciato&gt;" class="cls-30" d="M33.2,171.45c-.57.46-1.12.73-1.45-.32A2,2,0,0,0,33.2,171.45Z"/><path id="_Tracciato_150" data-name="&lt;Tracciato&gt;" class="cls-30" d="M35.23,171.13c-.29,1.05-.58.52-.87,0Z"/><path id="_Tracciato_151" data-name="&lt;Tracciato&gt;" class="cls-39" d="M13.53,119.88l.27,1c-.66-.2-.9-1-1.45-1.35l.05,0C12.87,119.23,13.33,119,13.53,119.88Z"/><path id="_Tracciato_152" data-name="&lt;Tracciato&gt;" class="cls-84" d="M8.34,30.45a2.32,2.32,0,0,0-1,1.79c-.07.54.19,1.24-.35,1.67,0-.13-.09-.26-.14-.4a1.83,1.83,0,0,0-1.53-1.26c-1-.13-1.81-1.17-2.91-1.28-.46,0-.28-.73-.35-1.14a.89.89,0,0,1,.11-.43c.35-.29.78-.43,1.07-.83a.91.91,0,0,1,.16-.11Z"/><path id="_Tracciato_153" data-name="&lt;Tracciato&gt;" class="cls-85" d="M2.26,29.49c0,.69,0,1.26.86,1.37C4.18,31,5,32,6.2,32c.47,0,.65.87.7,1.5a12.16,12.16,0,0,0-3.54-1.82,3,3,0,0,1-1.68-2.2A.37.37,0,0,1,2.26,29.49Z"/><path id="_Tracciato_154" data-name="&lt;Tracciato&gt;" class="cls-84" d="M2.26,29.49H1.68a1.74,1.74,0,0,1-1.15-.67c.06-1.54.77-1.61,1.76-1,0,.05-.07.11-.11.17-.85.58.37,1,.1,1.51Z"/><path id="_Tracciato_155" data-name="&lt;Tracciato&gt;" class="cls-24" d="M39,150.7a3.36,3.36,0,0,1,1.45,2C39.64,152.38,38.77,152.09,39,150.7Z"/><path id="_Tracciato_156" data-name="&lt;Tracciato&gt;" class="cls-20" d="M35.5,199.26l-.29-.34c-.25-.71-1-.35-1.36-.77s-.72-.89-.43-1.44.87-.15,1,.2c.4.82,1.16.22,1.61.67.33.68,1,.88,1.45,1.34C37,200.24,36.27,199.91,35.5,199.26Z"/><path id="_Tracciato_157" data-name="&lt;Tracciato&gt;" class="cls-48" d="M36.08,197.58a1.57,1.57,0,0,1-1.69-.48c-.2-.22-.5-.72-.81-.2s.12.68.32,1c.33.54,1.26,0,1.31,1h-.28c-.69-.53-1.87-.46-1.74-1.95a2.17,2.17,0,0,1,.12-.78.35.35,0,0,1,.61,0C34.26,197.49,36.36,195.09,36.08,197.58Z"/><path id="_Tracciato_158" data-name="&lt;Tracciato&gt;" class="cls-49" d="M13.53,119.88c-.29-.49-.75-.27-1.14-.37.14-1.08-1.43-1.38-.9-2.64,1-.78,1.9-1.05,2.74.31.67,1.08,2.23,1.09,2.48,2.71a8.91,8.91,0,0,0-3.44-2c-.28-.07-.66-.53-.83.1a.67.67,0,0,0,.5.86c.86.25,1.33,1.26,2.23,1.45.44.09.36.58.38,1A3,3,0,0,1,13.53,119.88Z"/><path id="_Tracciato_159" data-name="&lt;Tracciato&gt;" class="cls-28" d="M17.36,22.13c.21.39.55.32.87.33a5.52,5.52,0,0,1,.86.56,1.15,1.15,0,0,1,.35,1.19c-.21.5-.65.18-1,0-1.22-.55-2.52-.1-3.77-.42-.77-.2-1.24-.37-.78-1.37h0C15,21.46,16.18,22,17.36,22.13Z"/><path id="_Tracciato_160" data-name="&lt;Tracciato&gt;" class="cls-86" d="M16.47,57.62c-.62.32-.88.72-.24,1.35.28.27.87.27.66,1-.77-.65-2.23,0-2.45-1.68,0-.91-1.78-.62-1-1.81.6-.93,1,.75,1.78.56A1.34,1.34,0,0,1,16.47,57.62Z"/><path id="_Tracciato_161" data-name="&lt;Tracciato&gt;" class="cls-87" d="M12.7,54.93c.6,1.22,0,1.41-.87,1.34-.25-.26-.59-.46-.73-.79-.26-.58-.53-1.29.21-1.71s1,.09,1.13.77A1.4,1.4,0,0,0,12.7,54.93Z"/><path id="_Tracciato_162" data-name="&lt;Tracciato&gt;" class="cls-70" d="M25.34,215.31a1.62,1.62,0,0,0,1.51.71c.53,0,1.16-.35,1.6.33a6.4,6.4,0,0,0-1.81.12C25.64,216.82,25.33,216.36,25.34,215.31Z"/><path id="_Tracciato_163" data-name="&lt;Tracciato&gt;" class="cls-88" d="M37,89.77l-.06.32c-1,.08-1.2.72-.83,1.7-1.4.61-1.35-1.11-2-1.69l-2.9-2.71-.36-1.17c.48-.28.82.28,1.24.18,1.58.55,3.22.95,3.88,3.08C36.14,89.94,36.68,89.72,37,89.77Z"/><path id="_Tracciato_164" data-name="&lt;Tracciato&gt;" class="cls-89" d="M41.63,149.37c.58,1,1.61.92,2.43,1.32.38.18,1,.08.88.74-.13.49-.9,1.26-1.15,1-1.22-1.07-3-.34-4-1.85-.41-.61-1.17-1.22.15-1.58.53.43,1.21-.09,1.74.33Z"/><path id="_Tracciato_165" data-name="&lt;Tracciato&gt;" class="cls-90" d="M22.44,211.32V210c0-.36-.08-.85.38-.93a.9.9,0,0,1,1,.8,2.18,2.18,0,0,0,1.85,1.79h0c.54.25.31.94.58,1.35,0,.1,0,.21,0,.32-.1.46-.31.77-.76.78A2.54,2.54,0,0,0,23,212Z"/><path id="_Tracciato_166" data-name="&lt;Tracciato&gt;" class="cls-67" d="M23,212c1.42-.29,2.37.26,2.63,2,.49.08.88.8,1.47.31.37.29.76.64.39,1.17a.76.76,0,0,1-1.07.08c-.47-.35-1.12-.78-1.22-1.3C24.9,212.81,23.88,212.53,23,212Z"/><path id="_Tracciato_167" data-name="&lt;Tracciato&gt;" class="cls-91" d="M27.1,214.29c-.05.31.06.83-.24.85-.65.05-.91-.64-1.23-1.16a1.12,1.12,0,0,1,.59-.68l.86.69C27.09,214.09,27.09,214.19,27.1,214.29Z"/><path id="_Tracciato_168" data-name="&lt;Tracciato&gt;" class="cls-92" d="M32.38,112.87h.86c.09.13.28.13.29.34l1.87,1c-.82,1.26-1.82.87-2.75.45S32.11,113.54,32.38,112.87Z"/><path id="_Tracciato_169" data-name="&lt;Tracciato&gt;" class="cls-15" d="M33.53,113.21l-.29-.34c.88.06,1.81-.46,2.62.34Z"/><path id="_Tracciato_170" data-name="&lt;Tracciato&gt;" class="cls-28" d="M23.44,45.57c-1.08-.15-1.8-1.26-2.89-1.37-.12-.79.36-1.06.86-1.32l.28,0a1.57,1.57,0,0,0,.51.27c.82.18,1.58.59,2.41.72a.57.57,0,0,1,.58.32C25.13,46,24.9,46.21,23.44,45.57Z"/><path id="_Tracciato_171" data-name="&lt;Tracciato&gt;" class="cls-93" d="M23.44,45.57c1.06.38,1.63-.11,1.75-1.36l.27,0c-.11,2.12-.32,2.35-1.73,2Z"/><path id="_Tracciato_172" data-name="&lt;Tracciato&gt;" class="cls-50" d="M22,43.22l-.3-.32c1-.25,2.12-.64,2.89.67C23.65,44.09,22.86,43.3,22,43.22Z"/><path id="_Tracciato_173" data-name="&lt;Tracciato&gt;" class="cls-93" d="M22,43.22a8.14,8.14,0,0,1,2.59.35l0,.32C23.56,44.59,22.82,43.65,22,43.22Z"/><path id="_Tracciato_174" data-name="&lt;Tracciato&gt;" class="cls-84" d="M2.29,27.79c.45.07,1-.19,1.16.67l0,0c-.54.12-1,.15-1.15-.68Z"/><path id="_Tracciato_175" data-name="&lt;Tracciato&gt;" class="cls-94" d="M13.44,228.37c.31-.18.51-1,1-.28a1,1,0,0,1-.09,1.3c-.49.33-.66-.32-.89-.69Z"/><path id="_Tracciato_176" data-name="&lt;Tracciato&gt;" class="cls-67" d="M26.21,213c-.19-.45-.38-.9-.58-1.35C26.4,211.75,26.17,212.45,26.21,213Z"/><path id="_Tracciato_177" data-name="&lt;Tracciato&gt;" class="cls-35" d="M41.63,149.37c-.58-.1-1.23.27-1.74-.33C40.47,149.15,41.12,148.76,41.63,149.37Z"/><path id="_Tracciato_178" data-name="&lt;Tracciato&gt;" class="cls-26" d="M17.36,22.13c-1.15.23-2.34-.17-3.48.32.41-.84,1-1.27,1.79-.81.52.29.93-.2,1.4-.18l.3.32Z"/><path id="_Tracciato_179" data-name="&lt;Tracciato&gt;" class="cls-47" d="M28.05,64.7c.26.65,1.31.4,1.33,1.37a.86.86,0,0,1-.91.87c-.78-.07-.68-1-.9-1.52C27.44,65.09,27.54,64.76,28.05,64.7Z"/><path id="_Tracciato_180" data-name="&lt;Tracciato&gt;" class="cls-95" d="M2.27,27.81l1.15.68c.11,1.08-.53,1-1.14,1l-.42-.4c-.28-.23-.8-.31-.66-.86S1.89,27.89,2.27,27.81Z"/></g></g></g></g></svg>