<svg xmlns="http://www.w3.org/2000/svg" viewBox="0 0 38.7 168.17"><defs><style>.cls-1{fill:#89cbcb;}.cls-2{fill:#bfe1e2;}.cls-3{fill:#40b3b2;}.cls-4{fill:#72c3c2;}.cls-5{fill:#6bc1bf;}.cls-6{fill:#7cc5c5;}.cls-7{fill:#48b5b3;}.cls-8{fill:#82c8c8;}.cls-9{fill:#20abaa;}.cls-10{fill:#4eb5b6;}.cls-11{fill:#d3eaea;}.cls-12{fill:#30afae;}.cls-13{fill:#34afae;}.cls-14{fill:#aedad9;}.cls-15{fill:#61bcbb;}.cls-16{fill:#36b1b0;}.cls-17{fill:#1cadab;}.cls-18{fill:#bee2e2;}.cls-19{fill:#4fb7b5;}.cls-20{fill:#3db1b0;}.cls-21{fill:#70c2c1;}.cls-22{fill:#8ecdcb;}.cls-23{fill:#cee8e7;}.cls-24{fill:#44b4b3;}.cls-25{fill:#27acab;}.cls-26{fill:#64bdbc;}.cls-27{fill:#def0f0;}.cls-28{fill:#eaf5f5;}.cls-29{fill:#56b9b7;}.cls-30{fill:#35b0af;}.cls-31{fill:#8dcdcd;}.cls-32{fill:#d1e9e9;}.cls-33{fill:#c4e4e4;}.cls-34{fill:#79c5c3;}.cls-35{fill:#acdad9;}.cls-36{fill:#95d0d0;}.cls-37{fill:#5cbaba;}.cls-38{fill:#22acab;}.cls-39{fill:#4ab5b4;}.cls-40{fill:#70c2c2;}.cls-41{fill:#3bb2b1;}.cls-42{fill:#8acbcb;}.cls-43{fill:#84c8c9;}.cls-44{fill:#a2d5d6;}.cls-45{fill:#c7e4e5;}.cls-46{fill:#b5dddc;}.cls-47{fill:#5ebaba;}.cls-48{fill:#73c3c2;}.cls-49{fill:#92cfcf;}.cls-50{fill:#74c4c3;}.cls-51{fill:#50b8b6;}.cls-52{fill:#65bebd;}.cls-53{fill:#a0d4d4;}.cls-54{fill:#46b4b3;}.cls-55{fill:#6ec1c0;}.cls-56{fill:#9dd3d3;}.cls-57{fill:#81c8c7;}.cls-58{fill:#77c5c4;}.cls-59{fill:#76c4c4;}.cls-60{fill:#98d1cf;}</style></defs><title>Risorsa 12</title><g id="Livello_2" data-name="Livello 2"><g id="Colori"><g id="_Gruppo_clip_" data-name="&lt;Gruppo clip&gt;"><g id="_Gruppo_" data-name="&lt;Gruppo&gt;"><path id="_Tracciato_" data-name="&lt;Tracciato&gt;" class="cls-1" d="M29.39,162.71l.53-.29c-1.12-.51-1.63-1.07-1.63-2a10,10,0,0,0-1.47-4.27c-.52-1-.53-1.65,1.14-2.24,1.43-.5,1.8-1.32,1.07-2.17-.59-.68-.42-1.51-.9-2.06-1.55-1.73-.1-3.57-1.05-5.28-.33-.58-.09-1.17.5-1.69s.86-.85.59-1.38a17.14,17.14,0,0,0-2.83-3.4c-.66-.51-1.66-1.37.59-1.86,1.24-.27,1-1.14.36-1.5-2-1.08-1.84-2.55-2.51-3.87-.28-.55-.28-1.21-1.77-1.15-.7,1.33-2.74,2.59,0,4.13-3.15-.35-3.22-.45-2.11-1.62.93-1-.6-1.65-1.26-2.34s-2.24-.41-3.49-.2c-.77.13-1.31.94-2.36.27-2,.41-2.92,1.75-1.64,2.49.85.5,1.36,1,1.2,1.66-.09.41.18.82.85,1,2.37.62,1.89,1.56.87,2.51-.25.24-.05,1.21-1.51.45-.44-.23-1.7,0-1.5.46.42.88-.32,1.16-1.49,1.51a1,1,0,0,0-.83,1.31c.35,1.14-.49,2.33.59,3.44.24.25.1.59-.07.86C7.93,147.6,8.49,149.81,8,152c-.09.38,0,.85-.49,1.11-1.79,1-1.17,1.9-.16,2.88.9.27,1.89,0,1.74-.4-.52-1.38,1.19-1.37,2.66-1.58a3.26,3.26,0,0,0,.9-.28c-.09.19.22-.08.17,0-.88,2,.91,3.24,3.74,4.11,1.1.34,1.84-.05,1.73-.77-.07-.44-.51-.83-.84-1.22C15.92,154,15.9,152,15,150.12c-.16-.33.35-.6.37-.82-.38.56-.07,1.14.59,1.69.47.4.79,1,1.83.9s.8-.72,1-1.17c.53-1.08,2-1.7,3.87-1.89a5.36,5.36,0,0,0,2.36-.51c-2.57,1.4-2,3-1.66,4.69.2,1-1.12,2.28-2.29,3.32-.95.84-1.2,1.63.7,2.2.72.21.73.63.92,1a2.09,2.09,0,0,0,1.91,1.25c1.54-.15,1.43.53,1.73,1.06C26.81,162.67,27.51,163.36,29.39,162.71Z"/><path id="_Tracciato_2" data-name="&lt;Tracciato&gt;" class="cls-2" d="M38,10.06c.21-.43-.09-.8-.45-1.17-.6-.44.11-1-.51-1.49-1.29-1.64-1.08-3.63-3.63-5a9.08,9.08,0,0,1-1.55-1.16,4.62,4.62,0,0,0-2.6-.59A9.28,9.28,0,0,0,27,.52c-1.06.37-.53.77.07,1.05a32.84,32.84,0,0,0,3.46,1.75c2.58.92,2.35,2.44-.32,3.12-.79.2-1.48.51-2.31.66-1.21.22-2.41.45-2.78-.6-.1-.28-.3-.59-1-.58s-1.31.19-1.38.55c-.16.8-1,1-2.23,1.08a1.14,1.14,0,0,0-.68.2C18.68,9,16.25,9,14.3,9.4c-1.36.28-.57,1.34-2,1.48-.72.62-1.41,1.24-.86,2,1.5.3,1.37-.46,2-.73,0,.15.2.44.67.64s1.17.41,1.74.64a3,3,0,0,0,2.76.22c.95-.5,1.07-1.09.39-1.71-.37,0,.33-.26.06-.13-.11.06,0,.07.16.12a3.41,3.41,0,0,0,1.52.07c3.05-.71,6-.11,9,.22,1.6.17,2.88.36,3-1,0-.73,1.22-1.36,1.31-2.17,0-.33.63-.63,1.3-.6s.63.51.88.79a2,2,0,0,0,.47.55,1.82,1.82,0,0,0,.83.37A1.33,1.33,0,0,0,38,10.06Z"/><path id="_Tracciato_3" data-name="&lt;Tracciato&gt;" class="cls-3" d="M2.54,119.39c0,.29-.07.58-.1.87,1.53,2.57,1,5.09-.52,7.6a48.42,48.42,0,0,0-.32,7.22c0,.6-.5,1.21-.77,1.81.56.57-.07,1.23.42,1.8l-.36,5.87c2.27,1.81,1.36,3.77.77,5.7-.17.56-.84,1.06-1,1.64-.07.29-.18.59.14.86a1.88,1.88,0,0,1-.53,1.78,1.57,1.57,0,0,0,0,1.75l.56.28a1.5,1.5,0,0,0,.78.15c1.85-.38,2.73-1.1,2.51-2.23a7.81,7.81,0,0,1,.51-3.74c.47-1.58-.07-3.17.14-4.75a1,1,0,0,0-.07-.47,3.7,3.7,0,0,1-.2-4.79c1.73-2.5.9-5.14.35-7.72a5.36,5.36,0,0,1-.1-2.75,4.07,4.07,0,0,0,.1-2.6c-.08-.24-.2-.52,0-.73,2.46-2.81.88-5.94,2.26-8.83a.94.94,0,0,0-.08-.86c-.72-1.44-1.7-2.86-1.34-4.41.11-.48-.37-.83-1.1-1.07-1.49,0-1.25.63-1.32,1.1a4.85,4.85,0,0,0,.88,3.55C5.07,117.82,4.53,118.65,2.54,119.39Z"/><path id="_Tracciato_4" data-name="&lt;Tracciato&gt;" class="cls-4" d="M1.34,156.57H.85l-.62,1.49a4.43,4.43,0,0,0,.71,2.32l.42.28c.61.81-1,2,1.43,2.49.93-.05,1.08-.44,1.07-.84a23.53,23.53,0,0,0,.24-2.77,2.47,2.47,0,0,1,1.41-2.71c.77-.46,1.28-1.16.94-1.77-.69-1.27.1-2.39.68-3.55a2.33,2.33,0,0,0,.35-1.73,3.37,3.37,0,0,1,1.24-4.06A1.06,1.06,0,0,0,8.78,144c-1.18-1.26-.69-2.48.31-3.64.59-.69.7-1.3.16-1.95a6.11,6.11,0,0,1-1.14-3.7,17.91,17.91,0,0,1,.12-5.17c0-.15-.13-.34,0-.43,2.71-1.75-.14-3.48-.05-5.22,0-.14-.34-.2-.59-.24a2.31,2.31,0,0,0-1.09.37A16.82,16.82,0,0,0,5,133.34c.3,3.33,1.38,6.75-.49,10.08-.43.78-.11,1.54-.1,2.31h0a10.29,10.29,0,0,1-.32,6.66,4.23,4.23,0,0,0,0,2.44C4.35,155.88,3.29,156.53,1.34,156.57Z"/><path id="_Tracciato_5" data-name="&lt;Tracciato&gt;" class="cls-5" d="M7.51,32.1v2.59c1,1.82,1.87,3.65.75,5.56a1,1,0,0,0-.15.87,8.11,8.11,0,0,1-.35,4.93A9.21,9.21,0,0,0,8,52.13c.67,1.94-.73,3.94.07,6,.38,1-1.32,2-2.9,2.62-1,.57,0,1.27-.38,1.88.11.54-.2,1.11.43,1.61a.92.92,0,0,0,.43.11.75.75,0,0,0,.24,0c1-.49.44-1.35,1.38-1.86a4.79,4.79,0,0,0,.72-.7c.47-.91,2.37-1.12,3-2a1.54,1.54,0,0,0,.25-.65A2.1,2.1,0,0,0,11,57.79c-.2-.31-.71-.73-.28-1,2.22-1.19.92-2.52.65-3.82s-1.1-2.26-1.22-3.43c-.66-1.39.16-2.73.46-4.09a21.61,21.61,0,0,0,2.14-4.59,3.75,3.75,0,0,0-.43-3.71C11,35.52,11.2,33.8,11.19,32.08a20.54,20.54,0,0,0,.06-2.48c-.17-1.24-.62-1.33-2.7-.59-.53.27-.65.68-1.06,1v0C6.9,30.7,8.4,31.4,7.51,32.1Z"/><path id="_Tracciato_6" data-name="&lt;Tracciato&gt;" class="cls-6" d="M27.82,141.32a1,1,0,0,1-.62,1.07c-1,.47-1.11,1.1-.91,1.73.38,1.17,0,2.38.23,3.49a6.92,6.92,0,0,0,1.75,4c.85.86.7,1.58-.49,2.06-2.15.87-1.82,1.16-1.48,2.64s1.91,3.06,1.23,4.72c-.43,1.08.83,1.35,2.39,1.39l.85,0c.77-.28.32-.7.39-1.06-1.65-.87-1.6-2-1.6-3.17,0-.62,0-1.24,0-1.86a5.84,5.84,0,0,1,.39-2.75,2.69,2.69,0,0,0-.4-2.72c-.64-1-.81-2,.86-2.79,1.13-.55,1-1.22-.18-1.72s-1.36-1.33-1-2.1c.92-2.29,0-4.51-.74-6.74,0-.09-.24-.2-.2-.26,1.12-1.58.17-3.17.27-4.75.05-.93.12-1.62-1.08-2.26,3.11-1.06,3.31-1.28,2.51-2.7-1.59.18-2.82.84-4.46,1a1.26,1.26,0,0,0-1.3,1.29A5.46,5.46,0,0,0,26,134c.84.85,1.13,1.57,0,2.39-.61.42-.88,1-.38,1.51C26.64,139,26.8,140.25,27.82,141.32Z"/><path id="_Tracciato_7" data-name="&lt;Tracciato&gt;" class="cls-7" d="M4.93,61c3.87-1,5.25-3.34,3-5.18-.31-.25-.7-.57-.15-.75,2.38-.78,1.46-2.06,1-2.94-1.33-2.44-.73-4.8,0-7.2.1-.34.33-.68.25-1-.59-2.7,1.16-5.4.06-8.12-.23-.58,0-1.22-1.56-1.14L7,35.26c-.65.57.08,1.26-.49,1.83l-.12,1.42c-.44.46.13,1-.42,1.47l0,0c0,.81-.47,1.64.4,2.41.25.22,1.58-.45,1.09.48-.4.76.09,1.63-.7,2.46-.39-.32-.25-.73-.72-1a.52.52,0,0,0-.58.08c0,1.34,0,2.68,0,4a.94.94,0,0,0,.66-.16.59.59,0,0,0,.17-.56c.18.11.1.25.14.39a8.82,8.82,0,0,1,0,4.91,3.83,3.83,0,0,0,0,2.88c.76,1.63.38,3.07-1.8,4.28C4.65,60.48,4.5,60.78,4.93,61Z"/><path id="_Tracciato_8" data-name="&lt;Tracciato&gt;" class="cls-8" d="M8.48,29.4l2.1-.82a10.07,10.07,0,0,1,0,2.53c-.39,1.4,0,2.79.07,4.18s2.45,2.89,1.59,4.45c-.75,1.36.14,2.9-1.53,4.11-.74.53-.54,1.1-.61,1.67a5.52,5.52,0,0,0,4.27-.08c1.15-.66.83-1.49,0-2.28-.66-.64-.25-1.25.75-1.66,2.09-.87,1.75-1.79.55-2.89a9.44,9.44,0,0,1-3.34-7.39,5,5,0,0,1,1.49-5c.37-1,1.43-2.06-.9-2.78-.64,0-1,.16-1.15.5.38,1.61-.09,3-3,3.75l-.18.57C8.23,28.62,8,29,8.48,29.4Z"/><path id="_Tracciato_9" data-name="&lt;Tracciato&gt;" class="cls-9" d="M3.32,85.37l-.44,4.92c.53.67,0,1.41.36,2.09l.12.62c-.35.8-.6,1.59.3,2.34a1.44,1.44,0,0,0,.8,0c1-1,1.06-2.23,2-3.28a.58.58,0,0,0,0-.85c-2-1.77-.34-3.46.29-5.17.26-.71.75-1.41-.05-2.1.09-.19-1.06.13-.42-.31a4.85,4.85,0,0,0-.43-2.88,1.26,1.26,0,0,1,.32-1.69c1.06-.9.81-1.74-.13-2.59a2.33,2.33,0,0,0-.49-.33,2.61,2.61,0,0,0-1.49,0c-.49.19-.3.55-.62.78l0,7A1.9,1.9,0,0,0,3.32,85.37Z"/><path id="_Tracciato_10" data-name="&lt;Tracciato&gt;" class="cls-10" d="M36.53,100.87c.23-1.17.94-2.32.34-3.52-1-.71-1.24-1.94-3.66-1.62-.25.27-.37.62-.06.83,1.8,1.18.93,2.34,0,3.49a1.89,1.89,0,0,0-.37,1.68c.21,1.26.28,2.51-1.24,3.59-1.16,1.21-1.55,2.36.5,3.44.6.31.78.84.42,1.23-1.84,2-.88,4,0,5.94s.12,3.45-.32,5.17c-.17.62-.44,1.26.58,1.76a1.65,1.65,0,0,0,.77.08c1.06-1.15,1.07-2.53,2.51-3.59v-1.19c-1.45-2-2.21-4-1.33-6.2.64-1.58,1.18-3.18-1.27-4.51-.54-.3-.26-.63,0-.94.86-1.46,2-2.88,1.88-4.47C35.23,101.52,35.67,101.11,36.53,100.87Z"/><path id="_Tracciato_11" data-name="&lt;Tracciato&gt;" class="cls-7" d="M37.27,90.62l-.21-6.15c-.78-1.92-.66-3.92-1.72-5.82s-1.45-3.78.11-5.68a1.12,1.12,0,0,0-.1-1.56c-.86-.42-1.18,0-1.6.32a1.14,1.14,0,0,0-.29.42,5.11,5.11,0,0,1-1.1,2.32A1.51,1.51,0,0,0,32,76.26a7.28,7.28,0,0,1,1.24,3.28c-.93,1.42.57,2.72.7,4.09a22,22,0,0,1-.47,4.77,1.51,1.51,0,0,0,.14,1.44c.92,1.22.68,2.47.42,3.72a.76.76,0,0,0,.2.45c1.14.47,1.59-.19,2.27-.45Z"/><path id="_Tracciato_12" data-name="&lt;Tracciato&gt;" class="cls-11" d="M26.67.68h2.61C28.72.26,27.91.43,27.19.38A2,2,0,0,0,25.75.32c-1.88.83-4.34.88-6.32,1.55a2.6,2.6,0,0,0-1.34.76c-.27.74-1,1.53.61,2.1a5.64,5.64,0,0,0,4.47.17A6,6,0,0,1,28,5.09a2.56,2.56,0,0,0,2.86,0c.84-.63,0-1.35-1-1.93C28.51,2.45,26.89,1.81,26.67.68Z"/><path id="_Tracciato_13" data-name="&lt;Tracciato&gt;" class="cls-12" d="M34.73,140.18c1-1.44.41-3,1-4.46a1.49,1.49,0,0,0-.07-1.43l-.06-.89c.54-1.09.14-2.2.25-3.3,0-.36-.18-.7-.85-.79a1.27,1.27,0,0,0-1.14.48c-.88.84-1.7,1.67-1.58,2.7a2.08,2.08,0,0,1-.26,1.58,3.39,3.39,0,0,0-.61,1.4C32,137,33.3,138.39,33,140c.13.35.28.7-.34,1a3.46,3.46,0,0,0-1.49,1.3.63.63,0,0,0,.13.62c1,.56,1.75,1.32,3.5,1a1.42,1.42,0,0,0,0-1.09l0-.63A3.58,3.58,0,0,0,34.73,140.18Z"/><path id="_Tracciato_14" data-name="&lt;Tracciato&gt;" class="cls-13" d="M5,60.16c2.27-.64,3.64-2.46,2.57-3.86C6.65,55.14,7,54,7.21,52.88,7.59,51,8,49,6.3,47.17c-.66.42-.06,1-.81,1.27-.71.66-.4,1.34-.32,2.05,0,.46.63,1-.24,1.47-.64,1.42-.14,2.87-.28,4.31a5,5,0,0,1-.19,1.58l.13,2C4.57,60,4.7,60.13,5,60.16Z"/><path id="_Tracciato_15" data-name="&lt;Tracciato&gt;" class="cls-14" d="M24.19,165.64l2.07-.59c.35-.51,1.41-.84,1.11-1.5-1.77-.54-2.15.39-3.1,1-.94-.81-2.17-.8-3.82-.73-1.82.08-3.69-.42-5.63-.05-.52.1-1-.34-1.4-.57-3.24-1.71-4.81-1.76-8.52-.27a2.77,2.77,0,0,1-1.19.21,2.28,2.28,0,0,0-1,.22c0,1,.67,1.39,2.4,1.07,2.7-.74,4.44-.73,6.29.43,1.4.88,3.27,1,4.95,1.41a1.55,1.55,0,0,0,1,0c1.35-1.05,3-.28,4.52-.26C22.66,165.94,23.4,165.73,24.19,165.64Z"/><path id="_Tracciato_16" data-name="&lt;Tracciato&gt;" class="cls-15" d="M28.87,156.26c.13,1.45-.3,2.91.47,4.34.29.54.44,1,1.65.65.28-.05.29-.22.47-.32,0-.09-.08-.19-.11-.28a1.93,1.93,0,0,1-.64-.91c.39.18.31.51.77.64.92-.62.27-1.37.52-2,.22-.25-.07-.36-.39-.47-1.84-.65-1.84-.81,0-2.31a1.55,1.55,0,0,0,.3-.4,4,4,0,0,0,.05-2.21,2,2,0,0,0-.16-.45c-.22-.43-.37-.92.12-1.26,1.61-1.11,1.09-2.5,1.63-3.74.28-.64,0-1.3-.93-1.74-2.09-1-1.78-2.3-1.41-3.6.18-.64.79-1.33-.66-1.77a.92.92,0,0,0-.57.31c-.44,1-.57,2-.94,3s-.17,2,1.38,2.76c1.16.57,1,1.19-.15,1.72-1.28.6-1.42,1.22-.95,2.16A5.45,5.45,0,0,1,28.87,156.26Z"/><path id="_Tracciato_17" data-name="&lt;Tracciato&gt;" class="cls-16" d="M32.49,134.29c.46-.2.57-.49.5-.79-.33-1.46.36-2.76,2.15-4.1.9,1.38.25,2.72.46,4,.88-1.42.17-2.89.48-4.33a10.52,10.52,0,0,1,0-4.8c.05-.77.09-1.54.13-2.31a1.34,1.34,0,0,0-.05-1.44c-.07-.39-.13-.78-.19-1.17-2.63.76-2.45,2.16-2.45,3.51-.47,1-.08,2-.21,3-.2,1.61.15,3.21-1.17,4.81A2.45,2.45,0,0,0,32.49,134.29Z"/><path id="_Tracciato_18" data-name="&lt;Tracciato&gt;" class="cls-17" d="M2.54,119.39A1.47,1.47,0,0,0,4.75,119c.32-.91,1-1.79.09-2.81a3.32,3.32,0,0,1-.42-4.47l.3-.17C5,110.29,6.16,109,5,107.7c-.93-.1-1.68.68-2.69.18-.2.11-.21.22-.05.34a2.36,2.36,0,0,1,0,1.79,6.5,6.5,0,0,0,0,3.19v.61a1.45,1.45,0,0,0,0,1.44,1.27,1.27,0,0,1,0,1.21c-.42.66.21,1.4-.39,2.05Z"/><path id="_Tracciato_19" data-name="&lt;Tracciato&gt;" class="cls-16" d="M33,106.45c-.82.28-1.59.7-.54,1.11,3.56,1.39,1.82,3.25,1.25,4.89-.23.68-.64,1.2,0,1.86s.21,1.53.37,2.29.68,1.27,1.92,1.56l.6-8.4c-.38-.46-.13-1-.23-1.42A12.59,12.59,0,0,1,33,106.45Z"/><path id="_Tracciato_20" data-name="&lt;Tracciato&gt;" class="cls-18" d="M22.12,165.65A3.88,3.88,0,0,1,20,165.3c-.92-.67-1.72-1-1.91.28,0,.36-1,.63-1.68.41-1.9-.64-4.13-.91-5.67-2-1.14-.77-4.15-.59-5.75.16a36.27,36.27,0,0,0,5,1.6,1.1,1.1,0,0,0,1.12-.7c.09.71-.32,1.08-.11,1.44a3.55,3.55,0,0,0,1.76,1.06,6.72,6.72,0,0,0,2.24.08,6.18,6.18,0,0,0,.68-.16c1.3-.68,3,.11,4.36-.4a1.42,1.42,0,0,0,1.05-.28C21.63,166.49,22.88,166.35,22.12,165.65Z"/><path id="_Tracciato_21" data-name="&lt;Tracciato&gt;" class="cls-19" d="M30.41,140.44c1.43,1.18-.08,2.35-.18,3.52-.05.62.12,1,.82,1.39,2.06,1.22,2.48,3.89.72,5.28-.9.72-1.2,1.36-.31,2.12,2-1.34,3.08-2.84,2.84-4.64a2.91,2.91,0,0,1,.69-2.39c0-.19.06-.38.08-.56-.45-.28,0-.69-.47-1-.73,0-.86.19-.73.47.05-.91-1.83-1.13-2.42-1.88v-.58c.18-.56,1.16-.92,1.14-1.52-.07-.14-.3-.31-.22-.4,1.34-1.67.14-3.19-.74-4.74a.74.74,0,0,0-.7-.08c-.34.17-.58.4-.54.64a3.62,3.62,0,0,1-.52,3.13C29.57,139.63,29.75,140.11,30.41,140.44Z"/><path id="_Tracciato_22" data-name="&lt;Tracciato&gt;" class="cls-9" d="M2.38,107.94c.64.17.33,1,1.41.79s.5-.7.62-1.09c0-.06,0-.13,0-.19a2.64,2.64,0,0,1,.77-2,2,2,0,0,0,.23-.39c.16-.61.09-1.27.68-1.8,1-.93.77-1.8,0-2.69a5.8,5.8,0,0,0-.72-1c-.35-.39-.2-.83-.42-1.23s-.4-1.07-1.74-.84A13.48,13.48,0,0,0,2.86,100l-.23.36c-.07.86.68,1.7.21,2.57-.85,1.15.79,2.4-.44,3.54A.92.92,0,0,0,2.38,107.94Z"/><path id="_Tracciato_23" data-name="&lt;Tracciato&gt;" class="cls-20" d="M35,145.72c-1.56.42-1.31,1.29-1.41,2-.19,1.42.48,2.93-1.91,4-.32.16-.15.65-.21,1a2.9,2.9,0,0,1,0,2.63c-1.22.88-1.51,1.76,0,2.64l.53.31a1.12,1.12,0,0,0,.94-1c.36-1.85,1.23-3.66,1.2-5.53.44-.47-.14-1,.42-1.48l.11-.28c.45-.56-.2-1.2.42-1.74C35.06,147.47,35,146.59,35,145.72Z"/><path id="_Tracciato_24" data-name="&lt;Tracciato&gt;" class="cls-21" d="M12.14,24.13c0-.24.1-.46.52-.59-1-2.7,1.2-5.32.69-8-.11-.6.28-1.57-1-1.61-1.55-.06-1.28,1-1.5,1.59-.15.42.16.88-.22,1.29-1.08,1.41-.12,3-1.1,4.4a14.44,14.44,0,0,0-.48,2.66l0,0c-.71.44.06,1-.55,1.48h0c-.41.34-.48.66.18.94,1.51-.15,1.41-.88,1.5-1.46C10.34,24,11.21,24.08,12.14,24.13Z"/><path id="_Tracciato_25" data-name="&lt;Tracciato&gt;" class="cls-22" d="M10.64,16.8c.93-.81.11-2,1.86-2.83a12,12,0,0,1-.06,4.52,16.75,16.75,0,0,1-.95,3.58c-.4.81,1.33.86,1.17,1.47,2,.76.7,1.74.52,2.64,2.23-.38,2.48-.75,1.73-2.45-.63-1.09-.87-2.16.36-3.19.4-.34.62-.77.24-1.11-1.76-1.53-1.44-3.22-1.3-4.91,0-.5-.21-1-1-1.26a2.06,2.06,0,0,0-2.12.46c-.4.32,0,.75-.47,1.06C10.61,15.46,10.62,16.13,10.64,16.8Z"/><path id="_Tracciato_26" data-name="&lt;Tracciato&gt;" class="cls-23" d="M12.77,167.41a3.1,3.1,0,0,0-1.55-.88c-.28-.32-.26-.75-1.05-.88A14,14,0,0,0,5,164.19c-1.55.35-1.84-.25-2.08-.88.25-.09.24-.19,0-.29-1.58-.56-.49-1.68-1.54-2.36,0,.21,0,.41-.05.61a2.1,2.1,0,0,0,.58,2.63c1.17.55,1,1.66,2.57,2a11.77,11.77,0,0,0,5,1,2.4,2.4,0,0,1,1.8.72l.5.28a11.81,11.81,0,0,0,4.15,0c.73-.38,1.91-.12,2.58-.59a4.84,4.84,0,0,0-3.1,0h0A4.75,4.75,0,0,1,12.77,167.41Z"/><path id="_Tracciato_27" data-name="&lt;Tracciato&gt;" class="cls-13" d="M33,106.45c.2,1.07.93,1.83,3.14,1.75.31-.07.35-.23.44-.38,0-2.32,0-4.63,0-6.95-1.12-.37-2.05-.16-1.91.52C35,103.19,33.41,104.75,33,106.45Z"/><path id="_Tracciato_28" data-name="&lt;Tracciato&gt;" class="cls-24" d="M5.94,64.28H5.42a1.46,1.46,0,0,0-1.16,0c-.36.61.13,1.26-.34,1.87q0,.12-.12.21c-.14,1,.06,1.94,0,2.91l-.05.32c-.3.9.14,1.82-.36,2.7.06.38-.23.8.45,1.1a2.34,2.34,0,0,0,2.5-1.2A4.77,4.77,0,0,0,7,67.45a5.06,5.06,0,0,1-.32-1.59,1.88,1.88,0,0,0-.4-1.41Z"/><path id="_Tracciato_29" data-name="&lt;Tracciato&gt;" class="cls-25" d="M.81,151.89c2.87-1.86,2.06-4.1,2-6.25,0-.46,0-1.41-1.9-1.08-.09,2.16.73,4.34-.28,6.49C.58,151.34.43,151.63.81,151.89Z"/><path id="_Tracciato_30" data-name="&lt;Tracciato&gt;" class="cls-26" d="M12.14,24.13c-.7-.15-.36-1-1.49-.79-.85.15-.81.71-1,1.09-.26.59,0,1.25-.68,1.8-.5.32-.94.65-.53,1.11l.25.32c1.69.14,3.89-1.19,3.92-2.43C12.63,24.86,12.31,24.49,12.14,24.13Z"/><path id="_Tracciato_31" data-name="&lt;Tracciato&gt;" class="cls-27" d="M13.17,3.32a3.3,3.3,0,0,1,.29,3.47A1,1,0,0,0,13.7,8c1.84-.34,1.78-1.29,2.05-2.12.09-.28-.1-.57-.17-.86-.16-.68-.92-1.51,1.42-1.49a1.55,1.55,0,0,0,1.36-.81l1-.58C18,2,16.75,1.45,15.22,1.7c-.77.09-.86.6-1.53.75Z"/><path id="_Tracciato_32" data-name="&lt;Tracciato&gt;" class="cls-17" d="M1.92,127.86c1.6-.38,1.17-1.31,1.62-2,1-1.58.24-3.24.31-4.86,0-.47-.85-.56-1.41-.76-.87.88-1.33,1.75,0,2.63.3.69-.73,1.32-.29,2,.33.53.09,1-.3,1.51C1.87,126.9,1.9,127.38,1.92,127.86Z"/><path id="_Tracciato_33" data-name="&lt;Tracciato&gt;" class="cls-28" d="M15.24,1.85a9.05,9.05,0,0,0,4.16.3A49.24,49.24,0,0,0,27.19.38,6.28,6.28,0,0,0,23.11.3a14.37,14.37,0,0,1-7,1c-.23,0-.56.16-.84.25S15,1.76,15.24,1.85Z"/><path id="_Tracciato_34" data-name="&lt;Tracciato&gt;" class="cls-29" d="M5.94,65.74c-.12,1.51,1.1,3,.56,4.51-.41,1.2-.58,2.39-2.65,3.12a2.62,2.62,0,0,1,0,.28A2,2,0,0,0,5,73.82c1.91-.37,2.68-1.17,2.64-2.26a3.75,3.75,0,0,1,1.06-2.83c.8-.84,0-1.49-.92-2.12a3.64,3.64,0,0,0-.41-.36C7,66,6.76,65.6,5.94,65.74Z"/><path id="_Tracciato_35" data-name="&lt;Tracciato&gt;" class="cls-30" d="M36.52,93.56a2.86,2.86,0,0,0-2,.58,2.38,2.38,0,0,0-1.32.92c-.07.2,0,.39.28.55,1.59.29,1.74,1.47,3.37,1.74C37.68,96.06,36.15,94.84,36.52,93.56Z"/><path id="_Tracciato_36" data-name="&lt;Tracciato&gt;" class="cls-24" d="M4.91,73.65H3.86c-.67.3-.41.73-.47,1.12.72.44.19,1,.62,1.53H5.42c1.27-.41.54-1.08.67-1.64C5.88,74.25,6.2,73.65,4.91,73.65Z"/><path id="_Tracciato_37" data-name="&lt;Tracciato&gt;" class="cls-13" d="M2.86,100c.86-.83.39-1.74.51-2.62,1-.62.71-1.34.51-2-.79-.74-.42-1.56-.52-2.34-.91.83-.1,1.78-.57,2.64a3,3,0,0,0,0,2.32C3.3,98.64,1.65,99.34,2.86,100Z"/><path id="_Tracciato_38" data-name="&lt;Tracciato&gt;" class="cls-31" d="M29.39,162.71c-2.09.14-2.58-.55-2.61-1.55s-.66-1.27-2.07-.5l.16.18c.82.53.28,1.31,1.05,1.85a3.5,3.5,0,0,0,2.39.61,2,2,0,0,0,1-.34C29.34,162.88,29.36,162.79,29.39,162.71Z"/><path id="_Tracciato_39" data-name="&lt;Tracciato&gt;" class="cls-32" d="M29.31,163l-.93.06c-.38.17-1,.23-1.06.57-.46.46-1.25.85-1.06,1.46C27.2,164.31,29.91,164.4,29.31,163Z"/><path id="_Tracciato_40" data-name="&lt;Tracciato&gt;" class="cls-19" d="M31.48,160.38c-.17-.53.39-1.15-.74-1.61-1.13.79-1.08,1.41.61,1.88A.46.46,0,0,0,31.48,160.38Z"/><path id="_Tracciato_41" data-name="&lt;Tracciato&gt;" class="cls-29" d="M4.43,64.28h1c-.17-.58.42-1.24-.52-1.75-.31,0-.35.19-.53.29l-.48.29C3.34,63.6,3.55,64,4.43,64.28Z"/><path id="_Tracciato_42" data-name="&lt;Tracciato&gt;" class="cls-33" d="M15.37,167.41h3.1a2.43,2.43,0,0,0,1.57-.29,8.1,8.1,0,0,1-2.19-.14A1.83,1.83,0,0,0,15.37,167.41Z"/><path id="_Tracciato_43" data-name="&lt;Tracciato&gt;" class="cls-34" d="M4.37,62.81l.53-.29c1.56-.49,0-1,0-1.49,0-.29,0-.58,0-.87l-.38-.29C4.52,60.85,4.45,61.83,4.37,62.81Z"/><path id="_Tracciato_44" data-name="&lt;Tracciato&gt;" class="cls-35" d="M38,10.06h-.44a1.25,1.25,0,0,0-.7,1.21c.28.69-.67,1.62,1.19,2l0-2.63C38.07,10.44,38.05,10.25,38,10.06Z"/><path id="_Tracciato_45" data-name="&lt;Tracciato&gt;" class="cls-3" d="M2.36,124.84c-.87-.66,2.1-1.27.08-2-.83.58-.56,1.27-.55,1.93C2,125,2.18,125,2.36,124.84Z"/><path id="_Tracciato_46" data-name="&lt;Tracciato&gt;" class="cls-33" d="M22.12,165.65c.08.51-.76.76-1,1.18,1.37-.12,2.07-.79,3.1-1.19A4.82,4.82,0,0,0,22.12,165.65Z"/><path id="_Tracciato_47" data-name="&lt;Tracciato&gt;" class="cls-36" d="M38.07,13.26c-.93-.62-.3-1.36-.49-2-.39-.06-.75,0-.83.22-1,2.21-3.27,4.22-3,6.6.19,1.57-1.62,3-1.18,4.57.5,1.82-1.29,3.39-1.6,5.12.11.93-1.64,1.62-1.16,2.58.93,1.86.18,3.45-2.15,4.85-.53.32-.2.8-.44,1.21-.45-.56-.23-1.09.26-1.55,1.07-1,.11-1.87-.61-2.74a1.47,1.47,0,0,0-1.46-.43c-.57.1-.83.44-.68.71.87,1.58-.62,2.26-2.8,3.05-1.29.47-1.55,1.74-2.68,2.66-1.09-1.07-2.11-2-.77-3.29a1.64,1.64,0,0,0,.37-1.43c-.15-1.54-1-1.81-3.2-1a1.21,1.21,0,0,1-1.45-.2c-1-.84-1.84-1.69-.13-2.6.95-.5,1-1.1.42-1.73-.65-.82.15-1,1.4-1.08.44-.51.39-1.17,1.41-1.51.58-.56,1.27-1.16.08-1.68a3.18,3.18,0,0,0-3.18.25c.86,1,.82,1.78-1,2.35-2.07,1.51-1.77,3.25-1.55,5,.28.93.95,1.82.88,2.8,0,.31,0,.83.53.94,3.54.72,1.73,3,3.73,4.15.7.42.48,1.41-.85,1.93-.67.27-1.21.8-.9,1.14,1,1.12.45,2.23.37,3.36-.06.87,2.1,1.94,3.66,2s2-.49,1.23-1.08c-1.68-1.27-1-2.1,1-2.66-1.85,1.46-1.82,1.58,1.11,2.63.82.29,1.07,1.32,2.59.74s1-1.33.45-2.11a12.72,12.72,0,0,0,2.74.05c1.55-.32,2.17-1,1.11-1.68-1.66-1.08-.79-1.46,1.09-1.77a3.28,3.28,0,0,0,1.83-.76.88.88,0,0,0,.15-.83,2.38,2.38,0,0,1-.1-2.17,3.09,3.09,0,0,0,.26-.37c.69-1.49.57-3,.94-4.54a1.3,1.3,0,0,0-.18-.4c-.66-1-1.76-1.95.51-2.75.22-2,2.42-3.84,2.06-6-.27-1.67-.65-3.4.94-5,.68-.69.17-1.43,0-2.15a2.42,2.42,0,0,1,.12-1.59,4.13,4.13,0,0,1,1.13-1.51Z"/><path id="_Tracciato_48" data-name="&lt;Tracciato&gt;" class="cls-37" d="M32.44,76.27A1.92,1.92,0,0,1,33,74.51a12.14,12.14,0,0,1,1-2.35v-.29a13.91,13.91,0,0,0,1.61-6.52A1.81,1.81,0,0,0,35,64.11a2,2,0,0,1,.13-3.28,3.64,3.64,0,0,0,.41-.36c1-.89.16-2,1.08-2.79.11.57-1.61,1.41.52,1.88.92-2.13.36-4.28.4-6.43a2.26,2.26,0,0,0-2,.67,39.58,39.58,0,0,1-3.33,7.87c-.85,1.51-.45,3.34.1,5a2.08,2.08,0,0,1-.16,2.22c-.87,1.1.43,2.27-.23,3.44-.43.77-.6,1.6-1.11,2.38-.93,1.63-.61,3.11,1.71,4.35a1.14,1.14,0,0,0,.69-.24A3.14,3.14,0,0,0,32.44,76.27Z"/><path id="_Tracciato_49" data-name="&lt;Tracciato&gt;" class="cls-38" d="M35,71.29a2.92,2.92,0,0,1-.77,2.38c-1.58,1.71-.29,3.41.33,5.07s1.81,3.53,1.49,5.4c-.08.46.39.45,1,.33l.09-16.67c-1.11-.35-1.87-.13-1.86.72A23.37,23.37,0,0,1,35,71.29Z"/><path id="_Tracciato_50" data-name="&lt;Tracciato&gt;" class="cls-39" d="M36.06,53.41c.73.31,1,0,1.44-.28l.09-7.93c-.63-.43.22-1.07-.71-1.51-1.48.53-.72,1.67-1.94,2.25a2,2,0,0,0-.54.49C33.15,48.89,35,51.12,36.06,53.41Z"/><path id="_Tracciato_51" data-name="&lt;Tracciato&gt;" class="cls-40" d="M38.19,29.17a2,2,0,0,0,.35-2.12c-.58-2.07,0-4.11.06-6.17-.42-.34-.12-.78-.45-1.13a1,1,0,0,0-1-.72,1.16,1.16,0,0,0-1.16.68c-.85,1.22-.56,2.52-.32,3.75a5.79,5.79,0,0,1-.47,3.42,1.13,1.13,0,0,0,0,1.14.84.84,0,0,0,.57.29c1.17-.08,1.26-.69,1.72-1.17C37.63,27.85,37.07,28.61,38.19,29.17Z"/><path id="_Tracciato_52" data-name="&lt;Tracciato&gt;" class="cls-7" d="M35,71.29c1.35-.7,1.1-1.58.9-2.45s-.18-.77,1.21-1a3.7,3.7,0,0,0-.51-3.59c-1.7-.79-2.4-1.74-1.46-2.95a.49.49,0,0,0-.15-.82c-2.18,1-2.2,2.35-1,3.41,1.67,1.45.8,3,.61,4.31s-.56,2.46-.65,3.71Z"/><path id="_Tracciato_53" data-name="&lt;Tracciato&gt;" class="cls-15" d="M35.53,46.08c1.2-.51,1-1.28,1.12-2,.86.28.08.93.94,1.15.15-1.85.31-3.7.46-5.55-1.27.07-.85.69-1.18,1.12-.4-.61,1-1.51-.92-1.84a1.44,1.44,0,0,0-.67.23C33,41.5,34,43.8,35.53,46.08Z"/><path id="_Tracciato_54" data-name="&lt;Tracciato&gt;" class="cls-5" d="M38.19,29.17V26.38c-2.11.21-1.33,1.3-2.15,1.83-2.18,1-.55,1.94-.08,2.92a1.62,1.62,0,0,0,.37.37,1.5,1.5,0,0,0,1.84-.07C38.91,30.68,38.4,29.92,38.19,29.17Z"/><path id="_Tracciato_55" data-name="&lt;Tracciato&gt;" class="cls-21" d="M38.17,31.43a2.38,2.38,0,0,1-1.6,0,1.11,1.11,0,0,0-.64,1.47c.37,1.31-.37,2.42-1.71,3.45a2.55,2.55,0,0,0,1,2.58l.33.13h.52a1.08,1.08,0,0,0,.63-.77,9.61,9.61,0,0,1,.12-1.69c.15-.42.26-.9,1.4-.69C39,34.41,37.6,32.92,38.17,31.43Z"/><path id="_Tracciato_56" data-name="&lt;Tracciato&gt;" class="cls-13" d="M35,60.44c-.87,1.29-1.88,2.58.57,3.69.32.15.61.38,1,.08,0-.73,0-1.47,0-2.2a1.65,1.65,0,0,0,.16-1.26C36.71,59.82,36.05,59.77,35,60.44Z"/><path id="_Tracciato_57" data-name="&lt;Tracciato&gt;" class="cls-41" d="M36.06,38.18c0,.29,0,.58,0,.87,1.15.88-.93,1.86.39,2.77,1.93-.38.52-1.6,1.61-2.17,0-.59,0-1.18.05-1.77C37,37,36.53,37.63,36.06,38.18Z"/><path id="_Tracciato_58" data-name="&lt;Tracciato&gt;" class="cls-15" d="M36.06,38.18a1.91,1.91,0,0,1,2-.3c.47-.65.7-1.31.1-2-.12-.27.09-.66-.47-.77s-.78.3-1.08.51C35.55,36.41,36.23,37.33,36.06,38.18Z"/><path id="_Tracciato_59" data-name="&lt;Tracciato&gt;" class="cls-7" d="M35,60.44c.69-.16,1.45-.42,1.54.33,0,.41.06.83.09,1.24.79-.78.32-1.63.44-2.45-1.36-.74.3-1.54-.15-2.4C35.1,58.08,35.81,59.41,35,60.44Z"/><path id="_Tracciato_60" data-name="&lt;Tracciato&gt;" class="cls-6" d="M38.05,13.57c-1.2.1-1.32.64-1.5,1.16-.25.74-.79,1.51.58,2.11a.82.82,0,0,0,.9-.35A6.69,6.69,0,0,0,38.05,13.57Z"/><path id="_Tracciato_61" data-name="&lt;Tracciato&gt;" class="cls-36" d="M38,16.49l-.48.28c-1.45.51-.65,1.22-.29,1.77s.51,1,.83,1.47c0,.32-.05.66.51.87C38.89,19.4,38.06,18,38,16.49Z"/><path id="_Tracciato_62" data-name="&lt;Tracciato&gt;" class="cls-42" d="M12.74,129.91c0,.38-.09.85.72,1,1,.17.65-.41,1-.64a5.17,5.17,0,0,1,3-.63c1.15,0,.81.62,1.22.92,1.09.79,1.06,1.34-.41,2-1.12.51-.83,1,.72,1.11.52,0,1-.13,1.11.33.15.81,1,.47,1.64.26,1-.32,1.16-1,.43-1.3-1.67-.61-1.08-1.12-.28-1.78.56-.46.2-1,.27-1.56.45-.5-.54-.92-.19-1.53,2,.41,3.5,0,4.4-1.11s2.69-2.35.43-3.73a1.48,1.48,0,0,1-.56-2.35c.52-.7,1.63-1.27,1.06-2.15-.16-.25.3-.49.73-.52,2.13-.19,2-1.11,1.8-1.91-.39-1.46-.56-3-2.15-4.27-1.34-1.08-1.24-2.49-2.16-3.7-.39-.51-.21-1.16.46-1.67A2.69,2.69,0,0,0,27,103.46a3.19,3.19,0,0,1,.11-1.59c.4-2.27.81-4.57-2.6-6.38-.26-.13.24-.31.36-.48.2-.37,0-.67-.49-.91-1.39-.52-.31-.94.36-1.15,3.69-1.12,3.83-1.7.59-3.32a2.16,2.16,0,0,0-1.21,0,5.66,5.66,0,0,1,.79-.32c.67-.35,1.61-.55,2-1.09,0-.31-.26-.52-.71-.68-1.47-.18-2.76-.32-3.73.68-.64.66-2.32.78-3.5,1.15-.38.12-1.35-.64-2-1-2.51-1.29-2.69-1.3-5.24.08-.16.12-.43.3-.34.38,1.94,1.64-.14,3.11-.67,4.63A6.71,6.71,0,0,0,11,97.69c.65,2.36,3,5-1,7.31-.29.16-.29.45-.31.69a23.3,23.3,0,0,1,1,8.66c0,1,.54,1.21,2.11.69.46-.14.8-.42,1.29-.09s.15.62-.32.87c-1.38.73-3.28,1.38-3.27,2.53,0,1.44-.43,2.93.45,4.34a1.3,1.3,0,0,1-.33,2c-.57.42-.78,1-.28,1.39C11.88,127.26,11.63,128.72,12.74,129.91Z"/><path id="_Tracciato_63" data-name="&lt;Tracciato&gt;" class="cls-8" d="M12.74,129.91l.52-.32c-1.6-.74.31-2-1.44-2.79-1.2-.53-1.8-1.33-.4-2,1.05-.54,1.13-1.22.55-1.7-1.7-1.42-.31-3-1-4.49-.31-.69,1.23-1.45,2.39-2,2.35-1.24,2.27-1.28-.22-2.55-.73.21-.27.74-.84,1s-1.23.18-1.05-.17c.87-1.73,0-3.38-.35-5.07-.09-.42-.29-1,.41-1.38.86-.5.88-.93-.32-1.23-1-.25-.09-.94-.9-1.23-2.5.86-3.24,1.94-2.22,3.38.34.47,1.08.92-.1,1.35a.9.9,0,0,0-.24.39c1.56,1.61,1.76,3.25.61,5-.36.55,0,1.26.19,1.88.48,1.24,1.55,2.41-.48,3.65-.68.42-.23,1.47-.35,2.23-.34,1.07-.23,2.07,1.41,2.85.14.07.21.34.11.41C7.2,128.22,8,129.82,7,131.16c-.16.21-.42.51-.28.68,1.8,2.28-.62,5,2.25,7.18.55.42,0,1-.47,1.52-1.28,1.17-2,2.33-.32,3.6.79.6.48,1.31-.34,1.75-1.48.79-1.6,1.76-1.27,2.7a4.43,4.43,0,0,1-.7,3.95,1.69,1.69,0,0,0-.12,2c.53.77.14,1.6-.73,2-1.78.89-1.64,2-1.62,3.08A9.07,9.07,0,0,1,2.9,163a1.4,1.4,0,0,0,0,.29h1a1.35,1.35,0,0,0,.91-.42,1.66,1.66,0,0,0,.09-1.56c.11-1.57-1-3.34,2.21-4.45.49-.17.76-.53.43-.9,0-.44.11-.89-.44-1.26-.34-.24-.65-.48-.11-.76,2.59-1.33,1.82-3.08,1.81-4.71,0-.76-.34-1.52.63-2.19a1.57,1.57,0,0,0,.51-2.19c-.85-1.2-.16-2.37-.58-3.53s.12-1.22,1.88-1.1c1.51.11.82-.59.86-1s-1.46-.69-.29-1.06,1.43.33,2,.66a5.73,5.73,0,0,0,1.38.54c-2.36-1.24.5-2.16.44-3.28,0-.7,0-1.12-1.36-1.23s-1.76-.52-1.26-1.24c.31-.44.38-.87-.49-1.15C9.6,131.56,12.06,130.75,12.74,129.91Z"/><path id="_Tracciato_64" data-name="&lt;Tracciato&gt;" class="cls-43" d="M24.66,95a4,4,0,0,1-2.14,0c4.91,2.19,4.92,4.73,3.46,7.51-.25.48.28,1.1.53,1.64a1.52,1.52,0,0,1-.8,2c-1.36.71-1.39,1.61-.93,2.27,1.19,1.69,1.55,3.52,3.38,5.15,1.17,1,.76,2.66,1,4,0,.2-.54.1-.84.13-1.42.17-3.27.25-1.54,1.48.47.33,0,.51-.3.74-1.8,1.42-1.77,2.43.07,3.79,1.09.82-.67,3.87-2.43,4.21a1.81,1.81,0,0,1-.68,0c-.55-.87-1.75-.64-2.4-.26s.1,1,.5,1.43a7.22,7.22,0,0,0,.57.49c1.68,1,1.37,2.3,1.76,3.48.19.57.18,1,1.29,1.21s.91.79,1,1.21c.14.67-.84.2-1.29.27-1.09.17-1.47.66-1.08,1.13,1.26,1.49,2.68,2.94,4.05,4.41-.17-.42-.35-.85-.5-1.27-.51-1.44-2.15-2.81-.17-4.36,1-.8-.43-1.7-1-2.44a7.22,7.22,0,0,1-1.29-3.48c-.15-.72.39-1.08,1.51-1a4.8,4.8,0,0,0,3.54-1.2.79.79,0,0,0,.72,0c1.41-1.39.24-2.74-.19-4.11,0-.83-1.86-1.4-1.08-2.35a4.88,4.88,0,0,0,.82-1.39,4.87,4.87,0,0,0,.62-5.9c-.07-.14-.19-.3-.12-.43,1.35-2.4-1.26-4.3-2.59-6.35a1.75,1.75,0,0,1-.29-1.57c.44,0-.76-1,.78-.38a2.07,2.07,0,0,0,1.69,0c.46-.24.24-.56,0-.8-1.69-1.55-1.43-3.31-1.69-5-.15-1-.8-2.11.67-3,.26-.17.32-.43.67-.6,1.95-1,2.19-1.45.68-2.47-1-.65-.68-1,0-1.6,1.75-1.51.94-3.3-1.68-4.19-1.13-.39-2.12-.46-2.68.39l.52.59c1.06,1-.23,1.25-1.56,1.46a15.91,15.91,0,0,1,1.4,1c.43.4,1,.83.31,1.33a2.1,2.1,0,0,1-2,.36c-.62-.15-1.33-.06-1.51.3a4.29,4.29,0,0,0-.27,1.46l1-.09c.52,0,1-.17,1.69-.11C25.72,94.49,25.19,94.75,24.66,95Z"/><path id="_Tracciato_65" data-name="&lt;Tracciato&gt;" class="cls-31" d="M7.57,156a2.11,2.11,0,0,1-1.52.92,1.78,1.78,0,0,0-1.45.76,4.19,4.19,0,0,0-.15,3.59,2.13,2.13,0,0,0,1.94-1.41A6.29,6.29,0,0,1,7,158.44a1.74,1.74,0,0,1,2.65-.37c2,1.69,4.18,2.4,7.88,1.52,2.11-.5,3.12,1,4.68,1.59s1.71.62,2.48-.52a2,2,0,0,1-1.5-1.29c-.24-.58.46-1.45-1.75-1.3-.52,0-1-.87-.27-1.22,2-.9,1.09-2.61,3.25-3.44.43-.17-.17-.43-.25-.65-.41-1.18-1.69-2.34.7-3.43.87-.39,1.37-1.28-.15-2.05-.1,1.64-2.88.87-4.15,1.61s-3.3,1-2.28,2.35c.14.19-.13.39-.5.44a.83.83,0,0,1-.79-.28c-.92-.91-2.21-1.8.11-2.94-2.58.1-3.12,1.21-2.64,1.73.87,1,.11,1.9.58,2.78a42.26,42.26,0,0,0,2.34,3.7c.21.31.83.6.21.9s-1-.19-1.44-.29c-2.19-.46-2.26-1.7-3.21-2.61-.61-.59.5-.91,1-1.4-1.89.06-3.4.78-5.27.67-.28,0-.7.91-.29,1.33C9.17,156,7.82,155.74,7.57,156Z"/><path id="_Tracciato_66" data-name="&lt;Tracciato&gt;" class="cls-8" d="M16.82,131.5a1.18,1.18,0,0,0-1.12-1.06c-1-.07-1,.57-.77,1s-.37.58-.74.82c-.56.36-.41.71.11,1a1.62,1.62,0,0,0,1.3.34.89.89,0,0,0,.79-.85A8.42,8.42,0,0,1,16.82,131.5Z"/><path id="_Tracciato_67" data-name="&lt;Tracciato&gt;" class="cls-44" d="M14.22,23.83c1-.07,2.18-.56,3,0,.66.46-.13,1-.45,1.43-1.72.85-.52,2-.8,3-.24.82,2.13,1,3.64.37.05.6.33,1.21,1.51,1.32,1,.09,1.27-.56,1.8-1,0,.5-.79,1.27.43,1.29s2.64.94,3.42,0c1-1.19,2.89-1.68,4.55-2.38a9.92,9.92,0,0,0,2.3-5.84,22.86,22.86,0,0,1,3.91-10.85V10.05l-.51-.3c-2.31-.29-2.76-.07-2.22,1.08.44.95.38,1.83-1.24,2.45-.6.22-1.25.47-1,.91.77,1.54-.65,3-.57,4.46,0,.24,0,.59-.44.62-3.34.2-1.9,1.58-2.15,2.66a19.09,19.09,0,0,0-2.14-.62c-1.13-.42-1.74-.95-1-1.72a3,3,0,0,0,.76-1.08c.16-.45.79-1-.39-1.26a1.94,1.94,0,0,0-2,.65A15.57,15.57,0,0,1,20.44,21c0-.36,1.06-.78.5-1-1.44-.55-1.08-1.7-2.11-2.15-2-.84-2.5-2-3.42-3.16a4.57,4.57,0,0,0-.29-.36,1.65,1.65,0,0,1-.33-.94,1,1,0,0,0-.58-.71l-.75-1L11.59,13a.72.72,0,0,0-.49.88c.69,0,1.08-.8,2-.31a1,1,0,0,1,.56,1.22c-.49,1.62-.7,3.23,1.29,4.64.42.31.43.65-.07.93C12.88,21.42,13.61,22.63,14.22,23.83Z"/><path id="_Tracciato_68" data-name="&lt;Tracciato&gt;" class="cls-35" d="M14.73,14.46c1.07,1.23.67,2.94,3.76,3.54.63.12.33.71.41,1.09s-.91,1.15,1,.59c.29-.08,1,.26.45.73s-1.26,1-.24,1.55a65.83,65.83,0,0,0,6.36-4.62c.43.83-.07,1.46-.58,2-1,1.11-.6,2.07,1.48,2.37a2.76,2.76,0,0,1,2.39,1.33c.87-1,.13-1.78.26-2.53.08-.5-.62-1.19,1.28-.7.82.22,1.95-.28,1.55-.8-1-1.34,1.28-2.42.6-3.69-.57-1,.06-1.79,1.73-2.41,1.34-.49,0-1.64,1.29-2.25a.69.69,0,0,0-.26-.21c-.37-.11-1.52.54-1.1-.33.29-.6,1.27-.34,2-.41l-.52-.29c-.46-.33-.72-.85-1.74-.69-.8.14-.91.56-1,1-.27,1.72-2,3.13-3.05,4.69a2.81,2.81,0,0,1-2.47.84c-1.44-.05-1.19-.69-1.11-1.21.11-.71-.44-1.19-1.45-1.59-1.27-.52-2.19-.5-2.77.4s-1,1.73-3.25,1.68c-.85,0-1.36.7-2.23,1C16.34,15.37,16.58,14,14.73,14.46Z"/><path id="_Tracciato_69" data-name="&lt;Tracciato&gt;" class="cls-45" d="M18.36,2.73a8.14,8.14,0,0,1-2.18.7c-1.9.08-1.72.84-1.37,1.38C15.6,6.05,14.73,7,13.7,8c.05,1-.75,2-1,2.93.83-.24,3.64.18,1-1.14,1-.23,2.38.88,2.69-.37.13-.54.65-.26,1.07-.12A1.86,1.86,0,0,0,19,9.11a3.66,3.66,0,0,1,3.93-1.23c.84.14.09-.6.12-.94s.24-.67.94-.75c.45-.05.49.17.6.35.81,1.33,2,1.56,4.27.79.58-.2,1.08-.45,1.72-.61,1-.26,2.77-.14,2.75-1a3,3,0,0,0-2-2.56c-1.82-.43-2.49-1.41-4.08-1.83a.73.73,0,0,1-.62-.6c-.2.08-.56.15-.59.25-.27.87,1.91.72,2,1.63s.42,1,2.55,1c-.08.33-.29.67-.2,1s0,.54-.57.69a1.43,1.43,0,0,1-1.27-.28,7,7,0,0,0-6.21-.08c-1.4.64-2.2-.19-3.24-.37s-1.34-.57-.6-1.11C18.84,3.12,18.82,2.9,18.36,2.73Z"/><path id="_Tracciato_70" data-name="&lt;Tracciato&gt;" class="cls-46" d="M14.73,14.46a1.78,1.78,0,0,1,.49.06c1.26,1.32,2.58,2.2,4.46.28a.83.83,0,0,1,.41-.15c3,1,2.33-.9,3.37-1.42.4-.2.09-1,.84-.84s2.23.4,2.36,1.19a.7.7,0,0,1,0,.43c-.33.73-.7,1.52,1.15,1.69,2.21.21,3.52-.44,3.76-1.67,0-.14,0-.37.11-.41,2.55-.88,2.09-2.46,2.6-3.75s1.21-.88,2.3-.41C36.41,8.88,37,8,35.44,7.94c-1.39,0-2.53.62-2.41,1.55,0,.37.12.72-.49.88-1.61.4-.69,1-.32,1.93-2.32-.83-5,0-6.73-1.24-.62-.41-.88-.14-1.4.09a8.66,8.66,0,0,1-4.92,0c-.8-.27-1,.17-1,.38s.39.51.55.77c.27.46.06.86-.57,1.19-.79.41-1.25,0-1.76-.22a4.06,4.06,0,0,0-2.22-.6v.88C14.81,13.79,14.5,14.17,14.73,14.46Z"/><path id="_Tracciato_71" data-name="&lt;Tracciato&gt;" class="cls-47" d="M8.05,110.86c0-.09,0-.19,0-.29.54-.42.15-.7-.44-.94a1.67,1.67,0,0,0-1.51.51,3.21,3.21,0,0,1-1.69,1.61h0A2.42,2.42,0,0,1,5,113.38a2.87,2.87,0,0,0,.72,2.67,2.85,2.85,0,0,1,.35,3,22.83,22.83,0,0,0-.59,5.14A2,2,0,0,1,4.62,126c-.4.29-.81.77-.64,1.07,1.27,2.35-.25,4.73.49,7.18s1.14,5.13-1.33,7.58c-1.34,1.34,0,2.71,1.3,3.94a11.27,11.27,0,0,0,1.16-9.34c-.35-1.1,1.12-2.28.27-3.29a2.75,2.75,0,0,1-.34-3c.71-2-.12-4.09,1.49-6,1-1.2.1-2.71,2-3.79.31-.18.14-.58-.06-.85a4.09,4.09,0,0,1-.21-4.82,1.8,1.8,0,0,0-.59-2.65C7.69,111.64,7.58,111.23,8.05,110.86Z"/><path id="_Tracciato_72" data-name="&lt;Tracciato&gt;" class="cls-47" d="M1.34,156.57c.12.37-.13,1.14,1.12.61s2.9-1.24,2.19-2.52c-.46-.84.06-1.69.27-2.55a12.63,12.63,0,0,0,.35-6.1c0-.11-.54-.19-.83-.28-1.43,1.36.08,2.8-.36,4.23-.49,1.62-1.12,3.31-.57,5C3.79,155.82,2.28,156.13,1.34,156.57Z"/><path id="_Tracciato_73" data-name="&lt;Tracciato&gt;" class="cls-48" d="M8.05,110.86c-.74.34-.74.86-.38,1.2,1.23,1.13.55,2.23,0,3.32a3.26,3.26,0,0,0,.6,4c.3.32.5.73.08,1-2,1.07-1.19,2.43-1.35,3.69l.52-.29c.35-.58,2.33-1,.66-1.8-.29-.14,0-.52.35-.64,2.29-.76,1.33-1.67.77-2.75a3.58,3.58,0,0,1,0-3.61c.59-1.08,1.34-2.58-1.13-3.54C8,111.35,8.1,111.05,8.05,110.86Z"/><path id="_Tracciato_74" data-name="&lt;Tracciato&gt;" class="cls-42" d="M32.93,32.61v.29c1.1,1.67-.18,3.16-1,4.69-.46.78.21,1.56,0,2.35v.87c-.25.8-.78,1.4-2.53,1.25-.5,0-1.07.06-1.25.39s.17.56.68.69,1,.5.91.81c-.65,1.86,2,3.73-.15,5.57,1.27,1.62-1,3.36.51,5,.26.29.61.84-.39,1A1.52,1.52,0,0,1,28,54.78a1.82,1.82,0,0,1,0-1.3c.23-.9-.48-1.29-2-1.25s-1.92.52-1.49,1.29-.07,1.73-.18,2.6.14,1.32,1.75,1.2c.84-.06,1.06.13,1.14.53a3.67,3.67,0,0,0,1.33,1.72c1.12.55,1,1.7-.21,2.56-1,.65-1.69.08-2.38-.19-1.18-.44-2.2-.75-3.29.09a2.91,2.91,0,0,1-2.75,0c-1.08-.43.09-.82.51-1.19a15.09,15.09,0,0,1,2-1.14c.7-.45.81-1.07,1.37-1.56s1-1,.08-1.44a4,4,0,0,0-3.45-.5c-1.9.8-2.76-.12-4-.57-1.42-.52-.8-1.11-.44-1.79s1-1.63-1.54-1.24c-1.11.18-.8-.36-.91-.59a5.08,5.08,0,0,0-1.81-2.08,2,2,0,0,0-2.17-.29c.59,1.83,1.16,3.67,1.79,5.49.14.4.44.73-.51.94-2.2.49-1.49,1.13-.23,1.78.62.19,1.71.08,1.7.7s-1.26.41-1.7.76c0,.2,0,.39,0,.59a11.33,11.33,0,0,1-3.1,1.76L7,62.22c-.27.18-.33.37-.21.59a1.29,1.29,0,0,0,1.9-.13c-.4,1.15.07,2.21,1.62,2.91,2.21,1,3.15-.77,5.13-.87a2.7,2.7,0,0,0,1.28,2.12c-.81-.19-.78-1.07-2-.78s-1.35.94-1.09,1.51A16.5,16.5,0,0,0,15,70.09c.23.35.22.84-.59.73-1.38-.19-2.23.67-3.64.4-.86-.16-1.18.37-1.16.76.13,2.13.16,4.25.13,6.38,0,.5.5.81,1.24,1a4.19,4.19,0,0,0,1.47.2c3.12-.19,3.48,0,3.86,1.79a1.44,1.44,0,0,0,.1,1c.37.58.59,1.37,1.8,1.47a3.41,3.41,0,0,0,2.13-1c.76-.52.77-1.19-.07-1.6-1.83-.9-1.19-1.8-.38-2.76a5.45,5.45,0,0,0,.69-1c.72-1.48,1.33-1.56,3.75-.51.33.06-.16.3,0,.15,0,0,0,0-.15-.09a2.46,2.46,0,0,0-2.12,0c-.68.37-.37.81,0,1.21.15.18.32.35.48.52.6.62.84,1.52,2.57,1.38s1.2-1,1.36-1.64a2.54,2.54,0,0,1,.7-1.09c.17-.17.58-.4.49-.5-1.82-1.88,1.76-4-1.16-5.82a2.52,2.52,0,0,1,1.78.26c.93.28,1.73.11,1.76-.4.08-1.23,1-2.33.55-3.69-.69-2.24-1-4.66,1.68-6.74-.51-1.5.14-3,.38-4.44a2.3,2.3,0,0,1,1-1.45c1.8-1.35,1.77-2.82-.24-4.09a1.72,1.72,0,0,1-1-1.69c.14-3.57,1.15-7.09,1.68-10.64,0-.56-.16-1.13-.07-1.69a1.9,1.9,0,0,1,.31-.39c2.2-1.29,1.08-3,1.49-4.44.18-.65-1-1.08-2.31-1C32.06,31.24,32.26,31.9,32.93,32.61Z"/><path id="_Tracciato_75" data-name="&lt;Tracciato&gt;" class="cls-49" d="M9.56,49.62c2.22.26,2.59,1.29,3.26,2.28.25.37-.39,2,2.19.85.75-.32.84.44.65.75-.44.67-2,1.34-.63,2A26.33,26.33,0,0,1,18.09,57,1.67,1.67,0,0,0,20,56.74c1.21-.87,2.16-.34,3.25.09,1.49.58,0,.84-.32,1.25s-.61,1-.91,1.5c2.42,1.42,2.67,1.37,4.27-.82.89.61-1.74,1.72.8,2,1.32.14,1.46-.62,1.68-1.18.07-.91-1.5-1.61-.95-2.62.12-.22-.76-.71-1.48-.18a1.06,1.06,0,0,1-1.23.23c-.49-.23-.17-.52-.17-.8,0-1,1.17-2,0-3.11-.51-.45.37-.55,1-.54s1.7-.19,1.52.59c-.12.53-.15,1.06-.24,1.59s.21,1.06,1.49,1.06c.71,0,1.21.79,2,.27a.92.92,0,0,0,.11-1.53c-1-1.07,0-2.18-.3-3.18C30,49.59,31.68,48,31,46.21c-.24-.62-2-1-.85-2,.62-.54-.55-1.29-1.82-1.67,1.23-.59,2.7.51,3.64-.4.52-.5.38-.92-.07-1.37-.91.25-1.78.53-2.71.74-1.71.37-2.24,1.13-1,1.78.69.36,1.57.62.74,1.1a3.05,3.05,0,0,1-2.56.29c-.59-.24-1.22-.57-1.8-.25-.74.4,0,.82.5,1.11,1,.63.08,1.19-.53,1.34-1.29.3-1.13-.33-1.13-.82s-.45-.54-1.06-.32-1,.34-1.47-.1-.52-.8.1-1.2c.39-.25.84-.53,1-.84s1-.76-.07-1c-.85-.16-.64.52-1,.64-2.92,1-3.14,2.08-.93,3.49.52.33-.2.48-.77.44-2.52-.2-3.82-1.53-2.86-2.92.28-.41.88-.91.23-1.22-1.87-.89-1-1.51.33-2.24s1.16-2,.26-2.51c-1.34-.73-1-1.5-1.28-2.26s.14-1.37-1.94-1.22a1.05,1.05,0,0,1-1.15-1.27c.11-.92-.55-1.66-1.16-2.44.14,2.74.67,5.45,3.56,7.77,1.23,1,1.39,1.66-.72,2.31-1.67.52-1.9,1.55-.74,2.23s.69,1.15.36,1.67-1.42.32-2.25.3c-.58,0-1.18.05-1.77.08C9.62,46.87,8.38,48.2,9.56,49.62Z"/><path id="_Tracciato_76" data-name="&lt;Tracciato&gt;" class="cls-34" d="M7,62.81v-.59c-1.62.48-.84,1.35-1,2.06.84.6.33,1.42,1,2,2.43,1.13,2.38,1.12,1,2.92a3.7,3.7,0,0,0-.42,3c.19,1.34-.56,2.66-.19,4,.56,1.44,1.07,2.86-.37,4.25-.5.48-.17.89.4,1.34C8.81,83,9.26,84.27,8.44,85.62c-.51,1-.64,1.92,1.75,2.2.83-.12,1-.52,1.06-.91s.41-.54,1.21-.37c1.4.3,2.08-.26,1.25-.76-2.45-1.48-1.62-3.42-2.66-5.09-2-3.15-1.39-6.45-1.1-9.71.07-.7.58-1.11,1.66-1.5,2.12-.78,2.29-2,.39-2.88A15.46,15.46,0,0,1,7,62.81Z"/><path id="_Tracciato_77" data-name="&lt;Tracciato&gt;" class="cls-34" d="M10.61,59.29c1.42.06,3.23.39,2.39-1.11-.48-.85-1.28-.91-2.39-.35Z"/><path id="_Tracciato_78" data-name="&lt;Tracciato&gt;" class="cls-34" d="M7.5,61.64c2,0,2.8-.77,3.1-1.76C9.51,60.43,7.69,60.58,7.5,61.64Z"/><path id="_Tracciato_79" data-name="&lt;Tracciato&gt;" class="cls-50" d="M30.4,127.55h-.52c.12,1.13-.12,2.09-2.76,2.06-.4,0-.93-.05-1.1.24s.29.56.7.7c1.3.46,2.67.81.71,1.76-.55.27-.05.92.35,1.37s1.07,1,.84,1.18c-1.8,1.5-.73,3-.24,4.52a10.83,10.83,0,0,1,0,5.92.77.77,0,0,0,.39.81c3,.86,1.58,1.63,0,2.47a.71.71,0,0,0-.33,1.11c1.85,2.16.43,4.38.48,6.57,2.52-1.24,1.58-2.92,1.39-4.39-.08-.67.51-1.53-.78-2.2-.51-.26.24-.77.94-1.06,1.67-.68,1.72-1.58.42-2.36-2-1.19-1.72-2.46-.84-3.79a2.81,2.81,0,0,0,.41-1.73c-.41-.27-.68-.64-.48-.95.91-1.4-.19-2.85.44-4.25a1.88,1.88,0,0,0-.06-1.59,2.35,2.35,0,0,1,.26-2.45,4.25,4.25,0,0,0,.5-3.87A.63.63,0,0,0,30.4,127.55Z"/><path id="_Tracciato_80" data-name="&lt;Tracciato&gt;" class="cls-13" d="M6.35,42.29c-.15.67-.3,1.35-.46,2C6,45,6,45.6,6.1,46.48c2.75-1.66,1.66-3.42,1.9-5.14C6.77,41.38,7.77,42.5,6.35,42.29Z"/><path id="_Tracciato_81" data-name="&lt;Tracciato&gt;" class="cls-13" d="M4.92,99.73l.53.88c1,.47,1,1.28,1.86,1.81,1.38-.61.77-1.31.18-2-1.94-2.1-1.56-4.32-.72-6.49.7-1.78,1.34-3.49.18-5.28-.6-.92.18-1.81.69-2.68,1.13-1.38.18-2.67-.62-4-.33-.53-.72-1,0-1.48,1.25-.83,1-1.82,1-2.78s-.75-1.47-2.58-1.22c.82.88,1.27,1.74-.17,2.59a.68.68,0,0,0-.32.68c.3,1.36.67,2.71,1,4.06.9.56.65,1.2.22,1.77-1,1.25-.64,2.69-1.87,3.89-.11.1-.11.34,0,.39,2.71,1.18,1.18,2.51.41,3.79a3,3,0,0,0-.32,1.59c-.61.4-.74.94-.43,1.35C4.74,97.67,4.47,98.73,4.92,99.73Z"/><path id="_Tracciato_82" data-name="&lt;Tracciato&gt;" class="cls-51" d="M5.43,76.58C7.64,77.15,8.49,78.65,7,80A1.76,1.76,0,0,0,6.6,82.6C7.19,83.69,8.16,84.79,7,86c-.07,1-1.13,2,.09,2.93a1,1,0,0,0,1.06-.66c.56-.83-.4-1.83.93-2.57,1.23-1.56.33-3-1.37-4.16-.53-.37-.52-.51-.21-.76,1.78-1.43,1.1-2.94.53-4.45a3.13,3.13,0,0,0-2.6-1.46c-.16.49.58,1,0,1.46Z"/><path id="_Tracciato_83" data-name="&lt;Tracciato&gt;" class="cls-17" d="M4.92,99.73c.34-1.48-.61-2.92-.52-4.39H3.88c-1,.62-.31,1.37-.51,2C5.32,97.87,3.66,99.11,4.92,99.73Z"/><path id="_Tracciato_84" data-name="&lt;Tracciato&gt;" class="cls-13" d="M4.72,84.29c0,.23.2.37.57.39s.65-.14.61-.34.41-.4-.2-.41A1.1,1.1,0,0,0,4.72,84.29Z"/><path id="_Tracciato_85" data-name="&lt;Tracciato&gt;" class="cls-52" d="M30.92,127.55c.34,2.31-2.33,4.46-1.11,6.83a1.51,1.51,0,0,1-.29,1.56c-.38.57-.92,1.16.28,1.69.73.33,0,.7-.14,1.05-.36.75-.8,1.52.75,2v-.29q.53-2.49,1-5a3.17,3.17,0,0,0,.64-2.83c-.24-.94.4-1.88.57-2.79.45-2.3,1.75-4.64.35-7-1-1.31,0-2.56.56-3.78.3-.64.49-1.18,0-1.8-1-1.34-.48-2.83-1.54-4.2-.79-1,.91-2,1.19-3,.11-.44.57-1-.12-1.22-2.6-1-1.86-2.24-1.17-3.53l-.42-.06c-2.33.9-3.2,2.4-1.94,3.91a3.66,3.66,0,0,1,.9,3.66,1.21,1.21,0,0,0,.15,1.14c1.14,1.6.59,3.23.29,4.86-.24.46-.13,1-.61,1.4-.92.75-.74,1.3.47,1.88.59.28.93.74.7,1.19C30.74,124.67,31.64,126.14,30.92,127.55Z"/><path id="_Tracciato_86" data-name="&lt;Tracciato&gt;" class="cls-52" d="M33,78.91c-1.91-1.2-2.52-2.56-1.56-4.11-1.69-.08-1.94.61-2.13,1.29a1.75,1.75,0,0,0,.49,1.84c1.81,1.56,1.51,3.29,1.71,5a5.08,5.08,0,0,1,.81,1.54,4,4,0,0,1-.07,2.48,3.61,3.61,0,0,0,.41,3.45,1.3,1.3,0,0,1,.24,1.15c-1.1,3.64-2.12,7.3-1.14,11,.23.91-.47,1.83.22,2.73h0c1.58-.54,1.63-1.42,1.54-2.3-.11-1.27-.41-2.55.81-3.72,1-1,1.29-1.86-.51-2.69-.34-.15-.21-.63-.29-1V95c.56-.33.64-.8,1-1.17.75-1.33.43-2.61-.06-4-.65-1.77.11-3.6.34-5.39,0-.34.33-.65-.28-.91C32.82,82.16,33.7,80.44,33,78.91Z"/><path id="_Tracciato_87" data-name="&lt;Tracciato&gt;" class="cls-19" d="M33,122.86a30.38,30.38,0,0,0-.66,4.53c.07,2-1.93,3.8-.54,5.79.44.64-.21,1.51-.36,2.28h0a.35.35,0,0,0,.35.09c.11,0,.17-.06.17-.09.17-.39.34-.78.52-1.17a11.89,11.89,0,0,1,1.18-5,7.08,7.08,0,0,0-.15-6.47Z"/><path id="_Tracciato_88" data-name="&lt;Tracciato&gt;" class="cls-37" d="M33,78.91a6.7,6.7,0,0,1-.29,2.45c-.49,1,1.42,1.43,1.86,2.23.21-1.38-1.75-2.67-.53-4.1-.46-.12,0-.77-1-.58Z"/><path id="_Tracciato_89" data-name="&lt;Tracciato&gt;" class="cls-7" d="M33,78.91l1,.58c-.67-1,.07-2.32-1.56-3.22Z"/><path id="_Tracciato_90" data-name="&lt;Tracciato&gt;" class="cls-7" d="M34,72.16a2.34,2.34,0,0,0-1,2.35A3,3,0,0,0,34,72.16Z"/><path id="_Tracciato_91" data-name="&lt;Tracciato&gt;" class="cls-10" d="M34.53,93.85a1.56,1.56,0,0,0-1,1.17c.68-.16,1-.46,1-.88Z"/><path id="_Tracciato_92" data-name="&lt;Tracciato&gt;" class="cls-16" d="M32,135.46h-.52a1.86,1.86,0,0,0,.47,1.42c.75.87.94,1.74-.05,2.63-.54.49-.87,1,.62,1.22l.29,0a2.28,2.28,0,0,0,.75-.25A6.12,6.12,0,0,0,32,135.46Z"/><path id="_Tracciato_93" data-name="&lt;Tracciato&gt;" class="cls-16" d="M34.51,144.25l0-.3-3.1-1.17c0,.89,1.62,1.18,2.2,1.9C34,145.08,33.94,144.24,34.51,144.25Z"/><path id="_Tracciato_94" data-name="&lt;Tracciato&gt;" class="cls-16" d="M32.49,140.73c-.47.46-1.25.85-1,1.47L33,141c.14-.27,0-.37-.52-.29Z"/><path id="_Tracciato_95" data-name="&lt;Tracciato&gt;" class="cls-19" d="M32.49,140.73,33,141c.66-.06,1.31-.12.52-.58C33,140.29,32.46,140.21,32.49,140.73Z"/><path id="_Tracciato_96" data-name="&lt;Tracciato&gt;" class="cls-53" d="M4.45,163l-.52.3c.2.71.69.31,1.11.08,3.27-1.72,5.67-1.65,8.22.3a3,3,0,0,0,3,.36,2.26,2.26,0,0,1,2.38,0,1.78,1.78,0,0,0,1.35.32c1.38-.29,2.81-1,3.48.51.11.24,1.27.28,1.62-.39a2.07,2.07,0,0,1,2.24-.95l1.06-.57c-.88,0-1.71-.06-2.11-.6-2-.91-5,.13-6.95-1.19-.58-.4-1.35.14-1.81.5s-1,.62-1.36.13c-.76-1-2.36-1-3.83-1.27-.41-.06-.83-.12-1.23-.22-3.9-1-5.4-.48-6.23,2C4.79,162.58,4.79,162.83,4.45,163Z"/><path id="_Tracciato_97" data-name="&lt;Tracciato&gt;" class="cls-19" d="M31.47,158c-.15-.88-.88-1.76,0-2.64a2.18,2.18,0,0,0-1.92,1.78C29.42,157.78,29.72,158.53,31.47,158Z"/><path id="_Tracciato_98" data-name="&lt;Tracciato&gt;" class="cls-19" d="M31.46,155.38a1.7,1.7,0,0,0,0-2.63Z"/><path id="_Tracciato_99" data-name="&lt;Tracciato&gt;" class="cls-54" d="M7.51,88.89C6.45,88,7.23,86.93,7,86c-.76,1.12-1.28,2.15-.36,3.43s.13,2.84-.41,4.28c-.92,2.43-1.64,4.91,1,7.23.52.47.65,1-.16,1.47-1.76.74-1.41,1.95-2.08,2.93h0c-.56.75-1.19,1.5-.52,2.34,1.34,1.37-.67,2.74,0,4.11,1.86,0,2-.71,2.07-1.47-.41-.36,0-.72,0-1.08a4.46,4.46,0,0,1,.85-2.33,1.36,1.36,0,0,0,.14-.43c-.26-.84-.06-1.53.95-2.29,1.92-1.41,1.63-3.15.25-4.55-2.16-2.19-2.34-4.29-.64-6.52a2.57,2.57,0,0,0,.66-1.55A3.43,3.43,0,0,0,7.83,89Z"/><path id="_Tracciato_100" data-name="&lt;Tracciato&gt;" class="cls-33" d="M10.17,165.65l1.05.88a2.67,2.67,0,0,0,.45-.66c.12-.47.23-1.1-.88-1.14S11.29,165.53,10.17,165.65Z"/><path id="_Tracciato_101" data-name="&lt;Tracciato&gt;" class="cls-33" d="M12.77,167.41a2.76,2.76,0,0,0,2.59,0Z"/><path id="_Tracciato_102" data-name="&lt;Tracciato&gt;" class="cls-17" d="M4.93,105.3c.69-1,1.38-2,2.08-2.93.14-.78-.22-1.41-1.56-1.76.86.86,1.08,1.69,0,2.59C4.7,103.81,4.92,104.58,4.93,105.3Z"/><path id="_Tracciato_103" data-name="&lt;Tracciato&gt;" class="cls-17" d="M4.41,107.64c-.25-.81.49-1.55.52-2.34C3.77,106,3.39,106.78,4.41,107.64Z"/><path id="_Tracciato_104" data-name="&lt;Tracciato&gt;" class="cls-55" d="M7,66.33c-.19-.71.58-1.58-1-2v1.46Z"/><path id="_Tracciato_105" data-name="&lt;Tracciato&gt;" class="cls-55" d="M5.42,74.83,8,76.29q0-3.23,0-6.44c0-.51.81-.7,1.21-1,1.19-1,.13-2.13-2.26-2.47,1.4,1.06,1.65,2.16.39,3.34A1.47,1.47,0,0,0,7,71.23c.29,1.1-.51,1.86-2.1,2.42C5.66,74,5.34,74.42,5.42,74.83Z"/><path id="_Tracciato_106" data-name="&lt;Tracciato&gt;" class="cls-36" d="M4.45,163c1.42-.63.87-1.85,2.42-2.49,1-.44,1.74-.9,2.94-.11.74.48,2,.44,3.08.62s2.44.15,2.66,1.23c.14.69,1.53.65,2.28.06.36-.29.14-.79,1-1,.68,1,3.08,1.38,4.89.81.24-.08.39-.17.61-.07s.27.16.26.24a4.44,4.44,0,0,1-.19.71c.93,0,1.16-.56,1.9-.65-.24-.31-.48-.58-.22-1,.52-.73-.38-.8-1.34-.8-.65.47-1.18,1.34-2.13.09-.52-.69-3-.54-2.47-1.75-1.16.59-2.74-.45-3.87.32-.88.61-4,.49-4.37-.24s-1.06-.94-1.83-1.32c-1.73-.87-3.07-.7-3.72.61-.49,1-.49,2.08-1.87,2.89Z"/><path id="_Tracciato_107" data-name="&lt;Tracciato&gt;" class="cls-56" d="M31.37,27.92c-1.95.32-4.28.32-4.55,1.94,0,.1-1,1.28-1.76,0-.5-.88-1.18,1-1.9.05-.46-.58,1.37-.64.92-1.16a3,3,0,0,0-1.31-.42c-.41-.08-.62.11-.58.33.1.52,0,1.11-1.06,1.09-.85,0-.66-.71-1-1.08-.2-.21-.2-.47-.36-.92a2,2,0,0,1-2.86.89,1.59,1.59,0,0,1-.68-.57c1.64-.83-.85-1.94.6-2.77-2.16.08-.78.95-1,1.46a3.07,3.07,0,0,0-1.56,1.18c0,.52.35,1-.64,1.47-1.81.86-1.07,3.24,1.08,3.83a1.24,1.24,0,0,0,1.51-.55c.26-.31.4-.72,1.1-.71,1,0,.57.61.8.92.6.82.3,1.66-.56,2.35s-1.05,1.38.2,1.77-.87,1.54,1.25,1.59c1.89,0,1-1.18,1.89-1.44,1.14-.33,1.7-.53.89-1.26-.25-.22.44-.34.85-.4,2.69-.4,3.43-1.41,2.83-2.84-.12-.31-.63-.75.36-.79.72,0,.49.61.71.73,2.31,1.26-.91,2.5,0,3.75.22.29-.09.75.78.73.61,0,.76-.36.69-.66-.27-1.32,1.35-2.11,2.7-2.94.63-.39,1.09-.54.41-1.14-1-.93-.56-2.05-.59-3.1,0-.25.16-.34.58-.35C33.61,28.81,31.19,28.24,31.37,27.92Z"/><path id="_Tracciato_108" data-name="&lt;Tracciato&gt;" class="cls-8" d="M34,30.85c1.23.54,2.29,1.1.89,2-.51.34,0,.64.17,1,.66,1-.7,1.73-1.06,2.6a.45.45,0,0,0,.35.07c.11,0,.17-.05.17-.07,2.19-.85,2.38-2.07,2.09-3.41a7.58,7.58,0,0,1,0-1.58c-1.24-1-1.7-2-1-3.22,1.63-2.92-.51-6,1.2-9,1.06.08.78.62,1.37.76.73-1.13-1.74-2.09-.54-3.24-1.58-.48-.8-1.34-1-2-.11.07-.34.16-.32.22.82,3.25-2.55,6.39-.84,9.66.22.42-.35.73-.48,1.1-.39,1.14-2.23,2.12-1.06,3.44.28.31-.36.49-.92.53C31.46,30.58,33.41,30.52,34,30.85Z"/><path id="_Tracciato_109" data-name="&lt;Tracciato&gt;" class="cls-49" d="M31.89,37.59c1.86-1,2.49-3.83,1-4.69C32.58,34.47,32.24,36,31.89,37.59Z"/><path id="_Tracciato_110" data-name="&lt;Tracciato&gt;" class="cls-49" d="M34,30.85c.39-.6-1.86-.45-1-1.17-1.5.54-1.5,1.94,0,2.93C33,32,32.53,31.23,34,30.85Z"/><path id="_Tracciato_111" data-name="&lt;Tracciato&gt;" class="cls-44" d="M14.22,27.94c.84-.26,1.52-.59,1.56-1.18-.65-.08-1.06-.72-2-.2C12.69,27.18,13.94,27.49,14.22,27.94Z"/><path id="_Tracciato_112" data-name="&lt;Tracciato&gt;" class="cls-49" d="M31.9,39.94c1.12-.79,0-1.57,0-2.35A1.45,1.45,0,0,0,31.9,39.94Z"/><path id="_Tracciato_113" data-name="&lt;Tracciato&gt;" class="cls-21" d="M31.93,83A9.38,9.38,0,0,1,32,80.7c.21-.72.07-1.24-.85-1.82-1.9-1.22-1.69-3.13.22-4.08,1-1.54.93-3.18,1.37-4.74.49-1.78-.3-3.45.06-5.15.06-.29.24-.61.1-.86-1.21-2,1-3.68,1.82-5.5a31.26,31.26,0,0,0,1.31-5.14c-.29-.74-.83-1.45-.16-2.24.45-.52-.08-1-.58-1.48-1.37-1.23-1.2-2.43.21-3.61-.15-1.12.6-2.35-1.26-3.29-.51-.25-.15-.61.17-.93a3.48,3.48,0,0,0,1.09-2.8h0c-1.88,0-2.36.75-2.29,1.56a24.44,24.44,0,0,1-.78,7.82A1.59,1.59,0,0,0,33,50.12a4.21,4.21,0,0,1,1.16,5.57C33.34,57.45,32,59.13,31.76,61a2.15,2.15,0,0,0-1.07,2.7,20.25,20.25,0,0,1-.24,9.84,1.21,1.21,0,0,1-.5.67c-2.9,2.08-1.8,4.19-.2,6.32,1.53.62.54,1.72,1.46,2.46A.9.9,0,0,0,31.93,83Z"/><path id="_Tracciato_114" data-name="&lt;Tracciato&gt;" class="cls-21" d="M35.52,28.21c-.73,1.19-1.3,2.36,1,3.22.07-1.08-2-2.06-.53-3.22Z"/><path id="_Tracciato_115" data-name="&lt;Tracciato&gt;" class="cls-57" d="M31.91,61c1-2.27,3-4.36,3.41-6.74a4.31,4.31,0,0,0-1-3.23A4.42,4.42,0,0,1,34,45.27c.95-1.39-.77-2.58-.61-3.93.12-1,.52-1.79,2.15-2.29l-1-2.63H34c-.73.53.51,1.25-.52,1.76-.8,2.52-.56,5.1-1.72,7.65-.52,1.17.2,2.74-.18,4.15-.07.28.5.56,1,.79,2.35,1.06,2.58,2.69.43,3.87-.64.35-1,.71-1,1.11,0,1.66-1.41,3.32-.1,5C31.69,60.84,31.69,60.94,31.91,61Z"/><path id="_Tracciato_116" data-name="&lt;Tracciato&gt;" class="cls-8" d="M31.91,61v-.29c-.8.24-1.43.56-1.58,1.09-.58,2.08-1.3,4.16-.17,6.24.28.51.55.9-.18,1.32-1,.56-.28,1.27-.36,1.83a1.06,1.06,0,0,1-1,0c-.91-.27-1.72-1.15-2.85-.53s.84.88.95,1.31c.25.89.82,1.85-.18,2.75-.35.31-1.22.82-.65,1,2.45.74.67,1.52.28,2.29-.19.36-.73.82-.51,1.07.43.51.52.84-.54,1a1.3,1.3,0,0,1-1.48-.63,3.55,3.55,0,0,1-.34-.55c-.18-.53-1.87-.93-.86-1.5,1.22-.68,1.7.52,3.47.64-1.73-.49,0-1.52-1.72-1.66-1.21-.1-2.48-.82-3.79-.07-.21.12-.88.15-.71.32,1.18,1.12-.75,1.84-1.07,2.76s-1.17,1.42.92,2c1.08.27,1.35,1.21-.12,1.64-.68.2-.53.57-1.12.79-.95-.74-1.69-1.5-1.43-2.46a2.31,2.31,0,0,0-2.25-.67c-2.31.47-3.12-.27-3.47-1.38-1.23-.53-1-1.27-.77-2,.51-1.92-.39-3.84-.12-5.84.92,0,2.21,1.58,2.46-.17,0-.23.71-.15,1.13,0,.59.13,1.2.48,1.81,0s.24-.77,0-1.22c-.54-1.22-2.44-2.39-.87-3.77.58,0,.81.2.7.4-.31.55.29.82,1,1a1,1,0,0,0,1.09-.19c.43-.49-.24-.82-.63-1.18s-1.15-.48-.88-.83,1-.82-.25-1.15-1.59.43-2.45.56-1.1,1.23-2.43.65C9.8,65,9,64.28,9.14,63.39c.06-.32.67-.68-.07-.91s-.63.4-1.12.43a5.52,5.52,0,0,1-1-.1c-.11,1.94,2.6,2.88,4.59,4.06.5.29,1.71.48,1.18.92s-.05,1.5-1.94,1.47c-1.22,0-1.83.55-1.59,1.06.33.72-.27,1.34-.15,2,.58,3.18,0,6.4,1.85,9.55.87,1.46-.08,3.27,3,4.39-1.55.08-2-.7-3.08-.62-.58.66.38,1.47-.7,2.07-.28.17-.31.36-.18.56.58.49,1.57.06,2.26.32,4.29-2.12,4.67,1.27,6.84,1.51,2.51-.84,3.95-2.39,7.19-2.4,2.33-1,3.22.28,4.15,1,1.19.89.57,2.47-1.13,3.07-1.19.42-1,.64-.11,1s1.92.85,1.77,1.66c-.06.31.23.73-.78.71-1.2,0-1.12.42-1.55.93-1.68,2-.53,3.76,0,5.69.29,1.08-.5,2.23,1.84,3-1.59.51-1.93-.37-2.84-.39-.52.28-.21.63-.3,1,3.22.78,4.79.13,4.57-1.78a26.2,26.2,0,0,1,.08-8.29c.45-2.2,1-4.51-.07-6.64-.68-1.38-.07-2.91-1.68-4.15-.44-.34-.31-.67.16-1.06,1.18-1,1.25-2,0-3-1.41-2.09-2.79-4.11.44-6.2,1.42-.91.75-2.34,1-3.52a19.16,19.16,0,0,0,0-6.41C31.63,63.14,30.29,62.1,31.91,61Z"/><path id="_Tracciato_117" data-name="&lt;Tracciato&gt;" class="cls-34" d="M12.19,88.59c-.36-.86-1.45,0-2.07-.29-.58.75-.06,1.54-.18,2.3a1.85,1.85,0,0,1-.5,1.27c-2.89,2.51-1.39,4.87.6,7.23a1.26,1.26,0,0,1,.24,1.27,21.28,21.28,0,0,1-3,6.68c-.59.85-.89,1.8.26,2.64.17.3.35.59.53.88,1.3.35,2.09.1,1.19-.6-2-1.59-1.2-2.85.88-4.09.18-1.16,2-1.85,2.58-3a1.66,1.66,0,0,0-.1-2c-.58-.76-1.15-1.62-.56-2.52.24-.37.4-.86-.18-1.11-1.85-.81-1.37-1.8-.79-2.78.68-1.16.1-2.56,2.19-3.47.91-.39-.16-.75-.44-1.12S10.93,89.25,12.19,88.59Z"/><path id="_Tracciato_118" data-name="&lt;Tracciato&gt;" class="cls-8" d="M25.18,89.75c1,.11,2.31.49,2.92-.27.49-.6-.58-.91-1.36-1.19a6.17,6.17,0,0,0-2.44,1C23.36,90.06,24.82,89.62,25.18,89.75Z"/><path id="_Tracciato_119" data-name="&lt;Tracciato&gt;" class="cls-8" d="M24.66,95c1.34.12,1.58-.53,2.11-1,.19-.15.24-.41-.21-.46a2.67,2.67,0,0,0-2.42.55Z"/><path id="_Tracciato_120" data-name="&lt;Tracciato&gt;" class="cls-58" d="M30.37,80.37c.47,1.08,1.23,2.13-1,3-1.24.47,0,1.06.38,1.52.59.65,1.44,1.21.4,2-.21.15-.27.56-.07.67,2.31,1.39.76,3,1.21,4.52.89,2.86-1.25,5.6-.13,8.44.5,1.25.13,2.66.1,4s-2.57.59-4,.81c-.41.44-.89,1-.28,1.37,1.63,1,1.19,2.59,2.86,3.62.31.2.55.55.49.8-.51,2.17.52,4.3.48,6.44,0,.71-.94,1.42-1.46,2.13,1.25.43,1.49-.27,2.08-.59.23-1.76,1-3.51-.3-5.26-.37-.51-.21-1.14-.22-1.72a6.67,6.67,0,0,0-1-3.52c-.69-1.13-.11-2.47,2-3.27a5.44,5.44,0,0,0,.18-4.33A3.87,3.87,0,0,1,32,98.19c.71-1.71,0-3.54,1-5.15s.18-2.77-.45-4.16A2.84,2.84,0,0,1,33,86.6,3.21,3.21,0,0,0,33,84.18c-1-.19-1.69-.5-1.55-1.17C31.07,82.13,32.25,81.06,30.37,80.37Z"/><path id="_Tracciato_121" data-name="&lt;Tracciato&gt;" class="cls-59" d="M31.44,119.05c-.72.17-1.18.63-2.08.59-.17.49-.35,1-.52,1.46-.21.78,1.51,1.24,1,2.05-.05,1.48,1.37,2.89.52,4.4h.52c1.09-2.07,2.26-4.14-.38-6.12-.3-.22-.61-.42-.13-.57C31.8,120.42,31,119.62,31.44,119.05Z"/><path id="_Tracciato_122" data-name="&lt;Tracciato&gt;" class="cls-58" d="M29.88,123.15c1.27-.94-.43-1.41-1-2.05-.56.17-1.06.33-.48.76S29.38,122.72,29.88,123.15Z"/><path id="_Tracciato_123" data-name="&lt;Tracciato&gt;" class="cls-35" d="M14.73,14.46c.28-.38.84-.81-.52-.88C14.23,13.9,14.12,14.25,14.73,14.46Z"/><path id="_Tracciato_124" data-name="&lt;Tracciato&gt;" class="cls-55" d="M7.53,109.69c-.29-2.09.81-4,2.67-5.77a.73.73,0,0,0,.12-1.09,1,1,0,0,1,0-1.28c1.23-1.38,0-2.5-.6-3.82-.66-1.51-2.85-3.14-.24-5,1.7-1.19,1.64-2.92.61-4.46v-.59c-1.56-.48-1.69-1.2-1-2-1.64.55-.84,1.61-1.55,2.35,1.42,1.84,1.67,3.57,0,5.55S6.24,97.77,9,99.83c1.21.92,1,2.67-.16,3.82A7.19,7.19,0,0,0,7,106.76a23.21,23.21,0,0,0-1,2.64c-.42.4-.32.71.51.88A1.68,1.68,0,0,1,7.53,109.69Z"/><path id="_Tracciato_125" data-name="&lt;Tracciato&gt;" class="cls-49" d="M28.79,59.57c-.48.13-.87.31-1,.62s-.58.42-1.09.21-.36-.41,0-.61.67-.22.74-.38c.3-.6-.33-1.06-1.14-1.31s-1,.37-1,.58c.31,2-1.4,1.49-3.25.9a4.27,4.27,0,0,0-1.79.79c-.67.59-2.24,1.11-1.56,1.83s2.62.12,3.67.75a.58.58,0,0,0,.67-.31c.42-1.46,1.47-.84,2.7-.31,2.46,1.05,2.48,1,3.65-.69a5.42,5.42,0,0,1,1-1c.36-.29.68-.58.32-.93C30.15,59.2,29.42,59.62,28.79,59.57Z"/><path id="_Tracciato_126" data-name="&lt;Tracciato&gt;" class="cls-60" d="M11.14,79.21c-.69.46-.91,1.17,0,1.32,1.08.17,1.78,1.46,3.35.48,1-.66,1.52.37,2.38.25-.09-1.91-1.38-2.49-4.25-2A6.24,6.24,0,0,1,11.14,79.21Z"/><path id="_Tracciato_127" data-name="&lt;Tracciato&gt;" class="cls-8" d="M33.45,38.18c1.79-.44.21-1.19.52-1.76C33,36.93,33.62,37.59,33.45,38.18Z"/><path id="_Tracciato_128" data-name="&lt;Tracciato&gt;" class="cls-42" d="M21.31,47.05c.19.43,1.78.9-.17,1.12-.92.11-1.52.62-1.11,1,1.13,1,.12,1.85-.07,2.77-.07.32.11.78-.65.85-2,.19-.93.7-.51,1.2.29.34.28.82,1.19.82.73,0,.79-.47,1.21-.68C24.87,52.22,24,50,23,47.67,22.85,47.25,22.45,47,21.31,47.05Z"/><path id="_Tracciato_129" data-name="&lt;Tracciato&gt;" class="cls-42" d="M29.26,54.16a.35.35,0,0,0-.5-.2.4.4,0,0,0-.27.33c0,.06.31.11.49.17Z"/><path id="_Tracciato_130" data-name="&lt;Tracciato&gt;" class="cls-47" d="M7,106.76c1-1.66,3-3.14,2.6-5-.11-.51.36-.94.72-1.38.22-.27.36-.53-.09-.8-4.08-2.37-4.4-3.83-1.52-6.84,1.52-1.58,1-3.56-1.2-4.7v.88c.37.86,1.68,1.67.53,2.63a1.9,1.9,0,0,1-.41,1.26c-2.06,2.41-2,4.7.61,7.07,1.27,1.13,1.49,2.81-.1,3.9S6.49,105.65,7,106.76Z"/><path id="_Tracciato_131" data-name="&lt;Tracciato&gt;" class="cls-8" d="M31.41,83c-.6.3-1.09.6-.43,1.07a2.07,2.07,0,0,0,2,.1,1.52,1.52,0,0,0-1-1.17Z"/><path id="_Tracciato_132" data-name="&lt;Tracciato&gt;" class="cls-51" d="M8,91.52c2-1,.31-1.8-.53-2.63C7.69,89.77,7.86,90.65,8,91.52Z"/><path id="_Tracciato_133" data-name="&lt;Tracciato&gt;" class="cls-47" d="M6,109.4a3.16,3.16,0,0,0,1-2.64A2.51,2.51,0,0,0,6,109.4Z"/><path id="_Tracciato_134" data-name="&lt;Tracciato&gt;" class="cls-36" d="M13.65,30.31a2.71,2.71,0,0,0,2.54-.82A4,4,0,0,0,13.65,30.31Z"/><path id="_Tracciato_135" data-name="&lt;Tracciato&gt;" class="cls-42" d="M22.48,79.23a1,1,0,0,0-1.07-.5c-.61.07-1.13.33-1.19.68s.62.37,1.11.37C22,79.79,22.54,79.7,22.48,79.23Z"/></g></g></g></g></svg>