<svg xmlns="http://www.w3.org/2000/svg" viewBox="0 0 24.28 202.85"><defs><style>.cls-1{fill:#00486e;}.cls-2{fill:#13385c;}.cls-3{fill:#103a5d;}.cls-4{fill:#5389a3;}.cls-5{fill:#093d62;}.cls-6{fill:#377996;}.cls-7{fill:#103a5e;}.cls-8{fill:#073f64;}.cls-9{fill:#759eb4;}.cls-10{fill:#0b3d61;}.cls-11{fill:#004d75;}.cls-12{fill:#aec6d3;}.cls-13{fill:#005a80;}.cls-14{fill:#256e8f;}.cls-15{fill:#7aa2b6;}.cls-16{fill:#5f8fa7;}.cls-17{fill:#00446a;}.cls-18{fill:#00567c;}.cls-19{fill:#014166;}.cls-20{fill:#063f63;}.cls-21{fill:#004e75;}.cls-22{fill:#005178;}.cls-23{fill:#d0dee5;}.cls-24{fill:#417e9a;}.cls-25{fill:#307593;}.cls-26{fill:#005d82;}.cls-27{fill:#e2ebee;}.cls-28{fill:#aac2cf;}.cls-29{fill:#95b4c5;}.cls-30{fill:#005c81;}.cls-31{fill:#0c3c60;}.cls-32{fill:#a3becc;}.cls-33{fill:#006184;}.cls-34{fill:#00547a;}.cls-35{fill:#6795ab;}.cls-36{fill:#005a7f;}.cls-37{fill:#005077;}.cls-38{fill:#1d6d8e;}.cls-39{fill:#1e6d8d;}.cls-40{fill:#759fb3;}.cls-41{fill:#00577d;}.cls-42{fill:#28708f;}.cls-43{fill:#a6bfcd;}.cls-44{fill:#4f84a0;}.cls-45{fill:#005d81;}.cls-46{fill:#7fa5b9;}.cls-47{fill:#5287a2;}.cls-48{fill:#004267;}.cls-49{fill:#00557b;}.cls-50{fill:#004f76;}.cls-51{fill:#005179;}.cls-52{fill:#044064;}.cls-53{fill:#7ba1b6;}.cls-54{fill:#267090;}.cls-55{fill:#005e82;}.cls-56{fill:#1c6b8c;}.cls-57{fill:#5085a1;}.cls-58{fill:#005278;}.cls-59{fill:#0c678a;}.cls-60{fill:#7fa4b9;}.cls-61{fill:#00486f;}.cls-62{fill:#c8d9e0;}.cls-63{fill:#47819c;}.cls-64{fill:#307492;}.cls-65{fill:#588ca5;}.cls-66{fill:#00567d;}.cls-67{fill:#00597f;}.cls-68{fill:#00537a;}.cls-69{fill:#447e9b;}.cls-70{fill:#397997;}</style></defs><title>Risorsa 8</title><g id="Livello_2" data-name="Livello 2"><g id="Colori"><g id="_Gruppo_clip_" data-name="&lt;Gruppo clip&gt;"><g id="_Gruppo_" data-name="&lt;Gruppo&gt;"><path id="_Tracciato_" data-name="&lt;Tracciato&gt;" class="cls-1" d="M7,53.88a1.74,1.74,0,0,1,.51-1.37c.24-.12.39,0,.53.24a3.8,3.8,0,0,1,.24,2.56A6.11,6.11,0,0,0,8.66,59c.36.82,0,1.95.82,2.53a.3.3,0,0,0,.31-.3,20.22,20.22,0,0,1,1-7.63c.23-.9-.37-1.31-.47-2A1.9,1.9,0,0,1,11,50.26c.37-.26.26-1.06.88-1.06l.31,2.55a6.94,6.94,0,0,0-.14,1.7,17,17,0,0,0-.34,7.38,15.83,15.83,0,0,1,.45,4.2,2.42,2.42,0,0,0,.54,1.49A4.27,4.27,0,0,1,13,68.11c.14,1.38,0,2.87,1.39,3.69a2.33,2.33,0,0,1,.74,1.4c.43,1.56.86,3,2.18,4,.69.5.56,1.62.76,2.46.43,1.8,1.58,3.15,2.14,4.86A9.55,9.55,0,0,0,21.42,88a.23.23,0,0,1,0,.15c0,2.43,1,4.61,1.26,7a.8.8,0,0,1-.16.45c-.49,1.34.16,2.73-.13,4.13a10.26,10.26,0,0,1-.38,2,2.87,2.87,0,0,1-.18.4c-.32.37-.61.74-.29,1.3a1.74,1.74,0,0,1,.06.45.82.82,0,0,1-.6.81c-.28.09-.54.2-.53.64.05,2.6-.56,5.19-.21,7.8-.68.57-1,.11-1.31-.56a6.34,6.34,0,0,1-.16-2c-.6,2.57-.49,3.59.67,6.61a7.79,7.79,0,0,0-.06,3.08c.15,1.49-.31,3,.08,4.48a1.46,1.46,0,0,1,0,.51c-.31.77-.26,1.69-.77,2.38a.46.46,0,0,1-.62-.07,7.22,7.22,0,0,1,0-2.32,30.75,30.75,0,0,0-.66-6.63,42.45,42.45,0,0,1-1-6.73c0-1.79-.13-3.53.64-5.17a1,1,0,0,0,.1-.65c-.62-2,.62-3.3,1.48-4.72,1.15-.52.73-1.8,1-2.75a3.81,3.81,0,0,1,.13-.45c.07-.26.25-.53.18-.79A26.59,26.59,0,0,1,19,91c-.94-.5-1-1.58-1.38-2.51-1.18-2.84-1.56-6.08-3.23-8.67-.65-1-1.14-2.18-1.81-3.21a5.4,5.4,0,0,1-1.11-3.19,1.34,1.34,0,0,0-.18-.8c-1.48-2.06-1.7-4.89-3.22-6.94a2.89,2.89,0,0,1-.4-2.81,1.58,1.58,0,0,0,.07-1.13,12.07,12.07,0,0,1-.64-7.42A.84.84,0,0,0,7,53.88Z"/><path id="_Tracciato_2" data-name="&lt;Tracciato&gt;" class="cls-2" d="M21.7,102.1c0-.11,0-.22,0-.33,1-1.47.87-3.14.58-4.8-.09-.55-.35-1,0-1.56.51-1.12-1.08-2-.31-3.12-1.53-1.41,0-4-1.66-5.46-.48-.42.18-1.49-.35-2.14,0-1-.66-1.77-.9-2.63A33.13,33.13,0,0,0,15.32,74c-.56-1-.64-2.17-1.61-3-.59-.49-.48-1.81-.64-2.76a4.21,4.21,0,0,0-.62-1.64c-.65-.42-.65-1-.75-1.86-.2-1.61,0-3.32-.62-4.87-.07-.2-.32-.44-.28-.55.69-1.85-.3-4.11,1.08-5.78a1.83,1.83,0,0,1,0,1.34,26.56,26.56,0,0,0,2.28,12.23c1.4,3.26,3.05,6.37,4.62,9.52a62.2,62.2,0,0,1,4.54,13.61,38.05,38.05,0,0,1,.86,5.81,15.38,15.38,0,0,1-1.33,7.58c-1.51,3.38-1.44,6.92-.79,10.57a71.44,71.44,0,0,1,1.36,8c.24.55-.06,1.19.23,1.74v.5c-.28.67,0,1.42-.21,2.1-.56.92-.41,2.07-.81,3.08a18.21,18.21,0,0,1-3.45,5.73c-2.39,2.52-2.33,5.46-2.13,8.71.16,2.43,1,4.63,1.37,7,.2.51.42,1.13-.23,1.32-.46.13-.79-.35-.83-.92a3.31,3.31,0,0,0-.52-1.35c-.23-.86-1-1.34-1.24-2.18,0-2.31-.62-4.55-.56-6.84a10,10,0,0,1,1.71-4.66,16.22,16.22,0,0,1,3.13-4.3c.6-.53.27-1.65.91-2.2a48.61,48.61,0,0,0,1.1-7.32c.1-1-.61-1.76-.79-2.77a93.63,93.63,0,0,1-.94-11.21,5,5,0,0,1,.95-3.7,1.16,1.16,0,0,0,.26-1.46h0A1.79,1.79,0,0,1,21.7,102.1Z"/><path id="_Tracciato_3" data-name="&lt;Tracciato&gt;" class="cls-3" d="M7,53.88c.54.08.62.52.48,1a9.13,9.13,0,0,0,.72,6.72c.11.23.24.62.15.78-1.49,2.68.87,4,1.57,5.91.14.37.55.64.49,1.13a2.57,2.57,0,0,0,1,2.55,1.26,1.26,0,0,1,.47,1.16c-.15,1.78,1,2.85,1.63,4.22,1.09,2.22,2.48,4.25,3.1,6.82.29,1.17.16,2.78,1.41,3.53a.67.67,0,0,1,.17.76c-.47,1.4.37,1.84,1.22,2.28.55,1-.53,1.66-.27,2.67s.78,2.14.31,3.36c-.25.64,1,.82.54,1.67-.73.83-.5,2-.88,3-.46,1.46-2.38,2.31-1.38,4.42a1.5,1.5,0,0,1-.18,1.11c-1.26,2.2-.49,4.57-.49,6.87a1.46,1.46,0,0,0,.52,1.3.78.78,0,0,1,.29,1c-1,1.71.15,3,.58,4.45.1.31.39.66.33.89-.56,2,.09,4.11-.56,6.08a5.83,5.83,0,0,1-2.24,4.6,3.42,3.42,0,0,0-1.54,2.28,1.73,1.73,0,0,1-.57.94,4.91,4.91,0,0,0-1.36,4,10.19,10.19,0,0,1-.31,2.47c-.11.53-.25,1.11-.9,1.05a13.16,13.16,0,0,1,2.28-10.55c1.2-1.81,2.85-3.26,3.51-5.54a15,15,0,0,0-.17-7.3,49.43,49.43,0,0,1-1.21-13.73,6.45,6.45,0,0,1,.72-2.87A15.66,15.66,0,0,0,18,98.82a4.4,4.4,0,0,0,0-2.25,25.47,25.47,0,0,0-1.78-9c-.73-1.93-1-4-1.92-5.9S12.47,78,11.55,76.23A45.69,45.69,0,0,1,7.13,65,27.18,27.18,0,0,1,6.67,54.6,3.3,3.3,0,0,1,7,53.88Z"/><path id="_Tracciato_4" data-name="&lt;Tracciato&gt;" class="cls-4" d="M7.57,48.87v-.7a7,7,0,0,0-.44-3.06,2.2,2.2,0,0,1,0-.92c.36-1.11.17-2.43.93-3.39,1.69-.41,2-2.1,2.45-3.6a2.51,2.51,0,0,1,.22-.67c.24-.38.14-1.05.73-1.12A4.73,4.73,0,0,1,10.21,41C9,42.23,9.08,44,8.64,45.56c-.11.4.08,1,.5,1.06.59.06.4-.58.44-1,.06-.67-.38-1.58.62-1.83.35.42.28,1.06.59,1.5.12,1.38.89,2.62.65,4.07a2.55,2.55,0,0,1-.85,1.45c-.36.38-.58,1.09-1.25.81s-.53-1-.66-1.5S7.93,49.3,7.57,48.87Z"/><path id="_Tracciato_5" data-name="&lt;Tracciato&gt;" class="cls-5" d="M4.64,3.05a123.08,123.08,0,0,0,7.72,9.65c-.15.58,0,1.25-.44,1.73-.54.05-.6-.55-.87-.86C9.2,12.48,7.93,10.63,6.51,9,6.07,7.55,4.9,6.82,4.18,5.66S3,3.49,3.89,2.24C4.4,2.19,4.45,2.71,4.64,3.05Z"/><path id="_Tracciato_6" data-name="&lt;Tracciato&gt;" class="cls-6" d="M8.67,28.44a2.93,2.93,0,0,1-.78-2.38c-.11-.43.46-1.12-.37-1.26a9.07,9.07,0,0,1-.19-3.74c.39,0,.44.36.56.81.41-1.38,1.39-1.61,2.38-1.84s2.26.21,1.9-1.89c-.13-.72.53-1,1.12-.75A2.47,2.47,0,0,1,15,19.74a2.39,2.39,0,0,1-1.71,2.38c-1,.32-2.06.47-3.08.72-.36-.15-.28-1-.78-.8s-.28.75-.33,1.16a13.88,13.88,0,0,0-.05,2.14c0,.94.35,1.83.33,2.77a.74.74,0,0,1-.17.43A.46.46,0,0,1,8.67,28.44Z"/><path id="_Tracciato_7" data-name="&lt;Tracciato&gt;" class="cls-7" d="M11.91,14.37c.12-.57-.32-1.33.45-1.67l3.81,4.42a4.47,4.47,0,0,1,1.3,3,3.14,3.14,0,0,1-1.85,3.31c-.69-.14-1.27.58-2,.3-.47-.79,0-1.05.53-1.35,1.63-.95,1.91-2.17.77-3.78A38.62,38.62,0,0,1,11.91,14.37Z"/><path id="_Tracciato_8" data-name="&lt;Tracciato&gt;" class="cls-8" d="M7.78,172.39l-.1-2.67a26,26,0,0,1,0-4.67c.42-3.45,1.65-6.31,4.43-8,.73.18,1.29-.9,2.07-.38.09,1.07-.75,1.18-1.27,1.64-.83,1-1.54,2.09-2.46,3a1.52,1.52,0,0,0-.55.93c-.18,2.09-1.18,3.95-1.28,6.06a16.51,16.51,0,0,1-.23,3.22C8.29,171.86,8.31,172.38,7.78,172.39Z"/><path id="_Tracciato_9" data-name="&lt;Tracciato&gt;" class="cls-9" d="M9.85,40.81c1.53-1,2.13-3.18,1.46-5.34-.78-.19-.72-1.13-1.11-1.65l-.29-1.06A4.19,4.19,0,0,1,10.76,31a.81.81,0,0,1,.61,0,4,4,0,0,1,1.86,3.63c0,1.44.14,2.85.09,4.28a5.85,5.85,0,0,1-2,3.06C11.08,41.08,10.33,41.2,9.85,40.81Z"/><path id="_Tracciato_10" data-name="&lt;Tracciato&gt;" class="cls-10" d="M14.12,156.67c-.7,0-1.21,1.28-2,.36,1.76-1.49,1.91-2,1.14-4.43-1-3.13-2-6.25-2-9.67a6.43,6.43,0,0,0,.83-3.67c1.14.68.78,2,.92,3.05-.7.91-1.37,1.82-.12,2.86a.79.79,0,0,1,.26.73c-.38,1.51.57,2.59.89,3.87a10,10,0,0,0,.54,3.39C14.93,154.36,15.28,155.69,14.12,156.67Z"/><path id="_Tracciato_11" data-name="&lt;Tracciato&gt;" class="cls-11" d="M11.91,14.37A20.74,20.74,0,0,1,16,19.63c.41.75-.55,2.68-1.4,3-.5.19-1.09.15-1,1.06H11.78c.15,2.44,1.37,4.43,1.52,6.75-.57.41-.76-.17-1-.55a6,6,0,0,0-.92-1.47,1.36,1.36,0,0,1-.24-.38c0-1.37-.5-2.66-.47-4,0-1.12.32-1.65,1.4-1.83.86-.14,1.88,0,2.58-1.12.57-.9.68-1.51,0-2.31-1.16-1.41-2.43-2.68-3.55-4.14a1.21,1.21,0,0,1,.19-1.24Z"/><path id="_Tracciato_12" data-name="&lt;Tracciato&gt;" class="cls-12" d="M11,191.55c-.51-.55-.07-1.15-.08-1.72.26-1.56-.6-2.81-.86-4.23a1.72,1.72,0,0,1-.14-1.37.41.41,0,0,1,.33-.21,4.66,4.66,0,0,0,1.36.71,3.1,3.1,0,0,1,.78,1.59c.11.31-.22.9.41.89a.77.77,0,0,1,.69.21v.8c-.23.51,0,1.06-.13,1.58.11-.43-.1-.91.17-1.32.78,2.08,0,4.13-.14,6.18a3.7,3.7,0,0,1-.43,2.2.82.82,0,0,1-.25-.27,4.18,4.18,0,0,1-.44-.87,2.14,2.14,0,0,1,.19-.83,13.77,13.77,0,0,0-.21-5.28c.21.64-.64,1-.77,1.64a1.15,1.15,0,0,1-.29.33Z"/><path id="_Tracciato_13" data-name="&lt;Tracciato&gt;" class="cls-13" d="M2.62,9A11.81,11.81,0,0,1,.06,2.63C-.22.52.55-.13,2.63,0c.36.62-.14.84-.4,1.17-.8.66-.67,1.65-.68,2.59A1.51,1.51,0,0,0,2,5.07a3.08,3.08,0,0,1,.37.5,9.92,9.92,0,0,1,1.75,4C3.38,10.34,3.16,9.05,2.62,9Z"/><path id="_Tracciato_14" data-name="&lt;Tracciato&gt;" class="cls-14" d="M9,49.86c.54.36-.34,1.34.44,1.52s.92-.68,1.34-1.09a5.54,5.54,0,0,0,.54-.77.8.8,0,0,1,0,1,2.36,2.36,0,0,0-.84,1c.66,1.21.22,2.39-.1,3.55-.19.68-.65,1.14-1.33,1s-.8-.68-.74-1.37a2.68,2.68,0,0,0-.42-1.88l-.33-.35.07-2A2.32,2.32,0,0,1,9,49.86Z"/><path id="_Tracciato_15" data-name="&lt;Tracciato&gt;" class="cls-15" d="M9.23,181.11c-.15-.33-.47-.6-.3-1.05,0-1.06-.13-2.11-.18-3.16a15.47,15.47,0,0,1-.24-2.35,4,4,0,0,1,.15-1,2.43,2.43,0,0,1,.38-.67c.57-.63,1.15-.94,1.81-.16.58,1.31-.08,2.79.42,4.14.24.64.22,1.39.5,2,.26.82,1,1.66-.09,2.4a.59.59,0,0,1-.41-.07c-.34-1-.58-2-.87-3-.05-.15-.06-.39-.15-.43-.31-.13-.19.22-.21.35a3.65,3.65,0,0,0,.12.93c0,.61-.33,1.09-.41,1.66a1.38,1.38,0,0,1-.18.39.26.26,0,0,1-.22.09Q9.23,181.14,9.23,181.11Z"/><path id="_Tracciato_16" data-name="&lt;Tracciato&gt;" class="cls-10" d="M17.31,159.7A6.05,6.05,0,0,1,15.06,162c-2.25,1.34-2.07,3.83-2.45,6.09-.11.23-.08.65-.34.66s-.54-.42-.61-.8c-.2-1,.14-2.09,0-3.14a4.94,4.94,0,0,1,2.94-3.91c.49-.48.71-1.22,1.23-1.69a1.14,1.14,0,0,1,.43-.17C16.73,159.05,17.29,158.85,17.31,159.7Z"/><path id="_Tracciato_17" data-name="&lt;Tracciato&gt;" class="cls-16" d="M11.34,28.08a.91.91,0,0,0,.23,0c.57,1,.8,2.33,1.81,3,.18,0,.27.15.21.37-.5.85-.06,1.58.22,2.33a1.61,1.61,0,0,1,0,.69c-.36,1,.16,1.76.46,2.58a.53.53,0,0,1-.06.43c0,.36.11.78-.29,1-.31,0-.24.53-.55.48a.4.4,0,0,1-.33-.15,32.64,32.64,0,0,1-.15-4.1,4.57,4.57,0,0,0-1.6-3.62c-.12-1-.87-1.92-.35-3A.27.27,0,0,1,11.34,28.08Z"/><path id="_Tracciato_18" data-name="&lt;Tracciato&gt;" class="cls-17" d="M17.31,159.7c-.3-.5-.76-.3-1.17-.35,0-.81.78-.77,1-1.31a7.56,7.56,0,0,0,.65-3.56,3,3,0,0,0-.27-1.32,5.17,5.17,0,0,1-.63-3L17,150c.38.31.9.55.74,1.23-.11.47,0,.86.35.84.59,0,.22-.66.34-1C19.16,154.11,19.66,157.16,17.31,159.7Z"/><path id="_Tracciato_19" data-name="&lt;Tracciato&gt;" class="cls-18" d="M9.14,176.77c0,1.1.29,2.23-.21,3.29-.6-2.52-1.34-5-1.15-7.67.6-1.38.27-2.91.53-4.34a.27.27,0,0,1,.4,0c.54.91,1.61,1.72.41,2.95-.79,1-.27,2.27-.38,3.41A3.73,3.73,0,0,0,9.14,176.77Z"/><path id="_Tracciato_20" data-name="&lt;Tracciato&gt;" class="cls-11" d="M12.08,164.7a8.33,8.33,0,0,1-.2,2.64c.33.12-.29,1.54.73.72a2.09,2.09,0,0,1-.29,1.35,12.73,12.73,0,0,0-.29,4l.1,1.36a4.07,4.07,0,0,1,0,1.63A1.15,1.15,0,0,1,10.9,175c.34-1.79-.51-3.61.19-5.35.63-1.31-.42-2.68.12-4,.15-.37,0-.89.49-1.1A.44.44,0,0,1,12.08,164.7Z"/><path id="_Tracciato_21" data-name="&lt;Tracciato&gt;" class="cls-19" d="M2.62,9c.69-.4.82.87,1.46.64l.19,0a6.63,6.63,0,0,1,2.42,3.47c.91.69,1.4,1.93,2.46,2.46.37.18.4.57,0,.9a.76.76,0,0,1-.78-.16A39,39,0,0,1,2.62,9Z"/><path id="_Tracciato_22" data-name="&lt;Tracciato&gt;" class="cls-20" d="M8.4,16.39l.91,0c.82-.22,1.33.32,1.79,1,.27.79.9,1.78-.08,2.28s-1.93,1.59-2.92.08c.35-.67,1-.9,1.5-1.4Z"/><path id="_Tracciato_23" data-name="&lt;Tracciato&gt;" class="cls-21" d="M11.26,50.51c0-.33,0-.66,0-1,.08-1.44-.9-2.58-.86-4-.13-2.67,0-3,1.35-3.64.27-.12.46-.09.41.33-1.23,1.92-.89,4-.45,6.06.06.31.05.64.08,1C11.42,49.51,11.79,50.27,11.26,50.51Z"/><path id="_Tracciato_24" data-name="&lt;Tracciato&gt;" class="cls-22" d="M8.1,19.71c1.08.92,2.05,0,2.89-.47.6-.36-.13-1.22-.23-1.87,1.24-.13,1.32,1.14,1.59,2,.15.45-.39,1-1,.82a1.2,1.2,0,0,0-1.21.24c-.8.45-2,.29-1.95,1.94a.42.42,0,0,1-.22.32c-.21.06-.36-.1-.42-.34-.11-.41.11-.91-.25-1.26Z"/><path id="_Tracciato_25" data-name="&lt;Tracciato&gt;" class="cls-23" d="M12,202.85c-.55,0-1-.42-1.43-.65-.47-1,0-2,0-3,.48-.24.59.38.93.54.31-.51.06-1.15.3-1.67a.75.75,0,0,1,.29-.32l.21,0,.14.18c.18.61-.2,1.26.12,1.86A14.74,14.74,0,0,1,12,202.85Z"/><path id="_Tracciato_26" data-name="&lt;Tracciato&gt;" class="cls-24" d="M12.2,42.19c-1.31.43-1.49.7-1.52,2.06a6.73,6.73,0,0,1-.24,1.25c-.5-.46-.22-1.11-.3-1.67-.51-1.37.33-1.68,1.17-2,.59-1,1.17-2,1.75-3h.3c.37.69-.27,1.3-.11,2A3.42,3.42,0,0,1,12.2,42.19Z"/><path id="_Tracciato_27" data-name="&lt;Tracciato&gt;" class="cls-25" d="M11.51,181.11c1-.67.34-1.34,0-2a.52.52,0,0,1,.32-.43c.28,0,.39.22.49.46l.57,4.34c-.52.61,0,1.36-.19,2a.44.44,0,0,1-.42,0A6.43,6.43,0,0,1,11.51,181.11Z"/><path id="_Tracciato_28" data-name="&lt;Tracciato&gt;" class="cls-26" d="M10.73,37.14c0,2.07-1.14,3.31-2.48,4.46l-.14-.8c.39-1.54,2-2.09,2.31-3.67.07-.12.14-.15.21-.11S10.73,37.1,10.73,37.14Z"/><path id="_Tracciato_29" data-name="&lt;Tracciato&gt;" class="cls-23" d="M12.64,195.18l-.31.65c-.12.66.15,1.39-.25,2l0,0c-.57-.06-.82.84-1.43.65l0-2.36c.48-.43,0-1.35.66-1.71a2.27,2.27,0,0,1,1.23.56A1.74,1.74,0,0,1,12.64,195.18Z"/><path id="_Tracciato_30" data-name="&lt;Tracciato&gt;" class="cls-27" d="M10.62,198.51c.61.17.38-2.1,1.43-.65a1.82,1.82,0,0,1,0,.33c-.12.84.41,2-.41,2.42s-.24-1.32-1-1.41Z"/><path id="_Tracciato_31" data-name="&lt;Tracciato&gt;" class="cls-28" d="M11.49,194.52c-.6.32.09,1.54-.85,1.63.07-1.22-.25-2.48.24-3.67-.16-.11.29,0,.11.1s-.07.33,0,.13c.14-.37,0-.79.14-1.15l.08-.1c.45-.06.55.34.68.7a2.36,2.36,0,0,1,0,.46,9.28,9.28,0,0,1-.28,1.74A1.07,1.07,0,0,1,11.49,194.52Z"/><path id="_Tracciato_32" data-name="&lt;Tracciato&gt;" class="cls-6" d="M10.72,31.12c-.15.63-.06,1.41-.81,1.64-.46-.94-.31-2.11-.87-3,.09-.43-.14-.94.23-1.3l0,0c.36-.1.44.21.54.5a3.21,3.21,0,0,1,.07.43,1.42,1.42,0,0,0,.41,1.09A1.21,1.21,0,0,1,10.72,31.12Z"/><path id="_Tracciato_33" data-name="&lt;Tracciato&gt;" class="cls-29" d="M10.32,185.47c.33,1.2.64,2.4,1,3.6.15.51,0,.7-.42.76l-.81-3.07C10.16,186.33,9.92,185.82,10.32,185.47Z"/><path id="_Tracciato_34" data-name="&lt;Tracciato&gt;" class="cls-30" d="M9,49.86c-.28.75-.85.68-1.41.66V48.87C8.27,48.77,8.69,49.2,9,49.86Z"/><path id="_Tracciato_35" data-name="&lt;Tracciato&gt;" class="cls-31" d="M12,173.4c-.35-1.37-.65-2.74.29-4A12.44,12.44,0,0,1,12,173.4Z"/><path id="_Tracciato_36" data-name="&lt;Tracciato&gt;" class="cls-32" d="M10.32,184.12H10c-.19.28-.43-.53-.61,0-.33-.43-.19-.94-.2-1.42.39-.37-.22-1.13.41-1.41,1,.44.69,1.49.84,2.33A.72.72,0,0,1,10.32,184.12Z"/><path id="_Tracciato_37" data-name="&lt;Tracciato&gt;" class="cls-33" d="M7.25,45.17a2.41,2.41,0,0,1,.32,3l-.38-1.34A2.69,2.69,0,0,1,7.25,45.17Z"/><path id="_Tracciato_38" data-name="&lt;Tracciato&gt;" class="cls-34" d="M13.61,34.42v-.59c-.1-.4-.38-.87.25-1a6,6,0,0,1,.37,2.3,1.25,1.25,0,0,1,0,1.1C13.22,36,13.46,35.17,13.61,34.42Z"/><path id="_Tracciato_39" data-name="&lt;Tracciato&gt;" class="cls-34" d="M13.38,31.11c-1.28-.45-1.59-1.69-1.81-3,1,.37.67,2,1.73,2.33Z"/><path id="_Tracciato_40" data-name="&lt;Tracciato&gt;" class="cls-35" d="M9.42,184.17c.15-1,.41-.09.61,0,0,.47-.1,1,.29,1.34,0,.44.15.94-.24,1.29A8.74,8.74,0,0,1,9.42,184.17Z"/><path id="_Tracciato_41" data-name="&lt;Tracciato&gt;" class="cls-25" d="M12.7,187.52c-.17.19-.41.43-.6.22-.34-.35.07-.8,0-1.21.19-.34.2-.78.52-1l.06-.07c.1-.09.11-.31.28-.33.39.39.23.9.23,1.38S12.74,187.1,12.7,187.52Z"/><path id="_Tracciato_42" data-name="&lt;Tracciato&gt;" class="cls-36" d="M13.25,40.8c-.65-.71.12-1.31.11-2l.42-.75.16.42A4.8,4.8,0,0,1,13.25,40.8Z"/><path id="_Tracciato_43" data-name="&lt;Tracciato&gt;" class="cls-36" d="M13.87,32.8c-.3.27-.22.67-.25,1-.5-.77-1.37-1.54,0-2.35C13.51,32,14.07,32.27,13.87,32.8Z"/><path id="_Tracciato_44" data-name="&lt;Tracciato&gt;" class="cls-37" d="M7.52,24.8c.06-.25,0-.61.37-.59s.43.24.47.53a1.61,1.61,0,0,1-.47,1.32Z"/><path id="_Tracciato_45" data-name="&lt;Tracciato&gt;" class="cls-26" d="M10.2,33.82c.78.18.63,1.2,1.11,1.65-.08.45.14,1-.29,1.34-.44-.44-.19-1.18-.53-1.67A2.07,2.07,0,0,1,10.2,33.82Z"/><path id="_Tracciato_46" data-name="&lt;Tracciato&gt;" class="cls-38" d="M3.2.31,3.49,1a.83.83,0,0,1-.4.54.74.74,0,0,1-1-.54c.16-.34.61-.45.57-.95Z"/><path id="_Tracciato_47" data-name="&lt;Tracciato&gt;" class="cls-39" d="M13,185.1c-.09.11-.19.22-.28.34,0-.67-.87-1.48.22-2Z"/><path id="_Tracciato_48" data-name="&lt;Tracciato&gt;" class="cls-40" d="M12.9,196.57a.7.7,0,0,0,0,.29l-.06,1.29c-.31.21-.38-.12-.52-.31h0a1.69,1.69,0,0,1-.16-1.24C12.35,195.93,12.64,196.05,12.9,196.57Z"/><path id="_Tracciato_49" data-name="&lt;Tracciato&gt;" class="cls-15" d="M12.32,179.12l-.51-.4c-.51-.73-.17-1.35.18-2,.16-.14.27-.1.34.12Z"/><path id="_Tracciato_50" data-name="&lt;Tracciato&gt;" class="cls-41" d="M10.49,35.14c.63.37.53,1,.53,1.67l-.29.33h-.31Z"/><path id="_Tracciato_51" data-name="&lt;Tracciato&gt;" class="cls-42" d="M12.7,187.52c-.63-.83.28-.71.48-1l.28.94Z"/><path id="_Tracciato_52" data-name="&lt;Tracciato&gt;" class="cls-43" d="M12.36,197.84l.52.31-.27,1.67C12.13,199.22,12.42,198.5,12.36,197.84Z"/><path id="_Tracciato_53" data-name="&lt;Tracciato&gt;" class="cls-44" d="M13.51,188.48v1.64a1.77,1.77,0,0,1,0-1.9A1.09,1.09,0,0,0,13.51,188.48Z"/><path id="_Tracciato_54" data-name="&lt;Tracciato&gt;" class="cls-9" d="M14.14,36.11l.1-1a2.9,2.9,0,0,1,0,2.41L14.15,37A1.2,1.2,0,0,1,14.14,36.11Z"/><path id="_Tracciato_55" data-name="&lt;Tracciato&gt;" class="cls-45" d="M9.27,28.45c0,.44.14.93-.23,1.3a2,2,0,0,1-.37-1.31Z"/><path id="_Tracciato_56" data-name="&lt;Tracciato&gt;" class="cls-46" d="M9.47,181.44c-.05.45.43,1-.25,1.31,0-.55,0-1.1,0-1.64h.2A.23.23,0,0,1,9.47,181.44Z"/><path id="_Tracciato_57" data-name="&lt;Tracciato&gt;" class="cls-47" d="M11.14,191.56v1.59c-.29-.13-.17-.45-.26-.67l.09-.93Z"/><path id="_Tracciato_58" data-name="&lt;Tracciato&gt;" class="cls-1" d="M13,142.27c-.59-.89-.21-2.15-.86-3-.19-1.8.91-2.93,1.49-4.36,1.15-2.86,4.14-4.05,4.6-7.35h.58c0,.07,0,.14.07.21-.67,2-.55,4.24-1.85,6,.7-1.25,2.41-1.28,2.56-3a5,5,0,0,0,1-2.17c0-.35.15-1,.72-.48a4.83,4.83,0,0,1-.14,2.14C20.18,133,18,134.58,16.75,137c-1,2-1.95,4.41-1.24,6.56.52,1.58.17,3,.36,4.4a1,1,0,0,1,0,1c-.29.07-.44-.12-.56-.37-.15-1.85-.9-3.57-.91-5.45.27-1.33,0-2.75.42-4.08.11-.35,0-.78.32-1.07.89-.89.42-1.73,0-2.68-.86,1.09-.94,2.61-1.86,3.58-.34.35,0,.94.11,1.42.17.69.43,1.4-.21,2Z"/><path id="_Tracciato_59" data-name="&lt;Tracciato&gt;" class="cls-41" d="M7.83,52.86c.73.42.54,1.2.57,1.9,0,.47.11.91.55,1a.79.79,0,0,0,1-.68c0-1.08,1.14-2,.28-3.2,0,0,.11-.26.18-.39a2.23,2.23,0,0,1,.52,2.7,21.69,21.69,0,0,0-1,5.35c-.06.75.59,1.52,0,2.39-.37.54-.58.68-.94,0-.65-1.13-.3-2.78-1.42-3.67,1-1-.65-2.31.37-3.41C8.45,54.44,7.89,53.57,7.83,52.86Z"/><path id="_Tracciato_60" data-name="&lt;Tracciato&gt;" class="cls-48" d="M21.1,130.23v-2.35a1.7,1.7,0,0,0,0-.22c-.36-1.45.44-2.77.35-4.24a3.32,3.32,0,0,0-.46-2.09,4.65,4.65,0,0,1-.79-2.29,30.65,30.65,0,0,0-.24-3.83,2.61,2.61,0,0,1,.32-2.06c-.9-1.68-.24-3.48-.23-5.21a8,8,0,0,0,.08-2.59c-.23-.74-.22-1.39.77-1.08.66.2.49-.44.55-.83a1.15,1.15,0,0,1,.14,1.5c-1.55,1.63-1,3.7-.93,5.6a48,48,0,0,0,.54,6.68c.25,1.51.09,3.2,1.05,4.53.72,1,.12,2.38-.1,3.08C21.56,126.61,22.07,128.61,21.1,130.23Z"/><path id="_Tracciato_61" data-name="&lt;Tracciato&gt;" class="cls-49" d="M21.1,127.88c-.47,1-.19,2.51-1.45,3-.38-.58.06-1.05.16-1.55a2.17,2.17,0,0,0-.4-2.27,1.93,1.93,0,0,1,0-1.88v-.33c-.4-1.54.14-3.15-.28-4.69-.08-1-.53-2.1.29-3,1,.09,1,.09,1,2a2.43,2.43,0,0,0,.44,1.7c1.28,1.19.68,2.89.56,4.11a28.28,28.28,0,0,0-.28,2.86Z"/><path id="_Tracciato_62" data-name="&lt;Tracciato&gt;" class="cls-8" d="M12.45,66.6c1.2.51,1,2,1.29,3,.48,1.76,1.48,3.12,2.12,4.75.85,2.14,2.79,3.61,2.92,6.25A2.69,2.69,0,0,0,19.42,82,2.71,2.71,0,0,1,20,84.69c-.52-1.62-1.84-2.76-2-4.6-.26-2.8-3-4.1-3.21-7a1,1,0,0,0-.31-.72c-1.95-1.11-1.6-3.28-1.86-5.17C12.55,67,12.49,66.82,12.45,66.6Z"/><path id="_Tracciato_63" data-name="&lt;Tracciato&gt;" class="cls-50" d="M20.24,119.51c-.15-.85.46-2.08-.87-2.34-.74-1.5-2-2.85-1-4.84.25-.47-.06-.83-.28-1.2a.68.68,0,0,1,.15-1c.34-.24.69-.47,1.06-.13s0,.61,0,1c-.24,1-.3,2,1,2.18,0,2.13.49,4.22.29,6.36-.07.12-.13.15-.19.12S20.24,119.55,20.24,119.51Z"/><path id="_Tracciato_64" data-name="&lt;Tracciato&gt;" class="cls-51" d="M20.77,101.12c-.79,1.84-1.43,3.17-.92,4.82.26.87-.48,1.48-.74,2.22-.11.31-.48.33-.76.16a.75.75,0,0,1-.39-.81c.5-1.8.52-3.77,1.38-5.42C19.53,101.73,20.05,101.6,20.77,101.12Z"/><path id="_Tracciato_65" data-name="&lt;Tracciato&gt;" class="cls-52" d="M20,98.42c0-.48-.3-.63-.67-.7a.64.64,0,0,1-.41-1c.82-1.32.33-2.47-.18-3.67-.44-1,.92-1.37.68-2.33a22.18,22.18,0,0,0,1.09,6.58C20.61,97.65,20.29,98.13,20,98.42Z"/><path id="_Tracciato_66" data-name="&lt;Tracciato&gt;" class="cls-48" d="M22.29,95.41c0,1.55.77,3,.33,4.65-.2.72-.31,1.35-.91,1.71.32-1.77.88-3.52.16-5.33C21.65,95.9,21.92,95.63,22.29,95.41Z"/><path id="_Tracciato_67" data-name="&lt;Tracciato&gt;" class="cls-52" d="M19.09,101.43c-.32-1.24-.34-2.36.88-3C19.65,99.41,20.57,100.88,19.09,101.43Z"/><path id="_Tracciato_68" data-name="&lt;Tracciato&gt;" class="cls-21" d="M19.08,120.18a11.41,11.41,0,0,1,.28,4.69C18.36,123.38,19.43,121.72,19.08,120.18Z"/><path id="_Tracciato_69" data-name="&lt;Tracciato&gt;" class="cls-21" d="M19.37,125.2a6.78,6.78,0,0,0,.28,2c-.22.35-.48.55-.87.34h0C18.79,126.7,18.7,125.83,19.37,125.2Z"/><path id="_Tracciato_70" data-name="&lt;Tracciato&gt;" class="cls-48" d="M21.7,102.1a2.47,2.47,0,0,1-.29,1.34C20.68,102.76,21.07,102.39,21.7,102.1Z"/><path id="_Tracciato_71" data-name="&lt;Tracciato&gt;" class="cls-17" d="M15.87,149v-1c.42.64,1.31.92,1.16,2h0C16.38,150,16.11,149.52,15.87,149Z"/><path id="_Tracciato_72" data-name="&lt;Tracciato&gt;" class="cls-53" d="M11.31,41.84c-.3.73-1.39.84-1.17,2a1.72,1.72,0,0,0-.21,1.7c.23.81.28,1.51-.54,1.7s-1.3-.93-1.18-1.44c.42-1.7.42-3.62,1.64-5C10.43,41,11.55,40.13,11.31,41.84Z"/><path id="_Tracciato_73" data-name="&lt;Tracciato&gt;" class="cls-54" d="M3.21,1.31,3.49,1c.2.44.76.67.6,1.33-.78,1.82-.18,2.61,1.55,4.53A3.16,3.16,0,0,1,6.7,9a7.09,7.09,0,0,1,2,3.17,1.49,1.49,0,0,1-1.52,1.41c-.81,0-.64-.93-.83-1.49A17,17,0,0,0,4.08,9.68h0c-.91-1.18-1-2.89-2-4,.72-.29,1.08-.71.75-1.7A2.9,2.9,0,0,1,3.21,1.31Z"/><path id="_Tracciato_74" data-name="&lt;Tracciato&gt;" class="cls-55" d="M8.43,12A17.93,17.93,0,0,1,6.7,9c.09,0,.22,0,.28.06,1.46,1.42,2.58,3.3,4.35,4.3V14.7c-.56.12-.55-.51-.8-.81-.32-.52-.89-.57-1.3-.92A2.66,2.66,0,0,1,8.43,12Z"/><path id="_Tracciato_75" data-name="&lt;Tracciato&gt;" class="cls-56" d="M10.75,13.7l.58,1c1.85,1.08,2.89,3.11,4.19,4.83.46.62-.64,2.32-1.57,2.53a7.08,7.08,0,0,1-1.69.31c-1.07,0-1.32.67-1.23,1.71-.88.06-1.28-.28-.86-1.34.83-.92,2-.69,3-1a2.13,2.13,0,0,0,1.6-2c.06-1.06-.77-1.67-1.61-2.05-.5-.23-.77,0-.75.56.05,2.13.07,2.13-1.77,2.14h-.43c.21-.52.54-.78,1-.56.35.16.66.18.86-.25a.67.67,0,0,0-.31-.95c-.49-.27-.29-1.25-1-1.27l-1.45-1c-1.2-.7-1.92-2-2.92-3a2.27,2.27,0,0,1,0-1.68c.06.08.13.15.19.24.26.41-.16,1.32.52,1.33A1.38,1.38,0,0,0,8.43,12l.87.67a3,3,0,0,0,1.85,3.19C11,15.13,10,14.59,10.75,13.7Z"/><path id="_Tracciato_76" data-name="&lt;Tracciato&gt;" class="cls-57" d="M10.17,22.74c-.13.8.35,1.09.86,1.34,0,1.35.69,2.62.31,4H11a1.87,1.87,0,0,1-.65-1.52c.17-.95-.42-1.46-1-2.05-.24.21,0,1.07-.7.9a21.89,21.89,0,0,0,.06-2.8c-.08-.87.08-1.22.87-1.23C10.78,21.38,10.14,22.22,10.17,22.74Z"/><path id="_Tracciato_77" data-name="&lt;Tracciato&gt;" class="cls-16" d="M8.71,25.42c.68-.42-.06-1.64.83-1.94.13,1.13,1.54,1.56,1.19,2.95-.32.22-.59-.33-.91-.09.43,2.07.43,2.07-.24,2.76a.84.84,0,0,0-.28-.68C9.1,27.42,8.9,26.42,8.71,25.42Z"/><path id="_Tracciato_78" data-name="&lt;Tracciato&gt;" class="cls-58" d="M14.12,156.67a4.83,4.83,0,0,0,.12-3.43,5.14,5.14,0,0,1-.4-3.6.28.28,0,0,1,.4.05,1.67,1.67,0,0,1,.25.43,6.91,6.91,0,0,1,.64,7c-.63,1-1.32,1.77-2.46.91C13.13,157.53,13.9,157.5,14.12,156.67Z"/><path id="_Tracciato_79" data-name="&lt;Tracciato&gt;" class="cls-14" d="M8.59,168.07l-.28,0c0-2.16,1.12-4,1.27-6.16a.87.87,0,0,1,.75-.88c.08-.09.15-.12.23-.1s.12.05.12.08c-.3,1.76-.4,3.55-.87,5.27C10,167.4,9.11,167.56,8.59,168.07Z"/><path id="_Tracciato_80" data-name="&lt;Tracciato&gt;" class="cls-59" d="M10.64,161l-.31,0,2.34-3c1,.24,1.65-.33,2.31-1l.13.2c-1,1.78-2.55,2.84-4,4.07C11,161.38,10.78,161.19,10.64,161Z"/><path id="_Tracciato_81" data-name="&lt;Tracciato&gt;" class="cls-60" d="M9.58,29.1c.48-.59.25-1.2.07-1.84s-.85-1.12-.3-1.6,1,.4,1.38.77c.11.55.21,1.11.31,1.66-.38,1.06,1.06,1.91.27,3h-.59l-.55-.36a4.67,4.67,0,0,1-.58-1.33C9.59,29.32,9.58,29.21,9.58,29.1Z"/><path id="_Tracciato_82" data-name="&lt;Tracciato&gt;" class="cls-61" d="M14.13,149.64h-.29c-.44-1.17-1.78-2-.95-3.66.13-.24-.06-.46-.29-.66-1.26-1.06-1.11-2.24.37-3h0a3.86,3.86,0,0,1,.59,1.34A17.2,17.2,0,0,1,14.13,149.64Z"/><path id="_Tracciato_83" data-name="&lt;Tracciato&gt;" class="cls-23" d="M11.78,192.5c-.19-.35-.38-.69-.56-1-.19-1.13.94-1.7.91-2.78,0-.11.69-.31.62.15-.33,2.12.79,4.26-.11,6.35v0c-.62-1.06-.28-2.3-.49-3.71C12.17,192.07,12.38,192.54,11.78,192.5Z"/><path id="_Tracciato_84" data-name="&lt;Tracciato&gt;" class="cls-32" d="M12.61,185.5a1.12,1.12,0,0,1-.52,1c-.2-.59-.41-1.17-.62-1.75a5,5,0,0,1-.57-1.94,2.82,2.82,0,0,1,.14-1.55l.17-.19h.3C12,182.54,11.78,184.19,12.61,185.5Z"/><path id="_Tracciato_85" data-name="&lt;Tracciato&gt;" class="cls-62" d="M11.2,182.79a3.65,3.65,0,0,1,.27,2c-.51.09-1.24.68-1.15-.66v-.33a.92.92,0,0,1,0-.91c.13-.39-.33-1.11.33-1.18S10.88,182.5,11.2,182.79Z"/><path id="_Tracciato_86" data-name="&lt;Tracciato&gt;" class="cls-43" d="M12.9,196.57c-1.17-.13-.22.92-.54,1.27h-.29c.15-.66-.7-1.49.26-2C12.72,195.87,12.94,196.09,12.9,196.57Z"/><path id="_Tracciato_87" data-name="&lt;Tracciato&gt;" class="cls-63" d="M3.21,1.31A11.33,11.33,0,0,0,3.39,5c.38,1.71-.8.61-1.33.68l-.29-.34A5.89,5.89,0,0,1,1.19,4c.14-1.06-.44-2.4.87-3A1.85,1.85,0,0,0,3.21,1.31Z"/><path id="_Tracciato_88" data-name="&lt;Tracciato&gt;" class="cls-54" d="M1.19,4a2,2,0,0,1,.58,1.33C1.23,5.07,1.16,4.56,1.19,4Z"/><path id="_Tracciato_89" data-name="&lt;Tracciato&gt;" class="cls-64" d="M8.59,168.07c-.3-1,1.27-.66.88-1.69.24-.61.48-1.21,1.22-1-.29,1.59.91,2.81.81,4.36-.13,2.26-1.19,4.62.54,6.68a.45.45,0,0,1,.07.3l-.3,2-.3.37a10,10,0,0,1-.76-5.24,1.85,1.85,0,0,0-.13-1.1c-.28-.42-.29-1-.61-1.5-.61.47-.43,1.33-.83,1.83l-.28.37a3.06,3.06,0,0,1,0-2.72c.39-.47.94-.92.08-1.49C8.59,169,8.59,168.51,8.59,168.07Z"/><path id="_Tracciato_90" data-name="&lt;Tracciato&gt;" class="cls-32" d="M10.63,178.09c.2,1,1.2,1.8.58,3l0,0c-.67.55-1.2.14-1.72-.34-.13-.7.32-1.14.56-1.67A2,2,0,0,1,10.63,178.09Z"/><path id="_Tracciato_91" data-name="&lt;Tracciato&gt;" class="cls-65" d="M9.18,173.08c0-.11,0-.22,0-.33,0-.87-.12-2.16.81-2.14,1.11,0,.47,1.38.64,2.14C10,172.17,9.63,172.78,9.18,173.08Z"/><path id="_Tracciato_92" data-name="&lt;Tracciato&gt;" class="cls-12" d="M9.47,180.78l1.72.34c0,.56,0,1.11,0,1.67l-.52-.9c.11.72-.31,1.27-.35,1.9-.64-.61.12-1.9-.86-2.35,0-.11,0-.22,0-.33S9.46,180.89,9.47,180.78Z"/><path id="_Tracciato_93" data-name="&lt;Tracciato&gt;" class="cls-28" d="M10.63,178.09c0,.5,0,1-.6,1-.74-.82-.34-1.53.16-2.35C10.6,177.16,10.51,177.68,10.63,178.09Z"/><path id="_Tracciato_94" data-name="&lt;Tracciato&gt;" class="cls-14" d="M8.89,170.73c0,.91,0,1.81,0,2.72,0,.32,0,.64,0,1-.06.1-.12.14-.18.11s-.1-.08-.1-.11C8.63,173.18,7.66,171.85,8.89,170.73Z"/><path id="_Tracciato_95" data-name="&lt;Tracciato&gt;" class="cls-64" d="M8.61,174.42h.28a8.82,8.82,0,0,0,.25,2.35C8.29,176.19,8.65,175.24,8.61,174.42Z"/><path id="_Tracciato_96" data-name="&lt;Tracciato&gt;" class="cls-30" d="M12.08,164.7h-.29c-.71-.95-.87-1.82.25-2.55.26-.17.29-.57.45-.85.91-.61,1.51-2,2.83-1.65A3.26,3.26,0,0,1,15,161a10.41,10.41,0,0,0-2.45,2.26A2.74,2.74,0,0,0,12.08,164.7Z"/><path id="_Tracciato_97" data-name="&lt;Tracciato&gt;" class="cls-66" d="M17.32,158.36c-.17.69-.88.51-1.18,1h-.28a.24.24,0,0,1-.37,0,.71.71,0,0,1,.24-.86,1.47,1.47,0,0,1,1.43-.27Z"/><path id="_Tracciato_98" data-name="&lt;Tracciato&gt;" class="cls-17" d="M15.55,159.33l.31,0A3.28,3.28,0,0,1,15,161a2.84,2.84,0,0,1,.27-1.36C15.21,159.39,15.31,159.29,15.55,159.33Z"/><path id="_Tracciato_99" data-name="&lt;Tracciato&gt;" class="cls-36" d="M14.14,36.11c0,.3,0,.61,0,.91a1.9,1.9,0,0,1-.54-2.6C13.67,35,13.51,35.74,14.14,36.11Z"/><path id="_Tracciato_100" data-name="&lt;Tracciato&gt;" class="cls-66" d="M15.87,149A3.17,3.17,0,0,1,17,150c.32,1,.17,2.17.87,3-.38.36-.67.11-1-.17a5.77,5.77,0,0,1-.67-2,1.39,1.39,0,0,0-.64-1,1.33,1.33,0,0,1-.29-.29c-.15-.4-.53-.88.24-1Z"/><path id="_Tracciato_101" data-name="&lt;Tracciato&gt;" class="cls-66" d="M18.18,154.33c0,1.42.06,2.86-.86,4l0,0a3.52,3.52,0,0,1,.36-3.78C17.8,154.37,18,154.21,18.18,154.33Z"/><path id="_Tracciato_102" data-name="&lt;Tracciato&gt;" class="cls-67" d="M18.18,154.33l-.29.34c-1-.24-1.4-.87-.86-2l.86.33A2.38,2.38,0,0,1,18.18,154.33Z"/><path id="_Tracciato_103" data-name="&lt;Tracciato&gt;" class="cls-14" d="M12.67,161.36c-.06.32,0,.87-.18.92-1.19.47-.72,1.52-.7,2.42-.2,1.16-.71,2.28-.13,3.51a1.31,1.31,0,0,1-.16,1.52,5.85,5.85,0,0,0-.33-.89c-.65-1.06-1.18-2.14-.54-3.46a1.11,1.11,0,0,1,0-.8c.21-.72-.86-1.37-.21-2A4.26,4.26,0,0,1,12.67,161.36Z"/><path id="_Tracciato_104" data-name="&lt;Tracciato&gt;" class="cls-13" d="M6.4,11.69c0,.56,0,1.12,0,1.68C6.12,11.72,4.8,11,4.08,9.68,5.18,9.85,5.5,11.22,6.4,11.69Z"/><path id="_Tracciato_105" data-name="&lt;Tracciato&gt;" class="cls-27" d="M11.78,192.5c.6-.67-.4-1.15-.15-1.77,1,.26,1,.26,1,4.43a.93.93,0,0,1-1.14-.64h0c.36-.62-.08-1.39.29-2Z"/><path id="_Tracciato_106" data-name="&lt;Tracciato&gt;" class="cls-23" d="M11.78,192.5c-.1.67.21,1.42-.29,2C11.55,193.83,11.25,193.09,11.78,192.5Z"/><path id="_Tracciato_107" data-name="&lt;Tracciato&gt;" class="cls-16" d="M9.59,29.43a2.16,2.16,0,0,1,.58,1.33C9.62,30.52,9.55,30,9.59,29.43Z"/><path id="_Tracciato_108" data-name="&lt;Tracciato&gt;" class="cls-68" d="M13.26,143.62c-.42-.36-.25-.88-.29-1.34.58-.74.21-1.44-.05-2.15a1.61,1.61,0,0,1,.43-2.07c.89-.85.93-2.58,2-3.74.08,1.31,1.4,2.26.59,3.53-.35.56-.45,1.22-.72,1.63-.76,1.13.26,2.45-.49,3.46C13.59,141.33,13.79,143.54,13.26,143.62Z"/><path id="_Tracciato_109" data-name="&lt;Tracciato&gt;" class="cls-18" d="M18.78,127.55l.87-.34c.25,0,.6-.68.69.25a7.65,7.65,0,0,1-.69,3.44,1,1,0,0,1-.13,1.33c-.61.71-1.84.69-1.85,2.17,0,.24-.62.22-.89-.06-.43-.42-.5-1.33-.21-1.48,1.68-.92,1-3,1.67-4.33Z"/><path id="_Tracciato_110" data-name="&lt;Tracciato&gt;" class="cls-67" d="M13.26,143.62a2.53,2.53,0,0,1,.1-.81c.24-.49.24-1.41.87-1.3.44.08.5.86.48,1.43,0,1.95,1.09,3.7.86,5.7-.45.33-.07.67,0,1a1.13,1.13,0,0,1-1.44.34v-.34C13.5,147.7,13.84,145.57,13.26,143.62Z"/><path id="_Tracciato_111" data-name="&lt;Tracciato&gt;" class="cls-21" d="M20.24,119.51h.29a5.16,5.16,0,0,0,1.06,2.1,1.2,1.2,0,0,1,.35.84,46.81,46.81,0,0,1-.84,5.43,1.61,1.61,0,0,0-1.36-1.61A3.85,3.85,0,0,0,21,121.61,3.85,3.85,0,0,1,20.24,119.51Z"/><path id="_Tracciato_112" data-name="&lt;Tracciato&gt;" class="cls-69" d="M5.27,9.12C4.06,8.75,3.7,8.17,3.82,7.2c0-.31.22-.54.49-.45C5.31,7.08,4.76,8.13,5.27,9.12Z"/><path id="_Tracciato_113" data-name="&lt;Tracciato&gt;" class="cls-54" d="M10.75,13.7c0,.61-.08,1.23.66,1.44a.61.61,0,0,1,.33.92c-.13.3-.24.58-.64.51-.58-.08-2.58-2.53-2.49-3.17a.7.7,0,0,1,.69-.71C9.7,13.19,10.62,12.68,10.75,13.7Z"/><path id="_Tracciato_114" data-name="&lt;Tracciato&gt;" class="cls-59" d="M14.13,150a2.07,2.07,0,0,1,1.44-.34h0a1.36,1.36,0,0,1,.88,1,6.48,6.48,0,0,1,.58,2,2.2,2.2,0,0,0,.86,2c-.91,1.07-.38,2.45-.59,3.67l-1.44.34a34.15,34.15,0,0,0,.66-3.67c-.74.52-.46,1.94-1.52,2h0a6.46,6.46,0,0,1,.39-2.22,3.64,3.64,0,0,0-.78-3.48A2,2,0,0,1,14.13,150Z"/><path id="_Tracciato_115" data-name="&lt;Tracciato&gt;" class="cls-70" d="M15,157a5.84,5.84,0,0,0,1-2.17c.1-.32.19-.84.65-.66a.74.74,0,0,1,.38,1c-.47,1.14-.09,2.65-1.13,3.54a.75.75,0,0,0-.31.65l-.29.34-2.59,1.69a4.71,4.71,0,0,1-2.37,1.54c.94.78,1.13,1.6.33,2.48l-1.16,1c0-.1-.13-.25-.11-.3.92-1.52.17-3.6,1.28-5.05h.14A30,30,0,0,0,15,157Z"/><path id="_Tracciato_116" data-name="&lt;Tracciato&gt;" class="cls-67" d="M16.45,150.65l-.88-1C16.22,149.57,16.51,149.9,16.45,150.65Z"/></g></g></g></g></svg>