<svg xmlns="http://www.w3.org/2000/svg" viewBox="0 0 43.77 51.32"><defs><style>.cls-1{fill:#ee721c;}</style></defs><title>Risorsa 17</title><g id="Livello_2" data-name="Livello 2"><g id="Colori"><g id="_Gruppo_clip_" data-name="&lt;Gruppo clip&gt;"><g id="_Gruppo_" data-name="&lt;Gruppo&gt;"><path id="_Tracciato_" data-name="&lt;Tracciato&gt;" class="cls-1" d="M25.4,37.57c0,1.45,0,2.9,0,4.35q-1.47-.11-2.94-.3c-1-.13-1,1.49,0,1.63s1.93.22,2.9.29c-.07,2.34-.2,4.68-.46,7-.12,1,1.5,1,1.62,0,.26-2.3.39-4.61.46-6.91,2.28.12,4.56.15,6.84.15a.82.82,0,0,0,0-1.63c-2.27,0-4.54,0-6.8-.14,0-1.49,0-3,0-4.45A.81.81,0,0,0,25.4,37.57Z"/><path id="_Tracciato_2" data-name="&lt;Tracciato&gt;" class="cls-1" d="M14.52,37.33a18.27,18.27,0,0,0-2.65-.42V31.08a.81.81,0,0,0-1.62,0V36.8c-1,0-2,0-3,0a.81.81,0,0,0,0,1.62c1,0,2,0,3,0v5.64a.81.81,0,0,0,1.62,0V38.54a16.54,16.54,0,0,1,2.22.35C15.11,39.12,15.54,37.56,14.52,37.33Z"/><path id="_Tracciato_3" data-name="&lt;Tracciato&gt;" class="cls-1" d="M22.66,18.42c-.16-1-1.72-.59-1.56.43s.27,2.21.35,3.32c-.84.17-1.67.35-2.49.55-1,.25-.58,1.82.43,1.57.72-.18,1.43-.34,2.15-.49.05,1.34.07,2.68.07,4a.81.81,0,0,0,1.62,0c0-1.44,0-2.88-.08-4.31a22.32,22.32,0,0,1,3.06-.29.81.81,0,0,0,0-1.62A24.1,24.1,0,0,0,23,21.9C23,20.74,22.84,19.58,22.66,18.42Z"/><path id="_Tracciato_4" data-name="&lt;Tracciato&gt;" class="cls-1" d="M.78,22.69A21.09,21.09,0,0,1,4.06,23a21.81,21.81,0,0,1-.81,4c-.31,1,1.25,1.43,1.56.43a22.26,22.26,0,0,0,.85-4.16l1.94.4c1,.21,1.46-1.35.43-1.56L5.8,21.72c.11-1.56.12-3.13.12-4.71A.81.81,0,0,0,4.3,17c0,1.48,0,2.95-.1,4.41a23.05,23.05,0,0,0-3.42-.35A.81.81,0,0,0,.78,22.69Z"/><path id="_Tracciato_5" data-name="&lt;Tracciato&gt;" class="cls-1" d="M36.48,21.61a.81.81,0,0,0,0,1.62l1.51,0a34.27,34.27,0,0,1-.66,4.36c-.21,1,1.35,1.46,1.56.44a37.13,37.13,0,0,0,.7-4.74,19,19,0,0,1,3.17.43c1,.24,1.45-1.32.43-1.56a22.58,22.58,0,0,0-3.56-.49,13.72,13.72,0,0,0-.2-2.19c-.17-1-1.74-.59-1.56.43a14,14,0,0,1,.16,1.7C37.51,21.61,37,21.61,36.48,21.61Z"/><path id="_Tracciato_6" data-name="&lt;Tracciato&gt;" class="cls-1" d="M10.52,5.38l3.19,0c.15,2.06.31,4.13.33,6.2a.81.81,0,0,0,1.62,0c0-2.06-.18-4.12-.32-6.17a64.43,64.43,0,0,1,7.08.49c1,.14,1-1.49,0-1.62a69.09,69.09,0,0,0-7.19-.5c-.05-1-.1-2-.11-3a.81.81,0,0,0-1.62,0c0,1,.05,2,.11,3H10.52A.81.81,0,0,0,10.52,5.38Z"/><path id="_Tracciato_7" data-name="&lt;Tracciato&gt;" class="cls-1" d="M28.91,9.71h3.65A31.35,31.35,0,0,0,33,13.44c.19,1,1.75.59,1.56-.43a30.91,30.91,0,0,1-.39-3.3h1.77a.81.81,0,0,0,0-1.62H34.09c0-1,0-2,0-3a.81.81,0,0,0-1.62,0c0,1,0,2,0,3H28.91A.81.81,0,0,0,28.91,9.71Z"/></g></g></g></g></svg>