<svg xmlns="http://www.w3.org/2000/svg" viewBox="0 0 27.72 231.61"><defs><style>.cls-1{fill:#00486e;}.cls-2{fill:#13385c;}.cls-3{fill:#103a5d;}.cls-4{fill:#5389a3;}.cls-5{fill:#093d62;}.cls-6{fill:#377996;}.cls-7{fill:#103a5e;}.cls-8{fill:#073f64;}.cls-9{fill:#759eb4;}.cls-10{fill:#0b3d61;}.cls-11{fill:#004d75;}.cls-12{fill:#aec6d3;}.cls-13{fill:#005a80;}.cls-14{fill:#256e8f;}.cls-15{fill:#7aa2b6;}.cls-16{fill:#5f8fa7;}.cls-17{fill:#00446a;}.cls-18{fill:#00567c;}.cls-19{fill:#014166;}.cls-20{fill:#063f63;}.cls-21{fill:#004e75;}.cls-22{fill:#005178;}.cls-23{fill:#d0dee5;}.cls-24{fill:#417e9a;}.cls-25{fill:#307593;}.cls-26{fill:#005d82;}.cls-27{fill:#e2ebee;}.cls-28{fill:#aac2cf;}.cls-29{fill:#95b4c5;}.cls-30{fill:#005c81;}.cls-31{fill:#0c3c60;}.cls-32{fill:#a3becc;}.cls-33{fill:#006184;}.cls-34{fill:#00547a;}.cls-35{fill:#6795ab;}.cls-36{fill:#005a7f;}.cls-37{fill:#005077;}.cls-38{fill:#1d6d8e;}.cls-39{fill:#1e6d8d;}.cls-40{fill:#759fb3;}.cls-41{fill:#00577d;}.cls-42{fill:#28708f;}.cls-43{fill:#a6bfcd;}.cls-44{fill:#4f84a0;}.cls-45{fill:#005d81;}.cls-46{fill:#7fa5b9;}.cls-47{fill:#5287a2;}.cls-48{fill:#004267;}.cls-49{fill:#00557b;}.cls-50{fill:#004f76;}.cls-51{fill:#005179;}.cls-52{fill:#044064;}.cls-53{fill:#7ba1b6;}.cls-54{fill:#267090;}.cls-55{fill:#005e82;}.cls-56{fill:#1c6b8c;}.cls-57{fill:#5085a1;}.cls-58{fill:#005278;}.cls-59{fill:#0c678a;}.cls-60{fill:#7fa4b9;}.cls-61{fill:#00486f;}.cls-62{fill:#c8d9e0;}.cls-63{fill:#47819c;}.cls-64{fill:#307492;}.cls-65{fill:#588ca5;}.cls-66{fill:#00567d;}.cls-67{fill:#00597f;}.cls-68{fill:#00537a;}.cls-69{fill:#447e9b;}.cls-70{fill:#397997;}</style></defs><title>Risorsa 23</title><g id="Livello_2" data-name="Livello 2"><g id="Colori"><g id="_Gruppo_clip_" data-name="&lt;Gruppo clip&gt;"><g id="_Gruppo_" data-name="&lt;Gruppo&gt;"><path id="_Tracciato_" data-name="&lt;Tracciato&gt;" class="cls-1" d="M8,61.52A2,2,0,0,1,8.56,60c.28-.14.45,0,.61.27a4.29,4.29,0,0,1,.27,2.92,7,7,0,0,0,.44,4.24c.42.94,0,2.22.94,2.89a.35.35,0,0,0,.36-.35,23,23,0,0,1,1.08-8.7c.27-1-.42-1.5-.54-2.26a2.21,2.21,0,0,1,.79-1.58c.42-.3.29-1.22,1-1.21l.35,2.91A7.87,7.87,0,0,0,13.7,61a19.4,19.4,0,0,0-.38,8.42,18.17,18.17,0,0,1,.51,4.8A2.77,2.77,0,0,0,14.45,76a4.91,4.91,0,0,1,.44,1.81c.16,1.57,0,3.28,1.59,4.21a2.74,2.74,0,0,1,.85,1.6c.48,1.78,1,3.46,2.48,4.55.79.58.64,1.85.87,2.81.49,2.06,1.8,3.61,2.45,5.55.36,1.36.46,2.84,1.33,4a.26.26,0,0,1,.05.18c0,2.78,1.12,5.26,1.45,7.95a1,1,0,0,1-.18.52c-.57,1.54.17,3.12-.15,4.71a12.38,12.38,0,0,1-.44,2.31,2.4,2.4,0,0,1-.21.46c-.36.42-.69.85-.33,1.49a1.75,1.75,0,0,1,.07.51,1,1,0,0,1-.69.93c-.32.1-.62.22-.61.72.06,3-.63,5.93-.23,8.91-.77.65-1.16.13-1.5-.64a7.17,7.17,0,0,1-.18-2.3c-.68,2.93-.56,4.09.77,7.54a8.7,8.7,0,0,0-.07,3.52c.16,1.7-.36,3.42.09,5.12a1.88,1.88,0,0,1,0,.58c-.36.87-.3,1.93-.87,2.71a.54.54,0,0,1-.72-.08,8.35,8.35,0,0,1,0-2.64,34.45,34.45,0,0,0-.75-7.58,49.5,49.5,0,0,1-1.09-7.68c0-2-.15-4,.73-5.9a1.08,1.08,0,0,0,.11-.74c-.7-2.34.71-3.77,1.69-5.39,1.32-.59.83-2.06,1.14-3.15a3.23,3.23,0,0,1,.14-.51c.08-.29.28-.6.2-.9A30.86,30.86,0,0,1,21.68,104c-1.08-.57-1.13-1.8-1.57-2.87-1.35-3.24-1.79-6.94-3.69-9.9-.75-1.17-1.31-2.49-2.07-3.66a6.2,6.2,0,0,1-1.27-3.65,1.55,1.55,0,0,0-.2-.91c-1.69-2.35-2-5.58-3.68-7.92a3.32,3.32,0,0,1-.45-3.21,1.82,1.82,0,0,0,.08-1.3,13.68,13.68,0,0,1-.73-8.46A1.09,1.09,0,0,0,8,61.52Z"/><path id="_Tracciato_2" data-name="&lt;Tracciato&gt;" class="cls-2" d="M24.78,116.58v-.38c1.15-1.68,1-3.59.67-5.48-.1-.62-.4-1.18,0-1.78.59-1.28-1.23-2.25-.35-3.57-1.75-1.6,0-4.59-1.9-6.23-.55-.48.21-1.7-.39-2.44,0-1.18-.77-2-1-3a38.09,38.09,0,0,0-4.29-9.22c-.63-1.1-.73-2.48-1.84-3.41-.67-.55-.54-2.06-.73-3.14a4.64,4.64,0,0,0-.71-1.87c-.74-.49-.74-1.17-.85-2.13-.23-1.84,0-3.79-.7-5.56-.09-.23-.38-.5-.33-.63.79-2.11-.34-4.69,1.23-6.59a2,2,0,0,1,.06,1.52,30.4,30.4,0,0,0,2.61,14c1.6,3.72,3.48,7.26,5.27,10.86A71.4,71.4,0,0,1,26.69,103a44.73,44.73,0,0,1,1,6.63,17.54,17.54,0,0,1-1.53,8.65c-1.72,3.87-1.64,7.91-.9,12.07a82.27,82.27,0,0,1,1.56,9.14c.27.63-.07,1.36.26,2v.58c-.32.76,0,1.62-.24,2.39-.64,1.05-.47,2.37-.92,3.52a20.74,20.74,0,0,1-3.95,6.54c-2.72,2.88-2.65,6.24-2.42,9.94.17,2.78,1.12,5.3,1.56,8,.22.58.48,1.28-.26,1.5-.53.15-.91-.39-.95-1a3.93,3.93,0,0,0-.59-1.54c-.26-1-1.12-1.53-1.42-2.5,0-2.63-.71-5.19-.64-7.81a11.32,11.32,0,0,1,2-5.32,18.68,18.68,0,0,1,3.58-4.91c.68-.6.3-1.88,1-2.51A53.44,53.44,0,0,0,25,140c.11-1.11-.7-2-.91-3.18A105.37,105.37,0,0,1,23.07,124a5.68,5.68,0,0,1,1.08-4.22,1.33,1.33,0,0,0,.3-1.67h0A2,2,0,0,1,24.78,116.58Z"/><path id="_Tracciato_3" data-name="&lt;Tracciato&gt;" class="cls-3" d="M8,61.52c.61.09.7.59.54,1.12a10.44,10.44,0,0,0,.82,7.67c.13.26.28.71.18.89-1.71,3.06,1,4.59,1.79,6.75.16.42.62.73.56,1.29A2.92,2.92,0,0,0,13,82.15a1.48,1.48,0,0,1,.53,1.33c-.17,2,1.09,3.26,1.86,4.81,1.25,2.54,2.83,4.85,3.54,7.79.33,1.34.18,3.17,1.61,4a.76.76,0,0,1,.19.87c-.53,1.6.43,2.1,1.4,2.6.63,1.09-.6,1.89-.31,3s.89,2.45.36,3.84c-.29.74,1.15.93.61,1.9-.83,1-.57,2.33-1,3.44-.53,1.67-2.72,2.64-1.57,5a1.74,1.74,0,0,1-.22,1.27c-1.44,2.51-.56,5.22-.55,7.84a1.63,1.63,0,0,0,.59,1.48.91.91,0,0,1,.34,1.15c-1.14,2,.16,3.44.66,5.08.11.35.44.75.36,1-.63,2.27.11,4.7-.63,6.94a6.7,6.7,0,0,1-2.56,5.26,3.93,3.93,0,0,0-1.76,2.6,2,2,0,0,1-.64,1.08,5.59,5.59,0,0,0-1.56,4.61,11.45,11.45,0,0,1-.35,2.81c-.13.62-.28,1.27-1,1.21a15,15,0,0,1,2.6-12c1.37-2.06,3.26-3.72,4-6.32.83-2.83.35-5.62-.2-8.34a56.83,56.83,0,0,1-1.38-15.67,7.51,7.51,0,0,1,.82-3.28,17.23,17.23,0,0,0,1.77-4.7,5,5,0,0,0,0-2.57,28.8,28.8,0,0,0-2-10.25c-.83-2.21-1.1-4.62-2.19-6.75s-2-4.19-3.09-6.23a52.27,52.27,0,0,1-5-12.8,31,31,0,0,1-.52-11.9A3.34,3.34,0,0,1,8,61.52Z"/><path id="_Tracciato_4" data-name="&lt;Tracciato&gt;" class="cls-4" d="M8.65,55.8V55a7.93,7.93,0,0,0-.5-3.49,2.7,2.7,0,0,1,0-1.06c.41-1.27.2-2.76,1.07-3.86,1.93-.47,2.25-2.4,2.8-4.12a3.23,3.23,0,0,1,.25-.76c.27-.43.16-1.19.84-1.28a5.41,5.41,0,0,1-1.49,6.43c-1.36,1.36-1.29,3.4-1.79,5.16-.14.46.09,1.16.57,1.21.67.07.45-.66.49-1.12.08-.77-.43-1.8.72-2.09.4.49.32,1.21.66,1.72.15,1.57,1,3,.75,4.64a2.86,2.86,0,0,1-1,1.66c-.41.43-.66,1.24-1.42.92s-.61-1.09-.76-1.71S9.06,56.29,8.65,55.8Z"/><path id="_Tracciato_5" data-name="&lt;Tracciato&gt;" class="cls-5" d="M5.3,3.48a137.15,137.15,0,0,0,8.81,11c-.16.66,0,1.43-.5,2-.62.05-.68-.63-1-1-2.12-1.24-3.56-3.36-5.19-5.25C6.93,8.62,5.6,7.78,4.77,6.47S3.46,4,4.44,2.56C5,2.5,5.08,3.09,5.3,3.48Z"/><path id="_Tracciato_6" data-name="&lt;Tracciato&gt;" class="cls-6" d="M9.9,32.47A3.33,3.33,0,0,1,9,29.75c-.12-.48.54-1.27-.41-1.43-.56-1.39-.25-2.84-.22-4.27.44,0,.5.4.64.92.47-1.58,1.59-1.84,2.71-2.1s2.58.24,2.17-2.16c-.14-.83.61-1.15,1.29-.86a2.81,2.81,0,0,1,2,2.69,2.74,2.74,0,0,1-2,2.72c-1.15.36-2.35.53-3.52.82-.41-.17-.32-1.1-.89-.91s-.31.85-.37,1.32a16.58,16.58,0,0,0-.06,2.44c0,1.08.39,2.09.38,3.17a.83.83,0,0,1-.2.48A.51.51,0,0,1,9.9,32.47Z"/><path id="_Tracciato_7" data-name="&lt;Tracciato&gt;" class="cls-7" d="M13.6,16.4c.13-.64-.36-1.52.51-1.9,1.45,1.68,2.9,3.37,4.36,5.05A5.14,5.14,0,0,1,20,22.92a3.58,3.58,0,0,1-2.12,3.79c-.78-.16-1.45.66-2.25.34-.53-.9,0-1.2.61-1.54,1.87-1.09,2.18-2.48.89-4.32A42.78,42.78,0,0,1,13.6,16.4Z"/><path id="_Tracciato_8" data-name="&lt;Tracciato&gt;" class="cls-8" d="M8.88,196.83c0-1-.07-2-.11-3.05a29.65,29.65,0,0,1,0-5.33c.48-3.94,1.88-7.2,5.05-9.16.84.21,1.48-1,2.36-.43.11,1.23-.85,1.36-1.44,1.87a41.75,41.75,0,0,1-2.81,3.39,1.85,1.85,0,0,0-.63,1.07c-.2,2.39-1.35,4.51-1.45,6.91a18.84,18.84,0,0,1-.28,3.68C9.46,196.23,9.49,196.82,8.88,196.83Z"/><path id="_Tracciato_9" data-name="&lt;Tracciato&gt;" class="cls-9" d="M11.24,46.6C13,45.5,13.68,43,12.91,40.5c-.89-.22-.81-1.29-1.27-1.89l-.32-1.2a4.74,4.74,0,0,1,1-2,.9.9,0,0,1,.7-.06,4.52,4.52,0,0,1,2.12,4.15c0,1.64.17,3.26.11,4.89a6.81,6.81,0,0,1-2.27,3.5C12.66,46.91,11.79,47,11.24,46.6Z"/><path id="_Tracciato_10" data-name="&lt;Tracciato&gt;" class="cls-10" d="M16.12,178.89c-.79-.06-1.38,1.46-2.31.4,2-1.7,2.19-2.3,1.31-5-1.15-3.57-2.3-7.14-2.24-11,.89-1.22.88-2.72.94-4.2,1.3.78.89,2.25,1.06,3.49-.8,1-1.57,2.08-.14,3.27a.88.88,0,0,1,.3.83c-.44,1.72.65,3,1,4.42a11.23,11.23,0,0,0,.61,3.86C17,176.24,17.45,177.76,16.12,178.89Z"/><path id="_Tracciato_11" data-name="&lt;Tracciato&gt;" class="cls-11" d="M13.6,16.4a23.86,23.86,0,0,1,4.7,6c.47.85-.62,3.06-1.59,3.42-.57.21-1.25.17-1.13,1.21H13.45c.17,2.8,1.57,5.07,1.74,7.72-.66.47-.87-.19-1.13-.63a6.68,6.68,0,0,0-1-1.68,1.52,1.52,0,0,1-.28-.43c0-1.57-.57-3-.53-4.62,0-1.27.36-1.88,1.59-2.08,1-.16,2.15,0,2.95-1.29.65-1,.78-1.72,0-2.63-1.32-1.61-2.77-3.07-4-4.73a1.36,1.36,0,0,1,.22-1.41Z"/><path id="_Tracciato_12" data-name="&lt;Tracciato&gt;" class="cls-12" d="M12.52,218.71c-.58-.62-.08-1.31-.08-2,.3-1.78-.69-3.21-1-4.82a2,2,0,0,1-.16-1.56.47.47,0,0,1,.38-.25,5.18,5.18,0,0,0,1.56.82,3.59,3.59,0,0,1,.88,1.81c.13.36-.25,1,.48,1a.9.9,0,0,1,.78.24v.91c-.26.59,0,1.22-.15,1.82.13-.5-.11-1.05.2-1.51.89,2.37,0,4.71-.16,7a4.31,4.31,0,0,1-.49,2.52,1,1,0,0,1-.29-.31,5.53,5.53,0,0,1-.51-1,2.59,2.59,0,0,1,.22-.95,15.39,15.39,0,0,0-.24-6c.25.73-.73,1.09-.88,1.86a1,1,0,0,1-.33.38Z"/><path id="_Tracciato_13" data-name="&lt;Tracciato&gt;" class="cls-13" d="M3,10.32A13.61,13.61,0,0,1,.06,3C-.26.59.63-.15,3,0c.42.71-.15,1-.46,1.34-.91.76-.76,1.89-.78,3a1.71,1.71,0,0,0,.52,1.46,4.15,4.15,0,0,1,.43.58,11.48,11.48,0,0,1,2,4.55C3.85,11.81,3.61,10.33,3,10.32Z"/><path id="_Tracciato_14" data-name="&lt;Tracciato&gt;" class="cls-14" d="M10.25,56.93c.62.42-.39,1.53.51,1.73s1.05-.77,1.53-1.24a5.71,5.71,0,0,0,.61-.88.9.9,0,0,1-.05,1.13,2.79,2.79,0,0,0-.95,1.16c.75,1.39.25,2.74-.12,4.06-.22.78-.74,1.3-1.51,1.18s-.92-.78-.85-1.56a3,3,0,0,0-.48-2.15L8.56,60l.09-2.28A2.6,2.6,0,0,1,10.25,56.93Z"/><path id="_Tracciato_15" data-name="&lt;Tracciato&gt;" class="cls-15" d="M10.54,206.79c-.18-.38-.54-.68-.35-1.2,0-1.21-.15-2.41-.2-3.61a17,17,0,0,1-.27-2.68,4,4,0,0,1,.17-1.19,2.48,2.48,0,0,1,.44-.76c.64-.72,1.31-1.08,2.06-.19.66,1.5-.1,3.19.48,4.73.27.73.25,1.59.57,2.32.3.93,1.13,1.89-.1,2.74a.71.71,0,0,1-.47-.08c-.38-1.12-.66-2.29-1-3.43-.06-.16-.07-.44-.17-.48-.36-.15-.22.24-.24.39a3.25,3.25,0,0,0,.14,1.07c0,.69-.39,1.24-.48,1.89a2,2,0,0,1-.2.44.25.25,0,0,1-.25.1C10.59,206.84,10.54,206.81,10.54,206.79Z"/><path id="_Tracciato_16" data-name="&lt;Tracciato&gt;" class="cls-10" d="M19.77,182.35a7,7,0,0,1-2.57,2.59c-2.57,1.52-2.37,4.37-2.8,6.95-.12.26-.1.75-.39.76-.46,0-.62-.49-.7-.92-.23-1.19.16-2.38,0-3.58a5.62,5.62,0,0,1,3.35-4.46c.56-.56.82-1.41,1.41-1.94a1.49,1.49,0,0,1,.49-.2C19.11,181.6,19.74,181.38,19.77,182.35Z"/><path id="_Tracciato_17" data-name="&lt;Tracciato&gt;" class="cls-16" d="M13,32.07l.26,0c.65,1.18.92,2.66,2.07,3.43.21,0,.3.18.23.43-.56,1-.06,1.8.26,2.65a2.34,2.34,0,0,1,0,.79c-.42,1.12.18,2,.51,3a.56.56,0,0,1-.06.49c0,.41.12.89-.34,1.13-.35,0-.26.6-.63.55a.39.39,0,0,1-.36-.18,36,36,0,0,1-.18-4.67,5.21,5.21,0,0,0-1.82-4.14c-.15-1.15-1-2.19-.41-3.46A.31.31,0,0,1,13,32.07Z"/><path id="_Tracciato_18" data-name="&lt;Tracciato&gt;" class="cls-17" d="M19.77,182.35c-.35-.58-.88-.34-1.34-.41,0-.92.89-.87,1.15-1.49a8.55,8.55,0,0,0,.75-4.07,3.55,3.55,0,0,0-.31-1.51,5.9,5.9,0,0,1-.73-3.42l.16-.21c.43.35,1,.63.84,1.4-.12.53-.05,1,.4,1,.67,0,.25-.76.39-1.15C21.88,176,22.45,179.44,19.77,182.35Z"/><path id="_Tracciato_19" data-name="&lt;Tracciato&gt;" class="cls-18" d="M10.43,201.84c0,1.25.34,2.54-.24,3.75-.68-2.87-1.52-5.71-1.31-8.76.69-1.57.31-3.32.61-5a.3.3,0,0,1,.45,0c.62,1,1.84,2,.47,3.37-.9,1.18-.3,2.59-.43,3.89A4.37,4.37,0,0,0,10.43,201.84Z"/><path id="_Tracciato_20" data-name="&lt;Tracciato&gt;" class="cls-11" d="M13.79,188.06a9.51,9.51,0,0,1-.23,3c.38.14-.32,1.76.84.82a2.41,2.41,0,0,1-.33,1.54,14.24,14.24,0,0,0-.33,4.56c0,.51.07,1,.11,1.55a4.66,4.66,0,0,1,0,1.86,1.32,1.32,0,0,1-1.44-1.55c.4-2-.57-4.13.22-6.11.73-1.49-.48-3.06.14-4.59.18-.42,0-1,.55-1.25A.47.47,0,0,1,13.79,188.06Z"/><path id="_Tracciato_21" data-name="&lt;Tracciato&gt;" class="cls-19" d="M3,10.32c.78-.46.94,1,1.66.74l.23,0a7.61,7.61,0,0,1,2.76,4c1,.8,1.59,2.22,2.8,2.81.43.21.46.67.05,1a.86.86,0,0,1-.9-.19A44.59,44.59,0,0,1,3,10.32Z"/><path id="_Tracciato_22" data-name="&lt;Tracciato&gt;" class="cls-20" d="M9.59,18.71l1,0c.94-.25,1.51.36,2,1.12.31.9,1,2-.09,2.6s-2.2,1.81-3.33.1c.4-.77,1.17-1,1.71-1.61Z"/><path id="_Tracciato_23" data-name="&lt;Tracciato&gt;" class="cls-21" d="M12.85,57.67c0-.37,0-.75.05-1.13.09-1.64-1-2.95-1-4.58-.16-3.06,0-3.49,1.53-4.16.31-.14.53-.11.47.37-1.41,2.19-1,4.55-.52,6.93a7.74,7.74,0,0,1,.1,1.08C13,56.53,13.46,57.4,12.85,57.67Z"/><path id="_Tracciato_24" data-name="&lt;Tracciato&gt;" class="cls-22" d="M9.25,22.51c1.24,1,2.34,0,3.3-.55.69-.4-.15-1.39-.27-2.13,1.42-.15,1.52,1.3,1.82,2.25.17.52-.44,1.1-1.11.94a1.37,1.37,0,0,0-1.38.27c-.91.51-2.33.34-2.23,2.22a.45.45,0,0,1-.24.36c-.25.07-.42-.12-.49-.39-.12-.47.13-1-.28-1.43Z"/><path id="_Tracciato_25" data-name="&lt;Tracciato&gt;" class="cls-23" d="M13.75,231.61c-.63,0-1.1-.48-1.64-.74-.53-1.14,0-2.28,0-3.42.55-.28.68.43,1.07.61.35-.58.07-1.31.34-1.91a.83.83,0,0,1,.33-.36l.24,0,.16.2c.21.69-.23,1.44.13,2.12A16.76,16.76,0,0,1,13.75,231.61Z"/><path id="_Tracciato_26" data-name="&lt;Tracciato&gt;" class="cls-24" d="M13.93,48.17c-1.5.5-1.7.81-1.74,2.36A9,9,0,0,1,11.93,52c-.58-.53-.26-1.27-.35-1.92-.58-1.56.38-1.91,1.34-2.26.66-1.15,1.33-2.3,2-3.45h.34c.41.78-.32,1.48-.13,2.24A4,4,0,0,1,13.93,48.17Z"/><path id="_Tracciato_27" data-name="&lt;Tracciato&gt;" class="cls-25" d="M13.15,206.8c1.13-.77.38-1.54,0-2.31a.61.61,0,0,1,.36-.5c.32,0,.45.26.57.53l.65,5c-.6.69,0,1.54-.22,2.29a.49.49,0,0,1-.47,0A7.22,7.22,0,0,1,13.15,206.8Z"/><path id="_Tracciato_28" data-name="&lt;Tracciato&gt;" class="cls-26" d="M12.25,42.4c0,2.37-1.3,3.79-2.83,5.1l-.16-.91c.44-1.77,2.24-2.39,2.63-4.2q.13-.2.24-.12C12.21,42.31,12.25,42.36,12.25,42.4Z"/><path id="_Tracciato_29" data-name="&lt;Tracciato&gt;" class="cls-23" d="M14.44,222.86l-.36.74c-.13.76.17,1.59-.29,2.29l0,0c-.65-.07-.93,1-1.63.74l0-2.7c.55-.49,0-1.54.75-1.94a2.58,2.58,0,0,1,1.41.63A2.39,2.39,0,0,0,14.44,222.86Z"/><path id="_Tracciato_30" data-name="&lt;Tracciato&gt;" class="cls-27" d="M12.13,226.66c.69.2.44-2.4,1.63-.74a2.29,2.29,0,0,1,0,.37c-.14,1,.47,2.33-.47,2.77s-.27-1.51-1.17-1.61C12.12,227.19,12.13,226.92,12.13,226.66Z"/><path id="_Tracciato_31" data-name="&lt;Tracciato&gt;" class="cls-28" d="M13.12,222.1c-.69.37.1,1.76-1,1.86.07-1.39-.28-2.83.28-4.19-.19-.12.32,0,.12.12s-.08.37,0,.14c.16-.41,0-.89.16-1.31l.09-.11c.52-.07.63.39.77.8a2.27,2.27,0,0,1,0,.52,10.87,10.87,0,0,1-.32,2Z"/><path id="_Tracciato_32" data-name="&lt;Tracciato&gt;" class="cls-6" d="M12.23,35.53c-.16.72-.05,1.61-.91,1.88-.53-1.08-.36-2.41-1-3.45.09-.49-.17-1.06.25-1.48l0,0c.41-.11.51.24.62.57a2.76,2.76,0,0,1,.07.49,1.66,1.66,0,0,0,.47,1.25A1.24,1.24,0,0,1,12.23,35.53Z"/><path id="_Tracciato_33" data-name="&lt;Tracciato&gt;" class="cls-29" d="M11.79,211.77c.37,1.37.73,2.75,1.13,4.11.17.58,0,.8-.48.86l-.93-3.49C11.6,212.75,11.33,212.17,11.79,211.77Z"/><path id="_Tracciato_34" data-name="&lt;Tracciato&gt;" class="cls-30" d="M10.25,56.93c-.32.86-1,.78-1.6.75V55.8C9.45,55.68,9.92,56.18,10.25,56.93Z"/><path id="_Tracciato_35" data-name="&lt;Tracciato&gt;" class="cls-31" d="M13.74,198c-.4-1.57-.75-3.13.33-4.56A14.27,14.27,0,0,1,13.74,198Z"/><path id="_Tracciato_36" data-name="&lt;Tracciato&gt;" class="cls-32" d="M11.79,210.23h-.33c-.22.33-.5-.59-.7.05-.38-.48-.22-1.07-.23-1.62.45-.42-.25-1.29.47-1.61,1.11.5.78,1.7,1,2.66A1,1,0,0,1,11.79,210.23Z"/><path id="_Tracciato_37" data-name="&lt;Tracciato&gt;" class="cls-33" d="M8.28,51.58A2.73,2.73,0,0,1,8.64,55l-.43-1.53A3,3,0,0,1,8.28,51.58Z"/><path id="_Tracciato_38" data-name="&lt;Tracciato&gt;" class="cls-34" d="M15.55,39.3v-.67c-.11-.46-.43-1,.29-1.18a6.85,6.85,0,0,1,.42,2.63,1.41,1.41,0,0,1,0,1.25C15.09,41.07,15.37,40.16,15.55,39.3Z"/><path id="_Tracciato_39" data-name="&lt;Tracciato&gt;" class="cls-34" d="M15.28,35.52c-1.47-.52-1.82-1.93-2.07-3.43,1.13.43.77,2.32,2,2.67Z"/><path id="_Tracciato_40" data-name="&lt;Tracciato&gt;" class="cls-35" d="M10.76,210.28c.17-1.13.46-.09.7-.05,0,.54-.12,1.12.33,1.54,0,.5.16,1.07-.28,1.48A10,10,0,0,1,10.76,210.28Z"/><path id="_Tracciato_41" data-name="&lt;Tracciato&gt;" class="cls-25" d="M14.51,214.11c-.2.22-.48.49-.7.25-.38-.4.09-.91,0-1.38.21-.38.22-.89.58-1.17l.07-.08c.12-.11.13-.35.33-.38.44.45.26,1,.26,1.58S14.54,213.63,14.51,214.11Z"/><path id="_Tracciato_42" data-name="&lt;Tracciato&gt;" class="cls-36" d="M15.13,46.58c-.74-.8.13-1.49.13-2.24l.48-.86.17.48A5.39,5.39,0,0,1,15.13,46.58Z"/><path id="_Tracciato_43" data-name="&lt;Tracciato&gt;" class="cls-36" d="M15.84,37.45c-.34.31-.25.77-.29,1.18-.56-.89-1.57-1.76,0-2.68C15.43,36.5,16.07,36.85,15.84,37.45Z"/><path id="_Tracciato_44" data-name="&lt;Tracciato&gt;" class="cls-37" d="M8.59,28.32c.06-.29,0-.7.41-.68s.5.28.55.61A1.79,1.79,0,0,1,9,29.75Z"/><path id="_Tracciato_45" data-name="&lt;Tracciato&gt;" class="cls-26" d="M11.64,38.61c.89.21.72,1.37,1.27,1.89-.09.51.16,1.13-.32,1.53-.51-.51-.22-1.35-.61-1.91A2.39,2.39,0,0,1,11.64,38.61Z"/><path id="_Tracciato_46" data-name="&lt;Tracciato&gt;" class="cls-38" d="M3.66.35,4,1.11a.92.92,0,0,1-.45.62.86.86,0,0,1-1.18-.62C2.53.72,3.05.6,3,0Z"/><path id="_Tracciato_47" data-name="&lt;Tracciato&gt;" class="cls-39" d="M14.79,211.35l-.33.38c0-.76-1-1.68.26-2.25Z"/><path id="_Tracciato_48" data-name="&lt;Tracciato&gt;" class="cls-40" d="M14.72,224.44a1,1,0,0,0,.06.34c0,.49,0,1-.07,1.46-.36.25-.44-.13-.59-.34h0a1.9,1.9,0,0,1-.19-1.41C14.1,223.71,14.43,223.84,14.72,224.44Z"/><path id="_Tracciato_49" data-name="&lt;Tracciato&gt;" class="cls-15" d="M14.07,204.52l-.58-.46c-.59-.83-.2-1.54.2-2.26.18-.16.31-.11.39.14Z"/><path id="_Tracciato_50" data-name="&lt;Tracciato&gt;" class="cls-41" d="M12,40.12c.71.42.6,1.19.61,1.91-.12.12-.23.25-.34.37h-.36Z"/><path id="_Tracciato_51" data-name="&lt;Tracciato&gt;" class="cls-42" d="M14.51,214.11c-.73-1,.31-.82.54-1.18.11.35.22.71.32,1.06Z"/><path id="_Tracciato_52" data-name="&lt;Tracciato&gt;" class="cls-43" d="M14.12,225.9l.59.34c-.11.64-.21,1.27-.32,1.91C13.85,227.47,14.18,226.65,14.12,225.9Z"/><path id="_Tracciato_53" data-name="&lt;Tracciato&gt;" class="cls-44" d="M15.43,215.21v1.87a2,2,0,0,1,0-2.18A1.06,1.06,0,0,0,15.43,215.21Z"/><path id="_Tracciato_54" data-name="&lt;Tracciato&gt;" class="cls-9" d="M16.15,41.23l.11-1.15a3.3,3.3,0,0,1,0,2.75l-.1-.56A1.39,1.39,0,0,1,16.15,41.23Z"/><path id="_Tracciato_55" data-name="&lt;Tracciato&gt;" class="cls-45" d="M10.58,32.48c0,.51.17,1.07-.25,1.48a2.21,2.21,0,0,1-.43-1.49Z"/><path id="_Tracciato_56" data-name="&lt;Tracciato&gt;" class="cls-46" d="M10.82,207.17c-.06.51.48,1.17-.29,1.49,0-.62,0-1.25,0-1.87h.23A.27.27,0,0,1,10.82,207.17Z"/><path id="_Tracciato_57" data-name="&lt;Tracciato&gt;" class="cls-47" d="M12.72,218.72v1.81c-.34-.14-.19-.51-.29-.76l.09-1.06Z"/><path id="_Tracciato_58" data-name="&lt;Tracciato&gt;" class="cls-1" d="M14.81,162.44c-.68-1-.25-2.45-1-3.44-.21-2.05,1-3.34,1.71-5,1.31-3.26,4.73-4.61,5.25-8.39h.66l.09.25c-.77,2.24-.63,4.84-2.12,6.86.8-1.42,2.75-1.46,2.93-3.46a5.82,5.82,0,0,0,1.09-2.48c0-.4.17-1.12.83-.54a5.53,5.53,0,0,1-.17,2.43c-1,3.11-3.57,5-5,7.74-1.14,2.26-2.23,5-1.42,7.5.59,1.81.19,3.37.41,5a1.16,1.16,0,0,1,0,1.18c-.32.08-.5-.14-.63-.43-.17-2.11-1-4.07-1.05-6.21.32-1.53,0-3.15.48-4.66.13-.4,0-.9.37-1.22,1-1,.48-2,0-3.06-1,1.24-1.08,3-2.13,4.08-.38.4,0,1.08.13,1.62.19.78.48,1.6-.25,2.25Z"/><path id="_Tracciato_59" data-name="&lt;Tracciato&gt;" class="cls-41" d="M8.94,60.36c.83.47.62,1.37.65,2.17,0,.53.12,1,.63,1.18a.9.9,0,0,0,1.15-.77c0-1.23,1.3-2.32.32-3.65,0,0,.13-.3.21-.46a2.55,2.55,0,0,1,.59,3.08A25,25,0,0,0,11.38,68c-.06.85.67,1.74,0,2.73-.41.62-.65.77-1.07,0-.74-1.3-.34-3.18-1.61-4.19,1.13-1.13-.75-2.65.42-3.9C9.65,62.16,9,61.16,8.94,60.36Z"/><path id="_Tracciato_60" data-name="&lt;Tracciato&gt;" class="cls-48" d="M24.09,148.69V146c0-.09,0-.18-.05-.26-.42-1.66.5-3.16.4-4.84a3.81,3.81,0,0,0-.53-2.38,5.3,5.3,0,0,1-.9-2.62,35.24,35.24,0,0,0-.28-4.37,3,3,0,0,1,.37-2.35c-1-1.92-.27-4-.26-5.95,0-1,.39-1.93.08-3-.25-.85-.25-1.58.89-1.24.75.24.56-.49.63-.94a1.33,1.33,0,0,1,.16,1.71c-1.77,1.86-1.1,4.22-1.06,6.39a53.89,53.89,0,0,0,.61,7.63c.28,1.73.11,3.65,1.2,5.18.82,1.14.14,2.71-.11,3.51C24.61,144.56,25.2,146.85,24.09,148.69Z"/><path id="_Tracciato_61" data-name="&lt;Tracciato&gt;" class="cls-49" d="M24.1,146c-.54,1.15-.22,2.86-1.66,3.44-.44-.66.06-1.19.18-1.77.19-.95.33-1.87-.45-2.59a2.2,2.2,0,0,1-.06-2.14v-.39c-.46-1.75.15-3.59-.32-5.35-.09-1.17-.61-2.4.33-3.44,1.14.11,1.14.11,1.15,2.34a2.8,2.8,0,0,0,.5,1.94c1.47,1.35.78,3.29.65,4.69A27.87,27.87,0,0,0,24.1,146Z"/><path id="_Tracciato_62" data-name="&lt;Tracciato&gt;" class="cls-8" d="M14.21,76.05c1.37.58,1.17,2.26,1.48,3.37.54,2,1.69,3.57,2.42,5.42,1,2.45,3.18,4.13,3.34,7.15a3,3,0,0,0,.73,1.65,3.14,3.14,0,0,1,.63,3.06c-.6-1.85-2.1-3.15-2.3-5.25-.3-3.2-3.42-4.68-3.66-7.94a1.26,1.26,0,0,0-.37-.83c-2.21-1.25-1.82-3.74-2.12-5.89C14.33,76.54,14.26,76.29,14.21,76.05Z"/><path id="_Tracciato_63" data-name="&lt;Tracciato&gt;" class="cls-50" d="M23.11,136.46c-.17-1,.53-2.37-1-2.68-.85-1.71-2.31-3.25-1.13-5.52.29-.54-.07-.94-.31-1.37a.77.77,0,0,1,.17-1.13c.38-.27.79-.54,1.21-.16s.05.7,0,1.11c-.27,1.13-.34,2.3,1.1,2.49,0,2.42.56,4.82.33,7.26-.07.13-.15.17-.22.13S23.11,136.5,23.11,136.46Z"/><path id="_Tracciato_64" data-name="&lt;Tracciato&gt;" class="cls-51" d="M23.71,115.46c-.9,2.1-1.63,3.62-1.05,5.51.31,1-.54,1.69-.84,2.53-.12.36-.54.38-.87.18a.85.85,0,0,1-.44-.93c.57-2,.59-4.3,1.58-6.18C22.3,116.16,22.89,116,23.71,115.46Z"/><path id="_Tracciato_65" data-name="&lt;Tracciato&gt;" class="cls-52" d="M22.8,112.37a.77.77,0,0,0-.76-.79.74.74,0,0,1-.47-1.15c.93-1.5.38-2.82-.21-4.19-.5-1.16,1.06-1.56.78-2.66a25.35,25.35,0,0,0,1.24,7.51C23.53,111.5,23.17,112.05,22.8,112.37Z"/><path id="_Tracciato_66" data-name="&lt;Tracciato&gt;" class="cls-48" d="M25.45,108.94c0,1.77.89,3.42.38,5.31-.23.82-.35,1.54-1,2,.38-2,1-4,.19-6.08C24.72,109.49,25,109.19,25.45,108.94Z"/><path id="_Tracciato_67" data-name="&lt;Tracciato&gt;" class="cls-52" d="M21.8,115.81c-.37-1.41-.39-2.7,1-3.44C22.44,113.51,23.48,115.19,21.8,115.81Z"/><path id="_Tracciato_68" data-name="&lt;Tracciato&gt;" class="cls-21" d="M21.79,137.22a13.4,13.4,0,0,1,.32,5.35C21,140.87,22.18,139,21.79,137.22Z"/><path id="_Tracciato_69" data-name="&lt;Tracciato&gt;" class="cls-21" d="M22.11,143a7.69,7.69,0,0,0,.33,2.29c-.25.4-.56.62-1,.38h0C21.45,144.67,21.35,143.67,22.11,143Z"/><path id="_Tracciato_70" data-name="&lt;Tracciato&gt;" class="cls-48" d="M24.78,116.58a3,3,0,0,1-.33,1.53C23.61,117.33,24.06,116.91,24.78,116.58Z"/><path id="_Tracciato_71" data-name="&lt;Tracciato&gt;" class="cls-17" d="M18.12,170.1V169c.48.73,1.49,1.05,1.33,2.29h0C18.7,171.31,18.39,170.73,18.12,170.1Z"/><path id="_Tracciato_72" data-name="&lt;Tracciato&gt;" class="cls-53" d="M12.92,47.78c-.35.83-1.6,1-1.34,2.26a2,2,0,0,0-.24,2c.26.92.31,1.72-.62,1.94s-1.48-1.07-1.34-1.64c.47-1.95.48-4.14,1.86-5.69C11.91,46.79,13.18,45.82,12.92,47.78Z"/><path id="_Tracciato_73" data-name="&lt;Tracciato&gt;" class="cls-54" d="M3.67,1.5,4,1.11c.24.5.88.76.69,1.52-.89,2.07-.2,3,1.77,5.16a3.68,3.68,0,0,1,1.21,2.48A8.11,8.11,0,0,1,9.88,13.9a1.68,1.68,0,0,1-1.73,1.6c-.93,0-.73-1.05-1-1.7a20.07,20.07,0,0,0-2.54-2.74h0c-1-1.35-1.17-3.3-2.3-4.6.82-.33,1.23-.81.86-1.94A3.28,3.28,0,0,1,3.67,1.5Z"/><path id="_Tracciato_74" data-name="&lt;Tracciato&gt;" class="cls-55" d="M9.63,13.72a19.82,19.82,0,0,1-2-3.45c.11,0,.25,0,.32.07,1.67,1.62,3,3.77,5,4.92v1.53c-.65.13-.64-.59-.92-.92-.36-.61-1-.66-1.48-1.06A2.87,2.87,0,0,1,9.63,13.72Z"/><path id="_Tracciato_75" data-name="&lt;Tracciato&gt;" class="cls-56" d="M12.27,15.64l.67,1.15c2.11,1.23,3.3,3.55,4.78,5.51.53.71-.73,2.65-1.79,2.89a9.36,9.36,0,0,1-1.93.36c-1.22,0-1.5.75-1.41,1.95-1,.06-1.46-.33-1-1.53,1-1.06,2.25-.8,3.39-1.12a2.42,2.42,0,0,0,1.82-2.3c.06-1.21-.88-1.9-1.84-2.34-.57-.26-.88,0-.86.64.06,2.43.08,2.43-2,2.44h-.49c.24-.59.62-.89,1.19-.63.4.18.75.2,1-.29a.78.78,0,0,0-.36-1.09c-.57-.3-.33-1.43-1.15-1.45l-1.65-1.14c-1.37-.8-2.2-2.31-3.33-3.43a2.51,2.51,0,0,1,0-1.92c.07.1.15.18.21.28.3.47-.18,1.51.6,1.52a1.59,1.59,0,0,0,1.51-1.42l1,.77a3.4,3.4,0,0,0,2.11,3.65C12.57,17.27,11.42,16.66,12.27,15.64Z"/><path id="_Tracciato_76" data-name="&lt;Tracciato&gt;" class="cls-57" d="M11.61,26c-.14.91.4,1.23,1,1.53,0,1.54.79,3,.36,4.57h-.34a2.15,2.15,0,0,1-.75-1.73c.2-1.08-.47-1.67-1.12-2.34-.27.24,0,1.22-.8,1A24.36,24.36,0,0,0,10,25.83c-.1-1,.08-1.4,1-1.41C12.31,24.41,11.58,25.37,11.61,26Z"/><path id="_Tracciato_77" data-name="&lt;Tracciato&gt;" class="cls-16" d="M9.94,29c.78-.47-.07-1.87,1-2.21.15,1.29,1.76,1.78,1.37,3.37-.37.25-.68-.38-1-.1.49,2.36.49,2.36-.27,3.15a1,1,0,0,0-.32-.78C10.39,31.31,10.17,30.16,9.94,29Z"/><path id="_Tracciato_78" data-name="&lt;Tracciato&gt;" class="cls-58" d="M16.12,178.89a5.52,5.52,0,0,0,.14-3.92,5.89,5.89,0,0,1-.46-4.11.32.32,0,0,1,.46.06,2.12,2.12,0,0,1,.29.48,7.92,7.92,0,0,1,.73,8c-.72,1.13-1.51,2-2.81,1C15,179.87,15.87,179.83,16.12,178.89Z"/><path id="_Tracciato_79" data-name="&lt;Tracciato&gt;" class="cls-14" d="M9.81,191.9l-.32,0c0-2.47,1.28-4.6,1.45-7a1,1,0,0,1,.86-1c.08-.11.17-.15.26-.12s.13.06.13.09a60.23,60.23,0,0,1-1,6C11.43,191.14,10.4,191.32,9.81,191.9Z"/><path id="_Tracciato_80" data-name="&lt;Tracciato&gt;" class="cls-59" d="M12.15,183.86H11.8l2.67-3.43c1.09.27,1.88-.38,2.63-1.16l.15.22c-1.14,2-2.91,3.24-4.53,4.65C12.57,184.26,12.31,184,12.15,183.86Z"/><path id="_Tracciato_81" data-name="&lt;Tracciato&gt;" class="cls-60" d="M10.94,33.23c.55-.68.29-1.37.08-2.11s-1-1.28-.34-1.82,1.09.45,1.58.88c.11.63.23,1.26.35,1.89-.44,1.22,1.21,2.18.31,3.45h-.69l-.62-.4A5.49,5.49,0,0,1,11,33.6C10.94,33.48,10.94,33.35,10.94,33.23Z"/><path id="_Tracciato_82" data-name="&lt;Tracciato&gt;" class="cls-61" d="M16.13,170.86H15.8c-.5-1.34-2-2.31-1.08-4.18.14-.27-.08-.53-.33-.75-1.44-1.22-1.27-2.56.42-3.49h0a4.8,4.8,0,0,1,.68,1.53A19.9,19.9,0,0,1,16.13,170.86Z"/><path id="_Tracciato_83" data-name="&lt;Tracciato&gt;" class="cls-23" d="M13.45,219.79c-.22-.39-.43-.78-.64-1.18-.22-1.29,1.07-1.94,1-3.18,0-.13.79-.35.71.17-.38,2.42.9,4.87-.12,7.26l0,0c-.71-1.21-.31-2.62-.56-4.24C13.89,219.31,14.13,219.84,13.45,219.79Z"/><path id="_Tracciato_84" data-name="&lt;Tracciato&gt;" class="cls-32" d="M14.39,211.81a1.29,1.29,0,0,1-.58,1.17l-.71-2a5.45,5.45,0,0,1-.65-2.21,3.18,3.18,0,0,1,.16-1.78l.19-.21.35,0C13.69,208.43,13.45,210.31,14.39,211.81Z"/><path id="_Tracciato_85" data-name="&lt;Tracciato&gt;" class="cls-62" d="M12.79,208.71A4.27,4.27,0,0,1,13.1,211c-.59.11-1.42.77-1.31-.75v-.38a1,1,0,0,1,0-1c.15-.46-.37-1.27.38-1.35S12.42,208.38,12.79,208.71Z"/><path id="_Tracciato_86" data-name="&lt;Tracciato&gt;" class="cls-43" d="M14.72,224.44c-1.32-.15-.24,1.06-.6,1.45a1.82,1.82,0,0,1-.33,0c.16-.75-.81-1.7.29-2.29C14.53,223.64,14.77,223.89,14.72,224.44Z"/><path id="_Tracciato_87" data-name="&lt;Tracciato&gt;" class="cls-63" d="M3.67,1.5a12.78,12.78,0,0,0,.2,4.17c.43,2-.92.7-1.52.78L2,6.07c-.37-.42-.41-1-.67-1.52.16-1.22-.49-2.74,1-3.44A2.18,2.18,0,0,0,3.67,1.5Z"/><path id="_Tracciato_88" data-name="&lt;Tracciato&gt;" class="cls-54" d="M1.35,4.55A2.23,2.23,0,0,1,2,6.07C1.4,5.79,1.32,5.2,1.35,4.55Z"/><path id="_Tracciato_89" data-name="&lt;Tracciato&gt;" class="cls-64" d="M9.81,191.9c-.34-1.12,1.44-.75,1-1.93.27-.69.54-1.38,1.38-1.15-.32,1.81,1,3.21.93,5-.15,2.58-1.35,5.28.62,7.63a.6.6,0,0,1,.08.35c-.12.77-.23,1.53-.35,2.29-.11.14-.22.29-.34.43a11.33,11.33,0,0,1-.86-6,2.21,2.21,0,0,0-.16-1.26c-.32-.48-.33-1.14-.69-1.71-.69.54-.5,1.52-.95,2.09l-.32.42a3.45,3.45,0,0,1,0-3.1c.45-.54,1.07-1.05.09-1.71C9.81,192.94,9.81,192.41,9.81,191.9Z"/><path id="_Tracciato_90" data-name="&lt;Tracciato&gt;" class="cls-32" d="M12.13,203.35c.23,1.14,1.37,2.05.67,3.43l0,0c-.77.62-1.38.16-2-.4-.15-.79.37-1.29.64-1.9A2.3,2.3,0,0,1,12.13,203.35Z"/><path id="_Tracciato_91" data-name="&lt;Tracciato&gt;" class="cls-65" d="M10.48,197.62c0-.13,0-.25,0-.38,0-1-.15-2.46.92-2.44,1.26,0,.53,1.58.72,2.44C11.44,196.59,11,197.28,10.48,197.62Z"/><path id="_Tracciato_92" data-name="&lt;Tracciato&gt;" class="cls-12" d="M10.81,206.41l2,.39c0,.64,0,1.27,0,1.91l-.6-1c.13.82-.35,1.44-.4,2.16-.73-.7.15-2.17-1-2.68,0-.12,0-.25-.05-.38S10.8,206.54,10.81,206.41Z"/><path id="_Tracciato_93" data-name="&lt;Tracciato&gt;" class="cls-28" d="M12.13,203.35c0,.56,0,1.12-.68,1.16-.85-.94-.38-1.75.18-2.69C12.11,202.29,12,202.87,12.13,203.35Z"/><path id="_Tracciato_94" data-name="&lt;Tracciato&gt;" class="cls-14" d="M10.15,194.94c0,1,0,2.07,0,3.1,0,.37,0,.74,0,1.11q-.11.18-.21.12c-.07,0-.11-.08-.11-.12C9.85,197.74,8.75,196.21,10.15,194.94Z"/><path id="_Tracciato_95" data-name="&lt;Tracciato&gt;" class="cls-64" d="M9.83,199.15h.32a10.61,10.61,0,0,0,.28,2.69C9.46,201.17,9.88,200.09,9.83,199.15Z"/><path id="_Tracciato_96" data-name="&lt;Tracciato&gt;" class="cls-30" d="M13.79,188.06h-.33c-.81-1.09-1-2.09.29-2.92.29-.19.33-.65.51-1,1-.7,1.72-2.24,3.23-1.88a3.81,3.81,0,0,1-.37,1.57,12.12,12.12,0,0,0-2.8,2.58A3.17,3.17,0,0,0,13.79,188.06Z"/><path id="_Tracciato_97" data-name="&lt;Tracciato&gt;" class="cls-66" d="M19.77,180.81c-.18.79-1,.59-1.34,1.13h-.32a.29.29,0,0,1-.43,0,.84.84,0,0,1,.28-1,1.67,1.67,0,0,1,1.64-.31Z"/><path id="_Tracciato_98" data-name="&lt;Tracciato&gt;" class="cls-17" d="M17.75,181.93l.36,0a3.82,3.82,0,0,1-1,1.91,3.15,3.15,0,0,1,.31-1.55C17.37,182,17.48,181.87,17.75,181.93Z"/><path id="_Tracciato_99" data-name="&lt;Tracciato&gt;" class="cls-36" d="M16.15,41.23v1a2.17,2.17,0,0,1-.6-3C15.6,40,15.42,40.8,16.15,41.23Z"/><path id="_Tracciato_100" data-name="&lt;Tracciato&gt;" class="cls-66" d="M18.12,170.1a3.51,3.51,0,0,1,1.31,1.15c.37,1.13.2,2.47,1,3.44-.43.4-.77.12-1.1-.2a6.6,6.6,0,0,1-.76-2.24,1.63,1.63,0,0,0-.74-1.11,1.72,1.72,0,0,1-.33-.33c-.16-.46-.6-1,.28-1.1Z"/><path id="_Tracciato_101" data-name="&lt;Tracciato&gt;" class="cls-66" d="M20.76,176.22c0,1.61.06,3.26-1,4.59h0a4,4,0,0,1,.41-4.33C20.32,176.26,20.49,176.08,20.76,176.22Z"/><path id="_Tracciato_102" data-name="&lt;Tracciato&gt;" class="cls-67" d="M20.76,176.22l-.33.38c-1.19-.27-1.6-1-1-2.3l1,.39A2.76,2.76,0,0,1,20.76,176.22Z"/><path id="_Tracciato_103" data-name="&lt;Tracciato&gt;" class="cls-14" d="M14.47,184.24c-.07.37-.05,1-.21,1-1.36.54-.82,1.74-.8,2.77-.22,1.32-.81,2.6-.15,4a1.47,1.47,0,0,1-.18,1.73,5.54,5.54,0,0,0-.38-1c-.74-1.21-1.34-2.44-.61-3.95a1.22,1.22,0,0,1,0-.92c.23-.82-1-1.56-.24-2.23A4.77,4.77,0,0,1,14.47,184.24Z"/><path id="_Tracciato_104" data-name="&lt;Tracciato&gt;" class="cls-13" d="M7.31,13.34c0,.64,0,1.28,0,1.92-.31-1.88-1.82-2.75-2.64-4.2C5.91,11.25,6.28,12.81,7.31,13.34Z"/><path id="_Tracciato_105" data-name="&lt;Tracciato&gt;" class="cls-27" d="M13.45,219.79c.69-.76-.46-1.3-.17-2,1.2.29,1.2.29,1.14,5.06a1.08,1.08,0,0,1-1.3-.74h0c.41-.71-.09-1.59.32-2.29Z"/><path id="_Tracciato_106" data-name="&lt;Tracciato&gt;" class="cls-23" d="M13.44,219.8c-.11.76.26,1.61-.32,2.29C13.19,221.32,12.85,220.47,13.44,219.8Z"/><path id="_Tracciato_107" data-name="&lt;Tracciato&gt;" class="cls-16" d="M11,33.6a2.49,2.49,0,0,1,.66,1.53C11,34.85,10.9,34.26,11,33.6Z"/><path id="_Tracciato_108" data-name="&lt;Tracciato&gt;" class="cls-68" d="M15.14,164c-.48-.4-.29-1-.33-1.53.67-.84.23-1.64-.06-2.45a1.84,1.84,0,0,1,.49-2.36c1-1,1.07-2.94,2.26-4.27.09,1.49,1.6,2.58.68,4-.41.64-.51,1.39-.83,1.86-.86,1.29.3,2.79-.55,4C15.51,161.37,15.75,163.9,15.14,164Z"/><path id="_Tracciato_109" data-name="&lt;Tracciato&gt;" class="cls-18" d="M21.45,145.63l1-.38c.28,0,.68-.78.78.29a8.66,8.66,0,0,1-.78,3.92,1.2,1.2,0,0,1-.15,1.52c-.7.81-2.1.79-2.12,2.47,0,.29-.7.26-1-.06-.49-.48-.57-1.52-.24-1.7,1.92-1.05,1.11-3.39,1.91-4.94C21,146.37,21.24,146,21.45,145.63Z"/><path id="_Tracciato_110" data-name="&lt;Tracciato&gt;" class="cls-67" d="M15.14,164a2.71,2.71,0,0,1,.11-.92c.28-.56.28-1.61,1-1.49.51.09.58,1,.56,1.64,0,2.23,1.24,4.22,1,6.5-.52.39-.08.77,0,1.15a1.3,1.3,0,0,1-1.64.39v-.39C15.42,168.64,15.8,166.21,15.14,164Z"/><path id="_Tracciato_111" data-name="&lt;Tracciato&gt;" class="cls-21" d="M23.11,136.46h.33a5.77,5.77,0,0,0,1.21,2.39,1.36,1.36,0,0,1,.4,1,53.62,53.62,0,0,1-.95,6.2,1.84,1.84,0,0,0-1.56-1.84c1.63-.9,2.26-3.72,1.4-5.33A4.33,4.33,0,0,1,23.11,136.46Z"/><path id="_Tracciato_112" data-name="&lt;Tracciato&gt;" class="cls-69" d="M6,10.41C4.63,10,4.22,9.33,4.36,8.22c0-.36.25-.62.56-.52C6.07,8.08,5.43,9.29,6,10.41Z"/><path id="_Tracciato_113" data-name="&lt;Tracciato&gt;" class="cls-54" d="M12.27,15.64c0,.7-.08,1.41.75,1.64a.7.7,0,0,1,.38,1.06c-.15.34-.27.66-.73.59C12,18.82,9.73,16,9.83,15.3a.81.81,0,0,1,.79-.81C11.07,15.06,12.13,14.48,12.27,15.64Z"/><path id="_Tracciato_114" data-name="&lt;Tracciato&gt;" class="cls-59" d="M16.14,171.25a2.3,2.3,0,0,1,1.64-.39h0a1.55,1.55,0,0,1,1,1.15,7.12,7.12,0,0,1,.66,2.29,2.5,2.5,0,0,0,1,2.3c-1,1.23-.43,2.8-.67,4.2l-1.66.38c.15-1.39.76-2.68.76-4.19-.84.59-.52,2.21-1.74,2.29l0,0a7.53,7.53,0,0,1,.44-2.53c.6-1.42-.08-2.83-.88-4A2.23,2.23,0,0,1,16.14,171.25Z"/><path id="_Tracciato_115" data-name="&lt;Tracciato&gt;" class="cls-70" d="M17.12,179.28a6.55,6.55,0,0,0,1.1-2.48c.12-.37.22-1,.75-.76a.87.87,0,0,1,.43,1.1c-.53,1.31-.11,3-1.3,4a.89.89,0,0,0-.35.75c-.11.12-.21.25-.32.38l-3,1.93A5.3,5.3,0,0,1,11.76,186c1.08.9,1.29,1.83.38,2.84L10.82,190c-.05-.12-.16-.29-.13-.34,1.05-1.73.19-4.11,1.46-5.77a.43.43,0,0,0,.16,0A34.47,34.47,0,0,0,17.12,179.28Z"/><path id="_Tracciato_116" data-name="&lt;Tracciato&gt;" class="cls-67" d="M18.78,172l-1-1.15C18.52,170.78,18.85,171.16,18.78,172Z"/></g></g></g></g></svg>