<svg xmlns="http://www.w3.org/2000/svg" viewBox="0 0 35.45 167.99"><defs><style>.cls-1{fill:#f6bc6d;}.cls-2{fill:#face94;}.cls-3{fill:#f5b966;}.cls-4{fill:#f8ca8b;}.cls-5{fill:#f7bf74;}.cls-6{fill:#f9d099;}.cls-7{fill:#f8c481;}.cls-8{fill:#f7bd6e;}.cls-9{fill:#f7c786;}.cls-10{fill:#f9cc92;}.cls-11{fill:#f6be70;}.cls-12{fill:#f7c078;}.cls-13{fill:#f6b863;}.cls-14{fill:#f7c584;}.cls-15{fill:#f5b965;}.cls-16{fill:#f9d09b;}.cls-17{fill:#f6c177;}.cls-18{fill:#f6b763;}.cls-19{fill:#f7c27c;}.cls-20{fill:#f5b660;}.cls-21{fill:#f7c27d;}.cls-22{fill:#f6c27a;}.cls-23{fill:#f6b762;}.cls-24{fill:#f7bc6d;}.cls-25{fill:#f6b761;}.cls-26{fill:#f6bc6c;}.cls-27{fill:#f6b864;}.cls-28{fill:#f7ba67;}.cls-29{fill:#f6bf72;}.cls-30{fill:#f5b661;}.cls-31{fill:#f7c37b;}.cls-32{fill:#f7ba68;}.cls-33{fill:#fad5a5;}.cls-34{fill:#f6bf74;}.cls-35{fill:#f7c076;}.cls-36{fill:#f6c178;}.cls-37{fill:#f7c785;}.cls-38{fill:#f6b967;}.cls-39{fill:#f6c279;}.cls-40{fill:#fad9ae;}.cls-41{fill:#fce8cf;}.cls-42{fill:#fbddb6;}.cls-43{fill:#f9cb8f;}.cls-44{fill:#facd95;}.cls-45{fill:#f8c98c;}.cls-46{fill:#f9cc90;}.cls-47{fill:#f9cc91;}</style></defs><title>Risorsa 13</title><g id="Livello_2" data-name="Livello 2"><g id="Colori"><g id="_Gruppo_clip_" data-name="&lt;Gruppo clip&gt;"><g id="_Gruppo_" data-name="&lt;Gruppo&gt;"><path id="_Tracciato_" data-name="&lt;Tracciato&gt;" class="cls-1" d="M3.07,38.17c0-1.72,1.66-3.09,3-2.45S9,36.79,9.94,38.25c.46.67,1.11,1.13.6,2.2s-1.18,1.91-2.32,1.71a9,9,0,0,1-4.33-2A2,2,0,0,1,3.07,38.17Z"/><path id="_Tracciato_2" data-name="&lt;Tracciato&gt;" class="cls-2" d="M2.08.91C2.6,0,3.27-.26,4.12.3c-.08.39.16.68.22,1,.09.94.2,1.76,1.17,2.19A4.69,4.69,0,0,1,7.13,5.25,2.21,2.21,0,0,0,8,6.09c1.35.65,1.63,1.7.89,3.23a.83.83,0,0,1-1.28,0c0-.82-.77-.62-1.13-1A24.56,24.56,0,0,0,3,4.48,3.52,3.52,0,0,1,2.08.91Z"/><path id="_Tracciato_3" data-name="&lt;Tracciato&gt;" class="cls-3" d="M2.28,63.94A10,10,0,0,1,8,66.51c1,.84.61,3.13-.54,3.76-1.86,1-5.66-.44-6.71-2.57.42-.62.81-.34,1.3,0,1.34.88,2.72,1.62,4.37,1.12.83-.26.7-.58.27-1.13-.32-.39-.64-.88-1.1-.91-1.23-.07-2.1-1.12-3.24-1.42a.8.8,0,0,1-.63-.79C1.66,64.07,2.07,64.13,2.28,63.94Z"/><path id="_Tracciato_4" data-name="&lt;Tracciato&gt;" class="cls-4" d="M18.76,101.26l-.45-1.78c1.35-1.08,2-1.14,3.38-.06a5.54,5.54,0,0,0,2.41,1c1.16.24,2.23,1,3.45,1a6.34,6.34,0,0,1,.75.07c.61.2,1.45-.15,1.73.79s-.39,1.33-.83,1.77a1.66,1.66,0,0,1-2.11.18c-.4-.21-.69-.68-1.13-.87l-.33-.14a7.86,7.86,0,0,1-1.95-.6c-1.06-.37-2.22-.19-2.78-1.69-.11-.27-.62-.11-.94,0A2.07,2.07,0,0,1,18.76,101.26Z"/><path id="_Tracciato_5" data-name="&lt;Tracciato&gt;" class="cls-5" d="M23.09,33a5.48,5.48,0,0,1,1.26.9,1.62,1.62,0,0,1,.75,1.78c-.21.89-.55,1.62-1.4,1.83a3.29,3.29,0,0,1-2.88-.42A10.58,10.58,0,0,0,16.6,34.4,1.54,1.54,0,0,1,15.8,33c.53-.74,1.21-.38,1.65-.06a37.71,37.71,0,0,1,3.89,2.78,1.38,1.38,0,0,0,1.49.42c.27-.09.63-.09.68-.5a.74.74,0,0,0-.54-.85,19.86,19.86,0,0,1-4.21-2.08,7.24,7.24,0,0,0-2.93-.9,1.51,1.51,0,0,1,1-1.66,11.37,11.37,0,0,1,4.84,2.72A1,1,0,0,0,23.09,33Z"/><path id="_Tracciato_6" data-name="&lt;Tracciato&gt;" class="cls-6" d="M34.05,163.14a3,3,0,0,1-2.31.78c-.36-.56-.61-1.29-1.43-.64a.93.93,0,0,1-1.24-.27c-.18-.16-.34-.51-.6-.34-1,.66-1.65-.14-2.32-.8,0-.4.32-.94-.38-1.07-.18,0-.16-.4,0-.63A2.28,2.28,0,0,1,27,159c.44.81,1,1.32,1.83.75a.42.42,0,0,1,.48,0c.86.74,1.92.38,2.86.72l.34.14C33.66,160.9,34.12,161.81,34.05,163.14Z"/><path id="_Tracciato_7" data-name="&lt;Tracciato&gt;" class="cls-7" d="M10.23,85.6c-.47,2-1,2.38-2.74,1.78a1.94,1.94,0,0,0-1.65-1.7,10.5,10.5,0,0,1-2.63-1.23A2.65,2.65,0,0,1,2.59,84a4.63,4.63,0,0,0-.95-.66,1,1,0,0,1-.49-1.15c.13-.69.57-.54,1-.49s.57,0,.85.1a1.35,1.35,0,0,1,.36.08A3,3,0,0,1,5.42,83a2,2,0,0,0,1.86.56C8.8,83.33,9.59,84.27,10.23,85.6Z"/><path id="_Tracciato_8" data-name="&lt;Tracciato&gt;" class="cls-8" d="M27,129.34c.78.45.86,1.1.62,2-.27,1.11-.85,1.62-1.78,1.66a12,12,0,0,1-6.6-1.69c.05-1.3.81-1.87,1.79-1.18,1.26.88,2.69.9,4.05,1.23.39.09,1,.11,1-.53s-.53-.58-.88-.58a5.37,5.37,0,0,1-3.68-1.4c.58-.93,1.14-1.31,2.25-.73A7.6,7.6,0,0,0,27,129.34Z"/><path id="_Tracciato_9" data-name="&lt;Tracciato&gt;" class="cls-9" d="M21.52,128.68c1.24.48,2.35,1.43,3.8,1.23.44-.06,1.43-.06,1.31,1a1.06,1.06,0,0,1-1.56.9c-1.43-.51-3-.21-4.33-1.45-.62-.59-1.31,0-1.51,1-1.37-1.74-1.41-2.61-.2-3.78a5.58,5.58,0,0,0,2.37,1Z"/><path id="_Tracciato_10" data-name="&lt;Tracciato&gt;" class="cls-10" d="M15.83,31.85c1.47-.86,2.55.4,3.75.93s2.11,1.46,3.42,1.51c.67,0,.9.82,1,1.43s-.4.66-.83.78a2.64,2.64,0,0,1-2.29-.62c-1.65-1-2.94-3.05-5.1-2.84A.9.9,0,0,1,15.83,31.85Z"/><path id="_Tracciato_11" data-name="&lt;Tracciato&gt;" class="cls-11" d="M10.88,23.39c.16.49.31,1,.48,1.46s.31,1.26-.22,1.7-1.11,1.18-2,.75a7.12,7.12,0,0,1-2-1.6C6.2,24.76,5.24,23.92,4.32,23a2.41,2.41,0,0,1-.77-1.6c.25-.14.46,0,.68.12.89.69,1.54,1.79,2.83,1.81.65,0,1.06.82,1.29,1.59.12.41.29.92.75.76s.3-.74.28-1.13c-.08-1.31-1-1.77-1.84-2.26s-1.65-.78-1.47-2.11c.89-.42,1.44.33,2.1.78C9.17,21.65,9.7,23,10.88,23.39Z"/><path id="_Tracciato_12" data-name="&lt;Tracciato&gt;" class="cls-4" d="M9.45,149.25a3.07,3.07,0,0,1-.69-1.8,1.43,1.43,0,0,1,.45-.36c1.39-1,2.87-.75,4.42-.64a5.37,5.37,0,0,1,3,1.17c.31.24.67.46.66,1s-.48.57-.8.77c-1.35.83-2.66.17-4-.14C11.51,149,10.48,148.52,9.45,149.25Z"/><path id="_Tracciato_13" data-name="&lt;Tracciato&gt;" class="cls-7" d="M14.49,167.7a3.1,3.1,0,0,1-3.07-.26,3.37,3.37,0,0,0-2.69-1.52c-.23-.76-1.19-1.28-.57-2.31.9,1.13,2.53.43,3.36,1.77.15.24.45.22.67,0a.46.46,0,0,0,.16-.37.5.5,0,0,0-.53-.48,4,4,0,0,1-2.64-1.14c-.34-.3-.84-.52-.72-1.2a1.29,1.29,0,0,1,1.26-.56c0,1.07.69,1.24,1.41,1.34a2.78,2.78,0,0,1,2,.78c.16.22.22.57.42.7A2.35,2.35,0,0,1,14.49,167.7Z"/><path id="_Tracciato_14" data-name="&lt;Tracciato&gt;" class="cls-12" d="M9.45,149.25a1.19,1.19,0,0,1,1.64-.75c1.23.35,2.49.59,3.72,1,.75.22,1.38-.49,2.11-.63.48-.1.16-.64-.08-.69-1-.19-1.51-1.87-2.95-1.13-.45.23-1.46-.29-2.29-.3a5.28,5.28,0,0,0-2.37.74c0-1.4.32-1.75,1.5-1.77a18.09,18.09,0,0,1,4.92.45.63.63,0,0,0,.59-.09,1.9,1.9,0,0,1,1.5,2.43c-.23,1.49-1.2,1.74-2.27,1.84a13.54,13.54,0,0,1-3.71-.76,3.58,3.58,0,0,0-2,0Z"/><path id="_Tracciato_15" data-name="&lt;Tracciato&gt;" class="cls-9" d="M35.1,72.35c-.37,1.45-1.35,1.22-2.28,1.12-.5-1-1.51-.7-2.25-1.19a5.27,5.27,0,0,0-3.47-1.17,2.53,2.53,0,0,1,.24-3.64c.32.42.84.71.7,1.44-.07.28-.45.66,0,.81,2,.62,3.72,2.24,5.94,2.74-.4-1.41-1.58-1.44-2.42-1.86a6.07,6.07,0,0,0-2.72-.91.74.74,0,0,1-.82-.84c.29-1.4.26-1.33,1.36-.63.83.53,1.84.45,2.75.79A4.42,4.42,0,0,1,35.1,72.35Z"/><path id="_Tracciato_16" data-name="&lt;Tracciato&gt;" class="cls-13" d="M28.3,101.81h-.75c-.06-.07-.12-.19-.18-.2-1.3-.09-2.33-1-3.53-1.47s-2-1.14-3.11-1.23c-.38,0-.74-.48-.43-1.09,2.52-.22,4.81.75,7,1.9.74.37,1.66.37,2.2,1.24C29.54,102,28.72,101.55,28.3,101.81Z"/><path id="_Tracciato_17" data-name="&lt;Tracciato&gt;" class="cls-14" d="M0,66c0-.5.61-.67.46-1.41s.57-.64,1-.63c.12.85.33,1.59,1.29,1.49.31,0,.54.23.76.45a2.36,2.36,0,0,0,1.8.77,1.27,1.27,0,0,1,1.34,1.49c-.08,1.08-.89,1-1.55.87a5,5,0,0,1-2.54-1.06c-.34-.28-.72-.61-1.12-.57C.58,67.44.32,66.72,0,66Z"/><path id="_Tracciato_18" data-name="&lt;Tracciato&gt;" class="cls-8" d="M32.12,48.57c.58,1.38-.14,3-1.45,3.13-2.12.23-5.32-2.51-5.38-4.55l.13-.13c.91-.39,1.41.37,1.91,1a5.85,5.85,0,0,0,2.83,2.23c.62.17.9.11.72-.71,0-.73-.88-.78-.8-1.54C31,47.25,31.46,48.26,32.12,48.57Z"/><path id="_Tracciato_19" data-name="&lt;Tracciato&gt;" class="cls-15" d="M35.1,72.35c-.67-.32-.63-1.24-1.18-1.76A5.34,5.34,0,0,0,29.65,69c-.78.07-.39-1-1-1.09-.43.1-.23.78-.59,1h0a2.11,2.11,0,0,1-.73-1.39,2.8,2.8,0,0,1,2.95,0,25.53,25.53,0,0,0,2.77,1.13,4.67,4.67,0,0,1,2.29,2.82C35.51,71.75,35.52,72.15,35.1,72.35Z"/><path id="_Tracciato_20" data-name="&lt;Tracciato&gt;" class="cls-16" d="M17.31,15.13c-.45-1,.18-1.94.05-2.91a5.51,5.51,0,0,1,2.1,1.1,1.86,1.86,0,0,1,.27.22,10.42,10.42,0,0,1,.67.82,3.39,3.39,0,0,0,1.48,1.08,1.06,1.06,0,0,1,.38.35,1.47,1.47,0,0,0,.65.79,2.58,2.58,0,0,1,.32.18c.35.21.66.5.49,1s-.59.37-.95.22a.67.67,0,0,0-.48-.07c-1.13.36-1.84-.11-2.17-1.4,0-.18-.21-.29-.34-.41A6.32,6.32,0,0,0,17.31,15.13Z"/><path id="_Tracciato_21" data-name="&lt;Tracciato&gt;" class="cls-17" d="M0,66c.56.7,1.09,1.42,2.08,1.19.35-.09.59.31.82.57.8.88,1.93.61,2.85,1.08.36.19.71-.22.72-.74,0-.67-.37-1.32-.85-1.15-1.58.57-2.29-1.55-3.73-1.46-.39,0-.41-1-.39-1.53l.74,0c-.61.63-.42.78.28,1.19,1.6.93,3.63.88,4.79,2.84.32.52.5.69-.14,1a4.89,4.89,0,0,1-5.47-1.1c-.41-.38-.69-.07-1-.12A1.68,1.68,0,0,1,0,66Z"/><path id="_Tracciato_22" data-name="&lt;Tracciato&gt;" class="cls-18" d="M3.27,82.14H3A6.14,6.14,0,0,0,.5,81.26C1.2,80,2.21,79.5,3.37,80a15.19,15.19,0,0,1,5.74,3.58c-1.2.73-2.19-.33-3.15-.74A7.2,7.2,0,0,0,3.27,82.14Z"/><path id="_Tracciato_23" data-name="&lt;Tracciato&gt;" class="cls-3" d="M4.08,1.21c.08-.3-.85-.66,0-.91A3.39,3.39,0,0,1,6.35,2,27.11,27.11,0,0,0,8.79,4.73a3.53,3.53,0,0,1,.78,4c-.63,0-.45-.68-.43-.94A2,2,0,0,0,8,5.77,10.69,10.69,0,0,1,4.08,1.21Z"/><path id="_Tracciato_24" data-name="&lt;Tracciato&gt;" class="cls-19" d="M14,79.87a1.65,1.65,0,0,1-.21-1.19c1.06-1.18,2.21-2,3.79-1.46a1,1,0,0,0,.94-.25c1.24.13,1.58,1,1.48,2.28-.4.23-.88.32-1.07.88-.4,1.16-1.19,1.13-2.05.93S15,80.1,14,79.87Z"/><path id="_Tracciato_25" data-name="&lt;Tracciato&gt;" class="cls-20" d="M27,129.34a1.21,1.21,0,0,1-1.63-.07c-.67-.76-1.73-.14-2.36-1.17-.26-.42-.83.85-1.48.58h0c-.33-.34-.77-.21-1.14-.36s-.94-.33-.87-1.08c1-1.06,2.06-.55,3.06-.24C24.14,127.49,25.83,127.8,27,129.34Z"/><path id="_Tracciato_26" data-name="&lt;Tracciato&gt;" class="cls-21" d="M20.3,97.82c0,.44.31,1,.51.89,1.36-.5,2.21.91,3.38,1.13s1.91,1.61,3.23,1.31c0,0,.08.43.13.66-2.17-.58-4.45-.75-6.33-2.35-1-.84-1.94-.34-2.91,0A2.13,2.13,0,0,1,20.3,97.82Z"/><path id="_Tracciato_27" data-name="&lt;Tracciato&gt;" class="cls-5" d="M7.26,109.58A3,3,0,0,1,6,105.82c.24,0,.52.21.72,0,1.1-1,2.19-.43,3.27,0a3.55,3.55,0,0,0,1.19.31c.49,0,1,.08,1.14.81a.75.75,0,0,1-.26.27A5.78,5.78,0,0,1,8.62,107a1,1,0,0,0-1.3.43c1.07.49,2.24.75,3,1.88a.46.46,0,0,1,0,.38c-.51.37-.94,0-1.4-.18S7.76,108.92,7.26,109.58Z"/><path id="_Tracciato_28" data-name="&lt;Tracciato&gt;" class="cls-22" d="M20.1,14.51l-.51-.86c.85-.86,1.57-.64,2.23.31a3.36,3.36,0,0,0,1.89,1.54c.66.17,1,.87,1.23,1.54a.81.81,0,0,0,.92.66c-.37,2.08-1.28,2.69-3,2-.07-.35-.28-.72.16-.95.74.11.91-.46.95-1.1.06-1-.7-.63-1.1-.85h0A2.45,2.45,0,0,1,22.1,16l-.25-.29C21.17,15.48,20.86,14.55,20.1,14.51Z"/><path id="_Tracciato_29" data-name="&lt;Tracciato&gt;" class="cls-3" d="M25.86,17.7c-.28.18-.38.65-.87.64-.32-1.27-.56-2.7-2.19-2.71-.33,0-.78-.6-1-1-.49-1.26-1.29-1.28-2.25-.94h0c-.77-.76-.25-1.27.27-1.77A23.57,23.57,0,0,1,25.7,17C25.82,17.18,25.81,17.47,25.86,17.7Z"/><path id="_Tracciato_30" data-name="&lt;Tracciato&gt;" class="cls-18" d="M12.27,107c-.2-.16-.43-.49-.6-.45-1.31.24-2.35-.86-3.59-1-.4,0-.77-.07-1,.38-.5,1.06-.79.39-1.1-.16,1.11-1.58,2.37-1.88,3.9-1,.74.43,1.49.82,2.25,1.18a1.41,1.41,0,0,1,.87,1.54C12.57,107.73,12.38,107.43,12.27,107Z"/><path id="_Tracciato_31" data-name="&lt;Tracciato&gt;" class="cls-23" d="M16.24,146c.09.29.16.62-.25.54a31.77,31.77,0,0,0-4.76-.51c-1.12,0-1.74.13-2,1.38H8.76a2.49,2.49,0,0,1,2.56-2.57A10.3,10.3,0,0,1,16.24,146Z"/><path id="_Tracciato_32" data-name="&lt;Tracciato&gt;" class="cls-24" d="M22.85,18.85c-.08.29.29.59,0,.88a10.56,10.56,0,0,1-5.53-4.6c.17-.39.43-.65.76-.32.52.51,1.2.53,1.77.86.14.24.39.47.39.71,0,1.41.78,1.59,1.74,1.46.43.06.66.4.85.79Z"/><path id="_Tracciato_33" data-name="&lt;Tracciato&gt;" class="cls-4" d="M8.46,162.19c.92,1,1.84,2,3.28,1.94.36,0,1-.08,1.12.63a1.18,1.18,0,0,1-.71,1.2c-.68.36-.87-.19-1.16-.66-.13-.21-.24-.68-.49-.55-1.18.66-1.79-.13-2.34-1.14C8.29,163.14,8.06,162.58,8.46,162.19Z"/><path id="_Tracciato_34" data-name="&lt;Tracciato&gt;" class="cls-8" d="M2.08.91s.09.07.09.1c-.5,2.31,1,3.36,2.26,4.42A15.16,15.16,0,0,1,6.58,8.14c.28.34.73.35,1,.67-.19.5-.48.38-.77.2a13,13,0,0,1-4.78-5.4C1.72,2.8,1.27,1.8,2.08.91Z"/><path id="_Tracciato_35" data-name="&lt;Tracciato&gt;" class="cls-25" d="M23.09,33c-.35,1.21-1,.81-1.49.27a10.37,10.37,0,0,0-3.82-2.39,4.63,4.63,0,0,1-.92-.71c1.36-.68,2.41,0,3.51.88C21.23,31.79,22.25,32.25,23.09,33Z"/><path id="_Tracciato_36" data-name="&lt;Tracciato&gt;" class="cls-26" d="M19.56,56.1c-.81.26-1.46,1.24-2.41.85a11.91,11.91,0,0,1-3.84-2.51,1.37,1.37,0,0,1-.25-1.2c.46-.75.92-.22,1.26.1a11.65,11.65,0,0,0,2.52,1.78,1.4,1.4,0,0,1,.22.32c.38.9.9.46,1.47.29C18.85,55.62,19.56,54.78,19.56,56.1Z"/><path id="_Tracciato_37" data-name="&lt;Tracciato&gt;" class="cls-27" d="M18.54,77c-.05.48-.2.88-.7.71-1.34-.46-2.56-.49-3.47,1-.14.24-.37.06-.56,0,0-2,1.43-3.27,3.06-2.64A14.43,14.43,0,0,1,18.54,77Z"/><path id="_Tracciato_38" data-name="&lt;Tracciato&gt;" class="cls-28" d="M27.79,105c-2.75-.65-5.53-1.23-8-2.79.18-.94.81-1.22,1.41-.48s.94,1,1.68.56a.42.42,0,0,1,.58.07c.65,1,1.51.81,2.38.62h0c.69.41,1.07,1.34,1.95,1.43C28,104.41,28,104.76,27.79,105Z"/><path id="_Tracciato_39" data-name="&lt;Tracciato&gt;" class="cls-15" d="M32.12,48.57c-.72.06-1.25-.85-2-.52-2.07-.57-2.46-1-2.5-2.66a1.14,1.14,0,0,1,.25-.79A9.35,9.35,0,0,1,32.12,48.57Z"/><path id="_Tracciato_40" data-name="&lt;Tracciato&gt;" class="cls-17" d="M19.56,56.1c-.42-.82-.79-.09-1.16.08-.71.33-1.35.56-1.58-.63.39-.24.81.16,1.21,0s.68-.22.71-.69a.68.68,0,0,0-.62-.74,1.52,1.52,0,0,1-.81-.3c-.28-.33-.43-.84-.92-.91a1,1,0,0,1-.27-.24c-.13-.26-.21-.5.06-.71.9-.61,1.6.49,2.44.39C20.24,53.19,20.54,54.39,19.56,56.1Z"/><path id="_Tracciato_41" data-name="&lt;Tracciato&gt;" class="cls-14" d="M4.08,1.21c.91.31.86,1.57,1.59,2.1C6.6,4,7.19,5.09,8.34,5.54S9.19,7.62,9.57,8.7c-.15.35-.46.46-.73.62a4.67,4.67,0,0,0,0-2.23c0-.2-.22-.54-.33-.54-1.63,0-1.8-2-3-2.66-.1-.05-.15-.23-.25-.31C4.17,2.77,4.17,2.77,4.08,1.21Z"/><path id="_Tracciato_42" data-name="&lt;Tracciato&gt;" class="cls-18" d="M10.88,23.39c-.63.78-1,.09-1.24-.39a10,10,0,0,0-2.41-2.32,1.46,1.46,0,0,0-1.16-.4c-.64-.15-.48-.63-.35-1.11a.23.23,0,0,1,.37-.06A7.65,7.65,0,0,1,10.88,23.39Z"/><path id="_Tracciato_43" data-name="&lt;Tracciato&gt;" class="cls-27" d="M13,163.94c-.8-.86-1.89-.41-2.8-.82-.74-.34-1-.69-.46-1.49,1-.51,1.78.26,2.62.71a9.9,9.9,0,0,1,2.17,1.55C14.15,164.79,14.15,164.79,13,163.94Z"/><path id="_Tracciato_44" data-name="&lt;Tracciato&gt;" class="cls-29" d="M3.27,82.14a4.19,4.19,0,0,1,2.66.21c1,.41,1.9,1.7,3.18,1.2a1.65,1.65,0,0,1,1.12,2c-.51,0-.63-.51-.87-.88a1.6,1.6,0,0,0-1.58-.83c-1.08.06-2.27.39-2.95-1.15C4.54,82.07,3.69,82.73,3.27,82.14Z"/><path id="_Tracciato_45" data-name="&lt;Tracciato&gt;" class="cls-30" d="M2.77,83.87l.5.29C4.33,85,5.35,86,6.74,86.09a.38.38,0,0,1,.38.44c0,.43-.24.69-.66.57-2.07-.86-4.3-1.32-6-3.2-.24-.79.16-.89.63-.67A7.44,7.44,0,0,1,2.77,83.87Z"/><path id="_Tracciato_46" data-name="&lt;Tracciato&gt;" class="cls-31" d="M25.79,103c-.83.45-1.65,1-2.36-.24-.19-.32-.48-.25-.78-.14A1.23,1.23,0,0,1,21,102c-.41-.64-1-.68-1.29.19-.38-.23-.86-.33-1-.93.67-.44,1.3-1,2.17-.81s.6,1.54,1.15,1.74,1.35-.8,1.8,0C24.41,103.19,25.25,102.43,25.79,103Z"/><path id="_Tracciato_47" data-name="&lt;Tracciato&gt;" class="cls-31" d="M27.79,105c-.54-.84-1.65-.92-2-2a1.65,1.65,0,0,1,1,.5c1.13,1,1.76,1,2.64-.24.19-.25.63-.42.38-.91a.65.65,0,0,0-.95-.31c-.15.06-.38-.12-.57-.19.3-.49,1.06-.11,1.24-.85.55.74,1.5,1.24,1,2.57A2.09,2.09,0,0,1,27.79,105Z"/><path id="_Tracciato_48" data-name="&lt;Tracciato&gt;" class="cls-3" d="M27.1,71.11c.69-.53,1.23-.22,2,0,1.15.37,2,1.45,3.25,1.49.47,0,.48.43.48.83a27.31,27.31,0,0,1-3.91-1.07A4,4,0,0,1,27.1,71.11Z"/><path id="_Tracciato_49" data-name="&lt;Tracciato&gt;" class="cls-32" d="M14,79.87c.57-.43,1.13-.09,1.56.23a7.06,7.06,0,0,0,1.72.76c.68.25,1.08.09,1.3-.77s.54-1.48,1.42-.84c0,1.44-.89,1.83-1.85,2C16.42,81.71,14.59,81.05,14,79.87Z"/><path id="_Tracciato_50" data-name="&lt;Tracciato&gt;" class="cls-33" d="M6.09,19.11a.67.67,0,0,1-.24,0,1,1,0,0,0-.11,1.57c.34.46.8,1,.3,1.59s-.91.08-1.3-.26c-.21-.17-.48-.14-.67-.33l-.52-.29A1.82,1.82,0,0,1,6.09,19.11Z"/><path id="_Tracciato_51" data-name="&lt;Tracciato&gt;" class="cls-13" d="M27.27,158.81a13.47,13.47,0,0,1,5.76.74c.37,1,.25,1.2-.77,1.23a5.76,5.76,0,0,0-3.72-.85C27.72,160,27.24,159.88,27.27,158.81Z"/><path id="_Tracciato_52" data-name="&lt;Tracciato&gt;" class="cls-27" d="M18.62,52.3c-.18.33-.47.47-.72.22-.55-.55-1.2-.42-1.84-.43A16.53,16.53,0,0,0,13.94,52c-.33.06-.65-.2-.37-.71,1.58-1.21,2.71-1.12,4.15.3C18,51.81,18.32,52.05,18.62,52.3Z"/><path id="_Tracciato_53" data-name="&lt;Tracciato&gt;" class="cls-34" d="M13,163.94c.5-.43,1,1.11,1.53-.05,1.45,1.15,1.45,2.42,0,3.81-.4,0-1.09-.15-.41-.69,1.19-.95.21-1.6-.24-1.81C13.24,164.92,13.23,164.38,13,163.94Z"/><path id="_Tracciato_54" data-name="&lt;Tracciato&gt;" class="cls-35" d="M2.77,83.87c-.59-.05-1.19.15-1.73-.36-.36-.33-.47,0-.54.39a2.83,2.83,0,0,1,0-2.64c.16,0,.36,0,.48,0,.64-.45,1.23-.85,1.46.47,0,.19.38.3.58.45-.52.3-1.29-.62-1.57.14-.38,1,.85.67,1.12,1.24A3.12,3.12,0,0,0,2.77,83.87Z"/><path id="_Tracciato_55" data-name="&lt;Tracciato&gt;" class="cls-13" d="M9.71,149.53c.52-.69,1.11-.53,1.82-.37a20.61,20.61,0,0,1,3.94,1.15C13.46,150.94,11.58,150.27,9.71,149.53Z"/><path id="_Tracciato_56" data-name="&lt;Tracciato&gt;" class="cls-7" d="M13.57,51.24c0,.44.23.52.58.38a1.65,1.65,0,0,1,1.91.47l.25.57c-.63.52-1.11-.58-1.88-.14A14.49,14.49,0,0,0,16,54c.36.33.95.49.83,1.25A4.27,4.27,0,0,1,14.53,54c-.39-.4-.77-1.08-1.47-.73C12.84,52.44,12.81,51.7,13.57,51.24Z"/><path id="_Tracciato_57" data-name="&lt;Tracciato&gt;" class="cls-36" d="M32.26,160.78c.61-.12,1-.41.77-1.23,2.09,1.11,2.35,2,1,3.59C33.65,162.16,33.46,161,32.26,160.78Z"/><path id="_Tracciato_58" data-name="&lt;Tracciato&gt;" class="cls-26" d="M6.46,87.1c.2-.14.46-.23.47-.59a4.56,4.56,0,0,1-3.66-2.35,20.66,20.66,0,0,0,3.29,1.39,1.28,1.28,0,0,1,.93,1.83C7.14,87.3,6.75,87.46,6.46,87.1Z"/><path id="_Tracciato_59" data-name="&lt;Tracciato&gt;" class="cls-3" d="M7.26,109.58c-.36-.76,0-.8.54-.82.93,0,1.52,1,2.46.84a1.49,1.49,0,0,1,1.33.61C10,111.45,8.7,109.83,7.26,109.58Z"/><path id="_Tracciato_60" data-name="&lt;Tracciato&gt;" class="cls-37" d="M27.84,44.6c.16,1.16-.12,2.61,1.48,2.79.27,0,.51.43.77.66.43.39,1.17.5,1,1.45-.41.33-.69-.07-1-.27a19.67,19.67,0,0,0-2.19-1.59c-.59-.29-.72-1-.83-1.66a12.81,12.81,0,0,1-.32-1.52,1.18,1.18,0,0,1,.07-.2A1.46,1.46,0,0,1,27.84,44.6Z"/><path id="_Tracciato_61" data-name="&lt;Tracciato&gt;" class="cls-36" d="M27.27,158.81c.26.7.61,1.08,1.35.84,1-.34,2,.4,3,.31.38,0,.45.5.62.82-1-.45-2.21.39-3.06-.8-.05-.07-.36.11-.55.19-1,.49-1.52.15-1.67-1.18Z"/><path id="_Tracciato_62" data-name="&lt;Tracciato&gt;" class="cls-1" d="M29.25,162.8a.78.78,0,0,0,1.23.08c.95-1.07,1.14-.47,1.2.63,0,.14,0,.27.06.41a6.29,6.29,0,0,1-3.73-.58C28.16,162.34,28.66,162.45,29.25,162.8Z"/><path id="_Tracciato_63" data-name="&lt;Tracciato&gt;" class="cls-35" d="M11.59,110.21a1.54,1.54,0,0,1-1.33-.61h0c1-.52,1.88-1.1,1.76-2.6h.25l.75.58C13.39,109,13,109.71,11.59,110.21Z"/><path id="_Tracciato_64" data-name="&lt;Tracciato&gt;" class="cls-38" d="M16.6,34.4c.38-.42.75-.12,1.15,0,1,.27,1.45,1.82,2.74,1.62.28,0,.37.66.33,1.11A15.33,15.33,0,0,1,16.6,34.4Z"/><path id="_Tracciato_65" data-name="&lt;Tracciato&gt;" class="cls-28" d="M8.73,165.92c0-.29-.11-.84.4-.58a23,23,0,0,1,2.45,1.5c.36.25.28.53-.16.6A4.47,4.47,0,0,1,8.73,165.92Z"/><path id="_Tracciato_66" data-name="&lt;Tracciato&gt;" class="cls-39" d="M19.86,11.88c0,.61-.78,1.06-.27,1.77-.74-.48-1.62-.67-2.23-1.43A2.89,2.89,0,0,1,19.86,11.88Z"/><path id="_Tracciato_67" data-name="&lt;Tracciato&gt;" class="cls-37" d="M29.25,162.8c-.47,0-1-.11-1.24.54a1.54,1.54,0,0,1-1.8-1.09.22.22,0,0,1,0-.32c.78,0,1.48,1.44,2.35.13C28.67,162,29.1,162.45,29.25,162.8Z"/><path id="_Tracciato_68" data-name="&lt;Tracciato&gt;" class="cls-40" d="M25.33,44.58c.47-.33.91-.77,1.5-.32l0,.06a7.32,7.32,0,0,0-.21,1.55c-.11.48-.19,1-.8.82A3.1,3.1,0,0,1,25.33,44.58Z"/><path id="_Tracciato_69" data-name="&lt;Tracciato&gt;" class="cls-8" d="M19.51,127.24c.36,1.06,1.59.51,2,1.44-1,0-2,.15-2.49-1.11Z"/><path id="_Tracciato_70" data-name="&lt;Tracciato&gt;" class="cls-41" d="M25.33,44.58c.24.65.69,1.23.5,2-.07.28-.36.35-.46.6l-.08-.05A2.64,2.64,0,0,1,25.33,44.58Z"/><path id="_Tracciato_71" data-name="&lt;Tracciato&gt;" class="cls-42" d="M26.25,161.93c0,.11,0,.21,0,.32a1.84,1.84,0,0,1-.48-2.08C25.78,160.81,27.05,161,26.25,161.93Z"/><path id="_Tracciato_72" data-name="&lt;Tracciato&gt;" class="cls-14" d="M6.84,9l.49,0c-.16-.42-.68-.36-.75-.84a4.7,4.7,0,0,1,1.12.42c.47.31.41.62-.14.75A.65.65,0,0,1,6.84,9Z"/><path id="_Tracciato_73" data-name="&lt;Tracciato&gt;" class="cls-43" d="M7.85,40.77a27.45,27.45,0,0,0-3-1.25c-.58-.29-.6-1.29-.48-2.07,0-.29.32-.47.45-.3.94,1.14,2.29.6,3.37,1.14a1.56,1.56,0,0,1,.93,1.19C9.37,40.6,9,40.88,7.85,40.77Z"/><path id="_Tracciato_74" data-name="&lt;Tracciato&gt;" class="cls-43" d="M4.07,21.72l.84.21c.36.09.77.72,1.07.07s-.27-.85-.56-1.15c-1-1-.44-1.38.43-1.7,0,.4-.13.83.22,1.13a2.77,2.77,0,0,0,1.67,1.78,2.73,2.73,0,0,1,2,3.09c-.05.48.14,1-.41,1.12a1,1,0,0,1-1.17-.79c-.27-1.47-.91-2-2.26-2C5,23.57,4.84,22.13,4.07,21.72Z"/><path id="_Tracciato_75" data-name="&lt;Tracciato&gt;" class="cls-2" d="M28.07,68.86a1.39,1.39,0,0,0,1.22.58c1.56,0,2.82,1.08,4.24,1.61a1.92,1.92,0,0,1,.87,1.18.63.63,0,0,1-.08.77.53.53,0,0,1-.69,0c-1.26-.72-2.5-1.48-3.8-2.1-.67-.31-1.18-1.32-2.11-.71-.18.11-.36-.17-.38-.45,0-.59.23-.88.73-.93Z"/><path id="_Tracciato_76" data-name="&lt;Tracciato&gt;" class="cls-44" d="M25.37,47.2c-.05-.41.14-.57.46-.6.69-.12.46-.76.5-1.23s-.12-1,.52-1c.09.16.26.31.27.47.15,2.9,2.47,3.34,4,4.71a.94.94,0,0,1,.07,1.27c-.27.36-.61-.05-.92-.11A5.86,5.86,0,0,1,27,48.06C26.55,47.49,26.09,47,25.37,47.2Z"/><path id="_Tracciato_77" data-name="&lt;Tracciato&gt;" class="cls-45" d="M22.1,18c-1.71,0-1.71,0-2.26-2.31.08.05.2.08.21.14.41,2,1.89,1.73,3.11,2,.18.05.34.05.38-.17.12-.65-.56-.44-.69-.83.51-.14,1.08-.44,1.36.35a2.33,2.33,0,0,1-.34,2c-.35.59-.67-.2-1-.3A2.19,2.19,0,0,0,22.1,18Z"/><path id="_Tracciato_78" data-name="&lt;Tracciato&gt;" class="cls-45" d="M20.1,14.51c.25,0,.46-.92.69-.19s.88.74,1.06,1.35C21,15.76,20.65,15,20.1,14.51Z"/><path id="_Tracciato_79" data-name="&lt;Tracciato&gt;" class="cls-45" d="M22.1,16a1.7,1.7,0,0,1,.75.87Q22.13,16.79,22.1,16Z"/><path id="_Tracciato_80" data-name="&lt;Tracciato&gt;" class="cls-46" d="M16.18,78.1c.87-.18,1.34.69,1.95,1.21a.84.84,0,0,1,0,1c-.29.45-.6.24-.82-.08-.36-.51-.91-.4-1.36-.62s-1-.23-.85-1S15.7,78.1,16.18,78.1Z"/><path id="_Tracciato_81" data-name="&lt;Tracciato&gt;" class="cls-37" d="M12,107c.67,1.28-.19,2.56-1.76,2.6-1-.76-1.84-1.88-3.23-1.55-.26.06-.51-.22-.29-.55.44-.64,1-1.48,1.75-1C9.65,107.26,10.84,106.86,12,107Z"/><path id="_Tracciato_82" data-name="&lt;Tracciato&gt;" class="cls-22" d="M22.1,18q.72,0,.75.87A1.7,1.7,0,0,1,22.1,18Z"/><path id="_Tracciato_83" data-name="&lt;Tracciato&gt;" class="cls-47" d="M16.81,55.27c-.78-.74-1.57-1.49-2.37-2.21-.23-.2-.78-.2-.52-.71A.94.94,0,0,1,15,51.93c.48.12.77.73,1.3.73.37.24.66.59,1,.87s.61.1.92.12A1.12,1.12,0,0,1,19.18,55a1.52,1.52,0,0,1-1.59.94c-.26,0-.52-.27-.77-.42A2.62,2.62,0,0,0,16.81,55.27Z"/><path id="_Tracciato_84" data-name="&lt;Tracciato&gt;" class="cls-7" d="M17.32,53.53c-.51,0-.79-.4-1-.87C17,52.49,17.22,52.88,17.32,53.53Z"/></g></g></g></g></svg>