<svg xmlns="http://www.w3.org/2000/svg" viewBox="0 0 42.32 385.73"><defs><style>.cls-1{fill:#ffecd3;}.cls-2{fill:#fff0dd;}.cls-3{fill:#fee7c8;}.cls-4{fill:#fee6c4;}.cls-5{fill:#fee5c1;}.cls-6{fill:#fee3ba;}.cls-7{fill:#fff0dc;}.cls-8{fill:#fff7ed;}.cls-9{fill:#fee8cb;}.cls-10{fill:#fff0de;}.cls-11{fill:#fee1ba;}.cls-12{fill:#fee8ca;}.cls-13{fill:#fee3be;}.cls-14{fill:#fffdf9;}.cls-15{fill:#fee5c2;}.cls-16{fill:#ffefd9;}.cls-17{fill:#fff2e2;}.cls-18{fill:#feead0;}.cls-19{fill:#fee4bd;}.cls-20{fill:#fff4e4;}.cls-21{fill:#ffe8c6;}.cls-22{fill:#fee9ce;}.cls-23{fill:#ffebd1;}.cls-24{fill:#fff3e1;}.cls-25{fill:#fff1e0;}.cls-26{fill:#ffecd6;}.cls-27{fill:#ffeed8;}.cls-28{fill:#ffe9ca;}.cls-29{fill:#ffecd4;}.cls-30{fill:#ffecd5;}.cls-31{fill:#ffebd2;}.cls-32{fill:#fff5e6;}.cls-33{fill:#fee6c3;}.cls-34{fill:#fee6c6;}.cls-35{fill:#ffefdb;}</style></defs><title>Risorsa 2</title><g id="Livello_2" data-name="Livello 2"><g id="Colori"><g id="_Gruppo_clip_" data-name="&lt;Gruppo clip&gt;"><g id="_Gruppo_" data-name="&lt;Gruppo&gt;"><path id="_Tracciato_" data-name="&lt;Tracciato&gt;" class="cls-1" d="M39.51,304.34v.6c-.24,1.45-.64,1.67-1.18.52a5.44,5.44,0,0,1-.32-3.3c.62-2.84.09-5.58,0-8.36a3.73,3.73,0,0,0-1.12-2.89c-.56-.45-1.15-1.22-1.74-.48s-.31,2.11-.27,3.24a43.51,43.51,0,0,1,.27,6.37,4.88,4.88,0,0,0-.19,3.88,4.84,4.84,0,0,1-.3,4c-.53.28-.81.92-1.05,1.91a6.9,6.9,0,0,1-3,4.39c-2.74,2.12-4.32-.12-5.88-3.68a6.48,6.48,0,0,1-1-2.2c-.57-9.63-1.3-19.21-1.73-28.87-.4-9-.37-18-1.05-27-.12-1.56-.1-3.13-.1-4.7q0-19.57,0-39.16c0-5.89.42-11.74.34-17.64-.06-4.3-.32-8.57-.41-12.86a8.16,8.16,0,0,1,.54-3.82c1.18-1.09.86.84.91,1.77.23,4.28-.08,8.64.52,12.87a2.76,2.76,0,0,0,.19.8c1.55-1.06,2-2.1,1.54-4.76a27.8,27.8,0,0,1,.17-11.35,14.73,14.73,0,0,0,.14-4.93,19.38,19.38,0,0,1,.07-5.54,18.47,18.47,0,0,0-.26-7.46,10.54,10.54,0,0,1-.17-5.09,4.56,4.56,0,0,0,.11-1.73,18.72,18.72,0,0,1,.63-8.21,9.13,9.13,0,0,0-.33-4.78,8.63,8.63,0,0,1,.28-5.5,6.84,6.84,0,0,0,.37-4.38c-.09-.34-.09.07,0-.27.85-5.84-.31-12.19,1.23-17.85a6.36,6.36,0,0,0,.41-2.49c-.71-4.49.21-9.11-.33-13.59A17.92,17.92,0,0,1,27,87.15c.18-1.37.35-2.94-.27-3.89-1.83-2.77-1.54-6.62-1.22-10.05s.26-6.75.77-10.09c.36-2.31-.58-4.82-.92-7.25a16.23,16.23,0,0,1,.06-6.76c.58-2.29-.31-4.73-.8-6.87-.27-1.2-1,1-1.59.48-.81-3.18-.91-6.69-1.3-10.08-.64-5.75-.88-11.66-1.87-17.28a9.61,9.61,0,0,1,.64-5.21A21.36,21.36,0,0,0,21.85.55c.39-.19.8-.64,1.17-.53,3.28.91,6.61,1.69,8.39,8.21a10.47,10.47,0,0,1,.87,3.69c.11,4.91.69,9.68,1.17,14.46.5,5,.93,10,1.15,15a17.48,17.48,0,0,0,.16,3.32,12.61,12.61,0,0,1,.11,1.39c.37,7.41.23,14.9.78,22.29.06.76,0,1.67.49,2,.26.15.49-.17.68-.52a3.53,3.53,0,0,0,.37-2.39,7.54,7.54,0,0,0-.87-2,9.05,9.05,0,0,1-.47-7.19,3.38,3.38,0,0,0,.29-1.33c-.47-4,.71-7.91.31-12a14.92,14.92,0,0,1,.42-5.45c.23-.29.46-.32.69,0,.08,3.74-.18,7.51.31,11.21-.25,1.82,0,3.76-.19,5.48a28.21,28.21,0,0,0,1,11.3,7.37,7.37,0,0,1,0,2.89C38,75.1,38.07,80,37.6,84.83c-.36,3.6-1,4.37-2.89,4-1-.23-1.93,1.34-3.06,1.3-1.37,0-1.13,2.72-1.59,4.33-1.54,5.25-1,10.87-1,16.39.19,9.35.8,18.65.71,28,0,1.85,0,3.69-.1,5.54-.08,2.28,0,4.57-.06,6.86,0,.52,0,1-.08,1.55-.47,7.41-.34,14.9-.67,22.32-.56,12.58.27,25.13.08,37.7-.11,7.23.79,14.52.56,21.72-.21,6.15.42,12.06.53,18.09a149.06,149.06,0,0,0,.35,17.82c.14,2.32.31,4.67.57,7,.09.86.17,1.89.68,2.15s.72-.86.95-1.57c.33-1,.66-2,1-3,.65-1.76,2.59-3.21,3.65-2.74a2.23,2.23,0,0,1,.9,1.84c.35,2.83,1,5.55.73,8.61-.21,2.08.32,4,.49,6a60.17,60.17,0,0,1,0,13.94A2.78,2.78,0,0,0,39.51,304.34Z"/><path id="_Tracciato_2" data-name="&lt;Tracciato&gt;" class="cls-2" d="M21.71,174c-.72,2.08-.12,4.21-.14,6.33-.07,7.47.24,14.92,0,22.42-.32,9.87-.16,19.8-.2,29.7,0,5.3-.2,10.63,0,15.9.43,9.71.59,19.45,1.07,29.17.32,6.59.47,13.23,1,19.77.34,3.92.42,7.85.59,11.79a1.69,1.69,0,0,1-.37,1,1.93,1.93,0,0,1-.39.37A5.35,5.35,0,0,0,22,312.23c-.4.68-.84,1.15-1.25,0a11.18,11.18,0,0,1-.1-3.32c2.47-4.86,1.27-10.7,1-16.12-.4-9.37-.77-18.77-1.94-27.95-.17-1.34,0-2.75-.19-4.1,0-.31-.09-.63-.11-1-.17-2.1.08-4.27-.29-6.34-.67-5.87-.42-11.87-.69-17.8-.22-4.67-.32-9.35-.75-14,0-.71.06-1.43,0-2.13s-.24-1.25-.3-1.91c-.07-.93.13-1.86,0-2.79-.06-.43-.09-.86-.11-1.3-.44-6.62-1.28-13.08-2.12-19.53-.15-1.14-.31-2.28-.35-3.46-.07-2.65-.41-5.22-.62-7.83-.61-7.46-.53-15-1-22.51a54,54,0,0,1,0-9.08,2.39,2.39,0,0,0,0-.59c-.7-4.67-.41-9.42-.35-14.18s-.26-9.75.61-14.5a10.16,10.16,0,0,0,0-4.81,14.9,14.9,0,0,1,.23-7.09,9.77,9.77,0,0,0,.08-4.31A28.91,28.91,0,0,1,14,94.68a4.67,4.67,0,0,0-.22-3,8.68,8.68,0,0,1-.17-6.3,18,18,0,0,0,.8-7.27A41.09,41.09,0,0,1,15,67.69a9.65,9.65,0,0,0-.2-4.25,18.87,18.87,0,0,1,0-8.81,6.9,6.9,0,0,0,.38-1.9c-.31-6.15,1-11.95,1-18,0-2.32-.54-2.93-1.6-2.7a1,1,0,0,1-.34-.62,60.43,60.43,0,0,1,1-8.7A103.21,103.21,0,0,1,17.93,9.06c.63-2.14,1.77-3.22,2.58-5,.36-.78,1.16-1.26.39-2.69-.13-.24.17-.61.33-.84h.62c1.45,3.31.22,6.36-.61,8.79a15.26,15.26,0,0,0-.65,8c.87,6,1.26,12.18,1.84,18.29a58.26,58.26,0,0,1,.62,6.79c.79,1.79.45,3.94.49,5.93.18,7.9.74,15.76.57,23.68-.08,3.46.14,7-.81,10.29a4.57,4.57,0,0,0-.42,2.15c.64,9.61-.3,19.1-.66,28.63-.06,1.32.31,2.48.26,3.76s0,2.73-.05,4.09c-.09,1.72-.46,2.75-1.9,1.69,2.5,4.73,1.71,9.44.95,14.14-.28,1.71-.33,3.24.57,4.41a4.54,4.54,0,0,1,.62,2,17.87,17.87,0,0,1,0,4.07,51.12,51.12,0,0,0-.13,8.75,28.18,28.18,0,0,1-.09,4.95,38.37,38.37,0,0,0-.07,7.27C22.54,170.24,22.61,172.34,21.71,174Z"/><path id="_Tracciato_3" data-name="&lt;Tracciato&gt;" class="cls-3" d="M18,220.57a116,116,0,0,1,.91,13.88c.23,6.38.41,12.77.61,19.16.41,2.11-.12,4.38.3,6.49.19,5.71.11,11.45.45,17.16.52,8.95.25,18,.87,26.94.11,1.68-.39,3.22-.12,4.86v3.53a79,79,0,0,1,1.22,19.33c-.76,1.7-1.81,2.88-2.36,5-.31,1.19-.91,1.26-1.59,1.09-1.58-.39-2.09.43-2.13,3.41a30.53,30.53,0,0,0,.11,6.12,5.06,5.06,0,0,1-.16,2.54,7.31,7.31,0,0,0,.41,5.63,12.48,12.48,0,0,1,1.13,5,11.26,11.26,0,0,0,1.15,5,20.91,20.91,0,0,1,2,6.47c.07.26.12.53.17.81.13.92.39,1.76.46,2.71,0,.62.12,1.42-.46,1.28a32.05,32.05,0,0,1-3.34-9.64c-.87-4.85-3-8.42-3.76-13.37,0-1.89.47-3.57.57-5.45.26-5.15-1-9.33-2.17-13.56a10.86,10.86,0,0,1-.41-4.16c.14-1.34.28-2.7.35-4.06a15.61,15.61,0,0,0-.71-6.45,10,10,0,0,1-.2-6.65,10.75,10.75,0,0,0,.3-4.28c-.47-4.59-.69-9.27-1.33-13.79a14.58,14.58,0,0,1,.09-4.32c.39-2.68-.05-5.41-.23-8.1a11.28,11.28,0,0,1-.23-2.57c.64-3.95-.21-7.76-.24-11.63a6.72,6.72,0,0,1,0-.87,36,36,0,0,0-.43-12.56,60.06,60.06,0,0,1-.83-8.79,25,25,0,0,1-.47-6.91,37.28,37.28,0,0,0-.93-10,17.15,17.15,0,0,1-.21-6.58,8.82,8.82,0,0,0,0-3.16c-.9-5.4-1.71-10.81-1.15-16.61a26.43,26.43,0,0,0-.49-7.24C4.23,191.37,4,186.33,3,181.59c-.7-3.46-.27-7.41-.32-11.12-.05-3.08-.49-5.93-.71-8.9V160.4a6,6,0,0,0,0-3A24.27,24.27,0,0,1,2.58,151c.13-.19.27-.21.41,0a5.82,5.82,0,0,1,.53,1.89c.12,1.57.71,2.91.59,4.59a6.67,6.67,0,0,1-.14.82,9.62,9.62,0,0,0-.39,6.23,15.71,15.71,0,0,1,.41,7,48.73,48.73,0,0,1,0,6.51c-.11,2.49.75,5,1.25,7.41a21.32,21.32,0,0,1,.6,4.51,22.4,22.4,0,0,0,1.22,8.33,10.38,10.38,0,0,1,.49,3.06A6.59,6.59,0,0,0,8,203.71c1.11,1.88,1.27,3.37-.23,4.88-.64.63-.18,1.72.11,2.51a5.39,5.39,0,0,1,.54,3.44c-.07.33-.2.88.1,1,1.84.46.77,2.35.51,3.79a39.83,39.83,0,0,0-.32,6.51c.24.29.39.23.52.05.45-.61.44-2.58,1.32-1.81.7.6.74,2,.79,3.31.08,2.31.06,2.32.78,3.13.32-1.47-.21-2.65-.35-3.94-.27-2.36-.18-2.59,1-2.41.24,0,0-.27,0-.38a3.37,3.37,0,0,1,.24-1.36C13.71,220.83,17,219.61,18,220.57Z"/><path id="_Tracciato_4" data-name="&lt;Tracciato&gt;" class="cls-4" d="M29.68,253c-.41-4-.59-8.09-.91-12.12-.17-2.26.47-4.73.34-7.29-.31-6.45-.39-13-.71-19.4-.09-1.7.13-3.26.1-4.91-.14-8.58-.28-17.16-.28-25.74,0-6.09.34-12.18.45-18.26.07-4.22.13-8.4.47-12.57,2.62,1.87,2.64,1.65,3.53-3.82a35.93,35.93,0,0,0,.55-8.32c-.14-2.21,1.27-4.16,2.42-3.77.62.21.87.92.87,2,0,1.91-.33,3.89,1.1,5,.6.44.69,2.68.42,4.08-1,5.12.19,10.06.22,15.08,0,3.31.26,6.71-1,9.54a3.09,3.09,0,0,0,0,2.56c1.56,4.57,1.42,7.26-.4,11.34-.42.93-1.3,2.11.28,2.61,1.42.45,1.41,2.86,1.25,4.93-.18,2.32-.28,4.76-.65,6.93-.54,3.13,0,5.85.5,8.51a23.45,23.45,0,0,1,.26,7.47,16.16,16.16,0,0,0,.25,6.27,16.32,16.32,0,0,1,.28,6.58c-.71,4.27.1,8.24.93,12.15,1.11,3.28.59,7.06.84,10.6.21,2.82.51,5.76-.3,8.61a4.29,4.29,0,0,0,.62,3.11c.57,3.12.29,6.33.2,9.5-.1,3.73-.37,7.45-.57,11.18-.43.61-.68.07-.85-.56a17.42,17.42,0,0,1-.76-4.74,20.77,20.77,0,0,0-.67-6.54,8.18,8.18,0,0,1,.05-4,13.83,13.83,0,0,0-.09-6.27,15.15,15.15,0,0,1,.06-6.6c.38-2,.33-3.53-.65-4.89a4.94,4.94,0,0,1-.54-5,2.24,2.24,0,0,0,.1-1.65c-1-2.62-.75-5.6-.72-8.53a16.34,16.34,0,0,0-.36-3.53,25.75,25.75,0,0,1-1.72,11.17c.45.65.85-.15,1.24.21a2.41,2.41,0,0,1,.76,1.71c.08.93-.2,1.68-.63,1.74-1,.14-1.28,1.6-1.67,3a22.32,22.32,0,0,1-2,5.23c-.59,1-1.3,1.31-2,.59A3.64,3.64,0,0,1,29.68,253Z"/><path id="_Tracciato_5" data-name="&lt;Tracciato&gt;" class="cls-5" d="M39.58,242.41c-.66-2.41-.83-5.14-1.29-7.68a14,14,0,0,1,.21-4.86,13.24,13.24,0,0,0-.44-7.66c-.7-2.16,0-4,.12-5.94a31.64,31.64,0,0,0-.35-6.76c-.31-2.43-1.27-4.66-.57-7.95a45.39,45.39,0,0,0,.8-9.37c0-1.69-.21-3.08-1.47-2.25-.79.52-1.16-.37-.78-1.94a8.48,8.48,0,0,1,.85-2.38,11.75,11.75,0,0,0,.08-10.47,1.9,1.9,0,0,1,0-2.53c1.47-2.39,1.23-6,1.18-9-.1-5.39-1.27-10.66-.24-16.21.23-1.25.39-3.91-1.25-3.58-.35.07-.84-.4-.5-1.25.52-1.28-.21-2.64.23-4a.85.85,0,0,0-.6-1.21c-1.2-.23-2.21,1.76-2,4s.42,4.67-.47,6.69c-.48,1.1,0,2.27-.15,3.35-.68,4-2.22,4.51-3.85,1.29v-1.17c.39-2.36.75-4.72,0-7.08,0-6.25.12-12.5,0-18.73-.11-5.17-.73-10.28-.57-15.49.69-2.74,1.5-5.14,3.36-5.17.47,0,.8-.84,1.14-1.41.71-1.15,1.33-2.22,2.45-1.36.87.68,1.37-.64,1.21-2.3a5.89,5.89,0,0,1,.67-3.9A2.7,2.7,0,0,0,37.68,94c-1.32-4.08-.14-8.09,0-12.13A34.6,34.6,0,0,0,38,76.17c-.15-1.3.12-2.73,1.09-1.28v3a6.42,6.42,0,0,0,.32,3.51c.54,1.27.2,2.76.27,4.15a4.85,4.85,0,0,0-.6,4.66,14.44,14.44,0,0,1,.52,3.66,30.64,30.64,0,0,0,.8,7.67,4.55,4.55,0,0,1,.1,2c-1.2,5.77.25,11.48.09,17.23,0,1.62.1,3.33.21,5a4.83,4.83,0,0,1-.32,2.5,7,7,0,0,0-.34,6,7.94,7.94,0,0,1,.16,3.43,30,30,0,0,0,.13,8.72,6.93,6.93,0,0,1-.52,4.34,4.42,4.42,0,0,0-.54,2.9,26.6,26.6,0,0,1,.07,7.56,23.57,23.57,0,0,0,.35,7.23,3.35,3.35,0,0,1,.13,1.42c-1,3.6.14,7.35-.2,10.9a80.16,80.16,0,0,0-.08,14.2c.23,3-.13,6.27-.12,9.36,0,3.94.05,7.94.05,11.86,0,5.78,1.53,11.26.68,17.14a22.36,22.36,0,0,0,.19,4.67A6.87,6.87,0,0,1,39.58,242.41Z"/><path id="_Tracciato_6" data-name="&lt;Tracciato&gt;" class="cls-6" d="M39.58,242.41a17.23,17.23,0,0,0,.34-5.91,21.43,21.43,0,0,1,.22-6.58c.42-2.31-.47-4.3-.7-6.44-.35-3.33.45-6.94-.71-10,1.31-3.48,0-7.29.37-11a47.39,47.39,0,0,0-.27-12.68A14.1,14.1,0,0,1,39,184.4a20.69,20.69,0,0,0,0-8.55,3.71,3.71,0,0,1-.2-2.2,12.32,12.32,0,0,0,.16-7.36c-.47-2.16,0-4.28.1-6.33a19.27,19.27,0,0,0-.28-6.53,3.57,3.57,0,0,1,.67-3,5.24,5.24,0,0,0,.46-4.39,22,22,0,0,1-.17-7.8,9.9,9.9,0,0,0-.48-5.36,3.43,3.43,0,0,1,0-3.14c1.69-2.24,1.16-5.45.9-8.19-.29-3-.1-6-.31-9.06a13.77,13.77,0,0,0-.49-4,4,4,0,0,1,.21-3c.33-1,.89-1.88.5-3.15-1-3.29-.83-7-1-10.5,0-.1,0-.25,0-.29-1.73-2.62-.35-4.89.22-7.24.14.38.27.77.41,1.16.75,5.8.89,11.77,1.24,17.68.34,5.72,1,11.36,1.08,17.14,0,1.07.13,2.14.15,3.21.11,8.37.38,16.77-.07,25.09-.54,9.66-.09,19.34-.71,29a114.67,114.67,0,0,0,.07,19.78,29.09,29.09,0,0,1,0,3.24c-.09,12,.4,23.92.41,35.86,0,7.39.18,14.83-.16,22.24-.09,1.86-.76,3.47-.58,5.43-1.25-.24-1.48-2.27-1.11-3.63a21.38,21.38,0,0,0,.41-6.19c0-3-.49-5.94-.25-8.94C40.27,244.31,40.29,243,39.58,242.41Z"/><path id="_Tracciato_7" data-name="&lt;Tracciato&gt;" class="cls-7" d="M29,384.58a2.17,2.17,0,0,1-1.86,1.15c-.24-1.09-.69-1.3-1.24-1.15-.52-.16-1.11.37-1.55-.59.1-.36.51-.67.17-1.13-1.9-2.52-2.68-6.58-3.86-10.1h0a16.7,16.7,0,0,0-2-7.33c-1.11-2.17-1.19-4.82-1.16-7.84a16.92,16.92,0,0,1,3.57-10.52c1.45-2.13,1.87-4,1.39-7.44-.3-2.25-.79-4.47-.38-6.87.7-.7,1,.44,1.38,1.14.3.54.48,1.27.79,1.8,1.41,2.42,2.35,2.11,3.23-.86a53.45,53.45,0,0,0,1.33-6.55c.3-1.93.95-2.55,1.85-1.31s2.53,1.9,1.92,5.37a1.42,1.42,0,0,0,.69,1.63c.5.25.91,0,1.19-.86s.36-1.63.62-2.36c.19-.57.31-1.63.88-.82a15.17,15.17,0,0,1,0,5.58c-.8,5.25-1,10.93-3.23,15.1-1,3-2.11,5.78-3.1,8.76-.25.75-.5,1.7-1,1.6-.67-.13-.59-1.37-.68-2.3.06-1.15.69-1.32,1-2.08a3.6,3.6,0,0,0,0-2.68c-.37-.95-.78-.49-1.2-.05-1.57,1.61-1.6,2.24-.17,4.57.28,1.42.31,3,.62,4.36.06.38.14.75.17,1.13.1,1.26.33,2.82-.55,3.21s-1.34-1-1.56-2.53c-.66-4.71-1.69-5.84-4-4.44-1.61,1-2.17,4.34-1.06,6.76a26.79,26.79,0,0,1,2,8.13c.38,3.22,2.68,7.38,4.29,7.7a1.58,1.58,0,0,1,.44.2C28.24,383.45,29,383.06,29,384.58Z"/><path id="_Tracciato_8" data-name="&lt;Tracciato&gt;" class="cls-8" d="M21.23.56a5.2,5.2,0,0,1-1.14,5.27c-1.71,1.93-2.36,5.21-3,8.27C16,19.68,15.3,25.5,14.41,31.22c-.17.3-.06.85-.18,1.07-2.13,3.66-1.51,10-3.71,13.6,0,4.88-2,9-1.47,14.14a7.07,7.07,0,0,1-.27,2.54C8,64.47,7.67,67,6.5,68.39c-.37.43-.21,1.22-.22,1.89,0,2-.26,3.88-.38,5.83-.07,1.23-.35,2-1.08,1.88s-1.27-.57-1.18-2.11-.29-3.11,0-4.37c1.14-4.52.11-8.58-.54-12.75a5.13,5.13,0,0,1,.26-3c1.32-2.59,1.44-6.2,2.18-9.29.35-1.48-.56-2.77-.8-4.23-.69-2.57.32-4.3.93-6.08a40.43,40.43,0,0,0,1.64-5.91A15.35,15.35,0,0,1,10,24.63a6.54,6.54,0,0,0,1.12-3.24,55.31,55.31,0,0,0,1.31-5.87,17.11,17.11,0,0,1,3.11-7,10.06,10.06,0,0,0,2.34-5.62C18.71.8,20,.54,21.23.56Z"/><path id="_Tracciato_9" data-name="&lt;Tracciato&gt;" class="cls-9" d="M29.68,253c.17,1.35.31,2.73,1.24,2.93s1.37-.83,1.73-2c.59-1.92,1.53-3.47,1.69-5.86.08-1.2.48-1.73,1.11-1.31.39.26.72.27.9-.53A1.78,1.78,0,0,0,36.1,245c-.27-.54-.55-.82-.94-.28s-.57,1.6-1,.81a3.38,3.38,0,0,1,.13-2.69,20.26,20.26,0,0,0,1.58-9.89c0-.86-.23-2.34.48-2.37s.33,1.41.47,2.19a31.19,31.19,0,0,1,.22,5.81c0,2-.21,4.15.81,5.66a2,2,0,0,1-.06,2.41,2.93,2.93,0,0,0,.26,4c1.3,1.46,1.39,3.15.84,5.64a13,13,0,0,0,.1,6.87,11.41,11.41,0,0,1,0,5.94,6.75,6.75,0,0,0,.22,4.84c.69,1.5.31,3.4.34,5.11a12,12,0,0,0,1.23,5.84l-.6,8.25a9.53,9.53,0,0,1,0,3.57c.17,2.67-.5,5.08-.65,7.64-.79-.27-.55-1.27-.47-2.26a71.4,71.4,0,0,0-.14-13c-.26-2.55-.79-5.14-.42-8.14.27-2.19-.51-4.87-.85-7.32a3,3,0,0,0-.38-.87c-.81,2.09-2.58-.74-3.23,2.29-.32,1.52-1.08,2.59-1.29,4.26-.12.88-.34,1.84-.9,1.6A1.86,1.86,0,0,1,30.6,279c-.35-4.82-1-9.64-1-14.48,0-2.94-.48-5.8-.25-8.74C29.44,254.85,29.21,253.8,29.68,253Z"/><path id="_Tracciato_10" data-name="&lt;Tracciato&gt;" class="cls-10" d="M11.33,21.19a5.94,5.94,0,0,1-1.06,4,13.83,13.83,0,0,0-2.8,6.66C7.13,34.4,6,36.63,5.21,39a3.28,3.28,0,0,0-.08,2.85c1.36,5.13-.53,8.92-1.54,13a8.18,8.18,0,0,0-.2,4.42,4.11,4.11,0,0,1-.05,2.53c-1.24,3-.75,6.56-1.08,9.85a2.52,2.52,0,0,0,0,.87c1.19,3.81.21,8.08.7,12A75.38,75.38,0,0,1,3.83,94c0,1.12.46,1.5,1,1.21s1.5.11,1.48-1.82A12,12,0,0,1,7,89a5.5,5.5,0,0,0,.16-5.32,5.62,5.62,0,0,1,0-5.2A4.37,4.37,0,0,0,7.29,75a6.66,6.66,0,0,1,.25-4.88,5.43,5.43,0,0,1,.31-.64,7.21,7.21,0,0,1,.44-.78c.35-.48.69-1.4,1.16-.75a2.92,2.92,0,0,1,.1,2.34,7.07,7.07,0,0,0-.83,5,8.5,8.5,0,0,1-.06,2.89,6.84,6.84,0,0,0-.08,3.12c.44,1.64.57-2,1-.22.32,5.31.78,10.61.31,16-.82.86-1,3.64-2.52,2.74a16.8,16.8,0,0,1,1.49,8.33,11,11,0,0,1-.23,2.29,20.39,20.39,0,0,0-1.1,7.45c.05,1.41-.48,2.44-1.27,2.4-1-.06-1.94-.87-2.22-3-.41-3-.65-6.11-1.2-9.08a10.85,10.85,0,0,0-.71-2.52A12.53,12.53,0,0,1,2,99.7a7,7,0,0,0-.05-3.4,15.71,15.71,0,0,1-.4-6.51,7.09,7.09,0,0,0-.14-2.86,13.8,13.8,0,0,1-.24-5.14A12.64,12.64,0,0,0,.48,76,159.19,159.19,0,0,1,2.69,49.4C3.53,44.73,4,39.79,5.14,35.34a8.87,8.87,0,0,0,1.55-5.9l1.23-3c1.2-2,2.68-3.67,2.88-7.17,0-.39.21-.65.46-.56A2.76,2.76,0,0,1,11.33,21.19Z"/><path id="_Tracciato_11" data-name="&lt;Tracciato&gt;" class="cls-11" d="M13.25,352.7a101.06,101.06,0,0,1-3.38-19.91q-1.06-12.24-2-24.53c-.13-1.63-.15-3.31-.13-5,0-4.71-.21-9.35-.57-14-.24-3,.24-5.9.06-9-.26-4.4-.44-8.89-.36-13.41.1-6.49-.2-13-.33-19.51,0-.69,0-1.38,0-2.06.18-.84.37-1.82,1-1a5.75,5.75,0,0,1,1.1,3.92c-.37,4.26-.56,8.45.8,12.31a8.22,8.22,0,0,1,.31,2.55,34.15,34.15,0,0,0,.15,10.68,10.8,10.8,0,0,1-.27,4.86,12.32,12.32,0,0,0-.1,6.24c1,4.41.59,9,.44,13.54a5.67,5.67,0,0,0-.11,1.44c.94,3.47,0,7.33.64,10.9a32.28,32.28,0,0,1,.34,5.54,6.18,6.18,0,0,0,.31,2.53c1.39,2.91,1.28,6.42.86,9.75a23.7,23.7,0,0,0,1.19,10.53,26.42,26.42,0,0,1,1,12.37C14,352.41,13.92,353.38,13.25,352.7Z"/><path id="_Tracciato_12" data-name="&lt;Tracciato&gt;" class="cls-12" d="M39.07,74.89c-.61-.57-.9-.09-.87,1.09a67.46,67.46,0,0,1-.81,11.59,11.09,11.09,0,0,0,.41,5c.77,2,.66,3.32-.37,4.52a2.29,2.29,0,0,0-.34,2.44c.75,1.71-.05,2.39-.49,3.35-.52,1.11-1,1.1-1.56,0s-.77-.15-1.12.4c-.86,1.36-1.49,3.39-3,2.78-.54-.23-1,1.13-1.38,2.12a5,5,0,0,1-1,2.09c0-2.45,0-4.9,0-7.35,0-2.67-.08-5.29.93-7.51a6.06,6.06,0,0,0,.3-1.93c.24-3.91.61-4.54,2.75-4.36.3,0,.63.38.83-.27.61-2,1.17-2,2-.31.48.92.94-.14,1.26-1.18.93-3,.92-6.44,1-9.6.08-2.47.41-4.72.66-7.05s.17-4.48-.75-5.95a6.89,6.89,0,0,1-.51-5.25,11.14,11.14,0,0,0,.1-4.41,6.11,6.11,0,0,1,.69-4.4A151.78,151.78,0,0,1,39.07,74.89Z"/><path id="_Tracciato_13" data-name="&lt;Tracciato&gt;" class="cls-13" d="M9.29,263a9.6,9.6,0,0,0-.23-2c-1.51-4.08-1.26-8.52-.77-13,.18-1.65-.5-2.21-.91-3.14s-.57.16-.84.4q-.39-11.85-1.35-23.57c-.47-5.78-.73-11.62-1.11-17.43S3.28,192.75,2.77,187c-.58-6.62-.94-13.34-.86-20.1,0-1.76,0-3.53,0-5.3,1.61,5.14,1.14,10.86,1.21,16.4a32.76,32.76,0,0,0,1.61,9.69c.07.24.24.57.2.74-.8,4.18,1,7.49,1,11.41,0,2.75.36,5.53-.18,8.21A8.06,8.06,0,0,0,6,212a18.17,18.17,0,0,1,.59,3.6c.29,3.42,1.2,6.64.31,10.31-.54,2.19.65,4,1,6,.63,4.23.2,8.5.54,12.7.06.66.2,1.3.3,2,.5,1.48-.42,3-.11,4.2.69,2.73.31,5.93,1.21,8.58C10.19,260.52,10.48,262.29,9.29,263Z"/><path id="_Tracciato_14" data-name="&lt;Tracciato&gt;" class="cls-14" d="M32.39,350.36c2-4.15,2.38-9.59,3.1-14.74.66-1.29,1-.19.91.75-.3,3.32.47,6.82-.55,10a6.84,6.84,0,0,0,.09,4.45c1.12,2.81.48,5-.43,7.36a15.11,15.11,0,0,0-.36,11l-1.23,6.49c-.41-.47-.35-2-1.09-1.72s-.89,1.17-1,2.27a12,12,0,0,1-1.11,3.5c-.59,1.47-1.3,1.38-2,.33a3.59,3.59,0,0,1-.24-3.77,6,6,0,0,0,.36-5c-.41-1.61-.71-3.33.12-4.89a2,2,0,0,0,.19-1.09c-.37-4.64,1-8,2.31-11.38A37.46,37.46,0,0,0,32.39,350.36Z"/><path id="_Tracciato_15" data-name="&lt;Tracciato&gt;" class="cls-15" d="M9.29,263c.56-1.36.35-2.4,0-4.05a37.27,37.27,0,0,1-.84-9.91c.07-.85.13-1.71.19-2.56a3.89,3.89,0,0,1,.19,2.72,4.1,4.1,0,0,0,0,2.23c.95,2.32.52,5.37,1.22,7.94a17.35,17.35,0,0,1,0,6.79,35.53,35.53,0,0,0,.34,9.17c.16,1.33.49,2.54-.12,3.84a3.77,3.77,0,0,0-.12,1.94c.84,2.44.15,5.34.72,7.84a3.54,3.54,0,0,1,.06,1.4c-1.2,3.92.29,7.45.34,11.13.07,4.4,1.64,8.84.05,13.28a5.43,5.43,0,0,0,.06,3.87c1.69,3.79,1.2,8.07.77,12.29a7.84,7.84,0,0,0,.34,3.35c1.49,5.38,3.06,10.86,1.92,17.35a5.57,5.57,0,0,1-.67,2.25l-.58-1.21c.94-1.69,1-5.14.76-7.73-.38-3.62-1.81-6.16-2.28-9.66a31.42,31.42,0,0,1-.22-6.05c.16-3.49.84-7.13-.79-10.21-.57-1.07-.37-2.91-.35-4.24.05-3.41-1.54-6.6-.33-10.14a3.17,3.17,0,0,0-.37-2.12,8.44,8.44,0,0,1-.25-4.17,41.6,41.6,0,0,0-.34-13,12.3,12.3,0,0,1,.18-7.22,7.38,7.38,0,0,0,.27-3.94A28.62,28.62,0,0,1,9.29,263Z"/><path id="_Tracciato_16" data-name="&lt;Tracciato&gt;" class="cls-8" d="M35.15,369.23c-1.42-.78-1.56-3.63-1.36-5.16.29-2.26.42-4.9,1.54-6.78a5.94,5.94,0,0,0,.21-6,7,7,0,0,1-.21-4.93c1.41-3.22.06-6.89.75-10.14.18-.86-.28-.75-.59-.56a30.54,30.54,0,0,0,.31-5.91c-.53-3.28-.07-6.73-.43-10.06a31.4,31.4,0,0,1,0-3.5c.06-1.46,0-2.94.08-4.4,0-.94,0-2.22.71-2.23s.62,1.14.73,2c.06.47,0,1,.09,1.45.13,1.79.58,2.89,1.62,2.6-.16,2.15.35,4.42-.31,6.49-.21,2.09-.91,4-.84,6.18a8.76,8.76,0,0,0,.52,3.26,50,50,0,0,1-.53,9.81c-.38,1.89.2,3.72.09,5.73C37.13,354.61,36,361.87,35.15,369.23Z"/><path id="_Tracciato_17" data-name="&lt;Tracciato&gt;" class="cls-8" d="M32.39,350.36a7.12,7.12,0,0,1-.79,4c-.94,1.91-1.18,4.49-1.92,6.59a5.34,5.34,0,0,0-.18,2.81,4.67,4.67,0,0,1-.06,2.82c-1.27,1.88-.48,3.7,0,5.4s.7,3.29-.46,4.38a2.34,2.34,0,0,0-.52,2.19,2.52,2.52,0,0,0,1.16,1.76c.48.29.71-.39.92-1.16a15.84,15.84,0,0,0,1-4c.09-1.86,1.1-2.24,1.91-2s.28,1.76.45,2.65a1.73,1.73,0,0,1-.32,1.18c-.28-.18-.54-1.61-.87-.07a33.2,33.2,0,0,1-1,3.24c-1.08,3.42-1.84,4-4,3.32h0c-1.37-.43-2.43-1.65-3.07-4.13a5.81,5.81,0,0,1-.15-3.34c.78-2.28,1.35-4.83,2.59-6.53,1.46-2,1.6-4.05.65-6.65a10.09,10.09,0,0,1-.31-4.12c.21-.32.41-.38.62,0,.44.38.14,1.48.59,2Z"/><path id="_Tracciato_18" data-name="&lt;Tracciato&gt;" class="cls-16" d="M37,39.49c-.25,4.72.4,9.57-.57,14.2a5.12,5.12,0,0,0,.3,2.51,2.81,2.81,0,0,1-.17,2.1c-1.24,2.78-1.1,4.8.52,7.22a4.38,4.38,0,0,1,.32,4.69c-.41.88-1,1.94-1.56,1.51s-.52-2-.62-3.25c-.43-5.81-.25-11.68-.59-17.5-.1-1.65-.07-3.32-.1-5,1.48-4.6,1-9.16-.11-13.66s-.48-9,.46-13.43c0-.12.18-.09.28,0,.36,2.53,1.12,4.89.93,7.66a5.46,5.46,0,0,0-.22,4.87C36.87,33.82,36.8,36.68,37,39.49Z"/><path id="_Tracciato_19" data-name="&lt;Tracciato&gt;" class="cls-7" d="M34.9,300.22c-.2-2.48-.41-5-.59-7.45-.24-3.18.4-4.19,2-3.17,1.25.81,2.26,1.68,2.16,5-.09,2.57.77,5.13-.1,7.81a4.06,4.06,0,0,0,.44,3.16c.4.55.47-.47.73-.61a43.55,43.55,0,0,1-.92,10c-1.6-.37-2-1.5-1.46-4.1a12.24,12.24,0,0,0,0-6.66c-.53-1.64-1.18-2.57-2.13-1A3.54,3.54,0,0,1,34.9,300.22Z"/><path id="_Tracciato_20" data-name="&lt;Tracciato&gt;" class="cls-17" d="M35.11,18.85a39.74,39.74,0,0,0-.82,10.88c.24,2.63,1.18,5,1.41,7.86a26.31,26.31,0,0,1-.45,7.61.84.84,0,0,1-.77.78V44.8c-.37-.88.07-2.07-.31-2.95-.53-11.32-2-22.38-2.76-33.62C33.3,10.94,34.19,14.92,35.11,18.85Z"/><path id="_Tracciato_21" data-name="&lt;Tracciato&gt;" class="cls-18" d="M.48,76c1.59-.35.58,2.57,1.19,3.57a6.94,6.94,0,0,1-.11,2.24,10.5,10.5,0,0,0,.22,4.8,9.36,9.36,0,0,1,.11,4,6.9,6.9,0,0,0-.15,2.27c1.53,4,0,8.5.57,12.62,1.11,1.3.5,3.59.7,5.34a21.67,21.67,0,0,1,.1,4.86,5.07,5.07,0,0,0,.57,2.89,7.71,7.71,0,0,1,.84,3c.1,1.62-.07,3.28.19,4.87,0,.29.07.59.09.88-.17,3.75.07,7.55-.45,11.24,0,.28.07.56.1.85a14,14,0,0,1,0,2.59,56.72,56.72,0,0,0-.52,11.08c-.38.66-.53,0-.72-.44L2.89,151c-.36-1.08-.17-2.52-.61-3.54v-2.36a16.71,16.71,0,0,0,.91-6c.12-4.17,0-8.33.16-12.48a16.84,16.84,0,0,0-.12-4.32c-.13-.37-.25-.74-.38-1.1-1.78-3.17-1.68-7.29-1.51-11.39.08-2.12-.07-3.87-1.18-4.85v-3c1-2.62.91-5.44.75-8.54C.74,89.93.59,86.36.63,82.81a6.51,6.51,0,0,0-.18-2,5.68,5.68,0,0,0-.27-.66c0-.2,0-.39,0-.58.36-.89-.06-2.06.3-3C.47,76.43.48,76.24.48,76Z"/><path id="_Tracciato_22" data-name="&lt;Tracciato&gt;" class="cls-19" d="M3.22,120.87l.31.59a10.62,10.62,0,0,1-.22,3.66,15,15,0,0,0,0,4c.55,4.59-.25,9.07-.37,13.61,0,.85-.29,1.77-.94,1.12C1.59,135.42.74,127.06.74,118.53a9.69,9.69,0,0,1,.09-3.67C1.82,116.66,1.77,119.88,3.22,120.87Z"/><path id="_Tracciato_23" data-name="&lt;Tracciato&gt;" class="cls-20" d="M35.21,303.17c0-.74-.17-1.68.28-2.14s.75.34,1,.85c1.68,2.83,2,5.44.87,9.35-.73,2.65.49,2.86,1.19,3.75,0,.19,0,.39,0,.58-.39.11-.17,1.64-.63,1.24a3.38,3.38,0,0,1-1.27-2.28c-.26-1.48.11-3.25-.87-5.26v6.3c-.57,0-.68-.89-.68-1.62A107.46,107.46,0,0,1,35.21,303.17Z"/><path id="_Tracciato_24" data-name="&lt;Tracciato&gt;" class="cls-17" d="M11.33,21.19c0-.82.14-1.74-.31-2.36-.17-.07-.28-.27-.32-.61a47.41,47.41,0,0,1,5-12.74,20.35,20.35,0,0,1,2.17-2.57c.45.11.72.49.35,1.31-.66,1.46-1.09,3.34-2,4.33-2.09,2.28-3.37,5.65-3.94,10.07A4.33,4.33,0,0,1,11.33,21.19Z"/><path id="_Tracciato_25" data-name="&lt;Tracciato&gt;" class="cls-15" d="M.47,80.17c.18.33.54.74.51,1-.3,2.75.56,5.41.32,7.93A27.48,27.48,0,0,0,1.5,96a7.69,7.69,0,0,1-1.33,6c-.47-6.29.21-12.57,0-18.86C.54,82.24.1,81.05.47,80.17Z"/><path id="_Tracciato_26" data-name="&lt;Tracciato&gt;" class="cls-21" d="M3.22,120.87c-1.87,0-1.4-3.74-2.32-5.39a15.77,15.77,0,0,0-.16,3c-.38-4.5-.6-9-.58-13.59,1.07-.32,1.86,1.29,1.64,3.64-.2,2.15-.07,4.3-.11,6.44A12.94,12.94,0,0,0,3.22,120.87Z"/><path id="_Tracciato_27" data-name="&lt;Tracciato&gt;" class="cls-21" d="M2,143.87c1.2-1.88.7-4.63.87-6.94.24-3.18.75-6.4-.17-9.73-.51-1.85.81-3.65.86-5.74a3,3,0,0,1,.3,1.86c-.36,4.48.29,9-.28,13.51a16.83,16.83,0,0,0,.09,3.46c.18,2.15-.14,4-1.36,4.77Z"/><path id="_Tracciato_28" data-name="&lt;Tracciato&gt;" class="cls-22" d="M37,39.49A12.72,12.72,0,0,1,36.33,35a3.9,3.9,0,0,0-.46-2.39c-1.53-1.45-.73-3.91-.72-5.9,0-2.37.56-.51.89-.24a74,74,0,0,1,1.52,13Z"/><path id="_Tracciato_29" data-name="&lt;Tracciato&gt;" class="cls-23" d="M20.63,372.76a7.06,7.06,0,0,1,1.28,2.74c.65,2.35,1.28,4.77,2.54,6.32.37.45,1.52,1.82-.13,2.17-1.67-1.42-2.63-4.08-3.39-7.07C21.54,375.35,20.33,374.25,20.63,372.76Z"/><path id="_Tracciato_30" data-name="&lt;Tracciato&gt;" class="cls-24" d="M27.73,383.39c2.28,0,4-2.59,4.76-7,.1-.6-.31-1.83.43-1.69s.69,1.23.68,2.24c-.89,2.35-1.52,5.08-2.92,6.69-.55.63-1.07,1.11-1.71,1C28.71,383.62,28,384.34,27.73,383.39Z"/><path id="_Tracciato_31" data-name="&lt;Tracciato&gt;" class="cls-25" d="M38,331.49c-1.05-1.47-1.3-4.08-.56-6.61a4.9,4.9,0,0,0,.36-3.17c-.11-.36-.15-1.14.22-1.08s.25.9.3,1.42C38.2,325.2,38.51,328.39,38,331.49Z"/><path id="_Tracciato_32" data-name="&lt;Tracciato&gt;" class="cls-26" d="M10.7,18.22l.32.61c.11,4.23-1.23,6.33-3.1,7.66C8.87,23.77,9.55,20.7,10.7,18.22Z"/><path id="_Tracciato_33" data-name="&lt;Tracciato&gt;" class="cls-26" d="M6.69,29.44c1.06.44.32,1.7.22,2.43-.22,1.73-.46,3.67-1.77,3.47A16.92,16.92,0,0,1,6.69,29.44Z"/><path id="_Tracciato_34" data-name="&lt;Tracciato&gt;" class="cls-6" d="M39.4,81.35c-.06.29-.12,1-.29.53a5.73,5.73,0,0,1,0-4A18.41,18.41,0,0,1,39.4,81.35Z"/><path id="_Tracciato_35" data-name="&lt;Tracciato&gt;" class="cls-23" d="M25.87,384.58c.81-1.16,1.21-.73,1.24,1.15Z"/><path id="_Tracciato_36" data-name="&lt;Tracciato&gt;" class="cls-9" d="M2.28,147.42c.85.77.55,2.26.61,3.54H2.58A17.21,17.21,0,0,1,2.28,147.42Z"/><path id="_Tracciato_37" data-name="&lt;Tracciato&gt;" class="cls-1" d="M40.16,296.7v-3.57A4.89,4.89,0,0,1,40.16,296.7Z"/><path id="_Tracciato_38" data-name="&lt;Tracciato&gt;" class="cls-10" d="M.47,76.63c-.06,1,.2,2.11-.3,3C.23,78.58,0,77.46.47,76.63Z"/><path id="_Tracciato_39" data-name="&lt;Tracciato&gt;" class="cls-10" d="M.47,80.17c-.07,1,.2,2.12-.3,3,0-1,0-2,0-3Z"/><path id="_Tracciato_40" data-name="&lt;Tracciato&gt;" class="cls-9" d="M2,157.45a3.36,3.36,0,0,1,0,3C2,159.42,2,158.43,2,157.45Z"/><path id="_Tracciato_41" data-name="&lt;Tracciato&gt;" class="cls-12" d="M23,82a37.45,37.45,0,0,0,.64-9.3c-.09-6.51.16-13-.55-19.53a103,103,0,0,1-.06-10.7,3.88,3.88,0,0,0,1.5-2.79c1,2.45.57,5.56,1.66,7.6.44.82-.07,1.89-.41,2.55a4.7,4.7,0,0,0-.35,3.7c.74,2.53.34,5.8,1.46,8.11a3.83,3.83,0,0,1,0,1.67A84.73,84.73,0,0,0,25.79,79a4,4,0,0,0,.76,2.71c1.11,1.28,1.27,3.06.88,5.31a15.47,15.47,0,0,0,0,6,9.11,9.11,0,0,1-.14,4.48,6.88,6.88,0,0,0,0,3.66,13.58,13.58,0,0,1-.18,7.26,17.73,17.73,0,0,0-.75,6.69,25.46,25.46,0,0,1-.17,6.62c-.3,1.67-.74,3.71.13,5.55a2.54,2.54,0,0,1-.33,2.06c-1.34,2.52-1.08,5.35-.3,8.12a6.18,6.18,0,0,1-.16,4,12.38,12.38,0,0,0-.52,6.63,4.2,4.2,0,0,1,.11,1.69c-1,2.78,0,5.05.37,7.56a12.35,12.35,0,0,1,0,5.1,12.76,12.76,0,0,0-.27,5.18c.58,3.6-.05,6.76-.71,10a6.8,6.8,0,0,0,.17,4.09c1.09,3,.37,7.8-1.32,9.49-.75.76-.91-.18-1-1.27A149.07,149.07,0,0,1,22,175a3.38,3.38,0,0,0-.28-1,28.76,28.76,0,0,0,.05-7.81,11.07,11.07,0,0,1,0-3.2A33.56,33.56,0,0,0,22,154.9c-.39-4.14.52-8.1.33-12.19a4.78,4.78,0,0,1-.13-2.17.52.52,0,0,1,.7-.38c1,.22,1.26-.81.91-2.29a13.56,13.56,0,0,1,.23-6.77,15.42,15.42,0,0,0,.32-7.35,3.73,3.73,0,0,1-.1-1.44,26.74,26.74,0,0,0-.06-11.09c-.42-2.08.79-3.54,1-5.33s-.83-3.29-.2-5.48c1.24-4.29.15-8-1.18-11.48-.34-1.26-.32-2.78-1-3.85S22.7,83,23,82Z"/><path id="_Tracciato_42" data-name="&lt;Tracciato&gt;" class="cls-27" d="M35.21,303.17c.37,4.1,0,8.32.6,12.39-.23,4.72.69,9.44,0,14.15a29.42,29.42,0,0,0-.79,3.14c-.33,2.4-1.07,2.38-2.11,1.83-.87-.46-1.08-1.2-.76-2.71.17-.8.5-2.17.07-2.38-1-.49-1.5-2.46-2.47-2.67-.5-.11-.55,1.16-.59,1.82-.2,3.2-1.28,5.73-1.77,8.69-.23,1.31-.83,1.31-1.41.81a6.54,6.54,0,0,1-2.85-4.05,5.36,5.36,0,0,0-.91-1.54c-.28.14-.4,0-.31-.59.65-2.8.13-5.67-.13-8.34-.36-3.7-.37-7.46-.78-11.13,1.07-.23,1.24-3.2,2.47-2.94a5.81,5.81,0,0,1-.6,3.41,3.93,3.93,0,0,0,.09,3.36,5.64,5.64,0,0,1,.18.76c.24,2.78-.14,5.71.54,8.4a4.9,4.9,0,0,1-.11,1.73c-.56,4.13.16,6.91,2.35,8.76-1-1.49-.84-2.93,0-3.81,1.75-1.82,2.08-4.41,1.7-7.93-.3-2.72.08-3.1,2-2.57,1.27,0,2.15-1,2.5-3.47a11.38,11.38,0,0,1,1.38-3.82,8,8,0,0,0,.78-2.81,19,19,0,0,0,.25-3.39l0-.38a7.59,7.59,0,0,0-.24-4.62c-.64-1.4-.3-2.48.56-3C35,301.21,34.69,302.34,35.21,303.17Z"/><path id="_Tracciato_43" data-name="&lt;Tracciato&gt;" class="cls-28" d="M34.58,311.43a5.81,5.81,0,0,1-.46,2.95,14.87,14.87,0,0,0-1.86,5.49,2.79,2.79,0,0,1-2.63,2.76c-.41-.62-.86-1-1.41-.9-1.1.2-1.42,1.21-1.06,3.44.53,3.33.21,5.08-1.24,6.62-1.25,1.33-2.64.14-2.49-2.49.23-4.12-.6-8-.43-12.07.54-1.44.67,0,.77.51a28.52,28.52,0,0,1,.73,7.13,11.76,11.76,0,0,0,.18,3.46c.16.66.4,1.18.83.92s.58-.81.52-1.59c-.08-1-.27-1.88-.42-2.81-.49-2.93-.23-3.89,1.26-4.8.37-.22.92-.09,1-1.09a2.11,2.11,0,0,0-.74-1.71,11.29,11.29,0,0,1-2.34-4.73c-.35,1.93-.76,3.34-1.56,4.12-.08.18-.15.25-.24.22s-.13-.08-.13-.13a4,4,0,0,1,.23-2.92,27.14,27.14,0,0,0,.7-4.16l.31-.59c1.26.66,1.92,2.79,2.77,4.38.41.78.74,1.38,1.22,1,1.54-1.3,3.54-.19,4.72-3.36a6,6,0,0,0,.56-2.31c0-2.34.61-1.68,1.23-.85A8.79,8.79,0,0,1,34.58,311.43Z"/><path id="_Tracciato_44" data-name="&lt;Tracciato&gt;" class="cls-4" d="M29.15,144.49c1.05,1.74,1.05,4.68,0,7.08Q29.15,148,29.15,144.49Z"/><path id="_Tracciato_45" data-name="&lt;Tracciato&gt;" class="cls-12" d="M25.64,39a6.17,6.17,0,0,1-.6-4.29c.07-.4.4-.38.5,0A12.75,12.75,0,0,1,25.64,39Z"/><path id="_Tracciato_46" data-name="&lt;Tracciato&gt;" class="cls-16" d="M34.17,41.85c.51.83.23,2,.31,2.95C34,44,34.24,42.85,34.17,41.85Z"/><path id="_Tracciato_47" data-name="&lt;Tracciato&gt;" class="cls-18" d="M3.81,153.32c-.84-3.41-.25-6.8.11-10.14.14-1.35.2-2.67.21-4,1.34.07,2,1.68,1.31,3.93a12.62,12.62,0,0,0,.8,9.54c.56,1.26.62,3.21,1.26,4.58a2.6,2.6,0,0,1-.32,2.34c-2.09,2.61-1.33,6.07-.77,9.37.18,1.08.19,3.09,1,2.89s.63-2.22.62-3.29c0-4.61,1.18-8.89.9-13.53-.05-.88.2-1.31.65-1.19,1.38.37,1.32-1.25,1-2.91-.34-2,0-4.31-.33-6.06-.91-4.89-1-10-1.38-15-.12-1.47-.18-2.91-.22-4.38a48.28,48.28,0,0,0-.48-8.43,17.19,17.19,0,0,1,.13-4.95c.32-3.26.74-6.5.18-9.85a7.69,7.69,0,0,1,.58-3.82c.73.11.67,1.39.95,2.1a6.45,6.45,0,0,1,.21,2.57,23,23,0,0,0-.2,9.06,5.59,5.59,0,0,1,.1,2,7.28,7.28,0,0,0-.15,1.73c.47,4.3.12,8.94,1.27,12.94.59,2.05-.25,4,.18,6.13.59-.51.48-1.42.43-2.22-.11-1.55-.3-3.07-.43-4.62a9.21,9.21,0,0,1,.7-5.13c.88-1.7.46-4.38,1.18-6.26.13-.19.26-.18.4,0,.86,1.64.38,3.51.14,5.18a55.79,55.79,0,0,0-.36,15,11.68,11.68,0,0,1-.29,4.29,7.39,7.39,0,0,0-.13,3.86c1.08,5.16.11,10.51.47,15.79.66,9.84.74,19.81,1.65,29.61-1.1.44-1.87.21-1.54-2.57a1.78,1.78,0,0,0-.41-1.45c-.28,1.18-.3,2.46-.51,3.65-.15.81-.38,1.42-.89,1.28s-.5-.79-.56-1.51c-.23-2.85-.25-2.87-1.53-1.67a.89.89,0,0,1-1.46-.08c-.71-.79-1.45-1.45-2.16-2.2-1.16-1.24-2.45-7.82-2-10.16.39-1.89-.56-2.74-.7-4.18a13.76,13.76,0,0,0-.3-7.08c-.3-2.34-.34-4.59.62-6.49v-.58C4.41,156.07,3.3,154.69,3.81,153.32Z"/><path id="_Tracciato_48" data-name="&lt;Tracciato&gt;" class="cls-9" d="M3.49,171.6a5.84,5.84,0,0,1,.71,5.18c-.26.9,1.65,8.51,2.18,8.66.87.26,1.44,1.37,2.13,2.16.48.56,1,.76,1.34-.33s.73-2,1.33-1.27a5.29,5.29,0,0,1,.61,3.13c0,.6-.47,1.48.08,1.73s.5-.87.58-1.58.16-1.13.24-1.69c.14-1-.08-2.74.69-2.38.46.21.73,2,1,3.14a7.37,7.37,0,0,1-.74,1.08l1.54,1.06c.76,6.61,1.49,13.24,2.28,19.83a34.08,34.08,0,0,1,.17,3.77c-.46,1.64-1.1,1.86-1.9.85a4,4,0,0,0-.55-.54c-2-1.7-3.05-.45-3,3.68a6.82,6.82,0,0,0,.3,2.74,7.56,7.56,0,0,0,.21-2.7c.18-2.39.78-3.12,1.84-1.89.62.7,1,.29,1.56-.07s1-1,1.56-.9c.31.79-.15,1.58,0,2.37a1.88,1.88,0,0,0,.31,1.76.85.85,0,0,1,0,1.18c-.68-.39-1.3-.27-1.82.8-.23.49-.55,1.22-.9.62-.91-1.52-1.49.06-1.94.92-.67,1.27.57,1.77.53,3-.95.53-1-1.61-1.7-2.15a9,9,0,0,0,.18,3.57,11.59,11.59,0,0,1,.36,1.92c0,.93.28,2.17-.2,2.73s-.73-.78-1.12-1.17a1.63,1.63,0,0,1-.52-2.16c.45-1,0-1.85,0-2.77,0-.61-.1-1.28-.44-1.42-.59-.24-.4.83-.52,1.37-.22.94-.45,1.71-1.15,1.36S8.16,226,8.28,225c.28-2.62-.12-5.49.94-7.84.26-.58,0-1.38-.55-.82-.3.32-.6,1-.92.21A2.24,2.24,0,0,1,8,214.67c.68-1.34.08-2-.31-2.91-1.09-2.42-1-2.92.4-4.28a1.46,1.46,0,0,0,.16-2.25c-.21-.26-.57-.52-.59-.83-.25-5.11-2.45-9.1-2.19-14.58.16-3.35-1.08-6.13-1.55-9.27-.15-1-.66-2.18-.37-3C4.3,175.45,3.7,173.57,3.49,171.6Z"/><path id="_Tracciato_49" data-name="&lt;Tracciato&gt;" class="cls-29" d="M13.73,116.75h-.31c-.93-.54-1.1-2-1-3.51.26-5.12,0-10.28.3-15.39A16.22,16.22,0,0,1,13,95.59c.56-2-.08-3.67-.54-5.21a8.92,8.92,0,0,1-.14-5.56c1.33-3.77.69-8,.89-12a15.35,15.35,0,0,1,.68-5,4.18,4.18,0,0,0,.36-3c-1.41-3.78-.49-7.77-.38-11.68.07-2.54.34-5.08-.36-7.47a28.66,28.66,0,0,1,0-5.93A14.57,14.57,0,0,0,13.81,35a6.19,6.19,0,0,1,.6-3.18c1.85-1.71,2.24-1.34,2.14,2.48-.09,3.24.17,6.59-.79,9.64a12.89,12.89,0,0,0-.19,3.42c0,2.84.36,5.65-.67,8.46a11.56,11.56,0,0,0,0,6.49,13.15,13.15,0,0,1,.21,7.51c-.76,3.31-.35,6.53-.25,9.73a12.87,12.87,0,0,1-.55,4.94c-.86,2.37-1.5,4.79,0,7.23a4.07,4.07,0,0,1,.08,3,26.51,26.51,0,0,0-.25,10.84,9.59,9.59,0,0,1-.34,5.57C13,112.93,13.67,114.86,13.73,116.75Z"/><path id="_Tracciato_50" data-name="&lt;Tracciato&gt;" class="cls-27" d="M21,309.06a110.88,110.88,0,0,1-.68-12.66c-.12-7.78-.35-15.54-.75-23.28a113.08,113.08,0,0,1,.23-13c.51,5.23,1.12,10.44,1.51,15.71.53,7.24.6,14.57,1.19,21.81.2,2.46,0,5,.07,7.54S21.23,307.36,21,309.06Z"/><path id="_Tracciato_51" data-name="&lt;Tracciato&gt;" class="cls-20" d="M14.41,31.81a11.67,11.67,0,0,0-.11,4,5.11,5.11,0,0,1-.52,3.7c-.54,2.43-.8,5.1-1.69,7.25-.37.09-.77.34-.74,1.16a17.92,17.92,0,0,1-1.1,5.92c-.75,2.71-.23,5.76-.56,8.6-.08.65.63.53.62,1.39,0,2.43-.12,4.84-.14,7.27,0,1,.1,2.45-.79,2.64a4.76,4.76,0,0,1,0-3.56L9.37,68l-1.48,2.2c.05-2.61.44-5.11.63-7.67,0-1.08.39-2,0-3.3-.34-1.06,0-2.8.31-4.16a27.21,27.21,0,0,0,1-7.59,7.78,7.78,0,0,1,1-3.57,16.59,16.59,0,0,0,1.52-8.08,1.94,1.94,0,0,1,.57-1.86c.73-.48,1.09-1.72,1.58-2.7Z"/><path id="_Tracciato_52" data-name="&lt;Tracciato&gt;" class="cls-30" d="M22.36,140.35v2.36c-2.11-2.28-1.48-5.17-.8-8.63.46-2.32.15-5.19.2-7.81,0-.9-.34-.69-.61-.86-.65-.39-1.08-1.19-.79-2.62.14-.68.24-1.64.76-1.61s.17,1.24.61,1.65c.68-1.7.19-3.69.35-5.48.17-.2.34-.18.5,0a10.93,10.93,0,0,1,.79,5.17c-.25,5.13-.23,10.28-.54,15.39A5.62,5.62,0,0,1,22.36,140.35Z"/><path id="_Tracciato_53" data-name="&lt;Tracciato&gt;" class="cls-3" d="M17.67,215.26c-.61,1.06-1.49,1.23-2.08,2.41-.31.62-.74.83-1-.24s-.59-1.63-1-1.24-.58,1.56-.52,2.58a10.65,10.65,0,0,0,.18,1.41c.21,1.18-.17,1.68-.65,1.89s-.75-.53-.76-1.37a45.59,45.59,0,0,1,0-5.85c.29-2.35,1.53-1.84,2.42-1.85.56,0,1.23.57,1.67,1.29.68,1.12,1.17.62,1.72-.2C17.67,214.48,17.67,214.87,17.67,215.26Z"/><path id="_Tracciato_54" data-name="&lt;Tracciato&gt;" class="cls-31" d="M22.38,117.35h-.31a166.23,166.23,0,0,1,.55-19.72A99,99,0,0,0,22.45,85c-.06-1.21-.14-2.37.57-3-.17,1.34-.56,2.55.62,3.31.67.42.19,2.47.3,3.76,0,.15,0,.29-.05.44a36.28,36.28,0,0,0,0,11.81c-.5,4.91-1,9.81-1.16,14.8A2.6,2.6,0,0,1,22.38,117.35Z"/><path id="_Tracciato_55" data-name="&lt;Tracciato&gt;" class="cls-1" d="M23.77,309.65a7.18,7.18,0,0,1-.46,4.8,4.86,4.86,0,0,0-.47,2.28c-.92-1-1.22-2.12-.35-3.85a20.19,20.19,0,0,0,1-3.23Z"/><path id="_Tracciato_56" data-name="&lt;Tracciato&gt;" class="cls-27" d="M19.79,260.1c-.65-2.07-.14-4.34-.3-6.49C20.15,255.68,19.64,257.94,19.79,260.1Z"/><path id="_Tracciato_57" data-name="&lt;Tracciato&gt;" class="cls-3" d="M18,219.39c-.28-.07-.66.2-.78-.5a1.27,1.27,0,0,1,.47-1.26C17.77,218.22,17.87,218.8,18,219.39Z"/><path id="_Tracciato_58" data-name="&lt;Tracciato&gt;" class="cls-23" d="M21.9,332.06l.31.59a36.31,36.31,0,0,0,.77,7.09c.45,1.57-.3,3.05,0,4.56.48,2.63-.79,2.32-1.39,2.85-1.37,1.21-1.7,4.46-3.19,5.49-.47.33,0,2.29-.22,3.31a14.77,14.77,0,0,0,1.57,10.88,9.09,9.09,0,0,1,.91,5.93,44.34,44.34,0,0,0-2.88-8.36,10.93,10.93,0,0,1-.52-3.33,11.8,11.8,0,0,0-1.06-4.83c-.8-1.59-1.72-4.11-.35-6.62A3.12,3.12,0,0,0,16,348c-.79-2.43-.13-5-.2-7.44-.07-2.75,1.11-4.32,2.46-3.37.72.51,1.22.51,1.46-.91A6.89,6.89,0,0,1,21.9,332.06Z"/><path id="_Tracciato_59" data-name="&lt;Tracciato&gt;" class="cls-9" d="M3.81,158a19.55,19.55,0,0,0-.62,6.49C2.75,162.14,2.42,159.79,3.81,158Z"/><path id="_Tracciato_60" data-name="&lt;Tracciato&gt;" class="cls-9" d="M3.81,153.32c0,1.37.72,2.75,0,4.13.13-1.74-.74-3-.61-4.72Z"/><path id="_Tracciato_61" data-name="&lt;Tracciato&gt;" class="cls-24" d="M27.75,362.74c1.32,1.74,1.32,5.77-.11,7-1.64,1.38-1.95,4.58-2.91,6.88-.47,1.13,1,5.21,1.88,5.56a1.4,1.4,0,0,1,1.12,1.23c-1.41.44-2.53-.27-3.09-3-.26-1.23-1-1.61-1.4-2.45-.91-1.76-.38-4-1-5.87a41.12,41.12,0,0,0-1.88-5.52c-.83-1.76-.29-3.89.26-5.4.92-2.54,2.56-2.56,3.89-2.16s2.12,2.27,2,5.17c-.06,1.42.35,2.79,1.12,2.47s.37-1.74.24-2.75C27.84,363.5,27.79,363.12,27.75,362.74Z"/><path id="_Tracciato_62" data-name="&lt;Tracciato&gt;" class="cls-18" d="M28.06,358.61h-.62c-.56,0-.87-.9-1.33-1.3a1.42,1.42,0,0,1-.42-1.11c0-.59,2.28-4,2.71-4,.71,0,.93,1.22,1.09,2.1.35,1.85,0,3.2-1.08,3.75C28.28,358.16,28.18,358.43,28.06,358.61Z"/><path id="_Tracciato_63" data-name="&lt;Tracciato&gt;" class="cls-32" d="M8.52,62.48a17.8,17.8,0,0,1-.63,7.67c-.94.74-.91,2.34-.73,3.74.29,2.35.26,4.29-.76,6.14a5.23,5.23,0,0,0,0,4.28C7,85.68,7.69,87,7.26,89c-.23,1.63-1,3.07-.43,5a1.37,1.37,0,0,1,0,.57C6.3,97,5,95.33,4.14,96.36c-.41.48-.86-1.32-.83-2.33a54.51,54.51,0,0,0-.67-8.14,26.85,26.85,0,0,1-.17-8,5.42,5.42,0,0,0-.36-3.77c-.83-1.41-.14-3-.08-4.42.1-2.68-.42-5.65.91-7.87a4,4,0,0,0,.25-2.5,14.15,14.15,0,0,1,1.25-8.78c1-2.34.82-4.92.7-7.55,0-.39,0-.79,0-1.18.45,1.05.36,2.64,1,3.51a1.47,1.47,0,0,1,0,1.31c-1.3,2.88-.83,7.47-2.62,9.89a1.41,1.41,0,0,0-.17.76c1,2,.09,5.15,1.21,7A3.25,3.25,0,0,1,4.73,67c-.75,2.85-.62,6-.79,9-.08,1.45.55,1.11.94,1.36.61.37.66-.12.62-1.19-.1-2.52,1-5,.06-7.58a.89.89,0,0,1,.1-.49C7.48,67.83,7.34,63.93,8.52,62.48Z"/><path id="_Tracciato_64" data-name="&lt;Tracciato&gt;" class="cls-26" d="M9.72,100.82c-.39-.35-.19-1.26-.47-1.82A11.85,11.85,0,0,0,9,103.66c.25,3.19-.23,6.39-.38,9.59a19.23,19.23,0,0,0,.24,5.06,38.57,38.57,0,0,1,.23,6.61c0,2.14-.14,4.3.59,6.24a3.78,3.78,0,0,1,.15,2.23,12.4,12.4,0,0,0,.42,7.42,11.47,11.47,0,0,1,.43,5.61A12.05,12.05,0,0,0,11,150.7a6.73,6.73,0,0,1-.09,3.91c-.55,1.17-1.12-.42-1.84-.18.74,2,.16,3.75,0,5.7-.19,2.24-.75,4.48-.48,6.88.19,1.7-.55,3.17-.41,4.94,0,.25-.37,1.74-.94,1.58-.42-.13-.58-1-.78-1.71a69.65,69.65,0,0,1-1.27-8.09c-.28-1.83.66-3,1.31-4,.79-1.21,1.27-2.2.09-3.45a1.76,1.76,0,0,1-.4-1.66,2.37,2.37,0,0,0-.28-1.8,10.73,10.73,0,0,1-1-9.23c.64-2.06.62-3.75-.83-4.44a43.5,43.5,0,0,0,.32-11.8v-.59c-.4-1.7.12-3.61-.3-5.31a3.73,3.73,0,0,0-.69-2.17,8.12,8.12,0,0,1-.77-4.35,62.88,62.88,0,0,0-.38-9.41,1,1,0,0,1,.82,1.06c0,2.88,1.09,5.23,1,8.14a15.68,15.68,0,0,0,.29,2.55c.32,1.92,1.19,2.45,2.06,2.27s.78-1.91.69-3.08a10.27,10.27,0,0,1,.75-5.1c1-2.24.71-6.93-.3-9.05-.63-1.32-.4-3-.78-5.12,1,2.46,1,2.47,2,.26.28-.63.53-.39.81-.18A4.25,4.25,0,0,1,9.72,100.82Z"/><path id="_Tracciato_65" data-name="&lt;Tracciato&gt;" class="cls-20" d="M7.26,89a10.49,10.49,0,0,0-1.2-4.3,4.91,4.91,0,0,1-.2-4.63c1.45-2.21,1-5,1.09-7.68,0-1.27,0-2.41.94-2.26a6,6,0,0,0-.11,5A4,4,0,0,1,7.4,79a3.83,3.83,0,0,0-.09,4c.1.22.15.51.25.72C8.55,85.68,8.59,87.49,7.26,89Z"/><path id="_Tracciato_66" data-name="&lt;Tracciato&gt;" class="cls-30" d="M9.45,73.72c.3,2.35-.12,4.7,0,7-.54.54-.08,1.86-.54,2.54a6.06,6.06,0,0,1-.6-5.3,7.34,7.34,0,0,0,0-3.06c-.15-2-.39-4.22,1.15-4.8C9.44,71.34,9.45,72.53,9.45,73.72Z"/><path id="_Tracciato_67" data-name="&lt;Tracciato&gt;" class="cls-18" d="M4.45,127.36c.81,4,1,8-.32,11.8a2.28,2.28,0,0,1-.27-1.8C5,134.19,3.86,130.6,4.45,127.36Z"/><path id="_Tracciato_68" data-name="&lt;Tracciato&gt;" class="cls-18" d="M4.15,121.46c.61,1.66.17,3.55.3,5.31C3.84,125.11,4.28,123.23,4.15,121.46Z"/><path id="_Tracciato_69" data-name="&lt;Tracciato&gt;" class="cls-15" d="M22.38,117.35a101.2,101.2,0,0,1,1.24-16.52A31.38,31.38,0,0,1,23.94,89c.76,0,1.37.32,1.13,2.19a2.89,2.89,0,0,0,.2,1.64c1.39,2.78.62,5.53,0,8.24-.26,1.07-.49,2.2.07,2.89,1.17,1.46.51,2.48-.13,3.58a6.58,6.58,0,0,0-.4,5.07,15.81,15.81,0,0,1,.1,8.08,4.86,4.86,0,0,0-.2,2.5c.92,3.35.3,6.37-.53,9.38a7.59,7.59,0,0,0,0,4.43,4.67,4.67,0,0,1,0,3.74c-.71,1.37-1.2-.12-1.78-.42.29-5.47.09-11,.59-16.45A25.1,25.1,0,0,0,22.38,117.35Z"/><path id="_Tracciato_70" data-name="&lt;Tracciato&gt;" class="cls-1" d="M23.15,316.73c.1,4.35.64,8.62.66,13,0,1.78.74,2.76,1.73,1.59s2.12-2.35,1.39-5.25c-.34-1.33-1.16-3.09-.32-4.07s2.13-1.5,3,.62c-1.76-.88-1.87-.84-1.52,2.7.34,3.36-.12,5.69-1.73,7.18a1.93,1.93,0,0,0-.11,3.16,1.36,1.36,0,0,1,.37,1.59c-.36.89-.57-.21-.86-.39-1.71-1-3.07-3.66-2.82-6.48.41-4.69-.49-9.12-.12-13.66Z"/><path id="_Tracciato_71" data-name="&lt;Tracciato&gt;" class="cls-7" d="M33.74,324.7a2.82,2.82,0,0,1,.82,2.54c0,.85-.19,1.28-.67.93s-1.19-.38-1.11-1.9A1.73,1.73,0,0,1,33.74,324.7Z"/><path id="_Tracciato_72" data-name="&lt;Tracciato&gt;" class="cls-1" d="M34.58,311.43v-3.54A4.62,4.62,0,0,1,34.58,311.43Z"/><path id="_Tracciato_73" data-name="&lt;Tracciato&gt;" class="cls-33" d="M24.56,311.24c1,2.44,1.83,4.8,3.3,6a3,3,0,0,1,.7,2.17c0,1.3-.72.86-1.09,1.06-2,1.09-1.9,1-1.35,4.86.19,1.4,1.08,3.12-.16,4.55-.66.76-1.11.8-1.51-.54a7.92,7.92,0,0,1-.37-3.09,27.47,27.47,0,0,0-.6-8c-.26-1.37-.46-2.57.4-3.7C24.32,314,24.41,312.54,24.56,311.24Z"/><path id="_Tracciato_74" data-name="&lt;Tracciato&gt;" class="cls-34" d="M10,103.18c.28,3.14.48,6.31,1.19,10.2,0-7.39.53-13.88.38-20.43a6.84,6.84,0,0,1,.28-3.35c1.21,1.31,1.71,3.3,1.55,5.92A73.79,73.79,0,0,0,13,107a20.1,20.1,0,0,1-.07,4,10.45,10.45,0,0,0,.47,5.77c-.24,2.82-.19,5.67-1.46,8-.72,1.33,0,3.66.07,5.53.07,1.34.32,2.6.34,4,0,1.63-.54,1.8-1.07,1.85-.84.08-.5-1-.4-1.83a22.62,22.62,0,0,0-1-9.27,3.24,3.24,0,0,1-.13-1.35c1-3.54-1.18-7.18.12-10.67-1.31-2.06-.3-4.73-.5-7.09C9.33,104.85,9.38,103.74,10,103.18Z"/><path id="_Tracciato_75" data-name="&lt;Tracciato&gt;" class="cls-12" d="M13.43,95.52a14.44,14.44,0,0,0-1.55-5.92q0-22,1.9-43.63c1.21,2.21.62,5,.45,7.41s0,5.07-.44,7.52a3.59,3.59,0,0,0,.51,2.32,5.37,5.37,0,0,1-.05,5.13c-.61,1.19-.51,2.65-.63,4.18-.3,3.9.7,8.08-.76,11.77a8.43,8.43,0,0,0,0,6C13.32,91.61,14.23,93.39,13.43,95.52Z"/><path id="_Tracciato_76" data-name="&lt;Tracciato&gt;" class="cls-35" d="M11.93,46.56c-.34,5.62-1.44,10.93-1.88,16.51-.3.19-.37,1.39-.85.81s-.19-1.1.05-1.69a7.22,7.22,0,0,0,.18-2.83,18.75,18.75,0,0,1,1.2-8.22,5.06,5.06,0,0,0,.2-3,3.19,3.19,0,0,1,.68-2.4C11.77,45.33,11.88,46.09,11.93,46.56Z"/><path id="_Tracciato_77" data-name="&lt;Tracciato&gt;" class="cls-12" d="M23.94,89a72.54,72.54,0,0,0-.32,11.8A2.48,2.48,0,0,1,23,99c-.07-2.66.32-5.29,0-8A2,2,0,0,1,23.94,89Z"/></g></g></g></g></svg>