<svg xmlns="http://www.w3.org/2000/svg" viewBox="0 0 42.32 385.73"><defs><style>.cls-1{fill:#ffecd3;}.cls-2{fill:#fff0dd;}.cls-3{fill:#fee7c8;}.cls-4{fill:#fee6c4;}.cls-5{fill:#fee5c1;}.cls-6{fill:#fee3ba;}.cls-7{fill:#fff0dc;}.cls-8{fill:#fff7ed;}.cls-9{fill:#fee8cb;}.cls-10{fill:#fff0de;}.cls-11{fill:#fee1ba;}.cls-12{fill:#fee8ca;}.cls-13{fill:#fee3be;}.cls-14{fill:#fffdf9;}.cls-15{fill:#fee5c2;}.cls-16{fill:#ffefd9;}.cls-17{fill:#fff2e2;}.cls-18{fill:#feead0;}.cls-19{fill:#fee4bd;}.cls-20{fill:#fff4e4;}.cls-21{fill:#ffe8c6;}.cls-22{fill:#fee9ce;}.cls-23{fill:#ffebd1;}.cls-24{fill:#fff3e1;}.cls-25{fill:#fff1e0;}.cls-26{fill:#ffecd6;}.cls-27{fill:#ffeed8;}.cls-28{fill:#ffe9ca;}.cls-29{fill:#ffecd4;}.cls-30{fill:#ffecd5;}.cls-31{fill:#ffebd2;}.cls-32{fill:#fff5e6;}.cls-33{fill:#fee6c3;}.cls-34{fill:#fee6c6;}.cls-35{fill:#ffefdb;}</style></defs><title>Risorsa 31</title><g id="Livello_2" data-name="Livello 2"><g id="Colori"><g id="_Gruppo_clip_" data-name="&lt;Gruppo clip&gt;"><g id="_Gruppo_" data-name="&lt;Gruppo&gt;"><path id="_Tracciato_" data-name="&lt;Tracciato&gt;" class="cls-1" d="M2.81,81.38v-.6c.24-1.44.64-1.66,1.18-.52a5.48,5.48,0,0,1,.32,3.31c-.62,2.84-.09,5.58,0,8.36a3.72,3.72,0,0,0,1.11,2.89C6,95.26,6.62,96,7.2,95.3s.31-2.11.27-3.24a45,45,0,0,1-.27-6.37,4.86,4.86,0,0,0,.19-3.89,4.82,4.82,0,0,1,.3-4c.53-.29.82-.92,1-1.91a6.88,6.88,0,0,1,3-4.39c2.74-2.12,4.32.12,5.89,3.68a6.68,6.68,0,0,1,1,2.2c.57,9.63,1.3,19.2,1.73,28.87.4,9,.37,18,1.05,27,.12,1.56.1,3.14.1,4.71q0,19.58,0,39.16c0,5.88-.42,11.74-.34,17.64.05,4.3.31,8.57.4,12.86a8.18,8.18,0,0,1-.54,3.82c-1.18,1.09-.86-.84-.91-1.77-.23-4.28.09-8.65-.52-12.88a3.15,3.15,0,0,0-.18-.79c-1.55,1.05-2,2.09-1.55,4.75a27.5,27.5,0,0,1-.17,11.36,14.72,14.72,0,0,0-.14,4.93,19.75,19.75,0,0,1-.06,5.54,18.43,18.43,0,0,0,.25,7.45,10.58,10.58,0,0,1,.17,5.1,4.78,4.78,0,0,0-.11,1.73,18.67,18.67,0,0,1-.63,8.2,9.12,9.12,0,0,0,.33,4.78,8.7,8.7,0,0,1-.27,5.5,6.75,6.75,0,0,0-.37,4.39c.08.34.08-.07,0,.27-.86,5.84.3,12.18-1.24,17.84a6.38,6.38,0,0,0-.41,2.5c.71,4.49-.21,9.11.33,13.58a18,18,0,0,1-.17,4.65c-.17,1.37-.35,2.94.27,3.88,1.84,2.77,1.54,6.63,1.22,10.05s-.26,6.75-.77,10.1c-.35,2.31.58,4.82.92,7.24a16.28,16.28,0,0,1-.06,6.77c-.58,2.28.32,4.73.8,6.87.27,1.19,1-1,1.59-.49.81,3.19.92,6.7,1.3,10.08.65,5.75.89,11.67,1.87,17.28a9.63,9.63,0,0,1-.64,5.22,21.36,21.36,0,0,0-1.34,9.6c-.4.19-.81.63-1.18.53-3.28-.91-6.61-1.69-8.39-8.21a10.58,10.58,0,0,1-.87-3.69c-.11-4.91-.68-9.69-1.16-14.47-.5-5-.94-10-1.16-15A17.44,17.44,0,0,0,7.56,341c-.06-.46-.09-.92-.11-1.39-.37-7.42-.23-14.9-.78-22.3,0-.75,0-1.66-.48-1.95-.27-.14-.5.17-.69.52a3.56,3.56,0,0,0-.36,2.4,7.78,7.78,0,0,0,.86,2,9.06,9.06,0,0,1,.47,7.19,3.46,3.46,0,0,0-.29,1.33c.47,4.05-.71,7.92-.31,12a14.88,14.88,0,0,1-.42,5.44c-.23.3-.46.32-.68,0-.09-3.73.17-7.51-.32-11.2.25-1.82,0-3.77.19-5.49a28.35,28.35,0,0,0-1-11.29,7.22,7.22,0,0,1,0-2.9c.74-4.72.66-9.66,1.13-14.45.36-3.6,1-4.38,2.89-3.95,1,.23,1.93-1.35,3.06-1.3,1.38.05,1.13-2.72,1.6-4.33,1.53-5.26,1-10.87,1-16.4-.19-9.35-.79-18.65-.71-28,0-1.85,0-3.7.1-5.54.08-2.29,0-4.58.07-6.86a13.3,13.3,0,0,1,.07-1.55c.48-7.42.34-14.9.67-22.33.57-12.57-.27-25.12-.08-37.69.11-7.23-.79-14.52-.55-21.72.2-6.16-.43-12.06-.53-18.09A149.22,149.22,0,0,0,12,115.29c-.13-2.31-.31-4.66-.57-7-.09-.86-.17-1.89-.68-2.14s-.72.85-1,1.56c-.33,1-.66,2-1,3-.64,1.77-2.59,3.21-3.65,2.75a2.25,2.25,0,0,1-.9-1.84c-.35-2.83-1-5.55-.73-8.61.21-2.09-.32-4-.49-6A60.17,60.17,0,0,1,3,83,2.82,2.82,0,0,0,2.81,81.38Z"/><path id="_Tracciato_2" data-name="&lt;Tracciato&gt;" class="cls-2" d="M20.61,211.75c.72-2.08.13-4.21.15-6.33.07-7.47-.25-14.92,0-22.42.32-9.87.16-19.8.2-29.7,0-5.31.2-10.64,0-15.9-.43-9.71-.58-19.46-1.07-29.17-.32-6.59-.47-13.23-1-19.77-.34-3.92-.42-7.86-.59-11.79a1.79,1.79,0,0,1,.37-1,2.6,2.6,0,0,1,.39-.36,5.1,5.1,0,0,0,1.32-1.82c.4-.68.84-1.15,1.25,0a11.16,11.16,0,0,1,.1,3.32c-2.46,4.86-1.27,10.7-1,16.12.41,9.36.77,18.77,1.94,28,.17,1.34,0,2.75.19,4.09,0,.32.09.64.12,1,.16,2.1-.09,4.27.28,6.34.67,5.87.42,11.87.7,17.8.21,4.67.31,9.35.74,14,0,.71-.05,1.42,0,2.13s.24,1.25.3,1.91c.08.93-.12,1.86,0,2.79.05.43.08.86.1,1.3.45,6.62,1.28,13.08,2.12,19.53.15,1.14.31,2.28.36,3.46.06,2.65.41,5.22.62,7.83.6,7.46.52,15,1,22.51a53,53,0,0,1,0,9.08,2.89,2.89,0,0,0,0,.58c.7,4.68.41,9.43.35,14.18s.26,9.76-.61,14.51a10,10,0,0,0,0,4.81,15.16,15.16,0,0,1-.23,7.09,9.62,9.62,0,0,0-.09,4.31,28.72,28.72,0,0,1-.24,10.94,4.61,4.61,0,0,0,.23,3,8.7,8.7,0,0,1,.16,6.29,18,18,0,0,0-.8,7.28A41.09,41.09,0,0,1,27.35,318a9.65,9.65,0,0,0,.2,4.25,18.83,18.83,0,0,1,.05,8.8,7,7,0,0,0-.38,1.91c.32,6.14-1,11.95-1,18,0,2.32.55,2.93,1.6,2.7a1,1,0,0,1,.34.61,60.41,60.41,0,0,1-1,8.71,101.15,101.15,0,0,1-2.75,13.63c-.63,2.15-1.77,3.23-2.58,5-.35.77-1.16,1.26-.38,2.69.13.24-.18.6-.34.83l-.61,0c-1.46-3.31-.23-6.36.6-8.79a15.27,15.27,0,0,0,.65-8c-.87-6-1.26-12.18-1.84-18.3a58.06,58.06,0,0,1-.62-6.79c-.78-1.78-.45-3.93-.49-5.93-.18-7.89-.74-15.76-.56-23.67.07-3.46-.15-7.06.8-10.29a4.6,4.6,0,0,0,.42-2.15c-.64-9.62.3-19.1.67-28.63.05-1.33-.32-2.48-.26-3.77s0-2.73,0-4.09c.09-1.71.47-2.74,1.9-1.68-2.5-4.73-1.71-9.44-.95-14.14.28-1.71.33-3.24-.57-4.42a4.49,4.49,0,0,1-.62-2,18,18,0,0,1,0-4.08,51,51,0,0,0,.13-8.74,29.16,29.16,0,0,1,.09-4.95,38.37,38.37,0,0,0,.07-7.27C19.78,215.49,19.72,213.39,20.61,211.75Z"/><path id="_Tracciato_3" data-name="&lt;Tracciato&gt;" class="cls-3" d="M24.35,165.15a115.66,115.66,0,0,1-.91-13.87c-.23-6.39-.41-12.77-.61-19.16-.41-2.11.13-4.38-.3-6.49-.18-5.72-.11-11.46-.45-17.16-.52-9-.25-18-.86-26.94-.12-1.69.38-3.22.11-4.86V73.13A78.44,78.44,0,0,1,20.12,53.8c.75-1.69,1.8-2.87,2.35-5,.31-1.2.91-1.27,1.6-1.1,1.57.4,2.08-.42,2.12-3.41a30.43,30.43,0,0,0-.11-6.11,5.17,5.17,0,0,1,.17-2.54A7.35,7.35,0,0,0,25.83,30a12.48,12.48,0,0,1-1.13-5,11.09,11.09,0,0,0-1.15-5,21.27,21.27,0,0,1-2-6.47c-.07-.26-.12-.53-.17-.81-.13-.92-.38-1.77-.46-2.71,0-.62-.12-1.43.47-1.28a31.86,31.86,0,0,1,3.33,9.64c.87,4.85,3,8.42,3.76,13.36,0,1.89-.47,3.58-.57,5.46-.26,5.14,1,9.32,2.17,13.56A10.65,10.65,0,0,1,30.5,55c-.14,1.34-.28,2.69-.35,4.06a15.65,15.65,0,0,0,.71,6.45,10,10,0,0,1,.2,6.64,10.8,10.8,0,0,0-.29,4.29c.47,4.59.68,9.26,1.33,13.79a14.93,14.93,0,0,1-.1,4.32c-.38,2.68,0,5.4.23,8.09a12,12,0,0,1,.24,2.58c-.65,4,.2,7.75.23,11.63a4.36,4.36,0,0,1,0,.87,36,36,0,0,0,.43,12.56,60.05,60.05,0,0,1,.83,8.78,25.09,25.09,0,0,1,.47,6.92,37.32,37.32,0,0,0,.93,10,16.91,16.91,0,0,1,.21,6.57,9.12,9.12,0,0,0,0,3.17c.9,5.4,1.71,10.81,1.15,16.61a26.38,26.38,0,0,0,.49,7.23c.87,4.76,1.15,9.8,2.12,14.55.7,3.45.27,7.4.33,11.11,0,3.08.48,5.94.7,8.91v1.17a6.09,6.09,0,0,0,0,2.94,24.34,24.34,0,0,1-.61,6.5c-.13.19-.27.21-.41,0a5.88,5.88,0,0,1-.53-1.9c-.12-1.56-.71-2.91-.58-4.59a5.6,5.6,0,0,1,.13-.82,9.62,9.62,0,0,0,.39-6.23,15.69,15.69,0,0,1-.4-7,47,47,0,0,1,0-6.5c.12-2.49-.75-5-1.25-7.41a22.71,22.71,0,0,1-.6-4.52,22.11,22.11,0,0,0-1.22-8.32,10.43,10.43,0,0,1-.49-3.06,6.39,6.39,0,0,0-.45-2.46c-1.1-1.89-1.27-3.38.24-4.88.64-.64.17-1.72-.12-2.51a5.41,5.41,0,0,1-.54-3.44c.08-.33.2-.88-.1-1-1.83-.45-.77-2.34-.51-3.78a39.83,39.83,0,0,0,.32-6.51c-.24-.29-.38-.23-.52-.05-.44.6-.44,2.57-1.32,1.81-.7-.61-.74-2-.78-3.31-.09-2.32-.07-2.32-.79-3.14-.31,1.47.21,2.65.35,3.94.27,2.36.18,2.6-1,2.41-.23,0,0,.28,0,.39a3.58,3.58,0,0,1-.25,1.36C28.61,164.9,25.34,166.12,24.35,165.15Z"/><path id="_Tracciato_4" data-name="&lt;Tracciato&gt;" class="cls-4" d="M12.64,132.7c.42,4,.59,8.08.91,12.11.18,2.27-.46,4.74-.34,7.3.31,6.45.39,12.94.72,19.4.08,1.7-.14,3.26-.11,4.91.14,8.57.29,17.16.28,25.74,0,6.09-.34,12.18-.44,18.26-.07,4.22-.14,8.4-.48,12.56-2.62-1.86-2.64-1.65-3.53,3.83a35.93,35.93,0,0,0-.54,8.32c.13,2.21-1.28,4.16-2.43,3.77-.62-.21-.86-.93-.87-2.06,0-1.9.33-3.88-1.1-4.94-.6-.44-.69-2.68-.42-4.09,1-5.11-.18-10.05-.22-15.07,0-3.32-.25-6.71,1-9.54a3.11,3.11,0,0,0,0-2.57c-1.55-4.56-1.41-7.25.41-11.34.41-.92,1.3-2.11-.29-2.6-1.42-.45-1.41-2.87-1.25-4.94.18-2.32.28-4.75.65-6.92.54-3.14,0-5.85-.5-8.51a23.5,23.5,0,0,1-.26-7.48,16.11,16.11,0,0,0-.25-6.26A16.16,16.16,0,0,1,3.29,156c.7-4.27-.1-8.25-.93-12.15-1.12-3.28-.59-7.06-.85-10.6-.21-2.83-.51-5.76.3-8.61a4.28,4.28,0,0,0-.61-3.11C.62,118.41.91,115.19,1,112c.11-3.73.37-7.45.57-11.18.43-.61.68-.07.85.56a17.29,17.29,0,0,1,.76,4.74,21,21,0,0,0,.67,6.53,8.22,8.22,0,0,1,0,4A13.83,13.83,0,0,0,3.88,123a15.26,15.26,0,0,1,0,6.59c-.39,2-.34,3.53.64,4.89a4.93,4.93,0,0,1,.54,5,2.34,2.34,0,0,0-.1,1.65c1,2.61.75,5.6.72,8.52A17.08,17.08,0,0,0,6,153.17,25.73,25.73,0,0,1,7.71,142c-.44-.66-.85.15-1.23-.22a2.43,2.43,0,0,1-.77-1.7c-.08-.94.21-1.68.63-1.74,1-.14,1.28-1.61,1.67-3a22.58,22.58,0,0,1,2-5.24c.59-1,1.3-1.31,2-.59A3.67,3.67,0,0,1,12.64,132.7Z"/><path id="_Tracciato_5" data-name="&lt;Tracciato&gt;" class="cls-5" d="M2.75,143.31c.65,2.42.82,5.14,1.28,7.68a14,14,0,0,1-.21,4.86,13.35,13.35,0,0,0,.44,7.67c.7,2.15,0,4-.11,5.94a31,31,0,0,0,.34,6.76c.31,2.43,1.27,4.66.58,7.95a44.62,44.62,0,0,0-.8,9.36c0,1.7.2,3.08,1.46,2.25.79-.51,1.17.38.79,1.94a8.88,8.88,0,0,1-.86,2.39,11.75,11.75,0,0,0-.08,10.47,1.9,1.9,0,0,1,0,2.53c-1.47,2.39-1.23,5.95-1.17,9,.09,5.39,1.26,10.65.23,16.2-.23,1.25-.39,3.92,1.26,3.59.34-.07.83.4.49,1.25-.51,1.28.21,2.64-.23,3.94a.85.85,0,0,0,.6,1.21c1.2.24,2.21-1.76,2-4s-.42-4.66.47-6.68c.49-1.1,0-2.27.15-3.36.69-4,2.23-4.51,3.85-1.29v1.18c-.39,2.36-.74,4.72,0,7.08,0,6.24-.11,12.5,0,18.73.12,5.16.73,10.27.57,15.48-.69,2.75-1.5,5.15-3.36,5.18-.47,0-.79.83-1.14,1.4-.71,1.16-1.33,2.23-2.45,1.36-.87-.67-1.37.65-1.21,2.3a5.86,5.86,0,0,1-.67,3.91,2.7,2.7,0,0,0-.29,2.12c1.33,4.08.14,8.08,0,12.12a34.66,34.66,0,0,0-.27,5.72c.15,1.3-.11,2.73-1.08,1.28l0-3a6.53,6.53,0,0,0-.31-3.51c-.55-1.27-.21-2.75-.28-4.14a4.85,4.85,0,0,0,.61-4.66,13.67,13.67,0,0,1-.52-3.67c-.12-2.61-.07-5.27-.8-7.66a4.4,4.4,0,0,1-.11-2c1.2-5.77-.24-11.48-.09-17.24,0-1.62-.1-3.32-.21-5a4.81,4.81,0,0,1,.32-2.49,7,7,0,0,0,.34-6A8,8,0,0,1,2,248.07a30,30,0,0,0-.13-8.72A6.92,6.92,0,0,1,2.42,235,4.45,4.45,0,0,0,3,232.1a26.91,26.91,0,0,1-.07-7.55,23.55,23.55,0,0,0-.35-7.23,3.37,3.37,0,0,1-.13-1.42c1-3.61-.14-7.35.2-10.9a80.16,80.16,0,0,0,.08-14.2c-.23-3,.13-6.27.12-9.36,0-3.94-.05-7.95-.05-11.87,0-5.77-1.53-11.26-.68-17.13a22.46,22.46,0,0,0-.19-4.68A6.84,6.84,0,0,1,2.75,143.31Z"/><path id="_Tracciato_6" data-name="&lt;Tracciato&gt;" class="cls-6" d="M2.75,143.31a17,17,0,0,0-.35,5.91,21.17,21.17,0,0,1-.22,6.59c-.41,2.31.47,4.29.7,6.44.35,3.32-.45,6.94.72,10-1.31,3.48,0,7.29-.38,11A47.38,47.38,0,0,0,3.49,196a14.15,14.15,0,0,1-.16,5.37,20.69,20.69,0,0,0,0,8.55,3.71,3.71,0,0,1,.2,2.2,12.29,12.29,0,0,0-.16,7.35c.47,2.17,0,4.28-.1,6.34a19,19,0,0,0,.29,6.53,3.58,3.58,0,0,1-.68,3,5.23,5.23,0,0,0-.45,4.4,22,22,0,0,1,.16,7.8A9.91,9.91,0,0,0,3,252.85a3.41,3.41,0,0,1,0,3.13c-1.69,2.25-1.16,5.46-.9,8.2.3,3,.1,6,.31,9.05a13.84,13.84,0,0,0,.49,4,3.93,3.93,0,0,1-.21,2.95c-.33,1-.89,1.88-.5,3.15,1,3.28.83,6.95,1,10.5a1.19,1.19,0,0,0,0,.29c1.74,2.62.35,4.89-.22,7.24-.13-.39-.27-.77-.41-1.16-.74-5.81-.89-11.77-1.24-17.68-.34-5.72-1-11.36-1.07-17.15,0-1.07-.14-2.13-.16-3.21-.11-8.36-.38-16.77.08-25.08.53-9.66.08-19.34.7-29A113.56,113.56,0,0,0,.89,188.3a29.09,29.09,0,0,1,0-3.24c.09-12-.4-23.92-.4-35.86,0-7.39-.19-14.84.15-22.24.09-1.86.76-3.48.59-5.43,1.25.24,1.47,2.27,1.1,3.62a21.44,21.44,0,0,0-.41,6.2c0,3,.5,5.93.26,8.94C2.06,141.42,2,142.68,2.75,143.31Z"/><path id="_Tracciato_7" data-name="&lt;Tracciato&gt;" class="cls-7" d="M13.35,1.15A2.18,2.18,0,0,1,15.21,0c.24,1.09.69,1.29,1.24,1.15C17,1.3,17.56.78,18,1.74c-.1.36-.51.67-.16,1.13,1.9,2.52,2.68,6.57,3.85,10.09h0a16.7,16.7,0,0,0,2,7.33c1.11,2.18,1.2,4.83,1.16,7.84a17,17,0,0,1-3.56,10.52c-1.46,2.13-1.87,4-1.4,7.45.3,2.25.79,4.47.38,6.87-.7.7-1-.44-1.38-1.14-.3-.54-.48-1.27-.79-1.8-1.41-2.42-2.35-2.11-3.23.86a53.45,53.45,0,0,0-1.33,6.55c-.3,1.93-.94,2.55-1.85,1.31s-2.52-1.91-1.92-5.38A1.42,1.42,0,0,0,9,51.74c-.5-.24-.91,0-1.19.86S7.49,54.23,7.24,55c-.2.57-.32,1.63-.89.81a15.12,15.12,0,0,1,0-5.57c.8-5.25,1-10.93,3.23-15.11,1-3,2.11-5.77,3.09-8.75.25-.76.5-1.71,1-1.61.67.14.59,1.38.68,2.3-.06,1.15-.69,1.33-1,2.08a3.64,3.64,0,0,0,0,2.68c.37,1,.78.49,1.2.06,1.57-1.61,1.6-2.24.17-4.58-.28-1.41-.31-3-.62-4.35-.06-.38-.14-.75-.17-1.14-.1-1.25-.33-2.81.55-3.21s1.34,1,1.56,2.54c.66,4.7,1.69,5.84,4,4.44,1.61-1,2.17-4.34,1.06-6.77a27.24,27.24,0,0,1-2-8.12c-.38-3.22-2.68-7.38-4.29-7.7a2.48,2.48,0,0,1-.44-.2C14.08,2.28,13.34,2.67,13.35,1.15Z"/><path id="_Tracciato_8" data-name="&lt;Tracciato&gt;" class="cls-8" d="M21.09,385.16a5.19,5.19,0,0,1,1.14-5.26c1.72-1.93,2.36-5.21,3-8.28,1.1-5.57,1.84-11.39,2.72-17.11.17-.3.06-.85.19-1.07,2.12-3.66,1.5-10,3.71-13.6,0-4.89,2-9,1.46-14.14a7.15,7.15,0,0,1,.27-2.55c.79-1.89,1.11-4.45,2.28-5.81.37-.44.22-1.22.22-1.89,0-2,.26-3.89.38-5.83.07-1.24.35-2.05,1.09-1.89s1.26.57,1.17,2.12.29,3.11,0,4.36c-1.14,4.53-.1,8.59.54,12.76a5,5,0,0,1-.26,3c-1.32,2.6-1.44,6.21-2.18,9.29-.35,1.48.56,2.78.8,4.23.69,2.57-.31,4.31-.93,6.09A38.58,38.58,0,0,0,35,355.51a15.52,15.52,0,0,1-2.62,5.59,6.47,6.47,0,0,0-1.12,3.24,54.77,54.77,0,0,0-1.31,5.87,17.11,17.11,0,0,1-3.11,7,10.12,10.12,0,0,0-2.34,5.61C23.61,384.92,22.38,385.19,21.09,385.16Z"/><path id="_Tracciato_9" data-name="&lt;Tracciato&gt;" class="cls-9" d="M12.64,132.7c-.16-1.36-.31-2.73-1.23-2.94s-1.38.84-1.74,2c-.59,1.93-1.53,3.48-1.69,5.87-.08,1.19-.48,1.73-1.11,1.31-.39-.26-.72-.27-.9.53a1.83,1.83,0,0,0,.25,1.29c.28.53.55.82.94.28s.57-1.6,1-.81A3.38,3.38,0,0,1,8,142.94a20.36,20.36,0,0,0-1.58,9.89c0,.86.23,2.34-.48,2.36s-.33-1.41-.47-2.18a30.39,30.39,0,0,1-.21-5.81c0-2,.2-4.16-.82-5.66a2,2,0,0,1,.06-2.41,2.94,2.94,0,0,0-.25-4c-1.31-1.46-1.4-3.15-.85-5.65a13,13,0,0,0-.1-6.87,11.47,11.47,0,0,1,0-5.93,6.75,6.75,0,0,0-.21-4.84c-.7-1.51-.32-3.4-.35-5.11a12,12,0,0,0-1.23-5.84l.6-8.25a9.58,9.58,0,0,1,0-3.58c-.17-2.66.5-5.07.65-7.64.79.28.56,1.28.47,2.27a70.52,70.52,0,0,0,.15,13c.25,2.55.78,5.14.41,8.13-.27,2.2.51,4.88.85,7.33a3.07,3.07,0,0,0,.38.87c.82-2.1,2.58.74,3.23-2.3.33-1.52,1.08-2.58,1.3-4.25.11-.88.33-1.84.9-1.6s1.12.54,1.22,1.89c.36,4.83,1,9.65,1,14.48,0,3,.49,5.81.25,8.75C12.88,130.87,13.11,131.93,12.64,132.7Z"/><path id="_Tracciato_10" data-name="&lt;Tracciato&gt;" class="cls-10" d="M31,364.54a6,6,0,0,1,1.06-4,13.88,13.88,0,0,0,2.81-6.66c.33-2.59,1.45-4.81,2.26-7.17a3.29,3.29,0,0,0,.07-2.84c-1.36-5.14.53-8.92,1.54-13a8,8,0,0,0,.2-4.42,4.11,4.11,0,0,1,0-2.53c1.24-3,.75-6.56,1.08-9.85a2.52,2.52,0,0,0,0-.87c-1.19-3.82-.21-8.08-.69-12a75.53,75.53,0,0,1-.87-9.49c0-1.12-.46-1.49-1-1.21s-1.5-.11-1.47,1.83a12.15,12.15,0,0,1-.67,4.42,5.53,5.53,0,0,0-.17,5.33,5.59,5.59,0,0,1,0,5.2,4.38,4.38,0,0,0-.16,3.48,6.68,6.68,0,0,1-.25,4.89,5.43,5.43,0,0,1-.31.64A6.22,6.22,0,0,1,34,317c-.35.48-.69,1.41-1.16.76a2.92,2.92,0,0,1-.1-2.34,7.08,7.08,0,0,0,.83-5,9,9,0,0,1,.06-2.89,6.84,6.84,0,0,0,.09-3.12c-.45-1.64-.58,2-1,.22-.32-5.31-.78-10.61-.31-16,.82-.85,1-3.63,2.53-2.74a16.52,16.52,0,0,1-1.49-8.32,10.35,10.35,0,0,1,.22-2.29,20.42,20.42,0,0,0,1.1-7.46c0-1.4.48-2.43,1.27-2.39,1,.06,1.94.87,2.23,3,.41,3,.65,6.12,1.2,9.09a10.17,10.17,0,0,0,.71,2.51,12.54,12.54,0,0,1,.17,5.94,7.1,7.1,0,0,0,0,3.4,15.55,15.55,0,0,1,.4,6.51,7.15,7.15,0,0,0,.14,2.87,13.6,13.6,0,0,1,.24,5.14,12.58,12.58,0,0,0,.67,5.74,160.28,160.28,0,0,1-2.2,26.65c-.84,4.67-1.27,9.6-2.46,14.06a8.9,8.9,0,0,0-1.55,5.89l-1.23,3c-1.2,2-2.67,3.67-2.88,7.18,0,.39-.21.64-.46.56A2.76,2.76,0,0,1,31,364.54Z"/><path id="_Tracciato_11" data-name="&lt;Tracciato&gt;" class="cls-11" d="M29.07,33a100.93,100.93,0,0,1,3.38,19.91q1.08,12.24,2,24.52c.13,1.64.15,3.32.13,5,0,4.7.21,9.35.58,14,.23,3-.25,5.89-.07,9,.26,4.41.44,8.89.37,13.41-.11,6.5.2,13,.32,19.52,0,.69,0,1.37,0,2.06-.18.84-.37,1.82-1,.94a5.65,5.65,0,0,1-1.09-3.91c.36-4.27.55-8.45-.81-12.31a8.87,8.87,0,0,1-.31-2.55,33.85,33.85,0,0,0-.15-10.68,10.79,10.79,0,0,1,.27-4.86,12.32,12.32,0,0,0,.11-6.24c-1-4.41-.6-9-.45-13.55a5.6,5.6,0,0,0,.11-1.43c-.94-3.48,0-7.33-.64-10.9a32.41,32.41,0,0,1-.34-5.54,6.34,6.34,0,0,0-.3-2.53c-1.4-2.91-1.29-6.42-.86-9.75a23.89,23.89,0,0,0-1.2-10.54,26.51,26.51,0,0,1-1-12.36C28.3,33.32,28.4,32.35,29.07,33Z"/><path id="_Tracciato_12" data-name="&lt;Tracciato&gt;" class="cls-12" d="M3.26,310.84c.6.56.89.08.86-1.09a67.58,67.58,0,0,1,.81-11.6,11,11,0,0,0-.41-5c-.77-2-.66-3.31.38-4.51a2.31,2.31,0,0,0,.33-2.44c-.75-1.71,0-2.4.49-3.35.52-1.12,1-1.1,1.56,0s.78.16,1.12-.39c.86-1.36,1.49-3.39,2.95-2.78.54.23,1-1.13,1.38-2.12a5,5,0,0,1,1-2.1c0,2.46,0,4.91,0,7.36,0,2.66.07,5.29-.94,7.5a6.41,6.41,0,0,0-.3,1.93c-.24,3.91-.61,4.55-2.75,4.37-.3,0-.63-.39-.83.26-.61,2-1.16,2-2,.32-.48-.92-.94.13-1.26,1.17-.93,3-.92,6.45-1,9.61-.09,2.47-.42,4.72-.67,7s-.17,4.49.75,6a6.94,6.94,0,0,1,.52,5.25,11,11,0,0,0-.11,4.41,6.07,6.07,0,0,1-.69,4.4A151.78,151.78,0,0,1,3.26,310.84Z"/><path id="_Tracciato_13" data-name="&lt;Tracciato&gt;" class="cls-13" d="M33,122.69a10.14,10.14,0,0,0,.23,2c1.52,4.08,1.27,8.53.78,13-.18,1.64.5,2.21.9,3.14s.57-.16.84-.4q.39,11.83,1.35,23.56c.47,5.79.73,11.63,1.11,17.43s.81,11.59,1.31,17.36c.58,6.63.94,13.35.86,20.1,0,1.77,0,3.54,0,5.31-1.61-5.14-1.14-10.86-1.2-16.41a33,33,0,0,0-1.61-9.68,2.32,2.32,0,0,1-.21-.75c.8-4.17-1-7.49-1-11.4,0-2.75-.36-5.53.19-8.21a8.06,8.06,0,0,0-.19-4,18.93,18.93,0,0,1-.59-3.6c-.29-3.42-1.2-6.65-.3-10.32.53-2.18-.65-4-1-6-.63-4.22-.2-8.5-.54-12.69-.06-.66-.2-1.3-.3-1.95-.5-1.48.42-3,.11-4.2-.69-2.74-.31-5.93-1.2-8.58C32.13,125.21,31.84,123.44,33,122.69Z"/><path id="_Tracciato_14" data-name="&lt;Tracciato&gt;" class="cls-14" d="M9.93,35.37c-2,4.14-2.37,9.59-3.1,14.74-.66,1.29-1,.19-.9-.76.29-3.31-.48-6.81.55-10a7,7,0,0,0-.09-4.46c-1.13-2.8-.48-5,.42-7.35a15.11,15.11,0,0,0,.36-11L8.41,10c.4.47.34,1.95,1.08,1.72s.89-1.16,1-2.27A12.23,12.23,0,0,1,11.6,6c.59-1.48,1.3-1.39,2-.34a3.58,3.58,0,0,1,.24,3.78,6.08,6.08,0,0,0-.36,5,6.61,6.61,0,0,1-.12,4.89,2.09,2.09,0,0,0-.19,1.09c.38,4.64-1,8-2.31,11.38A36.74,36.74,0,0,0,9.93,35.37Z"/><path id="_Tracciato_15" data-name="&lt;Tracciato&gt;" class="cls-15" d="M33,122.69c-.56,1.35-.35,2.4,0,4a37.31,37.31,0,0,1,.84,9.91c-.07.86-.13,1.71-.19,2.57a4,4,0,0,1-.19-2.72,4,4,0,0,0,0-2.24c-.95-2.32-.52-5.36-1.22-7.94a17.3,17.3,0,0,1,0-6.78,35.53,35.53,0,0,0-.34-9.17c-.16-1.33-.48-2.54.12-3.84a3.81,3.81,0,0,0,.12-2c-.84-2.44-.15-5.34-.71-7.83a3.38,3.38,0,0,1-.07-1.4C32.5,91.42,31,87.88,31,84.2c-.07-4.39-1.63-8.83-.05-13.28a5.4,5.4,0,0,0-.06-3.86c-1.69-3.79-1.2-8.07-.76-12.29a8,8,0,0,0-.35-3.36C28.25,46,26.68,40.56,27.82,34.07a5.62,5.62,0,0,1,.67-2.26c.2.41.39.81.58,1.22-.93,1.69-1,5.13-.75,7.73.37,3.61,1.8,6.16,2.28,9.66a32.13,32.13,0,0,1,.21,6c-.16,3.5-.84,7.14.79,10.22.58,1.07.37,2.91.35,4.24,0,3.4,1.54,6.59.33,10.13a3.17,3.17,0,0,0,.37,2.12,8.46,8.46,0,0,1,.25,4.17,42.2,42.2,0,0,0,.34,13,12.33,12.33,0,0,1-.18,7.23,7.44,7.44,0,0,0-.27,3.93A28.66,28.66,0,0,1,33,122.69Z"/><path id="_Tracciato_16" data-name="&lt;Tracciato&gt;" class="cls-8" d="M7.17,16.5c1.42.77,1.56,3.62,1.37,5.15-.3,2.27-.43,4.91-1.54,6.79a5.89,5.89,0,0,0-.22,6A7.11,7.11,0,0,1,7,39.4c-1.42,3.23-.07,6.9-.76,10.14-.18.87.28.76.59.57A30.44,30.44,0,0,0,6.52,56c.53,3.29.07,6.73.43,10.06a29.33,29.33,0,0,1,0,3.51C6.9,71,7,72.51,6.88,74c0,.94,0,2.21-.71,2.23s-.61-1.14-.72-2c-.06-.47-.06-1-.1-1.46-.13-1.79-.57-2.88-1.62-2.59.16-2.16-.34-4.43.31-6.49.21-2.1.91-4,.84-6.18a8.72,8.72,0,0,0-.52-3.26,50.1,50.1,0,0,1,.53-9.82c.38-1.88-.2-3.71-.09-5.72C5.19,31.12,6.29,23.86,7.17,16.5Z"/><path id="_Tracciato_17" data-name="&lt;Tracciato&gt;" class="cls-8" d="M9.93,35.37a7.12,7.12,0,0,1,.79-4c.94-1.91,1.18-4.5,1.92-6.59A5.25,5.25,0,0,0,12.82,22a4.82,4.82,0,0,1,.06-2.82c1.27-1.88.48-3.71,0-5.4s-.69-3.29.46-4.39a2.3,2.3,0,0,0,.52-2.18,2.54,2.54,0,0,0-1.16-1.77c-.47-.28-.71.4-.92,1.17a15.34,15.34,0,0,0-1,4c-.1,1.85-1.1,2.24-1.92,2S8.57,10.9,8.41,10a1.67,1.67,0,0,1,.31-1.17c.29.17.54,1.61.87.06a33,33,0,0,1,1-3.23c1.09-3.42,1.84-4,4-3.32h0C16,2.76,17,4,17.66,6.46a5.85,5.85,0,0,1,.15,3.35c-.78,2.27-1.34,4.83-2.59,6.52-1.46,2-1.59,4.06-.65,6.66a10.09,10.09,0,0,1,.31,4.12c-.21.32-.41.37-.62,0-.44-.38-.14-1.49-.59-2.05Z"/><path id="_Tracciato_18" data-name="&lt;Tracciato&gt;" class="cls-16" d="M5.37,346.23c.26-4.72-.39-9.56.57-14.19a5.12,5.12,0,0,0-.3-2.51,2.8,2.8,0,0,1,.17-2.1c1.24-2.78,1.11-4.8-.52-7.22a4.4,4.4,0,0,1-.32-4.7c.42-.88,1-1.93,1.56-1.5s.52,2,.62,3.25c.43,5.81.25,11.68.6,17.49.09,1.65.07,3.33.1,5-1.49,4.59-1,9.15.1,13.66s.48,9-.46,13.43c0,.12-.17.09-.28,0-.36-2.54-1.12-4.89-.93-7.67a5.41,5.41,0,0,0,.22-4.86C5.45,351.9,5.52,349.05,5.37,346.23Z"/><path id="_Tracciato_19" data-name="&lt;Tracciato&gt;" class="cls-7" d="M7.42,85.51c.2,2.48.41,5,.59,7.45.24,3.18-.4,4.19-2,3.17-1.25-.81-2.26-1.68-2.15-5C4,88.58,3.1,86,4,83.33a4,4,0,0,0-.44-3.15c-.39-.56-.47.47-.73.6a43.46,43.46,0,0,1,.92-10c1.6.37,2,1.49,1.46,4.1a12.24,12.24,0,0,0,.05,6.66c.53,1.64,1.18,2.57,2.13,1A3.54,3.54,0,0,1,7.42,85.51Z"/><path id="_Tracciato_20" data-name="&lt;Tracciato&gt;" class="cls-17" d="M7.21,366.88A39.82,39.82,0,0,0,8,356c-.24-2.63-1.18-5-1.41-7.85a26.76,26.76,0,0,1,.45-7.62.84.84,0,0,1,.78-.77v1.18c.36.88-.08,2.07.3,2.94.53,11.33,1.95,22.39,2.76,33.63C9,374.79,8.13,370.81,7.21,366.88Z"/><path id="_Tracciato_21" data-name="&lt;Tracciato&gt;" class="cls-18" d="M41.84,309.68c-1.59.35-.58-2.57-1.18-3.56a6.67,6.67,0,0,1,.1-2.25,10.46,10.46,0,0,0-.22-4.79,9.41,9.41,0,0,1-.1-4,7.43,7.43,0,0,0,.15-2.26c-1.54-4,0-8.5-.57-12.63-1.12-1.29-.51-3.58-.71-5.33a21.75,21.75,0,0,1-.1-4.87,5,5,0,0,0-.57-2.88,7.71,7.71,0,0,1-.84-3,46.62,46.62,0,0,0-.19-4.88c0-.29-.07-.58-.09-.88.18-3.74-.07-7.54.46-11.23,0-.28-.08-.57-.11-.85a13.28,13.28,0,0,1,0-2.6,57.4,57.4,0,0,0,.51-11.07c.38-.67.53,0,.73.44l.3,1.77c.36,1.08.17,2.51.62,3.54v2.36a16.45,16.45,0,0,0-.92,6c-.12,4.16,0,8.32-.16,12.48a16.41,16.41,0,0,0,.13,4.32c.12.36.25.73.37,1.1,1.79,3.17,1.68,7.29,1.52,11.38-.09,2.13.06,3.88,1.18,4.85l0,3c-1,2.62-.91,5.43-.75,8.54.18,3.51.33,7.07.29,10.63a6.77,6.77,0,0,0,.18,2,4.48,4.48,0,0,0,.28.67v.58c-.36.88.06,2.06-.3,3C41.85,309.29,41.85,309.49,41.84,309.68Z"/><path id="_Tracciato_22" data-name="&lt;Tracciato&gt;" class="cls-19" d="M39.1,264.85l-.31-.59a10.56,10.56,0,0,1,.22-3.65,15.52,15.52,0,0,0,0-4c-.56-4.58.24-9.07.37-13.61,0-.85.28-1.77.93-1.12.39,8.45,1.24,16.82,1.23,25.34a9.68,9.68,0,0,1-.08,3.67C40.5,269.07,40.55,265.85,39.1,264.85Z"/><path id="_Tracciato_23" data-name="&lt;Tracciato&gt;" class="cls-20" d="M7.12,82.56c-.06.74.16,1.68-.29,2.13s-.74-.34-1-.84C4.11,81,3.84,78.4,4.91,74.5c.73-2.65-.49-2.86-1.19-3.75,0-.2,0-.39,0-.58.39-.11.17-1.65.63-1.25a3.41,3.41,0,0,1,1.27,2.29c.27,1.48-.11,3.25.87,5.25V70.17c.57,0,.68.89.69,1.61C7.21,75.37,7.46,79,7.12,82.56Z"/><path id="_Tracciato_24" data-name="&lt;Tracciato&gt;" class="cls-17" d="M31,364.54c.05.81-.14,1.74.31,2.36.18.07.28.26.32.6a47.15,47.15,0,0,1-5,12.74,19.67,19.67,0,0,1-2.17,2.57c-.45-.11-.72-.49-.35-1.3.66-1.46,1.1-3.35,2-4.34,2.09-2.27,3.36-5.64,3.94-10.07A4.25,4.25,0,0,1,31,364.54Z"/><path id="_Tracciato_25" data-name="&lt;Tracciato&gt;" class="cls-15" d="M41.85,305.56c-.18-.34-.53-.74-.51-1,.3-2.74-.56-5.4-.32-7.92a28.06,28.06,0,0,0-.19-6.91,7.66,7.66,0,0,1,1.32-6c.47,6.28-.2,12.57,0,18.85C41.78,303.49,42.22,304.67,41.85,305.56Z"/><path id="_Tracciato_26" data-name="&lt;Tracciato&gt;" class="cls-21" d="M39.1,264.85c1.87,0,1.4,3.74,2.32,5.4a15.91,15.91,0,0,0,.16-3.06c.38,4.5.6,9,.59,13.59-1.08.33-1.87-1.28-1.65-3.63.2-2.16.07-4.3.12-6.45A13,13,0,0,0,39.1,264.85Z"/><path id="_Tracciato_27" data-name="&lt;Tracciato&gt;" class="cls-21" d="M40.35,241.85c-1.19,1.89-.7,4.64-.87,7-.24,3.18-.75,6.39.17,9.73.51,1.84-.81,3.65-.86,5.73a3,3,0,0,1-.3-1.85c.36-4.48-.29-9,.28-13.51a17.54,17.54,0,0,0-.08-3.46c-.19-2.16.13-4,1.36-4.77Z"/><path id="_Tracciato_28" data-name="&lt;Tracciato&gt;" class="cls-22" d="M5.37,346.23A12.55,12.55,0,0,1,6,350.69a3.92,3.92,0,0,0,.46,2.39c1.53,1.45.73,3.91.73,5.9,0,2.37-.56.51-.9.23a73.86,73.86,0,0,1-1.51-13Z"/><path id="_Tracciato_29" data-name="&lt;Tracciato&gt;" class="cls-23" d="M21.69,13a7.08,7.08,0,0,1-1.28-2.73c-.65-2.36-1.28-4.77-2.54-6.32-.37-.46-1.52-1.82.13-2.17,1.67,1.41,2.63,4.07,3.4,7.07C20.78,10.37,22,11.47,21.69,13Z"/><path id="_Tracciato_30" data-name="&lt;Tracciato&gt;" class="cls-24" d="M14.59,2.34c-2.28,0-4,2.59-4.76,7-.1.6.32,1.82-.43,1.69s-.69-1.23-.68-2.24c.89-2.36,1.53-5.09,2.92-6.69.55-.63,1.07-1.11,1.71-1C13.61,2.11,14.32,1.39,14.59,2.34Z"/><path id="_Tracciato_31" data-name="&lt;Tracciato&gt;" class="cls-25" d="M4.36,54.24c1,1.47,1.3,4.08.56,6.6A4.94,4.94,0,0,0,4.56,64c.11.36.15,1.14-.22,1.08s-.25-.9-.3-1.42C4.12,60.53,3.82,57.33,4.36,54.24Z"/><path id="_Tracciato_32" data-name="&lt;Tracciato&gt;" class="cls-26" d="M31.62,367.5l-.32-.6c-.11-4.24,1.24-6.33,3.1-7.67C33.45,362,32.78,365,31.62,367.5Z"/><path id="_Tracciato_33" data-name="&lt;Tracciato&gt;" class="cls-26" d="M35.63,356.28c-1.06-.43-.32-1.69-.22-2.42.22-1.73.46-3.67,1.77-3.47A16.65,16.65,0,0,1,35.63,356.28Z"/><path id="_Tracciato_34" data-name="&lt;Tracciato&gt;" class="cls-6" d="M2.93,304.37c0-.28.11-1,.28-.53a5.73,5.73,0,0,1,0,4A18.34,18.34,0,0,1,2.93,304.37Z"/><path id="_Tracciato_35" data-name="&lt;Tracciato&gt;" class="cls-23" d="M16.45,1.15c-.8,1.16-1.21.73-1.24-1.15Z"/><path id="_Tracciato_36" data-name="&lt;Tracciato&gt;" class="cls-9" d="M40.05,238.31c-.86-.77-.56-2.27-.62-3.54h.31A17.21,17.21,0,0,1,40.05,238.31Z"/><path id="_Tracciato_37" data-name="&lt;Tracciato&gt;" class="cls-1" d="M2.16,89V92.6A4.92,4.92,0,0,1,2.16,89Z"/><path id="_Tracciato_38" data-name="&lt;Tracciato&gt;" class="cls-10" d="M41.85,309.1c.07-1-.2-2.12.3-3C42.09,307.15,42.36,308.27,41.85,309.1Z"/><path id="_Tracciato_39" data-name="&lt;Tracciato&gt;" class="cls-10" d="M41.85,305.56c.07-1-.2-2.12.3-3v3Z"/><path id="_Tracciato_40" data-name="&lt;Tracciato&gt;" class="cls-9" d="M40.35,228.27a3.37,3.37,0,0,1,0-2.94C40.36,226.31,40.36,227.29,40.35,228.27Z"/><path id="_Tracciato_41" data-name="&lt;Tracciato&gt;" class="cls-12" d="M19.3,303.77a37.45,37.45,0,0,0-.64,9.3c.09,6.5-.16,13,.55,19.52a103,103,0,0,1,.06,10.7,3.9,3.9,0,0,0-1.5,2.79c-1-2.44-.56-5.55-1.66-7.6-.44-.81.07-1.89.42-2.54a4.73,4.73,0,0,0,.34-3.71c-.74-2.52-.33-5.79-1.45-8.1a3.55,3.55,0,0,1,0-1.67,85.64,85.64,0,0,0,1.15-15.78,4,4,0,0,0-.75-2.7c-1.12-1.29-1.28-3.06-.89-5.31a15.47,15.47,0,0,0,0-6,9,9,0,0,1,.13-4.49,6.88,6.88,0,0,0,0-3.66,13.64,13.64,0,0,1,.18-7.25,17.59,17.59,0,0,0,.75-6.7,25.93,25.93,0,0,1,.17-6.62c.31-1.67.75-3.71-.13-5.54a2.57,2.57,0,0,1,.33-2.06c1.34-2.52,1.08-5.36.31-8.12a6,6,0,0,1,.16-4,12.49,12.49,0,0,0,.51-6.63,4.2,4.2,0,0,1-.11-1.69c1-2.78,0-5-.36-7.56a12.18,12.18,0,0,1,0-5.1,12.77,12.77,0,0,0,.27-5.18c-.57-3.61.05-6.76.72-9.95A7,7,0,0,0,17.7,204c-1.1-3-.38-7.8,1.31-9.49.75-.76.91.18,1,1.27a149.07,149.07,0,0,1,.35,15,3.47,3.47,0,0,0,.28,1,28.36,28.36,0,0,0,0,7.81,11.44,11.44,0,0,1,0,3.2,33.55,33.55,0,0,0-.24,8.07c.39,4.13-.52,8.1-.33,12.18a4.83,4.83,0,0,1,.13,2.18c-.18.46-.44.43-.69.37-1-.22-1.27.82-.92,2.3a13.56,13.56,0,0,1-.23,6.77,15.54,15.54,0,0,0-.32,7.35,3.73,3.73,0,0,1,.1,1.44,26.74,26.74,0,0,0,.06,11.09c.42,2.07-.78,3.53-1,5.32s.82,3.3.19,5.49c-1.23,4.29-.15,8,1.18,11.48.34,1.26.32,2.78,1,3.85S19.63,302.78,19.3,303.77Z"/><path id="_Tracciato_42" data-name="&lt;Tracciato&gt;" class="cls-27" d="M7.12,82.56c-.38-4.1,0-8.33-.61-12.39.23-4.72-.69-9.44,0-14.16a26.53,26.53,0,0,0,.79-3.13c.33-2.41,1.07-2.38,2.12-1.83.86.46,1.07,1.2.75,2.7-.17.8-.5,2.18-.07,2.39,1,.49,1.5,2.46,2.47,2.67.5.1.55-1.17.59-1.82.2-3.21,1.28-5.73,1.78-8.69.22-1.32.82-1.31,1.4-.82a6.6,6.6,0,0,1,2.85,4.06,5.3,5.3,0,0,0,.91,1.53c.28-.13.4,0,.31.59-.65,2.81-.13,5.68.13,8.34.36,3.7.37,7.47.78,11.13-1.07.24-1.24,3.21-2.47,3a5.81,5.81,0,0,1,.6-3.41,3.93,3.93,0,0,0-.09-3.36,4.67,4.67,0,0,1-.17-.76c-.25-2.78.13-5.71-.55-8.4a4.89,4.89,0,0,1,.11-1.73c.56-4.14-.15-6.91-2.35-8.76,1,1.48.84,2.93,0,3.81-1.76,1.81-2.09,4.41-1.7,7.93.3,2.72-.09,3.09-2,2.56-1.27,0-2.15,1-2.5,3.48A11.17,11.17,0,0,1,8.8,71.26,8.21,8.21,0,0,0,8,74.06a19.11,19.11,0,0,0-.25,3.4l0,.38A7.48,7.48,0,0,0,8,82.45c.64,1.4.3,2.49-.57,3.06C7.35,84.51,7.63,83.38,7.12,82.56Z"/><path id="_Tracciato_43" data-name="&lt;Tracciato&gt;" class="cls-28" d="M7.74,74.3a5.9,5.9,0,0,1,.46-3,14.94,14.94,0,0,0,1.86-5.49,2.79,2.79,0,0,1,2.63-2.76c.42.61.86,1,1.41.89,1.11-.19,1.43-1.2,1.07-3.43-.54-3.33-.22-5.08,1.24-6.62,1.25-1.33,2.63-.15,2.48,2.49-.22,4.12.6,8,.43,12.06-.54,1.45-.67,0-.77-.5a28.62,28.62,0,0,1-.73-7.13,11.72,11.72,0,0,0-.18-3.46c-.16-.66-.39-1.18-.83-.92a1.61,1.61,0,0,0-.52,1.58c.08,1,.27,1.89.42,2.82.49,2.92.23,3.89-1.26,4.79-.37.23-.91.1-1,1.09a2.1,2.1,0,0,0,.74,1.71,11.16,11.16,0,0,1,2.34,4.74c.35-1.93.76-3.34,1.57-4.13.07-.17.15-.25.23-.21s.13.08.13.13a4,4,0,0,1-.23,2.92,27.14,27.14,0,0,0-.7,4.16l-.31.59c-1.26-.66-1.92-2.8-2.77-4.39-.41-.77-.74-1.37-1.22-1-1.54,1.29-3.53.19-4.72,3.36A5.86,5.86,0,0,0,9,77c0,2.34-.61,1.67-1.23.85A9,9,0,0,1,7.74,74.3Z"/><path id="_Tracciato_44" data-name="&lt;Tracciato&gt;" class="cls-4" d="M13.17,241.24c-1.05-1.75-1.05-4.69,0-7.08C13.18,236.52,13.17,238.88,13.17,241.24Z"/><path id="_Tracciato_45" data-name="&lt;Tracciato&gt;" class="cls-12" d="M16.68,346.77a6.18,6.18,0,0,1,.61,4.29c-.07.4-.41.38-.51,0A12.69,12.69,0,0,1,16.68,346.77Z"/><path id="_Tracciato_46" data-name="&lt;Tracciato&gt;" class="cls-16" d="M8.15,343.87c-.51-.82-.23-1.95-.3-2.94C8.36,341.75,8.08,342.88,8.15,343.87Z"/><path id="_Tracciato_47" data-name="&lt;Tracciato&gt;" class="cls-18" d="M38.51,232.41c.84,3.4.25,6.79-.1,10.13-.15,1.36-.2,2.68-.22,4-1.34-.08-2-1.68-1.31-3.93a12.6,12.6,0,0,0-.8-9.55c-.55-1.26-.62-3.2-1.26-4.57a2.63,2.63,0,0,1,.32-2.34c2.09-2.61,1.33-6.07.77-9.37-.18-1.08-.18-3.09-1-2.9s-.63,2.23-.62,3.29c0,4.61-1.18,8.9-.9,13.54.05.88-.19,1.31-.64,1.19-1.39-.37-1.33,1.25-1,2.91.35,2,0,4.3.33,6,.91,4.89,1,10,1.39,15,.12,1.47.17,2.91.21,4.38a49.33,49.33,0,0,0,.48,8.43,17.19,17.19,0,0,1-.13,4.95c-.32,3.26-.74,6.5-.18,9.85a7.65,7.65,0,0,1-.58,3.81c-.73-.11-.66-1.38-.95-2.1a6.59,6.59,0,0,1-.2-2.56,23,23,0,0,0,.19-9.06,6.1,6.1,0,0,1-.1-2,7.28,7.28,0,0,0,.15-1.73c-.47-4.31-.12-8.95-1.27-12.95-.59-2,.25-4-.18-6.12-.59.51-.48,1.42-.42,2.21.11,1.55.29,3.08.42,4.62a9.28,9.28,0,0,1-.69,5.13c-.88,1.7-.47,4.39-1.18,6.26-.14.19-.27.18-.4,0-.87-1.64-.39-3.51-.15-5.19a56.14,56.14,0,0,0,.37-15,11.48,11.48,0,0,1,.28-4.29,7.29,7.29,0,0,0,.13-3.86c-1.08-5.16-.11-10.52-.47-15.79C28.1,215,28,205,27.11,195.24c1.1-.44,1.88-.22,1.54,2.57a1.82,1.82,0,0,0,.41,1.45c.28-1.18.3-2.47.52-3.66.14-.8.38-1.41.88-1.27s.5.79.56,1.51c.23,2.84.25,2.87,1.53,1.66a.9.9,0,0,1,1.46.09c.71.78,1.45,1.44,2.16,2.2,1.16,1.24,2.45,7.81,2,10.16-.39,1.89.56,2.74.7,4.17a13.86,13.86,0,0,0,.3,7.08c.3,2.34.34,4.59-.62,6.49v.59C37.92,229.66,39,231,38.51,232.41Z"/><path id="_Tracciato_48" data-name="&lt;Tracciato&gt;" class="cls-9" d="M38.83,214.12a5.82,5.82,0,0,1-.71-5.17c.26-.91-1.65-8.51-2.17-8.67-.88-.26-1.45-1.36-2.14-2.15-.48-.56-1-.77-1.34.32s-.72,2-1.33,1.28a5.33,5.33,0,0,1-.61-3.14c0-.59.47-1.47-.08-1.73s-.5.88-.58,1.59-.15,1.13-.24,1.69c-.13,1,.08,2.74-.69,2.38-.46-.21-.73-2-1-3.14a6.63,6.63,0,0,1,.73-1.09l-1.54-1c-.76-6.62-1.49-13.24-2.28-19.84a36.51,36.51,0,0,1-.17-3.76c.47-1.65,1.11-1.86,1.9-.86a3.57,3.57,0,0,0,.55.55c2,1.7,3.06.45,3-3.68a7,7,0,0,0-.31-2.74,7.33,7.33,0,0,0-.2,2.7c-.19,2.38-.78,3.12-1.85,1.89-.61-.7-1-.29-1.55.06s-1,1-1.57.9c-.31-.79.15-1.57,0-2.36a1.88,1.88,0,0,0-.31-1.77.86.86,0,0,1,0-1.18c.68.4,1.3.28,1.82-.8.23-.48.55-1.22.9-.62.91,1.52,1.49,0,1.94-.92.67-1.26-.57-1.76-.53-3,.95-.53,1,1.61,1.71,2.15a9,9,0,0,0-.19-3.57,11.59,11.59,0,0,1-.36-1.92c0-.93-.28-2.18.21-2.74s.72.78,1.11,1.18a1.62,1.62,0,0,1,.52,2.15c-.44,1,0,1.86,0,2.77,0,.61.1,1.29.44,1.42.6.24.4-.82.53-1.36.22-.94.44-1.71,1.14-1.36s.59,1.13.48,2.21c-.28,2.63.11,5.49-.95,7.85-.26.57,0,1.38.55.82.3-.33.6-1,.92-.21a2.22,2.22,0,0,1-.23,1.82c-.68,1.35-.08,2,.32,2.91,1.09,2.43,1,2.93-.41,4.28a1.47,1.47,0,0,0-.16,2.26c.21.26.58.51.59.82.25,5.12,2.45,9.11,2.19,14.58-.16,3.36,1.09,6.14,1.56,9.28.15,1,.65,2.18.36,3C38,210.28,38.62,212.15,38.83,214.12Z"/><path id="_Tracciato_49" data-name="&lt;Tracciato&gt;" class="cls-29" d="M28.6,269h.31c.92.54,1.09,2,1,3.5-.26,5.13,0,10.28-.3,15.4a15,15,0,0,1-.29,2.26c-.55,2,.08,3.67.55,5.2a9,9,0,0,1,.13,5.57c-1.33,3.77-.69,8-.89,12a15,15,0,0,1-.68,5,4.27,4.27,0,0,0-.36,3c1.41,3.77.49,7.77.38,11.68-.06,2.54-.34,5.08.36,7.47a28.66,28.66,0,0,1,0,5.93,14.51,14.51,0,0,0-.34,4.82,6.05,6.05,0,0,1-.6,3.18c-1.85,1.71-2.24,1.35-2.13-2.47.09-3.24-.18-6.59.78-9.64a13,13,0,0,0,.19-3.43c0-2.83-.35-5.65.68-8.45a11.56,11.56,0,0,0,0-6.49,13.18,13.18,0,0,1-.21-7.52c.76-3.3.35-6.52.25-9.73a12.64,12.64,0,0,1,.56-4.93c.85-2.37,1.49-4.79,0-7.24a4,4,0,0,1-.08-3,26.56,26.56,0,0,0,.25-10.85,9.56,9.56,0,0,1,.34-5.56C29.28,272.8,28.65,270.86,28.6,269Z"/><path id="_Tracciato_50" data-name="&lt;Tracciato&gt;" class="cls-27" d="M21.33,76.67A110.76,110.76,0,0,1,22,89.33c.12,7.78.35,15.53.76,23.28a113.16,113.16,0,0,1-.24,13c-.51-5.24-1.12-10.44-1.51-15.71-.53-7.24-.6-14.57-1.19-21.81-.2-2.46,0-5-.07-7.55S21.09,78.37,21.33,76.67Z"/><path id="_Tracciato_51" data-name="&lt;Tracciato&gt;" class="cls-20" d="M27.91,353.91a11.6,11.6,0,0,0,.11-4,5.1,5.1,0,0,1,.52-3.7c.54-2.44.8-5.11,1.69-7.25.37-.09.77-.35.74-1.16a17.92,17.92,0,0,1,1.1-5.92c.75-2.71.23-5.76.56-8.6.08-.66-.63-.54-.62-1.39,0-2.43.12-4.85.14-7.27,0-1-.1-2.45.79-2.64a4.74,4.74,0,0,1,0,3.55l.06,2.21,1.48-2.2c0,2.6-.44,5.11-.62,7.67,0,1.08-.4,2,0,3.29.35,1.07,0,2.8-.31,4.16a27.63,27.63,0,0,0-1,7.59,7.83,7.83,0,0,1-1,3.58A16.47,16.47,0,0,0,30.07,350a2,2,0,0,1-.58,1.85c-.73.49-1.09,1.72-1.58,2.71Z"/><path id="_Tracciato_52" data-name="&lt;Tracciato&gt;" class="cls-30" d="M20,245.37V243c2.11,2.28,1.48,5.18.8,8.63-.45,2.33-.15,5.2-.19,7.82,0,.9.33.69.61.86.65.39,1.08,1.19.78,2.62-.14.68-.24,1.63-.76,1.61s-.17-1.24-.6-1.65c-.69,1.7-.2,3.68-.35,5.48-.18.19-.34.18-.51,0a11.1,11.1,0,0,1-.79-5.18c.26-5.12.23-10.27.54-15.39A5.53,5.53,0,0,1,20,245.37Z"/><path id="_Tracciato_53" data-name="&lt;Tracciato&gt;" class="cls-3" d="M24.65,170.46c.61-1.06,1.5-1.22,2.08-2.4.31-.62.74-.84,1,.23s.59,1.64,1.05,1.24.57-1.56.52-2.58a13.27,13.27,0,0,0-.19-1.41c-.2-1.17.17-1.68.65-1.89s.75.54.76,1.38a45.59,45.59,0,0,1,0,5.85c-.29,2.35-1.53,1.83-2.41,1.85a2.41,2.41,0,0,1-1.67-1.29c-.69-1.12-1.18-.62-1.73.2C24.66,171.25,24.66,170.86,24.65,170.46Z"/><path id="_Tracciato_54" data-name="&lt;Tracciato&gt;" class="cls-31" d="M20,268.38h.31a168.15,168.15,0,0,1-.56,19.71,99.16,99.16,0,0,0,.17,12.66c.06,1.21.15,2.37-.57,3,.17-1.35.57-2.55-.62-3.31-.67-.42-.19-2.47-.3-3.77,0-.14,0-.28.05-.43a36.62,36.62,0,0,0,0-11.82c.49-4.9,1-9.8,1.15-14.8A2.56,2.56,0,0,1,20,268.38Z"/><path id="_Tracciato_55" data-name="&lt;Tracciato&gt;" class="cls-1" d="M18.55,76.08a7.18,7.18,0,0,1,.46-4.8A4.86,4.86,0,0,0,19.48,69c.92,1,1.22,2.11.35,3.84a21.41,21.41,0,0,0-1,3.24Z"/><path id="_Tracciato_56" data-name="&lt;Tracciato&gt;" class="cls-27" d="M22.53,125.63c.65,2.07.14,4.34.3,6.49C22.18,130.05,22.69,127.78,22.53,125.63Z"/><path id="_Tracciato_57" data-name="&lt;Tracciato&gt;" class="cls-3" d="M24.35,166.33c.28.08.66-.19.79.51a1.29,1.29,0,0,1-.48,1.26C24.56,167.51,24.45,166.92,24.35,166.33Z"/><path id="_Tracciato_58" data-name="&lt;Tracciato&gt;" class="cls-23" d="M20.42,53.66l-.31-.59A36.21,36.21,0,0,0,19.34,46c-.45-1.58.31-3.06,0-4.56-.48-2.63.79-2.33,1.4-2.86,1.36-1.2,1.69-4.45,3.18-5.48.47-.33,0-2.3.22-3.32A14.75,14.75,0,0,0,22.6,18.9,9.19,9.19,0,0,1,21.69,13a44.2,44.2,0,0,0,2.88,8.37,10.87,10.87,0,0,1,.52,3.33,11.68,11.68,0,0,0,1.07,4.83c.79,1.58,1.71,4.11.34,6.62a3.09,3.09,0,0,0-.12,1.63c.78,2.43.12,5,.19,7.45.08,2.74-1.1,4.31-2.46,3.36-.72-.51-1.22-.5-1.46.92A6.81,6.81,0,0,1,20.42,53.66Z"/><path id="_Tracciato_59" data-name="&lt;Tracciato&gt;" class="cls-9" d="M38.51,227.69a19.5,19.5,0,0,0,.62-6.49C39.57,223.59,39.9,225.94,38.51,227.69Z"/><path id="_Tracciato_60" data-name="&lt;Tracciato&gt;" class="cls-9" d="M38.51,232.41c0-1.38-.71-2.75,0-4.13-.13,1.73.74,3,.62,4.72Z"/><path id="_Tracciato_61" data-name="&lt;Tracciato&gt;" class="cls-24" d="M14.57,23c-1.32-1.74-1.32-5.77.11-7,1.64-1.38,2-4.58,2.91-6.88.47-1.13-1-5.21-1.88-5.56a1.43,1.43,0,0,1-1.12-1.23c1.42-.44,2.53.27,3.1,3,.25,1.24.95,1.61,1.39,2.46.91,1.76.39,4,1,5.87a41.6,41.6,0,0,0,1.88,5.52c.84,1.76.29,3.88-.25,5.39-.93,2.55-2.57,2.57-3.9,2.17s-2.11-2.28-2-5.17c.06-1.42-.35-2.8-1.12-2.47s-.36,1.74-.24,2.75C14.48,22.23,14.53,22.61,14.57,23Z"/><path id="_Tracciato_62" data-name="&lt;Tracciato&gt;" class="cls-18" d="M14.26,27.12h.62c.57,0,.88.9,1.33,1.3a1.39,1.39,0,0,1,.42,1.11c0,.58-2.27,4-2.71,4-.71,0-.93-1.21-1.09-2.1-.34-1.84,0-3.2,1.08-3.74C14,27.57,14.15,27.29,14.26,27.12Z"/><path id="_Tracciato_63" data-name="&lt;Tracciato&gt;" class="cls-32" d="M33.81,323.25a17.78,17.78,0,0,1,.62-7.67c.94-.74.91-2.34.74-3.74-.3-2.36-.27-4.29.76-6.14a5.33,5.33,0,0,0,0-4.29c-.54-1.36-1.25-2.69-.83-4.71.23-1.62,1-3.07.43-5a1.33,1.33,0,0,1,0-.56c.52-2.41,1.82-.79,2.69-1.81.4-.49.85,1.32.83,2.33a54.62,54.62,0,0,0,.66,8.14,26.79,26.79,0,0,1,.17,8,5.36,5.36,0,0,0,.37,3.77c.83,1.41.13,3,.08,4.43-.11,2.67.41,5.64-.92,7.87a4,4,0,0,0-.25,2.5,14.09,14.09,0,0,1-1.25,8.78c-1,2.34-.82,4.92-.69,7.55,0,.39,0,.78,0,1.18-.45-1-.36-2.64-1-3.51a1.49,1.49,0,0,1,0-1.32c1.3-2.87.83-7.47,2.63-9.88a1.51,1.51,0,0,0,.16-.76c-1-2-.09-5.15-1.21-7a3.22,3.22,0,0,1-.19-2.62c.75-2.85.62-6,.79-9,.08-1.45-.55-1.11-.94-1.35-.61-.38-.66.11-.62,1.19.1,2.51-1,5-.06,7.58a.9.9,0,0,1-.09.49C34.84,317.9,35,321.8,33.81,323.25Z"/><path id="_Tracciato_64" data-name="&lt;Tracciato&gt;" class="cls-26" d="M32.6,284.91c.4.35.19,1.26.47,1.82a11.85,11.85,0,0,0,.26-4.66c-.25-3.19.23-6.39.38-9.59a19.23,19.23,0,0,0-.24-5.06,38.65,38.65,0,0,1-.23-6.62c0-2.13.15-4.29-.58-6.23a3.7,3.7,0,0,1-.16-2.23,12.35,12.35,0,0,0-.42-7.43,11.54,11.54,0,0,1-.43-5.6A12.13,12.13,0,0,0,31.3,235a6.7,6.7,0,0,1,.1-3.9c.54-1.18,1.11.42,1.83.18-.74-2-.16-3.76,0-5.7.19-2.25.76-4.48.48-6.88-.19-1.7.55-3.17.41-4.94,0-.25.38-1.74.94-1.58s.58,1,.78,1.71A69,69,0,0,1,37.11,222c.28,1.83-.65,3-1.31,4-.79,1.2-1.27,2.2-.09,3.45a1.73,1.73,0,0,1,.4,1.66,2.35,2.35,0,0,0,.28,1.79,10.76,10.76,0,0,1,1,9.24c-.65,2.05-.63,3.75.82,4.44a43.5,43.5,0,0,0-.32,11.8V259c.4,1.71-.12,3.61.3,5.31a3.74,3.74,0,0,0,.69,2.18c.72,1.18.77,2.52.77,4.35a61.4,61.4,0,0,0,.39,9.4.94.94,0,0,1-.83-1.05c0-2.88-1.09-5.23-1-8.14a14.65,14.65,0,0,0-.29-2.56c-.32-1.91-1.19-2.44-2.06-2.26s-.78,1.91-.69,3.08a10.35,10.35,0,0,1-.74,5.09c-1,2.25-.72,6.94.29,9.06.63,1.31.4,3,.78,5.12-1-2.46-1-2.48-2-.26-.27.62-.52.39-.81.17A4.26,4.26,0,0,1,32.6,284.91Z"/><path id="_Tracciato_65" data-name="&lt;Tracciato&gt;" class="cls-20" d="M35.06,296.7a10.54,10.54,0,0,0,1.2,4.31,4.91,4.91,0,0,1,.2,4.63c-1.45,2.21-1.05,5-1.09,7.67,0,1.27,0,2.42-.94,2.27a5.91,5.91,0,0,0,.11-5,4,4,0,0,1,.38-3.84,3.83,3.83,0,0,0,.1-4c-.1-.22-.16-.51-.26-.72C33.77,300.05,33.74,298.24,35.06,296.7Z"/><path id="_Tracciato_66" data-name="&lt;Tracciato&gt;" class="cls-30" d="M32.87,312c-.3-2.36.12-4.7,0-7.05.53-.55.07-1.86.53-2.55a6.12,6.12,0,0,1,.61,5.31,7.18,7.18,0,0,0,0,3.06c.15,2,.39,4.22-1.15,4.79C32.88,314.38,32.88,313.2,32.87,312Z"/><path id="_Tracciato_67" data-name="&lt;Tracciato&gt;" class="cls-18" d="M37.87,258.37c-.81-4-1-8,.32-11.8a2.27,2.27,0,0,1,.27,1.8C37.35,251.53,38.46,255.13,37.87,258.37Z"/><path id="_Tracciato_68" data-name="&lt;Tracciato&gt;" class="cls-18" d="M38.17,264.26c-.61-1.66-.16-3.54-.3-5.31C38.49,260.62,38,262.5,38.17,264.26Z"/><path id="_Tracciato_69" data-name="&lt;Tracciato&gt;" class="cls-15" d="M20,268.38a102.11,102.11,0,0,1-1.25,16.51,31.38,31.38,0,0,1-.32,11.8c-.76,0-1.37-.31-1.13-2.18a2.94,2.94,0,0,0-.2-1.65c-1.39-2.77-.62-5.53,0-8.23.26-1.07.49-2.2-.07-2.89-1.17-1.47-.51-2.48.13-3.58a6.58,6.58,0,0,0,.4-5.07,15.85,15.85,0,0,1-.1-8.09,4.72,4.72,0,0,0,.2-2.49c-.92-3.35-.3-6.37.53-9.38a7.59,7.59,0,0,0,0-4.43,4.67,4.67,0,0,1,0-3.74c.7-1.37,1.19.12,1.78.41-.29,5.47-.1,11-.6,16.45A25.14,25.14,0,0,0,20,268.38Z"/><path id="_Tracciato_70" data-name="&lt;Tracciato&gt;" class="cls-1" d="M19.17,69c-.09-4.36-.64-8.62-.66-13,0-1.78-.74-2.76-1.73-1.59a4.94,4.94,0,0,0-1.39,5.24c.34,1.34,1.16,3.09.32,4.08s-2.13,1.49-3-.62c1.76.87,1.87.83,1.52-2.71-.34-3.36.12-5.68,1.74-7.17a1.93,1.93,0,0,0,.1-3.16,1.37,1.37,0,0,1-.37-1.6c.36-.88.57.22.87.39,1.7,1,3.06,3.67,2.81,6.49C19,60,19.85,64.46,19.48,69Z"/><path id="_Tracciato_71" data-name="&lt;Tracciato&gt;" class="cls-7" d="M8.58,61a2.83,2.83,0,0,1-.82-2.54c0-.86.2-1.28.68-.94s1.19.39,1.11,1.91A1.77,1.77,0,0,1,8.58,61Z"/><path id="_Tracciato_72" data-name="&lt;Tracciato&gt;" class="cls-1" d="M7.74,74.3v3.54A4.62,4.62,0,0,1,7.74,74.3Z"/><path id="_Tracciato_73" data-name="&lt;Tracciato&gt;" class="cls-33" d="M17.76,74.48c-1-2.43-1.82-4.8-3.3-6a3.14,3.14,0,0,1-.7-2.18c0-1.29.72-.85,1.1-1.06,1.95-1.08,1.89-1,1.35-4.85-.2-1.4-1.09-3.12.15-4.55.66-.76,1.11-.8,1.52.54a8.11,8.11,0,0,1,.37,3.09,27.52,27.52,0,0,0,.59,8c.27,1.37.46,2.56-.4,3.7C18,71.72,17.91,73.19,17.76,74.48Z"/><path id="_Tracciato_74" data-name="&lt;Tracciato&gt;" class="cls-34" d="M32.29,282.55a99.8,99.8,0,0,0-1.19-10.2c0,7.39-.53,13.87-.38,20.43a6.79,6.79,0,0,1-.28,3.34c-1.21-1.31-1.71-3.3-1.55-5.91a72.66,72.66,0,0,0,.41-11.44,21.57,21.57,0,0,1,.07-4,10.44,10.44,0,0,0-.46-5.77c.24-2.82.18-5.67,1.45-8,.72-1.33,0-3.66-.06-5.53-.07-1.33-.33-2.59-.34-4,0-1.64.53-1.8,1.06-1.85.84-.08.51,1,.4,1.82a22.69,22.69,0,0,0,1,9.28,3.23,3.23,0,0,1,.14,1.35c-1,3.53,1.17,7.18-.13,10.67,1.31,2.05.31,4.73.5,7.09C33,280.87,32.94,282,32.29,282.55Z"/><path id="_Tracciato_75" data-name="&lt;Tracciato&gt;" class="cls-12" d="M28.89,290.21a14.44,14.44,0,0,0,1.55,5.91q0,22-1.9,43.64c-1.21-2.22-.62-5-.45-7.41s0-5.07.44-7.53A3.59,3.59,0,0,0,28,322.5a5.37,5.37,0,0,1,.05-5.12c.61-1.19.51-2.65.63-4.18.3-3.9-.7-8.08.76-11.78a8.41,8.41,0,0,0,0-5.94C29,294.11,28.09,292.34,28.89,290.21Z"/><path id="_Tracciato_76" data-name="&lt;Tracciato&gt;" class="cls-35" d="M30.39,339.16c.34-5.62,1.44-10.92,1.88-16.5.31-.19.38-1.4.85-.81s.19,1.1,0,1.68a7.27,7.27,0,0,0-.18,2.84,18.75,18.75,0,0,1-1.19,8.22,5,5,0,0,0-.21,3,3.2,3.2,0,0,1-.68,2.4C30.55,340.39,30.44,339.63,30.39,339.16Z"/><path id="_Tracciato_77" data-name="&lt;Tracciato&gt;" class="cls-12" d="M18.38,296.69a72.51,72.51,0,0,0,.32-11.8,2.53,2.53,0,0,1,.62,1.84c.07,2.65-.33,5.29,0,8A2,2,0,0,1,18.38,296.69Z"/></g></g></g></g></svg>