<svg xmlns="http://www.w3.org/2000/svg" viewBox="0 0 263.85 61.5"><defs><style>.cls-1{fill:#ffecd3;}.cls-2{fill:#fff0dd;}.cls-3{fill:#fee7c8;}.cls-4{fill:#fee6c4;}.cls-5{fill:#fee5c1;}.cls-6{fill:#fee3ba;}.cls-7{fill:#fff0dc;}.cls-8{fill:#fff7ed;}.cls-9{fill:#fee8cb;}.cls-10{fill:#fff0de;}.cls-11{fill:#fee1ba;}.cls-12{fill:#fee8ca;}.cls-13{fill:#fee3be;}.cls-14{fill:#fffdf9;}.cls-15{fill:#fee5c2;}.cls-16{fill:#ffefd9;}.cls-17{fill:#fff2e2;}.cls-18{fill:#feead0;}.cls-19{fill:#fee4bd;}.cls-20{fill:#fff4e4;}.cls-21{fill:#ffe8c6;}.cls-22{fill:#fee9ce;}.cls-23{fill:#ffebd1;}.cls-24{fill:#fff3e1;}.cls-25{fill:#fff1e0;}.cls-26{fill:#ffecd6;}.cls-27{fill:#ffeed8;}.cls-28{fill:#ffe9ca;}.cls-29{fill:#ffecd4;}.cls-30{fill:#ffecd5;}.cls-31{fill:#ffebd2;}.cls-32{fill:#fff5e6;}.cls-33{fill:#fee6c3;}.cls-34{fill:#fee6c6;}.cls-35{fill:#ffefdb;}</style></defs><title>Risorsa 5</title><g id="Livello_2" data-name="Livello 2"><g id="Colori"><g id="_Gruppo_clip_" data-name="&lt;Gruppo clip&gt;"><g id="_Gruppo_" data-name="&lt;Gruppo&gt;"><path id="_Tracciato_" data-name="&lt;Tracciato&gt;" class="cls-1" d="M55.66,57.52h-.41c-1-.34-1.14-.92-.36-1.7a2,2,0,0,1,2.27-.47c1.94.89,3.81.12,5.72-.07a2.27,2.27,0,0,0,2-1.63c.31-.81.83-1.67.33-2.52s-1.44-.45-2.22-.39c-1.45.11-2.87.72-4.35.39A1.82,1.82,0,0,0,56,50.86a1.84,1.84,0,0,1-2.71-.43,2.22,2.22,0,0,0-1.31-1.53c-1.65-.84-2.29-2.36-3-4.31-1.45-4,.09-6.28,2.52-8.55.5-.47.8-1.21,1.51-1.42,6.58-.83,13.13-1.89,19.75-2.52,6.14-.59,12.33-.56,18.45-1.55a20.24,20.24,0,0,1,3.21-.14q13.39,0,26.79,0c4,0,8,.61,12.07.49,2.94-.09,5.86-.47,8.79-.6a3,3,0,0,1,2.62.78c.74,1.72-.58,1.25-1.21,1.32-2.93.34-5.92-.11-8.81.77a1.11,1.11,0,0,0-.54.27c.72,2.25,1.43,2.91,3.25,2.24a9.23,9.23,0,0,1,7.76.24,4.9,4.9,0,0,0,3.38.2,6.44,6.44,0,0,1,3.79.09,6.19,6.19,0,0,0,5.1-.38,3.6,3.6,0,0,1,3.48-.25,1.56,1.56,0,0,0,1.19.16,6.48,6.48,0,0,1,5.61.91c1.15.73,2.25,0,3.26-.48a3.09,3.09,0,0,1,3.77.4,2.46,2.46,0,0,0,3,.53c.24-.12,0-.12.19,0,4,1.24,8.34-.45,12.21,1.79.54.31,1.15.77,1.7.58,3.08-1,6.23.3,9.3-.48a6,6,0,0,1,3.17.24c.94.26,2,.51,2.66-.39,1.9-2.67,4.53-2.24,6.87-1.77s4.62.36,6.91,1.11c1.58.51,3.3-.85,5-1.35s3-.81,4.62.08,3.24-.46,4.7-1.16c.82-.39-.67-1.42-.33-2.31,2.18-1.18,4.58-1.33,6.9-1.89,3.93-.94,8-1.29,11.82-2.73,1.4-.52,2.5.11,3.57.93,2,1.51,4.09,2.46,6.56,1.94a5.43,5.43,0,0,1,.37,1.71c-.63,4.76-1.17,9.61-5.63,12.2a4.43,4.43,0,0,1-2.52,1.26,61.54,61.54,0,0,0-9.9,1.7,87.71,87.71,0,0,1-10.28,1.68,5.84,5.84,0,0,0-2.27.24,4.39,4.39,0,0,1-1,.16c-5.08.54-10.2.34-15.25,1.14-.52.09-1.14,0-1.34.71a1.1,1.1,0,0,0,.36,1,1.37,1.37,0,0,0,1.63.53c.6-.23.95-.81,1.4-1.25,1.73-1.69,2.92-1.86,4.92-.69.3.17.6.5.91.42,2.77-.69,5.41,1,8.2.44a5.13,5.13,0,0,1,3.72.61.84.84,0,0,1,0,1c-2.55.13-5.13-.26-7.66.46-1.25-.36-2.58,0-3.75-.28a9.87,9.87,0,0,0-7.73,1.5,2.39,2.39,0,0,1-2,0c-3.23-1.06-6.61-1-9.89-1.64-2.46-.51-3-1.46-2.7-4.19.16-1.51-.92-2.79-.89-4.44,0-2-1.86-1.64-2.95-2.32-3.6-2.22-7.44-1.41-11.22-1.49-6.39.28-12.76,1.17-19.17,1.05-1.27,0-2.53-.06-3.79-.14C163.53,43,162,43,160.4,43a4.71,4.71,0,0,1-1.06-.11c-5.07-.69-10.19-.48-15.27-1-8.6-.81-17.19.4-25.79.14-4.94-.16-9.93,1.16-14.85.82-4.21-.29-8.25.62-12.37.78-4.09-.55-8.15,0-12.2.53A41.19,41.19,0,0,0,74.1,45c-.59.14-1.29.26-1.47,1s.59,1,1.07,1.38c.69.47,1.36.95,2,1.47a6.77,6.77,0,0,1,1.87,5.3,1.67,1.67,0,0,1-1.25,1.32c-1.94.51-3.8,1.5-5.9,1.06-1.42-.31-2.76.46-4.13.71-3.21.59-6.36.93-9.54-.05A1,1,0,0,0,55.66,57.52Z"/><path id="_Tracciato_2" data-name="&lt;Tracciato&gt;" class="cls-2" d="M144.84,31.58c-1.42-1-2.88-.18-4.33-.21-5.11-.09-10.2.37-15.33,0-6.76-.46-13.55-.23-20.32-.27A106.48,106.48,0,0,0,94,31.16c-6.65.63-13.31.86-20,1.57-4.51.48-9,.69-13.52,1.51-2.68.49-5.37.61-8.06.86a1,1,0,0,1-.68-.53,4.11,4.11,0,0,1-.25-.57,5.53,5.53,0,0,0-1.24-1.92c-.47-.57-.79-1.22,0-1.81a3.68,3.68,0,0,1,2.27-.15c3.32,3.58,7.32,1.84,11,1.5C70,31,76.43,30.49,82.72,28.79c.91-.25,1.88,0,2.79-.28a4,4,0,0,1,.66-.17c1.44-.24,2.93.13,4.34-.42,4-1,8.12-.61,12.18-1a96.1,96.1,0,0,0,9.56-1.09,7.82,7.82,0,0,0,1.45,0c.44-.13.86-.34,1.31-.43.63-.11,1.27.18,1.9,0a7,7,0,0,1,.9-.15,108.57,108.57,0,0,0,13.36-3.09,12.76,12.76,0,0,1,2.36-.52,49.13,49.13,0,0,0,5.36-.9c5.1-.88,10.28-.77,15.4-1.52a17.28,17.28,0,0,1,6.21,0,.94.94,0,0,0,.4,0c3.2-1,6.44-.6,9.7-.52s6.67-.38,9.92.88a3.4,3.4,0,0,0,3.29,0,5.08,5.08,0,0,1,4.85.33,3.29,3.29,0,0,0,3,.12,9.62,9.62,0,0,1,7.48.34,1.68,1.68,0,0,0,2-.33,3.14,3.14,0,0,1,4.3-.24,6.33,6.33,0,0,0,5,1.15,13.62,13.62,0,0,1,7.13.86,3.3,3.3,0,0,0,2.91-.29,6.33,6.33,0,0,1,6-.08c.43.2.85.6,1.31.55,4.2-.46,8.17,1.4,12.31,1.5,1.59,0,2-.79,1.85-2.32a.78.78,0,0,1,.42-.5c2.07,0,4,.83,6,1.42a40.26,40.26,0,0,1,9.32,4c1.47.91,2.2,2.57,3.4,3.74.53.52.86,1.7,1.84.57.16-.19.41.25.57.48,0,.3,0,.6,0,.89-2.26,2.12-4.35.34-6-.87a5.4,5.4,0,0,0-5.48-.94,126.11,126.11,0,0,1-12.52,2.69c-1.54.31-3,1-4.64.9-1.22,1.14-2.69.65-4.06.72-5.4.26-10.78,1.08-16.19.83-2.37-.11-4.83.22-7-1.17a1.81,1.81,0,0,0-1.47-.6c-6.58.93-13.06-.42-19.58-.95-.91-.08-1.7.46-2.58.38a26,26,0,0,1-2.79-.07c-1.18-.12-1.88-.67-1.16-2.75-3.23,3.63-6.46,2.48-9.67,1.38-1.17-.4-2.22-.47-3,.83a2.23,2.23,0,0,1-1.35.91,6,6,0,0,1-2.79,0,16.48,16.48,0,0,0-6-.19,9,9,0,0,1-3.39-.13,12.41,12.41,0,0,0-5-.09C147.4,32.78,146,32.88,144.84,31.58Z"/><path id="_Tracciato_3" data-name="&lt;Tracciato&gt;" class="cls-3" d="M113,26.18c-3.09,1.05-6.31,1.07-9.49,1.32-4.37.35-8.74.61-13.1.9-1.45.6-3-.18-4.44.45-3.91.27-7.84.16-11.74.65-6.13.77-12.32.38-18.43,1.28-1.15.17-2.2-.55-3.32-.16H50c-4.31,1.48-8.67,2.57-13.22,1.77-1.16-1.1-2-2.61-3.41-3.41-.81-.45-.86-1.33-.75-2.32.28-2.3-.28-3-2.33-3.09-1.39,0-2.79-.38-4.18.17a1.77,1.77,0,0,1-1.74-.24c-1.44-1-2.79-.51-3.85.6a5.19,5.19,0,0,1-3.41,1.65,4.77,4.77,0,0,0-3.4,1.67,10.14,10.14,0,0,1-4.43,2.89,3.94,3.94,0,0,1-.55.26,16.35,16.35,0,0,1-1.85.66c-.43.07-1,.18-.88-.67a16.82,16.82,0,0,1,6.6-4.85c3.31-1.26,5.76-4.33,9.14-5.47,1.29,0,2.44.68,3.73.82,3.52.38,6.38-1.48,9.28-3.15a3.69,3.69,0,0,1,2.84-.6c.92.2,1.85.4,2.78.51a5.51,5.51,0,0,0,4.41-1.05,3.58,3.58,0,0,1,4.55-.29,3.63,3.63,0,0,0,2.93.43c3.14-.68,6.34-1,9.43-1.94a4.89,4.89,0,0,1,3,.13c1.84.56,3.7-.07,5.54-.34.59-.08,1.19-.54,1.77-.34,2.7.94,5.3-.3,8-.35.2,0,.42-.13.6-.07,2.94,1.11,5.76.39,8.59-.63a20.33,20.33,0,0,1,6-1.21,8.34,8.34,0,0,1,4.73-.68,12.84,12.84,0,0,0,6.86-1.36,5.71,5.71,0,0,1,4.5-.31,3,3,0,0,0,2.17,0c3.69-1.3,7.39-2.48,11.36-1.67a8.86,8.86,0,0,0,4.95-.73c3.25-1.25,6.7-1.66,10-3.08,2.36-1,5.06-.39,7.6-.48a47.2,47.2,0,0,0,6.09-1h.8a2,2,0,0,0,2,0,8.39,8.39,0,0,1,4.44.88.54.54,0,0,1,0,.6,2.72,2.72,0,0,1-1.3.77c-1.07.17-2,1-3.14.85a2.35,2.35,0,0,1-.56-.2,3.48,3.48,0,0,0-4.26-.56,5.38,5.38,0,0,1-4.78.59,15.78,15.78,0,0,1-4.45.06c-1.7-.17-3.4,1.09-5.07,1.82a7.87,7.87,0,0,1-3.08.87,8.26,8.26,0,0,0-5.7,1.77,3.85,3.85,0,0,1-2.09.73,2.49,2.49,0,0,0-1.69.65c-1.28,1.6-2.31,1.85-3.33-.34-.44-.93-1.18-.26-1.72.16-.71.57-1.36,1.27-2.35.79-.23-.1-.61-.28-.66.14-.31,2.68-1.6,1.13-2.59.75a12.87,12.87,0,0,0-4.45-.46.64.64,0,0,0,0,.75c.41.65,1.76.65,1.23,1.92-.41,1-1.39,1.08-2.26,1.15-1.58.12-1.59.1-2.14,1.13,1,.46,1.81-.29,2.69-.51,1.61-.39,1.77-.25,1.65,1.52,0,.34.19,0,.26,0a1.36,1.36,0,0,1,.93.36C112.8,20,113.63,24.74,113,26.18Z"/><path id="_Tracciato_4" data-name="&lt;Tracciato&gt;" class="cls-4" d="M90.77,43.21c2.74-.61,5.53-.87,8.28-1.33,1.56-.26,3.24.67,5,.49,4.42-.46,8.86-.58,13.27-1.06,1.16-.12,2.23.2,3.36.16,5.87-.22,11.74-.43,17.61-.43,4.16,0,8.33.49,12.49.64a63.35,63.35,0,0,1,8.59.68c-1.27,3.81-1.13,3.83,2.62,5.13a12.08,12.08,0,0,0,5.69.78c1.51-.2,2.84,1.85,2.57,3.52a1.3,1.3,0,0,1-1.4,1.27c-1.3,0-2.66-.48-3.38,1.6-.3.86-1.84,1-2.8.61-3.49-1.43-6.87.27-10.31.32-2.27,0-4.59.38-6.52-1.4-.64-.59-1.08-.5-1.76,0-3.12,2.26-5,2.06-7.76-.58-.63-.6-1.44-1.89-1.78.41-.31,2.07-2,2.06-3.37,1.82a26.52,26.52,0,0,1-4.74-.94c-2.15-.77-4,.07-5.82.74a7.88,7.88,0,0,1-5.12.38,5.36,5.36,0,0,0-4.28.36,5.45,5.45,0,0,1-4.5.41c-2.92-1-5.64.15-8.32,1.36-2.24,1.62-4.82.86-7.24,1.23-1.94.3-3.94.75-5.9-.43-.64-.39-1.56.12-2.12.89-2.14.85-4.33.43-6.5.3-2.55-.14-5.1-.53-7.65-.81-.41-.62,0-1,.39-1.24A6.26,6.26,0,0,1,72.6,57a7.25,7.25,0,0,0,4.47-1,2.75,2.75,0,0,1,2.73.07,4.71,4.71,0,0,0,4.29-.13A5.11,5.11,0,0,1,88.6,56c1.36.55,2.42.49,3.35-.94s2-2,3.44-.78a.83.83,0,0,0,1.12.14c1.79-1.46,3.83-1.09,5.84-1.06a5.52,5.52,0,0,0,2.41-.52c-2.91.51-5.35-.74-7.64-2.49-.44.65.11,1.24-.14,1.79a1.66,1.66,0,0,1-1.17,1.12,1,1,0,0,1-1.19-.92c-.1-1.5-1.1-1.85-2.06-2.42A12.55,12.55,0,0,1,89,47.07a2.65,2.65,0,0,1-.4-2.91A1.63,1.63,0,0,1,90.77,43.21Z"/><path id="_Tracciato_5" data-name="&lt;Tracciato&gt;" class="cls-5" d="M98,57.57c1.65-1,3.52-1.2,5.25-1.87a4.67,4.67,0,0,1,3.33.3c2,1,3.66.46,5.24-.64s2.76-.07,4.07.16a10.12,10.12,0,0,0,4.62-.51c1.66-.45,3.19-1.84,5.44-.83a15.25,15.25,0,0,0,6.4,1.15c1.16,0,2.11-.29,1.54-2.13-.35-1.15.26-1.69,1.33-1.14a4.6,4.6,0,0,1,1.63,1.25,4.48,4.48,0,0,0,7.16.1c.74-.91,1-.95,1.74,0,1.63,2.13,4.07,1.78,6.15,1.7,3.69-.14,7.29-1.84,11.08-.35.86.34,2.68.56,2.45-1.82,0-.51.28-1.22.86-.72.88.74,1.81-.31,2.7.33.48.34.77-.27.83-.88a2.42,2.42,0,0,0-2.73-2.83c-1.61.39-3.19.62-4.57-.67-.75-.71-1.56,0-2.3-.22-2.73-1-3.08-3.23-.88-5.59h.81c1.61.56,3.23,1.08,4.84,0,4.27,0,8.55.16,12.81,0,3.53-.17,7-1.06,10.59-.84,1.88,1,3.52,2.18,3.54,4.88,0,.69.57,1.16,1,1.66.79,1,1.52,1.92.93,3.55-.46,1.26.44,2,1.57,1.76a2.39,2.39,0,0,1,2.68,1,1,1,0,0,0,1.44.42c2.79-1.93,5.53-.2,8.3,0,1.3.11,2.52.72,3.91.39.89-.22,1.87.16.87,1.57l-2,0a2.36,2.36,0,0,0-2.4.46c-.87.8-1.89.31-2.83.41-.84-1.31-1.87-1.8-3.19-.88a5.21,5.21,0,0,1-2.51.76c-1.79.17-3.61.1-5.24,1.16a1.51,1.51,0,0,1-1.38.16c-3.95-1.74-7.86.36-11.79.14a17.24,17.24,0,0,0-3.41.31,1.8,1.8,0,0,1-1.71-.47,2.67,2.67,0,0,0-4.11-.49,2.69,2.69,0,0,1-2.34.24,9.75,9.75,0,0,0-6,.19,2.59,2.59,0,0,1-3-.75c-.56-.56-1.22-1.14-2-.79-1.73.79-3.44.36-5.16.11a7.89,7.89,0,0,0-5,.51c-.3.16-.71.36-1,.2-2.46-1.47-5,.2-7.45-.29a26,26,0,0,0-9.72-.11c-2.06.34-4.29-.18-6.4-.16-2.7,0-5.43.06-8.12.07-4,0-7.7,2.23-11.72,1-1-.31-2.13.12-3.2.28A2.83,2.83,0,0,1,98,57.57Z"/><path id="_Tracciato_6" data-name="&lt;Tracciato&gt;" class="cls-6" d="M98,57.57a5.81,5.81,0,0,0,4,.5,7,7,0,0,1,4.51.32c1.58.6,2.94-.69,4.4-1,2.28-.51,4.75.64,6.84-1,2.38,1.9,5,0,7.55.54a15.58,15.58,0,0,0,8.67-.4,4.75,4.75,0,0,1,3.68.23,7,7,0,0,0,5.84.05c.49-.23,1-.71,1.51-.3,1.65,1.4,3.35,1,5,.24,1.48-.68,2.93,0,4.33.14,1.57.18,3,.47,4.47-.42.85-.52,1.53.28,2.05,1a2.05,2.05,0,0,0,3,.66,7.32,7.32,0,0,1,5.34-.25,3.56,3.56,0,0,0,3.67-.7c.73-.63,1.61-.88,2.14,0,1.53,2.45,3.73,1.69,5.6,1.3,2.07-.43,4.14-.15,6.2-.46,1-.14,1.91,0,2.75-.71s1.39-.16,2,.3,1.29,1.29,2.15.73c2.25-1.46,4.76-1.21,7.19-1.49.07,0,.16,0,.19,0,1.8-2.52,3.35-.51,5,.32l-.79.6c-4,1.08-8.06,1.3-12.1,1.81s-7.77,1.46-11.73,1.57c-.73,0-1.46.2-2.19.22-5.73.17-11.48.57-17.16-.09-6.61-.76-13.23-.11-19.86-1-4.39-.59-9-.95-13.53.11a9.05,9.05,0,0,1-2.21.05c-8.19-.12-16.37.6-24.54.61-5.05,0-10.14.28-15.21-.21-1.27-.12-2.37-1.1-3.71-.85.16-1.81,1.55-2.14,2.48-1.6,1.47.86,2.72.6,4.24.59,2,0,4.06-.72,6.11-.38C96.72,58.57,97.59,58.61,98,57.57Z"/><path id="_Tracciato_7" data-name="&lt;Tracciato&gt;" class="cls-7" d="M.78,42.25A4.56,4.56,0,0,1,0,39.54a1.53,1.53,0,0,0,.79-1.79c.1-.76-.26-1.62.4-2.26.25.14.46.75.77.24,1.73-2.76,4.5-3.89,6.91-5.6h0a7.64,7.64,0,0,0,5-2.85c1.48-1.62,3.3-1.74,5.36-1.69,3.5.08,5.37,2.52,7.19,5.17,1.46,2.12,2.72,2.71,5.09,2,1.54-.45,3.06-1.16,4.7-.57.48,1-.3,1.46-.77,2s-.88.7-1.24,1.15c-1.65,2-1.44,3.41.59,4.69A20,20,0,0,0,39.29,42c1.32.45,1.74,1.38.89,2.7s-1.3,3.66-3.67,2.79c-.6-.22-1,.35-1.12,1A1.51,1.51,0,0,0,36,50.21c.51.36,1.11.52,1.62.89s1.11.46.55,1.28c-1.28.67-2.54.29-3.81,0-3.59-1.16-7.48-1.52-10.33-4.68-2-1.43-4-3.07-6-4.5-.52-.36-1.17-.73-1.1-1.46.1-1,.94-.87,1.58-1,.78.09.9,1,1.42,1.42a1.31,1.31,0,0,0,1.83,0c.66-.55.34-1.14,0-1.75-1.1-2.28-1.53-2.32-3.13-.25-1,.42-2,.46-3,.91a4.6,4.6,0,0,1-.77.25c-.86.14-1.93.48-2.2-.8s.68-2,1.74-2.26c3.21-1,4-2.46,3-5.81-.67-2.34-3-3.16-4.63-1.54a11.77,11.77,0,0,1-5.56,2.9c-2.21.54-5,3.89-5.27,6.23a4.56,4.56,0,0,1-.14.64C1.56,41.18,1.83,42.27.78,42.25Z"/><path id="_Tracciato_8" data-name="&lt;Tracciato&gt;" class="cls-8" d="M263.46,30.78c-1.8,1.09-2.9-.34-3.6-1.65-1.32-2.49-3.56-3.43-5.66-4.3-3.81-1.58-7.79-2.66-11.7-3.94-.21-.25-.59-.08-.73-.26-2.51-3.09-6.87-2.19-9.31-5.38-3.34-.05-6.18-2.88-9.67-2.13a2.42,2.42,0,0,1-1.74-.39c-1.29-1.14-3-1.6-4-3.3-.3-.55-.84-.32-1.3-.32a35.91,35.91,0,0,1-4-.55c-.85-.11-1.4-.51-1.29-1.57s.39-1.84,1.45-1.72,2.12-.41,3,.05c3.09,1.65,5.87.14,8.72-.79a1.83,1.83,0,0,1,2.07.37C227.51,6.81,230,7,232.09,8.06c1,.51,1.9-.81,2.89-1.16,1.76-1,3,.45,4.16,1.35a18.51,18.51,0,0,0,4.05,2.37c1.65.66,2.71,2.35,3.82,3.79A3.41,3.41,0,0,0,249.22,16a22.65,22.65,0,0,0,4,1.89A11.22,11.22,0,0,1,258,22.45c.94,1.53,2,3,3.84,3.4C263.3,27.13,263.48,28.92,263.46,30.78Z"/><path id="_Tracciato_9" data-name="&lt;Tracciato&gt;" class="cls-9" d="M90.77,43.21c-.93.23-1.87.44-2,1.79a2.57,2.57,0,0,0,1.38,2.52c1.32.85,2.38,2.22,4,2.45.82.12,1.18.7.9,1.61-.18.56-.19,1,.36,1.31.35.17.63-.1.88-.37a1,1,0,0,0,.19-1.36c-.28-.43-1.09-.83-.55-1.42a1.25,1.25,0,0,1,1.84.19,7.78,7.78,0,0,0,6.76,2.29c.59-.06,1.6-.35,1.62.69,0,.84-1,.47-1.49.68a10.11,10.11,0,0,1-4,.32c-1.36,0-2.84-.3-3.87,1.18-.55.79-1.17.69-1.65-.08-1.15-1.83-2.12-.84-2.76.37-1,1.9-2.16,2-3.86,1.24a4.44,4.44,0,0,0-4.7.14,3.9,3.9,0,0,1-4.06,0,2.45,2.45,0,0,0-3.31.31c-1,1-2.33.46-3.5.51a5,5,0,0,0-4,1.79l-5.64-.87a3.18,3.18,0,0,1-2.44,0c-1.83.24-3.47-.73-5.23-.93.19-1.15.87-.81,1.55-.7a23,23,0,0,0,8.89-.21c1.74-.37,3.51-1.14,5.56-.61,1.5.4,3.34-.74,5-1.23.23-.07.4-.37.6-.56-1.44-1.18.51-3.74-1.57-4.69-1-.47-1.77-1.56-2.91-1.88-.6-.16-1.26-.49-1.1-1.3s.37-1.64,1.3-1.79c3.3-.51,6.6-1.39,9.91-1.42,2,0,4-.71,6-.38C89.52,42.86,90.24,42.52,90.77,43.21Z"/><path id="_Tracciato_10" data-name="&lt;Tracciato&gt;" class="cls-10" d="M249.36,16.41a2.76,2.76,0,0,1-2.71-1.53c-1.14-1.61-2.32-3.46-4.56-4.07-1.77-.49-3.29-2.12-4.9-3.28-.66-.48-1.26-.9-1.95-.1-3.51,2-6.09-.77-8.9-2.23-1-.54-1.93-1-3-.29a1.45,1.45,0,0,1-1.73-.08c-2-1.79-4.49-1.08-6.74-1.56a.82.82,0,0,0-.6,0c-2.61,1.72-5.52.3-8.23,1a25.3,25.3,0,0,1-6.48,1.26c-.77,0-1,.67-.83,1.44s-.08,2.18,1.25,2.14a4.49,4.49,0,0,1,3,1c1.15,1.38,2.31,1.51,3.65.24,1.13-1.08,2.34-1.4,3.55,0a1.63,1.63,0,0,0,2.38.23,2.45,2.45,0,0,1,3.35.35,6.25,6.25,0,0,1,.44.45,5.49,5.49,0,0,1,.52.65c.33.5,1,1,.52,1.68s-1,.46-1.6.15a2.86,2.86,0,0,0-3.4-1.21,2.88,2.88,0,0,1-2-.08,2.3,2.3,0,0,0-2.13-.12c-1.12.64,1.35.84.15,1.5-3.63.46-7.26,1.14-10.93.46-.58-1.19-2.48-1.5-1.87-3.67-1.7,1.55-3.49,2.57-5.7,2.17a3.72,3.72,0,0,1-1.56-.32,7.55,7.55,0,0,0-5.1-1.6c-1,.08-1.67-.69-1.64-1.84,0-1.53.6-2.82,2-3.23,2.07-.6,4.18-1,6.21-1.75a5,5,0,0,0,1.73-1,4.23,4.23,0,0,1,4.06-.26A2.39,2.39,0,0,0,198,2.8a5.33,5.33,0,0,1,4.45-.58,2.39,2.39,0,0,0,2-.2,4.6,4.6,0,0,1,3.52-.36,4.51,4.51,0,0,0,3.93-1,53.78,53.78,0,0,1,18.22,3.19c3.19,1.22,6.57,1.83,9.61,3.56,1,1.5,2.26,2.45,4,2.25l2,1.79c1.4,1.74,2.51,3.88,4.91,4.17.27,0,.44.31.38.67C250.5,17,249.93,16.8,249.36,16.41Z"/><path id="_Tracciato_11" data-name="&lt;Tracciato&gt;" class="cls-11" d="M22.6,19.39a37.79,37.79,0,0,1,13.62-4.91c5.58-1.05,11.18-2,16.78-3a19.29,19.29,0,0,1,3.4-.19A50.38,50.38,0,0,0,66,10.49c2-.34,4,.36,6.15.09A58.22,58.22,0,0,1,81.29,10c4.44.15,8.9-.29,13.35-.48.47,0,.94,0,1.41,0,.57.26,1.24.53.64,1.38S95.23,12.78,94,12.56c-2.91-.53-5.78-.8-8.42,1.18a2.91,2.91,0,0,1-1.74.44,11.18,11.18,0,0,0-7.31.24A3.72,3.72,0,0,1,73.22,14,4.19,4.19,0,0,0,69,13.87c-3,1.44-6.15.88-9.26.65-.33,0-.72-.31-1-.15-2.37,1.37-5,0-7.45.94a10.72,10.72,0,0,1-3.79.49,2.25,2.25,0,0,0-1.73.45c-2,2-4.39,1.87-6.67,1.25-2.75-.74-5,.29-7.21,1.74-2.65,1.73-5.42,2.54-8.46,1.48C22.8,20.51,22.13,20.37,22.6,19.39Z"/><path id="_Tracciato_12" data-name="&lt;Tracciato&gt;" class="cls-12" d="M212.61,56.73c.39-.88.06-1.3-.74-1.25a22.4,22.4,0,0,1-7.93-1.18,3.9,3.9,0,0,0-3.43.6c-1.37,1.13-2.27,1-3.09-.54-.45-.82-1.09-1-1.67-.48-1.17,1.08-1.64-.07-2.29-.71a1.42,1.42,0,0,1,0-2.27c.73-.72.11-1.12-.26-1.63-.94-1.24-2.32-2.16-1.9-4.28.15-.79-.78-1.51-1.45-2a3.59,3.59,0,0,1-1.44-1.5c1.68,0,3.36,0,5,0s3.61-.11,5.13,1.36a2.24,2.24,0,0,0,1.32.43c2.67.34,3.1.89,3,4,0,.44-.26.92.18,1.21,1.36.88,1.34,1.69.22,2.94-.63.69.09,1.35.8,1.82,2,1.35,4.41,1.33,6.57,1.49a29.38,29.38,0,0,1,4.82,1c1.56.37,3.07.24,4.07-1.1a2.62,2.62,0,0,1,3.59-.75,3.68,3.68,0,0,0,3,.15,2.43,2.43,0,0,1,3,1C223.74,56.69,218.19,56.89,212.61,56.73Z"/><path id="_Tracciato_13" data-name="&lt;Tracciato&gt;" class="cls-13" d="M83.93,13.59c.45-.1,1-.06,1.35-.34,2.79-2.2,5.83-1.83,8.89-1.13,1.13.26,1.51-.72,2.15-1.31s-.11-.83-.27-1.22a162.3,162.3,0,0,0,16.12-2c4-.68,8-1.06,11.92-1.61S132,4.81,136,4.08a66.16,66.16,0,0,1,13.75-1.27c1.21,0,2.42,0,3.63.06-3.51,2.34-7.43,1.66-11.22,1.76A12.32,12.32,0,0,0,135.5,7c-.17.12-.39.36-.51.31-2.86-1.16-5.13,1.45-7.8,1.48-1.89,0-3.79.53-5.62-.26a2.75,2.75,0,0,0-2.7.27,6.93,6.93,0,0,1-2.47.86c-2.34.42-4.54,1.75-7.05.45-1.5-.78-2.71.95-4.1,1.39-2.89.92-5.81.3-8.68.8a8.35,8.35,0,0,0-1.34.43c-1,.73-2-.61-2.87-.16-1.87,1-4.06.45-5.87,1.75C85.65,14.9,84.44,15.32,83.93,13.59Z"/><path id="_Tracciato_14" data-name="&lt;Tracciato&gt;" class="cls-14" d="M24.19,47.19c2.83,3,6.56,3.45,10.08,4.5.88,1,.13,1.44-.52,1.32-2.27-.43-4.66.69-6.85-.8a2.44,2.44,0,0,0-3,.14c-1.92,1.63-3.42.7-5-.62-2.51-2-5.2-2.52-7.55-.51L6.84,49.43c.32-.59,1.33-.51,1.18-1.58s-.8-1.29-1.56-1.46a5.94,5.94,0,0,1-2.38-1.6,2,2,0,0,1-.24-2.93c.75-1.07,1.77-1.34,2.59-.34,1.08,1.34,2.11,1.22,3.39.52,1.1-.61,2.27-1,3.35.17a.81.81,0,0,0,.74.28c3.17-.55,5.47,1.45,7.78,3.34A15.2,15.2,0,0,0,24.19,47.19Z"/><path id="_Tracciato_15" data-name="&lt;Tracciato&gt;" class="cls-15" d="M83.93,13.59c.93.82,1.64.51,2.77.06,2.12-.84,4.4-1.63,6.78-1.23l1.75.28c-.55.69-1.23.52-1.86.27a1.37,1.37,0,0,0-1.53.07c-1.59,1.38-3.67.75-5.43,1.77-1.31.76-3,.56-4.64,0-2-.63-4.2,0-6.27.51-.92.23-1.74.7-2.63-.17A1.3,1.3,0,0,0,71.54,15c-1.67,1.22-3.65.23-5.36,1.05a1.18,1.18,0,0,1-1,.09c-2.68-1.73-5.1.42-7.61.5-3,.1-6,2.38-9.09.08a2,2,0,0,0-2.64.09c-2.6,2.46-5.52,1.74-8.41,1.12a2.76,2.76,0,0,0-2.29.51c-3.68,2.16-7.43,4.44-11.87,2.79a2.66,2.66,0,0,1-1.54-1l.83-.85c1.16,1.36,3.51,1.49,5.29,1.1,2.47-.55,4.21-2.63,6.6-3.32a10.79,10.79,0,0,1,4.14-.32c2.39.24,4.88,1.23,7-1.15.73-.83,2-.54,2.9-.51,2.33.07,4.51-2.24,6.93-.48.48.35,1-.18,1.45-.54.91-.79,1.83-.58,2.85-.37,3,.62,6,.85,8.9-.5,1.73-.81,3.36-1,4.94.25a2.55,2.55,0,0,0,2.69.4A9.58,9.58,0,0,1,83.93,13.59Z"/><path id="_Tracciato_16" data-name="&lt;Tracciato&gt;" class="cls-8" d="M11.28,51.22a2.78,2.78,0,0,1,3.53-2c1.55.43,3.35.61,4.64,2.23,1.11,1.4,2.55,2.07,4.13.31A2.55,2.55,0,0,1,27,51.46c2.2,2,4.71.08,6.93,1.09.59.26.52-.41.39-.86a10.26,10.26,0,0,0,4,.45c2.25-.77,4.6-.11,6.88-.63a10.13,10.13,0,0,1,2.4,0c1,.08,2,0,3,.12.64.06,1.51,0,1.52,1,0,.82-.78.89-1.36,1-.32.09-.66.08-1,.14A1.86,1.86,0,0,0,48,56.19c-1.47-.24-3,.5-4.44-.45-1.43-.31-2.71-1.32-4.23-1.22a3.23,3.23,0,0,0-2.22.76c-2.27,0-4.54.16-6.72-.77-1.29-.55-2.54.29-3.92.14C21.28,54.09,16.32,52.49,11.28,51.22Z"/><path id="_Tracciato_17" data-name="&lt;Tracciato&gt;" class="cls-8" d="M24.19,47.19a2.89,2.89,0,0,1-2.72-1.14c-1.31-1.36-3.08-1.71-4.51-2.78A1.84,1.84,0,0,0,15,43c-.62.28-1.56.44-1.93-.09-1.28-1.84-2.53-.69-3.69,0s-2.25,1-3-.66c-.31-.69-.84-1-1.5-.76a2.46,2.46,0,0,0-1.2,1.69c-.2.69.26,1,.79,1.33C5.42,45,6.08,45.87,7.27,46s1.53,1.6,1.38,2.78-1.2.41-1.81.65A.85.85,0,0,1,6,49c.13-.41,1.11-.79,0-1.26a15.93,15.93,0,0,1-2.21-1.46c-2.34-1.57-2.75-2.67-2.27-5.8h0A5.65,5.65,0,0,1,4.42,36c.79-.43,1.58-.74,2.29-.22,1.56,1.14,3.31,2,4.46,3.76,1.37,2.12,2.78,2.32,4.55.94A3.49,3.49,0,0,1,18.54,40a.65.65,0,0,1,0,.89c-.26.65-1,.21-1.4.86Z"/><path id="_Tracciato_18" data-name="&lt;Tracciato&gt;" class="cls-16" d="M236.82,53.64c-3.23-.37-6.54.58-9.7-.82-.62-.28-1.19.11-1.72.43s-1,.21-1.44-.24c-1.9-1.8-3.28-1.6-4.94.76-1,1.39-2,1.71-3.21.47-.6-.61-1.32-1.42-1-2.27s1.36-.76,2.23-.9c4-.63,8-.38,12-.87,1.13-.15,2.28-.11,3.42-.15,3.14,2.15,6.26,1.37,9.34-.16s6.19-.71,9.19.65c.08,0,.06.26,0,.41-1.73.53-3.34,1.63-5.24,1.36a2.09,2.09,0,0,0-3.33-.32C240.7,53.51,238.75,53.41,236.82,53.64Z"/><path id="_Tracciato_19" data-name="&lt;Tracciato&gt;" class="cls-7" d="M58.48,50.81c1.7-.29,3.4-.59,5.1-.86,2.18-.35,2.87.58,2.17,2.88-.56,1.81-1.15,3.28-3.41,3.13-1.76-.12-3.51,1.13-5.35-.13a1.59,1.59,0,0,0-2.16.64c-.37.57.33.68.42,1.05a14.57,14.57,0,0,1-6.86-1.33c.25-2.32,1-3,2.8-2.12,1.57.74,3.06,1,4.56-.07,1.12-.78,1.76-1.71.67-3.1C57.08,50.07,57.78,50.34,58.48,50.81Z"/><path id="_Tracciato_20" data-name="&lt;Tracciato&gt;" class="cls-17" d="M250.94,51c-2.41-1-5-1.68-7.44-1.19-1.8.36-3.45,1.72-5.37,2.06a8.8,8.8,0,0,1-5.21-.65,1.19,1.19,0,0,1-.53-1.12h.8c.61-.53,1.42.1,2-.45,7.75-.77,15.31-2.85,23-4C256.36,48.32,253.64,49.61,250.94,51Z"/><path id="_Tracciato_21" data-name="&lt;Tracciato&gt;" class="cls-18" d="M211.85.68c.23,2.32-1.76.85-2.45,1.73-.19.25-1,0-1.53-.15a3.58,3.58,0,0,0-3.28.32,3.18,3.18,0,0,1-2.73.16c-.52-.13-1.25-.47-1.55-.22-2.76,2.24-5.82,0-8.64.83-.89,1.63-2.45.74-3.65,1a6.89,6.89,0,0,1-3.33.14,2.08,2.08,0,0,0-2,.83,3.49,3.49,0,0,1-2.08,1.23,16.31,16.31,0,0,0-3.34.27,2.92,2.92,0,0,1-.6.14c-2.56-.25-5.16.1-7.68-.65-.19.06-.39.11-.58.15a4.44,4.44,0,0,1-1.78,0c-2.5-.57-5-1.21-7.57-.74-.46-.55,0-.78.3-1.05l1.21-.45c.74-.52,1.72-.24,2.42-.89h1.62a6.14,6.14,0,0,0,4.09,1.33c2.84.17,5.69,0,8.53.22a5.33,5.33,0,0,0,3-.18l.75-.55c2.17-2.59,5-2.44,7.79-2.2,1.45.12,2.65-.1,3.32-1.72l2,0c1.79,1.44,3.72,1.32,5.85,1.09A56.76,56.76,0,0,1,207.22.9a2.26,2.26,0,0,0,1.35-.25A3,3,0,0,0,209,.24h.4c.6.53,1.41-.09,2,.44Z"/><path id="_Tracciato_22" data-name="&lt;Tracciato&gt;" class="cls-19" d="M181.18,4.69l-.4.45a3.59,3.59,0,0,1-2.51-.31,4.85,4.85,0,0,0-2.75,0c-3.14.8-6.2-.35-9.31-.53-.58,0-1.21-.42-.76-1.36,5.78-.56,11.5-1.8,17.33-1.8a3.23,3.23,0,0,1,2.51.12C184.06,2.65,181.86,2.59,181.18,4.69Z"/><path id="_Tracciato_23" data-name="&lt;Tracciato&gt;" class="cls-20" d="M56.47,51.26c.5.08,1.15-.24,1.46.41s-.24,1.08-.58,1.52C55.41,55.63,53.62,56,51,54.46c-1.81-1.06-2,.72-2.56,1.73H48c-.08-.57-1.13-.25-.85-.92a2.86,2.86,0,0,1,1.56-1.85c1-.39,2.22.16,3.6-1.27H48c0-.83.61-1,1.11-1C51.55,51.13,54,50.77,56.47,51.26Z"/><path id="_Tracciato_24" data-name="&lt;Tracciato&gt;" class="cls-17" d="M249.36,16.41c.56-.06,1.19.21,1.61-.45a.52.52,0,0,1,.42-.46,27,27,0,0,1,8.71,7.2,25,25,0,0,1,1.76,3.15c-.08.65-.34,1-.9.51-1-1-2.29-1.6-3-2.91a10.62,10.62,0,0,0-6.89-5.72A2.34,2.34,0,0,1,249.36,16.41Z"/><path id="_Tracciato_25" data-name="&lt;Tracciato&gt;" class="cls-15" d="M209,.68c-.23.26-.5.77-.68.73-1.88-.42-3.7.83-5.42.47a9.1,9.1,0,0,0-4.72.29c-2.06.68-3-.56-4.1-1.92,4.3-.68,8.6.29,12.9,0C207.61.77,208.42.14,209,.68Z"/><path id="_Tracciato_26" data-name="&lt;Tracciato&gt;" class="cls-21" d="M181.18,4.69c0-2.71,2.56-2,3.69-3.37-.7-.42-1.42-.1-2.09-.23a51,51,0,0,1,9.3-.86,2,2,0,0,1-2.49,2.4,28.34,28.34,0,0,0-4.41-.17C183.49,2.39,182.37,3.62,181.18,4.69Z"/><path id="_Tracciato_27" data-name="&lt;Tracciato&gt;" class="cls-21" d="M165.45,2.89c1.28,1.73,3.17,1,4.75,1.26,2.17.35,4.37,1.09,6.65-.25,1.26-.75,2.5,1.17,3.93,1.24a1.18,1.18,0,0,1-1.27.44c-3.07-.52-6.18.43-9.24-.4a5.48,5.48,0,0,0-2.37.13,2.58,2.58,0,0,1-3.26-2Z"/><path id="_Tracciato_28" data-name="&lt;Tracciato&gt;" class="cls-22" d="M236.82,53.64a4.64,4.64,0,0,1,3.05-.91,1.66,1.66,0,0,0,1.64-.66c1-2.23,2.67-1.06,4-1.06,1.62,0,.35.81.16,1.3a25.78,25.78,0,0,1-8.88,2.21Z"/><path id="_Tracciato_29" data-name="&lt;Tracciato&gt;" class="cls-23" d="M8.87,30.13A4.78,4.78,0,0,1,7,32a10.62,10.62,0,0,0-4.33,3.69c-.31.54-1.24,2.21-1.48-.19A9.77,9.77,0,0,1,6,30.56C7.1,31.45,7.85,29.69,8.87,30.13Z"/><path id="_Tracciato_30" data-name="&lt;Tracciato&gt;" class="cls-24" d="M1.6,40.45a7,7,0,0,0,4.81,6.91c.41.14,1.25-.46,1.16.62S6.73,49,6,49c-1.61-1.29-3.47-2.21-4.57-4.24a4.29,4.29,0,0,1-.68-2.48C1.44,41.87,1,40.84,1.6,40.45Z"/><path id="_Tracciato_31" data-name="&lt;Tracciato&gt;" class="cls-25" d="M37.1,55.28a3.12,3.12,0,0,1,4.51-.83c.7.43,1.28,1.1,2.17.53.25-.16.79-.22.74.32s-.61.36-1,.44C41.4,55.62,39.21,56.07,37.1,55.28Z"/><path id="_Tracciato_32" data-name="&lt;Tracciato&gt;" class="cls-26" d="M251.39,15.5,251,16c-2.89.16-4.33-1.79-5.24-4.49C247.6,12.85,249.7,13.82,251.39,15.5Z"/><path id="_Tracciato_33" data-name="&lt;Tracciato&gt;" class="cls-26" d="M243.72,9.68c-.3,1.54-1.17.46-1.66.32-1.19-.32-2.51-.67-2.38-2.57A7.51,7.51,0,0,1,243.72,9.68Z"/><path id="_Tracciato_34" data-name="&lt;Tracciato&gt;" class="cls-6" d="M208.19,57.21c-.2-.08-.7-.16-.36-.41a2,2,0,0,1,2.76,0A6,6,0,0,1,208.19,57.21Z"/><path id="_Tracciato_35" data-name="&lt;Tracciato&gt;" class="cls-23" d="M.79,37.75c.79,1.16.5,1.75-.79,1.79C.26,38.94.52,38.35.79,37.75Z"/><path id="_Tracciato_36" data-name="&lt;Tracciato&gt;" class="cls-9" d="M163,3.34c-.52,1.23-1.55.8-2.42.89V3.78A5.62,5.62,0,0,1,163,3.34Z"/><path id="_Tracciato_37" data-name="&lt;Tracciato&gt;" class="cls-1" d="M60.89,58.45h2.44A1.77,1.77,0,0,1,60.89,58.45Z"/><path id="_Tracciato_38" data-name="&lt;Tracciato&gt;" class="cls-10" d="M211.44.68c-.68-.1-1.44.28-2-.44C210.11.33,210.87-.06,211.44.68Z"/><path id="_Tracciato_39" data-name="&lt;Tracciato&gt;" class="cls-10" d="M209,.68c-.68-.11-1.45.28-2-.44h2C209,.39,209,.53,209,.68Z"/><path id="_Tracciato_40" data-name="&lt;Tracciato&gt;" class="cls-9" d="M156.16,2.9a1.28,1.28,0,0,1-2,0Z"/><path id="_Tracciato_41" data-name="&lt;Tracciato&gt;" class="cls-12" d="M207.79,33.43c2,1,4.24,1,6.36.93,4.45-.14,8.91.21,13.35-.82,2.35-.54,4.88-.09,7.32-.09a3.13,3.13,0,0,0,1.91,2.18c-1.68,1.47-3.8.82-5.2,2.42-.56.63-1.3-.11-1.74-.61a1.81,1.81,0,0,0-2.54-.5c-1.73,1.08-4,.49-5.54,2.12a1.25,1.25,0,0,1-1.14.06,28.25,28.25,0,0,0-10.79-1.66,1.93,1.93,0,0,0-1.85,1.09,2.6,2.6,0,0,1-3.64,1.29,5.1,5.1,0,0,0-4.09,0,3.11,3.11,0,0,1-3.07-.19,2.35,2.35,0,0,0-2.5,0,4.67,4.67,0,0,1-5-.26,6.24,6.24,0,0,0-4.58-1.08,8.35,8.35,0,0,1-4.52-.25c-1.15-.44-2.54-1.08-3.8.19-.4.41-1,0-1.41-.47-1.72-1.95-3.66-1.56-5.55-.44a2.18,2.18,0,0,1-2.74-.23,4.37,4.37,0,0,0-4.54-.74c-.36.16-.92.35-1.16.16-1.89-1.48-3.45,0-5.16.53a4.06,4.06,0,0,1-3.49,0,4.34,4.34,0,0,0-3.55-.38c-2.46.83-4.62-.07-6.8-1a2.39,2.39,0,0,0-2.8.25c-2,1.59-5.33.55-6.49-1.91-.52-1.09.12-1.32.87-1.41A49.35,49.35,0,0,1,144.17,32c.22,0,.45-.26.67-.4a9.42,9.42,0,0,0,5.34.06,3.75,3.75,0,0,1,2.2,0,11.12,11.12,0,0,0,5.51.34c2.83-.57,5.54.75,8.34.48a1.62,1.62,0,0,1,1.49-.2,1.06,1.06,0,0,1,.25,1c-.15,1.44.56,1.83,1.57,1.32a4.67,4.67,0,0,1,4.63.33,5.26,5.26,0,0,0,5,.47,1.24,1.24,0,0,1,1-.14,9,9,0,0,0,7.59-.1c1.42-.61,2.42,1.14,3.64,1.38s2.26-1.2,3.76-.28c2.93,1.79,5.46.21,7.85-1.72.86-.5,1.9-.47,2.63-1.44S207.11,33,207.79,33.43Z"/><path id="_Tracciato_42" data-name="&lt;Tracciato&gt;" class="cls-27" d="M56.47,51.26c-2.81.55-5.7.07-8.48.89-3.23-.34-6.45,1-9.68,0A11.64,11.64,0,0,0,36.17,51c-1.65-.48-1.63-1.56-1.25-3.08.31-1.25.81-1.56,1.85-1.09.54.25,1.48.72,1.63.09.33-1.44,1.68-2.17,1.82-3.59.08-.72-.79-.8-1.24-.86-2.19-.28-3.92-1.84-5.94-2.57-.9-.32-.9-1.19-.56-2,.64-1.61,1.15-3.3,2.78-4.14.44-.22.7-.87,1.05-1.32-.1-.4,0-.58.4-.45,1.92.94,3.88.18,5.7-.2,2.54-.52,5.11-.54,7.62-1.13.16,1.55,2.19,1.8,2,3.59-1,.37-1.67-.34-2.33-.88a1.48,1.48,0,0,0-2.3.14,2.08,2.08,0,0,1-.52.25c-1.9.36-3.9-.2-5.75.8-.35.19-.79-.05-1.18-.16-2.83-.81-4.72.23-6,3.42,1-1.39,2-1.22,2.61,0,1.24,2.54,3,3,5.42,2.46,1.86-.44,2.11.12,1.75,2.92,0,1.85.71,3.13,2.38,3.64a6,6,0,0,1,2.61,2A3.72,3.72,0,0,0,50.66,50a6.33,6.33,0,0,0,2.32.36l.26,0c1.1.38,2.12.65,3.16-.36s1.69-.44,2.08.81C57.8,50.92,57,50.51,56.47,51.26Z"/><path id="_Tracciato_43" data-name="&lt;Tracciato&gt;" class="cls-28" d="M50.82,50.36a2.21,2.21,0,0,1-2-.67A7.76,7.76,0,0,0,45.05,47c-1.47-.45-1.79-2.21-1.89-3.82a3,3,0,0,0,.61-2.05c-.13-1.6-.82-2.07-2.35-1.54-2.28.78-3.47.31-4.52-1.8C36,36,36.8,34,38.6,34.17c2.82.32,5.48-.87,8.25-.63,1,.78,0,1-.34,1.11a9.68,9.68,0,0,1-4.88,1.07,4,4,0,0,0-2.37.26,1,1,0,0,0-.63,1.22.91.91,0,0,0,1.09.74,11,11,0,0,0,1.92-.61c2-.71,2.67-.33,3.28,1.83.16.53.07,1.33.75,1.42s.91-.56,1.17-1.07a8.11,8.11,0,0,1,3.24-3.4,4.54,4.54,0,0,1-2.82-2.27.35.35,0,0,1-.15-.34c0-.13,0-.2.09-.2.77-.65,1.36-.07,2,.34a10.42,10.42,0,0,0,2.85,1l.41.45c-.46,1.83-1.92,2.79-3,4-.53.6-.94,1.08-.66,1.78.89,2.23.13,5.13,2.3,6.85a2.49,2.49,0,0,0,1.58.82c1.6,0,1.14.88.58,1.79A3,3,0,0,1,50.82,50.36Z"/><path id="_Tracciato_44" data-name="&lt;Tracciato&gt;" class="cls-4" d="M165,42.37c-1.19,1.53-3.21,1.53-4.84,0Z"/><path id="_Tracciato_45" data-name="&lt;Tracciato&gt;" class="cls-12" d="M237.19,37.21a2.39,2.39,0,0,1,2.94-.88c.27.1.26.58,0,.73A4.18,4.18,0,0,1,237.19,37.21Z"/><path id="_Tracciato_46" data-name="&lt;Tracciato&gt;" class="cls-16" d="M235.21,49.6c-.56.74-1.34.34-2,.45C233.76,49.3,234.53,49.71,235.21,49.6Z"/><path id="_Tracciato_47" data-name="&lt;Tracciato&gt;" class="cls-18" d="M159,5.57c2.32-1.22,4.64-.37,6.93.15a14.22,14.22,0,0,0,2.75.31c0,1.94-1.15,2.89-2.69,1.9-2.58-1.66-4.5-.74-6.53,1.16-.86.81-2.19.9-3.13,1.84-.49.49-1.27.1-1.6-.47-1.78-3-4.15-1.93-6.41-1.11-.73.27-2.11.28-2,1.44s1.52.91,2.25.9c3.15,0,6.08,1.71,9.26,1.3.6-.07.9.28.81.94-.25,2,.86,1.92,2,1.51,1.39-.5,3,0,4.14-.47,3.35-1.33,6.82-1.43,10.24-2a27.58,27.58,0,0,1,3-.32c1.93-.1,3.88.12,5.77-.7,1.08-.46,2.25-.05,3.38.19,2.23.46,4.45,1.07,6.74.26,1-.34,1.81.25,2.61.84-.08,1.06-.95,1-1.44,1.37a2.26,2.26,0,0,1-1.75.31c-2-.79-4.1-1.24-6.2-.28a1.92,1.92,0,0,1-1.37.14,2.49,2.49,0,0,0-1.18-.21c-2.95.68-6.12.18-8.86,1.85-1.39.86-2.74-.36-4.18.26.35.86,1,.71,1.51.62,1.06-.16,2.1-.43,3.16-.62a3.46,3.46,0,0,1,3.51,1c1.16,1.27,3,.67,4.28,1.71a.5.5,0,0,1,0,.58c-1.12,1.25-2.4.56-3.54.21a18.33,18.33,0,0,0-10.27-.52,3.94,3.94,0,0,1-2.93-.41,2.48,2.48,0,0,0-2.64-.18c-3.53,1.56-7.19.16-10.8.68-6.73,1-13.55,1.1-20.26,2.42-.3-1.6-.14-2.72,1.76-2.24a.87.87,0,0,0,1-.6,24.65,24.65,0,0,0-2.5-.74,1.13,1.13,0,0,1-.87-1.29c.09-.65.54-.72,1-.81,1.95-.34,2-.36,1.15-2.22a2.32,2.32,0,0,1,0-2.13c.54-1,1-2.1,1.51-3.13.85-1.69,5.35-3.57,7-2.86,1.3.57,1.87-.81,2.86-1a4.73,4.73,0,0,0,4.84-.45c1.6-.44,3.14-.5,4.44.9h.4C157.1,6.44,158.05,4.83,159,5.57Z"/><path id="_Tracciato_48" data-name="&lt;Tracciato&gt;" class="cls-9" d="M146.48,5.12c-1,1.27-2,2-3.54,1-.62-.37-5.82,2.41-5.93,3.17a8.82,8.82,0,0,1-1.48,3.1c-.38.71-.52,1.43.23,1.95s1.35,1.05.87,1.93a2.19,2.19,0,0,1-2.15.89c-.4,0-1-.68-1.18.12s.6.72,1.08.84.77.23,1.16.34c.65.2,1.87-.11,1.63,1-.15.66-1.37,1.06-2.15,1.49a7.18,7.18,0,0,1-.74-1.07l-.73,2.24c-4.52,1.1-9.05,2.17-13.57,3.33a12.44,12.44,0,0,1-2.57.25c-1.13-.68-1.27-1.61-.59-2.77a5.74,5.74,0,0,0,.38-.79c1.16-3,.31-4.44-2.52-4.38a2.43,2.43,0,0,0-1.87.44c.6.58,1.27.2,1.84.3,1.64.26,2.14,1.13,1.3,2.68a2.47,2.47,0,0,0,0,2.25,6.09,6.09,0,0,1,.62,2.27c-.54.46-1.08-.21-1.62,0-.58-.42-.88.07-1.21.45s-.54.45-.81,0a2.52,2.52,0,0,0-.54-2.64c-.33-.35-.84-.8-.43-1.32,1-1.32,0-2.15-.63-2.82-.86-1-1.2.84-2,.78-.36-1.38,1.1-1.43,1.47-2.48a3,3,0,0,0-2.44.27,4.17,4.17,0,0,1-1.32.52c-.63,0-1.48.42-1.87-.29s.54-1.06.81-1.61.64-1.55,1.47-.76c.69.64,1.27,0,1.9,0,.42,0,.88-.15,1-.63.16-.87-.56-.59-.93-.77-.65-.32-1.17-.65-.93-1.66s.77-.86,1.51-.69c1.8.4,3.76-.18,5.37,1.36.39.38.94,0,.56-.79-.22-.44-.69-.87-.14-1.34s.94,0,1.25.34c.91,1,1.38.11,2-.47,1.66-1.58,2-1.49,2.93.59.39.86.88,1.39,1.55.23.17-.31.35-.84.56-.86,3.5-.37,6.23-3.57,10-3.19,2.3.24,4.2-1.58,6.35-2.26.68-.22,1.49-1,2-.53C143.85,6.3,145.13,5.43,146.48,5.12Z"/><path id="_Tracciato_49" data-name="&lt;Tracciato&gt;" class="cls-29" d="M184,20V19.5a2,2,0,0,1,2.4-1.48c3.51.38,7-.07,10.53.43a5.66,5.66,0,0,1,1.55.42c1.37.8,2.51-.12,3.56-.8,1.3-.83,2.63-1.08,3.8-.2,2.58,1.93,5.47,1,8.2,1.29a5.45,5.45,0,0,1,3.39,1c.6.51,1.37,1.05,2,.52,2.58-2.06,5.32-.72,8-.57,1.74.1,3.47.5,5.11-.52a9.38,9.38,0,0,1,4.05,0,5,5,0,0,0,3.31.5c.87-.24,1.52.33,2.17.86,1.17,2.69.92,3.26-1.69,3.11-2.22-.13-4.51.25-6.6-1.14a4.39,4.39,0,0,0-2.34-.27c-1.94,0-3.86.52-5.79-1a4,4,0,0,0-4.43.06,4.55,4.55,0,0,1-5.14.31c-2.26-1.1-4.47-.51-6.66-.37a4.51,4.51,0,0,1-3.37-.79c-1.63-1.24-3.28-2.18-4.95,0-.57.74-1.31.47-2,.12a8.83,8.83,0,0,0-7.42-.36,3.39,3.39,0,0,1-3.81-.49C186.61,19,185.28,19.87,184,20Z"/><path id="_Tracciato_50" data-name="&lt;Tracciato&gt;" class="cls-27" d="M52.45,30.62a35.65,35.65,0,0,1,8.66-1c5.32-.18,10.62-.52,15.92-1.11a36.45,36.45,0,0,1,8.91.34c-3.58.74-7.15,1.63-10.75,2.19-5,.78-10,.88-14.92,1.75-1.68.29-3.45-.06-5.16.1S53.61,31,52.45,30.62Z"/><path id="_Tracciato_51" data-name="&lt;Tracciato&gt;" class="cls-20" d="M242.09,20.89c-.89-.19-1.72-.62-2.71-.15a2,2,0,0,1-2.53-.75c-1.67-.79-3.49-1.17-5-2.45-.06-.55-.24-1.13-.79-1.08-1.59.13-2.77-.85-4-1.6-1.86-1.08-3.94-.32-5.88-.81-.45-.11-.37.92-.95.91-1.67,0-3.32-.17-5-.21-.71,0-1.68.15-1.8-1.14a1.71,1.71,0,0,1,2.43.08l1.5-.09-1.5-2.15a44.64,44.64,0,0,1,5.25.9c.74,0,1.35.57,2.25-.06.73-.51,1.92,0,2.85.44,1.66.76,3.28,1.67,5.19,1.45,1-.12,1.71.78,2.44,1.39,1.65,1.37,3.3,2.64,5.53,2.2a1,1,0,0,1,1.27.83,5.89,5.89,0,0,0,1.85,2.29Z"/><path id="_Tracciato_52" data-name="&lt;Tracciato&gt;" class="cls-30" d="M167.84,32.5h-1.61c1.56-3.07,3.54-2.16,5.9-1.18,1.59.66,3.55.22,5.35.28.61,0,.47-.48.58-.88.27-.95.82-1.57,1.8-1.14.46.2,1.12.34,1.1,1.1s-.85.25-1.13.88c1.16,1,2.52.28,3.75.5a.69.69,0,0,1,0,.73A4.08,4.08,0,0,1,180,33.94c-3.5-.36-7-.32-10.53-.77A2.22,2.22,0,0,1,167.84,32.5Z"/><path id="_Tracciato_53" data-name="&lt;Tracciato&gt;" class="cls-3" d="M116.61,25.73c-.73-.88-.84-2.17-1.65-3-.42-.44-.57-1.07.16-1.42s1.12-.85.85-1.52a1.55,1.55,0,0,0-1.76-.75,4.25,4.25,0,0,0-1,.27c-.8.3-1.15-.24-1.29-.95s.37-1.08.94-1.1a14.08,14.08,0,0,1,4,.05c1.61.41,1.26,2.21,1.27,3.5a4.37,4.37,0,0,1-.89,2.43c-.77,1-.42,1.71.14,2.51Z"/><path id="_Tracciato_54" data-name="&lt;Tracciato&gt;" class="cls-31" d="M183.58,32.51v-.45a54.46,54.46,0,0,1,13.48.8,32.67,32.67,0,0,0,8.66-.25c.83-.1,1.62-.22,2.07.82-.92-.25-1.75-.82-2.27.91-.29,1-1.69.27-2.58.43l-.29-.07a12,12,0,0,0-8.08,0A72.78,72.78,0,0,0,184.44,33,1.21,1.21,0,0,1,183.58,32.51Z"/><path id="_Tracciato_55" data-name="&lt;Tracciato&gt;" class="cls-1" d="M52,34.65A2.63,2.63,0,0,1,48.76,34a2,2,0,0,0-1.56-.68c.69-1.34,1.45-1.77,2.63-.51A10.06,10.06,0,0,0,52,34.21Z"/><path id="_Tracciato_56" data-name="&lt;Tracciato&gt;" class="cls-27" d="M85.94,28.85c1.41-1,3-.22,4.44-.45C89,29.35,87.41,28.62,85.94,28.85Z"/><path id="_Tracciato_57" data-name="&lt;Tracciato&gt;" class="cls-3" d="M113.78,26.18c0-.41-.13-1,.34-1.15s.67.32.87.7Z"/><path id="_Tracciato_58" data-name="&lt;Tracciato&gt;" class="cls-23" d="M36.71,32l-.4.45c-1.64.27-3.35.21-4.85,1.12-1.08.65-2.09-.44-3.12,0-1.8.7-1.59-1.15-1.95-2-.82-2-3.05-2.46-3.75-4.63-.23-.68-1.57,0-2.27-.32C17.3,25,15,26.47,12.93,28.8a3.59,3.59,0,0,1-4.06,1.33,22.76,22.76,0,0,0,5.72-4.19,4,4,0,0,1,2.28-.75,4.87,4.87,0,0,0,3.3-1.56c1.09-1.15,2.82-2.49,4.53-.5a1.1,1.1,0,0,0,1.12.18c1.67-1.14,3.41-.19,5.1-.29,1.87-.11,2.95,1.6,2.3,3.57-.35,1.05-.35,1.77.62,2.13A5.3,5.3,0,0,1,36.71,32Z"/><path id="_Tracciato_59" data-name="&lt;Tracciato&gt;" class="cls-9" d="M155.76,5.57a6.75,6.75,0,0,0-4.44-.9C153,4,154.56,3.55,155.76,5.57Z"/><path id="_Tracciato_60" data-name="&lt;Tracciato&gt;" class="cls-9" d="M159,5.57c-1,.07-1.89,1-2.83,0,1.19.18,2.05-1.08,3.23-.89Z"/><path id="_Tracciato_61" data-name="&lt;Tracciato&gt;" class="cls-24" d="M15.72,40.46A2.64,2.64,0,0,1,11,40.31c-.94-2.38-3.13-2.84-4.7-4.22-.78-.68-3.57,1.4-3.81,2.73-.13.69-.19,1.31-.84,1.63-.3-2.06.19-3.68,2.05-4.5.84-.37,1.1-1.38,1.68-2,1.2-1.33,2.73-.57,4-1.43a22,22,0,0,0,3.78-2.73c1.2-1.22,2.66-.44,3.69.36,1.74,1.34,1.76,3.73,1.48,5.66a3.19,3.19,0,0,1-3.54,2.9c-1-.08-1.91.51-1.69,1.64s1.19.52,1.88.33Z"/><path id="_Tracciato_62" data-name="&lt;Tracciato&gt;" class="cls-18" d="M18.55,40.91V40c0-.83.62-1.28.89-1.94a.84.84,0,0,1,.76-.61c.4,0,2.71,3.3,2.71,3.93,0,1-.83,1.35-1.43,1.59-1.27.5-2.19-.06-2.57-1.57C18.86,41.23,18.67,41.08,18.55,40.91Z"/><path id="_Tracciato_63" data-name="&lt;Tracciato&gt;" class="cls-32" d="M221.12,12.35c-1.83.29-3.64.41-5.25-.9-.51-1.36-1.6-1.32-2.55-1.07-1.62.43-2.94.39-4.2-1.1-.79-.92-1.93-.77-2.94.06s-1.84,1.82-3.22,1.2c-1.11-.33-2.1-1.47-3.39-.62a.45.45,0,0,1-.39,0c-1.64-.76-.53-2.65-1.24-3.9-.33-.59.91-1.24,1.6-1.21a18.68,18.68,0,0,0,5.57-1c1.62-.44,3.63-1,5.46-.26a2,2,0,0,0,2.58-.52c1-1.21,2-.2,3-.12,1.84.14,3.87-.61,5.39,1.32a1.45,1.45,0,0,0,1.71.36c2.39-1,4.3.22,6,1.82s3.37,1.18,5.17,1a7.12,7.12,0,0,1,.8,0c-.71.64-1.8.51-2.4,1.45-.21.33-.61.26-.9,0-2-1.89-5.11-1.2-6.76-3.81-.09-.15-.46-.3-.52-.24-1.36,1.41-3.52.14-4.8,1.77a1.22,1.22,0,0,1-1.8.27c-1.95-1.08-4.1-.89-6.18-1.14-1-.11-.76.8-.92,1.37-.26.88.07,1,.81.89,1.72-.14,3.43,1.38,5.18.09.06-.05.33.08.34.14C217.46,10.85,220.13,10.64,221.12,12.35Z"/><path id="_Tracciato_64" data-name="&lt;Tracciato&gt;" class="cls-26" d="M194.89,14.13c.24-.58.86-.29,1.25-.69a4,4,0,0,0-3.19-.38c-2.18.36-4.37-.32-6.56-.54a6.3,6.3,0,0,0-3.46.35c-1.35.58-3,.29-4.53.34s-2.93-.21-4.26.85a1.35,1.35,0,0,1-1.53.23c-1.81-1.06-3.41-.54-5.08.61a4,4,0,0,1-3.83.63c-1-.39-2,.17-2.93.51s-1.87.65-2.67-.14.29-1.61.12-2.66c-1.36,1.07-2.57.23-3.9,0-1.53-.27-3.06-1.09-4.7-.69-1.17.28-2.17-.8-3.38-.6-.17,0-1.19-.54-1.08-1.35.09-.63.7-.85,1.17-1.14,1.73-1.05,3.69-1.24,5.53-1.85,1.26-.41,2,1,2.73,1.9.83,1.15,1.51,1.84,2.36.13.26-.53.57-.77,1.14-.58a1,1,0,0,0,1.23-.41c1.72-2.47,4-2.94,6.31-1.42,1.41.94,2.57.9,3-1.2a14.24,14.24,0,0,0,8.07.45h.4c1.17-.58,2.47.17,3.63-.44.69,0,1.1-.49,1.49-1,.81-1,1.72-1.11,3-1.12a20,20,0,0,0,6.43-.57c0,.56-.21,1.2-.72,1.2-2,0-3.58,1.59-5.57,1.52a5,5,0,0,0-1.75.43,2.61,2.61,0,0,0-1.55,3c.13,1.36,1.31,1.12,2.11,1a3.85,3.85,0,0,1,3.48,1.07c1.54,1.41,4.75,1,6.2-.43.9-.92,2.08-.59,3.5-1.14-1.68,1.52-1.69,1.53-.18,2.95.43.4.27.77.12,1.18A1.59,1.59,0,0,1,194.89,14.13Z"/><path id="_Tracciato_65" data-name="&lt;Tracciato&gt;" class="cls-20" d="M203,10.54A4.85,4.85,0,0,0,205.9,8.8c1-1.37,2.52-1.2,3.17-.3,1.52,2.11,3.41,1.52,5.25,1.59.87,0,1.65,0,1.55,1.36-1.1-1-2.19-1.3-3.41-.16-1,.93-2,.36-2.62-.55-.92-1.24-1.77-1-2.71-.14-.16.15-.36.23-.5.38C205.25,12.41,204,12.47,203,10.54Z"/><path id="_Tracciato_66" data-name="&lt;Tracciato&gt;" class="cls-30" d="M213.43,13.72c-1.61.43-3.21-.17-4.82,0-.38-.78-1.28-.11-1.74-.78,1-1.19,2.13-2,3.63-.88.68.51,1.37.12,2.09,0,1.36-.23,2.89-.57,3.28,1.67Z"/><path id="_Tracciato_67" data-name="&lt;Tracciato&gt;" class="cls-18" d="M176.74,6.48C174,7.67,171.28,8,168.67,6a.9.9,0,0,1,1.23-.4C172.07,7.25,174.53,5.63,176.74,6.48Z"/><path id="_Tracciato_68" data-name="&lt;Tracciato&gt;" class="cls-18" d="M180.77,6c-1.13.89-2.42.25-3.63.44C178.28,5.59,179.57,6.24,180.77,6Z"/><path id="_Tracciato_69" data-name="&lt;Tracciato&gt;" class="cls-15" d="M183.58,32.51a33.74,33.74,0,0,1,11.29,1.8c2.74-.76,5.44-1,8.07.46,0,1.1-.21,2-1.49,1.64a1.12,1.12,0,0,0-1.12.29c-1.9,2-3.79.91-5.64,0-.73-.38-1.5-.71-2,.09-1,1.71-1.69.75-2.45-.17A2.47,2.47,0,0,0,186.8,36a5.39,5.39,0,0,1-5.53.15c-.55-.26-1.08-.65-1.71-.28-2.29,1.33-4.35.44-6.41-.77a2.63,2.63,0,0,0-3-.07c-.81.55-1.68,1-2.56,0s.08-1.73.28-2.58c3.74.42,7.52.13,11.25.85A8.55,8.55,0,0,0,183.58,32.51Z"/><path id="_Tracciato_70" data-name="&lt;Tracciato&gt;" class="cls-1" d="M47.2,33.75c-3,.15-5.9.94-8.9,1-1.22,0-1.89,1.07-1.09,2.5s1.6,3.08,3.59,2c.91-.49,2.11-1.69,2.79-.47a3.46,3.46,0,0,1-.43,4.39c.6-2.55.57-2.72-1.85-2.2a3.85,3.85,0,0,1-4.91-2.52c-.63-1.46-1.33-1.87-2.16-.15-.23.48-.57,1-1.09.54s.15-.83.27-1.26c.69-2.47,2.51-4.45,4.44-4.1,3.2.6,6.23-.71,9.34-.18Z"/><path id="_Tracciato_71" data-name="&lt;Tracciato&gt;" class="cls-7" d="M41.74,49.14A1.56,1.56,0,0,1,40,50.34c-.58,0-.87-.29-.64-1s.27-1.72,1.31-1.61C41.39,47.82,41.52,48.56,41.74,49.14Z"/><path id="_Tracciato_72" data-name="&lt;Tracciato&gt;" class="cls-1" d="M50.82,50.36h2.42A1.7,1.7,0,0,1,50.82,50.36Z"/><path id="_Tracciato_73" data-name="&lt;Tracciato&gt;" class="cls-33" d="M51,35.8c-1.67,1.38-3.28,2.65-4.13,4.8a1.65,1.65,0,0,1-1.49,1c-.88,0-.58-1-.72-1.59-.75-2.84-.69-2.76-3.32-2-1,.28-2.14,1.58-3.12-.23-.51-1-.54-1.61.37-2.19a2.85,2.85,0,0,1,2.12-.54,9.34,9.34,0,0,0,5.47-.87c.94-.39,1.76-.67,2.53.57C49.06,35.45,50.06,35.58,51,35.8Z"/><path id="_Tracciato_74" data-name="&lt;Tracciato&gt;" class="cls-34" d="M193.28,14.57a35.28,35.28,0,0,0-7,1.74c5,0,9.49.76,14,.53.76,0,1.62-.34,2.29.42a3.71,3.71,0,0,1-4,2.25,23.75,23.75,0,0,0-7.83-.59,6.55,6.55,0,0,1-2.75-.11,3.75,3.75,0,0,0-3.95.69c-1.93-.35-3.87-.27-5.48-2.11-.91-1.05-2.5,0-3.78.1-.91.1-1.78.47-2.73.49-1.12,0-1.23-.77-1.27-1.55,0-1.22.71-.73,1.25-.57,2.32.64,4.35-.25,6.34-1.42.28-.16.71-.33.93-.2,2.42,1.46,4.91-1.71,7.3.18,1.4-1.9,3.23-.45,4.85-.73A1.49,1.49,0,0,1,193.28,14.57Z"/><path id="_Tracciato_75" data-name="&lt;Tracciato&gt;" class="cls-12" d="M198.52,19.51c1.65-.08,2.86-1.13,4-2.25A168.17,168.17,0,0,1,232.41,20c-1.52,1.76-3.4.91-5.07.65s-3.47,0-5.15-.63c-.61-.24-1.13.25-1.59.74-1.18,1.28-2.34,1.17-3.5-.07-.81-.88-1.81-.74-2.86-.91-2.67-.43-5.52,1-8.05-1.09a3,3,0,0,0-4.07,0C201.19,19.34,200,20.67,198.52,19.51Z"/><path id="_Tracciato_76" data-name="&lt;Tracciato&gt;" class="cls-35" d="M232,17.3c-3.84-.49-7.47-2.08-11.29-2.72-.13-.44-1-.55-.55-1.23s.75-.28,1.15.06c.58.5,1.3.31,1.94.27a6.92,6.92,0,0,1,5.62,1.73,1.81,1.81,0,0,0,2.06.29c.75-.26,1.26.46,1.64,1C232.84,17.07,232.32,17.23,232,17.3Z"/><path id="_Tracciato_77" data-name="&lt;Tracciato&gt;" class="cls-12" d="M202.94,34.77a23.81,23.81,0,0,0-8.07-.46,1.36,1.36,0,0,1,1.26-.89c1.81-.11,3.62.46,5.45,0C202.41,33.26,202.65,34.12,202.94,34.77Z"/></g></g></g></g></svg>