<svg xmlns="http://www.w3.org/2000/svg" viewBox="0 0 10.46 8.37"><defs><style>.cls-1{fill:#0f4881;}</style></defs><title>virgolette</title><g id="Livello_2" data-name="Livello 2"><g id="Grafica"><g id="_Gruppo_" data-name="&lt;Gruppo&gt;"><g id="_Gruppo_2" data-name="&lt;Gruppo&gt;"><path id="_Tracciato_composto_" data-name="&lt;Tracciato composto&gt;" class="cls-1" d="M2.52,8.37A2.15,2.15,0,0,1,.59,7.28,4.91,4.91,0,0,1,0,4.73,4.7,4.7,0,0,1,1.19,1.61a5.67,5.67,0,0,1,1.14-1A5.27,5.27,0,0,1,3.67,0l.07.21A5.11,5.11,0,0,0,2.47.82a5.37,5.37,0,0,0-1.11,1A4.93,4.93,0,0,0,.63,2.91,4.5,4.5,0,0,0,.21,4.58c0,.15.09.21.19.21a1,1,0,0,0,.39-.08,4,4,0,0,0,.47-.23l.45-.24a1.6,1.6,0,0,1,.39-.11l.42,0A2,2,0,0,1,4,4.73a2.07,2.07,0,0,1,.61,1.5A2.06,2.06,0,0,1,4,7.72,2.12,2.12,0,0,1,2.52,8.37Zm5.84,0A2.08,2.08,0,0,1,6.44,7.28a4.54,4.54,0,0,1-.63-2.55A4.7,4.7,0,0,1,7,1.61a5.47,5.47,0,0,1,1.15-1A5.61,5.61,0,0,1,9.52,0l0,.21A5.5,5.5,0,0,0,7.17,1.79a4.93,4.93,0,0,0-.73,1.12A4.5,4.5,0,0,0,6,4.58c0,.15.09.21.21.21a1.05,1.05,0,0,0,.4-.08,4,4,0,0,0,.47-.23l.46-.24a1.58,1.58,0,0,1,.37-.11,2.6,2.6,0,0,1,.4,0,2,2,0,0,1,1.52.63,2.07,2.07,0,0,1,.61,1.5,2,2,0,0,1-.61,1.49A2.17,2.17,0,0,1,8.36,8.37Z"/></g></g></g></g></svg>