<svg xmlns="http://www.w3.org/2000/svg" viewBox="0 0 164.81 90.24"><defs><style>.cls-1{fill:#548cc5;}.cls-2{fill:#0f4881;stroke:#0f4881;stroke-miterlimit:10;stroke-width:0.25px;}</style></defs><title>wedding_date</title><g id="Livello_2" data-name="Livello 2"><g id="Grafica"><g id="_Gruppo_" data-name="&lt;Gruppo&gt;"><path id="_Tracciato_composto_" data-name="&lt;Tracciato composto&gt;" class="cls-1" d="M28.39,45.91c1.07-.86,2.11-1.75,3.13-2.67a34.17,34.17,0,0,1,3.27-2.59c.82-.66,1.65-1.28,2.52-1.87a20.56,20.56,0,0,0,2.44-1.94,2.08,2.08,0,0,0,.87-.61.62.62,0,0,1,1,0,.84.84,0,0,1-.35,1,4.64,4.64,0,0,0-.87.69c-1.88,1.57-3.81,3.09-5.8,4.53a39.46,39.46,0,0,0-5.48,4.84A12.31,12.31,0,0,1,29.8,52a14.63,14.63,0,0,1-.72,4.69A25.87,25.87,0,0,1,25.53,64a40.16,40.16,0,0,1-5.06,5.83l-1.53,1.22a16.53,16.53,0,0,1-1.6,1.14c-.56.26-1.19.54-1.9.84a3,3,0,0,1-2.21.08,1.81,1.81,0,0,1-1.19-1,3.47,3.47,0,0,1-.19-1.53,7.22,7.22,0,0,1,.38-1.71c.21-.59.41-1.11.61-1.56a26.1,26.1,0,0,1,2.6-4.81q1.51-2.21,3-4.26c1.42-2,2.86-3.88,4.3-5.68S25.6,49,27,47.36a10.15,10.15,0,0,0-3.93-4.27,31,31,0,0,0-5.6-2.59q-3-1.06-6.32-1.91a31,31,0,0,1-6.1-2.21,12.73,12.73,0,0,1-3.35-2.21A5.21,5.21,0,0,1,0,30.44a8.4,8.4,0,0,1,.27-3.12,18.36,18.36,0,0,1,1-2.75,34.81,34.81,0,0,1,4.15-6.78q2.4-3,4.92-5.95c1.16-1.26,2.36-2.5,3.58-3.69s2.49-2.33,3.81-3.39l4.49-2.9A12.42,12.42,0,0,1,27.86,0a6.82,6.82,0,0,1,3.2.42A7.25,7.25,0,0,1,33.42,2a8.27,8.27,0,0,1,1.64,2.37A22.93,22.93,0,0,1,36.17,7.2,24,24,0,0,1,37.12,14q0,3.91-.12,7.58a.61.61,0,0,0,.31.72c.25.13.33.37.23.73.1.35,0,.54-.19.57a.46.46,0,0,0-.42.42,4,4,0,0,1-.35,1.33,1.49,1.49,0,0,1-.87.8h-.54a1.12,1.12,0,0,1-1-.76,5.15,5.15,0,0,1-.31-1.64,11.58,11.58,0,0,1,.08-1.94c.07-.66.14-1.25.19-1.75.1-1.33.17-2.7.23-4.12s0-2.81,0-4.15A24.72,24.72,0,0,0,33.8,8a10,10,0,0,0-1.14-3.09,7.53,7.53,0,0,0-.88-1.14,5.66,5.66,0,0,0-1.1-.92l-.8-.3A4.94,4.94,0,0,0,29,2.32a12.35,12.35,0,0,0-3.12.38,13.1,13.1,0,0,0-2.71,1,16.93,16.93,0,0,0-2.36,1.45q-1.11.8-2.1,1.56a50.7,50.7,0,0,0-6.93,6.55Q10.1,15,8.65,16.91T5.83,20.76c-.4.61-.82,1.27-1.25,2S3.72,24.19,3.32,25a11.5,11.5,0,0,0-.73,1.6,10.3,10.3,0,0,0-.49,1.87A8.16,8.16,0,0,0,2,30.33,3.83,3.83,0,0,0,2.56,32,6.84,6.84,0,0,0,5.3,34.36a29.06,29.06,0,0,0,3.5,1.41c1.83.67,3.71,1.26,5.64,1.8A52,52,0,0,1,20,39.43,24,24,0,0,1,24.85,42,12.13,12.13,0,0,1,28.39,45.91Zm-9.3,22.64q1.53-1.45,3-3.09a26.21,26.21,0,0,0,2.66-3.62,27.16,27.16,0,0,0,2.56-5.68,15.2,15.2,0,0,0,.42-7s0-.07-.08-.07-.15.17-.15.22q-3.14,3.66-6,7.47a79.49,79.49,0,0,0-5.41,8.08c-.46,1-1,2-1.57,3a5.57,5.57,0,0,0-.64,3.51,4.39,4.39,0,0,0,2.89-1A28.71,28.71,0,0,1,19.09,68.55Z"/><path id="_Tracciato_composto_2" data-name="&lt;Tracciato composto&gt;" class="cls-1" d="M69.32,34.78a.53.53,0,0,1-.16.65,4.78,4.78,0,0,1-.53.42c-.46.51-.9,1-1.33,1.56L66,39.05c-.56.76-1.1,1.53-1.64,2.29s-1.08,1.52-1.63,2.28-1,1.45-1.6,2.21l-1.68,2.29a21.72,21.72,0,0,1-2.36,2.71,6.45,6.45,0,0,1-3.43,1.63,2.52,2.52,0,0,1-1.38-.34,3.42,3.42,0,0,1-.91-.87A8.09,8.09,0,0,1,50.45,48a28,28,0,0,1,0-3.77c.1-1.3.24-2.6.42-3.89s.29-2.53.34-3.7a29.25,29.25,0,0,0-3.43,3.62A20.54,20.54,0,0,1,44,43.93c-.61.41-1.25.8-1.94,1.18a3.78,3.78,0,0,1-2.32.42,5.65,5.65,0,0,1-.69-.31,1.83,1.83,0,0,1-.53-.38,3.12,3.12,0,0,1-.61-1.52,10.77,10.77,0,0,1,1.18-4.5,10.25,10.25,0,0,1,2.48-3.35,4.14,4.14,0,0,1,2.32-1,2.17,2.17,0,0,1,2.25,1.11,5.87,5.87,0,0,1,.34.61,2.8,2.8,0,0,1,.27.8,2.87,2.87,0,0,1,0,.76.44.44,0,0,1-.35.42c-.3.1-.52,0-.65-.15a5.54,5.54,0,0,1-.34-.69,6.07,6.07,0,0,0-.34-.73.69.69,0,0,0-.65-.34,1.25,1.25,0,0,0-.91.23,4.44,4.44,0,0,0-.84.72,4.51,4.51,0,0,0-.65.92,6.87,6.87,0,0,1-.49.8c-.36.66-.66,1.29-.92,1.9a6.09,6.09,0,0,0-.38,2.29,3.92,3.92,0,0,0,1.83-.72c.51-.38,1-.78,1.45-1.18,1-.82,1.85-1.64,2.66-2.48S47.9,37,48.82,36c.4-.45.83-.94,1.29-1.44a3.82,3.82,0,0,1,1.52-1.07s.08,0,.08,0,0,0,.08,0a2.6,2.6,0,0,1,1.06.15A2.67,2.67,0,0,1,53.69,36l-.3,3.2c-.15,1.22-.31,2.48-.46,3.78a34.69,34.69,0,0,0-.23,4c0,.56,0,1.15.08,1.79a2.25,2.25,0,0,0,.76,1.56A5.1,5.1,0,0,0,56.17,49c.63-.66,1.31-1.32,2-2,1.27-1.48,2.46-3,3.58-4.5S64,39.46,65.2,38a13.57,13.57,0,0,1,.92-1.11c.3-.33.6-.7.91-1.11a6.81,6.81,0,0,0,1.07-1A.75.75,0,0,1,69.32,34.78Z"/><path id="_Tracciato_composto_3" data-name="&lt;Tracciato composto&gt;" class="cls-1" d="M74.27,18.47a.61.61,0,0,1-.57,0,.89.89,0,0,1-.42-.34A56.94,56.94,0,0,0,70.8,29.64q-.72,6.21-1.18,12.76a42.67,42.67,0,0,1,2.67-3.81,14.86,14.86,0,0,1,3.58-3.35,11.18,11.18,0,0,1,2.55-1.18,2.63,2.63,0,0,1,2.71.57,4,4,0,0,1,1.33,2.9A8.59,8.59,0,0,1,82,41.26q1.75-1.14,4-2.48a39,39,0,0,1,4.61-2.32,7.2,7.2,0,0,0,.73-.3,8.12,8.12,0,0,1,1-.39,3.06,3.06,0,0,1,.88-.15.42.42,0,0,1,.45.38c.1.41-.07.68-.53.8a2.32,2.32,0,0,0-.84.35,54.16,54.16,0,0,0-11,6.55,35.12,35.12,0,0,1-7.24,11.81,19.34,19.34,0,0,1-2.21,1.91,6.76,6.76,0,0,1-2.82,1.14v1.53a7.72,7.72,0,0,1-.19,1.71,3.14,3.14,0,0,1-.61,1.3,1.12,1.12,0,0,1-1.26.26,1,1,0,0,1-.8-.65,4.54,4.54,0,0,1-.38-1.37,11.22,11.22,0,0,1-.12-1.67V58A31.09,31.09,0,0,1,66,54.83c.15-1,.28-2,.38-2.9a17.27,17.27,0,0,0,.11-2.59c0-.86,0-1.73,0-2.59q.39-6.18,1-12.19a88.57,88.57,0,0,1,1.91-11.51c.15-.66.33-1.34.53-2s.43-1.39.69-2.1c.15-.35.31-.76.49-1.22a5,5,0,0,1,.69-1.22,2.21,2.21,0,0,1,.95-.72A1.34,1.34,0,0,1,74,16a2.68,2.68,0,0,1,.46,1.18A1.46,1.46,0,0,1,74.27,18.47ZM79.6,43.09c.16-.46.33-1,.54-1.64a10.54,10.54,0,0,0,.42-2,7.34,7.34,0,0,0,0-1.94,2.22,2.22,0,0,0-.84-1.45.49.49,0,0,0-.42-.12,2.93,2.93,0,0,1-.49,0c-.06,0-.08,0-.08,0s0,0-.08,0a8.49,8.49,0,0,0-3.27,2.17,26.14,26.14,0,0,0-2.44,3.09,8.38,8.38,0,0,0-1.11,1.6c-.33.61-.65,1.22-1,1.83S70.29,46,70,46.67a7.6,7.6,0,0,0-.64,2.06,10.48,10.48,0,0,0,0,2.44,14.18,14.18,0,0,1,0,2.67,61.57,61.57,0,0,1,4.84-5.6A74.72,74.72,0,0,1,79.6,43.09Zm-6.13,8.08a26.65,26.65,0,0,0-4,5.71,9.74,9.74,0,0,0,2.82-2c.81-.84,1.57-1.69,2.28-2.56a32.6,32.6,0,0,0,2-2.86,24.5,24.5,0,0,0,1.72-3.16C76.63,47.87,75,49.49,73.47,51.17Z"/><path id="_Tracciato_composto_4" data-name="&lt;Tracciato composto&gt;" class="cls-1" d="M119.61,34.78a.51.51,0,0,1-.15.65,4.78,4.78,0,0,1-.53.42c-.46.51-.9,1-1.34,1.56l-1.33,1.64c-.56.76-1.1,1.53-1.64,2.29s-1.08,1.52-1.64,2.28-1,1.45-1.6,2.21l-1.67,2.29a21,21,0,0,1-2.37,2.71,6.39,6.39,0,0,1-3.42,1.63,2.52,2.52,0,0,1-1.38-.34,3.42,3.42,0,0,1-.91-.87,8.09,8.09,0,0,1-.88-3.28,28,28,0,0,1,0-3.77c.1-1.3.24-2.6.42-3.89s.29-2.53.34-3.7a28.53,28.53,0,0,0-3.43,3.62,20.85,20.85,0,0,1-3.81,3.7c-.61.41-1.25.8-1.94,1.18a3.78,3.78,0,0,1-2.32.42,5.65,5.65,0,0,1-.69-.31,1.83,1.83,0,0,1-.53-.38,3.12,3.12,0,0,1-.61-1.52,10.77,10.77,0,0,1,1.18-4.5,10.23,10.23,0,0,1,2.47-3.35,4.2,4.2,0,0,1,2.33-1,2.17,2.17,0,0,1,2.25,1.11,5.87,5.87,0,0,1,.34.61,2.8,2.8,0,0,1,.27.8,2.48,2.48,0,0,1,0,.76.43.43,0,0,1-.34.42c-.3.1-.52,0-.65-.15a5.54,5.54,0,0,1-.34-.69c-.1-.25-.22-.5-.34-.73a.69.69,0,0,0-.65-.34,1.25,1.25,0,0,0-.91.23,4.44,4.44,0,0,0-.84.72,4.51,4.51,0,0,0-.65.92,5.67,5.67,0,0,1-.5.8c-.35.66-.66,1.29-.91,1.9a6.09,6.09,0,0,0-.38,2.29,3.92,3.92,0,0,0,1.83-.72c.51-.38,1-.78,1.45-1.18,1-.82,1.85-1.64,2.66-2.48S98.2,37,99.11,36l1.3-1.44a3.76,3.76,0,0,1,1.52-1.07s.08,0,.08,0,0,0,.08,0a2.63,2.63,0,0,1,1.06.15A2.67,2.67,0,0,1,104,36l-.3,3.2c-.16,1.22-.31,2.48-.46,3.78a34.69,34.69,0,0,0-.23,4c0,.56,0,1.15.08,1.79a2.25,2.25,0,0,0,.76,1.56A5.1,5.1,0,0,0,106.47,49c.63-.66,1.31-1.32,2-2,1.27-1.48,2.46-3,3.58-4.5s2.26-3,3.43-4.49a13.54,13.54,0,0,1,.91-1.11,13.57,13.57,0,0,0,.92-1.11,6.81,6.81,0,0,0,1.07-1A.74.74,0,0,1,119.61,34.78Z"/><path id="_Tracciato_composto_5" data-name="&lt;Tracciato composto&gt;" class="cls-1" d="M121.82,18.78Q129.68,18,137.9,17a146.36,146.36,0,0,1,17-1.11,33.1,33.1,0,0,1,4.23.12,35.79,35.79,0,0,1,3.92.57c.31.1.69.2,1.15.3a.71.71,0,0,1,.61.84.79.79,0,0,1-1,.38c-.43-.15-.83-.27-1.18-.38a27.79,27.79,0,0,0-4.69-.53c-1.65-.05-3.33,0-5,0s-3.39.19-5.07.34-3.25.31-4.72.46q-5.49.45-10.83,1.1c-3.55.43-7.06.88-10.51,1.34-.15,2-.27,4.09-.34,6.17s-.17,4.19-.27,6.32-.09,4.26-.12,6.37-.09,4.25-.19,6.44q-.22,5.64-.23,11.12t-.15,11.06a5.9,5.9,0,0,1-.15,1.33,1,1,0,0,1-1,.72.88.88,0,0,1-1-.68,13.51,13.51,0,0,1-.23-1.37c-.1-1.53-.17-3.09-.19-4.69s-.06-3.14-.11-4.61c-.05-2.14-.11-4.27-.16-6.4s-.07-4.25-.07-6.33q0-6.4.3-12.73t.61-12.27c-2.89.36-5.87.82-8.92,1.38s-6.09,1-9.14,1.44l-1.49.16L97.28,24a5.64,5.64,0,0,1-1.75-.12c-.56-.12-.84-.39-.84-.8a.65.65,0,0,1,.65-.64,3.69,3.69,0,0,1,1.18.11q5.72-.69,11-1.71t11-1.64c.1-1.07.19-2.19.26-3.36s.17-2.33.27-3.5.2-2.22.31-3.32a4.12,4.12,0,0,1,1.14-2.63,1.54,1.54,0,0,1,1,0,.93.93,0,0,1,.57.54c.1,1.88.12,3.83,0,5.87S121.93,16.85,121.82,18.78Z"/><path id="_Tracciato_composto_6" data-name="&lt;Tracciato composto&gt;" class="cls-1" d="M130.74,35a9.47,9.47,0,0,1,1.49,2.67,13.84,13.84,0,0,1,.84,3.51,13,13,0,0,1-.12,3.54,4.84,4.84,0,0,1-1.45,2.78,11,11,0,0,1-1.67,1.11,4.1,4.1,0,0,1-2,.49A3.7,3.7,0,0,1,125,47.93,4.86,4.86,0,0,1,123.73,45a9.87,9.87,0,0,1,.69-4.46c.55-1.35,1.11-2.55,1.67-3.62a4.75,4.75,0,0,1,0-2.56A1.78,1.78,0,0,1,127.69,33a1.35,1.35,0,0,1,.69.19,1,1,0,0,0,.53.19,1.26,1.26,0,0,0,.69-.19,1.1,1.1,0,0,1,.53-.19,1.72,1.72,0,0,1,1.37.61,1.24,1.24,0,0,1,.23,1.37A.64.64,0,0,1,130.74,35Zm-1.6,1.15c-.51.86-1,1.9-1.64,3.12a10.84,10.84,0,0,0-1,3.89,6.1,6.1,0,0,0,0,2,1.87,1.87,0,0,0,.88,1.38,1.62,1.62,0,0,0,1.41.11,5.07,5.07,0,0,0,1.25-.65,4.08,4.08,0,0,0,1.15-2.28,10.11,10.11,0,0,0,0-2.86,11.46,11.46,0,0,0-.73-2.82,6.88,6.88,0,0,0-1.22-2.1s0,0-.07,0A.24.24,0,0,0,129.14,36.16Zm-1.6-1.45c0,.15.08.16.08,0S127.59,34.61,127.54,34.71Z"/></g><g id="_Gruppo_2" data-name="&lt;Gruppo&gt;"><path id="_Tracciato_composto_7" data-name="&lt;Tracciato composto&gt;" class="cls-2" d="M31.07,75.64a1.07,1.07,0,0,0,.51-.2.79.79,0,0,0,.28-.42,2.27,2.27,0,0,0,.09-.71V67.49a1.49,1.49,0,0,0-.28-1,1.44,1.44,0,0,0-1-.32h-.14V66h.25l.57-.06a2.73,2.73,0,0,0,.71-.21,2.23,2.23,0,0,0,.65-.43,1.77,1.77,0,0,0,.46-.74v0h.24v9.6a.57.57,0,0,1,0,.13,2.78,2.78,0,0,0,.06.64.94.94,0,0,0,.21.41.81.81,0,0,0,.37.23,2.38,2.38,0,0,0,.6.09h.43v.1H30.27v-.1A5.88,5.88,0,0,0,31.07,75.64Z"/><path id="_Tracciato_composto_8" data-name="&lt;Tracciato composto&gt;" class="cls-2" d="M41.23,75.63a3.41,3.41,0,0,1-1.34.27,3.63,3.63,0,0,1-1.28-.23A3.29,3.29,0,0,1,37.55,75a2.9,2.9,0,0,1-.68-1,3,3,0,0,1-.23-1.16.61.61,0,0,1,.16-.42.57.57,0,0,1,.42-.16.62.62,0,0,1,.43.16.54.54,0,0,1,.18.42c0,.16,0,.39,0,.69a2.85,2.85,0,0,0,.12.91,1.84,1.84,0,0,0,.5.83,1.75,1.75,0,0,0,1.1.46h.72a1.48,1.48,0,0,0,.92-.53,2.76,2.76,0,0,0,.56-1.06,4.35,4.35,0,0,0,.17-1.32,3.6,3.6,0,0,0-.24-1.32A2.79,2.79,0,0,0,41,70.5a2.11,2.11,0,0,0-1.2-.5H38.44v-.1h1.12a.83.83,0,0,0,.22,0,1.8,1.8,0,0,0,1.07-.51,2.43,2.43,0,0,0,.61-1,3.42,3.42,0,0,0,.17-1.2A3.69,3.69,0,0,0,41.42,66a2.39,2.39,0,0,0-.59-.89,1.4,1.4,0,0,0-.94-.35h-.31a1.59,1.59,0,0,0-.3.06,1.41,1.41,0,0,0-.86.47,2.09,2.09,0,0,0-.38.76,2.77,2.77,0,0,0-.09.8,6.07,6.07,0,0,1,0,.61.63.63,0,0,1-.19.42.61.61,0,0,1-.42.17.52.52,0,0,1-.4-.18.57.57,0,0,1-.17-.42A2.87,2.87,0,0,1,37,66.37a2.71,2.71,0,0,1,.69-.9,3.13,3.13,0,0,1,1-.61,3.3,3.3,0,0,1,1.16-.21,4,4,0,0,1,1.17.17,4.31,4.31,0,0,1,.49.22,2.65,2.65,0,0,1,.43.28l.1.08.1.1a2.85,2.85,0,0,1,.44.67,2.3,2.3,0,0,1,.17.65,1.11,1.11,0,0,1,0,.17,1,1,0,0,1,0,.17,2.19,2.19,0,0,1-.13.77,2.27,2.27,0,0,1-.36.69,3.54,3.54,0,0,1-.54.56l-.31.21a3.32,3.32,0,0,1-.68.34,3.86,3.86,0,0,1-.76.2l.3,0,.3.06.23.06.22.07a3.28,3.28,0,0,1,.66.28,4.19,4.19,0,0,1,.54.4,2.73,2.73,0,0,1,.66.93,2.78,2.78,0,0,1,.23,1.13,2.92,2.92,0,0,1,0,.51,2.85,2.85,0,0,1-.14.5,3,3,0,0,1-1.77,1.72Z"/><path id="_Tracciato_composto_9" data-name="&lt;Tracciato composto&gt;" class="cls-2" d="M50.09,70.18a6.74,6.74,0,0,1,.1-1.11A7.2,7.2,0,0,1,50.48,68a6.41,6.41,0,0,1,1.06-1.78A4.84,4.84,0,0,1,53.11,65,4.23,4.23,0,0,1,55,64.55a3.71,3.71,0,0,1,1.37.27h0l.06,0,.19.09.19.09a2.89,2.89,0,0,0,1.15.35,1.18,1.18,0,0,0,.63-.14.69.69,0,0,0,.32-.49H59v4.06h-.09A6.25,6.25,0,0,0,58.4,67a4.58,4.58,0,0,0-.9-1.3,4,4,0,0,0-1.16-.77,3.67,3.67,0,0,0-1.12-.26h0a2.47,2.47,0,0,0-1.4.44,3.93,3.93,0,0,0-1.15,1.18A6.28,6.28,0,0,0,51.91,68a7.79,7.79,0,0,0-.28,2.14,7.59,7.59,0,0,0,.46,2.71,4.94,4.94,0,0,0,1.22,2,3.74,3.74,0,0,0,.67.5c.22.11.4.2.56.26a2.43,2.43,0,0,0,.68.09,3.1,3.1,0,0,0,1.11-.23,5,5,0,0,0,.89-.53l.16-.18a2,2,0,0,0,.23-.3A2.2,2.2,0,0,0,57.8,74a1.8,1.8,0,0,0,.09-.6V72.11a.69.69,0,0,0-.15-.48.82.82,0,0,0-.39-.26,1.94,1.94,0,0,0-.58-.1h-.71v-.11h4.46v.11H60a1.06,1.06,0,0,0-.35.08.39.39,0,0,0-.2.2.81.81,0,0,0-.07.38V75h-.09a.83.83,0,0,0-.64-.23,2.74,2.74,0,0,0-.79.17c-.29.11-.58.23-.89.37a6.26,6.26,0,0,1-.93.35,4.31,4.31,0,0,1-1,.12,4.16,4.16,0,0,1-1.89-.43,5.13,5.13,0,0,1-.84-.52,4.28,4.28,0,0,1-.73-.69,6.32,6.32,0,0,1-1.06-1.79,7,7,0,0,1-.29-1.06A6.88,6.88,0,0,1,50.09,70.18Z"/><path id="_Tracciato_composto_10" data-name="&lt;Tracciato composto&gt;" class="cls-2" d="M62.65,75.64a1.11,1.11,0,0,0,.52-.2.85.85,0,0,0,.28-.42,2.67,2.67,0,0,0,.08-.71V66.1a1.54,1.54,0,0,0-.27-1,1.44,1.44,0,0,0-1-.33h-.45v-.08H66.7v.07h-.56a1.31,1.31,0,0,0-.87.35,1.52,1.52,0,0,0-.25,1v8.23a2.27,2.27,0,0,0,.07.64.93.93,0,0,0,.2.41.94.94,0,0,0,.39.23,2.53,2.53,0,0,0,.6.09h.43v.1H61.84v-.1A6,6,0,0,0,62.65,75.64Z"/><path id="_Tracciato_composto_11" data-name="&lt;Tracciato composto&gt;" class="cls-2" d="M75.25,64.61h4.87v.1h-.21a5.85,5.85,0,0,0-.59.06,2.38,2.38,0,0,0-.71.24,1.8,1.8,0,0,0-.62.52,1.42,1.42,0,0,0-.25.89v6a3.05,3.05,0,0,1-.31,1.33,3.29,3.29,0,0,1-.89,1.09,4,4,0,0,1-1.31.68,5.12,5.12,0,0,1-1.58.24h-.08a4.7,4.7,0,0,1-1.52-.24,3.79,3.79,0,0,1-1.27-.68,3.09,3.09,0,0,1-1.21-2.58V65.71a1,1,0,0,0-.32-.76,1.53,1.53,0,0,0-.91-.24h-.45v-.12h4.87v.09h0v0h-.57a1.37,1.37,0,0,0-.76.23,1,1,0,0,0-.32.66v6.6a4.83,4.83,0,0,0,.25,1.54,3,3,0,0,0,.75,1.18,2.71,2.71,0,0,0,1.21.67,3.36,3.36,0,0,0,1.63,0,4.29,4.29,0,0,0,1.53-.75,3,3,0,0,0,.84-1,2.8,2.8,0,0,0,.32-1.32V66.35a1.34,1.34,0,0,0-.28-.86,1.76,1.76,0,0,0-.61-.49,2.74,2.74,0,0,0-.72-.23,5.56,5.56,0,0,0-.57-.06h-.21Z"/><path id="_Tracciato_composto_12" data-name="&lt;Tracciato composto&gt;" class="cls-2" d="M80.75,70.18a6.74,6.74,0,0,1,.09-1.11,7.25,7.25,0,0,1,.3-1.08,6,6,0,0,1,1.06-1.78A4.7,4.7,0,0,1,83.76,65a4.23,4.23,0,0,1,1.89-.45,3.71,3.71,0,0,1,1.37.27h0l0,0,.19.09.19.09a2.89,2.89,0,0,0,1.15.35,1.18,1.18,0,0,0,.63-.14.69.69,0,0,0,.32-.49h.09v4.06h-.09A6.25,6.25,0,0,0,89.05,67a4.58,4.58,0,0,0-.9-1.3A3.85,3.85,0,0,0,87,64.91a3.68,3.68,0,0,0-1.11-.26h0a2.48,2.48,0,0,0-1.41.44,3.93,3.93,0,0,0-1.15,1.18A6.28,6.28,0,0,0,82.56,68a7.79,7.79,0,0,0-.28,2.14,7.59,7.59,0,0,0,.46,2.71,5,5,0,0,0,1.23,2,3.38,3.38,0,0,0,.66.5c.22.11.4.2.56.26a2.45,2.45,0,0,0,.69.09,3.1,3.1,0,0,0,1.1-.23,5,5,0,0,0,.89-.53l.17-.18a2.94,2.94,0,0,0,.22-.3,2.2,2.2,0,0,0,.19-.46,1.8,1.8,0,0,0,.09-.6V72.11a.69.69,0,0,0-.15-.48.82.82,0,0,0-.39-.26,1.89,1.89,0,0,0-.58-.1h-.71v-.11h4.46v.11h-.53a1.07,1.07,0,0,0-.36.08.39.39,0,0,0-.2.2,1,1,0,0,0-.06.38V75h-.1a.83.83,0,0,0-.64-.23,2.74,2.74,0,0,0-.79.17c-.28.11-.58.23-.89.37a5.87,5.87,0,0,1-.93.35,4.25,4.25,0,0,1-1,.12,4.16,4.16,0,0,1-1.89-.43,5.13,5.13,0,0,1-.84-.52,3.89,3.89,0,0,1-.72-.69,5.89,5.89,0,0,1-1.06-1.79,7,7,0,0,1-.3-1.06A6.9,6.9,0,0,1,80.75,70.18Z"/><path id="_Tracciato_composto_13" data-name="&lt;Tracciato composto&gt;" class="cls-2" d="M105,64.64v.09h-.21a3.15,3.15,0,0,0-.6.07,2.68,2.68,0,0,0-.71.23,1.76,1.76,0,0,0-.61.51,1.43,1.43,0,0,0-.26.89v9.36h-.11l-8.2-10.26V74a1.45,1.45,0,0,0,.26.91,1.76,1.76,0,0,0,.61.51,2.35,2.35,0,0,0,.72.24,3.77,3.77,0,0,0,.59.06h.21v.1H91.76v-.1H92a3.89,3.89,0,0,0,.59-.06,2.35,2.35,0,0,0,.72-.24,1.82,1.82,0,0,0,.6-.51,1.39,1.39,0,0,0,.26-.91V66c0-.22,0-.41,0-.58a.8.8,0,0,0-.13-.41.63.63,0,0,0-.37-.24,2.76,2.76,0,0,0-.74-.08h-.43v-.09h3l7,8.71V66.43a1.43,1.43,0,0,0-.26-.89,1.82,1.82,0,0,0-.6-.51,2.87,2.87,0,0,0-.72-.23,3.15,3.15,0,0,0-.59-.07h-.21v-.09H105Z"/><path id="_Tracciato_composto_14" data-name="&lt;Tracciato composto&gt;" class="cls-2" d="M105.24,70.11a6,6,0,0,1,.39-2.19,5.46,5.46,0,0,1,1-1.79,4.71,4.71,0,0,1,1.54-1.2,4.29,4.29,0,0,1,1.91-.45h.8a4.24,4.24,0,0,1,1.9.45,4.54,4.54,0,0,1,1.56,1.2,5.84,5.84,0,0,1,1.06,1.79,6.38,6.38,0,0,1,.38,2.19,6.3,6.3,0,0,1-.38,2.19,5.89,5.89,0,0,1-1.06,1.8,4.54,4.54,0,0,1-1.56,1.2,4.24,4.24,0,0,1-1.9.45h-.8a4.29,4.29,0,0,1-1.91-.45,4.71,4.71,0,0,1-1.54-1.2,5.4,5.4,0,0,1-1-1.8A6,6,0,0,1,105.24,70.11Zm1.52,0a8.66,8.66,0,0,0,.25,2.14,5.87,5.87,0,0,0,.78,1.78,2.27,2.27,0,0,0,.22.32,2.2,2.2,0,0,0,.24.28,3.82,3.82,0,0,0,.84.65c.28.14.5.25.66.31l.27.06a1.36,1.36,0,0,0,.29,0h.42a1.27,1.27,0,0,0,.28,0l.28-.06c.16-.06.37-.17.65-.31a3.85,3.85,0,0,0,.85-.65,3.45,3.45,0,0,0,.23-.28,3.71,3.71,0,0,0,.23-.32,5.63,5.63,0,0,0,.78-1.78A8.58,8.58,0,0,0,114,68a5.63,5.63,0,0,0-.78-1.78,3.71,3.71,0,0,0-.23-.32,2.3,2.3,0,0,0-.23-.28,3.57,3.57,0,0,0-.85-.65,5.71,5.71,0,0,0-.65-.31l-.28,0a1.27,1.27,0,0,0-.28,0h-.42a2.2,2.2,0,0,0-.56.07,5.69,5.69,0,0,0-.66.31,3.53,3.53,0,0,0-.84.65,1.68,1.68,0,0,0-.24.28,2.27,2.27,0,0,0-.22.32A5.87,5.87,0,0,0,107,68,8.63,8.63,0,0,0,106.76,70.11Z"/><path id="_Tracciato_composto_15" data-name="&lt;Tracciato composto&gt;" class="cls-2" d="M124.25,73.86c.22-.21.42-.42.63-.63s.4-.41.58-.61a8.22,8.22,0,0,0,1.3-1.81,8.13,8.13,0,0,0,.71-1.82,6.25,6.25,0,0,0,.18-1.68,4.15,4.15,0,0,0-.26-1.39,2.35,2.35,0,0,0-.62-1,1.37,1.37,0,0,0-.92-.35l-.25,0-.26,0a1.47,1.47,0,0,0-.9.5,1.89,1.89,0,0,0-.38.81,3.21,3.21,0,0,0-.08.87c0,.29,0,.51,0,.67a.68.68,0,0,1-.21.45.65.65,0,0,1-.48.19.58.58,0,0,1-.44-.19.59.59,0,0,1-.17-.45v-.09a3,3,0,0,1,1-2,3.26,3.26,0,0,1,1-.64,3.22,3.22,0,0,1,1.19-.22,2.93,2.93,0,0,1,2.14.86,2.83,2.83,0,0,1,.83,2.12,4.48,4.48,0,0,1-.11.72,3.21,3.21,0,0,1-.26.73,5.8,5.8,0,0,1-.39.73c-.15.24-.33.49-.53.76a16.31,16.31,0,0,1-1.41,1.63c-.55.57-1.15,1.18-1.81,1.84a6.62,6.62,0,0,1-.53.53h4.43a1,1,0,0,0,.38,0,.9.9,0,0,0,.22-.11.3.3,0,0,0,.11-.12l0-.09v0h.11l-.26,1.7h-6.44l1-1Z"/><path id="_Tracciato_composto_16" data-name="&lt;Tracciato composto&gt;" class="cls-2" d="M137.9,72.54a6.24,6.24,0,0,1-.35.95,4.45,4.45,0,0,1-.49.82,3.88,3.88,0,0,1-1.27,1.16,3.18,3.18,0,0,1-3.09,0,3.73,3.73,0,0,1-1.27-1.15,4.72,4.72,0,0,1-.49-.81,7,7,0,0,1-.35-.94,7.21,7.21,0,0,1-.24-1.12,9,9,0,0,1-.08-1.18,9.52,9.52,0,0,1,.11-1.46,8.7,8.7,0,0,1,.33-1.29.7.7,0,0,1,.06-.19c0-.06,0-.12.07-.17a4.53,4.53,0,0,1,.27-.54c.1-.17.21-.34.32-.49a4.57,4.57,0,0,1,.59-.64,3.34,3.34,0,0,1,.68-.45,3.1,3.1,0,0,1,1.55-.39,3.2,3.2,0,0,1,1.54.39,3.82,3.82,0,0,1,1.27,1.11,4.9,4.9,0,0,1,.49.83,7.9,7.9,0,0,1,.59,2.07,9.37,9.37,0,0,1,.08,1.22,8.72,8.72,0,0,1-.08,1.17A6.51,6.51,0,0,1,137.9,72.54Zm-2,1.71a8.55,8.55,0,0,0,.52-1.78,12.61,12.61,0,0,0,.19-2.2,13.14,13.14,0,0,0-.18-2.27,7.48,7.48,0,0,0-.53-1.78,3.2,3.2,0,0,0-.78-1.08,1.44,1.44,0,0,0-.92-.37,1.33,1.33,0,0,0-.92.37,2.69,2.69,0,0,0-.78,1.06A6.84,6.84,0,0,0,132,68a12.44,12.44,0,0,0-.19,2.3c0,.4,0,.79,0,1.17s.09.74.16,1.09a6.62,6.62,0,0,0,.51,1.74,3.29,3.29,0,0,0,.77,1.12,1.32,1.32,0,0,0,1.85,0A3.21,3.21,0,0,0,136,74.25Z"/><path id="_Tracciato_composto_17" data-name="&lt;Tracciato composto&gt;" class="cls-2" d="M141.29,73.86l.62-.63.59-.61a8.47,8.47,0,0,0,2-3.63,6.71,6.71,0,0,0,.19-1.68,4.41,4.41,0,0,0-.26-1.39,2.36,2.36,0,0,0-.63-1,1.35,1.35,0,0,0-.91-.35l-.26,0-.26,0a1.47,1.47,0,0,0-.9.5,1.89,1.89,0,0,0-.38.81,3.21,3.21,0,0,0-.08.87,5.23,5.23,0,0,1,0,.67.68.68,0,0,1-.21.45.64.64,0,0,1-.47.19.58.58,0,0,1-.45-.19.59.59,0,0,1-.17-.45v-.09a3,3,0,0,1,1-2,3,3,0,0,1,1-.64,3.15,3.15,0,0,1,1.19-.22,2.93,2.93,0,0,1,2.13.86,2.8,2.8,0,0,1,.84,2.12,6,6,0,0,1-.11.72,3.83,3.83,0,0,1-.27.73,5.68,5.68,0,0,1-.38.73c-.16.24-.34.49-.54.76a16.31,16.31,0,0,1-1.41,1.63c-.55.57-1.15,1.18-1.81,1.84a5.3,5.3,0,0,1-.53.53h4.43a1,1,0,0,0,.38,0,.75.75,0,0,0,.22-.11.24.24,0,0,0,.11-.12l.05-.09v0h.11l-.27,1.7H139.4l1-1Z"/><path id="_Tracciato_composto_18" data-name="&lt;Tracciato composto&gt;" class="cls-2" d="M154.93,72.54a5.33,5.33,0,0,1-.35.95,5,5,0,0,1-.48.82,4.08,4.08,0,0,1-1.27,1.16,3.2,3.2,0,0,1-3.1,0,3.82,3.82,0,0,1-1.27-1.15,5.4,5.4,0,0,1-.48-.81,5.86,5.86,0,0,1-.35-.94,7.24,7.24,0,0,1-.25-1.12,9,9,0,0,1-.07-1.18,8.41,8.41,0,0,1,.11-1.46,7.6,7.6,0,0,1,.32-1.29l.06-.19c0-.06,0-.12.08-.17a3.36,3.36,0,0,1,.26-.54c.11-.17.21-.34.32-.49a4.62,4.62,0,0,1,.6-.64,3.28,3.28,0,0,1,.67-.45,3.13,3.13,0,0,1,1.55-.39,3.24,3.24,0,0,1,1.55.39,4,4,0,0,1,1.27,1.11,5.62,5.62,0,0,1,.48.83,5.44,5.44,0,0,1,.35,1,6.42,6.42,0,0,1,.25,1.11,9.43,9.43,0,0,1,.07,1.22,8.76,8.76,0,0,1-.07,1.17A6.52,6.52,0,0,1,154.93,72.54Zm-2,1.71a8,8,0,0,0,.52-1.78,11.71,11.71,0,0,0,.19-2.2,13.14,13.14,0,0,0-.18-2.27,7.48,7.48,0,0,0-.53-1.78,3.19,3.19,0,0,0-.77-1.08,1.49,1.49,0,0,0-.93-.37,1.36,1.36,0,0,0-.92.37,2.69,2.69,0,0,0-.78,1.06,7.25,7.25,0,0,0-.53,1.77,13.42,13.42,0,0,0-.18,2.3,11.21,11.21,0,0,0,0,1.17,7.52,7.52,0,0,0,.16,1.09,7,7,0,0,0,.5,1.74,3.29,3.29,0,0,0,.77,1.12,1.38,1.38,0,0,0,.93.38,1.4,1.4,0,0,0,.93-.38A3.2,3.2,0,0,0,153,74.25Z"/><path id="_Tracciato_composto_19" data-name="&lt;Tracciato composto&gt;" class="cls-2" d="M56.4,84.35a6,6,0,0,1,.39-2.19,5.46,5.46,0,0,1,1-1.79,4.71,4.71,0,0,1,1.54-1.2,4.24,4.24,0,0,1,1.9-.45h.81a4.28,4.28,0,0,1,1.9.45,4.74,4.74,0,0,1,1.56,1.2,5.84,5.84,0,0,1,1.06,1.79A6.38,6.38,0,0,1,67,84.35a6.3,6.3,0,0,1-.38,2.19,5.89,5.89,0,0,1-1.06,1.8A4.74,4.74,0,0,1,64,89.54a4.28,4.28,0,0,1-1.9.45h-.81a4.24,4.24,0,0,1-1.9-.45,4.71,4.71,0,0,1-1.54-1.2,5.4,5.4,0,0,1-1-1.8A6,6,0,0,1,56.4,84.35Zm1.52,0a8.66,8.66,0,0,0,.25,2.14A5.63,5.63,0,0,0,59,88.27a2.2,2.2,0,0,0,.21.32,2.26,2.26,0,0,0,.25.28,3.6,3.6,0,0,0,.84.65,6.79,6.79,0,0,0,.66.31l.27.06a1.36,1.36,0,0,0,.29,0h.42a1.27,1.27,0,0,0,.28,0l.28-.06c.15-.06.37-.17.64-.31a3.89,3.89,0,0,0,.86-.65,3.45,3.45,0,0,0,.23-.28,3.71,3.71,0,0,0,.23-.32,5.87,5.87,0,0,0,.78-1.78,8.58,8.58,0,0,0,0-4.27,5.87,5.87,0,0,0-.78-1.78,2.62,2.62,0,0,0-.23-.32,2.3,2.3,0,0,0-.23-.28,3.6,3.6,0,0,0-.86-.65,5.74,5.74,0,0,0-.64-.31l-.28,0a1.27,1.27,0,0,0-.28,0h-.42a2.15,2.15,0,0,0-.56.07,5,5,0,0,0-.66.31,3.35,3.35,0,0,0-.84.65,1.72,1.72,0,0,0-.25.28,1.77,1.77,0,0,0-.21.32,5.63,5.63,0,0,0-.78,1.78A8.63,8.63,0,0,0,57.92,84.35Z"/><path id="_Tracciato_composto_20" data-name="&lt;Tracciato composto&gt;" class="cls-2" d="M67.76,90v-.1h0a5.88,5.88,0,0,0,.8-.05,1.07,1.07,0,0,0,.52-.2.9.9,0,0,0,.27-.42,2.31,2.31,0,0,0,.08-.71V80.34a1.54,1.54,0,0,0-.27-1,1.44,1.44,0,0,0-1-.33h-.44v-.08h5.31a5.68,5.68,0,0,1,1.61.2,3.66,3.66,0,0,1,1.12.6,2.43,2.43,0,0,1,.63.87,2.78,2.78,0,0,1,.22,1.13,2.49,2.49,0,0,1-.85,2,3.41,3.41,0,0,1-1.12.6,2.71,2.71,0,0,1-.64.15l-.72.07a2.31,2.31,0,0,1,.62.3,2.82,2.82,0,0,1,.74.76l2.63,3.64a1.38,1.38,0,0,0,.46.41,2.6,2.6,0,0,0,.53.22,1.83,1.83,0,0,0,.46.1H79V90H76.22l-3.4-4.71a2.56,2.56,0,0,0-.39-.44,1.21,1.21,0,0,0-.64-.36,1.73,1.73,0,0,0-.32,0H71v4.07a2.78,2.78,0,0,0,.06.64.84.84,0,0,0,.21.41,1,1,0,0,0,.38.23,2.36,2.36,0,0,0,.59.09h.43V90H67.76ZM71,84.41h2a2,2,0,0,0,1.17-.35,2.53,2.53,0,0,0,.31-.28,2.25,2.25,0,0,0,.3-.42A3.55,3.55,0,0,0,75,82.6a4.42,4.42,0,0,0,.09-.92,3.31,3.31,0,0,0-.51-1.93A1.89,1.89,0,0,0,73,79h-.91a1.83,1.83,0,0,0-.52.11,1,1,0,0,0-.34.24.78.78,0,0,0-.18.4,2.68,2.68,0,0,0-.06.61v4.09Z"/><path id="_Tracciato_composto_21" data-name="&lt;Tracciato composto&gt;" class="cls-2" d="M87.19,89.79a3,3,0,0,0,.81-.36,2.86,2.86,0,0,0,.62-.51,4.1,4.1,0,0,0,.46-.59,4.8,4.8,0,0,0,.63-1.62h.1L89.4,90H80.19v-.1a5.88,5.88,0,0,0,.8-.05,1.07,1.07,0,0,0,.52-.2.79.79,0,0,0,.28-.42,2.27,2.27,0,0,0,.09-.71v-8a.28.28,0,0,0,0-.09s0,0,0-.08a1.54,1.54,0,0,0-.27-1,1.44,1.44,0,0,0-1-.33h-.44v-.08H89V81.8h-.09c-.08-.31-.16-.63-.26-1a3,3,0,0,0-.45-.92,2.49,2.49,0,0,0-.84-.68A3.07,3.07,0,0,0,86,79H83.35v5.45h2a1.61,1.61,0,0,0,.94-.27,1.72,1.72,0,0,0,.51-.58A1.81,1.81,0,0,0,87,83a3.05,3.05,0,0,0,0-.39v0h.1V86.4h-.1v0a3.15,3.15,0,0,0,0-.4,1.88,1.88,0,0,0-.22-.64,1.6,1.6,0,0,0-1.52-.83H83.35v3.82a1.29,1.29,0,0,1,0,.25,2.78,2.78,0,0,0,.06.64.84.84,0,0,0,.21.41,1,1,0,0,0,.38.23,2.36,2.36,0,0,0,.59.09h1.55A3.66,3.66,0,0,0,87.19,89.79Z"/><path id="_Tracciato_composto_22" data-name="&lt;Tracciato composto&gt;" class="cls-2" d="M97.39,89.88a1.11,1.11,0,0,0,.52-.2.85.85,0,0,0,.28-.42,2.67,2.67,0,0,0,.08-.71V81.73A1.11,1.11,0,0,0,97,80.37h-.13v-.1h.25l.57-.06a2.67,2.67,0,0,0,.7-.21,2.14,2.14,0,0,0,.66-.43,1.66,1.66,0,0,0,.45-.74v0h.24v9.48a.49.49,0,0,0,0,.12s0,.09,0,.13a2.78,2.78,0,0,0,.06.64.93.93,0,0,0,.2.41.84.84,0,0,0,.38.23,2.24,2.24,0,0,0,.6.09h.43V90H96.6v-.1A5.72,5.72,0,0,0,97.39,89.88Z"/><path id="_Tracciato_composto_23" data-name="&lt;Tracciato composto&gt;" class="cls-2" d="M103.54,89.88a1.07,1.07,0,0,0,.51-.2.79.79,0,0,0,.28-.42,2.27,2.27,0,0,0,.09-.71V81.73a1.49,1.49,0,0,0-.28-1,1.44,1.44,0,0,0-1-.32H103v-.1h.25l.58-.06a2.78,2.78,0,0,0,.7-.21,2,2,0,0,0,.65-.43,1.67,1.67,0,0,0,.46-.74v0h.24v9.48a.49.49,0,0,0,0,.12v.13a2.27,2.27,0,0,0,.07.64.83.83,0,0,0,.2.41.87.87,0,0,0,.37.23,2.38,2.38,0,0,0,.6.09h.43V90h-4.85v-.1A5.77,5.77,0,0,0,103.54,89.88Z"/><path id="_Tracciato_composto_24" data-name="&lt;Tracciato composto&gt;" class="cls-2" d="M110,88.31a.84.84,0,0,1,.85.84.85.85,0,0,1-.24.61A.84.84,0,0,1,110,90a.81.81,0,0,1-.6-.24.82.82,0,0,1-.25-.61.85.85,0,0,1,.85-.84Z"/><path id="_Tracciato_composto_25" data-name="&lt;Tracciato composto&gt;" class="cls-2" d="M119.75,86.78a5.33,5.33,0,0,1-.35,1,4.45,4.45,0,0,1-.49.82,4,4,0,0,1-1.26,1.16,3.2,3.2,0,0,1-3.1,0,3.73,3.73,0,0,1-1.27-1.15,5.45,5.45,0,0,1-.49-.81,7,7,0,0,1-.34-.94,6.24,6.24,0,0,1-.25-1.12,9,9,0,0,1-.07-1.18,8.41,8.41,0,0,1,.11-1.46,7.6,7.6,0,0,1,.32-1.29l.06-.19a.89.89,0,0,1,.08-.17,3.36,3.36,0,0,1,.26-.54c.1-.17.21-.34.32-.49a4.62,4.62,0,0,1,.6-.64,3,3,0,0,1,.67-.45,3.13,3.13,0,0,1,1.55-.39,3.24,3.24,0,0,1,1.55.39,3.89,3.89,0,0,1,1.26,1.11,4.9,4.9,0,0,1,.49.83,5.44,5.44,0,0,1,.35,1,6.42,6.42,0,0,1,.24,1.11,7.9,7.9,0,0,1,.08,1.22,7.33,7.33,0,0,1-.08,1.17A6.51,6.51,0,0,1,119.75,86.78Zm-2,1.71a8,8,0,0,0,.52-1.78,11.71,11.71,0,0,0,.19-2.2,13.14,13.14,0,0,0-.18-2.27,7.48,7.48,0,0,0-.53-1.78,3.19,3.19,0,0,0-.77-1.08,1.49,1.49,0,0,0-.93-.37,1.35,1.35,0,0,0-.92.37,2.69,2.69,0,0,0-.78,1.06,7.25,7.25,0,0,0-.53,1.77,13.42,13.42,0,0,0-.18,2.3,11.21,11.21,0,0,0,0,1.17,7.19,7.19,0,0,0,.16,1.08,6.6,6.6,0,0,0,.5,1.75,3.29,3.29,0,0,0,.77,1.12,1.36,1.36,0,0,0,.93.38,1.4,1.4,0,0,0,.93-.38A3.2,3.2,0,0,0,117.8,88.49Z"/><path id="_Tracciato_composto_26" data-name="&lt;Tracciato composto&gt;" class="cls-2" d="M128.77,86.78a5.33,5.33,0,0,1-.35,1,4.45,4.45,0,0,1-.49.82,3.88,3.88,0,0,1-1.27,1.16,3.08,3.08,0,0,1-1.54.4,3.11,3.11,0,0,1-1.55-.4,3.73,3.73,0,0,1-1.27-1.15,5.45,5.45,0,0,1-.49-.81,5.83,5.83,0,0,1-.34-.94,6.24,6.24,0,0,1-.25-1.12,9,9,0,0,1-.08-1.18,8.38,8.38,0,0,1,.12-1.46,7.6,7.6,0,0,1,.32-1.29,1.39,1.39,0,0,1,.06-.19.89.89,0,0,1,.08-.17,3.36,3.36,0,0,1,.26-.54c.1-.17.21-.34.32-.49a4.57,4.57,0,0,1,.59-.64,3.34,3.34,0,0,1,.68-.45,3.1,3.1,0,0,1,1.55-.39,3.18,3.18,0,0,1,1.54.39,3.82,3.82,0,0,1,1.27,1.11,4.9,4.9,0,0,1,.49.83,5.44,5.44,0,0,1,.35,1,6.42,6.42,0,0,1,.24,1.11,9.37,9.37,0,0,1,.08,1.22,8.72,8.72,0,0,1-.08,1.17A6.51,6.51,0,0,1,128.77,86.78Zm-2,1.71a8,8,0,0,0,.52-1.78,11.71,11.71,0,0,0,.19-2.2,13.14,13.14,0,0,0-.18-2.27,7.48,7.48,0,0,0-.53-1.78,3.2,3.2,0,0,0-.78-1.08,1.44,1.44,0,0,0-.92-.37,1.35,1.35,0,0,0-.92.37,2.69,2.69,0,0,0-.78,1.06,6.84,6.84,0,0,0-.53,1.77,13.42,13.42,0,0,0-.18,2.3c0,.4,0,.79,0,1.17s.09.74.16,1.08a7,7,0,0,0,.51,1.75,3.29,3.29,0,0,0,.77,1.12,1.32,1.32,0,0,0,1.85,0A3.21,3.21,0,0,0,126.82,88.49Z"/></g></g></g></svg>