<?xml version="1.0" standalone="no"?>
<!DOCTYPE svg PUBLIC "-//W3C//DTD SVG 20010904//EN"
 "http://www.w3.org/TR/2001/REC-SVG-20010904/DTD/svg10.dtd">
<svg version="1.0" xmlns="http://www.w3.org/2000/svg"
 width="700.000000pt" height="700.000000pt" viewBox="0 0 700.000000 700.000000"
 preserveAspectRatio="xMidYMid meet">
<metadata>
Created by potrace 1.11, written by Peter Selinger 2001-2013
</metadata>
<g transform="translate(0.000000,700.000000) scale(0.100000,-0.100000)"
fill="#000000" stroke="none">
<path d="M3598 6995 c-1 -1 -43 -6 -93 -10 -49 -4 -92 -8 -95 -10 -3 -2 -30
-6 -60 -10 -46 -5 -113 -18 -265 -51 -11 -2 -54 -14 -95 -27 -79 -25 -80 -26
-66 -86 3 -14 8 -47 11 -75 3 -28 8 -52 9 -54 2 -1 48 10 102 26 246 73 476
101 774 97 124 -2 239 -6 255 -8 17 -3 54 -8 83 -11 30 -4 91 -14 135 -22 45
-9 92 -18 103 -20 12 -2 51 -13 85 -23 40 -12 109 -21 184 -24 66 -3 131 -8
144 -11 67 -15 165 -52 246 -93 256 -130 498 -349 934 -848 82 -93 294 -397
357 -510 6 -11 21 -38 34 -60 225 -393 372 -858 417 -1320 10 -101 10 -484 0
-590 -10 -100 -35 -276 -49 -335 -5 -25 -12 -56 -14 -70 -23 -123 -122 -434
-194 -605 -156 -372 -394 -728 -679 -1020 -217 -221 -385 -354 -709 -559 -23
-15 -41 -30 -38 -35 3 -4 6 -48 7 -97 1 -49 4 -94 6 -101 9 -22 317 185 508
341 540 442 945 1016 1175 1666 59 167 83 252 114 405 24 115 30 150 41 232 3
21 7 52 10 68 30 201 25 616 -10 880 -6 52 -36 219 -40 225 -2 3 -6 23 -9 45
-10 60 -61 247 -99 360 -113 333 -295 683 -516 990 -73 101 -216 279 -272 340
-21 22 -50 54 -64 70 -133 147 -386 393 -500 487 -282 230 -541 343 -803 347
-63 1 -127 9 -169 21 -63 17 -198 45 -268 55 -16 2 -66 9 -110 16 -71 10 -508
22 -517 14z"/>
<path d="M2555 6733 c-33 -14 -123 -55 -200 -92 -759 -364 -1448 -997 -1877
-1726 -227 -387 -390 -824 -444 -1192 -3 -26 -8 -57 -10 -68 -25 -133 -25
-681 0 -724 2 -3 6 -29 10 -58 13 -108 60 -304 108 -448 116 -350 307 -692
567 -1015 150 -187 440 -464 656 -626 256 -193 637 -411 890 -508 39 -15 84
-33 100 -41 129 -57 516 -163 690 -189 22 -4 67 -11 100 -16 199 -30 578 -33
793 -6 298 38 607 122 862 235 l105 46 -1 55 c-1 69 -6 141 -12 157 -3 9 -18
5 -52 -12 -53 -27 -249 -105 -320 -128 -206 -67 -379 -109 -555 -136 -170 -27
-283 -34 -490 -35 -158 0 -337 9 -367 19 -7 2 -35 6 -63 9 -71 9 -115 16 -155
26 -19 5 -49 12 -66 14 -62 11 -222 56 -334 94 -508 173 -946 447 -1335 836
-342 342 -572 686 -740 1106 -86 217 -159 495 -181 695 -3 27 -8 61 -11 75 -9
46 -11 444 -3 525 16 152 21 190 25 205 2 8 7 30 10 48 5 28 32 158 39 187 24
96 87 283 133 393 37 91 165 350 194 392 9 14 40 63 69 110 142 226 330 460
545 676 114 115 294 275 380 339 22 17 46 36 53 43 27 25 300 211 382 260 165
98 337 187 500 258 82 35 96 56 101 140 5 101 -9 112 -96 77z"/>
<path d="M3395 6459 c-89 -7 -215 -23 -260 -34 -5 -1 -28 -5 -50 -10 -22 -4
-60 -13 -85 -21 -25 -7 -63 -18 -86 -23 -38 -10 -41 -14 -57 -68 -147 -512
-353 -1272 -382 -1406 -8 -37 -106 -444 -115 -477 -18 -66 -129 -583 -146
-680 -3 -14 -9 -50 -15 -80 -31 -170 -42 -226 -60 -330 -19 -111 -23 -132 -34
-202 -3 -18 -10 -58 -15 -88 -5 -30 -12 -75 -15 -100 -3 -25 -10 -70 -15 -100
-5 -30 -12 -75 -15 -100 -3 -25 -7 -56 -10 -70 -3 -14 -7 -41 -9 -60 -2 -19
-9 -72 -16 -117 -16 -122 -18 -133 -30 -261 -6 -64 -13 -135 -15 -157 -11 -93
-14 -533 -4 -595 23 -137 65 -227 120 -255 58 -30 229 -46 339 -31 14 2 50 7
80 10 53 7 369 53 420 62 66 11 92 16 190 35 58 11 148 31 200 44 124 30 312
74 336 79 10 3 57 14 104 25 77 19 183 42 250 55 14 2 72 14 130 26 163 33
178 34 205 16 54 -35 11 -84 -110 -126 -267 -92 -1330 -347 -1560 -374 -27 -4
-61 -8 -75 -11 -44 -8 -83 -14 -145 -21 -33 -3 -64 -8 -68 -11 -26 -15 -287 2
-354 23 -41 13 118 -75 187 -103 159 -66 285 -93 462 -99 111 -3 173 -10 188
-19 4 -3 25 -7 46 -10 22 -4 46 -8 54 -10 8 -2 44 -7 80 -11 36 -3 67 -8 70
-9 3 -2 46 -6 95 -10 50 -3 122 -15 160 -25 39 -10 86 -21 105 -24 19 -3 46
-8 60 -11 14 -3 75 -13 135 -22 158 -24 580 -24 710 1 11 2 43 7 70 10 142 20
444 114 431 134 -11 19 -21 475 -21 997 0 486 6 778 20 1050 4 66 7 136 20
440 4 72 8 138 11 147 4 13 1 16 -11 11 -22 -8 -245 -308 -400 -538 -66 -98
-161 -237 -212 -309 -51 -72 -145 -210 -210 -306 -64 -96 -121 -179 -125 -185
-4 -5 -33 -44 -65 -85 -148 -197 -342 -395 -447 -459 -189 -113 -377 -115
-528 -5 -113 83 -242 358 -283 604 -3 19 -8 42 -10 50 -2 8 -7 35 -10 60 -4
24 -8 47 -10 50 -2 3 -7 50 -12 105 -16 189 -9 695 12 860 2 17 7 57 10 90 11
111 47 379 60 455 3 14 9 52 15 85 5 33 19 105 31 160 11 55 23 111 25 125 3
14 10 43 16 65 5 22 11 47 13 55 39 193 200 692 302 935 88 209 100 235 210
455 141 284 269 471 442 647 64 66 69 73 48 78 -34 9 -283 11 -372 4z"/>
<path d="M3975 6307 c-103 -107 -112 -117 -204 -235 -234 -299 -417 -653 -561
-1082 -18 -52 -36 -104 -41 -115 -52 -120 -234 -878 -264 -1100 -2 -11 -6 -40
-10 -65 -4 -25 -8 -52 -9 -60 -9 -69 -18 -139 -21 -158 -2 -13 -7 -56 -10 -95
-4 -40 -9 -83 -11 -97 -18 -115 -26 -700 -12 -830 42 -367 96 -567 189 -700
40 -57 81 -84 139 -94 63 -10 222 59 294 127 18 18 73 77 122 132 49 55 91
102 94 105 25 22 200 258 300 405 134 195 208 304 279 405 24 36 105 155 179
265 75 110 159 235 189 278 29 42 53 80 53 83 0 5 -35 2 -140 -11 -19 -3 -60
-7 -90 -10 -56 -5 -218 -23 -280 -30 -19 -3 -62 -7 -95 -10 -88 -8 -161 -15
-245 -25 -84 -10 -177 -20 -230 -26 -38 -3 -90 -12 -130 -22 -14 -3 -60 -6
-102 -6 -63 0 -83 4 -105 20 -52 39 -34 87 37 99 19 3 46 7 60 10 14 2 59 7
100 10 41 3 91 8 110 10 19 2 71 7 115 11 44 3 91 7 105 9 14 2 59 6 100 9 41
4 86 9 100 11 14 2 61 6 104 10 43 4 86 8 95 10 9 1 52 6 96 9 44 4 91 9 105
11 14 2 54 6 90 10 36 4 76 8 90 10 31 5 167 17 198 18 14 1 45 25 82 64 65
68 89 78 153 70 34 -4 50 -14 85 -54 24 -26 46 -47 50 -47 8 2 184 15 262 20
209 12 683 1 730 -17 40 -15 53 -43 32 -69 -17 -20 -26 -21 -382 -25 -486 -5
-611 -12 -627 -33 -8 -10 -13 -52 -14 -111 0 -53 -2 -123 -4 -156 -18 -326
-29 -2294 -13 -2311 17 -16 265 181 366 291 114 124 185 227 297 427 62 111
84 146 152 248 127 190 212 357 288 564 42 118 97 318 109 401 4 22 11 65 16
95 16 93 23 199 24 355 1 188 -7 284 -39 466 -129 747 -500 1425 -1065 1943
-123 113 -363 297 -468 360 -12 7 -12 -28 3 -159 3 -22 7 -85 10 -140 3 -55 7
-140 10 -190 5 -100 15 -197 31 -302 6 -39 10 -44 43 -53 20 -5 46 -10 58 -10
25 0 30 -6 37 -43 7 -39 -21 -66 -69 -68 -22 -1 -63 -9 -92 -17 -42 -12 -60
-13 -91 -4 -68 21 -95 59 -117 167 -22 107 -50 345 -61 500 -7 111 -23 288
-30 325 -2 14 -10 56 -17 94 l-13 69 -89 39 c-98 42 -294 108 -322 108 -10 0
-58 -42 -108 -93z"/>
<path d="M2385 6149 c-253 -141 -474 -308 -686 -519 -171 -171 -234 -248 -306
-377 -15 -28 -60 -85 -100 -127 -100 -106 -216 -253 -296 -374 -149 -225 -292
-543 -340 -757 -3 -11 -10 -38 -16 -60 -29 -110 -44 -259 -45 -430 -1 -206 5
-270 40 -421 14 -60 34 -154 45 -209 55 -295 168 -552 338 -770 26 -33 69 -94
96 -135 62 -95 145 -208 210 -285 111 -132 386 -387 402 -372 2 3 0 14 -5 24
-8 16 -24 74 -38 143 -25 123 -24 703 1 825 2 11 7 52 10 90 3 39 7 81 9 95 6
34 17 118 22 160 3 19 11 73 19 120 8 47 17 105 20 130 3 25 12 83 20 130 8
47 17 102 21 124 3 21 8 48 10 60 2 11 7 41 10 66 3 25 8 47 9 50 2 3 6 26 9
50 4 25 9 56 11 70 16 78 37 190 41 215 30 177 169 838 209 996 8 30 16 64 18
75 2 10 7 33 11 49 5 17 45 181 91 365 83 333 152 589 239 894 25 88 46 161
46 163 0 9 -25 -2 -125 -58z"/>
</g>
</svg>
